<?xml version="1.0" encoding="UTF-8"?>
<svg id="Layer_1" data-name="Layer 1" xmlns="http://www.w3.org/2000/svg" version="1.1" xmlns:xlink="http://www.w3.org/1999/xlink" viewBox="0 0 206.95 51.62">
  <defs>
    <style>
      .cls-1 {
        fill: url(#linear-gradient);
      }

      .cls-1, .cls-2, .cls-3, .cls-4, .cls-5 {
        stroke-width: 0px;
      }

      .cls-6 {
        isolation: isolate;
      }

      .cls-2 {
        fill: url(#linear-gradient-2);
      }

      .cls-3 {
        fill: url(#linear-gradient-3);
      }

      .cls-4 {
        fill: #fff;
      }

      .cls-5 {
        fill: url(#linear-gradient-4);
      }
    </style>
    <linearGradient id="linear-gradient" x1="12.86" y1="52.05" x2="12.86" y2="4.33" gradientTransform="translate(0 52.63) scale(1 -1)" gradientUnits="userSpaceOnUse">
      <stop offset="0" stop-color="#fff"/>
      <stop offset="1" stop-color="#fff"/>
    </linearGradient>
    <linearGradient id="linear-gradient-2" x1="38.34" y1="52.05" x2="38.34" y2="4.33" gradientTransform="translate(0 52.63) scale(1 -1)" gradientUnits="userSpaceOnUse">
      <stop offset="0" stop-color="#fff"/>
      <stop offset="1" stop-color="#fff"/>
    </linearGradient>
    <linearGradient id="linear-gradient-3" x1="25.78" y1="52.05" x2="25.78" y2="4.33" gradientTransform="translate(0 52.63) scale(1 -1)" gradientUnits="userSpaceOnUse">
      <stop offset="0" stop-color="#fff"/>
      <stop offset="1" stop-color="#fff"/>
    </linearGradient>
    <linearGradient id="linear-gradient-4" x1="24.78" y1="52.05" x2="24.78" y2="4.33" gradientTransform="translate(0 52.63) scale(1 -1)" gradientUnits="userSpaceOnUse">
      <stop offset="0" stop-color="#fff"/>
      <stop offset="1" stop-color="#fff"/>
    </linearGradient>
  </defs>
  <g>
    <g>
      <g class="cls-6">
        <path class="cls-4" d="M71.93,24.71h-7.9l-1.7,4.8h-3.7l7.7-20.5h3.2l7.8,20.5h-3.7l-1.7-4.8ZM64.93,21.81h5.9l-3-8.5-2.9,8.5Z"/>
        <path class="cls-4" d="M98.13,22.81c-.2,2.2-1,3.9-2.4,5.1s-3.3,1.8-5.6,1.8c-1.6,0-3.1-.4-4.3-1.2s-2.2-1.9-2.9-3.3c-.7-1.4-1-3.1-1.1-5v-1.9c0-1.9.3-3.6,1-5.1s1.7-2.6,2.9-3.4c1.3-.8,2.8-1.2,4.4-1.2,2.3,0,4.1.6,5.5,1.8s2.2,3,2.4,5.2h-3.5c-.2-1.5-.6-2.5-1.3-3.2-.7-.7-1.7-1-3-1-1.5,0-2.7.6-3.6,1.7-.8,1.1-1.3,2.8-1.3,5v1.8c0,2.2.4,3.9,1.2,5.1.8,1.2,2,1.7,3.5,1.7,1.4,0,2.4-.3,3.2-.9.7-.6,1.1-1.7,1.3-3.1h3.6v.1Z"/>
        <path class="cls-4" d="M118.93,11.81h-6.4v17.6h-3.5V11.81h-6.3v-2.9h16.3v2.9h-.1Z"/>
        <path class="cls-4" d="M140.73,19.71c0,2-.3,3.8-1,5.3-.7,1.5-1.7,2.7-3,3.5s-2.8,1.2-4.5,1.2-3.1-.4-4.4-1.2c-1.3-.8-2.3-2-3-3.5s-1.1-3.2-1.1-5.2v-1.2c0-2,.4-3.8,1.1-5.3s1.7-2.7,3-3.5,2.8-1.2,4.4-1.2c1.7,0,3.2.4,4.4,1.2,1.3.8,2.3,2,3,3.5s1.1,3.3,1.1,5.3v1.1ZM137.13,18.61c0-2.3-.4-4-1.3-5.2-.9-1.2-2.1-1.8-3.7-1.8-1.5,0-2.7.6-3.6,1.8-.9,1.2-1.3,2.9-1.3,5.1v1.2c0,2.3.4,4,1.3,5.2.9,1.2,2.1,1.8,3.7,1.8s2.8-.6,3.6-1.8c.8-1.2,1.3-3,1.3-5.3v-1Z"/>
        <path class="cls-4" d="M163.53,24.41l3.2-15.4h3.5l-4.7,20.5h-3.5l-3.9-15-4,15h-3.4l-4.7-20.6h3.5l3.2,15.4,3.9-15.4h3l3.9,15.5Z"/>
        <path class="cls-4" d="M179.73,29.41h-3.5V8.91h3.5v20.5Z"/>
        <path class="cls-4" d="M190.63,26.61h11v2.8h-15.3v-2.3l10.6-15.3h-10.5v-2.9h14.9v2.3l-10.7,15.4Z"/>
      </g>
      <g class="cls-6">
        <path class="cls-4" d="M63.33,40.91h-3.1l-.7,1.9h-1l2.8-7.4h.9l2.8,7.4h-1l-.7-1.9ZM60.43,40.11h2.6l-1.3-3.5-1.3,3.5Z"/>
        <path class="cls-4" d="M71.03,40.11c0,.8-.2,1.5-.6,2s-.9.8-1.6.8-1.2-.2-1.6-.6v2.6h-.9v-7.6h.9v.6c.4-.5.9-.7,1.6-.7s1.2.2,1.6.7c.4.6.6,1.3.6,2.2h0ZM70.03,40.01c0-.6-.1-1.1-.4-1.5s-.6-.5-1.1-.5c-.6,0-1,.3-1.3.8v2.6c.3.5.7.8,1.3.8.5,0,.8-.2,1.1-.5.3-.4.4-1,.4-1.7Z"/>
        <path class="cls-4" d="M77.33,40.11c0,.8-.2,1.5-.6,2s-.9.8-1.6.8-1.2-.2-1.6-.6v2.6h-.9v-7.6h.9v.6c.4-.5.9-.7,1.6-.7s1.2.2,1.6.7c.4.6.6,1.3.6,2.2h0ZM76.43,40.01c0-.6-.1-1.1-.4-1.5s-.6-.5-1.1-.5c-.6,0-1,.3-1.3.8v2.6c.3.5.7.8,1.3.8.5,0,.8-.2,1.1-.5.2-.4.4-1,.4-1.7Z"/>
        <path class="cls-4" d="M80.03,42.81h-.9v-7.8h.9v7.8Z"/>
        <path class="cls-4" d="M82.03,35.91c0-.2,0-.3.1-.4.1-.1.2-.2.4-.2s.3.1.4.2c.1.1.1.2.1.4s0,.3-.1.4c-.1.1-.2.2-.4.2s-.3-.1-.4-.2c0-.2-.1-.3-.1-.4ZM83.03,42.81h-.9v-5.5h.9v5.5Z"/>
        <path class="cls-4" d="M88.43,42.81c-.1-.1-.1-.3-.1-.6-.4.5-1,.7-1.6.7-.5,0-1-.2-1.3-.5s-.5-.7-.5-1.2c0-.6.2-1,.7-1.3.4-.3,1-.5,1.8-.5h.9v-.4c0-.3-.1-.6-.3-.8-.2-.2-.5-.3-.9-.3-.3,0-.6.1-.8.3s-.3.4-.3.6h-1c0-.3.1-.5.3-.8.2-.3.5-.5.8-.6s.7-.2,1.1-.2c.6,0,1.1.2,1.5.5s.5.8.6,1.3v2.5c0,.5.1.9.2,1.2v.1h-1.1ZM86.93,42.11c.3,0,.6-.1.8-.2.3-.2.5-.4.6-.6v-1.1h-.7c-1.2,0-1.7.3-1.7,1,0,.3.1.5.3.7.1.1.4.2.7.2Z"/>
        <path class="cls-4" d="M92.13,37.31v.7c.4-.5,1-.8,1.6-.8,1.2,0,1.7.7,1.8,2v3.6h-.9v-3.6c0-.4-.1-.7-.3-.9-.2-.2-.5-.3-.8-.3s-.6.1-.8.2c-.2.2-.4.4-.5.6v3.9h-.9v-5.4h.8Z"/>
        <path class="cls-4" d="M99.73,42.11c.3,0,.6-.1.9-.3s.4-.5.4-.8h.9c0,.3-.1.6-.3.9-.2.3-.5.5-.8.7s-.7.3-1.1.3c-.7,0-1.3-.2-1.8-.8-.4-.5-.7-1.2-.7-2.1v-.2c0-.5.1-1,.3-1.4.2-.4.5-.7.8-1,.4-.2.8-.3,1.3-.3.6,0,1.1.2,1.5.6.4.4.6.8.7,1.4h-.8c0-.4-.2-.6-.4-.9-.2-.2-.5-.3-.9-.3-.5,0-.8.2-1.1.5s-.4.8-.4,1.5v.2c0,.6.1,1.1.4,1.5.2.4.6.5,1.1.5Z"/>
        <path class="cls-4" d="M105.73,42.91c-.7,0-1.4-.2-1.8-.7-.5-.5-.7-1.1-.7-2v-.2c0-.5.1-1,.3-1.5.2-.4.5-.8.9-1s.8-.4,1.2-.4c.7,0,1.3.2,1.7.7.4.5.6,1.1.6,2v.5h-3.7c0,.5.2,1,.5,1.3s.7.5,1.2.5c.3,0,.6-.1.8-.2s.4-.3.6-.5l.6.4c-.6.8-1.3,1.1-2.2,1.1ZM105.63,38.01c-.4,0-.7.1-1,.4-.3.3-.4.7-.5,1.2h2.8v-.1c0-.5-.2-.8-.4-1.1-.2-.3-.5-.4-.9-.4Z"/>
        <path class="cls-4" d="M112.33,40.01c0-.5.1-1,.3-1.5.2-.4.5-.8.9-1s.8-.4,1.3-.4c.7,0,1.4.3,1.8.8.5.5.7,1.2.7,2.1v.1c0,.5-.1,1-.3,1.4-.2.4-.5.8-.9,1s-.8.4-1.3.4c-.7,0-1.3-.3-1.8-.8s-.7-1.2-.7-2.1h0ZM113.23,40.11c0,.6.1,1.1.4,1.5s.7.6,1.1.6c.5,0,.9-.2,1.1-.6.3-.4.4-.9.4-1.6,0-.6-.1-1.1-.4-1.5s-.7-.6-1.1-.6c-.5,0-.8.2-1.1.6s-.4.9-.4,1.6Z"/>
        <path class="cls-4" d="M119.43,42.81v-4.8h-.9v-.7h.9v-.6c0-.6.2-1,.5-1.4.3-.3.8-.5,1.3-.5.2,0,.4,0,.6.1l-.1.8h-.5c-.3,0-.5.1-.7.3s-.2.4-.2.8v.5h1.2v.7h-1.2v4.8h-.9Z"/>
        <path class="cls-4" d="M126.33,42.81v-7.4h2.1c.6,0,1.2.1,1.7.4.5.3.9.7,1.1,1.2.3.5.4,1.1.4,1.8v.5c0,.7-.1,1.3-.4,1.8-.3.5-.7.9-1.2,1.2s-1.1.4-1.7.4h-2v.1ZM127.33,36.21v5.8h1c.8,0,1.3-.2,1.8-.7.4-.5.6-1.1.6-2v-.4c0-.8-.2-1.5-.6-2-.4-.5-1-.7-1.7-.7,0,0-1.1,0-1.1,0Z"/>
        <path class="cls-4" d="M136.93,42.81c-.1-.1-.1-.3-.1-.6-.4.5-1,.7-1.6.7-.5,0-1-.2-1.3-.5s-.5-.7-.5-1.2c0-.6.2-1,.7-1.3.4-.3,1-.5,1.8-.5h.9v-.4c0-.3-.1-.6-.3-.8s-.5-.3-.9-.3c-.3,0-.6.1-.8.3s-.3.4-.3.6h-.9c0-.3.1-.5.3-.8s.5-.5.8-.6.7-.2,1.1-.2c.6,0,1.1.2,1.5.5s.5.8.6,1.3v2.5c0,.5.1.9.2,1.2v.1h-1.2ZM135.33,42.11c.3,0,.6-.1.8-.2.3-.2.5-.4.6-.6v-1.1h-.7c-1.2,0-1.7.3-1.7,1,0,.3.1.5.3.7.1.1.4.2.7.2Z"/>
        <path class="cls-4" d="M140.93,36.01v1.3h1v.7h-1v3.4c0,.2,0,.4.1.5s.2.2.5.2c.1,0,.3,0,.4-.1v.8c-.2.1-.5.1-.7.1-.4,0-.7-.1-1-.4-.2-.3-.3-.6-.3-1.1v-3.4h-1v-.7h1v-1.3h1Z"/>
        <path class="cls-4" d="M146.93,42.81c-.1-.1-.1-.3-.1-.6-.4.5-1,.7-1.6.7-.5,0-1-.2-1.3-.5s-.5-.7-.5-1.2c0-.6.2-1,.7-1.3.4-.3,1-.5,1.8-.5h.9v-.4c0-.3-.1-.6-.3-.8s-.5-.3-.9-.3c-.3,0-.6.1-.8.3s-.3.4-.3.6h-.9c0-.3.1-.5.3-.8s.5-.5.8-.6.7-.2,1.1-.2c.6,0,1.1.2,1.5.5s.5.8.6,1.3v2.5c0,.5.1.9.2,1.2v.1h-1.2ZM145.43,42.11c.3,0,.6-.1.8-.2.3-.2.5-.4.6-.6v-1.1h-.8c-1.2,0-1.7.3-1.7,1,0,.3.1.5.3.7.2.1.5.2.8.2Z"/>
        <path class="cls-4" d="M152.63,40.81c0-.4.1-.7.3-1s.6-.6,1.1-1c-.3-.4-.5-.7-.7-1-.1-.2-.2-.5-.2-.7,0-.6.2-1,.5-1.3s.8-.5,1.4-.5c.5,0,.9.1,1.3.4s.5.7.5,1.1c0,.3-.1.6-.2.8-.2.3-.4.5-.8.8l-.5.4,1.6,2c.2-.4.3-.9.3-1.5h.8c0,.9-.2,1.6-.6,2.2l1.1,1.3h-1.1l-.5-.6c-.3.2-.5.4-.9.5-.3.1-.7.2-1,.2-.7,0-1.3-.2-1.7-.6-.5-.3-.7-.8-.7-1.5ZM155.03,42.11c.5,0,1-.2,1.4-.6l-1.8-2.2-.2.1c-.6.4-.9.8-.9,1.3,0,.4.1.7.4,1,.3.3.6.4,1.1.4ZM154.13,37.11c0,.3.2.7.6,1.2l.6-.4c.2-.2.4-.3.5-.5.1-.1.1-.3.1-.5s-.1-.4-.3-.6c-.2-.2-.4-.2-.6-.2-.3,0-.5.1-.7.3-.1.2-.2.4-.2.7Z"/>
        <path class="cls-4" d="M164.03,42.81h-1v-7.4h1v7.4Z"/>
        <path class="cls-4" d="M167.13,37.31v.7c.4-.5,1-.8,1.6-.8,1.2,0,1.7.7,1.8,2v3.6h-.9v-3.6c0-.4-.1-.7-.3-.9s-.5-.3-.8-.3-.6.1-.8.2c-.2.2-.4.4-.5.6v3.9h-.9v-5.4h.8Z"/>
        <path class="cls-4" d="M175.63,41.41c0-.3-.1-.5-.3-.6s-.5-.3-1-.4c-.5-.1-.9-.2-1.1-.4-.3-.1-.5-.3-.6-.5s-.2-.4-.2-.7c0-.5.2-.8.6-1.1.4-.3.9-.5,1.5-.5s1.1.2,1.5.5.6.7.6,1.2h-.9c0-.3-.1-.5-.3-.7s-.5-.3-.8-.3-.6.1-.8.2c-.2.1-.3.3-.3.6,0,.2.1.4.3.5s.5.2,1,.3.9.2,1.1.4.5.3.6.5.2.5.2.7c0,.5-.2.9-.6,1.2-.4.3-.9.4-1.5.4-.4,0-.8-.1-1.2-.2-.3-.2-.6-.4-.8-.7s-.3-.6-.3-.9h.9c0,.3.1.6.4.7.2.2.5.3.9.3s.6-.1.9-.2c.1.1.2-.1.2-.3Z"/>
        <path class="cls-4" d="M178.33,35.91c0-.2,0-.3.1-.4s.2-.2.4-.2.3.1.4.2.1.2.1.4,0,.3-.1.4c-.1.1-.2.2-.4.2s-.3-.1-.4-.2c-.1-.2-.1-.3-.1-.4ZM179.33,42.81h-.9v-5.5h.9v5.5Z"/>
        <path class="cls-4" d="M181.13,40.01c0-.9.2-1.5.6-2,.4-.5.9-.8,1.6-.8s1.2.2,1.6.7v-.6h.9v5.4c0,.7-.2,1.3-.6,1.7-.4.4-1,.6-1.7.6-.4,0-.8-.1-1.2-.3s-.7-.4-.9-.7l.5-.6c.4.5.9.7,1.5.7.5,0,.8-.1,1.1-.4.3-.3.4-.6.4-1.1v-.3c-.4.4-.9.7-1.5.7s-1.2-.3-1.6-.8c-.5-.6-.7-1.3-.7-2.2ZM182.03,40.11c0,.6.1,1.1.4,1.5.3.4.6.5,1.1.5.6,0,1-.3,1.3-.8v-2.5c-.3-.5-.7-.8-1.3-.8-.5,0-.8.2-1.1.5-.2.4-.4.9-.4,1.6Z"/>
        <path class="cls-4" d="M188.63,38.01c.4-.5,1-.8,1.6-.8,1.2,0,1.7.7,1.8,2v3.6h-1v-3.6c0-.4-.1-.7-.3-.9s-.5-.3-.8-.3-.6.1-.8.2c-.2.2-.4.4-.5.6v3.9h-.9v-7.8h.9v3.1h0Z"/>
        <path class="cls-4" d="M195.23,36.01v1.3h1v.7h-1v3.4c0,.2,0,.4.1.5s.2.2.5.2c.1,0,.3,0,.4-.1v.8c-.2.1-.5.1-.7.1-.4,0-.7-.1-1-.4-.2-.3-.3-.6-.3-1.1v-3.4h-1v-.7h1v-1.3h1Z"/>
        <path class="cls-4" d="M201.03,41.41c0-.3-.1-.5-.3-.6s-.5-.3-1-.4c-.5-.1-.9-.2-1.1-.4-.3-.1-.5-.3-.6-.5s-.2-.4-.2-.7c0-.5.2-.8.6-1.1.4-.3.9-.5,1.5-.5s1.1.2,1.5.5.6.7.6,1.2h-.9c0-.3-.1-.5-.3-.7s-.5-.3-.8-.3-.6.1-.8.2c-.2.1-.3.3-.3.6,0,.2.1.4.3.5s.5.2,1,.3.9.2,1.1.4c.3.1.5.3.6.5s.2.5.2.7c0,.5-.2.9-.6,1.2-.4.3-.9.4-1.5.4-.4,0-.8-.1-1.2-.2-.3-.2-.6-.4-.8-.7s-.3-.6-.3-.9h.9c0,.3.1.6.4.7.2.2.5.3.9.3s.6-.1.9-.2c.1.1.2-.1.2-.3Z"/>
      </g>
    </g>
    <g>
      <path class="cls-1" d="M25.63.01c-6.9,13.5-13.9,26.9-20.9,40.3C.03,34.31-1.87,23.71,2.73,14.41,7.33,4.71,17.53-.29,25.63.01Z"/>
      <path class="cls-2" d="M46.53,40.31c-2.5-4.8-5-9.6-7.5-14.4l4-.2h6.8l-11.6-1.1C34.03,16.41,29.83,8.21,25.53.01c8.1-.3,18.3,4.7,22.9,14.4,4.7,9.3,2.8,19.9-1.9,25.9Z"/>
      <path class="cls-3" d="M43.23,44.61c-9,9-25,9.6-34.9.2,7.9-3.1,16.2-4.1,24.8-2.7-1-2.3-1.7-4.3-2.6-6.3-.1-.2-.8-.4-1.1-.4-3.8,0-7.4,0-11.1-.1-.8,0-1.5-.1-2.6-.2,1.7-2,3.5-3.6,5.8-4.6,2.7-1.2,5.6-2,8.4-3,.6-.2,1.1,0,1.4.8,2.4,4.6,4.7,9.1,7.1,13.6.4.9,1.1,1.4,1.9,1.7,1,.1,1.8.6,2.9,1Z"/>
      <path class="cls-5" d="M29.73,25.11c-3.4.9-6.6,1.7-9.9,2.5,1.8-3.3,3.8-6.9,5.7-10.5,1.4,2.7,2.8,5.4,4.2,8Z"/>
    </g>
  </g>
  <g>
    <path class="cls-4" d="M204.41,8.75c-1.35,0-2.45-1.1-2.45-2.45s1.1-2.45,2.45-2.45,2.45,1.1,2.45,2.45-1.1,2.45-2.45,2.45ZM204.41,4.17c-1.18,0-2.13.96-2.13,2.13s.96,2.13,2.13,2.13,2.13-.96,2.13-2.13-.96-2.13-2.13-2.13Z"/>
    <g>
      <path class="cls-4" d="M204.05,5.59v.23h-.38v1.19h-.29v-1.19h-.38v-.23h1.04Z"/>
      <path class="cls-4" d="M205.81,5.59v1.42h-.29v-.92l-.38.92h-.22l-.38-.92v.92h-.29v-1.42h.32l.45,1.06.45-1.06h.32Z"/>
    </g>
  </g>
</svg>