<?xml version="1.0" encoding="UTF-8"?>
<svg id="report" xmlns="http://www.w3.org/2000/svg" version="1.1" xmlns:xlink="http://www.w3.org/1999/xlink" viewBox="0 0 640.6 640.6">
  <defs>
    <style>
      .cls-1 {
        fill: #a73d8e;
      }

      .cls-1, .cls-2, .cls-3, .cls-4, .cls-5, .cls-6, .cls-7, .cls-8, .cls-9, .cls-10, .cls-11, .cls-12 {
        stroke-width: 0px;
      }

      .cls-2 {
        fill: #02a447;
      }

      .cls-3 {
        fill: url(#linear-gradient);
      }

      .cls-4 {
        fill: #1ca7df;
      }

      .cls-5 {
        fill: url(#linear-gradient-6);
      }

      .cls-6 {
        fill: #fab800;
      }

      .cls-7 {
        fill: url(#linear-gradient-5);
      }

      .cls-8 {
        fill: #e52833;
      }

      .cls-9 {
        fill: url(#linear-gradient-2);
      }

      .cls-10 {
        fill: #5f5d5b;
      }

      .cls-11 {
        fill: url(#linear-gradient-3);
      }

      .cls-12 {
        fill: url(#linear-gradient-4);
      }
    </style>
    <linearGradient id="linear-gradient" x1="78.4" y1="237.6" x2="539.4" y2="237.6" gradientUnits="userSpaceOnUse">
      <stop offset="0" stop-color="#fff" stop-opacity=".4"/>
      <stop offset="0" stop-color="#fff" stop-opacity=".3"/>
      <stop offset=".5" stop-color="#fff" stop-opacity="0"/>
      <stop offset=".8" stop-color="#fafafa" stop-opacity=".1"/>
      <stop offset="1" stop-color="#efefef" stop-opacity=".2"/>
    </linearGradient>
    <linearGradient id="linear-gradient-2" x1="54.8" y1="592.6" x2="133.4" y2="592.6" xlink:href="#linear-gradient"/>
    <linearGradient id="linear-gradient-3" x1="165.4" y1="592.6" x2="244.1" y2="592.6" xlink:href="#linear-gradient"/>
    <linearGradient id="linear-gradient-4" x1="398.1" y1="592.6" x2="476.1" y2="592.6" xlink:href="#linear-gradient"/>
    <linearGradient id="linear-gradient-5" x1="507.8" y1="592.6" x2="585.9" y2="592.6" xlink:href="#linear-gradient"/>
    <linearGradient id="linear-gradient-6" x1="285.1" y1="592.5" x2="360.7" y2="592.5" xlink:href="#linear-gradient"/>
  </defs>
  <g>
    <path class="cls-10" d="M467,350.4c-3.6,3.8-8.5,6.9-10.5,11.4-50.6,115.1-181.9,115.7-265,68.1-88.9-50.9-125.8-139.5-109.2-237.1C99.3,93.9,176.1,26.1,274,11.1c117.6-18,244.5,55.9,262.6,189.5,4.6,33.7,2.1,68.3,2.3,102.5.3,40.9.3,81.9,0,122.8-.2,28.5-13.8,41.7-40.8,40.7-26.6-1-37-13.5-34-42.9,2.4-23.3,6.3-46.5,9.5-69.8-2.2-1.2-4.4-2.4-6.6-3.6ZM309.1,387.9c86.6.4,154.4-66.7,154.9-153.2.4-85.9-67-154.5-153.3-155.9-86-1.4-155.7,66.4-156.2,152.1-.5,90.8,64.3,156.5,154.6,157Z"/>
    <path class="cls-8" d="M133.4,593.1c0,23.5-15.4,39.1-38.8,39.1-23.2,0-39.8-16.3-39.8-39,0-21.8,17.9-39.9,39.7-40,21.9,0,38.9,17.3,39,39.9Z"/>
    <path class="cls-6" d="M244.1,593.1c0,23.5-15.4,39.1-38.8,39.1-23.2,0-39.8-16.3-39.8-39,0-21.8,17.9-39.9,39.7-40,21.9,0,38.9,17.3,39,39.9Z"/>
    <path class="cls-1" d="M476.1,594.7c-.4,21-17.3,36.9-39.1,36.8-21.9-.1-39.7-18.4-38.9-39.8.8-20.4,19-37.9,39.5-38,20.5,0,38.9,19.6,38.5,41Z"/>
    <path class="cls-4" d="M585.9,594.7c-.4,21-17.3,36.9-39.1,36.8-21.9-.1-39.7-18.4-38.9-39.8.8-20.4,19-37.9,39.5-38,20.5,0,38.9,19.6,38.5,41Z"/>
    <path class="cls-2" d="M360.7,592.3c.3,24-14.7,39.3-38.2,39.1-22.6-.2-37.1-14.7-37.3-37.7-.3-23.1,16.1-40.3,38.1-40.1,20.6.2,37.2,17.4,37.5,38.7Z"/>
  </g>
  <g>
    <path class="cls-3" d="M467,350.4c-3.6,3.8-8.5,6.9-10.5,11.4-50.6,115.1-181.9,115.7-265,68.1-88.9-50.9-125.8-139.5-109.2-237.1C99.3,93.9,176.1,26.1,274,11.1c117.6-18,244.5,55.9,262.6,189.5,4.6,33.7,2.1,68.3,2.3,102.5.3,40.9.3,81.9,0,122.8-.2,28.5-13.8,41.7-40.8,40.7-26.6-1-37-13.5-34-42.9,2.4-23.3,6.3-46.5,9.5-69.8-2.2-1.2-4.4-2.4-6.6-3.6ZM309.1,387.9c86.6.4,154.4-66.7,154.9-153.2.4-85.9-67-154.5-153.3-155.9-86-1.4-155.7,66.4-156.2,152.1-.5,90.8,64.3,156.5,154.6,157Z"/>
    <path class="cls-9" d="M133.4,593.1c0,23.5-15.4,39.1-38.8,39.1-23.2,0-39.8-16.3-39.8-39,0-21.8,17.9-39.9,39.7-40,21.9,0,38.9,17.3,39,39.9Z"/>
    <path class="cls-11" d="M244.1,593.1c0,23.5-15.4,39.1-38.8,39.1-23.2,0-39.8-16.3-39.8-39,0-21.8,17.9-39.9,39.7-40,21.9,0,38.9,17.3,39,39.9Z"/>
    <path class="cls-12" d="M476.1,594.7c-.4,21-17.3,36.9-39.1,36.8-21.9-.1-39.7-18.4-38.9-39.8.8-20.4,19-37.9,39.5-38,20.5,0,38.9,19.6,38.5,41Z"/>
    <path class="cls-7" d="M585.9,594.7c-.4,21-17.3,36.9-39.1,36.8-21.9-.1-39.7-18.4-38.9-39.8.8-20.4,19-37.9,39.5-38,20.5,0,38.9,19.6,38.5,41Z"/>
    <path class="cls-5" d="M360.7,592.3c.3,24-14.7,39.3-38.2,39.1-22.6-.2-37.1-14.7-37.3-37.7-.3-23.1,16.1-40.3,38.1-40.1,20.6.2,37.2,17.4,37.5,38.7Z"/>
  </g>
</svg>