<?xml version="1.0" encoding="UTF-8"?>
<svg id="Layer_1" data-name="Layer 1" xmlns="http://www.w3.org/2000/svg" version="1.1" viewBox="0 0 45 45">
  <defs>
    <style>
      .cls-1 {
        fill: #ff5a5f;
        stroke-width: 0px;
      }
    </style>
  </defs>
  <path class="cls-1" d="M42.16,31.68c-.22-.52-.44-1.09-.65-1.57-.35-.78-.7-1.53-1-2.22l-.04-.04c-3.01-6.54-6.23-13.16-9.63-19.7l-.13-.26c-.35-.65-.7-1.35-1.05-2.05-.44-.78-.87-1.61-1.57-2.4-1.39-1.74-3.4-2.7-5.54-2.7s-4.14.96-5.58,2.62c-.65.78-1.13,1.61-1.57,2.4-.35.7-.7,1.39-1.05,2.05l-.13.26c-3.36,6.54-6.63,13.16-9.63,19.7l-.04.09c-.31.7-.65,1.44-1,2.22-.22.48-.44,1-.65,1.57-.57,1.61-.74,3.14-.52,4.71.48,3.27,2.66,6.02,5.67,7.24,1.13.48,2.31.7,3.53.7.35,0,.78-.04,1.13-.09,1.44-.17,2.92-.65,4.36-1.48,1.79-1,3.49-2.44,5.4-4.53,1.92,2.09,3.66,3.53,5.4,4.53,1.44.83,2.92,1.31,4.36,1.48.35.04.78.09,1.13.09,1.22,0,2.44-.22,3.53-.7,3.05-1.22,5.19-4.01,5.67-7.24.35-1.53.17-3.05-.39-4.66ZM22.5,33.94c-2.35-2.96-3.88-5.75-4.4-8.11-.22-1-.26-1.87-.13-2.66.09-.7.35-1.31.7-1.83.83-1.18,2.22-1.92,3.84-1.92s3.05.7,3.84,1.92c.35.52.61,1.13.7,1.83.13.78.09,1.7-.13,2.66-.52,2.31-2.05,5.1-4.4,8.11ZM39.89,35.99c-.31,2.27-1.83,4.23-3.97,5.1-1.05.44-2.18.57-3.31.44-1.09-.13-2.18-.48-3.31-1.13-1.57-.87-3.14-2.22-4.97-4.23,2.88-3.53,4.62-6.76,5.27-9.63.31-1.35.35-2.57.22-3.7-.17-1.09-.57-2.09-1.18-2.96-1.35-1.96-3.62-3.09-6.15-3.09s-4.79,1.18-6.15,3.09c-.61.87-1,1.87-1.18,2.96-.17,1.13-.13,2.4.22,3.7.65,2.88,2.44,6.15,5.27,9.68-1.79,2-3.4,3.36-4.97,4.23-1.13.65-2.22,1-3.31,1.13-1.18.13-2.31-.04-3.31-.44-2.14-.87-3.66-2.83-3.97-5.1-.13-1.09-.04-2.18.39-3.4.13-.44.35-.87.57-1.39.31-.7.65-1.44,1-2.18l.04-.09c3.01-6.49,6.23-13.12,9.59-19.57l.13-.26c.35-.65.7-1.35,1.05-2.01.35-.7.74-1.35,1.22-1.92.92-1.05,2.14-1.61,3.49-1.61s2.57.57,3.49,1.61c.48.57.87,1.22,1.22,1.92.35.65.7,1.35,1.05,2.01l.13.26c3.31,6.49,6.54,13.12,9.55,19.61v.04c.35.7.65,1.48,1,2.18.22.52.44.96.57,1.39.35,1.13.48,2.22.31,3.36Z"/>
</svg>