<?xml version="1.0" encoding="utf-8"?>
<!-- Generator: Adobe Illustrator 26.2.1, SVG Export Plug-In . SVG Version: 6.00 Build 0)  -->
<svg version="1.1" id="report" xmlns="http://www.w3.org/2000/svg" xmlns:xlink="http://www.w3.org/1999/xlink" x="0px" y="0px"
	 viewBox="0 0 640.62 640.62" style="enable-background:new 0 0 640.62 640.62;" xml:space="preserve">
<style type="text/css">
	.st0{fill:#FF9900;}
	.st1{fill-rule:evenodd;clip-rule:evenodd;}
	.st2{fill:url(#SVGID_1_);}
	.st3{fill-rule:evenodd;clip-rule:evenodd;fill:url(#SVGID_00000000908292440004445210000008281518374767565755_);}
</style>
<g>
	<path class="st0" d="M549.31,522.55c-258.27,122.92-418.56,20.08-521.16-42.39c-6.35-3.94-17.14,0.92-7.78,11.67
		c34.18,41.45,146.21,141.35,292.43,141.35c146.32,0,233.37-79.84,244.26-93.77C567.88,525.6,560.24,517.99,549.31,522.55
		L549.31,522.55z M621.85,482.49c-6.94-9.03-42.17-10.72-64.35-7.99c-22.21,2.65-55.55,16.22-52.65,24.37
		c1.49,3.05,4.52,1.68,19.78,0.31c15.3-1.53,58.16-6.94,67.09,4.74c8.97,11.76-13.67,67.76-17.81,76.79
		c-4,9.03,1.53,11.36,9.03,5.35c7.4-6.01,20.8-21.58,29.79-43.62C621.67,520.28,627.12,489.37,621.85,482.49L621.85,482.49z"/>
	<path class="st1" d="M375.65,271.74c0,32.25,0.81,59.15-15.49,87.79c-13.16,23.29-34,37.61-57.28,37.61
		c-31.79,0-50.3-24.22-50.3-59.96c0-70.56,63.22-83.37,123.07-83.37V271.74z M459.13,473.52c-5.47,4.89-13.39,5.24-19.56,1.98
		c-27.48-22.82-32.37-33.41-47.5-55.19c-45.41,46.34-77.54,60.19-136.46,60.19c-69.63,0-123.88-42.96-123.88-129.01
		c0-67.18,36.45-112.94,88.25-135.29c44.94-19.8,107.7-23.29,155.67-28.76v-10.71c0-19.68,1.51-42.96-10.01-59.96
		c-10.13-15.25-29.46-21.54-46.46-21.54c-31.55,0-59.73,16.18-66.6,49.72c-1.4,7.45-6.87,14.79-14.32,15.14l-80.34-8.61
		c-6.75-1.52-14.2-6.99-12.34-17.35C164.1,36.78,252,7.44,330.71,7.44c40.29,0,92.91,10.71,124.7,41.22
		c40.29,37.61,36.44,87.79,36.44,142.39v129.01c0,38.77,16.07,55.77,31.2,76.73c5.36,7.45,6.52,16.42-0.23,22
		c-16.88,14.09-46.92,40.29-63.45,54.96L459.13,473.52"/>
	<path class="st0" d="M549.31,522.55c-258.27,122.92-418.56,20.08-521.16-42.39c-6.35-3.94-17.14,0.92-7.78,11.67
		c34.18,41.45,146.21,141.35,292.43,141.35c146.32,0,233.37-79.84,244.26-93.77C567.88,525.6,560.24,517.99,549.31,522.55
		L549.31,522.55z M621.85,482.49c-6.94-9.03-42.17-10.72-64.35-7.99c-22.21,2.65-55.55,16.22-52.65,24.37
		c1.49,3.05,4.52,1.68,19.78,0.31c15.3-1.53,58.16-6.94,67.09,4.74c8.97,11.76-13.67,67.76-17.81,76.79
		c-4,9.03,1.53,11.36,9.03,5.35c7.4-6.01,20.8-21.58,29.79-43.62C621.67,520.28,627.12,489.37,621.85,482.49L621.85,482.49z"/>
	<linearGradient id="SVGID_1_" gradientUnits="userSpaceOnUse" x1="16.7087" y1="553.2471" x2="623.9126" y2="553.2471">
		<stop  offset="0" style="stop-color:#FFFFFF;stop-opacity:0.4"/>
		<stop  offset="0.0691" style="stop-color:#FFFFFF;stop-opacity:0.3435"/>
		<stop  offset="0.4892" style="stop-color:#FFFFFF;stop-opacity:0"/>
		<stop  offset="0.7527" style="stop-color:#FAFAFA;stop-opacity:0.1032"/>
		<stop  offset="1" style="stop-color:#EFEFEF;stop-opacity:0.2"/>
	</linearGradient>
	<path class="st2" d="M549.31,522.55c-258.27,122.92-418.56,20.08-521.16-42.39c-6.35-3.94-17.14,0.92-7.78,11.67
		c34.18,41.45,146.21,141.35,292.43,141.35c146.32,0,233.37-79.84,244.26-93.77C567.88,525.6,560.24,517.99,549.31,522.55
		L549.31,522.55z M621.85,482.49c-6.94-9.03-42.17-10.72-64.35-7.99c-22.21,2.65-55.55,16.22-52.65,24.37
		c1.49,3.05,4.52,1.68,19.78,0.31c15.3-1.53,58.16-6.94,67.09,4.74c8.97,11.76-13.67,67.76-17.81,76.79
		c-4,9.03,1.53,11.36,9.03,5.35c7.4-6.01,20.8-21.58,29.79-43.62C621.67,520.28,627.12,489.37,621.85,482.49L621.85,482.49z"/>
	<path class="st1" d="M375.65,271.74c0,32.25,0.81,59.15-15.49,87.79c-13.16,23.29-34,37.61-57.28,37.61
		c-31.79,0-50.3-24.22-50.3-59.96c0-70.56,63.22-83.37,123.07-83.37V271.74z M459.13,473.52c-5.47,4.89-13.39,5.24-19.56,1.98
		c-27.48-22.82-32.37-33.41-47.5-55.19c-45.41,46.34-77.54,60.19-136.46,60.19c-69.63,0-123.88-42.96-123.88-129.01
		c0-67.18,36.45-112.94,88.25-135.29c44.94-19.8,107.7-23.29,155.67-28.76v-10.71c0-19.68,1.51-42.96-10.01-59.96
		c-10.13-15.25-29.46-21.54-46.46-21.54c-31.55,0-59.73,16.18-66.6,49.72c-1.4,7.45-6.87,14.79-14.32,15.14l-80.34-8.61
		c-6.75-1.52-14.2-6.99-12.34-17.35C164.1,36.78,252,7.44,330.71,7.44c40.29,0,92.91,10.71,124.7,41.22
		c40.29,37.61,36.44,87.79,36.44,142.39v129.01c0,38.77,16.07,55.77,31.2,76.73c5.36,7.45,6.52,16.42-0.23,22
		c-16.88,14.09-46.92,40.29-63.45,54.96L459.13,473.52"/>
	
		<linearGradient id="SVGID_00000180346819509776484880000017192354201121693321_" gradientUnits="userSpaceOnUse" x1="131.7267" y1="243.9706" x2="527.4825" y2="243.9706">
		<stop  offset="0" style="stop-color:#FFFFFF;stop-opacity:0.4"/>
		<stop  offset="0.0691" style="stop-color:#FFFFFF;stop-opacity:0.3435"/>
		<stop  offset="0.4892" style="stop-color:#FFFFFF;stop-opacity:0"/>
		<stop  offset="0.7527" style="stop-color:#FAFAFA;stop-opacity:0.1032"/>
		<stop  offset="1" style="stop-color:#EFEFEF;stop-opacity:0.2"/>
	</linearGradient>
	<path style="fill-rule:evenodd;clip-rule:evenodd;fill:url(#SVGID_00000180346819509776484880000017192354201121693321_);" d="
		M375.65,271.74c0,32.25,0.81,59.15-15.49,87.79c-13.16,23.29-34,37.61-57.28,37.61c-31.79,0-50.3-24.22-50.3-59.96
		c0-70.56,63.22-83.37,123.07-83.37V271.74z M459.13,473.52c-5.47,4.89-13.39,5.24-19.56,1.98c-27.48-22.82-32.37-33.41-47.5-55.19
		c-45.41,46.34-77.54,60.19-136.46,60.19c-69.63,0-123.88-42.96-123.88-129.01c0-67.18,36.45-112.94,88.25-135.29
		c44.94-19.8,107.7-23.29,155.67-28.76v-10.71c0-19.68,1.51-42.96-10.01-59.96c-10.13-15.25-29.46-21.54-46.46-21.54
		c-31.55,0-59.73,16.18-66.6,49.72c-1.4,7.45-6.87,14.79-14.32,15.14l-80.34-8.61c-6.75-1.52-14.2-6.99-12.34-17.35
		C164.1,36.78,252,7.44,330.71,7.44c40.29,0,92.91,10.71,124.7,41.22c40.29,37.61,36.44,87.79,36.44,142.39v129.01
		c0,38.77,16.07,55.77,31.2,76.73c5.36,7.45,6.52,16.42-0.23,22c-16.88,14.09-46.92,40.29-63.45,54.96L459.13,473.52"/>
</g>
</svg>
