<?xml version="1.0" encoding="UTF-8"?>
<svg id="report" xmlns="http://www.w3.org/2000/svg" version="1.1" xmlns:xlink="http://www.w3.org/1999/xlink" viewBox="0 0 640.6 640.6">
  <defs>
    <style>
      .cls-1 {
        fill: url(#linear-gradient);
      }

      .cls-1, .cls-2, .cls-3, .cls-4, .cls-5, .cls-6, .cls-7, .cls-8 {
        stroke-width: 0px;
      }

      .cls-2 {
        fill: url(#linear-gradient-6);
      }

      .cls-3 {
        fill: url(#linear-gradient-5);
      }

      .cls-4 {
        fill: #00a8e1;
      }

      .cls-5 {
        fill: url(#linear-gradient-2);
      }

      .cls-6 {
        fill: url(#linear-gradient-7);
      }

      .cls-7 {
        fill: url(#linear-gradient-3);
      }

      .cls-8 {
        fill: url(#linear-gradient-4);
      }
    </style>
    <linearGradient id="linear-gradient" x1="25.1" y1="268" x2="139.6" y2="268" gradientUnits="userSpaceOnUse">
      <stop offset="0" stop-color="#fff" stop-opacity=".4"/>
      <stop offset="0" stop-color="#fff" stop-opacity=".3"/>
      <stop offset=".5" stop-color="#fff" stop-opacity="0"/>
      <stop offset=".8" stop-color="#fafafa" stop-opacity=".1"/>
      <stop offset="1" stop-color="#efefef" stop-opacity=".2"/>
    </linearGradient>
    <linearGradient id="linear-gradient-2" x1="162" y1="245.7" x2="237.3" y2="245.7" xlink:href="#linear-gradient"/>
    <linearGradient id="linear-gradient-3" x1="251" y1="219.4" x2="289.5" y2="219.4" xlink:href="#linear-gradient"/>
    <linearGradient id="linear-gradient-4" x1="315.1" y1="244.5" x2="493.2" y2="244.5" xlink:href="#linear-gradient"/>
    <linearGradient id="linear-gradient-5" x1="514.2" y1="246.2" x2="618.2" y2="246.2" xlink:href="#linear-gradient"/>
    <linearGradient id="linear-gradient-6" x1="22.3" y1="445.4" x2="565.6" y2="445.4" xlink:href="#linear-gradient"/>
    <linearGradient id="linear-gradient-7" x1="506.7" y1="427.9" x2="618.3" y2="427.9" xlink:href="#linear-gradient"/>
  </defs>
  <g>
    <path class="cls-4" d="M30.9,351.7c-1.6,0-3.2-.5-4.4-1.5-1-1.2-1.5-2.9-1.3-4.5v-151.9c-.2-1.6.3-3.2,1.3-4.5,1.2-.9,2.8-1.4,4.3-1.3h16.5c3.1-.3,5.9,1.9,6.4,5l1.6,6c4.8-4.6,10.4-8.2,16.5-10.7,6.3-2.5,13-3.9,19.8-3.9,13.5-.4,26.5,5.6,34.9,16.2,9.2,12.7,13.8,28.2,13,43.9.3,11.4-1.9,22.7-6.4,33.1-3.7,8.7-9.7,16.3-17.4,21.8-7.4,5-16.2,7.7-25.2,7.4-6.1,0-12.1-1-17.9-3-5.3-1.8-10.2-4.6-14.4-8.2v50c.2,1.6-.3,3.2-1.3,4.5-1.3,1-2.9,1.4-4.5,1.3h-21.7ZM81,281.9c7.4.5,14.5-2.8,18.8-8.7,4.6-8.3,6.7-17.8,6-27.3.7-9.6-1.4-19.2-6-27.6-4.4-6-11.6-9.3-19-8.7-7.9,0-15.6,2.1-22.3,6.2v60c6.7,4.2,14.4,6.4,22.3,6.3h0Z"/>
    <path class="cls-4" d="M167.8,304.6c-2.7.5-5.2-1.3-5.7-3.9-.1-.6-.1-1.2,0-1.8v-105.1c-.2-1.6.3-3.2,1.3-4.5,1.2-.9,2.8-1.4,4.3-1.3h16.5c3.1-.3,5.9,1.9,6.4,5l3,12.2c4.9-5.7,10.7-10.6,17.3-14.3,5.3-2.8,11.3-4.2,17.3-4.2h3.2c1.6-.1,3.2.3,4.5,1.3,1,1.2,1.5,2.9,1.3,4.5v19.2c.1,1.5-.3,3.1-1.3,4.3-1.2,1-2.9,1.5-4.5,1.3h-10.5c-4.3,0-8.6.6-12.8,1.5-4.4.8-8.7,2.1-12.8,3.8v76.3c.1,1.5-.3,3.1-1.3,4.3-1.2,1-2.9,1.5-4.5,1.3h-21.8Z"/>
    <path class="cls-4" d="M270.2,169.9c-5.1.3-10.1-1.5-13.9-4.8-3.6-3.4-5.5-8.1-5.3-13-.3-4.9,1.7-9.7,5.3-13.1,8.2-6.5,19.8-6.5,27.9,0,3.6,3.4,5.5,8.1,5.3,13,.2,4.9-1.7,9.7-5.3,13-3.9,3.4-8.9,5.1-14,4.8ZM259.3,304.7c-2.7.5-5.2-1.3-5.7-3.9-.1-.6-.1-1.2,0-1.8v-105.2c-.2-1.6.3-3.2,1.3-4.5,1.2-.9,2.8-1.4,4.3-1.3h22c1.6-.2,3.2.3,4.5,1.3,1,1.3,1.4,2.9,1.3,4.5v105.2c.1,1.5-.3,3.1-1.3,4.3-1.2,1-2.9,1.5-4.5,1.3h-21.9Z"/>
    <path class="cls-4" d="M321,304.6c-2.7.5-5.2-1.3-5.7-3.9-.1-.6-.1-1.2,0-1.8v-105.1c-.2-1.6.3-3.2,1.3-4.5,1.2-.9,2.8-1.4,4.3-1.3h16.5c3.1-.3,5.9,1.9,6.4,5l1.9,6.2c6.8-4.7,14.1-8.5,21.8-11.3,6.4-2.2,13.1-3.4,19.8-3.4,11.7-1,23,4.8,29,14.9,6.8-4.7,14.2-8.4,22-11.2,6.9-2.3,14.1-3.4,21.3-3.4,9.1-.6,18.1,2.7,24.8,8.9,6.2,6.8,9.3,15.7,8.8,24.9v80.4c.1,1.5-.3,3.1-1.3,4.3-1.2,1-2.9,1.5-4.5,1.3h-21.7c-2.7.5-5.2-1.3-5.7-3.9-.1-.6-.1-1.2,0-1.8v-73.3c0-10.4-4.6-15.6-13.9-15.6-8.7,0-17.2,2.1-24.9,6v83c.1,1.5-.3,3.1-1.3,4.3-1.2,1-2.9,1.5-4.5,1.3h-21.9c-2.7.5-5.2-1.3-5.7-3.9-.1-.6-.1-1.2,0-1.8v-73.3c0-10.4-4.6-15.6-13.9-15.6-8.8,0-17.4,2.2-25.2,6.2v82.7c.1,1.5-.3,3.1-1.3,4.3-1.2,1-2.9,1.5-4.5,1.3h-22Z"/>
    <path class="cls-4" d="M572.8,308c-16,1.1-31.8-4.6-43.6-15.6-10.7-12.3-16.1-28.4-14.9-44.7-1.1-16.9,4.4-33.5,15.2-46.5,11.3-11.6,27.1-17.8,43.3-16.9,12-.7,23.8,2.9,33.3,10.3,8,6.9,12.5,17,12,27.6.5,10.3-4.4,20.2-13,25.9-11.6,6.6-24.8,9.7-38.1,8.8-7.5,0-15-.8-22.3-2.5,0,8.2,3.4,16.1,9.2,21.9,6.9,4.9,15.4,7.3,23.9,6.6,4.2,0,8.3-.3,12.4-.8,5.7-.9,11.3-2.1,16.8-3.6h2.5c2.6,0,3.9,1.8,3.9,5.3v10.5c.1,1.8-.2,3.6-1,5.1-1.1,1.2-2.5,2.1-4,2.6-11.4,4.2-23.5,6.2-35.6,6ZM565.4,236.3c5.9.4,11.7-.8,16.9-3.6,3.6-2.4,5.6-6.6,5.3-10.9,0-9.6-5.7-14.4-17.1-14.4s-23.1,9-25.4,27c6.7,1.3,13.4,1.9,20.2,1.9h.1Z"/>
    <path class="cls-4" d="M560.8,432.9c-65.2,48.1-159.8,73.7-241.2,73.7-108.8.6-213.9-39.4-294.7-112.2-6.1-5.5-.7-13,6.7-8.8,89.8,51.3,191.4,78.2,294.9,78.1,77.2-.4,153.5-16,224.6-46,11.3-4.7,20.6,6.9,9.8,15.2Z"/>
    <path class="cls-4" d="M588.3,402.3c-8.3-10.7-55.1-5.1-76.2-2.5-6.4.7-7.4-4.8-1.6-8.8,37.2-26.2,98.5-18.6,105.6-9.8,7.1,8.8-1.9,70.1-37.2,99.4-5.4,4.5-10.5,2.1-8.1-3.9,8-20,25.6-64,17.6-74.3Z"/>
  </g>
  <g>
    <path class="cls-1" d="M30.9,351.7c-1.6,0-3.2-.5-4.4-1.5-1-1.2-1.5-2.9-1.3-4.5v-151.9c-.2-1.6.3-3.2,1.3-4.5,1.2-.9,2.8-1.4,4.3-1.3h16.5c3.1-.3,5.9,1.9,6.4,5l1.6,6c4.8-4.6,10.4-8.2,16.5-10.7,6.3-2.5,13-3.9,19.8-3.9,13.5-.4,26.5,5.6,34.9,16.2,9.2,12.7,13.8,28.2,13,43.9.3,11.4-1.9,22.7-6.4,33.1-3.7,8.7-9.7,16.3-17.4,21.8-7.4,5-16.2,7.7-25.2,7.4-6.1,0-12.1-1-17.9-3-5.3-1.8-10.2-4.6-14.4-8.2v50c.2,1.6-.3,3.2-1.3,4.5-1.3,1-2.9,1.4-4.5,1.3h-21.7ZM81,281.9c7.4.5,14.5-2.8,18.8-8.7,4.6-8.3,6.7-17.8,6-27.3.7-9.6-1.4-19.2-6-27.6-4.4-6-11.6-9.3-19-8.7-7.9,0-15.6,2.1-22.3,6.2v60c6.7,4.2,14.4,6.4,22.3,6.3h0Z"/>
    <path class="cls-5" d="M167.8,304.6c-2.7.5-5.2-1.3-5.7-3.9-.1-.6-.1-1.2,0-1.8v-105.1c-.2-1.6.3-3.2,1.3-4.5,1.2-.9,2.8-1.4,4.3-1.3h16.5c3.1-.3,5.9,1.9,6.4,5l3,12.2c4.9-5.7,10.7-10.6,17.3-14.3,5.3-2.8,11.3-4.2,17.3-4.2h3.2c1.6-.1,3.2.3,4.5,1.3,1,1.2,1.5,2.9,1.3,4.5v19.2c.1,1.5-.3,3.1-1.3,4.3-1.2,1-2.9,1.5-4.5,1.3h-10.5c-4.3,0-8.6.6-12.8,1.5-4.4.8-8.7,2.1-12.8,3.8v76.3c.1,1.5-.3,3.1-1.3,4.3-1.2,1-2.9,1.5-4.5,1.3h-21.8Z"/>
    <path class="cls-7" d="M270.2,169.9c-5.1.3-10.1-1.5-13.9-4.8-3.6-3.4-5.5-8.1-5.3-13-.3-4.9,1.7-9.7,5.3-13.1,8.2-6.5,19.8-6.5,27.9,0,3.6,3.4,5.5,8.1,5.3,13,.2,4.9-1.7,9.7-5.3,13-3.9,3.4-8.9,5.1-14,4.8ZM259.3,304.7c-2.7.5-5.2-1.3-5.7-3.9-.1-.6-.1-1.2,0-1.8v-105.2c-.2-1.6.3-3.2,1.3-4.5,1.2-.9,2.8-1.4,4.3-1.3h22c1.6-.2,3.2.3,4.5,1.3,1,1.3,1.4,2.9,1.3,4.5v105.2c.1,1.5-.3,3.1-1.3,4.3-1.2,1-2.9,1.5-4.5,1.3h-21.9Z"/>
    <path class="cls-8" d="M321,304.6c-2.7.5-5.2-1.3-5.7-3.9-.1-.6-.1-1.2,0-1.8v-105.1c-.2-1.6.3-3.2,1.3-4.5,1.2-.9,2.8-1.4,4.3-1.3h16.5c3.1-.3,5.9,1.9,6.4,5l1.9,6.2c6.8-4.7,14.1-8.5,21.8-11.3,6.4-2.2,13.1-3.4,19.8-3.4,11.7-1,23,4.8,29,14.9,6.8-4.7,14.2-8.4,22-11.2,6.9-2.3,14.1-3.4,21.3-3.4,9.1-.6,18.1,2.7,24.8,8.9,6.2,6.8,9.3,15.7,8.8,24.9v80.4c.1,1.5-.3,3.1-1.3,4.3-1.2,1-2.9,1.5-4.5,1.3h-21.7c-2.7.5-5.2-1.3-5.7-3.9-.1-.6-.1-1.2,0-1.8v-73.3c0-10.4-4.6-15.6-13.9-15.6-8.7,0-17.2,2.1-24.9,6v83c.1,1.5-.3,3.1-1.3,4.3-1.2,1-2.9,1.5-4.5,1.3h-21.9c-2.7.5-5.2-1.3-5.7-3.9-.1-.6-.1-1.2,0-1.8v-73.3c0-10.4-4.6-15.6-13.9-15.6-8.8,0-17.4,2.2-25.2,6.2v82.7c.1,1.5-.3,3.1-1.3,4.3-1.2,1-2.9,1.5-4.5,1.3h-22Z"/>
    <path class="cls-3" d="M572.8,308c-16,1.1-31.8-4.6-43.6-15.6-10.7-12.3-16.1-28.4-14.9-44.7-1.1-16.9,4.4-33.5,15.2-46.5,11.3-11.6,27.1-17.8,43.3-16.9,12-.7,23.8,2.9,33.3,10.3,8,6.9,12.5,17,12,27.6.5,10.3-4.4,20.2-13,25.9-11.6,6.6-24.8,9.7-38.1,8.8-7.5,0-15-.8-22.3-2.5,0,8.2,3.4,16.1,9.2,21.9,6.9,4.9,15.4,7.3,23.9,6.6,4.2,0,8.3-.3,12.4-.8,5.7-.9,11.3-2.1,16.8-3.6h2.5c2.6,0,3.9,1.8,3.9,5.3v10.5c.1,1.8-.2,3.6-1,5.1-1.1,1.2-2.5,2.1-4,2.6-11.4,4.2-23.5,6.2-35.6,6ZM565.4,236.3c5.9.4,11.7-.8,16.9-3.6,3.6-2.4,5.6-6.6,5.3-10.9,0-9.6-5.7-14.4-17.1-14.4s-23.1,9-25.4,27c6.7,1.3,13.4,1.9,20.2,1.9h.1Z"/>
    <path class="cls-2" d="M560.8,432.9c-65.2,48.1-159.8,73.7-241.2,73.7-108.8.6-213.9-39.4-294.7-112.2-6.1-5.5-.7-13,6.7-8.8,89.8,51.3,191.4,78.2,294.9,78.1,77.2-.4,153.5-16,224.6-46,11.3-4.7,20.6,6.9,9.8,15.2Z"/>
    <path class="cls-6" d="M588.3,402.3c-8.3-10.7-55.1-5.1-76.2-2.5-6.4.7-7.4-4.8-1.6-8.8,37.2-26.2,98.5-18.6,105.6-9.8,7.1,8.8-1.9,70.1-37.2,99.4-5.4,4.5-10.5,2.1-8.1-3.9,8-20,25.6-64,17.6-74.3Z"/>
  </g>
</svg>