<?xml version="1.0" encoding="utf-8"?>
<!-- Generator: Adobe Illustrator 27.3.1, SVG Export Plug-In . SVG Version: 6.00 Build 0)  -->
<svg version="1.1" id="report" xmlns="http://www.w3.org/2000/svg" xmlns:xlink="http://www.w3.org/1999/xlink" x="0px" y="0px"
	 viewBox="0 0 640.62 640.62" style="enable-background:new 0 0 640.62 640.62;" xml:space="preserve">
<style type="text/css">
	.st0{fill:#5800B2;}
	.st1{fill:#360061;}
	.st2{fill:url(#SVGID_1_);}
	.st3{fill:url(#SVGID_00000173121040528665363380000007086491412259864972_);}
	.st4{fill:url(#SVGID_00000003075828269289570090000012686419781684927928_);}
	.st5{fill:url(#SVGID_00000028322047519645720390000008582577139710542994_);}
	.st6{fill:url(#SVGID_00000058557131119778090730000016236329990072271762_);}
	.st7{fill:url(#SVGID_00000096061332188358676170000006133009383795999162_);}
	.st8{fill:url(#SVGID_00000108297152176243480040000011887220950685263750_);}
	.st9{fill:url(#SVGID_00000120554769155209727070000008040348089236551327_);}
	.st10{fill:url(#SVGID_00000041294225729391776480000000982331268188580739_);}
</style>
<g>
	<path class="st0" d="M224.45,7.92c11.52,0,22.35,0,33.19,0c10.9,0,21.8-0.01,32.7,0c12.29,0.01,15.82,3.47,15.82,15.65
		c0.02,38.34,0.01,76.69,0.01,115.03c0,50.43,0.01,100.86-0.01,151.29c0,12.72-3.45,16.2-16.06,16.21c-88.6,0.01-177.2,0.01-265.8,0
		c-12.29,0-15.76-3.46-15.76-15.68c-0.01-89.01-0.01-178.01,0-267.02c0-11.96,3.43-15.46,15.16-15.47
		c22.25-0.02,44.5-0.01,67.69-0.01c0,3.14,0,5.85,0,8.56c0,35.32,0,70.65,0.01,105.97c0,2.32-0.08,4.67,0.21,6.96
		c1.07,8.37,8.24,12.62,15.68,8.54c15.44-8.46,30.64-17.38,45.75-26.41c3.72-2.22,6.44-2.1,10.05,0.11
		c13.45,8.22,27.12,16.07,40.65,24.16c4.73,2.83,9.47,5.25,14.95,2.29c5.59-3.02,5.8-8.34,5.79-13.89
		c-0.07-36.02-0.04-72.04-0.04-108.06C224.45,13.66,224.45,11.16,224.45,7.92z M241.07,253.45c7.62,0,15.25,0.17,22.87-0.05
		c6.34-0.19,10.57-4.43,10.9-10.3c0.34-6.19-3.71-11.52-10.24-11.7c-15.24-0.41-30.5-0.39-45.74-0.05
		c-6.45,0.14-10.88,5.5-10.68,11.44c0.21,6.04,4.75,10.46,11.4,10.64C226.74,253.61,233.9,253.46,241.07,253.45z"/>
	<path class="st1" d="M91.39,334.52c0,3.55,0,6.28,0,9.01c0,34.85,0,69.7,0,104.54c0,1.86-0.06,3.72,0.04,5.57
		c0.56,11.07,8.52,15.71,18.19,10.28c14.55-8.17,28.99-16.52,43.3-25.11c3.64-2.18,6.29-2.32,9.97-0.1
		c13.7,8.25,27.61,16.13,41.45,24.13c12.27,7.09,20.08,2.49,20.09-11.86c0.03-36.01,0.01-72.02,0.01-108.03c0-2.5,0-5.01,0-7.88
		c2.41-0.22,4.19-0.53,5.97-0.53c20.4-0.03,40.81-0.06,61.21-0.01c10.46,0.03,14.51,3.92,14.51,14.22
		c0.04,89.91,0.04,179.82,0,269.73c0,10.32-4.03,14.21-14.46,14.21c-89.5,0.02-179,0.02-268.5,0c-10.92,0-14.64-3.71-14.64-14.61
		c-0.02-89.68-0.02-179.35,0-269.03c0-10.55,3.79-14.49,14.1-14.52C45.12,334.47,67.6,334.52,91.39,334.52z M241.11,580.14
		c7.39,0,14.79,0.17,22.17-0.05c7.02-0.21,11.24-4.2,11.55-10.38c0.33-6.49-3.86-11.51-10.99-11.68
		c-14.77-0.36-29.56-0.34-44.34-0.02c-7.08,0.15-11.56,5.22-11.31,11.48c0.25,6.28,4.8,10.42,12.13,10.61
		C227.25,580.3,234.18,580.15,241.11,580.14z"/>
	<path class="st0" d="M417.52,334.57c0,3.42,0,5.92,0,8.43c0,36.01-0.02,72.03,0.01,108.04c0.01,14.32,7.74,18.86,20.13,11.78
		c13.89-7.93,27.79-15.83,41.47-24.1c3.73-2.25,6.37-2.08,9.98,0.09c13.9,8.36,27.98,16.42,42.05,24.5c11.27,6.48,19.28,2,19.32-11
		c0.11-36.25,0.04-72.49,0.04-108.74c0-2.73,0-5.46,0-9.07c8.37,0,15.94,0,23.5,0c14.61,0,29.22-0.05,43.83,0.02
		c10.38,0.05,14.21,3.93,14.22,14.41c0.02,89.68,0.02,179.37,0,269.05c0,10.94-3.72,14.68-14.58,14.69
		c-89.51,0.02-179.02,0.02-268.53,0c-10.47,0-14.49-3.86-14.49-14.17c-0.04-89.92-0.03-179.84,0-269.75
		c0-8.83,3.62-13.98,11.02-14.08C369.11,334.37,392.74,334.57,417.52,334.57z M567.15,580.16c7.18,0,14.36,0.14,21.53-0.04
		c7.64-0.19,12.47-4.71,12.36-11.18c-0.1-6.15-4.81-10.85-11.99-10.98c-14.35-0.25-28.71-0.27-43.06,0.02
		c-7.28,0.15-11.6,4.81-11.51,11.27c0.08,6.46,4.46,10.64,11.84,10.85C553.26,580.3,560.21,580.14,567.15,580.16z"/>
	<path class="st1" d="M471.8,38.97c0.11,2.03,0.3,4.07,0.3,6.12c0.02,33.93,0.06,67.87-0.08,101.8c-0.01,2.55-0.58,5.86-2.21,7.51
		c-25.74,26.12-51.7,52.03-77.61,77.99c-24.8-25.52-37.11-76.07-19.2-120.19C392.36,64.51,438.35,39.88,471.8,38.97z"/>
	<path class="st0" d="M594.28,200.93c-18.14-9.22-35.63-18.11-53.12-27.01c-14.03-7.14-28.12-14.15-41.99-21.58
		c-2.12-1.14-4.55-4.22-4.56-6.43c-0.26-35.06-0.15-70.11-0.11-105.17c0-0.44,0.23-0.87,0.67-2.45
		c34.52,3.9,62.74,19.27,83.36,47.29C604.37,120.7,608.81,159.24,594.28,200.93z"/>
	<path class="st1" d="M583.24,220.84c-36.55,61.11-123.39,73.15-175.52,27.56c4.76-4.7,9.53-9.34,14.23-14.04
		c19.85-19.86,39.69-39.73,59.5-59.63c2.33-2.34,4.11-4.33,8.14-2.24c30.43,15.77,61.01,31.25,91.54,46.84
		C581.9,219.72,582.55,220.34,583.24,220.84z"/>
	<path class="st1" d="M201.74,435.49c-11.26-6.5-22.08-12.14-32.24-18.79c-8.05-5.27-14.94-5.26-22.99,0
		c-10.17,6.65-20.98,12.31-32.41,18.92c0-34.21,0-67.06,0-100.51c29.18,0,58.19,0,87.64,0
		C201.74,368.24,201.74,401.27,201.74,435.49z"/>
	<path class="st0" d="M440.15,435.55c0-34.13,0-66.99,0-100.44c29.07,0,58.07,0,87.59,0c0,33.13,0,66.14,0,100.32
		c-10.88-6.25-21.41-11.52-31.07-18.08c-8.94-6.07-16.53-5.92-25.42,0.09C461.59,423.97,451.08,429.26,440.15,435.55z"/>
	<path class="st0" d="M201.92,8.51c0,33.2,0,66.1,0,100.19c-10.95-6.43-21.55-12-31.42-18.66c-8.6-5.8-15.98-6.17-24.73-0.15
		c-9.84,6.77-20.54,12.27-31.65,18.79c0-33.89,0-66.74,0-100.17C143.1,8.51,172.13,8.51,201.92,8.51z"/>
</g>
<g>
	<linearGradient id="SVGID_1_" gradientUnits="userSpaceOnUse" x1="1.9867" y1="-3.5588" x2="614.7957" y2="629.8793">
		<stop  offset="0" style="stop-color:#FFFFFF;stop-opacity:0.4"/>
		<stop  offset="0.0691" style="stop-color:#FFFFFF;stop-opacity:0.3435"/>
		<stop  offset="0.4892" style="stop-color:#FFFFFF;stop-opacity:0"/>
		<stop  offset="0.7527" style="stop-color:#FAFAFA;stop-opacity:0.1032"/>
		<stop  offset="1" style="stop-color:#EFEFEF;stop-opacity:0.2"/>
	</linearGradient>
	<path class="st2" d="M224.45,7.92c11.52,0,22.35,0,33.19,0c10.9,0,21.8-0.01,32.7,0c12.29,0.01,15.82,3.47,15.82,15.65
		c0.02,38.34,0.01,76.69,0.01,115.03c0,50.43,0.01,100.86-0.01,151.29c0,12.72-3.45,16.2-16.06,16.21c-88.6,0.01-177.2,0.01-265.8,0
		c-12.29,0-15.76-3.46-15.76-15.68c-0.01-89.01-0.01-178.01,0-267.02c0-11.96,3.43-15.46,15.16-15.47
		c22.25-0.02,44.5-0.01,67.69-0.01c0,3.14,0,5.85,0,8.56c0,35.32,0,70.65,0.01,105.97c0,2.32-0.08,4.67,0.21,6.96
		c1.07,8.37,8.24,12.62,15.68,8.54c15.44-8.46,30.64-17.38,45.75-26.41c3.72-2.22,6.44-2.1,10.05,0.11
		c13.45,8.22,27.12,16.07,40.65,24.16c4.73,2.83,9.47,5.25,14.95,2.29c5.59-3.02,5.8-8.34,5.79-13.89
		c-0.07-36.02-0.04-72.04-0.04-108.06C224.45,13.66,224.45,11.16,224.45,7.92z M241.07,253.45c7.62,0,15.25,0.17,22.87-0.05
		c6.34-0.19,10.57-4.43,10.9-10.3c0.34-6.19-3.71-11.52-10.24-11.7c-15.24-0.41-30.5-0.39-45.74-0.05
		c-6.45,0.14-10.88,5.5-10.68,11.44c0.21,6.04,4.75,10.46,11.4,10.64C226.74,253.61,233.9,253.46,241.07,253.45z"/>
	
		<linearGradient id="SVGID_00000092451066066576228310000016620522646047251081_" gradientUnits="userSpaceOnUse" x1="-161.2527" y1="154.3643" x2="451.5563" y2="787.8026">
		<stop  offset="0" style="stop-color:#FFFFFF;stop-opacity:0.4"/>
		<stop  offset="0.0691" style="stop-color:#FFFFFF;stop-opacity:0.3435"/>
		<stop  offset="0.4892" style="stop-color:#FFFFFF;stop-opacity:0"/>
		<stop  offset="0.7527" style="stop-color:#FAFAFA;stop-opacity:0.1032"/>
		<stop  offset="1" style="stop-color:#EFEFEF;stop-opacity:0.2"/>
	</linearGradient>
	<path style="fill:url(#SVGID_00000092451066066576228310000016620522646047251081_);" d="M91.39,334.52c0,3.55,0,6.28,0,9.01
		c0,34.85,0,69.7,0,104.54c0,1.86-0.06,3.72,0.04,5.57c0.56,11.07,8.52,15.71,18.19,10.28c14.55-8.17,28.99-16.52,43.3-25.11
		c3.64-2.18,6.29-2.32,9.97-0.1c13.7,8.25,27.61,16.13,41.45,24.13c12.27,7.09,20.08,2.49,20.09-11.86
		c0.03-36.01,0.01-72.02,0.01-108.03c0-2.5,0-5.01,0-7.88c2.41-0.22,4.19-0.53,5.97-0.53c20.4-0.03,40.81-0.06,61.21-0.01
		c10.46,0.03,14.51,3.92,14.51,14.22c0.04,89.91,0.04,179.82,0,269.73c0,10.32-4.03,14.21-14.46,14.21c-89.5,0.02-179,0.02-268.5,0
		c-10.92,0-14.64-3.71-14.64-14.61c-0.02-89.68-0.02-179.35,0-269.03c0-10.55,3.79-14.49,14.1-14.52
		C45.12,334.47,67.6,334.52,91.39,334.52z M241.11,580.14c7.39,0,14.79,0.17,22.17-0.05c7.02-0.21,11.24-4.2,11.55-10.38
		c0.33-6.49-3.86-11.51-10.99-11.68c-14.77-0.36-29.56-0.34-44.34-0.02c-7.08,0.15-11.56,5.22-11.31,11.48
		c0.25,6.28,4.8,10.42,12.13,10.61C227.25,580.3,234.18,580.15,241.11,580.14z"/>
	
		<linearGradient id="SVGID_00000139258027340653822110000013946188319277089158_" gradientUnits="userSpaceOnUse" x1="7.1522" y1="-8.5561" x2="619.9612" y2="624.8821">
		<stop  offset="0" style="stop-color:#FFFFFF;stop-opacity:0.4"/>
		<stop  offset="0.0691" style="stop-color:#FFFFFF;stop-opacity:0.3435"/>
		<stop  offset="0.4892" style="stop-color:#FFFFFF;stop-opacity:0"/>
		<stop  offset="0.7527" style="stop-color:#FAFAFA;stop-opacity:0.1032"/>
		<stop  offset="1" style="stop-color:#EFEFEF;stop-opacity:0.2"/>
	</linearGradient>
	<path style="fill:url(#SVGID_00000139258027340653822110000013946188319277089158_);" d="M417.52,334.57c0,3.42,0,5.92,0,8.43
		c0,36.01-0.02,72.03,0.01,108.04c0.01,14.32,7.74,18.86,20.13,11.78c13.89-7.93,27.79-15.83,41.47-24.1
		c3.73-2.25,6.37-2.08,9.98,0.09c13.9,8.36,27.98,16.42,42.05,24.5c11.27,6.48,19.28,2,19.32-11c0.11-36.25,0.04-72.49,0.04-108.74
		c0-2.73,0-5.46,0-9.07c8.37,0,15.94,0,23.5,0c14.61,0,29.22-0.05,43.83,0.02c10.38,0.05,14.21,3.93,14.22,14.41
		c0.02,89.68,0.02,179.37,0,269.05c0,10.94-3.72,14.68-14.58,14.69c-89.51,0.02-179.02,0.02-268.53,0
		c-10.47,0-14.49-3.86-14.49-14.17c-0.04-89.92-0.03-179.84,0-269.75c0-8.83,3.62-13.98,11.02-14.08
		C369.11,334.37,392.74,334.57,417.52,334.57z M567.15,580.16c7.18,0,14.36,0.14,21.53-0.04c7.64-0.19,12.47-4.71,12.36-11.18
		c-0.1-6.15-4.81-10.85-11.99-10.98c-14.35-0.25-28.71-0.27-43.06,0.02c-7.28,0.15-11.6,4.81-11.51,11.27
		c0.08,6.46,4.46,10.64,11.84,10.85C553.26,580.3,560.21,580.14,567.15,580.16z"/>
	
		<linearGradient id="SVGID_00000023984126606769631600000002559730200750489992_" gradientUnits="userSpaceOnUse" x1="154.5241" y1="-151.1285" x2="767.3331" y2="482.3097">
		<stop  offset="0" style="stop-color:#FFFFFF;stop-opacity:0.4"/>
		<stop  offset="0.0691" style="stop-color:#FFFFFF;stop-opacity:0.3435"/>
		<stop  offset="0.4892" style="stop-color:#FFFFFF;stop-opacity:0"/>
		<stop  offset="0.7527" style="stop-color:#FAFAFA;stop-opacity:0.1032"/>
		<stop  offset="1" style="stop-color:#EFEFEF;stop-opacity:0.2"/>
	</linearGradient>
	<path style="fill:url(#SVGID_00000023984126606769631600000002559730200750489992_);" d="M471.8,38.97c0.11,2.03,0.3,4.07,0.3,6.12
		c0.02,33.93,0.06,67.87-0.08,101.8c-0.01,2.55-0.58,5.86-2.21,7.51c-25.74,26.12-51.7,52.03-77.61,77.99
		c-24.8-25.52-37.11-76.07-19.2-120.19C392.36,64.51,438.35,39.88,471.8,38.97z"/>
	
		<linearGradient id="SVGID_00000061443050022334202900000015991767174279184025_" gradientUnits="userSpaceOnUse" x1="218.3567" y1="-212.8823" x2="831.1657" y2="420.5559">
		<stop  offset="0" style="stop-color:#FFFFFF;stop-opacity:0.4"/>
		<stop  offset="0.0691" style="stop-color:#FFFFFF;stop-opacity:0.3435"/>
		<stop  offset="0.4892" style="stop-color:#FFFFFF;stop-opacity:0"/>
		<stop  offset="0.7527" style="stop-color:#FAFAFA;stop-opacity:0.1032"/>
		<stop  offset="1" style="stop-color:#EFEFEF;stop-opacity:0.2"/>
	</linearGradient>
	<path style="fill:url(#SVGID_00000061443050022334202900000015991767174279184025_);" d="M594.28,200.93
		c-18.14-9.22-35.63-18.11-53.12-27.01c-14.03-7.14-28.12-14.15-41.99-21.58c-2.12-1.14-4.55-4.22-4.56-6.43
		c-0.26-35.06-0.15-70.11-0.11-105.17c0-0.44,0.23-0.87,0.67-2.45c34.52,3.9,62.74,19.27,83.36,47.29
		C604.37,120.7,608.81,159.24,594.28,200.93z"/>
	
		<linearGradient id="SVGID_00000065043702205776245290000012349534046109521596_" gradientUnits="userSpaceOnUse" x1="137.8776" y1="-135.0242" x2="750.6866" y2="498.414">
		<stop  offset="0" style="stop-color:#FFFFFF;stop-opacity:0.4"/>
		<stop  offset="0.0691" style="stop-color:#FFFFFF;stop-opacity:0.3435"/>
		<stop  offset="0.4892" style="stop-color:#FFFFFF;stop-opacity:0"/>
		<stop  offset="0.7527" style="stop-color:#FAFAFA;stop-opacity:0.1032"/>
		<stop  offset="1" style="stop-color:#EFEFEF;stop-opacity:0.2"/>
	</linearGradient>
	<path style="fill:url(#SVGID_00000065043702205776245290000012349534046109521596_);" d="M583.24,220.84
		c-36.55,61.11-123.39,73.15-175.52,27.56c4.76-4.7,9.53-9.34,14.23-14.04c19.85-19.86,39.69-39.73,59.5-59.63
		c2.33-2.34,4.11-4.33,8.14-2.24c30.43,15.77,61.01,31.25,91.54,46.84C581.9,219.72,582.55,220.34,583.24,220.84z"/>
	
		<linearGradient id="SVGID_00000024693342601529907290000007399011647087257530_" gradientUnits="userSpaceOnUse" x1="-111.8198" y1="106.5413" x2="500.9892" y2="739.9795">
		<stop  offset="0" style="stop-color:#FFFFFF;stop-opacity:0.4"/>
		<stop  offset="0.0691" style="stop-color:#FFFFFF;stop-opacity:0.3435"/>
		<stop  offset="0.4892" style="stop-color:#FFFFFF;stop-opacity:0"/>
		<stop  offset="0.7527" style="stop-color:#FAFAFA;stop-opacity:0.1032"/>
		<stop  offset="1" style="stop-color:#EFEFEF;stop-opacity:0.2"/>
	</linearGradient>
	<path style="fill:url(#SVGID_00000024693342601529907290000007399011647087257530_);" d="M201.74,435.49
		c-11.26-6.5-22.08-12.14-32.24-18.79c-8.05-5.27-14.94-5.26-22.99,0c-10.17,6.65-20.98,12.31-32.41,18.92c0-34.21,0-67.06,0-100.51
		c29.18,0,58.19,0,87.64,0C201.74,368.24,201.74,401.27,201.74,435.49z"/>
	
		<linearGradient id="SVGID_00000135680510885504989200000013388304252355404679_" gradientUnits="userSpaceOnUse" x1="56.606" y1="-56.3993" x2="669.415" y2="577.0389">
		<stop  offset="0" style="stop-color:#FFFFFF;stop-opacity:0.4"/>
		<stop  offset="0.0691" style="stop-color:#FFFFFF;stop-opacity:0.3435"/>
		<stop  offset="0.4892" style="stop-color:#FFFFFF;stop-opacity:0"/>
		<stop  offset="0.7527" style="stop-color:#FAFAFA;stop-opacity:0.1032"/>
		<stop  offset="1" style="stop-color:#EFEFEF;stop-opacity:0.2"/>
	</linearGradient>
	<path style="fill:url(#SVGID_00000135680510885504989200000013388304252355404679_);" d="M440.15,435.55c0-34.13,0-66.99,0-100.44
		c29.07,0,58.07,0,87.59,0c0,33.13,0,66.14,0,100.32c-10.88-6.25-21.41-11.52-31.07-18.08c-8.94-6.07-16.53-5.92-25.42,0.09
		C461.59,423.97,451.08,429.26,440.15,435.55z"/>
	
		<linearGradient id="SVGID_00000086689207611941805220000010402527984985906858_" gradientUnits="userSpaceOnUse" x1="51.5288" y1="-51.4875" x2="664.3378" y2="581.9507">
		<stop  offset="0" style="stop-color:#FFFFFF;stop-opacity:0.4"/>
		<stop  offset="0.0691" style="stop-color:#FFFFFF;stop-opacity:0.3435"/>
		<stop  offset="0.4892" style="stop-color:#FFFFFF;stop-opacity:0"/>
		<stop  offset="0.7527" style="stop-color:#FAFAFA;stop-opacity:0.1032"/>
		<stop  offset="1" style="stop-color:#EFEFEF;stop-opacity:0.2"/>
	</linearGradient>
	<path style="fill:url(#SVGID_00000086689207611941805220000010402527984985906858_);" d="M201.92,8.51c0,33.2,0,66.1,0,100.19
		c-10.95-6.43-21.55-12-31.42-18.66c-8.6-5.8-15.98-6.17-24.73-0.15c-9.84,6.77-20.54,12.27-31.65,18.79c0-33.89,0-66.74,0-100.17
		C143.1,8.51,172.13,8.51,201.92,8.51z"/>
</g>
</svg>
