<?xml version="1.0" encoding="utf-8"?>
<!-- Generator: Adobe Illustrator 26.2.1, SVG Export Plug-In . SVG Version: 6.00 Build 0)  -->
<svg version="1.1" id="report" xmlns="http://www.w3.org/2000/svg" xmlns:xlink="http://www.w3.org/1999/xlink" x="0px" y="0px"
	 viewBox="0 0 640.62 640.62" style="enable-background:new 0 0 640.62 640.62;" xml:space="preserve">
<style type="text/css">
	.st0{fill:#5800B2;}
	.st1{fill:#360061;}
	.st2{fill:url(#SVGID_1_);}
	.st3{fill:url(#SVGID_00000101078194102254518550000010589097327837007750_);}
	.st4{fill:url(#SVGID_00000039825495569087404690000000773271238244225203_);}
	.st5{fill:url(#SVGID_00000155118967434450109040000008443257792998469553_);}
</style>
<g>
	<path class="st0" d="M641.87,179.82c-3.95,12.03-12.44,16.15-24.81,16.14c-197.09-0.18-394.18-0.13-591.27-0.13
		c-13.04,0-21.18-5.35-22.91-15.59c-0.72-4.26-0.35-8.71-0.37-13.08c-0.04-8.74-0.07-17.48,0-26.22c0.1-12.3,7.52-19.89,19.73-20.09
		c9.99-0.17,19.97-0.13,29.96-0.22c0.36,0,0.72-0.35,1.81-0.92c0-1.85,0-4.08,0-6.31c0-23.52-0.02-47.04,0.01-70.55
		c0.02-15.3,7.25-22.47,22.63-22.55c3.71-0.02,7.41,0,11.98,0c0,7.52-0.05,14.5,0.01,21.49c0.09,11.64,7.73,20.13,18.29,20.4
		c10.54,0.28,18.93-8.58,19.14-20.37c0.12-6.85,0.02-13.71,0.02-21.04c11.45,0,22.54,0,34.38,0c0,33.16,0,66.15,0,99.59
		c12.66,0,24.59,0,37.26,0c0-33.27,0-66.25,0-99.65c11.84,0,22.93,0,34.75,0c0,7.73-0.23,15.17,0.05,22.6
		c0.4,10.69,8.62,18.81,18.66,18.87c10.4,0.06,18.46-8.2,18.71-19.32c0.12-5.2,0.03-10.41,0.03-15.61c0-2.03,0-4.07,0-6.53
		c11.52,0,22.44,0,34.12,0c0,33.05,0,66.02,0,99.54c12.82,0,24.91,0,37.7,0c0-33.19,0-66.18,0-99.56c11.61,0,22.52,0,34.16,0
		c0,7.03-0.04,13.83,0.01,20.63c0.08,12.07,7.78,20.7,18.55,20.86c10.97,0.16,18.85-8.59,18.91-21.06
		c0.03-6.64,0.01-13.27,0.01-20.37c11.31,0,22.21,0,33.8,0c0,33.16,0,66.14,0,99.59c12.59,0,24.5,0,37.08,0c0-33.32,0-66.3,0-99.66
		c11.57,0,22.47,0,33.99,0c0,7.36-0.06,14.39,0.01,21.41c0.13,11.47,8.12,20.03,18.64,20.1c10.36,0.06,18.57-8.62,18.79-20.05
		c0.13-7.03,0.02-14.06,0.02-21.48c6.35,0,12.18-0.59,17.85,0.13c10.18,1.29,16.11,8.72,16.16,19.63
		c0.11,24.14,0.04,48.28,0.04,72.43c0,2.27,0,4.54,0,7.98c4.65,0,8.9,0,13.16,0c4.58,0,9.2,0.38,13.73-0.07
		c12.4-1.24,20.88,3.57,25.21,15.37C641.87,150.69,641.87,165.25,641.87,179.82z"/>
	<path class="st1" d="M641.87,393.36c-1.9,3.55-3.81,7.1-5.97,11.14c-2.01-1.64-3.31-2.58-4.48-3.66
		c-58.58-54.24-149.69-52.54-205.89,3.97c-3.05,3.07-6.05,4.33-10.34,4.32c-129.86-0.1-259.71-0.08-389.57-0.09
		c-16.31,0-23.12-6.84-23.13-23.11c0-10.61-0.07-21.23,0.02-31.84c0.1-12.21,7.59-19.76,19.91-19.94c10.35-0.15,20.7-0.03,31.6-0.03
		c0-6.41,0-12,0-17.59c0-20.19-0.04-40.37,0.01-60.56c0.04-14.53,7.35-21.79,21.92-21.91c3.92-0.03,7.85,0,12.67,0
		c0,7.26-0.03,14.03,0.01,20.8c0.06,12.23,7.5,20.71,18.33,20.96c10.81,0.25,18.98-8.67,19.12-20.99
		c0.08-6.64,0.01-13.29,0.01-20.35c11.51,0,22.62,0,34.42,0c0,33.13,0,65.91,0,99.16c12.61,0,24.54,0,37.13,0
		c0-33.02,0-65.81,0-99.09c11.75,0,22.86,0,34.82,0c0,7.51-0.22,14.93,0.05,22.33c0.4,10.91,9.01,19.23,19.2,18.94
		c10.24-0.3,17.91-8.34,18.17-19.21c0.13-5.2,0.03-10.4,0.04-15.61c0-2.03,0-4.07,0-6.52c11.51,0,22.44,0,34.24,0
		c0,33.06,0,65.99,0,99.27c12.84,0,24.81,0,37.45,0c0-33.1,0-65.87,0-99.17c11.55,0,22.43,0,34.3,0c0,7.52-0.25,15.12,0.05,22.69
		c0.58,14.46,15.53,23.02,27.81,15.99c6.27-3.58,9.49-9.17,9.56-16.42c0.08-7.27,0.02-14.54,0.02-22.8c5.88,0,11.42,0,16.95,0
		c5.38,0,10.75,0,16.74,0c0,33.37,0,66.15,0,99.49c12.52,0,24.44,0,37,0c0-32.87,0-65.64,0-98.95c11.5,0,22.38,0,34.19,0
		c0,6.7-0.03,13.46,0.01,20.22c0.07,12.39,7.99,21.14,18.97,20.99c10.62-0.15,18.36-8.88,18.48-20.96
		c0.07-6.64,0.01-13.29,0.01-20.19c6.76,0,13.23-0.73,19.48,0.17c8.94,1.29,14.47,8.98,14.51,19.05
		c0.11,24.14,0.04,48.28,0.05,72.42c0,2.26,0,4.53,0,7.82c10.79,0,21.11,0.06,31.43-0.02c6.65-0.05,12.37,1.95,16.35,7.43
		c1.78,2.46,2.9,5.4,4.32,8.12C641.87,364.23,641.87,378.79,641.87,393.36z"/>
	<path class="st0" d="M641.87,521.99c-1.27,5.62-2.37,11.29-3.83,16.87c-13.08,49.73-61.17,85.34-111.37,82.53
		c-54.46-3.04-97.96-41.47-106.03-93.68c-9.53-61.67,32.49-119.02,93.71-127.89c61.18-8.86,117.87,33.75,126.41,94.99
		c0.16,1.18,0.74,2.3,1.12,3.45C641.87,506.17,641.87,514.08,641.87,521.99z M518.53,514.07c-2.77-4.69-5.01-8.6-7.35-12.45
		c-6.02-9.87-17.09-13.07-26.24-7.63c-9,5.35-11.81,16.32-6.3,26.1c7.64,13.58,15.37,27.11,23.4,40.45
		c8.1,13.45,24.8,13.32,33.02-0.14c4.76-7.8,9.18-15.81,13.75-23.72c11.11-19.25,22.29-38.46,33.29-57.77
		c5.75-10.08,3.05-21.29-6.1-26.62c-9.26-5.4-20.23-2.2-26.2,7.74c-2.78,4.63-5.39,9.36-8.09,14.03
		C534.15,487.1,526.59,500.16,518.53,514.07z"/>
	<path class="st0" d="M88.64,447.77c0,8.1-0.09,15.15,0.02,22.19c0.17,11.12,8.09,19.41,18.5,19.5
		c10.22,0.09,18.52-8.24,18.88-19.29c0.23-7.23,0.04-14.47,0.04-22.05c11.59,0,22.52,0,34.39,0c0,32.68,0,65.19,0,98.05
		c12.7,0,24.47,0,37.16,0c0-32.7,0-65.22,0-98.07c11.89,0,22.87,0,34.85,0c0,7.41-0.22,14.83,0.05,22.23
		c0.5,13.9,13.37,22.78,25.66,17.7c7.4-3.06,11.49-8.81,11.69-16.9c0.19-7.45,0.04-14.91,0.04-22.86c11.66,0,22.71,0,34.45,0
		c0,32.76,0,65.13,0,97.88c12.64,0,24.6,0,37.25,0c0-32.62,0-64.97,0-97.86c11.57,0,22.47,0,34.32,0c0,6.59-0.7,13.48,0.22,20.13
		c0.73,5.28,3.46,10.29,5.27,15.43c0.64,1.83,1.89,3.77,1.69,5.52c-6.02,50.78,9.37,93.9,46.01,129.51
		c0.43,0.42,0.72,0.98,1.52,2.12c-1.93,0.22-3.41,0.53-4.9,0.54c-133.82,0.02-267.65,0.04-401.47,0c-14.52,0-21.74-7.47-21.76-22.06
		c-0.02-11.03-0.08-22.06,0.02-33.09c0.1-11.91,7.52-19.57,19.39-19.8c10.37-0.2,20.74-0.04,31.74-0.04
		c0.14-2.72,0.35-4.92,0.35-7.11c0.02-23.1-0.01-46.2,0.02-69.3c0.02-15.07,7.1-22.23,22.06-22.38
		C80.01,447.74,83.93,447.77,88.64,447.77z"/>
	<linearGradient id="SVGID_1_" gradientUnits="userSpaceOnUse" x1="2.4338" y1="108.1238" x2="641.8701" y2="108.1238">
		<stop  offset="0" style="stop-color:#FFFFFF;stop-opacity:0.4"/>
		<stop  offset="0.0691" style="stop-color:#FFFFFF;stop-opacity:0.3435"/>
		<stop  offset="0.4892" style="stop-color:#FFFFFF;stop-opacity:0"/>
		<stop  offset="0.7527" style="stop-color:#FAFAFA;stop-opacity:0.1032"/>
		<stop  offset="1" style="stop-color:#EFEFEF;stop-opacity:0.2"/>
	</linearGradient>
	<path class="st2" d="M641.87,179.82c-3.95,12.03-12.44,16.15-24.81,16.14c-197.09-0.18-394.18-0.13-591.27-0.13
		c-13.04,0-21.18-5.35-22.91-15.59c-0.72-4.26-0.35-8.71-0.37-13.08c-0.04-8.74-0.07-17.48,0-26.22c0.1-12.3,7.52-19.89,19.73-20.09
		c9.99-0.17,19.97-0.13,29.96-0.22c0.36,0,0.72-0.35,1.81-0.92c0-1.85,0-4.08,0-6.31c0-23.52-0.02-47.04,0.01-70.55
		c0.02-15.3,7.25-22.47,22.63-22.55c3.71-0.02,7.41,0,11.98,0c0,7.52-0.05,14.5,0.01,21.49c0.09,11.64,7.73,20.13,18.29,20.4
		c10.54,0.28,18.93-8.58,19.14-20.37c0.12-6.85,0.02-13.71,0.02-21.04c11.45,0,22.54,0,34.38,0c0,33.16,0,66.15,0,99.59
		c12.66,0,24.59,0,37.26,0c0-33.27,0-66.25,0-99.65c11.84,0,22.93,0,34.75,0c0,7.73-0.23,15.17,0.05,22.6
		c0.4,10.69,8.62,18.81,18.66,18.87c10.4,0.06,18.46-8.2,18.71-19.32c0.12-5.2,0.03-10.41,0.03-15.61c0-2.03,0-4.07,0-6.53
		c11.52,0,22.44,0,34.12,0c0,33.05,0,66.02,0,99.54c12.82,0,24.91,0,37.7,0c0-33.19,0-66.18,0-99.56c11.61,0,22.52,0,34.16,0
		c0,7.03-0.04,13.83,0.01,20.63c0.08,12.07,7.78,20.7,18.55,20.86c10.97,0.16,18.85-8.59,18.91-21.06
		c0.03-6.64,0.01-13.27,0.01-20.37c11.31,0,22.21,0,33.8,0c0,33.16,0,66.14,0,99.59c12.59,0,24.5,0,37.08,0c0-33.32,0-66.3,0-99.66
		c11.57,0,22.47,0,33.99,0c0,7.36-0.06,14.39,0.01,21.41c0.13,11.47,8.12,20.03,18.64,20.1c10.36,0.06,18.57-8.62,18.79-20.05
		c0.13-7.03,0.02-14.06,0.02-21.48c6.35,0,12.18-0.59,17.85,0.13c10.18,1.29,16.11,8.72,16.16,19.63
		c0.11,24.14,0.04,48.28,0.04,72.43c0,2.27,0,4.54,0,7.98c4.65,0,8.9,0,13.16,0c4.58,0,9.2,0.38,13.73-0.07
		c12.4-1.24,20.88,3.57,25.21,15.37C641.87,150.69,641.87,165.25,641.87,179.82z"/>
	
		<linearGradient id="SVGID_00000030461321592986604320000002265814441835771025_" gradientUnits="userSpaceOnUse" x1="2.4715" y1="321.5943" x2="641.8701" y2="321.5943">
		<stop  offset="0" style="stop-color:#FFFFFF;stop-opacity:0.4"/>
		<stop  offset="0.0691" style="stop-color:#FFFFFF;stop-opacity:0.3435"/>
		<stop  offset="0.4892" style="stop-color:#FFFFFF;stop-opacity:0"/>
		<stop  offset="0.7527" style="stop-color:#FAFAFA;stop-opacity:0.1032"/>
		<stop  offset="1" style="stop-color:#EFEFEF;stop-opacity:0.2"/>
	</linearGradient>
	<path style="fill:url(#SVGID_00000030461321592986604320000002265814441835771025_);" d="M641.87,393.36
		c-1.9,3.55-3.81,7.1-5.97,11.14c-2.01-1.64-3.31-2.58-4.48-3.66c-58.58-54.24-149.69-52.54-205.89,3.97
		c-3.05,3.07-6.05,4.33-10.34,4.32c-129.86-0.1-259.71-0.08-389.57-0.09c-16.31,0-23.12-6.84-23.13-23.11
		c0-10.61-0.07-21.23,0.02-31.84c0.1-12.21,7.59-19.76,19.91-19.94c10.35-0.15,20.7-0.03,31.6-0.03c0-6.41,0-12,0-17.59
		c0-20.19-0.04-40.37,0.01-60.56c0.04-14.53,7.35-21.79,21.92-21.91c3.92-0.03,7.85,0,12.67,0c0,7.26-0.03,14.03,0.01,20.8
		c0.06,12.23,7.5,20.71,18.33,20.96c10.81,0.25,18.98-8.67,19.12-20.99c0.08-6.64,0.01-13.29,0.01-20.35c11.51,0,22.62,0,34.42,0
		c0,33.13,0,65.91,0,99.16c12.61,0,24.54,0,37.13,0c0-33.02,0-65.81,0-99.09c11.75,0,22.86,0,34.82,0c0,7.51-0.22,14.93,0.05,22.33
		c0.4,10.91,9.01,19.23,19.2,18.94c10.24-0.3,17.91-8.34,18.17-19.21c0.13-5.2,0.03-10.4,0.04-15.61c0-2.03,0-4.07,0-6.52
		c11.51,0,22.44,0,34.24,0c0,33.06,0,65.99,0,99.27c12.84,0,24.81,0,37.45,0c0-33.1,0-65.87,0-99.17c11.55,0,22.43,0,34.3,0
		c0,7.52-0.25,15.12,0.05,22.69c0.58,14.46,15.53,23.02,27.81,15.99c6.27-3.58,9.49-9.17,9.56-16.42c0.08-7.27,0.02-14.54,0.02-22.8
		c5.88,0,11.42,0,16.95,0c5.38,0,10.75,0,16.74,0c0,33.37,0,66.15,0,99.49c12.52,0,24.44,0,37,0c0-32.87,0-65.64,0-98.95
		c11.5,0,22.38,0,34.19,0c0,6.7-0.03,13.46,0.01,20.22c0.07,12.39,7.99,21.14,18.97,20.99c10.62-0.15,18.36-8.88,18.48-20.96
		c0.07-6.64,0.01-13.29,0.01-20.19c6.76,0,13.23-0.73,19.48,0.17c8.94,1.29,14.47,8.98,14.51,19.05
		c0.11,24.14,0.04,48.28,0.05,72.42c0,2.26,0,4.53,0,7.82c10.79,0,21.11,0.06,31.43-0.02c6.65-0.05,12.37,1.95,16.35,7.43
		c1.78,2.46,2.9,5.4,4.32,8.12C641.87,364.23,641.87,378.79,641.87,393.36z"/>
	
		<linearGradient id="SVGID_00000083060794979501043700000007525606515603621027_" gradientUnits="userSpaceOnUse" x1="419.2933" y1="510.0966" x2="641.8701" y2="510.0966">
		<stop  offset="0" style="stop-color:#FFFFFF;stop-opacity:0.4"/>
		<stop  offset="0.0691" style="stop-color:#FFFFFF;stop-opacity:0.3435"/>
		<stop  offset="0.4892" style="stop-color:#FFFFFF;stop-opacity:0"/>
		<stop  offset="0.7527" style="stop-color:#FAFAFA;stop-opacity:0.1032"/>
		<stop  offset="1" style="stop-color:#EFEFEF;stop-opacity:0.2"/>
	</linearGradient>
	<path style="fill:url(#SVGID_00000083060794979501043700000007525606515603621027_);" d="M641.87,521.99
		c-1.27,5.62-2.37,11.29-3.83,16.87c-13.08,49.73-61.17,85.34-111.37,82.53c-54.46-3.04-97.96-41.47-106.03-93.68
		c-9.53-61.67,32.49-119.02,93.71-127.89c61.18-8.86,117.87,33.75,126.41,94.99c0.16,1.18,0.74,2.3,1.12,3.45
		C641.87,506.17,641.87,514.08,641.87,521.99z M518.53,514.07c-2.77-4.69-5.01-8.6-7.35-12.45c-6.02-9.87-17.09-13.07-26.24-7.63
		c-9,5.35-11.81,16.32-6.3,26.1c7.64,13.58,15.37,27.11,23.4,40.45c8.1,13.45,24.8,13.32,33.02-0.14
		c4.76-7.8,9.18-15.81,13.75-23.72c11.11-19.25,22.29-38.46,33.29-57.77c5.75-10.08,3.05-21.29-6.1-26.62
		c-9.26-5.4-20.23-2.2-26.2,7.74c-2.78,4.63-5.39,9.36-8.09,14.03C534.15,487.1,526.59,500.16,518.53,514.07z"/>
	
		<linearGradient id="SVGID_00000091007855278553999770000013291551597860905124_" gradientUnits="userSpaceOnUse" x1="2.4669" y1="534.6669" x2="430.6318" y2="534.6669">
		<stop  offset="0" style="stop-color:#FFFFFF;stop-opacity:0.4"/>
		<stop  offset="0.0691" style="stop-color:#FFFFFF;stop-opacity:0.3435"/>
		<stop  offset="0.4892" style="stop-color:#FFFFFF;stop-opacity:0"/>
		<stop  offset="0.7527" style="stop-color:#FAFAFA;stop-opacity:0.1032"/>
		<stop  offset="1" style="stop-color:#EFEFEF;stop-opacity:0.2"/>
	</linearGradient>
	<path style="fill:url(#SVGID_00000091007855278553999770000013291551597860905124_);" d="M88.64,447.77
		c0,8.1-0.09,15.15,0.02,22.19c0.17,11.12,8.09,19.41,18.5,19.5c10.22,0.09,18.52-8.24,18.88-19.29c0.23-7.23,0.04-14.47,0.04-22.05
		c11.59,0,22.52,0,34.39,0c0,32.68,0,65.19,0,98.05c12.7,0,24.47,0,37.16,0c0-32.7,0-65.22,0-98.07c11.89,0,22.87,0,34.85,0
		c0,7.41-0.22,14.83,0.05,22.23c0.5,13.9,13.37,22.78,25.66,17.7c7.4-3.06,11.49-8.81,11.69-16.9c0.19-7.45,0.04-14.91,0.04-22.86
		c11.66,0,22.71,0,34.45,0c0,32.76,0,65.13,0,97.88c12.64,0,24.6,0,37.25,0c0-32.62,0-64.97,0-97.86c11.57,0,22.47,0,34.32,0
		c0,6.59-0.7,13.48,0.22,20.13c0.73,5.28,3.46,10.29,5.27,15.43c0.64,1.83,1.89,3.77,1.69,5.52c-6.02,50.78,9.37,93.9,46.01,129.51
		c0.43,0.42,0.72,0.98,1.52,2.12c-1.93,0.22-3.41,0.53-4.9,0.54c-133.82,0.02-267.65,0.04-401.47,0c-14.52,0-21.74-7.47-21.76-22.06
		c-0.02-11.03-0.08-22.06,0.02-33.09c0.1-11.91,7.52-19.57,19.39-19.8c10.37-0.2,20.74-0.04,31.74-0.04
		c0.14-2.72,0.35-4.92,0.35-7.11c0.02-23.1-0.01-46.2,0.02-69.3c0.02-15.07,7.1-22.23,22.06-22.38
		C80.01,447.74,83.93,447.77,88.64,447.77z"/>
</g>
</svg>
