<?xml version="1.0" encoding="utf-8"?>
<!-- Generator: Adobe Illustrator 26.2.1, SVG Export Plug-In . SVG Version: 6.00 Build 0)  -->
<svg version="1.1" id="report" xmlns="http://www.w3.org/2000/svg" xmlns:xlink="http://www.w3.org/1999/xlink" x="0px" y="0px"
	 viewBox="0 0 640.62 640.62" style="enable-background:new 0 0 640.62 640.62;" xml:space="preserve">
<style type="text/css">
	.st0{display:none;fill:url(#SVGID_1_);}
	.st1{display:none;fill:url(#SVGID_00000057134883430732758610000007147698927942818436_);}
	.st2{display:none;fill:url(#SVGID_00000097462836273167341840000008834054015348513724_);}
	.st3{fill:#5800B2;}
	.st4{fill:#360061;}
	.st5{fill:url(#SVGID_00000144316068831244717180000001395972620447799703_);}
	.st6{fill:url(#SVGID_00000138550912645550496820000010111972641542657716_);}
	.st7{fill:url(#SVGID_00000121972398382761364620000006632971375274103691_);}
	.st8{fill:url(#SVGID_00000144316009960121727550000017591120626466024370_);}
</style>
<linearGradient id="SVGID_1_" gradientUnits="userSpaceOnUse" x1="290.9483" y1="320.3009" x2="360.9372" y2="320.3009">
	<stop  offset="0" style="stop-color:#FFFFFF;stop-opacity:0.4"/>
	<stop  offset="0.0691" style="stop-color:#FFFFFF;stop-opacity:0.3435"/>
	<stop  offset="0.4892" style="stop-color:#FFFFFF;stop-opacity:0"/>
	<stop  offset="0.7527" style="stop-color:#FAFAFA;stop-opacity:0.1032"/>
	<stop  offset="1" style="stop-color:#EFEFEF;stop-opacity:0.2"/>
</linearGradient>
<path class="st0" d="M360.94,408.89c-23.09-16.59-45.06-32.27-66.81-48.25c-1.83-1.34-2.98-4.76-3.01-7.23
	c-0.23-22.1-0.21-44.2-0.02-66.3c0.02-2.29,0.86-5.51,2.5-6.71c21.96-16.13,44.13-31.97,67.35-48.68
	C360.94,291.13,360.94,349.28,360.94,408.89z"/>
<linearGradient id="SVGID_00000081643353668603042180000008701108515956142236_" gradientUnits="userSpaceOnUse" x1="234.72" y1="320.2812" x2="275.4071" y2="320.2812">
	<stop  offset="0" style="stop-color:#FFFFFF;stop-opacity:0.4"/>
	<stop  offset="0.0691" style="stop-color:#FFFFFF;stop-opacity:0.3435"/>
	<stop  offset="0.4892" style="stop-color:#FFFFFF;stop-opacity:0"/>
	<stop  offset="0.7527" style="stop-color:#FAFAFA;stop-opacity:0.1032"/>
	<stop  offset="1" style="stop-color:#EFEFEF;stop-opacity:0.2"/>
</linearGradient>
<path style="display:none;fill:url(#SVGID_00000081643353668603042180000008701108515956142236_);" d="M275.41,285.55
	c0,23.61,0,46.09,0,69.35c-11.46,0-22.58,0.48-33.59-0.36c-2.51-0.19-6.61-4.84-6.7-7.55c-0.6-17.88-0.4-35.78-0.22-53.68
	c0.05-4.85,2.99-7.68,7.96-7.73C253.46,285.48,264.05,285.55,275.41,285.55z"/>
<linearGradient id="SVGID_00000103253194987669197620000005235892597961387188_" gradientUnits="userSpaceOnUse" x1="377.0954" y1="320.1778" x2="405.9691" y2="320.1778">
	<stop  offset="0" style="stop-color:#FFFFFF;stop-opacity:0.4"/>
	<stop  offset="0.0691" style="stop-color:#FFFFFF;stop-opacity:0.3435"/>
	<stop  offset="0.4892" style="stop-color:#FFFFFF;stop-opacity:0"/>
	<stop  offset="0.7527" style="stop-color:#FAFAFA;stop-opacity:0.1032"/>
	<stop  offset="1" style="stop-color:#EFEFEF;stop-opacity:0.2"/>
</linearGradient>
<path style="display:none;fill:url(#SVGID_00000103253194987669197620000005235892597961387188_);" d="M377.1,355.13
	c0-23.33,0-46.62,0.01-69.9c15.57,1.63,28.5,17.01,28.86,34.31C406.32,336.88,393.67,352.67,377.1,355.13z"/>
<g>
	<path d="M182.32,1.25c9.96,8.68,20.93,16.45,29.69,26.21c33.05,36.83,36.22,96.56,8.33,137.38c-9.16,13.41-20.08,24.98-33.97,33.42
		c-4.49,2.73-5.96,5.78-5.95,10.98c0.25,124.03,0.3,248.07,0.43,372.1c0.02,19.39-6.01,36.07-21.9,47.98
		c-16.66,12.49-35.22,14.78-54.22,6.65c-18.75-8.03-29.83-22.75-32.33-43.26c-0.78-6.37-0.9-12.86-0.9-19.29
		c-0.05-120.5-0.08-240.99,0.1-361.49c0.01-5.5-1.66-8.42-6.38-11.23C5.13,164.94-10.21,85.93,32.64,30.95
		c7.29-9.36,17.35-16.57,26.18-24.71c1.93-1.78,4.07-3.33,6.11-4.98c0.42,0,0.83,0,1.25,0c0.01,29.13,0.07,58.25-0.02,87.38
		c-0.01,3.42,0.72,5.64,4,7.49c16.66,9.39,33.08,19.19,49.77,28.51c2.01,1.12,5.71,1.15,7.71,0.04
		c16.71-9.3,33.25-18.89,49.67-28.68c1.85-1.11,3.71-4.03,3.73-6.12c0.2-29.54,0.07-59.08,0.02-88.62
		C181.49,1.25,181.9,1.25,182.32,1.25z M123.43,616.17c11.46,0,20.62-9.1,20.7-20.57c0.08-11.4-9.12-20.84-20.4-20.95
		c-11.44-0.11-21.26,9.65-21.15,21.01C102.69,607.02,112.01,616.18,123.43,616.17z"/>
	<path class="st3" d="M182.32,1.25c9.96,8.68,20.93,16.45,29.69,26.21c33.05,36.83,36.22,96.56,8.33,137.38
		c-9.16,13.41-20.08,24.98-33.97,33.42c-4.49,2.73-5.96,5.78-5.95,10.98c0.25,124.03,0.3,248.07,0.43,372.1
		c0.02,19.39-6.01,36.07-21.9,47.98c-16.66,12.49-35.22,14.78-54.22,6.65c-18.75-8.03-29.83-22.75-32.33-43.26
		c-0.78-6.37-0.9-12.86-0.9-19.29c-0.05-120.5-0.08-240.99,0.1-361.49c0.01-5.5-1.66-8.42-6.38-11.23
		C5.13,164.94-10.21,85.93,32.64,30.95c7.29-9.36,17.35-16.57,26.18-24.71c1.93-1.78,4.07-3.33,6.11-4.98c0.42,0,0.83,0,1.25,0
		c0.01,29.13,0.07,58.25-0.02,87.38c-0.01,3.42,0.72,5.64,4,7.49c16.66,9.39,33.08,19.19,49.77,28.51c2.01,1.12,5.71,1.15,7.71,0.04
		c16.71-9.3,33.25-18.89,49.67-28.68c1.85-1.11,3.71-4.03,3.73-6.12c0.2-29.54,0.07-59.08,0.02-88.62
		C181.49,1.25,181.9,1.25,182.32,1.25z M123.43,616.17c11.46,0,20.62-9.1,20.7-20.57c0.08-11.4-9.12-20.84-20.4-20.95
		c-11.44-0.11-21.26,9.65-21.15,21.01C102.69,607.02,112.01,616.18,123.43,616.17z"/>
	<path class="st4" d="M203.48,389.88c0-33.07,0-66.15,0-99.88c99.83,0,199.62,0,300.43,0c-2.42-9.82-4.59-18.81-6.85-27.78
		c-6.72-26.59-12.69-53.39-20.42-79.69c-8.59-29.26-33.41-47.51-63.96-48.83c-9.97-0.43-19.98-0.19-29.97-0.19
		c-39.34-0.02-78.67-0.01-118.01-0.01c-2.27,0-4.55,0-7.54,0c1.11-5.25,1.92-10.08,3.27-14.74c0.3-1.04,2.46-2.2,3.76-2.2
		c49.94,0.1,99.95-1.2,149.8,1.01c40.73,1.81,72.15,28.85,82.8,68.3c9.09,33.68,16.03,67.94,23.91,101.94
		c0.89,3.85,1.32,7.87,2.75,11.5c1.18,3.03,3.51,5.6,5.33,8.38c0.68-0.32,1.36-0.65,2.05-0.97c1.64-14.65,3.18-29.31,5.03-43.93
		c0.26-2.06,1.64-5.15,3.22-5.71c22.8-8.07,46.01-14.46,70.44-14.77c2.88-0.04,5.82,0.43,8.66,1.01
		c11.45,2.34,15.78,6.92,16.41,18.49c0.66,12.24,0.66,24.51,0.97,36.77c0.13,5.14-2.06,7.04-7.44,7.26
		c-27.03,1.1-54.04,2.63-81.05,4.04c-3.08,0.16-6.15,0.51-7.58,0.63c3.55,4.19,7.53,8.93,11.56,13.62
		c9.26,10.78,14.76,23.09,14.8,37.45c0.1,32.05,0.48,64.11-0.06,96.15c-0.48,28.17-16.86,45.99-40.86,57.72
		c-5,2.44-6.98,4.84-6.79,10.53c0.47,14.76-0.44,29.58,0.31,44.32c0.94,18.42-7.3,30.95-23.34,38.24
		c-28.31,12.86-56.09,12.16-82.2-6c-9.49-6.59-13.92-16.14-13.76-27.88c0.2-14.57,0.06-29.14,0.03-43.71c0-1.83-0.22-3.66-0.38-6.17
		c-65.11,0-129.91,0-195.07,0c-0.17-2.06-0.39-3.46-0.39-4.85c-0.03-24.98-0.04-49.95-0.03-74.93c0-1.44,0.26-2.88,0.4-4.33
		l-0.22,0.19c60.22,0,120.45,0,180.7,0c0-7.9,0-15.03,0-22.48c-3.17,0-5.85,0-8.53,0c-57.38-0.06-114.77-0.12-172.15-0.18l0.18,0.15
		c-0.05-2.12-0.09-4.24-0.14-6.36c60.82,0,121.64,0,182.54,0c0-7.91,0-15.01,0-22.4c-2.83,0-5.11,0-7.38,0
		c-39.08,0-78.16-0.03-117.23,0.01C242.13,389.67,222.8,389.8,203.48,389.88z M521.15,388.62c-36.02,0-71.44,0-107.02,0
		c0,16.97,0,33.49,0,50.34c35.81,0,71.22,0,107.02,0C521.15,422.08,521.15,405.57,521.15,388.62z"/>
	<path d="M203.69,440.71c-1.1-0.78-3.11-1.52-3.15-2.36c-0.28-5.76-0.29-11.55,0-17.31c0.05-0.93,2.03-1.76,3.12-2.63
		c0,0-0.18-0.15-0.18-0.15c0,7.55,0,15.1-0.01,22.65L203.69,440.71z"/>
	
		<linearGradient id="SVGID_00000063618548767934193390000003979567755630752424_" gradientUnits="userSpaceOnUse" x1="8.2539" y1="320.993" x2="239.2294" y2="320.993">
		<stop  offset="0" style="stop-color:#FFFFFF;stop-opacity:0.4"/>
		<stop  offset="0.0691" style="stop-color:#FFFFFF;stop-opacity:0.3435"/>
		<stop  offset="0.4892" style="stop-color:#FFFFFF;stop-opacity:0"/>
		<stop  offset="0.7527" style="stop-color:#FAFAFA;stop-opacity:0.1032"/>
		<stop  offset="1" style="stop-color:#EFEFEF;stop-opacity:0.2"/>
	</linearGradient>
	<path style="fill:url(#SVGID_00000063618548767934193390000003979567755630752424_);" d="M182.32,1.25
		c9.96,8.68,20.93,16.45,29.69,26.21c33.05,36.83,36.22,96.56,8.33,137.38c-9.16,13.41-20.08,24.98-33.97,33.42
		c-4.49,2.73-5.96,5.78-5.95,10.98c0.25,124.03,0.3,248.07,0.43,372.1c0.02,19.39-6.01,36.07-21.9,47.98
		c-16.66,12.49-35.22,14.78-54.22,6.65c-18.75-8.03-29.83-22.75-32.33-43.26c-0.78-6.37-0.9-12.86-0.9-19.29
		c-0.05-120.5-0.08-240.99,0.1-361.49c0.01-5.5-1.66-8.42-6.38-11.23C5.13,164.94-10.21,85.93,32.64,30.95
		c7.29-9.36,17.35-16.57,26.18-24.71c1.93-1.78,4.07-3.33,6.11-4.98c0.42,0,0.83,0,1.25,0c0.01,29.13,0.07,58.25-0.02,87.38
		c-0.01,3.42,0.72,5.64,4,7.49c16.66,9.39,33.08,19.19,49.77,28.51c2.01,1.12,5.71,1.15,7.71,0.04
		c16.71-9.3,33.25-18.89,49.67-28.68c1.85-1.11,3.71-4.03,3.73-6.12c0.2-29.54,0.07-59.08,0.02-88.62
		C181.49,1.25,181.9,1.25,182.32,1.25z M123.43,616.17c11.46,0,20.62-9.1,20.7-20.57c0.08-11.4-9.12-20.84-20.4-20.95
		c-11.44-0.11-21.26,9.65-21.15,21.01C102.69,607.02,112.01,616.18,123.43,616.17z"/>
	
		<linearGradient id="SVGID_00000136413806259676820410000000910314882283847327_" gradientUnits="userSpaceOnUse" x1="102.4716" y1="7.4384" x2="198.9377" y2="613.4966">
		<stop  offset="0" style="stop-color:#FFFFFF;stop-opacity:0.4"/>
		<stop  offset="0.0691" style="stop-color:#FFFFFF;stop-opacity:0.3435"/>
		<stop  offset="0.4892" style="stop-color:#FFFFFF;stop-opacity:0"/>
		<stop  offset="0.7527" style="stop-color:#FAFAFA;stop-opacity:0.1032"/>
		<stop  offset="1" style="stop-color:#EFEFEF;stop-opacity:0.2"/>
	</linearGradient>
	<path style="fill:url(#SVGID_00000136413806259676820410000000910314882283847327_);" d="M182.32,1.25
		c9.96,8.68,20.93,16.45,29.69,26.21c33.05,36.83,36.22,96.56,8.33,137.38c-9.16,13.41-20.08,24.98-33.97,33.42
		c-4.49,2.73-5.96,5.78-5.95,10.98c0.25,124.03,0.3,248.07,0.43,372.1c0.02,19.39-6.01,36.07-21.9,47.98
		c-16.66,12.49-35.22,14.78-54.22,6.65c-18.75-8.03-29.83-22.75-32.33-43.26c-0.78-6.37-0.9-12.86-0.9-19.29
		c-0.05-120.5-0.08-240.99,0.1-361.49c0.01-5.5-1.66-8.42-6.38-11.23C5.13,164.94-10.21,85.93,32.64,30.95
		c7.29-9.36,17.35-16.57,26.18-24.71c1.93-1.78,4.07-3.33,6.11-4.98c0.42,0,0.83,0,1.25,0c0.01,29.13,0.07,58.25-0.02,87.38
		c-0.01,3.42,0.72,5.64,4,7.49c16.66,9.39,33.08,19.19,49.77,28.51c2.01,1.12,5.71,1.15,7.71,0.04
		c16.71-9.3,33.25-18.89,49.67-28.68c1.85-1.11,3.71-4.03,3.73-6.12c0.2-29.54,0.07-59.08,0.02-88.62
		C181.49,1.25,181.9,1.25,182.32,1.25z M123.43,616.17c11.46,0,20.62-9.1,20.7-20.57c0.08-11.4-9.12-20.84-20.4-20.95
		c-11.44-0.11-21.26,9.65-21.15,21.01C102.69,607.02,112.01,616.18,123.43,616.17z"/>
	
		<linearGradient id="SVGID_00000178165855408726484240000011563883249744547755_" gradientUnits="userSpaceOnUse" x1="519.0918" y1="158.7735" x2="263.2471" y2="540.4434">
		<stop  offset="0" style="stop-color:#FFFFFF;stop-opacity:0.4"/>
		<stop  offset="0.0691" style="stop-color:#FFFFFF;stop-opacity:0.3435"/>
		<stop  offset="0.4892" style="stop-color:#FFFFFF;stop-opacity:0"/>
		<stop  offset="0.7527" style="stop-color:#FAFAFA;stop-opacity:0.1032"/>
		<stop  offset="1" style="stop-color:#EFEFEF;stop-opacity:0.2"/>
	</linearGradient>
	<path style="fill:url(#SVGID_00000178165855408726484240000011563883249744547755_);" d="M203.48,389.88c0-33.07,0-66.15,0-99.88
		c99.83,0,199.62,0,300.43,0c-2.42-9.82-4.59-18.81-6.85-27.78c-6.72-26.59-12.69-53.39-20.42-79.69
		c-8.59-29.26-33.41-47.51-63.96-48.83c-9.97-0.43-19.98-0.19-29.97-0.19c-39.34-0.02-78.67-0.01-118.01-0.01c-2.27,0-4.55,0-7.54,0
		c1.11-5.25,1.92-10.08,3.27-14.74c0.3-1.04,2.46-2.2,3.76-2.2c49.94,0.1,99.95-1.2,149.8,1.01c40.73,1.81,72.15,28.85,82.8,68.3
		c9.09,33.68,16.03,67.94,23.91,101.94c0.89,3.85,1.32,7.87,2.75,11.5c1.18,3.03,3.51,5.6,5.33,8.38c0.68-0.32,1.36-0.65,2.05-0.97
		c1.64-14.65,3.18-29.31,5.03-43.93c0.26-2.06,1.64-5.15,3.22-5.71c22.8-8.07,46.01-14.46,70.44-14.77
		c2.88-0.04,5.82,0.43,8.66,1.01c11.45,2.34,15.78,6.92,16.41,18.49c0.66,12.24,0.66,24.51,0.97,36.77
		c0.13,5.14-2.06,7.04-7.44,7.26c-27.03,1.1-54.04,2.63-81.05,4.04c-3.08,0.16-6.15,0.51-7.58,0.63c3.55,4.19,7.53,8.93,11.56,13.62
		c9.26,10.78,14.76,23.09,14.8,37.45c0.1,32.05,0.48,64.11-0.06,96.15c-0.48,28.17-16.86,45.99-40.86,57.72
		c-5,2.44-6.98,4.84-6.79,10.53c0.47,14.76-0.44,29.58,0.31,44.32c0.94,18.42-7.3,30.95-23.34,38.24
		c-28.31,12.86-56.09,12.16-82.2-6c-9.49-6.59-13.92-16.14-13.76-27.88c0.2-14.57,0.06-29.14,0.03-43.71c0-1.83-0.22-3.66-0.38-6.17
		c-65.11,0-129.91,0-195.07,0c-0.17-2.06-0.39-3.46-0.39-4.85c-0.03-24.98-0.04-49.95-0.03-74.93c0-1.44,0.26-2.88,0.4-4.33
		l-0.22,0.19c60.22,0,120.45,0,180.7,0c0-7.9,0-15.03,0-22.48c-3.17,0-5.85,0-8.53,0c-57.38-0.06-114.77-0.12-172.15-0.18l0.18,0.15
		c-0.05-2.12-0.09-4.24-0.14-6.36c60.82,0,121.64,0,182.54,0c0-7.91,0-15.01,0-22.4c-2.83,0-5.11,0-7.38,0
		c-39.08,0-78.16-0.03-117.23,0.01C242.13,389.67,222.8,389.8,203.48,389.88z M521.15,388.62c-36.02,0-71.44,0-107.02,0
		c0,16.97,0,33.49,0,50.34c35.81,0,71.22,0,107.02,0C521.15,422.08,521.15,405.57,521.15,388.62z"/>
	
		<linearGradient id="SVGID_00000078752993247250259590000003235512066211091620_" gradientUnits="userSpaceOnUse" x1="200.3292" y1="429.5785" x2="203.6948" y2="429.5785">
		<stop  offset="0" style="stop-color:#FFFFFF;stop-opacity:0.4"/>
		<stop  offset="0.0691" style="stop-color:#FFFFFF;stop-opacity:0.3435"/>
		<stop  offset="0.4892" style="stop-color:#FFFFFF;stop-opacity:0"/>
		<stop  offset="0.7527" style="stop-color:#FAFAFA;stop-opacity:0.1032"/>
		<stop  offset="1" style="stop-color:#EFEFEF;stop-opacity:0.2"/>
	</linearGradient>
	<path style="fill:url(#SVGID_00000078752993247250259590000003235512066211091620_);" d="M203.69,440.71
		c-1.1-0.78-3.11-1.52-3.15-2.36c-0.28-5.76-0.29-11.55,0-17.31c0.05-0.93,2.03-1.76,3.12-2.63c0,0-0.18-0.15-0.18-0.15
		c0,7.55,0,15.1-0.01,22.65L203.69,440.71z"/>
</g>
</svg>
