<?xml version="1.0" encoding="UTF-8"?>
<svg id="report" xmlns="http://www.w3.org/2000/svg" version="1.1" xmlns:xlink="http://www.w3.org/1999/xlink" viewBox="0 0 640.62 640.62">
  <defs>
    <style>
      .cls-1 {
        fill: #360061;
      }

      .cls-1, .cls-2, .cls-3, .cls-4, .cls-5, .cls-6, .cls-7 {
        stroke-width: 0px;
      }

      .cls-2 {
        fill: url(#linear-gradient);
      }

      .cls-3 {
        fill: url(#linear-gradient-5);
      }

      .cls-4 {
        fill: #5800b2;
      }

      .cls-5 {
        fill: url(#linear-gradient-2);
      }

      .cls-6 {
        fill: url(#linear-gradient-3);
      }

      .cls-7 {
        fill: url(#linear-gradient-4);
      }
    </style>
    <linearGradient id="linear-gradient" x1="144.51" y1="543.45" x2="576.04" y2="88.78" gradientUnits="userSpaceOnUse">
      <stop offset="0" stop-color="#fff" stop-opacity=".4"/>
      <stop offset=".07" stop-color="#fff" stop-opacity=".34"/>
      <stop offset=".49" stop-color="#fff" stop-opacity="0"/>
      <stop offset=".75" stop-color="#fafafa" stop-opacity=".1"/>
      <stop offset="1" stop-color="#efefef" stop-opacity=".2"/>
    </linearGradient>
    <linearGradient id="linear-gradient-2" x1="121.5" y1="521.62" x2="553.03" y2="66.94" xlink:href="#linear-gradient"/>
    <linearGradient id="linear-gradient-3" x1="98.74" y1="500.01" x2="530.27" y2="45.34" xlink:href="#linear-gradient"/>
    <linearGradient id="linear-gradient-4" x1="236.23" y1="630.5" x2="667.76" y2="175.82" xlink:href="#linear-gradient"/>
    <linearGradient id="linear-gradient-5" x1="-29.44" y1="378.36" x2="402.09" y2="-76.32" xlink:href="#linear-gradient"/>
  </defs>
  <g>
    <path class="cls-1" d="M123.84,145.53c-4.51-5.37-8.53-10.15-12.52-14.89-30.86,21.74-56.07,47.16-62.54,86.04-4.31,25.94-.47,51.3,5.94,76.46.83,3.24.11,6.88.11,10.33-.81.19-1.62.38-2.43.57-1.85-2.1-3.81-4.13-5.54-6.33-16.12-20.48-21.74-43.99-19.71-69.58,5.77-72.45,38.76-129.06,99.93-168.39,42.84-27.54,90.35-37.27,140.65-30.92,86.25,10.88,151.65,54.27,196.08,128.97,16.91,28.43,25.58,59.78,32.09,91.98,12.28,60.75,28.46,120.52,48.03,179.33,8.27,24.86,21.38,47.22,38.2,67.36.66.79,1.24,1.64,1.36,3.49-1.75-.7-3.52-1.34-5.23-2.11-29.51-13.33-52.91-33.72-69.33-61.6-23.06-39.14-45.6-78.57-68.37-117.88-5.26-9.09-10.1-11.57-16.12-8.27-5.81,3.19-6.51,8.33-2.34,17.57,14.71,32.61,29.18,65.33,44.22,97.79,22.53,48.62,55.44,89.01,97.92,121.65,1.46,1.12,2.84,2.33,5.52,4.54-26.38-5.75-50.46-13.3-74-22.64-30.25-12.01-59.03-26.85-86.15-44.85-2.69-1.79-5.2-4.24-7.01-6.92-34.76-51.5-57.49-108.02-70.17-168.73-3.98-19.04-8.5-37.97-12.8-56.95-.36-1.6-.91-3.17-1.49-5.15-6.37,1.42-12.42,2.76-19.13,4.26,14.55,67.12,27.15,134.36,61.01,195.14-65.81-54.22-109.55-123.94-142.36-201.94-6.82,3.26-12.59,6.01-18.66,8.91,18.63,39.33,36.74,78.42,61.56,113.94,43.9,62.84,99.03,113.32,165.61,151.31,1.96,1.12,4.01,2.44,5.4,4.16,28.1,34.86,64.08,58.46,105.51,74.43,10.11,3.9,20,8.35,29.99,12.55-.08.51-.16,1.03-.25,1.54-12.3-.95-24.64-1.54-36.9-2.9-52.7-5.83-103.04-20.15-150.36-44.11-105.27-53.31-179.55-135.05-221.44-245.39-18.92-49.85-35.59-100.55-53.45-150.81-1.29-3.64-.72-5.62,2.25-7.9,5.64-4.32,10.96-9.06,16.92-14.05ZM268.22,117.81c.09-5.83-3.99-9.58-11.12-10.22-13.33-1.2-22.54-9.31-25.26-22.31-1.29-6.14-2.55-12.28-3.72-18.44-1.07-5.61-4.11-9.31-10-9.39-5.9-.08-9.09,3.51-10.21,9.12-1.27,6.36-2.48,12.72-3.84,19.06-2.7,12.56-12.09,20.78-24.94,21.95-7.34.67-11.3,4.13-11.39,9.95-.08,5.87,3.94,9.57,11.12,10.22,13.33,1.2,22.51,9.27,25.26,22.3,1.3,6.14,2.57,12.28,3.73,18.44,1.06,5.62,4.11,9.31,9.99,9.4,5.89.09,9.09-3.51,10.22-9.12,1.07-5.33,2.13-10.66,3.27-15.98,3.57-16.71,10.31-22.88,27.37-25.11,5.67-.74,9.44-4.66,9.52-9.87Z"/>
    <path class="cls-4" d="M213.71,527.17c12.51-2.54,24.11-4.9,36.25-7.37-1.29-6.66-2.46-12.74-3.8-19.65-13.23,2.65-25.98,5.63-38.88,7.71-26.44,4.26-52.89,8.5-79.45,11.87-17.67,2.24-33.38-9.45-36.94-26.99-4.91-24.19-9.19-48.51-13.47-72.82-1.1-6.24-4.21-9.66-10.33-10.89-4.5-.9-8.91-2.26-13.37-3.39-14.92-3.76-20.71-16.07-13.86-29.93,11.23-22.69,22.48-45.37,34.04-67.89,2.88-5.61,3.32-10.62,1.51-16.73-7.34-24.71-11.37-49.82-5.77-75.53,2.87-13.21,8.54-25.18,17.72-36.64,1.41,3.88,2.55,6.93,3.64,9.99,17.49,49.26,33.3,99.19,52.81,147.64,45.17,112.17,123.35,194.32,231.97,247.4,5.05,2.47,7.71,5.28,8.17,11,.66,8.32,2.15,16.58,3.34,25.26h-160.11c0-15.74.57-31.57-.16-47.35-.73-15.82-6.09-30.64-13.32-45.7Z"/>
    <path class="cls-4" d="M509.4,114.01c-3.3-20.89-8.35-40.37-33.32-46.6,24.82-6.09,30.07-25.58,33.55-47.01,3.55,21.24,8.76,40.8,33.73,46.51q-23.96,11.54-33.95,47.11Z"/>
    <path class="cls-4" d="M579.82,315.18c-3.35-20.84-8.32-40.38-33.34-46.59,24.81-6.11,30.1-25.56,33.56-47.05,3.65,21.17,8.56,40.94,33.83,46.44q-24.25,11.88-34.05,47.19Z"/>
    <path class="cls-4" d="M217.94,105.03c6.26-.02,11.28,5.58,11.29,12.61.02,7.02-4.98,12.66-11.22,12.68-6.25.02-11.27-5.59-11.29-12.61-.02-7.02,4.97-12.66,11.22-12.68Z"/>
  </g>
  <g>
    <path class="cls-2" d="M123.84,145.53c-4.51-5.37-8.53-10.15-12.52-14.89-30.86,21.74-56.07,47.16-62.54,86.04-4.31,25.94-.47,51.3,5.94,76.46.83,3.24.11,6.88.11,10.33-.81.19-1.62.38-2.43.57-1.85-2.1-3.81-4.13-5.54-6.33-16.12-20.48-21.74-43.99-19.71-69.58,5.77-72.45,38.76-129.06,99.93-168.39,42.84-27.54,90.35-37.27,140.65-30.92,86.25,10.88,151.65,54.27,196.08,128.97,16.91,28.43,25.58,59.78,32.09,91.98,12.28,60.75,28.46,120.52,48.03,179.33,8.27,24.86,21.38,47.22,38.2,67.36.66.79,1.24,1.64,1.36,3.49-1.75-.7-3.52-1.34-5.23-2.11-29.51-13.33-52.91-33.72-69.33-61.6-23.06-39.14-45.6-78.57-68.37-117.88-5.26-9.09-10.1-11.57-16.12-8.27-5.81,3.19-6.51,8.33-2.34,17.57,14.71,32.61,29.18,65.33,44.22,97.79,22.53,48.62,55.44,89.01,97.92,121.65,1.46,1.12,2.84,2.33,5.52,4.54-26.38-5.75-50.46-13.3-74-22.64-30.25-12.01-59.03-26.85-86.15-44.85-2.69-1.79-5.2-4.24-7.01-6.92-34.76-51.5-57.49-108.02-70.17-168.73-3.98-19.04-8.5-37.97-12.8-56.95-.36-1.6-.91-3.17-1.49-5.15-6.37,1.42-12.42,2.76-19.13,4.26,14.55,67.12,27.15,134.36,61.01,195.14-65.81-54.22-109.55-123.94-142.36-201.94-6.82,3.26-12.59,6.01-18.66,8.91,18.63,39.33,36.74,78.42,61.56,113.94,43.9,62.84,99.03,113.32,165.61,151.31,1.96,1.12,4.01,2.44,5.4,4.16,28.1,34.86,64.08,58.46,105.51,74.43,10.11,3.9,20,8.35,29.99,12.55-.08.51-.16,1.03-.25,1.54-12.3-.95-24.64-1.54-36.9-2.9-52.7-5.83-103.04-20.15-150.36-44.11-105.27-53.31-179.55-135.05-221.44-245.39-18.92-49.85-35.59-100.55-53.45-150.81-1.29-3.64-.72-5.62,2.25-7.9,5.64-4.32,10.96-9.06,16.92-14.05ZM268.22,117.81c.09-5.83-3.99-9.58-11.12-10.22-13.33-1.2-22.54-9.31-25.26-22.31-1.29-6.14-2.55-12.28-3.72-18.44-1.07-5.61-4.11-9.31-10-9.39-5.9-.08-9.09,3.51-10.21,9.12-1.27,6.36-2.48,12.72-3.84,19.06-2.7,12.56-12.09,20.78-24.94,21.95-7.34.67-11.3,4.13-11.39,9.95-.08,5.87,3.94,9.57,11.12,10.22,13.33,1.2,22.51,9.27,25.26,22.3,1.3,6.14,2.57,12.28,3.73,18.44,1.06,5.62,4.11,9.31,9.99,9.4,5.89.09,9.09-3.51,10.22-9.12,1.07-5.33,2.13-10.66,3.27-15.98,3.57-16.71,10.31-22.88,27.37-25.11,5.67-.74,9.44-4.66,9.52-9.87Z"/>
    <path class="cls-5" d="M213.71,527.17c12.51-2.54,24.11-4.9,36.25-7.37-1.29-6.66-2.46-12.74-3.8-19.65-13.23,2.65-25.98,5.63-38.88,7.71-26.44,4.26-52.89,8.5-79.45,11.87-17.67,2.24-33.38-9.45-36.94-26.99-4.91-24.19-9.19-48.51-13.47-72.82-1.1-6.24-4.21-9.66-10.33-10.89-4.5-.9-8.91-2.26-13.37-3.39-14.92-3.76-20.71-16.07-13.86-29.93,11.23-22.69,22.48-45.37,34.04-67.89,2.88-5.61,3.32-10.62,1.51-16.73-7.34-24.71-11.37-49.82-5.77-75.53,2.87-13.21,8.54-25.18,17.72-36.64,1.41,3.88,2.55,6.93,3.64,9.99,17.49,49.26,33.3,99.19,52.81,147.64,45.17,112.17,123.35,194.32,231.97,247.4,5.05,2.47,7.71,5.28,8.17,11,.66,8.32,2.15,16.58,3.34,25.26h-160.11c0-15.74.57-31.57-.16-47.35-.73-15.82-6.09-30.64-13.32-45.7Z"/>
    <path class="cls-6" d="M509.4,114.01c-3.3-20.89-8.35-40.37-33.32-46.6,24.82-6.09,30.07-25.58,33.55-47.01,3.55,21.24,8.76,40.8,33.73,46.51q-23.96,11.54-33.95,47.11Z"/>
    <path class="cls-7" d="M579.82,315.18c-3.35-20.84-8.32-40.38-33.34-46.59,24.81-6.11,30.1-25.56,33.56-47.05,3.65,21.17,8.56,40.94,33.83,46.44q-24.25,11.88-34.05,47.19Z"/>
    <path class="cls-3" d="M217.94,105.03c6.26-.02,11.28,5.58,11.29,12.61.02,7.02-4.98,12.66-11.22,12.68-6.25.02-11.27-5.59-11.29-12.61-.02-7.02,4.97-12.66,11.22-12.68Z"/>
  </g>
</svg>