<?xml version="1.0" encoding="utf-8"?>
<!-- Generator: Adobe Illustrator 27.0.1, SVG Export Plug-In . SVG Version: 6.00 Build 0)  -->
<svg version="1.1" id="Layer_1" xmlns="http://www.w3.org/2000/svg" xmlns:xlink="http://www.w3.org/1999/xlink" x="0px" y="0px"
	 viewBox="0 0 1230 5076" style="enable-background:new 0 0 1230 5076;" xml:space="preserve">
<style type="text/css">
	.st0{fill:none;stroke:#BAA6E2;stroke-width:6;}
	.st1{fill:#FFFFFF;}
</style>
<g id="Noodle_" transform="translate(-105 -847)">
	<g id="Group_4791">
		<line id="Line_110" class="st0" x1="324" y1="3676" x2="215" y2="3676"/>
		<path id="Path_4043" class="st0" d="M288,3712v-30.7"/>
		<g id="Group_4790">
			<g id="Group_4457" transform="translate(237 17)">
				<path id="Path_4035" class="st0" d="M952,1353c0,19.9-16.1,36-36,36"/>
				<line id="Line_109" class="st0" x1="916" y1="1389" x2="530" y2="1389"/>
				<line id="Line_110-2" class="st0" x1="952" y1="1354" x2="952" y2="924"/>
			</g>
			<g id="Group_4481" transform="translate(767 867)">
				<path id="Path_4035-2" class="st0" d="M422,36c0-19.9-16.1-36-36-36"/>
				<line id="Line_109-2" class="st0" x1="386" y1="0" x2="-32" y2="0"/>
				<line id="Line_110-3" class="st0" x1="422" y1="35" x2="422" y2="80"/>
			</g>
			<g id="Group_4461" transform="translate(272 1025)">
				<path id="Path_4035-3" class="st0" d="M952,1353c0,19.9-16.1,36-36,36"/>
				<line id="Line_109-3" class="st0" x1="916" y1="1389" x2="530" y2="1389"/>
				<line id="Line_110-4" class="st0" x1="952" y1="1354" x2="952" y2="1300"/>
			</g>
			<g id="Group_4465" transform="translate(308 1493)">
				<path id="Path_4035-4" class="st0" d="M952,1353c0,19.9-16.1,36-36,36"/>
				<line id="Line_109-4" class="st0" x1="916" y1="1389" x2="530" y2="1389"/>
				<line id="Line_110-5" class="st0" x1="952" y1="1354" x2="952" y2="1245"/>
			</g>
			<g id="Group_4469" transform="translate(1060 4559) rotate(180)">
				<path id="Path_4035-5" class="st0" d="M952,1353c0,19.9-16.1,36-36,36"/>
				<line id="Line_109-5" class="st0" x1="916" y1="1389" x2="530" y2="1389"/>
				<line id="Line_110-6" class="st0" x1="952" y1="1354" x2="952" y2="1245"/>
			</g>
			<g id="Group_4473" transform="translate(720 4274) rotate(-90)">
				<path id="Path_4035-6" class="st0" d="M597,36c0-19.9-16.1-36-36-36"/>
				<line id="Line_109-6" class="st0" x1="561" y1="0" x2="-508" y2="0"/>
				<line id="Line_110-7" class="st0" x1="597" y1="35" x2="597" y2="144"/>
			</g>
			<g id="Group_4764" transform="translate(379 2288)">
				<path id="Path_4035-7" class="st0" d="M952,1353c0,19.9-16.1,36-36,36"/>
				<line id="Line_109-7" class="st0" x1="916" y1="1389" x2="470" y2="1389"/>
				<line id="Line_110-8" class="st0" x1="952" y1="1354" x2="952" y2="1245"/>
			</g>
			<g id="Group_4763" transform="translate(734 3420)">
				<path id="Path_4035-8" class="st0" d="M597,36c0-19.9-16.1-36-36-36"/>
				<line id="Line_109-8" class="st0" x1="561" y1="0" x2="166" y2="0"/>
				<line id="Line_110-9" class="st0" x1="597" y1="35" x2="597" y2="144"/>
			</g>
			<g id="Group_4762" transform="translate(674 3718) rotate(-90)">
				<path id="Path_4035-10" class="st0" d="M298,36c0-19.9-16.1-36-36-36h-17.1H6"/>
				<line id="Line_110-11" class="st0" x1="298" y1="35" x2="298" y2="262"/>
			</g>
			<g id="Group_4478" transform="translate(720 4603) rotate(90)">
				<path id="Path_4035-11" class="st0" d="M422,36c0-19.9-16.1-36-36-36"/>
				<line id="Line_109-11" class="st0" x1="386" y1="0" x2="0" y2="0"/>
				<line id="Line_110-12" class="st0" x1="422" y1="35" x2="422" y2="144"/>
			</g>
			<g id="Group_4470" transform="translate(530 3676) rotate(180)">
				<path id="Path_4035-12" class="st0" d="M422,36c0-19.9-16.1-36-36-36"/>
				<line id="Line_109-12" class="st0" x1="386" y1="0" x2="242" y2="0"/>
				<line id="Line_110-13" class="st0" x1="422" y1="35" x2="422" y2="378"/>
			</g>
			<g id="Group_4471" transform="translate(710 3748) rotate(180)">
				<path id="Path_4035-13" class="st0" d="M422,36c0-19.9-16.1-36-36-36"/>
				<path id="Line_109-13" class="st0" d="M386,0H219.8H180H91.5H72C52.1,0,36,16.1,36,36"/>
				<line id="Line_110-14" class="st0" x1="422" y1="35" x2="422" y2="108"/>
			</g>
			<path id="Path_4035-14" class="st0" d="M324,3676c19.9,0,36-16.1,36-36"/>
			<path id="Path_4038" class="st0" d="M324,3604c19.9,0,36,16.1,36,36"/>
			<path id="Path_4039" class="st0" d="M324,3604c-19.9,0-36,16.1-36,36"/>
			<g id="Group_4464" transform="translate(838 2666)">
				<line id="Line_110-15" class="st0" x1="422" y1="35" x2="422" y2="89"/>
			</g>
			<g id="Group_4459" transform="translate(2073 1030) rotate(90)">
				<path id="Path_4035-16" class="st0" d="M952,1353c0,19.9-16.1,36-36,36"/>
				<line id="Line_109-15" class="st0" x1="916" y1="1389" x2="844" y2="1389"/>
				<path id="Path_4036" class="st0" d="M952,1354V957"/>
			</g>
			<g id="Group_4460" transform="translate(1116 1982)">
				<path id="Path_4035-17" class="st0" d="M108,36c0-19.9-16.1-36-36-36"/>
				<line id="Line_109-16" class="st0" x1="72" y1="0" x2="0" y2="0"/>
				<path id="Path_4037" class="st0" d="M108,35v325"/>
			</g>
			<g id="Group_4462" transform="translate(720 2414)">
				<path id="Path_4035-18" class="st0" d="M0,36C0,16.1,16.1,0,36,0"/>
				<line id="Line_109-17" class="st0" x1="36" y1="0" x2="108" y2="0"/>
				<path id="Path_4037-2" class="st0" d="M0,35v109"/>
			</g>
			<g id="Group_4472" transform="translate(720 2882)">
				<path id="Path_4035-19" class="st0" d="M0,36C0,16.1,16.1,0,36,0"/>
				<line id="Line_109-18" class="st0" x1="36" y1="0" x2="129" y2="0"/>
				<path id="Path_4037-3" class="st0" d="M0,35v109"/>
			</g>
			<g id="Group_4468" transform="translate(576 3026)">
				<path id="Path_4035-20" class="st0" d="M144,108c0,19.9-16.1,36-36,36"/>
				<line id="Line_109-19" class="st0" x1="108" y1="144" x2="-72" y2="144"/>
				<path id="Path_4037-4" class="st0" d="M144,109V0"/>
			</g>
			<g id="Group_4463" transform="translate(720 2666) rotate(-90)">
				<path id="Path_4035-21" class="st0" d="M0,36C0,16.1,16.1,0,36,0"/>
				<line id="Line_109-20" class="st0" x1="36" y1="0" x2="108" y2="0"/>
				<path id="Path_4037-5" class="st0" d="M0,35v67.6v133.5v244.1V504c0,19.9-16.1,36-36,36"/>
			</g>
			<g id="Group_4458" transform="translate(1636 2795) rotate(180)">
				<path id="Path_4035-22" class="st0" d="M952,1353c0,19.9-16.1,36-36,36"/>
				<line id="Line_109-21" class="st0" x1="916" y1="1389" x2="844" y2="1389"/>
				<line id="Line_110-16" class="st0" x1="952" y1="1354" x2="952" y2="899"/>
			</g>
			<g id="Group_4480" transform="translate(653 5025) rotate(180)">
				<path id="Path_4035-23" class="st0" d="M238,36c0-19.9-16.1-36-36-36"/>
				<path id="Path_4051" class="st0" d="M202,0H58"/>
				<line id="Line_110-17" class="st0" x1="238" y1="35" x2="238" y2="66"/>
			</g>
			<path id="Path_4051-2" class="st0" d="M235,5168h1061"/>
			<path id="Path_4060" class="st0" d="M1332,5204v612"/>
			<path id="Path_4045" class="st0" d="M379,4923c19.9,0,36,16.1,36,36"/>
			<path id="Path_4054" class="st0" d="M235,4923c19.9,0,36,16.1,36,36"/>
			<path id="Path_4052" class="st0" d="M307,5067c19.9,0,36-16.1,36-36"/>
			<path id="Path_4046" class="st0" d="M379,4923c-19.9,0-36,16.1-36,36"/>
			<path id="Path_4055" class="st0" d="M235,4923c-19.9,0-36,16.1-36,36"/>
			<path id="Path_4058" class="st0" d="M235,5168c-19.9,0-36-16.1-36-36"/>
			<path id="Path_4059" class="st0" d="M1296,5168c19.9,0,36,16.1,36,36"/>
			<path id="Path_4062" class="st0" d="M1296,5852c19.9,0,36-16.1,36-36"/>
			<path id="Path_4063" class="st0" d="M720,5888c0-19.9,16.1-36,36-36l13.9-0.1l526.1,0.1"/>
			<path id="Path_4053" class="st0" d="M307,5067c-19.9,0-36-16.1-36-36"/>
			<path id="Path_4047" class="st0" d="M343,5031v-72.7"/>
			<path id="Path_4056" class="st0" d="M199,5139v-180.7"/>
			<path id="Path_4057" class="st0" d="M271,5031.7V4959"/>
			<g id="Component_400_124" transform="translate(700 847)">
				<g id="Ellipse_52">
					<circle class="st1" cx="20" cy="20" r="20"/>
					<circle class="st0" cx="20" cy="20" r="17"/>
				</g>
			</g>
			<g id="Component_400_125" transform="translate(664 1520)">
				<g id="Ellipse_52-2">
					<circle class="st1" cx="20" cy="20" r="20"/>
					<circle class="st0" cx="20" cy="20" r="17"/>
				</g>
			</g>
			<g id="Component_400_126" transform="translate(1204 2146)">
				<g id="Ellipse_52-3">
					<circle class="st1" cx="20" cy="20" r="20"/>
					<circle class="st0" cx="20" cy="20" r="17"/>
				</g>
			</g>
			<g id="Component_400_127" transform="translate(700 2466)">
				<g id="Ellipse_52-4">
					<circle class="st1" cx="20" cy="20" r="20"/>
					<circle class="st0" cx="20" cy="20" r="17"/>
				</g>
			</g>
			<g id="Component_400_128" transform="translate(1240 2711)">
				<g id="Ellipse_52-5">
					<circle class="st1" cx="20" cy="20" r="20"/>
					<circle class="st0" cx="20" cy="20" r="17"/>
				</g>
			</g>
			<g id="Component_400_129" transform="translate(700 2947)">
				<g id="Ellipse_52-6">
					<circle class="st1" cx="20" cy="20" r="20"/>
					<circle class="st0" cx="20" cy="20" r="17"/>
				</g>
			</g>
			<g id="Component_400_130" transform="translate(340 3728)">
				<g id="Ellipse_52-7">
					<circle class="st1" cx="20" cy="20" r="20"/>
					<circle class="st0" cx="20" cy="20" r="17"/>
				</g>
			</g>
			<g id="Component_400_132" transform="translate(700 5883)">
				<g id="Ellipse_52-8">
					<circle class="st1" cx="20" cy="20" r="20"/>
					<circle class="st0" cx="20" cy="20" r="17"/>
				</g>
			</g>
		</g>
	</g>
	<g id="Component_400_131" transform="translate(700 5148)">
		<g id="Ellipse_52-9">
			<circle class="st1" cx="20" cy="20" r="20"/>
			<circle class="st0" cx="20" cy="20" r="17"/>
		</g>
	</g>
</g>
</svg>
