<?xml version="1.0" encoding="UTF-8"?>
<svg id="report" xmlns="http://www.w3.org/2000/svg" version="1.1" xmlns:xlink="http://www.w3.org/1999/xlink" viewBox="0 0 640.6 640.6">
  <defs>
    <style>
      .cls-1 {
        fill: url(#linear-gradient);
      }

      .cls-1, .cls-2, .cls-3, .cls-4, .cls-5, .cls-6, .cls-7, .cls-8, .cls-9, .cls-10, .cls-11, .cls-12, .cls-13 {
        stroke-width: 0px;
      }

      .cls-2 {
        fill: #000;
      }

      .cls-3 {
        fill: url(#linear-gradient-6);
      }

      .cls-4 {
        fill: url(#linear-gradient-5);
      }

      .cls-5 {
        fill: #0c831f;
      }

      .cls-6 {
        fill: url(#linear-gradient-2);
      }

      .cls-7 {
        fill: url(#linear-gradient-7);
      }

      .cls-8 {
        fill: url(#linear-gradient-3);
      }

      .cls-9 {
        fill: url(#linear-gradient-9);
      }

      .cls-10 {
        fill: url(#linear-gradient-8);
      }

      .cls-11 {
        fill: url(#linear-gradient-10);
      }

      .cls-12 {
        fill: #ffe141;
      }

      .cls-13 {
        fill: url(#linear-gradient-4);
      }
    </style>
    <linearGradient id="linear-gradient" x1="-15.3" y1="298.4" x2="631.9" y2="340.7" gradientUnits="userSpaceOnUse">
      <stop offset="0" stop-color="#fff" stop-opacity=".4"/>
      <stop offset="0" stop-color="#fff" stop-opacity=".3"/>
      <stop offset=".5" stop-color="#fff" stop-opacity="0"/>
      <stop offset=".8" stop-color="#fafafa" stop-opacity=".1"/>
      <stop offset="1" stop-color="#efefef" stop-opacity=".2"/>
    </linearGradient>
    <linearGradient id="linear-gradient-2" x1="-16.3" y1="313.2" x2="630.9" y2="355.5" xlink:href="#linear-gradient"/>
    <linearGradient id="linear-gradient-3" x1="-15.8" y1="305.6" x2="631.4" y2="347.9" xlink:href="#linear-gradient"/>
    <linearGradient id="linear-gradient-4" x1="-16.8" y1="320.6" x2="630.4" y2="362.8" xlink:href="#linear-gradient"/>
    <linearGradient id="linear-gradient-5" x1="-16.5" y1="315.7" x2="630.7" y2="357.9" xlink:href="#linear-gradient"/>
    <linearGradient id="linear-gradient-6" x1="-15" y1="293.1" x2="632.2" y2="335.4" xlink:href="#linear-gradient"/>
    <linearGradient id="linear-gradient-7" x1="-12" y1="247.8" x2="635.2" y2="290.1" xlink:href="#linear-gradient"/>
    <linearGradient id="linear-gradient-8" x1="-15.7" y1="303.5" x2="631.5" y2="345.8" xlink:href="#linear-gradient"/>
    <linearGradient id="linear-gradient-9" x1="-14.3" y1="282.8" x2="632.9" y2="325.1" xlink:href="#linear-gradient"/>
    <linearGradient id="linear-gradient-10" x1="-11" y1="231.1" x2="636.3" y2="273.3" xlink:href="#linear-gradient"/>
  </defs>
  <g>
    <rect class="cls-12" x="12.7" y="12.7" width="615.2" height="615.2" rx="130.1" ry="130.1"/>
    <path class="cls-2" d="M123.5,284.1c8.9,0,16.8,2.2,23.8,6.7,7.1,4.4,12.6,10.6,16.6,18.7,3.9,7.8,5.8,16.9,5.8,27.4s-1.9,19.3-5.8,27.3c-3.9,8-9.3,14.3-16.4,18.8-7.1,4.6-15.1,6.9-24,6.9s-12.6-1.3-18.3-4c-5.7-2.7-10.6-6.4-14.7-11.2v12.9h-33.2v-136.5h33.2v48.4c4.1-4.8,9-8.5,14.7-11.2,5.7-2.7,11.8-4,18.3-4ZM113.6,362.2c4.7,0,8.9-1.1,12.6-3.2,3.7-2.2,6.6-5.2,8.7-9.1,2.1-3.8,3.1-8.2,3.1-13.1s-1-9.1-3.1-13c-2.1-3.9-5-6.9-8.7-9.1-3.7-2.2-7.9-3.2-12.6-3.2s-8.4,1.1-11.9,3.2c-3.5,2.1-6.2,5.1-8.2,8.9-2,3.9-3,8.3-3,13.2s1,9.3,3,13.2c2,3.8,4.7,6.8,8.2,9,3.5,2.2,7.5,3.2,11.9,3.2Z"/>
    <path class="cls-2" d="M174.3,387.4v-136.5h33.2v136.5h-33.2Z"/>
    <path class="cls-2" d="M216.9,387.4v-100.9h33v100.9h-33Z"/>
    <path class="cls-2" d="M321.6,284.1c7.1,0,13.4,1.7,19.1,5,5.7,3.2,10.1,7.8,13.3,13.7,3.1,6,4.7,12.7,4.7,20.3v64.2h-31.7v-56.8c0-3.7-.7-7-2.2-9.8-1.4-2.9-3.4-5.2-6-6.8-2.5-1.6-5.5-2.4-9-2.4s-6.2.8-9,2.4c-2.7,1.5-4.9,3.6-6.4,6.3-1.6,2.5-2.4,5.5-2.4,9l-.2,58.1h-33v-100.9h33v11.5c3.1-4.3,7.3-7.7,12.5-10.1,5.2-2.5,10.9-3.7,17.2-3.7Z"/>
    <path class="cls-2" d="M431.6,330.6l37.5,56.8h-37.5l-21.9-35.7-10.1,11.7v24h-33.2v-136.5h33.2v75.4l31.8-39.8h37.5l-37.3,44.1Z"/>
    <path class="cls-2" d="M216.9,250.9h33.1v25.9h-33.1v-25.9Z"/>
    <path class="cls-5" d="M474.3,387.1v-100.9h33v100.9h-33Z"/>
    <path class="cls-5" d="M577,358.6l6.6,21.3c-3,2.9-6.8,5.2-11.3,7-4.5,1.8-8.9,2.7-13.3,2.7-6.2,0-11.8-1.4-16.7-4.1-4.9-2.8-8.7-6.7-11.4-11.6-2.7-4.8-4.1-10.4-4.1-16.7v-44.5h-13.3v-26.4h13.3v-35.2h31.7v35.2h20.9v26.4h-20.9v38.4c0,3.2.9,5.9,2.6,7.9,1.7,2,3.9,3,6.6,3s3.7-.3,5.3-.9c1.7-.6,3-1.4,4.1-2.5Z"/>
    <path class="cls-5" d="M474,250.9h33.1v25.9h-33.1v-25.9Z"/>
  </g>
  <g>
    <rect class="cls-1" x="12.7" y="12.7" width="615.2" height="615.2" rx="130.1" ry="130.1"/>
    <path class="cls-6" d="M123.5,284.1c8.9,0,16.8,2.2,23.8,6.7,7.1,4.4,12.6,10.6,16.6,18.7,3.9,7.8,5.8,16.9,5.8,27.4s-1.9,19.3-5.8,27.3c-3.9,8-9.3,14.3-16.4,18.8-7.1,4.6-15.1,6.9-24,6.9s-12.6-1.3-18.3-4c-5.7-2.7-10.6-6.4-14.7-11.2v12.9h-33.2v-136.5h33.2v48.4c4.1-4.8,9-8.5,14.7-11.2,5.7-2.7,11.8-4,18.3-4ZM113.6,362.2c4.7,0,8.9-1.1,12.6-3.2,3.7-2.2,6.6-5.2,8.7-9.1,2.1-3.8,3.1-8.2,3.1-13.1s-1-9.1-3.1-13c-2.1-3.9-5-6.9-8.7-9.1-3.7-2.2-7.9-3.2-12.6-3.2s-8.4,1.1-11.9,3.2c-3.5,2.1-6.2,5.1-8.2,8.9-2,3.9-3,8.3-3,13.2s1,9.3,3,13.2c2,3.8,4.7,6.8,8.2,9,3.5,2.2,7.5,3.2,11.9,3.2Z"/>
    <path class="cls-8" d="M174.3,387.4v-136.5h33.2v136.5h-33.2Z"/>
    <path class="cls-13" d="M216.9,387.4v-100.9h33v100.9h-33Z"/>
    <path class="cls-4" d="M321.6,284.1c7.1,0,13.4,1.7,19.1,5,5.7,3.2,10.1,7.8,13.3,13.7,3.1,6,4.7,12.7,4.7,20.3v64.2h-31.7v-56.8c0-3.7-.7-7-2.2-9.8-1.4-2.9-3.4-5.2-6-6.8-2.5-1.6-5.5-2.4-9-2.4s-6.2.8-9,2.4c-2.7,1.5-4.9,3.6-6.4,6.3-1.6,2.5-2.4,5.5-2.4,9l-.2,58.1h-33v-100.9h33v11.5c3.1-4.3,7.3-7.7,12.5-10.1,5.2-2.5,10.9-3.7,17.2-3.7Z"/>
    <path class="cls-3" d="M431.6,330.6l37.5,56.8h-37.5l-21.9-35.7-10.1,11.7v24h-33.2v-136.5h33.2v75.4l31.8-39.8h37.5l-37.3,44.1Z"/>
    <path class="cls-7" d="M216.9,250.9h33.1v25.9h-33.1v-25.9Z"/>
    <path class="cls-10" d="M474.3,387.1v-100.9h33v100.9h-33Z"/>
    <path class="cls-9" d="M577,358.6l6.6,21.3c-3,2.9-6.8,5.2-11.3,7-4.5,1.8-8.9,2.7-13.3,2.7-6.2,0-11.8-1.4-16.7-4.1-4.9-2.8-8.7-6.7-11.4-11.6-2.7-4.8-4.1-10.4-4.1-16.7v-44.5h-13.3v-26.4h13.3v-35.2h31.7v35.2h20.9v26.4h-20.9v38.4c0,3.2.9,5.9,2.6,7.9,1.7,2,3.9,3,6.6,3s3.7-.3,5.3-.9c1.7-.6,3-1.4,4.1-2.5Z"/>
    <path class="cls-11" d="M474,250.9h33.1v25.9h-33.1v-25.9Z"/>
  </g>
</svg>