<?xml version="1.0" encoding="utf-8"?>
<!-- Generator: Adobe Illustrator 26.2.1, SVG Export Plug-In . SVG Version: 6.00 Build 0)  -->
<svg version="1.1" id="report" xmlns="http://www.w3.org/2000/svg" xmlns:xlink="http://www.w3.org/1999/xlink" x="0px" y="0px"
	 viewBox="0 0 640.62 640.62" style="enable-background:new 0 0 640.62 640.62;" xml:space="preserve">
<style type="text/css">
	.st0{display:none;fill:url(#SVGID_1_);}
	.st1{display:none;fill:url(#SVGID_00000030452989281611699110000005138429962013167764_);}
	.st2{display:none;fill:url(#SVGID_00000004525788894660457230000011465682368973207455_);}
	.st3{fill:#5800B2;}
	.st4{fill:#360061;}
	.st5{fill:url(#SVGID_00000035523211004920853470000004232311377975154349_);}
	.st6{fill:url(#SVGID_00000096056851154215637510000018008630573429618085_);}
	.st7{fill:url(#SVGID_00000114056370981664045610000018298819658980690575_);}
	.st8{fill:url(#SVGID_00000100361771566080405480000015444133803421599902_);}
</style>
<linearGradient id="SVGID_1_" gradientUnits="userSpaceOnUse" x1="290.9483" y1="320.3009" x2="360.9372" y2="320.3009">
	<stop  offset="0" style="stop-color:#FFFFFF;stop-opacity:0.4"/>
	<stop  offset="0.0691" style="stop-color:#FFFFFF;stop-opacity:0.3435"/>
	<stop  offset="0.4892" style="stop-color:#FFFFFF;stop-opacity:0"/>
	<stop  offset="0.7527" style="stop-color:#FAFAFA;stop-opacity:0.1032"/>
	<stop  offset="1" style="stop-color:#EFEFEF;stop-opacity:0.2"/>
</linearGradient>
<path class="st0" d="M360.94,408.89c-23.09-16.59-45.06-32.27-66.81-48.25c-1.83-1.34-2.98-4.76-3.01-7.23
	c-0.23-22.1-0.21-44.2-0.02-66.3c0.02-2.29,0.86-5.51,2.5-6.71c21.96-16.13,44.13-31.97,67.35-48.68
	C360.94,291.13,360.94,349.28,360.94,408.89z"/>
<linearGradient id="SVGID_00000014627186005699523790000001677324774440795832_" gradientUnits="userSpaceOnUse" x1="234.72" y1="320.2812" x2="275.4071" y2="320.2812">
	<stop  offset="0" style="stop-color:#FFFFFF;stop-opacity:0.4"/>
	<stop  offset="0.0691" style="stop-color:#FFFFFF;stop-opacity:0.3435"/>
	<stop  offset="0.4892" style="stop-color:#FFFFFF;stop-opacity:0"/>
	<stop  offset="0.7527" style="stop-color:#FAFAFA;stop-opacity:0.1032"/>
	<stop  offset="1" style="stop-color:#EFEFEF;stop-opacity:0.2"/>
</linearGradient>
<path style="display:none;fill:url(#SVGID_00000014627186005699523790000001677324774440795832_);" d="M275.41,285.55
	c0,23.61,0,46.09,0,69.35c-11.46,0-22.58,0.48-33.59-0.36c-2.51-0.19-6.61-4.84-6.7-7.55c-0.6-17.88-0.4-35.78-0.22-53.68
	c0.05-4.85,2.99-7.68,7.96-7.73C253.46,285.48,264.05,285.55,275.41,285.55z"/>
<linearGradient id="SVGID_00000150809788052899557390000017640926925455041193_" gradientUnits="userSpaceOnUse" x1="377.0954" y1="320.1778" x2="405.9691" y2="320.1778">
	<stop  offset="0" style="stop-color:#FFFFFF;stop-opacity:0.4"/>
	<stop  offset="0.0691" style="stop-color:#FFFFFF;stop-opacity:0.3435"/>
	<stop  offset="0.4892" style="stop-color:#FFFFFF;stop-opacity:0"/>
	<stop  offset="0.7527" style="stop-color:#FAFAFA;stop-opacity:0.1032"/>
	<stop  offset="1" style="stop-color:#EFEFEF;stop-opacity:0.2"/>
</linearGradient>
<path style="display:none;fill:url(#SVGID_00000150809788052899557390000017640926925455041193_);" d="M377.1,355.13
	c0-23.33,0-46.62,0.01-69.9c15.57,1.63,28.5,17.01,28.86,34.31C406.32,336.88,393.67,352.67,377.1,355.13z"/>
<g>
	<path class="st3" d="M641.87,77.42c-3.47,4.56-6.53,9.52-10.49,13.6c-13.14,13.54-26.6,26.77-39.65,39.83
		c-26.59-26.59-52.87-52.87-79.04-79.04c15.01-15.21,30.25-30.77,45.68-46.14c1.96-1.96,4.87-2.97,7.33-4.43c2.91,0,5.83,0,8.74,0
		c4.42,3.28,9.28,6.1,13.19,9.91c14.97,14.58,29.75,29.36,44.34,44.34c3.81,3.91,6.63,8.77,9.91,13.19
		C641.87,71.6,641.87,74.51,641.87,77.42z"/>
	<path class="st4" d="M359.24,152.35c-2.56,2.7-4.05,4.35-5.62,5.92c-16.47,16.49-33.26,32.69-49.3,49.59
		c-6.49,6.84-12.38,14.68-16.79,22.99c-17.93,33.78-35.18,67.91-52.68,101.91c-8.05,15.64-9.68,26.13-6.61,44.07
		c-2.22,0.1-4.36,0.27-6.5,0.27c-28.93,0.02-57.86,0.02-86.79,0.01c-7.67,0-13.78,2.88-17.6,9.72c-3.56,6.37-3.31,12.85,0.54,18.95
		c4.01,6.35,10.12,8.83,17.53,8.81c27.68-0.07,55.36-0.03,83.04-0.03c12.28,0,24.56-0.2,36.84,0.08c6.6,0.15,13.23,0.82,19.76,1.84
		c12.22,1.9,23.7-0.39,34.46-5.93c37.14-19.12,74.24-38.33,111.17-57.86c5.59-2.95,10.57-7.39,15.14-11.86
		c16.96-16.59,33.62-33.48,50.41-50.25c1.54-1.54,3.19-2.97,5.56-5.16c0.11,2.23,0.21,3.39,0.21,4.56
		c0.01,59.73,0.13,119.47-0.05,179.2c-0.08,27.51-16,48.45-42.19,55.65c-5.92,1.63-12.33,2.03-18.51,2.04
		c-69.31,0.14-138.61,0.12-207.92,0.01c-4.04-0.01-6.92,1.11-9.81,4.01c-33.76,33.94-67.66,67.73-101.49,101.6
		c-5.38,5.39-11.3,9.31-19.36,7.62c-9.75-2.04-15.21-9.38-15.24-20.62c-0.07-28.31-0.02-56.61-0.02-84.92c0-2.26,0-4.52,0-7.62
		c-5.69,0-11.01,0.04-16.34-0.01C26.73,526.7,2.6,502.68,2.53,468.29C2.41,408.56,2.5,348.82,2.5,289.09
		c0-26.22-0.13-52.45,0.04-78.67c0.17-27.63,15.76-48.44,41.93-55.87c5.13-1.46,10.65-2.1,16-2.11
		c98.03-0.12,196.06-0.09,294.08-0.09C355.57,152.35,356.59,152.35,359.24,152.35z"/>
	
		<linearGradient id="SVGID_00000041977465047531941400000007334820783376717455_" gradientUnits="userSpaceOnUse" x1="2.4502" y1="396.4408" x2="492.0562" y2="396.4408">
		<stop  offset="0" style="stop-color:#FFFFFF;stop-opacity:0.4"/>
		<stop  offset="0.0691" style="stop-color:#FFFFFF;stop-opacity:0.3435"/>
		<stop  offset="0.4892" style="stop-color:#FFFFFF;stop-opacity:0"/>
		<stop  offset="0.7527" style="stop-color:#FAFAFA;stop-opacity:0.1032"/>
		<stop  offset="1" style="stop-color:#EFEFEF;stop-opacity:0.2"/>
	</linearGradient>
	<path style="fill:url(#SVGID_00000041977465047531941400000007334820783376717455_);" d="M359.24,152.35
		c-2.56,2.7-4.05,4.35-5.62,5.92c-16.47,16.49-33.26,32.69-49.3,49.59c-6.49,6.84-12.38,14.68-16.79,22.99
		c-17.93,33.78-35.18,67.91-52.68,101.91c-8.05,15.64-9.68,26.13-6.61,44.07c-2.22,0.1-4.36,0.27-6.5,0.27
		c-28.93,0.02-57.86,0.02-86.79,0.01c-7.67,0-13.78,2.88-17.6,9.72c-3.56,6.37-3.31,12.85,0.54,18.95
		c4.01,6.35,10.12,8.83,17.53,8.81c27.68-0.07,55.36-0.03,83.04-0.03c12.28,0,24.56-0.2,36.84,0.08c6.6,0.15,13.23,0.82,19.76,1.84
		c12.22,1.9,23.7-0.39,34.46-5.93c37.14-19.12,74.24-38.33,111.17-57.86c5.59-2.95,10.57-7.39,15.14-11.86
		c16.96-16.59,33.62-33.48,50.41-50.25c1.54-1.54,3.19-2.97,5.56-5.16c0.11,2.23,0.21,3.39,0.21,4.56
		c0.01,59.73,0.13,119.47-0.05,179.2c-0.08,27.51-16,48.45-42.19,55.65c-5.92,1.63-12.33,2.03-18.51,2.04
		c-69.31,0.14-138.61,0.12-207.92,0.01c-4.04-0.01-6.92,1.11-9.81,4.01c-33.76,33.94-67.66,67.73-101.49,101.6
		c-5.38,5.39-11.3,9.31-19.36,7.62c-9.75-2.04-15.21-9.38-15.24-20.62c-0.07-28.31-0.02-56.61-0.02-84.92c0-2.26,0-4.52,0-7.62
		c-5.69,0-11.01,0.04-16.34-0.01C26.73,526.7,2.6,502.68,2.53,468.29C2.41,408.56,2.5,348.82,2.5,289.09
		c0-26.22-0.13-52.45,0.04-78.67c0.17-27.63,15.76-48.44,41.93-55.87c5.13-1.46,10.65-2.1,16-2.11
		c98.03-0.12,196.06-0.09,294.08-0.09C355.57,152.35,356.59,152.35,359.24,152.35z"/>
	<path class="st3" d="M415.05,304.84c-24.79-24.78-50.95-50.93-78.03-78c49.85-48.58,99.85-97.31,149.53-145.74
		c24.51,24.51,50.79,50.79,77.97,77.97C515,207.36,465.04,256.08,415.05,304.84z"/>
	<path class="st3" d="M314.8,259.95c23.16,23.16,46.33,46.33,69.69,69.69c-5.97,3.12-12.38,6.49-18.81,9.82
		c-24.17,12.51-48.3,25.11-72.55,37.47c-13.84,7.05-28.85-1.64-28.33-16.28c0.1-2.82,0.84-5.84,2.13-8.35
		c15.62-30.51,31.39-60.95,47.14-91.4C314.35,260.35,314.82,259.91,314.8,259.95z"/>
	
		<linearGradient id="SVGID_00000167359627734982584040000016330744469157858487_" gradientUnits="userSpaceOnUse" x1="512.6872" y1="66.0521" x2="641.8701" y2="66.0521">
		<stop  offset="0" style="stop-color:#FFFFFF;stop-opacity:0.4"/>
		<stop  offset="0.0691" style="stop-color:#FFFFFF;stop-opacity:0.3435"/>
		<stop  offset="0.4892" style="stop-color:#FFFFFF;stop-opacity:0"/>
		<stop  offset="0.7527" style="stop-color:#FAFAFA;stop-opacity:0.1032"/>
		<stop  offset="1" style="stop-color:#EFEFEF;stop-opacity:0.2"/>
	</linearGradient>
	<path style="fill:url(#SVGID_00000167359627734982584040000016330744469157858487_);" d="M641.87,77.42
		c-3.47,4.56-6.53,9.52-10.49,13.6c-13.14,13.54-26.6,26.77-39.65,39.83c-26.59-26.59-52.87-52.87-79.04-79.04
		c15.01-15.21,30.25-30.77,45.68-46.14c1.96-1.96,4.87-2.97,7.33-4.43c2.91,0,5.83,0,8.74,0c4.42,3.28,9.28,6.1,13.19,9.91
		c14.97,14.58,29.75,29.36,44.34,44.34c3.81,3.91,6.63,8.77,9.91,13.19C641.87,71.6,641.87,74.51,641.87,77.42z"/>
	
		<linearGradient id="SVGID_00000122717562687056617790000009551007998619297666_" gradientUnits="userSpaceOnUse" x1="337.015" y1="192.9667" x2="564.5197" y2="192.9667">
		<stop  offset="0" style="stop-color:#FFFFFF;stop-opacity:0.4"/>
		<stop  offset="0.0691" style="stop-color:#FFFFFF;stop-opacity:0.3435"/>
		<stop  offset="0.4892" style="stop-color:#FFFFFF;stop-opacity:0"/>
		<stop  offset="0.7527" style="stop-color:#FAFAFA;stop-opacity:0.1032"/>
		<stop  offset="1" style="stop-color:#EFEFEF;stop-opacity:0.2"/>
	</linearGradient>
	<path style="fill:url(#SVGID_00000122717562687056617790000009551007998619297666_);" d="M415.05,304.84
		c-24.79-24.78-50.95-50.93-78.03-78c49.85-48.58,99.85-97.31,149.53-145.74c24.51,24.51,50.79,50.79,77.97,77.97
		C515,207.36,465.04,256.08,415.05,304.84z"/>
	
		<linearGradient id="SVGID_00000137835359771594982570000005942521395153602194_" gradientUnits="userSpaceOnUse" x1="264.7888" y1="319.681" x2="384.4905" y2="319.681">
		<stop  offset="0" style="stop-color:#FFFFFF;stop-opacity:0.4"/>
		<stop  offset="0.0691" style="stop-color:#FFFFFF;stop-opacity:0.3435"/>
		<stop  offset="0.4892" style="stop-color:#FFFFFF;stop-opacity:0"/>
		<stop  offset="0.7527" style="stop-color:#FAFAFA;stop-opacity:0.1032"/>
		<stop  offset="1" style="stop-color:#EFEFEF;stop-opacity:0.2"/>
	</linearGradient>
	<path style="fill:url(#SVGID_00000137835359771594982570000005942521395153602194_);" d="M314.8,259.95
		c23.16,23.16,46.33,46.33,69.69,69.69c-5.97,3.12-12.38,6.49-18.81,9.82c-24.17,12.51-48.3,25.11-72.55,37.47
		c-13.84,7.05-28.85-1.64-28.33-16.28c0.1-2.82,0.84-5.84,2.13-8.35c15.62-30.51,31.39-60.95,47.14-91.4
		C314.35,260.35,314.82,259.91,314.8,259.95z"/>
</g>
</svg>
