<?xml version="1.0" encoding="utf-8"?>
<!-- Generator: Adobe Illustrator 27.3.1, SVG Export Plug-In . SVG Version: 6.00 Build 0)  -->
<svg version="1.1" id="report" xmlns="http://www.w3.org/2000/svg" xmlns:xlink="http://www.w3.org/1999/xlink" x="0px" y="0px"
	 viewBox="0 0 640.62 640.62" style="enable-background:new 0 0 640.62 640.62;" xml:space="preserve">
<style type="text/css">
	.st0{display:none;fill:url(#SVGID_1_);}
	.st1{display:none;fill:url(#SVGID_00000098928033963625659990000017929283671263643265_);}
	.st2{display:none;fill:url(#SVGID_00000017485763329053286710000012903259848991728063_);}
	.st3{fill-rule:evenodd;clip-rule:evenodd;fill:#0C3B7C;}
	.st4{fill:#FFFFFF;}
	.st5{fill:#00BAFC;}
</style>
<linearGradient id="SVGID_1_" gradientUnits="userSpaceOnUse" x1="290.9525" y1="321.695" x2="360.95" y2="321.695" gradientTransform="matrix(1 0 0 -1 0 642)">
	<stop  offset="0" style="stop-color:#FFFFFF;stop-opacity:0.4"/>
	<stop  offset="0.0691" style="stop-color:#FFFFFF;stop-opacity:0.3435"/>
	<stop  offset="0.4892" style="stop-color:#FFFFFF;stop-opacity:0"/>
	<stop  offset="0.7527" style="stop-color:#FAFAFA;stop-opacity:0.1032"/>
	<stop  offset="1" style="stop-color:#EFEFEF;stop-opacity:0.2"/>
</linearGradient>
<path class="st0" d="M360.94,408.89c-23.09-16.59-45.06-32.27-66.81-48.25c-1.83-1.34-2.98-4.76-3.01-7.23
	c-0.23-22.1-0.21-44.2-0.02-66.3c0.02-2.29,0.86-5.51,2.5-6.71c21.96-16.13,44.13-31.97,67.35-48.68
	C360.94,291.13,360.94,349.28,360.94,408.89z"/>
<linearGradient id="SVGID_00000016787906704113125740000016734551730527636360_" gradientUnits="userSpaceOnUse" x1="234.7175" y1="321.7186" x2="275.41" y2="321.7186" gradientTransform="matrix(1 0 0 -1 0 642)">
	<stop  offset="0" style="stop-color:#FFFFFF;stop-opacity:0.4"/>
	<stop  offset="0.0691" style="stop-color:#FFFFFF;stop-opacity:0.3435"/>
	<stop  offset="0.4892" style="stop-color:#FFFFFF;stop-opacity:0"/>
	<stop  offset="0.7527" style="stop-color:#FAFAFA;stop-opacity:0.1032"/>
	<stop  offset="1" style="stop-color:#EFEFEF;stop-opacity:0.2"/>
</linearGradient>
<path style="display:none;fill:url(#SVGID_00000016787906704113125740000016734551730527636360_);" d="M275.41,285.55
	c0,23.61,0,46.09,0,69.35c-11.46,0-22.58,0.48-33.59-0.36c-2.51-0.19-6.61-4.84-6.7-7.55c-0.6-17.88-0.4-35.78-0.22-53.68
	c0.05-4.85,2.99-7.68,7.96-7.73C253.46,285.48,264.05,285.55,275.41,285.55z"/>
<linearGradient id="SVGID_00000072258160525678607160000004719283651472381844_" gradientUnits="userSpaceOnUse" x1="377.1" y1="321.82" x2="405.9771" y2="321.82" gradientTransform="matrix(1 0 0 -1 0 642)">
	<stop  offset="0" style="stop-color:#FFFFFF;stop-opacity:0.4"/>
	<stop  offset="0.0691" style="stop-color:#FFFFFF;stop-opacity:0.3435"/>
	<stop  offset="0.4892" style="stop-color:#FFFFFF;stop-opacity:0"/>
	<stop  offset="0.7527" style="stop-color:#FAFAFA;stop-opacity:0.1032"/>
	<stop  offset="1" style="stop-color:#EFEFEF;stop-opacity:0.2"/>
</linearGradient>
<path style="display:none;fill:url(#SVGID_00000072258160525678607160000004719283651472381844_);" d="M377.1,355.13
	c0-23.33,0-46.62,0.01-69.9c15.57,1.63,28.5,17.01,28.86,34.31C406.32,336.88,393.67,352.67,377.1,355.13z"/>
<g>
	<path class="st3" d="M640.62,123v394.63c0,67.87-53.92,123-120.31,123H0.02V519.93C0.01,519.16,0,518.39,0,517.62V123
		C0,55.11,53.92,0,120.31,0h399.99C586.7,0,640.62,55.11,640.62,123z"/>
	<g>
		<path class="st4" d="M270.57,469.08L196.57,469v-90.48c0-19.33,7.33-29.39,23.51-31.69h50.49c36.01,0,59.3,23.21,59.3,60.79
			C329.87,446.21,307.17,469.04,270.57,469.08L270.57,469.08z M196.57,225.03v-23.82c0-20.84,8.62-30.75,27.53-32.03h37.89
			c32.47,0,51.93,19.86,51.93,53.14c0,25.32-13.34,54.91-50.75,54.91h-66.6V225.03z M365.07,315.33l-13.38-7.69l11.68-10.21
			c13.6-11.95,36.38-38.82,36.38-85.17c0-71-53.85-116.79-137.18-116.79h-95.09v-0.04h-10.84c-24.69,0.94-44.48,21.48-44.74,46.88
			v402.85h152.55c92.62,0,152.4-51.55,152.4-131.41C416.85,370.76,397.54,334.02,365.07,315.33"/>
		<path class="st5" d="M456.58,489.52c0-30.77,24.27-55.67,54.18-55.67c29.98,0,54.37,24.9,54.37,55.67
			c0,30.74-24.39,55.67-54.37,55.67C480.86,545.19,456.58,520.25,456.58,489.52"/>
	</g>
</g>
</svg>
