<?xml version="1.0" encoding="utf-8"?>
<!-- Generator: Adobe Illustrator 27.3.1, SVG Export Plug-In . SVG Version: 6.00 Build 0)  -->
<svg version="1.1" xmlns="http://www.w3.org/2000/svg" xmlns:xlink="http://www.w3.org/1999/xlink" x="0px" y="0px"
	 viewBox="0 0 640.62 640.62" style="enable-background:new 0 0 640.62 640.62;" xml:space="preserve">
<style type="text/css">
	.st0{display:none;}
	.st1{display:inline;}
	.st2{fill:url(#SVGID_1_);}
	.st3{fill-rule:evenodd;clip-rule:evenodd;fill:url(#SVGID_00000093165559725713087460000003759546683453103257_);}
	.st4{fill:url(#SVGID_00000119829570339215361700000015087621013443106736_);}
	.st5{fill-rule:evenodd;clip-rule:evenodd;fill:url(#SVGID_00000132074398009426783170000010683516925691365050_);}
	.st6{fill-rule:evenodd;clip-rule:evenodd;fill:url(#SVGID_00000032623483635813086550000016776523791990413200_);}
	.st7{fill-rule:evenodd;clip-rule:evenodd;fill:url(#SVGID_00000057110409097147902580000003781294759201964440_);}
	.st8{fill:#FFFFFF;}
	.st9{display:inline;fill:url(#path1-7_00000027563698884632043610000011826586210749473429_);}
	.st10{display:inline;fill:url(#SVGID_00000179615458583748836650000000086048287463132859_);}
	.st11{display:inline;fill:url(#SVGID_00000158727431554451755270000009397454645888182706_);}
	.st12{fill:url(#SVGID_00000042707397932367473590000005695995583101592244_);}
	.st13{fill:url(#SVGID_00000159450264529533894580000000065642765337711256_);}
	.st14{fill:url(#SVGID_00000129188309120188322360000011078237797582528665_);}
	.st15{fill:url(#SVGID_00000158009312120279686770000008572760804330435750_);}
	.st16{fill:url(#SVGID_00000071558603707585057760000016579994873304204978_);}
	.st17{fill:url(#SVGID_00000058578538906422539520000017907974161080555425_);}
	.st18{fill:url(#SVGID_00000080191748573818760830000006541601318697897886_);}
	.st19{fill:url(#SVGID_00000013164689420671975290000006506218265898532758_);}
	.st20{fill:url(#SVGID_00000111180945316758060980000004880199771057644968_);}
	.st21{fill:url(#SVGID_00000092429834859069711340000011095674828837931696_);}
	.st22{fill:url(#SVGID_00000009554030517029448480000009575464489841261501_);}
	.st23{fill:url(#SVGID_00000103945466900887946150000009310960974338151049_);}
	.st24{fill:url(#SVGID_00000025422619686079908810000008811532194728779904_);}
	.st25{fill:url(#SVGID_00000036953552526451666030000009201910562840140682_);}
	.st26{fill:url(#SVGID_00000027602546676704501920000010513865183785402259_);}
	.st27{fill:url(#SVGID_00000050638382495052933880000010392171737247712387_);}
	.st28{fill:url(#SVGID_00000164479733183856079810000006394642305015535804_);}
	.st29{fill:#5800B2;}
	.st30{fill:#423F3D;}
	.st31{fill:url(#SVGID_00000153697722877964525550000013706024566446870968_);}
	.st32{fill:url(#SVGID_00000155110648147801487400000011608964024876779947_);}
	.st33{fill:url(#SVGID_00000144336856510613545550000010980723077426311819_);}
	.st34{fill:url(#SVGID_00000155126913534392952270000013305625877021646475_);}
	.st35{fill:url(#SVGID_00000177484281346435781760000013175523067333324933_);}
	.st36{fill:url(#SVGID_00000128481740085209266600000016755597211426896570_);}
	.st37{fill:url(#SVGID_00000088816355648578848930000006149048980729946779_);}
	.st38{fill:url(#SVGID_00000168836172638133592840000010027904808454862483_);}
	.st39{fill:url(#SVGID_00000016047621324499798020000002843380270074999995_);}
	.st40{fill:url(#SVGID_00000110470006500128270020000006433613980507718588_);}
	.st41{fill:url(#SVGID_00000172418700927709565100000000410854325618029186_);}
</style>
<g id="_x30_1" class="st0">
	<g class="st1">
		<g>
			<linearGradient id="SVGID_1_" gradientUnits="userSpaceOnUse" x1="7.2616" y1="209.6858" x2="700.6529" y2="835.7727">
				<stop  offset="0" style="stop-color:#0298F7"/>
				<stop  offset="1" style="stop-color:#086DBD"/>
			</linearGradient>
			<path class="st2" d="M554.76,527.36C290.34,653.19,126.25,547.91,21.2,483.96c-6.5-4.03-17.55,0.94-7.96,11.95
				c35,42.43,149.68,144.71,299.38,144.71c149.8,0,238.92-81.74,250.07-96C573.77,530.48,565.94,522.68,554.76,527.36L554.76,527.36
				z M629.01,486.35c-7.1-9.25-43.18-10.97-65.88-8.18c-22.74,2.71-56.87,16.61-53.9,24.95c1.52,3.13,4.63,1.72,20.25,0.32
				c15.66-1.56,59.54-7.1,68.69,4.85c9.19,12.04-14,69.37-18.23,78.61c-4.09,9.25,1.56,11.63,9.25,5.47
				c7.58-6.16,21.3-22.1,30.5-44.66C628.83,525.03,634.41,493.39,629.01,486.35L629.01,486.35z"/>
			
				<linearGradient id="SVGID_00000166646571634993442760000017116452626683530683_" gradientUnits="userSpaceOnUse" x1="125.359" y1="78.8928" x2="818.7503" y2="704.9798">
				<stop  offset="0" style="stop-color:#0298F7"/>
				<stop  offset="1" style="stop-color:#086DBD"/>
			</linearGradient>
			<path style="fill-rule:evenodd;clip-rule:evenodd;fill:url(#SVGID_00000166646571634993442760000017116452626683530683_);" d="
				M376.97,270.58c0,33.02,0.83,60.55-15.85,89.87c-13.47,23.84-34.81,38.5-58.65,38.5c-32.54,0-51.5-24.79-51.5-61.39
				c0-72.24,64.72-85.35,126-85.35V270.58z M462.43,477.16c-5.6,5.01-13.71,5.36-20.03,2.03c-28.13-23.36-33.14-34.21-48.63-56.5
				c-46.49,47.44-79.39,61.63-139.7,61.63c-71.28,0-126.83-43.99-126.83-132.07c0-68.78,37.31-115.62,90.35-138.51
				c46.01-20.27,110.26-23.84,159.37-29.44v-10.97c0-20.15,1.55-43.99-10.25-61.39c-10.37-15.62-30.16-22.05-47.56-22.05
				c-32.3,0-61.15,16.57-68.18,50.9c-1.43,7.63-7.03,15.14-14.66,15.5l-82.25-8.82c-6.91-1.55-14.54-7.15-12.63-17.76
				C160.38,30.04,250.37,0,330.95,0c41.24,0,95.12,10.97,127.66,42.2c41.24,38.5,37.31,89.87,37.31,145.78v132.07
				c0,39.69,16.45,57.1,31.94,78.55c5.48,7.63,6.68,16.81-0.24,22.53c-17.28,14.42-48.04,41.24-64.96,56.26L462.43,477.16"/>
			
				<linearGradient id="SVGID_00000039852235958432110370000010204399681012397754_" gradientUnits="userSpaceOnUse" x1="7.2616" y1="209.6858" x2="700.6529" y2="835.7727">
				<stop  offset="0" style="stop-color:#0298F7"/>
				<stop  offset="1" style="stop-color:#086DBD"/>
			</linearGradient>
			<path style="fill:url(#SVGID_00000039852235958432110370000010204399681012397754_);" d="M554.76,527.36
				C290.34,653.19,126.25,547.91,21.2,483.96c-6.5-4.03-17.55,0.94-7.96,11.95c35,42.43,149.68,144.71,299.38,144.71
				c149.8,0,238.92-81.74,250.07-96C573.77,530.48,565.94,522.68,554.76,527.36L554.76,527.36z M629.01,486.35
				c-7.1-9.25-43.18-10.97-65.88-8.18c-22.74,2.71-56.87,16.61-53.9,24.95c1.52,3.13,4.63,1.72,20.25,0.32
				c15.66-1.56,59.54-7.1,68.69,4.85c9.19,12.04-14,69.37-18.23,78.61c-4.09,9.25,1.56,11.63,9.25,5.47
				c7.58-6.16,21.3-22.1,30.5-44.66C628.83,525.03,634.41,493.39,629.01,486.35L629.01,486.35z"/>
			
				<linearGradient id="SVGID_00000140714726452524536330000008824575742996469652_" gradientUnits="userSpaceOnUse" x1="125.359" y1="78.8928" x2="818.7503" y2="704.9798">
				<stop  offset="0" style="stop-color:#0298F7"/>
				<stop  offset="1" style="stop-color:#086DBD"/>
			</linearGradient>
			<path style="fill-rule:evenodd;clip-rule:evenodd;fill:url(#SVGID_00000140714726452524536330000008824575742996469652_);" d="
				M376.97,270.58c0,33.02,0.83,60.55-15.85,89.87c-13.47,23.84-34.81,38.5-58.65,38.5c-32.54,0-51.5-24.79-51.5-61.39
				c0-72.24,64.72-85.35,126-85.35V270.58z M462.43,477.16c-5.6,5.01-13.71,5.36-20.03,2.03c-28.13-23.36-33.14-34.21-48.63-56.5
				c-46.49,47.44-79.39,61.63-139.7,61.63c-71.28,0-126.83-43.99-126.83-132.07c0-68.78,37.31-115.62,90.35-138.51
				c46.01-20.27,110.26-23.84,159.37-29.44v-10.97c0-20.15,1.55-43.99-10.25-61.39c-10.37-15.62-30.16-22.05-47.56-22.05
				c-32.3,0-61.15,16.57-68.18,50.9c-1.43,7.63-7.03,15.14-14.66,15.5l-82.25-8.82c-6.91-1.55-14.54-7.15-12.63-17.76
				C160.38,30.04,250.37,0,330.95,0c41.24,0,95.12,10.97,127.66,42.2c41.24,38.5,37.31,89.87,37.31,145.78v132.07
				c0,39.69,16.45,57.1,31.94,78.55c5.48,7.63,6.68,16.81-0.24,22.53c-17.28,14.42-48.04,41.24-64.96,56.26L462.43,477.16"/>
		</g>
	</g>
</g>
<g id="_x30_2">
	<g>
		
			<linearGradient id="SVGID_00000091728779371038726240000011434666751746647175_" gradientUnits="userSpaceOnUse" x1="3.6087" y1="320.31" x2="625.8103" y2="320.31">
			<stop  offset="0" style="stop-color:#0298F7"/>
			<stop  offset="1" style="stop-color:#086DBD"/>
		</linearGradient>
		<path style="fill-rule:evenodd;clip-rule:evenodd;fill:url(#SVGID_00000091728779371038726240000011434666751746647175_);" d="
			M640.62,127.34c0-66.39-53.92-120.29-120.31-120.29H120.31C53.92,7.05,0,60.95,0,127.34v385.94
			c0,66.37,53.92,120.29,120.31,120.29h399.99c66.39,0,120.31-53.92,120.31-120.29L640.62,127.34z"/>
		
			<linearGradient id="SVGID_00000026144767947646018880000001932281079421073809_" gradientUnits="userSpaceOnUse" x1="3.6087" y1="514.9228" x2="625.8103" y2="514.9228">
			<stop  offset="0" style="stop-color:#0298F7"/>
			<stop  offset="1" style="stop-color:#086DBD"/>
		</linearGradient>
		<path style="fill-rule:evenodd;clip-rule:evenodd;fill:url(#SVGID_00000026144767947646018880000001932281079421073809_);" d="
			M0.02,396.28h319.95v237.3H0.02L0.02,396.28z"/>
		<g>
			<path class="st8" d="M291.15,421.75l-51.6-0.05V360c0-13.18,5.11-20.04,16.39-21.61h35.2c25.1,0,41.34,15.83,41.34,41.45
				C332.49,406.15,316.66,421.72,291.15,421.75L291.15,421.75z M239.55,255.34V239.1c0-14.21,6.01-20.97,19.19-21.84h26.42
				c22.64,0,36.21,13.54,36.21,36.23c0,17.27-9.3,37.44-35.38,37.44h-46.43V255.34z M357.03,316.91l-9.33-5.24l8.15-6.96
				c9.48-8.15,25.36-26.47,25.36-58.07c0-48.41-37.54-79.63-95.64-79.63h-66.3v-0.03h-7.55c-17.22,0.64-31.01,14.65-31.19,31.97
				v274.69h106.36c64.57,0,106.25-35.15,106.25-89.6C393.14,354.71,379.67,329.66,357.03,316.91"/>
			<path class="st8" d="M420.83,435.68c0-20.98,16.92-37.96,37.78-37.96c20.9,0,37.91,16.98,37.91,37.96
				c0,20.96-17,37.96-37.91,37.96C437.76,473.65,420.83,456.64,420.83,435.68"/>
		</g>
	</g>
</g>
<g id="_x30_3" class="st0">
	
		<linearGradient id="path1-7_00000083089897719660393930000016714984546560025484_" gradientUnits="userSpaceOnUse" x1="27.5211" y1="29.6987" x2="685.0139" y2="704.9217">
		<stop  offset="0" style="stop-color:#0298F7"/>
		<stop  offset="1" style="stop-color:#086DBD"/>
	</linearGradient>
	<path id="path1-7" style="display:inline;fill:url(#path1-7_00000083089897719660393930000016714984546560025484_);" d="
		M377.91,274L603.05,17.7h-53.35l-195.58,222.5L198.03,17.7H17.95l236.1,336.48L17.95,622.92h53.35l206.41-235.02l164.88,235.02
		h180.08L377.91,274z M304.82,357.13l-23.96-33.53L90.53,57.08h81.95l153.65,215.17l23.86,33.53l199.7,279.68h-81.95L304.82,357.13z
		"/>
</g>
<g id="_x30_4" class="st0">
	
		<linearGradient id="SVGID_00000087404367369577659590000007742698443719442068_" gradientUnits="userSpaceOnUse" x1="10.1417" y1="320.31" x2="630.4783" y2="320.31">
		<stop  offset="0" style="stop-color:#0298F7"/>
		<stop  offset="1" style="stop-color:#086DBD"/>
	</linearGradient>
	<path style="display:inline;fill:url(#SVGID_00000087404367369577659590000007742698443719442068_);" d="M549.15,192.65
		c-1.13-1.51-2.27-3.4-2.27-5.3l0,0c-5.67-65.06-15.13-108.56-15.13-108.56c-1.51-7.57-7.94-12.86-15.13-14l-52.2-6.43
		c-0.38,0-0.76,0-1.51,0c-6.05,0-10.97,4.92-10.97,10.97v18.16c0,0.38-0.38,0.76-0.76,0.76h-0.38l0,0
		c-31.02-27.99-66.19-55.23-105.15-79.43c-7.57-4.92-16.26-7.94-25.72-7.94l0,0l0,0l0,0c-9.46,0-18.53,3.03-25.72,7.94
		C114.54,119.65,15.44,300.45,11.65,310.29c-1.13,2.27-1.51,4.92-1.51,7.57c0,8.32,5.67,15.51,13.62,17.4l51.82,9.83
		c6.81,1.89,12.1,7.94,12.86,15.13c0.38,9.08,10.21,213.34,22.7,266.29c1.89,7.57,9.08,13.24,17.4,13.24h0.38
		c30.26-0.76,57.87-1.13,87.75-1.51l0,0l0,0h0.38c0.76,0,1.51,0,2.27,0c3.03,0,5.67-2.65,5.67-5.67l0,0
		c-1.13-17.78-3.78-58.63-6.05-101.37c0-1.13,0-2.27-0.38-3.4l0,0c-0.38-3.78-2.27-6.81-5.3-8.7c-15.51-9.46-26.1-26.1-27.23-45.01
		c-2.65-71.49-4.16-154.33,0-219.01c0.38-5.3,4.92-9.83,10.21-9.83c5.67,0,10.59,4.54,10.59,10.21c0,0.38,0,0.38,0,0.76
		c-2.65,43.12-2.65,94.19-1.89,144.49c0,6.81,5.67,12.1,12.48,12.1s12.1-5.67,12.1-12.48c-0.76-50.69-0.76-102.13,1.89-145.25
		c0.38-5.3,4.92-9.83,10.21-9.83c5.67,0,10.59,4.54,10.59,10.21c0,0.38,0,0.38,0,0.76c-2.65,43.12-2.65,93.81-1.89,143.74l0,0
		c0,6.81,5.67,12.1,12.48,12.1c6.81,0,12.1-5.67,12.1-12.48c-0.76-50.31-0.76-101.75,1.89-144.87c0.38-5.3,4.92-9.83,10.21-9.83
		c5.67,0,10.59,4.54,10.59,10.21c0,0.38,0,0.38,0,0.76c-3.78,62.79-2.65,142.6,0,212.58v0.76c0,0.38,0,0.76,0,1.13l0,0
		c0,0.38,0,0.38,0,0.76c0,19.29-9.46,35.93-24.21,46.15c-2.65,1.89-4.54,4.54-4.54,7.94c0,0-1.13,10.59,3.4,62.79
		c2.27,22.7,3.78,38.58,4.54,45.39c0.38,2.65,2.65,4.92,5.3,4.92c1.51,0,3.4,0,4.92,0l0,0c9.83,0,20.43,0,31.02,0h1.89h1.89
		c13.62,0,26.48,0,38.96,0l29.5,0.38l0,0c2.65,0,4.92-2.27,5.67-4.92c6.81-62.41,8.32-97.21,8.32-97.21c0-3.03-2.27-5.67-5.67-6.05
		l-35.56-5.67c-5.67-1.13-9.08-4.54-10.21-8.7c-0.76-2.65-0.38-5.67-0.38-5.67c14.37-207.66,82.84-278.02,82.84-278.02
		c1.89-1.89,3.4-3.03,3.4-3.03c1.89-1.13,4.16-2.27,6.43-2.27c4.54,0,8.7,3.03,10.21,6.81c0,0,0.38,1.51,0.76,4.92
		c6.05,65.44,3.03,176.64-0.76,263.26c-3.03,73.76-6.81,131.25-6.81,131.25l0,0c0,2.27,1.89,4.16,4.16,4.16l0,0
		c19.29,0.38,38.58,0.76,59.01,1.13h0.38c8.32,0,15.13-5.67,17.4-13.24c12.48-52.96,21.94-257.21,22.7-266.29
		c0.76-7.19,6.05-13.24,12.86-15.13l51.82-9.83c7.57-1.89,13.62-9.08,13.62-17.4c0-2.65-0.76-5.3-1.51-7.57
		C626.32,304.99,599.46,255.06,549.15,192.65"/>
</g>
<g id="_x30_5" class="st0">
	
		<linearGradient id="SVGID_00000140712215350338924270000012392913428279232388_" gradientUnits="userSpaceOnUse" x1="95.4183" y1="15.2396" x2="528.5836" y2="602.8376">
		<stop  offset="0" style="stop-color:#0298F7"/>
		<stop  offset="1" style="stop-color:#086DBD"/>
	</linearGradient>
	<path style="display:inline;fill:url(#SVGID_00000140712215350338924270000012392913428279232388_);" d="M625.78,4.92l-3.61,115.96
		L319.73,449.64c126.34,0,206.44-1.23,252.64-3.8c-13.39,62.39-24.28,113.4-35.24,189.86c-60.75-5.13-155.47-6.41-250.23-6.41
		c-105.64,0-197.96,1.27-272.06,6.41l2.47-117.28l302.43-327.44c-132.4,0-181,1.25-235.63,2.53
		c12.11-58.62,20.62-123.58,29.12-188.6c95.95,3.82,133.6,5.07,258.72,5.07C487.34,10,552.89,8.74,625.78,4.92L625.78,4.92z"/>
</g>
<g id="_x30_6" class="st0">
	<g class="st1">
		
			<linearGradient id="SVGID_00000183249683240375056630000010588991173863899555_" gradientUnits="userSpaceOnUse" x1="70.4093" y1="560.7472" x2="545.8441" y2="104.095">
			<stop  offset="0" style="stop-color:#0298F7"/>
			<stop  offset="1" style="stop-color:#086DBD"/>
		</linearGradient>
		<path style="fill:url(#SVGID_00000183249683240375056630000010588991173863899555_);" d="M319.77,369c-53.46,0-106.92,0-160.38,0
			c-18.51,0-29.5-10.67-29.79-29.18c-0.19-12.59-0.19-25.18,0-37.76c0.26-18.55,10.99-29.34,29.66-29.34
			c107.37-0.1,214.77-0.1,322.14,0c18.67,0,29.28,10.95,29.31,29.47c0.03,13.07,0.06,26.17,0,39.24
			c-0.1,16.14-11.56,27.55-27.8,27.55C428.48,369.03,374.12,369,319.77,369z M230.14,299.52c-12.14-0.1-21.46,9.06-21.52,21.14
			c-0.06,12.11,9.1,21.46,21.14,21.52c12.08,0.06,21.46-9.13,21.56-21.14C251.44,309.04,242.19,299.62,230.14,299.52z
			 M410.61,342.19c11.79-0.03,21.62-9.83,21.52-21.46c-0.1-11.66-9.96-21.27-21.81-21.2c-11.95,0.06-21.56,9.67-21.49,21.46
			C388.95,332.67,398.75,342.25,410.61,342.19z M341.61,320.82c0-11.98-9.45-21.33-21.43-21.3c-12.01,0.03-21.46,9.48-21.46,21.36
			c0.03,11.88,9.55,21.3,21.52,21.3C332.29,342.16,341.64,332.83,341.61,320.82z"/>
		
			<linearGradient id="SVGID_00000160179670668657130990000003651380821724035463_" gradientUnits="userSpaceOnUse" x1="-97.3111" y1="386.1283" x2="378.1237" y2="-70.5239">
			<stop  offset="0" style="stop-color:#0298F7"/>
			<stop  offset="1" style="stop-color:#086DBD"/>
		</linearGradient>
		<path style="fill:url(#SVGID_00000160179670668657130990000003651380821724035463_);" d="M174.83,158.17
			c-5.83,27.64-11.5,54.45-17.3,81.87c-16.43,0.58-31.74,6.12-43.82,18.96c-11.88,12.62-16.94,27.8-16.14,45.39
			c-32.64,0-64.57,0-97.57,0c3.62-68.45,26.81-129.02,68.93-183.38C102.44,138.95,138.15,150,174.83,158.17z"/>
		
			<linearGradient id="SVGID_00000047771241217961691310000005671950987940159374_" gradientUnits="userSpaceOnUse" x1="138.0171" y1="631.1359" x2="613.4519" y2="174.4837">
			<stop  offset="0" style="stop-color:#0298F7"/>
			<stop  offset="1" style="stop-color:#086DBD"/>
		</linearGradient>
		<path style="fill:url(#SVGID_00000047771241217961691310000005671950987940159374_);" d="M484.82,240.17
			c-5.73-27.23-11.37-54-17.17-81.55c35.68-8.07,71.11-18.51,104.87-36.2c41.58,53.49,64.03,113.87,68.1,181.87
			c-32.61,0-64.7,0-96.77,0C537.64,262.14,519.8,242.79,484.82,240.17z"/>
		
			<linearGradient id="SVGID_00000016036104995102699510000004642487691783948193_" gradientUnits="userSpaceOnUse" x1="2.1101" y1="489.6389" x2="477.5449" y2="32.9867">
			<stop  offset="0" style="stop-color:#0298F7"/>
			<stop  offset="1" style="stop-color:#086DBD"/>
		</linearGradient>
		<path style="fill:url(#SVGID_00000016036104995102699510000004642487691783948193_);" d="M0,337.19c32.77,0,64.64,0,97.31,0
			c-0.38,17.39,4.36,32.96,16.46,45.68c11.98,12.59,27.03,18.1,44.04,18.8c5.38,25.59,10.7,50.99,16.21,77.32
			c-36.45,8.42-72.93,19.25-107.11,37.96C26.27,463.71,3.88,404.23,0,337.19z"/>
		
			<linearGradient id="SVGID_00000042009833202674788920000008832450879255611818_" gradientUnits="userSpaceOnUse" x1="237.6399" y1="734.8562" x2="713.0746" y2="278.204">
			<stop  offset="0" style="stop-color:#0298F7"/>
			<stop  offset="1" style="stop-color:#086DBD"/>
		</linearGradient>
		<path style="fill:url(#SVGID_00000042009833202674788920000008832450879255611818_);" d="M543.63,337.19c32.38,0,64.29,0,96.16,0
			c5.03,43.05-31.23,141.06-66.14,178.7c-33.15-17.68-68.9-28.7-105.35-36.84c5.45-25.95,10.79-51.38,16.18-76.97
			C525.79,393.4,539.95,378.09,543.63,337.19z"/>
		
			<linearGradient id="SVGID_00000069391763721958112890000005158051287313559229_" gradientUnits="userSpaceOnUse" x1="137.4256" y1="630.52" x2="612.8604" y2="173.8678">
			<stop  offset="0" style="stop-color:#0298F7"/>
			<stop  offset="1" style="stop-color:#086DBD"/>
		</linearGradient>
		<path style="fill:url(#SVGID_00000069391763721958112890000005158051287313559229_);" d="M185.59,509.55
			c16.94,49.94,48.4,89.81,85.62,127.8c-72.13-12.3-132.1-43.66-182.54-95.32C119.54,526.14,151.54,516.88,185.59,509.55z"/>
		
			<linearGradient id="SVGID_00000057119395392009954660000017864054419388218514_" gradientUnits="userSpaceOnUse" x1="261.2488" y1="759.4362" x2="736.6836" y2="302.7841">
			<stop  offset="0" style="stop-color:#0298F7"/>
			<stop  offset="1" style="stop-color:#086DBD"/>
		</linearGradient>
		<path style="fill:url(#SVGID_00000057119395392009954660000017864054419388218514_);" d="M552.57,541.39
			c-49.94,51.19-109.16,82.96-180.94,95.55c37.16-37.99,68.32-77.8,85.17-127.36C490.2,516.66,521.95,525.85,552.57,541.39z"/>
		
			<linearGradient id="SVGID_00000052072354234686370880000001946840526783895472_" gradientUnits="userSpaceOnUse" x1="-120.9524" y1="361.5146" x2="354.4824" y2="-95.1376">
			<stop  offset="0" style="stop-color:#0298F7"/>
			<stop  offset="1" style="stop-color:#086DBD"/>
		</linearGradient>
		<path style="fill:url(#SVGID_00000052072354234686370880000001946840526783895472_);" d="M186.87,127.74
			c-33.44-6.92-64.99-16.3-95.84-31.58C140.97,45.9,200.19,15.34,271.05,3.27C234.88,40.42,203.91,79.05,186.87,127.74z"/>
		
			<linearGradient id="SVGID_00000034782715224487807960000007734728322867462811_" gradientUnits="userSpaceOnUse" x1="3.0061" y1="490.5717" x2="478.4409" y2="33.9195">
			<stop  offset="0" style="stop-color:#0298F7"/>
			<stop  offset="1" style="stop-color:#086DBD"/>
		</linearGradient>
		<path style="fill:url(#SVGID_00000034782715224487807960000007734728322867462811_);" d="M550.71,97.31
			c-30.65,14.93-61.85,23.9-94.91,30.85c-16.88-48.11-47.63-87.09-84.11-124.5C442.38,16.11,500.96,47.12,550.71,97.31z"/>
		
			<linearGradient id="SVGID_00000071557125664435924880000012214791041778833556_" gradientUnits="userSpaceOnUse" x1="-19.7064" y1="466.925" x2="455.7284" y2="10.2728">
			<stop  offset="0" style="stop-color:#0298F7"/>
			<stop  offset="1" style="stop-color:#086DBD"/>
		</linearGradient>
		<path style="fill:url(#SVGID_00000071557125664435924880000012214791041778833556_);" d="M206.54,165.34
			c33.86,2.98,65.66,5.77,97.95,8.62c0,21.36,0,43.37,0,65.86c-37.44,0-74.95,0-114.19,0C195.81,214.58,201.22,189.69,206.54,165.34
			z"/>
		
			<linearGradient id="SVGID_00000146487547602857256890000005388070095980180356_" gradientUnits="userSpaceOnUse" x1="49.4626" y1="538.939" x2="524.8974" y2="82.2868">
			<stop  offset="0" style="stop-color:#0298F7"/>
			<stop  offset="1" style="stop-color:#086DBD"/>
		</linearGradient>
		<path style="fill:url(#SVGID_00000146487547602857256890000005388070095980180356_);" d="M337.99,174.02
			c32.42-2.82,64.22-5.57,97.82-8.46c5.25,24.02,10.7,48.91,16.3,74.41c-38.85,0-76.23,0-114.13,0
			C337.99,217.91,337.99,195.77,337.99,174.02z"/>
		
			<linearGradient id="SVGID_00000163793057462361127350000016783953191595779252_" gradientUnits="userSpaceOnUse" x1="91.4584" y1="582.6621" x2="566.8932" y2="126.01">
			<stop  offset="0" style="stop-color:#0298F7"/>
			<stop  offset="1" style="stop-color:#086DBD"/>
		</linearGradient>
		<path style="fill:url(#SVGID_00000163793057462361127350000016783953191595779252_);" d="M304.74,402.02c0,20.72,0,41,0,61.28
			c-32.54,2.82-64.89,5.61-99.04,8.58c-4.87-22.39-9.96-45.77-15.18-69.86C229.15,402.02,266.63,402.02,304.74,402.02z"/>
		
			<linearGradient id="SVGID_00000077298783637908526830000012015084715422935434_" gradientUnits="userSpaceOnUse" x1="160.601" y1="654.6486" x2="636.0358" y2="197.9964">
			<stop  offset="0" style="stop-color:#0298F7"/>
			<stop  offset="1" style="stop-color:#086DBD"/>
		</linearGradient>
		<path style="fill:url(#SVGID_00000077298783637908526830000012015084715422935434_);" d="M436.68,471.91
			c-33.76-2.95-65.98-5.73-98.75-8.58c0-19.96,0-40.52,0-61.44c37.67,0,75.18,0,113.9,0C446.64,425.88,441.58,449.3,436.68,471.91z"
			/>
		
			<linearGradient id="SVGID_00000178175554835640306970000014037078975818291587_" gradientUnits="userSpaceOnUse" x1="196.8752" y1="692.4148" x2="672.3099" y2="235.7626">
			<stop  offset="0" style="stop-color:#0298F7"/>
			<stop  offset="1" style="stop-color:#086DBD"/>
		</linearGradient>
		<path style="fill:url(#SVGID_00000178175554835640306970000014037078975818291587_);" d="M337.67,605.48c0-36.45,0-72.23,0-109.67
			c28.89,2.37,57.4,4.71,85.94,7.05C420.31,538.83,367.52,601.32,337.67,605.48z"/>
		
			<linearGradient id="SVGID_00000101091497483030516600000001626021050746687896_" gradientUnits="userSpaceOnUse" x1="158.6482" y1="652.6155" x2="634.0829" y2="195.9633">
			<stop  offset="0" style="stop-color:#0298F7"/>
			<stop  offset="1" style="stop-color:#086DBD"/>
		</linearGradient>
		<path style="fill:url(#SVGID_00000101091497483030516600000001626021050746687896_);" d="M217.17,503.01
			c30.05-2.47,58.42-4.8,87.35-7.21c0,37.41,0,73.54,0,110.09c-11.4-2.72-20.95-8.49-29.6-15.73
			C247.47,567.37,231.26,537.1,217.17,503.01z"/>
		
			<linearGradient id="SVGID_00000109735105071617646180000006954163100225015970_" gradientUnits="userSpaceOnUse" x1="-18.8061" y1="467.8623" x2="456.6287" y2="11.2101">
			<stop  offset="0" style="stop-color:#0298F7"/>
			<stop  offset="1" style="stop-color:#086DBD"/>
		</linearGradient>
		<path style="fill:url(#SVGID_00000109735105071617646180000006954163100225015970_);" d="M337.86,34.63
			c13.16,3.36,23.86,10.25,33.41,18.9c23.86,21.62,39.3,48.88,51.41,78.28c0.13,0.35-0.03,0.83-0.22,2.88
			c-27.87,2.21-55.96,4.45-84.59,6.73C337.86,105.13,337.86,70.31,337.86,34.63z"/>
		
			<linearGradient id="SVGID_00000046303552664745874420000007602223580583446946_" gradientUnits="userSpaceOnUse" x1="-56.7368" y1="428.3715" x2="418.6979" y2="-28.2807">
			<stop  offset="0" style="stop-color:#0298F7"/>
			<stop  offset="1" style="stop-color:#086DBD"/>
		</linearGradient>
		<path style="fill:url(#SVGID_00000046303552664745874420000007602223580583446946_);" d="M304.42,141.42
			c-28.51-2.34-56.63-4.64-86.36-7.08c19.8-42.6,39.97-82.03,86.36-100.55C304.42,69.96,304.42,104.87,304.42,141.42z"/>
	</g>
</g>
<g id="_x30_7" class="st0">
	<g class="st1">
		<g>
			<path class="st29" d="M607.03,335.26c-2.25,15.64-4.39,30.75-6.59,45.85c-8.14,56.02-16.3,112.03-24.46,168.04
				c-1.2,8.26-2.26,16.56-3.71,24.78c-4.97,28.09-24.77,44.64-53.41,44.65c-80.81,0.03-161.63,0.01-242.44,0.01
				c-51.55,0-103.12-0.67-154.65,0.28c-27.09,0.5-51.44-17.67-55.44-46.89c-6.77-49.41-14.17-98.74-21.34-148.1
				c-3.93-27.09-7.93-54.17-11.88-81.26c-0.33-2.25-0.48-4.53-0.77-7.36C223.84,335.26,414.82,335.26,607.03,335.26z M158.73,477.13
				c0-16.24,0.01-32.47,0-48.71c-0.01-11.6,0.25-23.2-0.14-34.79c-0.35-10.33-8.25-16.69-17.54-14.81
				c-7.45,1.51-11.37,7.4-11.37,17.48c-0.03,53.58-0.02,107.16-0.01,160.74c0,1.62,0,3.26,0.18,4.86
				c0.8,7.29,6.76,12.88,13.88,13.11c6.85,0.22,13.09-4.69,14.42-11.65c0.52-2.71,0.56-5.53,0.56-8.3
				C158.75,529.09,158.73,503.11,158.73,477.13z M508.04,476.96c-0.01,0-0.02,0-0.03,0c0-27.84,0.1-55.67-0.06-83.51
				c-0.05-8.66-5.59-14.4-13.43-14.83c-8.21-0.45-14.37,5-15.38,13.68c-0.21,1.84-0.18,3.7-0.18,5.56
				c-0.01,52.66-0.02,105.31,0.02,157.97c0,2.76,0.1,5.61,0.75,8.28c1.93,7.95,10.07,12.54,17.71,10.25
				c7.12-2.13,10.54-7.1,10.57-15.98C508.08,531.24,508.04,504.1,508.04,476.96z M333.46,476.27c0-27.38,0.09-54.75-0.05-82.13
				c-0.05-9.22-6.05-15.43-14.33-15.55c-8.34-0.12-14.73,6.05-14.74,15.08c-0.11,55.45-0.07,110.9-0.03,166.34
				c0.01,6.39,3.06,11.13,8.93,13.72c10.21,4.5,20.13-2.95,20.18-15.34C333.54,531.03,333.47,503.65,333.46,476.27z M420.89,476.72
				c0-26.21,0.03-52.42-0.04-78.64c-0.01-2.99-0.08-6.1-0.86-8.95c-1.78-6.51-6.31-10.13-13.1-10.48c-6.83-0.35-11.6,3-14.11,9.17
				c-0.92,2.26-0.97,4.99-0.97,7.51c-0.05,54.28-0.04,108.56-0.03,162.84c0,1.39,0,2.79,0.18,4.17c0.87,6.86,6.74,12.31,13.6,12.68
				c6.52,0.35,12.84-4.14,14.45-10.71c0.71-2.88,0.83-5.96,0.84-8.95C420.92,529.14,420.89,502.93,420.89,476.72z M245.92,476.54
				c0.01,0,0.02,0,0.02,0c0-7.42,0-14.85,0-22.27c-0.01-20.41,0.1-40.83-0.11-61.24c-0.08-8.15-5.64-13.84-13.17-14.38
				c-7.95-0.57-14.27,4.52-15.55,12.71c-0.36,2.27-0.3,4.62-0.3,6.94c-0.02,20.88-0.01,41.76-0.01,62.63c0,31.09,0,62.17,0.01,93.26
				c0,2.32-0.11,4.66,0.15,6.95c0.94,8.22,7.14,14.01,14.7,13.89c7.91-0.12,14.15-6.35,14.19-14.98
				C246.01,532.21,245.92,504.37,245.92,476.54z"/>
			<path class="st30" d="M371.47,262.22c-0.79,5.68-2.62,11.43-2.19,17c1.6,20.77,20.24,33.73,41.47,28.82
				c55.11-12.76,110.11-25.96,165.23-38.67c13.94-3.21,28.09-5.77,42.27-7.61c11.35-1.47,21.05,7.05,21.97,18.41
				c0.54,6.68,0.5,13.48,0.02,20.17c-0.73,10.01-8.4,17.56-18.41,18.73c-2.76,0.32-5.56,0.32-8.34,0.32
				c-195.51,0.01-391.02,0.01-586.53,0c-2.55,0-5.12,0.01-7.65-0.25C8.6,318.03,0.88,310.21,0.26,299.5
				c-0.35-6.02-0.34-12.08-0.02-18.1c0.61-11.34,8.77-19.39,20.2-19.93c6.95-0.33,13.93-0.15,20.89-0.15
				c50.39-0.01,100.77,0,151.16,0c2.71,0,5.42,0,8.77,0c-0.54,2.84-0.89,4.6-1.2,6.38c-2.77,15.51,4.61,32.58,25.01,37.97
				c16.38,4.33,32.89-4.89,38.12-22.35c2.05-6.85,3.6-13.86,5.46-21.09C303.18,262.22,337.46,262.22,371.47,262.22z"/>
			<path class="st30" d="M325.9,247.07c-9.57,0-18.73,0-28.33,0c-1.87-18.18,2.35-34.65,11.48-49.98
				c5.1-8.57,10.77-16.81,15.58-25.54c14.7-26.67,22.58-55.25,23.13-85.77c0.07-4.11,0.01-8.22,0.01-12.73c22.25,0,43.48,0,64.87,0
				c0.98,11.78,1.58,23.32,2.96,34.76c2.53,20.93,9.27,40.6,18.82,59.35c9.6,18.86,24.52,34.97,28.61,57.83
				c3.08-4.49,5.27-7.68,7.7-11.21c4.87,2.79,9.37,5.37,15.28,8.76c-14.41,3.49-27.21,6.52-39.96,9.71
				c-19.54,4.89-39.02,10.05-58.6,14.74c-3.97,0.95-8.31,0.44-12.47,0.46c-11.11,0.05-22.21,0.02-34.02,0.02
				c-0.38-10.71,2.33-20.07,6.63-29.08c1-2.09,2.36-4.01,3.31-6.11c1.84-4.07,1.61-7.92-2.74-10.15c-4.11-2.11-8.37-1.16-9.98,3.16
				c-4.24,11.41-7.87,23.06-11.56,34.67C325.94,242.07,326.13,244.46,325.9,247.07z"/>
			<path class="st30" d="M506.45,151.05c5.77-9.23,10.4-18.16,16.43-26.01c23.24-30.2,64.98-37.41,97.36-17.29
				c17.07,10.61,21.66,28.86,11.55,46.18c-7.24,12.41-14.43,24.86-22.04,37.05c-1.48,2.37-4.53,4.57-7.26,5.24
				c-27.67,6.79-55.44,13.16-83.13,19.9c-3.82,0.93-5.92-0.04-9.11-2.27c-9.26-6.49-19.21-11.99-29.65-18.33
				c4.75-8.32,9.39-16.44,14.41-25.22c9.78,5.7,19.02,11.33,28.48,16.55c7.91,4.37,16.06,0.09,16.83-8.54
				c0.47-5.31-2.36-8.67-6.7-11.21C524.85,161.99,516.12,156.77,506.45,151.05z"/>
			<path class="st30" d="M171.08,247.47c-2.38-13.91,0.89-26.21,4.06-38.58c5.24-20.43,10.27-40.92,15.37-61.39
				c0.43-1.74,0.69-3.53,1.16-6.01c-2.7-0.18-4.9-0.45-7.11-0.46c-32.74-0.03-65.48,0.12-98.21-0.16c-5.45-0.05-7.63,1.62-8.89,6.87
				c-6.12,25.46-12.93,50.77-18.83,76.28c-1.69,7.29-1.15,15.09-1.65,23.04c-4.48,0-8.78,0-14.56,0c0.61-9.13,0.1-18.29,2.02-26.91
				c5.49-24.65,12.07-49.06,17.92-73.64c0.66-2.79-0.74-6.01-0.84-9.05c-0.3-9.89-0.98-19.84-0.15-29.65
				c0.16-1.83,6.61-4.44,10.17-4.47c34.13-0.34,68.26-0.2,102.39-0.2c9.29,0,18.57,0.05,27.86-0.01c6.31-0.04,9.9,2.78,9.15,9.28
				c-2.71,23.29,3.13,45.37,9.04,67.49c0.79,2.97,0.73,6.51-0.03,9.51c-4.38,17.3-9.3,34.47-13.57,51.79
				c-1.25,5.08-3.55,6.6-8.59,6.37C189.04,247.18,180.24,247.47,171.08,247.47z"/>
			<path class="st30" d="M231.28,292.37c-13.3-0.04-21.1-11.71-17.24-26.06c13.11-48.81,26.3-97.59,39.44-146.4
				c5.42-20.15,10.69-40.34,16.22-60.45c2.71-9.87,10.38-15.72,19.08-15.14c8.88,0.59,16.55,7.51,17.33,16.21
				c0.28,3.14-0.26,6.5-1.08,9.58c-18.35,68.52-36.78,137.03-55.22,205.53C246.85,286.62,240.37,292.4,231.28,292.37z"/>
			<path class="st29" d="M612.47,208.58c10.11-0.08,18.09,6.38,19.42,14.86c1.55,9.92-4.25,18.61-14.71,21.23
				c-14.83,3.71-29.75,7.08-44.63,10.58c-54.79,12.91-109.57,25.85-164.37,38.72c-11.7,2.75-21.77-2.54-24.3-12.52
				c-2.64-10.44,3.88-19.97,15.87-22.82c69.41-16.49,138.84-32.93,208.27-49.37C609.81,208.85,611.67,208.7,612.47,208.58z"/>
			<path class="st29" d="M381.53,21.8c10.19,0,20.39,0.14,30.58-0.05c6.36-0.12,9.54,2.4,9.36,8.99
				c-0.18,6.48-0.05,12.97-0.05,19.46c0,5.12-2.7,7.85-7.67,7.88c-21.55,0.1-43.09,0.09-64.64,0c-4.59-0.02-7.43-2.43-7.48-7.29
				c-0.07-7.18-0.07-14.36-0.01-21.54c0.04-5.19,2.89-7.46,7.95-7.44C360.21,21.85,370.87,21.82,381.53,21.8z"/>
			<path class="st29" d="M113.46,247.47c-5.11,0-10.33,0.65-15.28-0.25c-2.87-0.52-6.48-2.97-7.68-5.53
				c-3.67-7.86-0.05-20.54,6.76-26.93c7.26-6.81,18.87-8.56,27.9-4.21c8.84,4.26,14.15,13.3,13.62,23.19
				c-0.56,10.56-3.83,13.73-14.18,13.73C120.89,247.47,117.17,247.47,113.46,247.47z"/>
		</g>
		<g>
			
				<linearGradient id="SVGID_00000085944914207801608620000008194022672589572026_" gradientUnits="userSpaceOnUse" x1="95.4896" y1="616.9568" x2="605.4426" y2="241.0485">
				<stop  offset="0" style="stop-color:#FFFFFF;stop-opacity:0.4"/>
				<stop  offset="0.0691" style="stop-color:#FFFFFF;stop-opacity:0.3435"/>
				<stop  offset="0.4892" style="stop-color:#FFFFFF;stop-opacity:0"/>
				<stop  offset="0.7527" style="stop-color:#FAFAFA;stop-opacity:0.1032"/>
				<stop  offset="1" style="stop-color:#EFEFEF;stop-opacity:0.2"/>
			</linearGradient>
			<path style="fill:url(#SVGID_00000085944914207801608620000008194022672589572026_);" d="M607.03,335.26
				c-2.25,15.64-4.39,30.75-6.59,45.85c-8.14,56.02-16.3,112.03-24.46,168.04c-1.2,8.26-2.26,16.56-3.71,24.78
				c-4.97,28.09-24.77,44.64-53.41,44.65c-80.81,0.03-161.63,0.01-242.44,0.01c-51.55,0-103.12-0.67-154.65,0.28
				c-27.09,0.5-51.44-17.67-55.44-46.89c-6.77-49.41-14.17-98.74-21.34-148.1c-3.93-27.09-7.93-54.17-11.88-81.26
				c-0.33-2.25-0.48-4.53-0.77-7.36C223.84,335.26,414.82,335.26,607.03,335.26z M158.73,477.13c0-16.24,0.01-32.47,0-48.71
				c-0.01-11.6,0.25-23.2-0.14-34.79c-0.35-10.33-8.25-16.69-17.54-14.81c-7.45,1.51-11.37,7.4-11.37,17.48
				c-0.03,53.58-0.02,107.16-0.01,160.74c0,1.62,0,3.26,0.18,4.86c0.8,7.29,6.76,12.88,13.88,13.11
				c6.85,0.22,13.09-4.69,14.42-11.65c0.52-2.71,0.56-5.53,0.56-8.3C158.75,529.09,158.73,503.11,158.73,477.13z M508.04,476.96
				c-0.01,0-0.02,0-0.03,0c0-27.84,0.1-55.67-0.06-83.51c-0.05-8.66-5.59-14.4-13.43-14.83c-8.21-0.45-14.37,5-15.38,13.68
				c-0.21,1.84-0.18,3.7-0.18,5.56c-0.01,52.66-0.02,105.31,0.02,157.97c0,2.76,0.1,5.61,0.75,8.28
				c1.93,7.95,10.07,12.54,17.71,10.25c7.12-2.13,10.54-7.1,10.57-15.98C508.08,531.24,508.04,504.1,508.04,476.96z M333.46,476.27
				c0-27.38,0.09-54.75-0.05-82.13c-0.05-9.22-6.05-15.43-14.33-15.55c-8.34-0.12-14.73,6.05-14.74,15.08
				c-0.11,55.45-0.07,110.9-0.03,166.34c0.01,6.39,3.06,11.13,8.93,13.72c10.21,4.5,20.13-2.95,20.18-15.34
				C333.54,531.03,333.47,503.65,333.46,476.27z M420.89,476.72c0-26.21,0.03-52.42-0.04-78.64c-0.01-2.99-0.08-6.1-0.86-8.95
				c-1.78-6.51-6.31-10.13-13.1-10.48c-6.83-0.35-11.6,3-14.11,9.17c-0.92,2.26-0.97,4.99-0.97,7.51
				c-0.05,54.28-0.04,108.56-0.03,162.84c0,1.39,0,2.79,0.18,4.17c0.87,6.86,6.74,12.31,13.6,12.68
				c6.52,0.35,12.84-4.14,14.45-10.71c0.71-2.88,0.83-5.96,0.84-8.95C420.92,529.14,420.89,502.93,420.89,476.72z M245.92,476.54
				c0.01,0,0.02,0,0.02,0c0-7.42,0-14.85,0-22.27c-0.01-20.41,0.1-40.83-0.11-61.24c-0.08-8.15-5.64-13.84-13.17-14.38
				c-7.95-0.57-14.27,4.52-15.55,12.71c-0.36,2.27-0.3,4.62-0.3,6.94c-0.02,20.88-0.01,41.76-0.01,62.63c0,31.09,0,62.17,0.01,93.26
				c0,2.32-0.11,4.66,0.15,6.95c0.94,8.22,7.14,14.01,14.7,13.89c7.91-0.12,14.15-6.35,14.19-14.98
				C246.01,532.21,245.92,504.37,245.92,476.54z"/>
			
				<linearGradient id="SVGID_00000051346996119766580260000007189316430937672844_" gradientUnits="userSpaceOnUse" x1="18.6245" y1="512.6825" x2="528.5776" y2="136.7742">
				<stop  offset="0" style="stop-color:#FFFFFF;stop-opacity:0.4"/>
				<stop  offset="0.0691" style="stop-color:#FFFFFF;stop-opacity:0.3435"/>
				<stop  offset="0.4892" style="stop-color:#FFFFFF;stop-opacity:0"/>
				<stop  offset="0.7527" style="stop-color:#FAFAFA;stop-opacity:0.1032"/>
				<stop  offset="1" style="stop-color:#EFEFEF;stop-opacity:0.2"/>
			</linearGradient>
			<path style="fill:url(#SVGID_00000051346996119766580260000007189316430937672844_);" d="M371.47,262.22
				c-0.79,5.68-2.62,11.43-2.19,17c1.6,20.77,20.24,33.73,41.47,28.82c55.11-12.76,110.11-25.96,165.23-38.67
				c13.94-3.21,28.09-5.77,42.27-7.61c11.35-1.47,21.05,7.05,21.97,18.41c0.54,6.68,0.5,13.48,0.02,20.17
				c-0.73,10.01-8.4,17.56-18.41,18.73c-2.76,0.32-5.56,0.32-8.34,0.32c-195.51,0.01-391.02,0.01-586.53,0
				c-2.55,0-5.12,0.01-7.65-0.25C8.6,318.03,0.88,310.21,0.26,299.5c-0.35-6.02-0.34-12.08-0.02-18.1
				c0.61-11.34,8.77-19.39,20.2-19.93c6.95-0.33,13.93-0.15,20.89-0.15c50.39-0.01,100.77,0,151.16,0c2.71,0,5.42,0,8.77,0
				c-0.54,2.84-0.89,4.6-1.2,6.38c-2.77,15.51,4.61,32.58,25.01,37.97c16.38,4.33,32.89-4.89,38.12-22.35
				c2.05-6.85,3.6-13.86,5.46-21.09C303.18,262.22,337.46,262.22,371.47,262.22z"/>
			
				<linearGradient id="SVGID_00000025426540454234465780000011919413914201310091_" gradientUnits="userSpaceOnUse" x1="-15.4353" y1="466.4774" x2="494.5178" y2="90.5691">
				<stop  offset="0" style="stop-color:#FFFFFF;stop-opacity:0.4"/>
				<stop  offset="0.0691" style="stop-color:#FFFFFF;stop-opacity:0.3435"/>
				<stop  offset="0.4892" style="stop-color:#FFFFFF;stop-opacity:0"/>
				<stop  offset="0.7527" style="stop-color:#FAFAFA;stop-opacity:0.1032"/>
				<stop  offset="1" style="stop-color:#EFEFEF;stop-opacity:0.2"/>
			</linearGradient>
			<path style="fill:url(#SVGID_00000025426540454234465780000011919413914201310091_);" d="M325.9,247.07c-9.57,0-18.73,0-28.33,0
				c-1.87-18.18,2.35-34.65,11.48-49.98c5.1-8.57,10.77-16.81,15.58-25.54c14.7-26.67,22.58-55.25,23.13-85.77
				c0.07-4.11,0.01-8.22,0.01-12.73c22.25,0,43.48,0,64.87,0c0.98,11.78,1.58,23.32,2.96,34.76c2.53,20.93,9.27,40.6,18.82,59.35
				c9.6,18.86,24.52,34.97,28.61,57.83c3.08-4.49,5.27-7.68,7.7-11.21c4.87,2.79,9.37,5.37,15.28,8.76
				c-14.41,3.49-27.21,6.52-39.96,9.71c-19.54,4.89-39.02,10.05-58.6,14.74c-3.97,0.95-8.31,0.44-12.47,0.46
				c-11.11,0.05-22.21,0.02-34.02,0.02c-0.38-10.71,2.33-20.07,6.63-29.08c1-2.09,2.36-4.01,3.31-6.11
				c1.84-4.07,1.61-7.92-2.74-10.15c-4.11-2.11-8.37-1.16-9.98,3.16c-4.24,11.41-7.87,23.06-11.56,34.67
				C325.94,242.07,326.13,244.46,325.9,247.07z"/>
			
				<linearGradient id="SVGID_00000035492528227717570870000010369707580121732789_" gradientUnits="userSpaceOnUse" x1="41.4191" y1="543.6053" x2="551.3721" y2="167.697">
				<stop  offset="0" style="stop-color:#FFFFFF;stop-opacity:0.4"/>
				<stop  offset="0.0691" style="stop-color:#FFFFFF;stop-opacity:0.3435"/>
				<stop  offset="0.4892" style="stop-color:#FFFFFF;stop-opacity:0"/>
				<stop  offset="0.7527" style="stop-color:#FAFAFA;stop-opacity:0.1032"/>
				<stop  offset="1" style="stop-color:#EFEFEF;stop-opacity:0.2"/>
			</linearGradient>
			<path style="fill:url(#SVGID_00000035492528227717570870000010369707580121732789_);" d="M506.45,151.05
				c5.77-9.23,10.4-18.16,16.43-26.01c23.24-30.2,64.98-37.41,97.36-17.29c17.07,10.61,21.66,28.86,11.55,46.18
				c-7.24,12.41-14.43,24.86-22.04,37.05c-1.48,2.37-4.53,4.57-7.26,5.24c-27.67,6.79-55.44,13.16-83.13,19.9
				c-3.82,0.93-5.92-0.04-9.11-2.27c-9.26-6.49-19.21-11.99-29.65-18.33c4.75-8.32,9.39-16.44,14.41-25.22
				c9.78,5.7,19.02,11.33,28.48,16.55c7.91,4.37,16.06,0.09,16.83-8.54c0.47-5.31-2.36-8.67-6.7-11.21
				C524.85,161.99,516.12,156.77,506.45,151.05z"/>
			
				<linearGradient id="SVGID_00000023982932691509733930000014655760622670648720_" gradientUnits="userSpaceOnUse" x1="-101.7235" y1="349.4197" x2="408.2296" y2="-26.4886">
				<stop  offset="0" style="stop-color:#FFFFFF;stop-opacity:0.4"/>
				<stop  offset="0.0691" style="stop-color:#FFFFFF;stop-opacity:0.3435"/>
				<stop  offset="0.4892" style="stop-color:#FFFFFF;stop-opacity:0"/>
				<stop  offset="0.7527" style="stop-color:#FAFAFA;stop-opacity:0.1032"/>
				<stop  offset="1" style="stop-color:#EFEFEF;stop-opacity:0.2"/>
			</linearGradient>
			<path style="fill:url(#SVGID_00000023982932691509733930000014655760622670648720_);" d="M171.08,247.47
				c-2.38-13.91,0.89-26.21,4.06-38.58c5.24-20.43,10.27-40.92,15.37-61.39c0.43-1.74,0.69-3.53,1.16-6.01
				c-2.7-0.18-4.9-0.45-7.11-0.46c-32.74-0.03-65.48,0.12-98.21-0.16c-5.45-0.05-7.63,1.62-8.89,6.87
				c-6.12,25.46-12.93,50.77-18.83,76.28c-1.69,7.29-1.15,15.09-1.65,23.04c-4.48,0-8.78,0-14.56,0c0.61-9.13,0.1-18.29,2.02-26.91
				c5.49-24.65,12.07-49.06,17.92-73.64c0.66-2.79-0.74-6.01-0.84-9.05c-0.3-9.89-0.98-19.84-0.15-29.65
				c0.16-1.83,6.61-4.44,10.17-4.47c34.13-0.34,68.26-0.2,102.39-0.2c9.29,0,18.57,0.05,27.86-0.01c6.31-0.04,9.9,2.78,9.15,9.28
				c-2.71,23.29,3.13,45.37,9.04,67.49c0.79,2.97,0.73,6.51-0.03,9.51c-4.38,17.3-9.3,34.47-13.57,51.79
				c-1.25,5.08-3.55,6.6-8.59,6.37C189.04,247.18,180.24,247.47,171.08,247.47z"/>
			
				<linearGradient id="SVGID_00000129903298896212225660000007328401029585978518_" gradientUnits="userSpaceOnUse" x1="-61.0026" y1="404.6612" x2="448.9505" y2="28.7529">
				<stop  offset="0" style="stop-color:#FFFFFF;stop-opacity:0.4"/>
				<stop  offset="0.0691" style="stop-color:#FFFFFF;stop-opacity:0.3435"/>
				<stop  offset="0.4892" style="stop-color:#FFFFFF;stop-opacity:0"/>
				<stop  offset="0.7527" style="stop-color:#FAFAFA;stop-opacity:0.1032"/>
				<stop  offset="1" style="stop-color:#EFEFEF;stop-opacity:0.2"/>
			</linearGradient>
			<path style="fill:url(#SVGID_00000129903298896212225660000007328401029585978518_);" d="M231.28,292.37
				c-13.3-0.04-21.1-11.71-17.24-26.06c13.11-48.81,26.3-97.59,39.44-146.4c5.42-20.15,10.69-40.34,16.22-60.45
				c2.71-9.87,10.38-15.72,19.08-15.14c8.88,0.59,16.55,7.51,17.33,16.21c0.28,3.14-0.26,6.5-1.08,9.58
				c-18.35,68.52-36.78,137.03-55.22,205.53C246.85,286.62,240.37,292.4,231.28,292.37z"/>
			
				<linearGradient id="SVGID_00000075125320973231778380000016185103154287488405_" gradientUnits="userSpaceOnUse" x1="66.2989" y1="577.357" x2="576.252" y2="201.4488">
				<stop  offset="0" style="stop-color:#FFFFFF;stop-opacity:0.4"/>
				<stop  offset="0.0691" style="stop-color:#FFFFFF;stop-opacity:0.3435"/>
				<stop  offset="0.4892" style="stop-color:#FFFFFF;stop-opacity:0"/>
				<stop  offset="0.7527" style="stop-color:#FAFAFA;stop-opacity:0.1032"/>
				<stop  offset="1" style="stop-color:#EFEFEF;stop-opacity:0.2"/>
			</linearGradient>
			<path style="fill:url(#SVGID_00000075125320973231778380000016185103154287488405_);" d="M612.47,208.58
				c10.11-0.08,18.09,6.38,19.42,14.86c1.55,9.92-4.25,18.61-14.71,21.23c-14.83,3.71-29.75,7.08-44.63,10.58
				c-54.79,12.91-109.57,25.85-164.37,38.72c-11.7,2.75-21.77-2.54-24.3-12.52c-2.64-10.44,3.88-19.97,15.87-22.82
				c69.41-16.49,138.84-32.93,208.27-49.37C609.81,208.85,611.67,208.7,612.47,208.58z"/>
			
				<linearGradient id="SVGID_00000093873698737094756400000001909374334592537752_" gradientUnits="userSpaceOnUse" x1="-79.43" y1="379.6628" x2="430.5231" y2="3.7546">
				<stop  offset="0" style="stop-color:#FFFFFF;stop-opacity:0.4"/>
				<stop  offset="0.0691" style="stop-color:#FFFFFF;stop-opacity:0.3435"/>
				<stop  offset="0.4892" style="stop-color:#FFFFFF;stop-opacity:0"/>
				<stop  offset="0.7527" style="stop-color:#FAFAFA;stop-opacity:0.1032"/>
				<stop  offset="1" style="stop-color:#EFEFEF;stop-opacity:0.2"/>
			</linearGradient>
			<path style="fill:url(#SVGID_00000093873698737094756400000001909374334592537752_);" d="M381.53,21.8
				c10.19,0,20.39,0.14,30.58-0.05c6.36-0.12,9.54,2.4,9.36,8.99c-0.18,6.48-0.05,12.97-0.05,19.46c0,5.12-2.7,7.85-7.67,7.88
				c-21.55,0.1-43.09,0.09-64.64,0c-4.59-0.02-7.43-2.43-7.48-7.29c-0.07-7.18-0.07-14.36-0.01-21.54c0.04-5.19,2.89-7.46,7.95-7.44
				C360.21,21.85,370.87,21.82,381.53,21.8z"/>
			
				<linearGradient id="SVGID_00000073720217568788502380000005940561590006321280_" gradientUnits="userSpaceOnUse" x1="-82.1824" y1="375.9289" x2="427.7707" y2="0.0206">
				<stop  offset="0" style="stop-color:#FFFFFF;stop-opacity:0.4"/>
				<stop  offset="0.0691" style="stop-color:#FFFFFF;stop-opacity:0.3435"/>
				<stop  offset="0.4892" style="stop-color:#FFFFFF;stop-opacity:0"/>
				<stop  offset="0.7527" style="stop-color:#FAFAFA;stop-opacity:0.1032"/>
				<stop  offset="1" style="stop-color:#EFEFEF;stop-opacity:0.2"/>
			</linearGradient>
			<path style="fill:url(#SVGID_00000073720217568788502380000005940561590006321280_);" d="M113.46,247.47
				c-5.11,0-10.33,0.65-15.28-0.25c-2.87-0.52-6.48-2.97-7.68-5.53c-3.67-7.86-0.05-20.54,6.76-26.93
				c7.26-6.81,18.87-8.56,27.9-4.21c8.84,4.26,14.15,13.3,13.62,23.19c-0.56,10.56-3.83,13.73-14.18,13.73
				C120.89,247.47,117.17,247.47,113.46,247.47z"/>
		</g>
	</g>
</g>
<g id="_x30_8" class="st0">
	<g class="st1">
		<g>
			<path class="st29" d="M564.82,254.66c-1.63-11.05-3.16-22.18-5.76-33.03C523.19,71.52,372.71-21.18,222.47,14.15
				c-145.08,34.11-238.68,177.73-211,323.8c21.21,111.96,107.75,200.06,219.06,222.67c12.16,2.47,24.55,3.68,36.84,5.48
				c-8.08-12.16-13.63-23.97-14.08-37.74c-0.71-20.76,9.65-35.94,23.68-50.14c20.08-20.33,42.56-27.49,69.87-17.37
				c1.83,0.67,5.07,0.69,6.23-0.45c6.1-5.95,11.73-12.36,17.71-18.79c-8.85-7.56-17-14.51-25.15-21.47
				c-8.15-6.98-16.42-13.82-24.42-20.96c-20.51-18.36-26.12-47.35-12.3-70.54c10.27-17.22,24.46-31.36,42.58-40.41
				c20.91-10.45,42.34-10.12,63.25,0.5c21.97,11.18,43.78,22.7,65.43,33.96c0.84-0.58,1.29-0.79,1.61-1.12
				c2.73-2.88,5.52-5.7,8.12-8.7c20.05-23.21,42.13-43.59,72.32-53.09C563.53,259.37,565.06,256.26,564.82,254.66z M195.26,417.11
				c-4.15,15.75-8.4,31.51-13.63,46.9c-2.99,8.83-8.06,16.92-12.62,26.2c-59.64-36.82-96.61-87.44-112.58-155.46
				c17.88-2.6,34.6-5.52,51.45-7.29c10.08-1.07,20.63-1.91,30.48-0.15C180.05,334.75,206.05,376.23,195.26,417.11z M405.82,90.61
				c-1.7,31.1-12.25,57.15-33.19,78.56c-13.37,13.65-29.47,17.19-47.48,10.58c-9.82-3.61-19.37-7.99-29.23-11.56
				c-24.18-8.77-49.05,3.8-56.66,28.44c-7.31,23.62-22.44,34.86-47.28,33.9c-42.1-1.61-78.19-17.41-108.37-46.9
				c-4.15-4.04-4.9-7.27-1.68-12.53C131.86,89.38,204.55,49.06,300.35,51.98C335.3,53.05,368.14,63.5,399,80.07
				C404.09,82.8,407.41,85.73,405.82,90.61z"/>
			<path class="st30" d="M601.7,534.36c7.48,14.4,5.93,24.57-5.37,36.04c-3.27,3.31-6.55,6.66-9.89,9.89
				c-7.61,7.33-14.62,7.14-21.52-0.9c-21.58-25.11-43.03-50.34-64.55-75.51c-1.81-2.11-3.68-4.19-6.23-7.09
				c-14.01,12.88-27.55,25.32-41.07,37.79c-10.29,9.48-20.4,19.17-30.87,28.42c-3.5,3.09-4.47,5.63-2.73,10.15
				c3.78,9.76,6.71,19.84,10.27,29.7c2.26,6.23,1.01,11.41-3.57,15.95c-3.65,3.63-7.14,7.39-10.94,10.83
				c-6.71,6.08-13.5,5.78-19.52-0.95c-5.44-6.08-10.87-12.19-15.84-18.66c-20.96-27.21-47.07-49.07-73.25-70.86
				c-11.43-9.52-10.85-14.57-1.31-25.94c9.71-11.58,19.79-14.79,33.51-7.93c6.6,3.31,13.93,5.31,21.11,7.22
				c2.3,0.62,6.13-0.07,7.67-1.7c22.03-23.45,43.82-47.14,65.64-70.8c0.45-0.5,0.75-1.16,1.59-2.45
				c-6.19-5.39-12.42-10.87-18.72-16.23c-20.57-17.58-41.18-35.1-61.75-52.66c-10.47-8.94-10.72-15.13-0.99-24.91
				c3.12-3.14,6.21-6.3,9.41-9.37c10.15-9.74,20.72-11.41,33.21-4.94c29.17,15.09,58.35,30.15,87.33,45.61
				c5.33,2.84,8.28,2.17,12.19-2.19c14.03-15.62,28.31-31.01,42.81-46.19c18.66-19.56,41.57-29.47,68.78-28.71
				c17.45,0.49,26.48,9.57,26.89,27.17c0.62,26.93-9.09,49.69-28.46,68.2c-15.33,14.66-30.93,29.08-46.68,43.31
				c-4.08,3.7-5.01,6.34-2.17,11.63C571.98,476.84,586.77,505.64,601.7,534.36z"/>
		</g>
		<g>
			
				<linearGradient id="SVGID_00000067221129442581975630000005736699235218398396_" gradientUnits="userSpaceOnUse" x1="6.62" y1="286.3685" x2="564.8431" y2="286.3685">
				<stop  offset="0" style="stop-color:#FFFFFF;stop-opacity:0.4"/>
				<stop  offset="0.0691" style="stop-color:#FFFFFF;stop-opacity:0.3435"/>
				<stop  offset="0.4892" style="stop-color:#FFFFFF;stop-opacity:0"/>
				<stop  offset="0.7527" style="stop-color:#FAFAFA;stop-opacity:0.1032"/>
				<stop  offset="1" style="stop-color:#EFEFEF;stop-opacity:0.2"/>
			</linearGradient>
			<path style="fill:url(#SVGID_00000067221129442581975630000005736699235218398396_);" d="M564.82,254.66
				c-1.63-11.05-3.16-22.18-5.76-33.03C523.19,71.52,372.71-21.18,222.47,14.15c-145.08,34.11-238.68,177.73-211,323.8
				c21.21,111.96,107.75,200.06,219.06,222.67c12.16,2.47,24.55,3.68,36.84,5.48c-8.08-12.16-13.63-23.97-14.08-37.74
				c-0.71-20.76,9.65-35.94,23.68-50.14c20.08-20.33,42.56-27.49,69.87-17.37c1.83,0.67,5.07,0.69,6.23-0.45
				c6.1-5.95,11.73-12.36,17.71-18.79c-8.85-7.56-17-14.51-25.15-21.47c-8.15-6.98-16.42-13.82-24.42-20.96
				c-20.51-18.36-26.12-47.35-12.3-70.54c10.27-17.22,24.46-31.36,42.58-40.41c20.91-10.45,42.34-10.12,63.25,0.5
				c21.97,11.18,43.78,22.7,65.43,33.96c0.84-0.58,1.29-0.79,1.61-1.12c2.73-2.88,5.52-5.7,8.12-8.7
				c20.05-23.21,42.13-43.59,72.32-53.09C563.53,259.37,565.06,256.26,564.82,254.66z M195.26,417.11
				c-4.15,15.75-8.4,31.51-13.63,46.9c-2.99,8.83-8.06,16.92-12.62,26.2c-59.64-36.82-96.61-87.44-112.58-155.46
				c17.88-2.6,34.6-5.52,51.45-7.29c10.08-1.07,20.63-1.91,30.48-0.15C180.05,334.75,206.05,376.23,195.26,417.11z M405.82,90.61
				c-1.7,31.1-12.25,57.15-33.19,78.56c-13.37,13.65-29.47,17.19-47.48,10.58c-9.82-3.61-19.37-7.99-29.23-11.56
				c-24.18-8.77-49.05,3.8-56.66,28.44c-7.31,23.62-22.44,34.86-47.28,33.9c-42.1-1.61-78.19-17.41-108.37-46.9
				c-4.15-4.04-4.9-7.27-1.68-12.53C131.86,89.38,204.55,49.06,300.35,51.98C335.3,53.05,368.14,63.5,399,80.07
				C404.09,82.8,407.41,85.73,405.82,90.61z"/>
			
				<linearGradient id="SVGID_00000042717231986937741640000005901257648991716482_" gradientUnits="userSpaceOnUse" x1="298.0813" y1="465.9619" x2="634" y2="465.9619">
				<stop  offset="0" style="stop-color:#FFFFFF;stop-opacity:0.4"/>
				<stop  offset="0.0691" style="stop-color:#FFFFFF;stop-opacity:0.3435"/>
				<stop  offset="0.4892" style="stop-color:#FFFFFF;stop-opacity:0"/>
				<stop  offset="0.7527" style="stop-color:#FAFAFA;stop-opacity:0.1032"/>
				<stop  offset="1" style="stop-color:#EFEFEF;stop-opacity:0.2"/>
			</linearGradient>
			<path style="fill:url(#SVGID_00000042717231986937741640000005901257648991716482_);" d="M601.7,534.36
				c7.48,14.4,5.93,24.57-5.37,36.04c-3.27,3.31-6.55,6.66-9.89,9.89c-7.61,7.33-14.62,7.14-21.52-0.9
				c-21.58-25.11-43.03-50.34-64.55-75.51c-1.81-2.11-3.68-4.19-6.23-7.09c-14.01,12.88-27.55,25.32-41.07,37.79
				c-10.29,9.48-20.4,19.17-30.87,28.42c-3.5,3.09-4.47,5.63-2.73,10.15c3.78,9.76,6.71,19.84,10.27,29.7
				c2.26,6.23,1.01,11.41-3.57,15.95c-3.65,3.63-7.14,7.39-10.94,10.83c-6.71,6.08-13.5,5.78-19.52-0.95
				c-5.44-6.08-10.87-12.19-15.84-18.66c-20.96-27.21-47.07-49.07-73.25-70.86c-11.43-9.52-10.85-14.57-1.31-25.94
				c9.71-11.58,19.79-14.79,33.51-7.93c6.6,3.31,13.93,5.31,21.11,7.22c2.3,0.62,6.13-0.07,7.67-1.7
				c22.03-23.45,43.82-47.14,65.64-70.8c0.45-0.5,0.75-1.16,1.59-2.45c-6.19-5.39-12.42-10.87-18.72-16.23
				c-20.57-17.58-41.18-35.1-61.75-52.66c-10.47-8.94-10.72-15.13-0.99-24.91c3.12-3.14,6.21-6.3,9.41-9.37
				c10.15-9.74,20.72-11.41,33.21-4.94c29.17,15.09,58.35,30.15,87.33,45.61c5.33,2.84,8.28,2.17,12.19-2.19
				c14.03-15.62,28.31-31.01,42.81-46.19c18.66-19.56,41.57-29.47,68.78-28.71c17.45,0.49,26.48,9.57,26.89,27.17
				c0.62,26.93-9.09,49.69-28.46,68.2c-15.33,14.66-30.93,29.08-46.68,43.31c-4.08,3.7-5.01,6.34-2.17,11.63
				C571.98,476.84,586.77,505.64,601.7,534.36z"/>
		</g>
	</g>
</g>
</svg>
