<?xml version="1.0" encoding="utf-8"?>
<!-- Generator: Adobe Illustrator 27.7.0, SVG Export Plug-In . SVG Version: 6.00 Build 0)  -->
<svg version="1.1" id="Layer_1" xmlns="http://www.w3.org/2000/svg" xmlns:xlink="http://www.w3.org/1999/xlink" x="0px" y="0px"
	 viewBox="0 0 640.6 640.6" style="enable-background:new 0 0 640.6 640.6;" xml:space="preserve">
<style type="text/css">
	.st0{fill:#4E2972;}
</style>
<g>
	<g>
		<path class="st0" d="M331.6,630.5c-6,0-12,0-18,0c-0.1-0.2-0.1-0.5-0.2-0.6c-27.1-9-53.2-20.4-78.2-34.3
			c-22-12.3-42.8-26.4-61.4-43.3c-22.7-20.7-42.7-43.6-58.5-70.2c-16.5-27.9-29.4-57.2-37-88.6c-5.3-21.9-8.8-44.3-12.1-66.6
			c-2.5-17.3-4.6-34.8-4.8-52.3c-0.4-38.1,0.3-76.3,1.1-114.4c0.5-21.2,10.9-37.5,27.6-50c14-10.5,30.9-10.9,47.2-13.3
			c17.4-2.5,35-4.2,51.8-9c39.1-11,73.7-30.6,103-59.2c15.7-15.3,36.1-18.4,54.5-4.9c8.3,6.1,15.5,13.5,23.5,19.9
			c18.6,15.1,39,27.2,61.2,35.9c27.4,10.8,55.8,16.9,85.3,18.7c11.9,0.7,23.7,2.8,34.5,9.3c19.8,12,31,29.6,32.3,52.2
			c1.6,27.1,1.2,54.3,1.4,81.4c0.1,6.5-0.8,13-1.1,19.5c-0.8,15.4-1.1,30.9-2.5,46.3c-1.4,15.4-3.2,30.9-6,46.1
			c-3.7,19.6-7.5,39.3-13.3,58.4c-14.6,48-39.7,90.1-74.8,126c-18.8,19.2-39.6,36.1-62.9,49.3c-18.7,10.6-38.1,20-57.5,29.2
			C355.4,621.7,343.4,625.8,331.6,630.5z M322,475.5c82.4,2.3,158.5-68.6,154-161c-3.7-74-66.7-148.4-161.7-144.2
			c-77.4,3.5-144.4,67.6-144.4,153.3C169.7,406.5,238.2,476.9,322,475.5z"/>
		<path class="st0" d="M322.7,206.4c66.3-0.7,113.1,51.3,117,106.6c5.3,76-54.1,129.6-122,127.3c-59.5-2-114.4-50.9-111.9-123
			C207.8,259.3,256.4,204.9,322.7,206.4z M295.4,346.5c-6.4-6.5-12.4-12.3-18.1-18.5c-5.8-6.3-17.6-6.2-21.9-3.7
			c-11,6.2-12.8,19.4-4,28.5c9.9,10.2,20.3,19.9,30,30.3c9.2,9.9,19.4,9.3,28.2,0.7c27.5-26.8,54.6-54.1,81.6-81.5
			c11.1-11.3,7.3-22.6-1.8-28.5c-8.3-5.4-16-5.1-25.5,4.4C341.3,300.5,318.7,323.2,295.4,346.5z"/>
	</g>
</g>
</svg>
