<?xml version="1.0" encoding="utf-8"?>
<!-- Generator: Adobe Illustrator 27.7.0, SVG Export Plug-In . SVG Version: 6.00 Build 0)  -->
<svg version="1.1" id="report" xmlns="http://www.w3.org/2000/svg" xmlns:xlink="http://www.w3.org/1999/xlink" x="0px" y="0px"
	 viewBox="0 0 640.6 640.6" style="enable-background:new 0 0 640.6 640.6;" xml:space="preserve">
<style type="text/css">
	.st0{fill:#F2EFF4;}
	.st1{fill:#FFFFFF;}
	.st2{fill:url(#SVGID_1_);}
	.st3{fill:url(#SVGID_00000061450229032964192800000013258382602243575720_);}
	.st4{fill:url(#SVGID_00000086658123561885688360000004265208789834477496_);}
	.st5{fill:url(#SVGID_00000111180972959122851400000010500783715447335100_);}
	.st6{fill:url(#SVGID_00000174577989665112340480000015892718741629881781_);}
</style>
<path class="st0" d="M64.9,320.6c1.9-1.5,4.1-2.8,5.8-4.6c97.8-97.8,195.7-195.6,293.4-293.5c4.1-4.1,8-5.5,13.6-5.5
	c54.6,0.2,109.3,0.1,163.9,0.1c2.5,0,5,0,8,0c0,14.4,0,28.5,0,43.5c-6.8,0-13.7,0.4-20.6-0.2c-1.8-0.2-3.8-3.2-5-5.3
	c-8.3-13.8-25.2-19.7-40.1-13.9c-14.5,5.7-23.2,21.2-20.3,36.1c3.2,16.3,17.3,27.7,33.6,26.8c12.2-0.7,21.6-6.5,27.3-17.4
	c1.8-3.3,3.7-4.5,7.3-4.3c5.8,0.3,11.7,0.1,18,0.1c0.2,2.4,0.4,4.4,0.4,6.3c0,34.5,0.1,68.9-0.2,103.4c0,3.1-1.7,7.1-3.9,9.3
	c-82.1,82.4-164.4,164.6-246.6,247c-3.2,3.2-6.4,4.3-10.7,4.3c-17.2-0.2-34.5,0-51.7-0.1c-10.2-0.1-19.7,2-28.8,6.6
	c-1.8,0.9-5.4,0.6-6.7-0.7c-45.2-44.9-90.2-90-135.3-135.1C66,323.1,65.9,322.6,64.9,320.6z M424.2,266.3c18.8,0,33-11.9,36.4-29
	c0.5-2.4,2.6-5.1,4.8-6.3c17.8-9.6,24.1-28.6,15.6-47c-0.9-1.9-1.1-4.8-0.2-6.7c8.8-19.7,2.8-37.5-16.1-47.8c-1.8-1-3.6-3.4-4-5.4
	c-4.1-19.8-20.8-31.8-40.9-29.4c-2.4,0.3-5.7-0.5-7.5-2.1c-15.3-13.5-35.3-13.6-50.6-0.1c-1.8,1.6-5.1,2.6-7.5,2.3
	c-20.1-2.4-37.1,9.6-41.1,29.1c-0.5,2.3-2.9,4.9-5,6.1c-17.4,9.5-23.7,28.7-15.4,46.6c1,2.1,1.1,5.3,0.2,7.3
	c-8.7,19-2.6,37.1,16,47.4c2,1.1,3.9,3.7,4.4,5.9c3.8,19.2,20.8,31.6,40.5,28.8c4-0.6,6.1,0.4,8.8,2.9c12.8,11.7,31.5,13.2,45,3
	C413,267.5,417.9,263.4,424.2,266.3z M306.5,336.9c-29.1-29.1-57.9-57.9-86-86c-4.7,4.2-9.8,8.9-13.8,12.5c29,29,57.7,57.8,85.9,86
	C297,345.5,302,341,306.5,336.9z M349.9,315c-22.8-22.8-45.2-45.1-66.8-66.7c-4.6,4.1-9.8,8.8-14.2,12.7c22.6,22.6,45,45,67.2,67.3
	C340.6,324.1,345.4,319.4,349.9,315z M110.7,339.2c21.7-21.7,43.2-43.2,63.9-63.9c-4.1-4.6-8.7-9.7-12.8-14.2
	c-21.7,21.6-43.1,43-64.7,64.5C101.7,330.1,106.6,335,110.7,339.2z M130.8,357.7c4.2,4.6,8.8,9.8,12.3,13.7
	c21.7-21.7,43.2-43.2,64.4-64.3c-3.9-4.2-8.5-9.1-12.6-13.4C173.1,315.5,151.6,337,130.8,357.7z M227.6,326.6
	c-21.7,21.7-43.3,43.2-63.7,63.6c4.1,4.6,8.6,9.8,12.7,14.4c21.5-21.5,42.9-42.9,64.5-64.4C236.6,335.6,231.7,330.7,227.6,326.6z
	 M195.2,423.6c4.5,4.5,9.3,9.4,13.5,13.6c21.7-21.7,43.2-43.2,63.9-63.9c-4.1-4.6-8.7-9.7-12.8-14.3
	C238.1,380.7,216.7,402.1,195.2,423.6z M274.1,437.5c10.9-10.9,21.5-21.5,31.8-31.8c-4.3-4.6-9-9.6-12.9-13.6
	c-10.9,10.9-21.5,21.5-31.7,31.6C265.4,428,270,433,274.1,437.5z M228.1,219.8c9,9.2,17.4,17.8,25.2,25.8c4.7-4.5,9.6-9.3,13.6-13.2
	c-8.4-8.5-17-17.1-25.6-25.7C237,211,232.2,215.7,228.1,219.8z"/>
<path class="st0" d="M527.6,626.8c-2.7,0-5.2,0-7.7,0c-105,0-210-0.1-314.9,0.1c-15.1,0-29-3.2-42.5-10
	c-41.8-21.1-83.6-42.4-125.8-62.7c-17.6-8.5-24.1-26.4-17.3-40.8c7.4-15.6,27.1-21.9,44.5-13.5c21.6,10.4,43,21.2,64.5,31.9
	c17.9,8.9,35.6,17.9,53.6,26.5c3.9,1.9,8.6,3.1,12.9,3.1c44.7,0.2,89.3,0.2,134,0.1c3.1,0,7.4-0.1,8.9-1.9c2.6-3.1,5-7.8,4.7-11.5
	c-0.4-5.4-5.1-8.2-10.8-8.2c-11.8,0-23.6,0-35.4,0c-20,0-39.9,0-59.9,0c-20.1-0.1-34.9-14.1-34.7-33c0.1-18.5,14.9-32.3,34.7-32.3
	c28.6,0,57.1,0.2,85.7-0.2c6-0.1,12.6-1.8,17.8-4.8c20-11.2,40.2-21.9,63.2-25.5c45.6-7.1,86.2,4,121.9,33.2c1.6,1.4,3.1,4,3.1,6.1
	c0.1,47.2,0.1,94.3,0,141.5C528.3,625.2,528,625.6,527.6,626.8z"/>
<path class="st0" d="M625.9,626.5c-25.3,0-50.2,0-75.4,0c0-57.8,0-115.3,0-173.3c24.9,0,49.9,0,75.4,0
	C625.9,510.7,625.9,568.3,625.9,626.5z M604.6,578c0.1-8.9-7.3-16.5-16.2-16.5c-9,0-16.4,7.5-16.3,16.4c0,8.7,7.2,15.9,15.9,16.1
	C596.9,594.3,604.5,587,604.6,578z"/>
<path class="st0" d="M114.7,60.4c0.1-30,24.7-54.3,54.8-54.2c29.7,0.2,54,24.6,54,54.3c0,30.1-24.4,54.5-54.5,54.5
	C139.1,115.1,114.6,90.5,114.7,60.4z"/>
<path class="st1" d="M572.1,125.9c0-14.7,0-28.5,0-42.5c12.8,0,25.7-1.1,38.3,0.3c10.3,1.2,16.7,11.9,15.9,22.2
	c-0.8,10.2-8.9,19.2-19.1,19.8C595.7,126.4,584.2,125.9,572.1,125.9z"/>
<g>
	
		<linearGradient id="SVGID_1_" gradientUnits="userSpaceOnUse" x1="64.88" y1="402.2382" x2="550.2246" y2="402.2382" gradientTransform="matrix(1 0 0 -1 0 640.62)">
		<stop  offset="0" style="stop-color:#FFFFFF;stop-opacity:0.4"/>
		<stop  offset="6.910000e-02" style="stop-color:#FFFFFF;stop-opacity:0.3435"/>
		<stop  offset="0.4892" style="stop-color:#FFFFFF;stop-opacity:0"/>
		<stop  offset="0.7527" style="stop-color:#FAFAFA;stop-opacity:0.1032"/>
		<stop  offset="1" style="stop-color:#EFEFEF;stop-opacity:0.2"/>
	</linearGradient>
	<path class="st2" d="M64.9,320.6c1.9-1.5,4.1-2.8,5.8-4.6c97.8-97.8,195.7-195.6,293.4-293.5c4.1-4.1,8-5.5,13.6-5.5
		c54.6,0.2,109.3,0.1,163.9,0.1c2.5,0,5,0,8,0c0,14.4,0,28.5,0,43.5c-6.8,0-13.7,0.4-20.6-0.2c-1.8-0.2-3.8-3.2-5-5.3
		c-8.3-13.8-25.2-19.7-40.1-13.9c-14.5,5.7-23.2,21.2-20.3,36.1c3.2,16.3,17.3,27.7,33.6,26.8c12.2-0.7,21.6-6.5,27.3-17.4
		c1.8-3.3,3.7-4.5,7.3-4.3c5.8,0.3,11.7,0.1,18,0.1c0.2,2.4,0.4,4.4,0.4,6.3c0,34.5,0.1,68.9-0.2,103.4c0,3.1-1.7,7.1-3.9,9.3
		c-82.1,82.4-164.4,164.6-246.6,247c-3.2,3.2-6.4,4.3-10.7,4.3c-17.2-0.2-34.5,0-51.7-0.1c-10.2-0.1-19.7,2-28.8,6.6
		c-1.8,0.9-5.4,0.6-6.7-0.7c-45.2-44.9-90.2-90-135.3-135.1C66,323.1,65.9,322.6,64.9,320.6z M424.2,266.3c18.8,0,33-11.9,36.4-29
		c0.5-2.4,2.6-5.1,4.8-6.3c17.8-9.6,24.1-28.6,15.6-47c-0.9-1.9-1.1-4.8-0.2-6.7c8.8-19.7,2.8-37.5-16.1-47.8c-1.8-1-3.6-3.4-4-5.4
		c-4.1-19.8-20.8-31.8-40.9-29.4c-2.4,0.3-5.7-0.5-7.5-2.1c-15.3-13.5-35.3-13.6-50.6-0.1c-1.8,1.6-5.1,2.6-7.5,2.3
		c-20.1-2.4-37.1,9.6-41.1,29.1c-0.5,2.3-2.9,4.9-5,6.1c-17.4,9.5-23.7,28.7-15.4,46.6c1,2.1,1.1,5.3,0.2,7.3
		c-8.7,19-2.6,37.1,16,47.4c2,1.1,3.9,3.7,4.4,5.9c3.8,19.2,20.8,31.6,40.5,28.8c4-0.6,6.1,0.4,8.8,2.9c12.8,11.7,31.5,13.2,45,3
		C413,267.5,417.9,263.4,424.2,266.3z M306.5,336.9c-29.1-29.1-57.9-57.9-86-86c-4.7,4.2-9.8,8.9-13.8,12.5c29,29,57.7,57.8,85.9,86
		C297,345.5,302,341,306.5,336.9z M349.9,315c-22.8-22.8-45.2-45.1-66.8-66.7c-4.6,4.1-9.8,8.8-14.2,12.7c22.6,22.6,45,45,67.2,67.3
		C340.6,324.1,345.4,319.4,349.9,315z M110.7,339.2c21.7-21.7,43.2-43.2,63.9-63.9c-4.1-4.6-8.7-9.7-12.8-14.2
		c-21.7,21.6-43.1,43-64.7,64.5C101.7,330.1,106.6,335,110.7,339.2z M130.8,357.7c4.2,4.6,8.8,9.8,12.3,13.7
		c21.7-21.7,43.2-43.2,64.4-64.3c-3.9-4.2-8.5-9.1-12.6-13.4C173.1,315.5,151.6,337,130.8,357.7z M227.6,326.6
		c-21.7,21.7-43.3,43.2-63.7,63.6c4.1,4.6,8.6,9.8,12.7,14.4c21.5-21.5,42.9-42.9,64.5-64.4C236.6,335.6,231.7,330.7,227.6,326.6z
		 M195.2,423.6c4.5,4.5,9.3,9.4,13.5,13.6c21.7-21.7,43.2-43.2,63.9-63.9c-4.1-4.6-8.7-9.7-12.8-14.3
		C238.1,380.7,216.7,402.1,195.2,423.6z M274.1,437.5c10.9-10.9,21.5-21.5,31.8-31.8c-4.3-4.6-9-9.6-12.9-13.6
		c-10.9,10.9-21.5,21.5-31.7,31.6C265.4,428,270,433,274.1,437.5z M228.1,219.8c9,9.2,17.4,17.8,25.2,25.8
		c4.7-4.5,9.6-9.3,13.6-13.2c-8.4-8.5-17-17.1-25.6-25.7C237,211,232.2,215.7,228.1,219.8z"/>
	
		<linearGradient id="SVGID_00000090986574096709067060000017272909829576827533_" gradientUnits="userSpaceOnUse" x1="16.8283" y1="106.2114" x2="528.3666" y2="106.2114" gradientTransform="matrix(1 0 0 -1 0 640.62)">
		<stop  offset="0" style="stop-color:#FFFFFF;stop-opacity:0.4"/>
		<stop  offset="6.910000e-02" style="stop-color:#FFFFFF;stop-opacity:0.3435"/>
		<stop  offset="0.4892" style="stop-color:#FFFFFF;stop-opacity:0"/>
		<stop  offset="0.7527" style="stop-color:#FAFAFA;stop-opacity:0.1032"/>
		<stop  offset="1" style="stop-color:#EFEFEF;stop-opacity:0.2"/>
	</linearGradient>
	<path style="fill:url(#SVGID_00000090986574096709067060000017272909829576827533_);" d="M527.6,626.8c-2.7,0-5.2,0-7.7,0
		c-105,0-210-0.1-314.9,0.1c-15.1,0-29-3.2-42.5-10c-41.8-21.1-83.6-42.4-125.8-62.7c-17.6-8.5-24.1-26.4-17.3-40.8
		c7.4-15.6,27.1-21.9,44.5-13.5c21.6,10.4,43,21.2,64.5,31.9c17.9,8.9,35.6,17.9,53.6,26.5c3.9,1.9,8.6,3.1,12.9,3.1
		c44.7,0.2,89.3,0.2,134,0.1c3.1,0,7.4-0.1,8.9-1.9c2.6-3.1,5-7.8,4.7-11.5c-0.4-5.4-5.1-8.2-10.8-8.2c-11.8,0-23.6,0-35.4,0
		c-20,0-39.9,0-59.9,0c-20.1-0.1-34.9-14.1-34.7-33c0.1-18.5,14.9-32.3,34.7-32.3c28.6,0,57.1,0.2,85.7-0.2c6-0.1,12.6-1.8,17.8-4.8
		c20-11.2,40.2-21.9,63.2-25.5c45.6-7.1,86.2,4,121.9,33.2c1.6,1.4,3.1,4,3.1,6.1c0.1,47.2,0.1,94.3,0,141.5
		C528.3,625.2,528,625.6,527.6,626.8z"/>
	
		<linearGradient id="SVGID_00000078015588828903600240000001794883937960691363_" gradientUnits="userSpaceOnUse" x1="588.235" y1="195.5714" x2="588.235" y2="9.6245" gradientTransform="matrix(1 0 0 -1 0 640.62)">
		<stop  offset="0" style="stop-color:#FFFFFF;stop-opacity:0.4"/>
		<stop  offset="6.910000e-02" style="stop-color:#FFFFFF;stop-opacity:0.3435"/>
		<stop  offset="0.4892" style="stop-color:#FFFFFF;stop-opacity:0"/>
		<stop  offset="0.7527" style="stop-color:#FAFAFA;stop-opacity:0.1032"/>
		<stop  offset="1" style="stop-color:#EFEFEF;stop-opacity:0.2"/>
	</linearGradient>
	<path style="fill:url(#SVGID_00000078015588828903600240000001794883937960691363_);" d="M625.9,626.5c-25.3,0-50.2,0-75.4,0
		c0-57.8,0-115.3,0-173.3c24.9,0,49.9,0,75.4,0C625.9,510.7,625.9,568.3,625.9,626.5z M604.6,578c0.1-8.9-7.3-16.5-16.2-16.5
		c-9,0-16.4,7.5-16.3,16.4c0,8.7,7.2,15.9,15.9,16.1C596.9,594.3,604.5,587,604.6,578z"/>
	
		<linearGradient id="SVGID_00000075862381637727236900000004777889114449326225_" gradientUnits="userSpaceOnUse" x1="114.7098" y1="579.9105" x2="223.56" y2="579.9105" gradientTransform="matrix(1 0 0 -1 0 640.62)">
		<stop  offset="0" style="stop-color:#FFFFFF;stop-opacity:0.4"/>
		<stop  offset="6.910000e-02" style="stop-color:#FFFFFF;stop-opacity:0.3435"/>
		<stop  offset="0.4892" style="stop-color:#FFFFFF;stop-opacity:0"/>
		<stop  offset="0.7527" style="stop-color:#FAFAFA;stop-opacity:0.1032"/>
		<stop  offset="1" style="stop-color:#EFEFEF;stop-opacity:0.2"/>
	</linearGradient>
	<path style="fill:url(#SVGID_00000075862381637727236900000004777889114449326225_);" d="M114.7,60.4c0.1-30,24.7-54.3,54.8-54.2
		c29.7,0.2,54,24.6,54,54.3c0,30.1-24.4,54.5-54.5,54.5C139.1,115.1,114.6,90.5,114.7,60.4z"/>
	<path class="st1" d="M516.4,298.4c4.4,4.7,9,9.6,13.2,14c-26.9,26.9-54,54-81.3,81.3c-4.2-4.2-9.1-9.1-13.6-13.6
		C461.9,352.9,488.9,325.8,516.4,298.4z"/>
	<path class="st1" d="M532.8,280.6c0.9-1,2.2-2.4,3.7-3.9c5.3-5.5,10.7-10.9,16.3-16.6c4.9,5.7,9.4,10.8,13.5,15.5
		c-5.8,5.8-12.7,12.7-19.8,19.7C542.6,291.2,538,286.1,532.8,280.6z"/>
</g>
<path class="st1" d="M495.3,82.4c-6.5-1-10.2-4.5-10.3-10.7c-0.1-6.3,3.7-9.7,10.3-11.1C495.3,67.9,495.3,74.8,495.3,82.4z"/>
<path class="st0" d="M349.9,116.3c1.4,0.6,4.3,1.5,7.1,2.9c7.5,3.7,13.1,2,16.6-5.7c2.6-5.8,6.6-9.1,13-9.2
	c6.6-0.1,10.9,3.2,13.7,9.2c3.7,7.9,9.3,9.7,17.1,5.3c5.7-3.2,11.1-3.5,16.5,0.3c5.2,3.7,5.7,8.7,4.6,14.5
	c-1.6,8.8,1.9,13.5,10.8,14.2c6.6,0.6,11.3,3.4,13.2,9.8c1.9,6-1,10.3-5.6,14.1c-6.3,5.3-6.3,12.1,0,17.4c4.8,4,7.6,8.5,5.3,14.8
	c-2.1,6.1-6.8,8.6-13,9.1c-8.9,0.8-12.4,5.4-10.8,14.2c1,5.8,0.5,10.9-4.6,14.5c-5.4,3.8-10.8,3.5-16.5,0.4
	c-8.1-4.5-13.4-2.7-17.5,5.9c-2.7,5.8-7.1,8.7-13.3,8.6c-6-0.1-10.1-3.1-12.6-8.6c-4-8.5-9.4-10.3-17.5-5.9
	c-5.7,3.2-11.1,3.5-16.5-0.4c-5.2-3.7-5.7-8.7-4.6-14.5c1.6-8.8-1.9-13.4-10.8-14.2c-6.2-0.5-10.9-3.1-13-9.1
	c-2.2-6.3,0.6-10.7,5.3-14.7c6.3-5.3,6.3-12.1,0-17.4c-4.8-4-7.6-8.5-5.3-14.8c2.1-6,6.8-8.6,13-9.1c8.8-0.8,12.2-5.4,10.8-14.2
	C333.7,123.4,338.8,116.5,349.9,116.3z"/>
<linearGradient id="SVGID_00000098924226940468002420000007235676574139056772_" gradientUnits="userSpaceOnUse" x1="310.6944" y1="460.1698" x2="463.0825" y2="460.1698" gradientTransform="matrix(1 0 0 -1 0 640.62)">
	<stop  offset="0" style="stop-color:#FFFFFF;stop-opacity:0.4"/>
	<stop  offset="6.910000e-02" style="stop-color:#FFFFFF;stop-opacity:0.3435"/>
	<stop  offset="0.4892" style="stop-color:#FFFFFF;stop-opacity:0"/>
	<stop  offset="0.7527" style="stop-color:#FAFAFA;stop-opacity:0.1032"/>
	<stop  offset="1" style="stop-color:#EFEFEF;stop-opacity:0.2"/>
</linearGradient>
<path style="fill:url(#SVGID_00000098924226940468002420000007235676574139056772_);" d="M349.9,116.3c1.4,0.6,4.3,1.5,7.1,2.9
	c7.5,3.7,13.1,2,16.6-5.7c2.6-5.8,6.6-9.1,13-9.2c6.6-0.1,10.9,3.2,13.7,9.2c3.7,7.9,9.3,9.7,17.1,5.3c5.7-3.2,11.1-3.5,16.5,0.3
	c5.2,3.7,5.7,8.7,4.6,14.5c-1.6,8.8,1.9,13.5,10.8,14.2c6.6,0.6,11.3,3.4,13.2,9.8c1.9,6-1,10.3-5.6,14.1c-6.3,5.3-6.3,12.1,0,17.4
	c4.8,4,7.6,8.5,5.3,14.8c-2.1,6.1-6.8,8.6-13,9.1c-8.9,0.8-12.4,5.4-10.8,14.2c1,5.8,0.5,10.9-4.6,14.5c-5.4,3.8-10.8,3.5-16.5,0.4
	c-8.1-4.5-13.4-2.7-17.5,5.9c-2.7,5.8-7.1,8.7-13.3,8.6c-6-0.1-10.1-3.1-12.6-8.6c-4-8.5-9.4-10.3-17.5-5.9
	c-5.7,3.2-11.1,3.5-16.5-0.4c-5.2-3.7-5.7-8.7-4.6-14.5c1.6-8.8-1.9-13.4-10.8-14.2c-6.2-0.5-10.9-3.1-13-9.1
	c-2.2-6.3,0.6-10.7,5.3-14.7c6.3-5.3,6.3-12.1,0-17.4c-4.8-4-7.6-8.5-5.3-14.8c2.1-6,6.8-8.6,13-9.1c8.8-0.8,12.2-5.4,10.8-14.2
	C333.7,123.4,338.8,116.5,349.9,116.3z"/>
</svg>
