<?xml version="1.0" encoding="UTF-8"?>
<svg id="report" xmlns="http://www.w3.org/2000/svg" version="1.1" xmlns:xlink="http://www.w3.org/1999/xlink" viewBox="0 0 640.62 640.62">
  <defs>
    <style>
      .cls-1 {
        fill: #360061;
      }

      .cls-1, .cls-2, .cls-3, .cls-4, .cls-5, .cls-6, .cls-7, .cls-8, .cls-9, .cls-10, .cls-11, .cls-12 {
        stroke-width: 0px;
      }

      .cls-2 {
        fill: url(#linear-gradient);
      }

      .cls-3 {
        fill: url(#linear-gradient-6);
      }

      .cls-4 {
        fill: url(#linear-gradient-5);
      }

      .cls-5 {
        fill: #5800b2;
      }

      .cls-6 {
        fill: url(#linear-gradient-2);
      }

      .cls-7 {
        fill: url(#linear-gradient-7);
      }

      .cls-8 {
        fill: url(#linear-gradient-3);
      }

      .cls-9 {
        fill: url(#linear-gradient-9);
      }

      .cls-10 {
        fill: url(#linear-gradient-8);
      }

      .cls-11 {
        fill: url(#linear-gradient-10);
      }

      .cls-12 {
        fill: url(#linear-gradient-4);
      }
    </style>
    <linearGradient id="linear-gradient" x1="75.06" y1="46.46" x2="468.93" y2="467.49" gradientUnits="userSpaceOnUse">
      <stop offset="0" stop-color="#fff" stop-opacity=".4"/>
      <stop offset=".07" stop-color="#fff" stop-opacity=".34"/>
      <stop offset=".49" stop-color="#fff" stop-opacity="0"/>
      <stop offset=".75" stop-color="#fafafa" stop-opacity=".1"/>
      <stop offset="1" stop-color="#efefef" stop-opacity=".2"/>
    </linearGradient>
    <linearGradient id="linear-gradient-2" x1="-27.41" y1="142.32" x2="366.46" y2="563.35" xlink:href="#linear-gradient"/>
    <linearGradient id="linear-gradient-3" x1="206.58" y1="-76.58" x2="600.45" y2="344.45" xlink:href="#linear-gradient"/>
    <linearGradient id="linear-gradient-4" x1="246.32" y1="-113.75" x2="640.18" y2="307.28" xlink:href="#linear-gradient"/>
    <linearGradient id="linear-gradient-5" x1="156.26" y1="-29.51" x2="550.13" y2="391.53" xlink:href="#linear-gradient"/>
    <linearGradient id="linear-gradient-6" x1="104.64" y1="18.78" x2="498.51" y2="439.82" xlink:href="#linear-gradient"/>
    <linearGradient id="linear-gradient-7" x1="143.56" y1="-17.63" x2="537.43" y2="403.41" xlink:href="#linear-gradient"/>
    <linearGradient id="linear-gradient-8" x1="115.7" y1="8.43" x2="509.57" y2="429.46" xlink:href="#linear-gradient"/>
    <linearGradient id="linear-gradient-9" x1="20.54" y1="97.46" x2="414.41" y2="518.49" xlink:href="#linear-gradient"/>
    <linearGradient id="linear-gradient-10" x1="2.81" y1="114.04" x2="396.68" y2="535.07" xlink:href="#linear-gradient"/>
  </defs>
  <g>
    <path class="cls-5" d="M187.72,569.73V70.89c2.1,0,4.05,0,6,0,89.04,0,178.08,0,267.13,0,17.91,0,28.14,10.2,28.14,28.18.02,147.42.02,294.84,0,442.25,0,18.31-10.17,28.38-28.51,28.39-88.86,0-177.71,0-266.57,0h-6.19ZM338.65,134.45c-52.33-.52-96.58,42.78-97.12,95.04-.56,53.8,41.88,98.09,94.5,98.61,54.94.55,98.7-41.93,99.16-96.26.46-53.2-42.81-96.86-96.54-97.39ZM338.52,403.73c-28.99,0-57.98-.03-86.96.01-10.17.01-14.39,4.33-14.4,14.55-.02,24.19-.01,48.37,0,72.56,0,11.22,4.06,15.3,15.34,15.3,57.24.02,114.47.02,171.71,0,11.28,0,15.27-4.03,15.29-15.41.03-23.82.03-47.64,0-71.45-.01-11.67-3.95-15.56-15.67-15.57-28.43-.01-56.87,0-85.3,0Z"/>
    <path class="cls-1" d="M176.14,70.89v498.83h-6.1c-17.54,0-35.09,0-52.63,0-19.73,0-29.73-9.93-29.73-29.54,0-104.71,0-209.43,0-314.14,0-41.92,0-83.84,0-125.77,0-19.33,10.04-29.38,29.32-29.38,19.54,0,39.09,0,59.16,0Z"/>
    <path class="cls-1" d="M500.35,233.75c13.82,0,27.1-.27,40.37.12,6.66.2,11.69,5.82,11.97,13.05.38,9.77.34,19.58.02,29.36-.21,6.58-4.43,12.52-10.23,12.79-13.93.63-27.91.2-42.12.2v-55.51Z"/>
    <path class="cls-1" d="M500.39,199.4v-56.32c7.85.37,15.74.17,23.43,1.28,5.48.79,9.18,6.37,9.29,12.32.19,9.96.22,19.93-.02,29.89-.16,6.45-4.89,12.2-11.03,12.7-7.09.58-14.26.14-21.68.14Z"/>
    <path class="cls-1" d="M500.38,380.03v-56.18c7.33,0,14.48-.49,21.54.15,6.25.56,11,6.19,11.16,12.56.26,10.12.29,20.27,0,30.39-.21,7.24-5.75,12.37-13.29,13.02-1.83.16-3.68.07-5.52.07-4.41,0-8.82,0-13.89,0Z"/>
    <path class="cls-1" d="M293.3,252.55c1.11,0,2.23.12,3.32-.02,5.48-.73,8.95.6,12.13,6.16,6.71,11.75,25.66,16.81,41.23,12.22,8.79-2.59,16.14-7.07,20.29-15.8.58-1.23,2.69-2.38,4.13-2.44,6.08-.25,12.18-.18,18.27-.03,6.13.15,10.36,3.39,13.12,8.71,2.79,5.38,2.38,10.11-1.25,15.39-31.99,46.42-100.82,46.07-132.89-.26-6.48-9.36,1.68-23.86,11.69-23.83,3.32,0,6.64,0,9.97,0,0-.03,0-.06,0-.09Z"/>
    <path class="cls-1" d="M300.24,187.45c0-19.66,10.65-33.18,28.72-36.48,21.15-3.87,38.67,4.47,44.89,21.35,7.04,19.1-.93,45.77-17.28,57.88-12.34,9.14-27.81,8.16-39.54-2.5-10.33-9.39-16.8-24.89-16.79-40.24Z"/>
    <path class="cls-1" d="M360.12,241.5c1.64,7.15-.82,12.21-6.34,15.62-9.58,5.91-19.61,6.02-29.5.86-6.31-3.29-9.5-8.57-7.99-16.61,14.55,8.09,29.18,8.28,43.84.14Z"/>
    <path class="cls-1" d="M338.57,445.53c-16.62,0-33.23.06-49.85-.02-7.3-.04-12.1-5.82-8.95-11.34,1.43-2.5,5.38-5,8.21-5.03,33.6-.34,67.2-.26,100.8-.18,5.47.01,9.11,3.68,8.99,8.43-.12,4.74-3.76,8.08-9.35,8.11-16.62.09-33.23.03-49.85.03Z"/>
    <path class="cls-1" d="M338.38,481c-16.25,0-32.49.02-48.74,0-6.97-.01-10.67-2.99-10.62-8.4.05-5.25,3.62-8.19,10.26-8.2,32.68-.03,65.35-.03,98.03,0,6.51,0,10.34,3.06,10.46,8.11.12,5.1-3.77,8.46-10.09,8.48-16.43.05-32.86.02-49.29.02Z"/>
  </g>
  <g>
    <path class="cls-2" d="M187.72,569.73V70.89c2.1,0,4.05,0,6,0,89.04,0,178.08,0,267.13,0,17.91,0,28.14,10.2,28.14,28.18.02,147.42.02,294.84,0,442.25,0,18.31-10.17,28.38-28.51,28.39-88.86,0-177.71,0-266.57,0h-6.19ZM338.65,134.45c-52.33-.52-96.58,42.78-97.12,95.04-.56,53.8,41.88,98.09,94.5,98.61,54.94.55,98.7-41.93,99.16-96.26.46-53.2-42.81-96.86-96.54-97.39ZM338.52,403.73c-28.99,0-57.98-.03-86.96.01-10.17.01-14.39,4.33-14.4,14.55-.02,24.19-.01,48.37,0,72.56,0,11.22,4.06,15.3,15.34,15.3,57.24.02,114.47.02,171.71,0,11.28,0,15.27-4.03,15.29-15.41.03-23.82.03-47.64,0-71.45-.01-11.67-3.95-15.56-15.67-15.57-28.43-.01-56.87,0-85.3,0Z"/>
    <path class="cls-6" d="M176.14,70.89v498.83h-6.1c-17.54,0-35.09,0-52.63,0-19.73,0-29.73-9.93-29.73-29.54,0-104.71,0-209.43,0-314.14,0-41.92,0-83.84,0-125.77,0-19.33,10.04-29.38,29.32-29.38,19.54,0,39.09,0,59.16,0Z"/>
    <path class="cls-8" d="M500.35,233.75c13.82,0,27.1-.27,40.37.12,6.66.2,11.69,5.82,11.97,13.05.38,9.77.34,19.58.02,29.36-.21,6.58-4.43,12.52-10.23,12.79-13.93.63-27.91.2-42.12.2v-55.51Z"/>
    <path class="cls-12" d="M500.39,199.4v-56.32c7.85.37,15.74.17,23.43,1.28,5.48.79,9.18,6.37,9.29,12.32.19,9.96.22,19.93-.02,29.89-.16,6.45-4.89,12.2-11.03,12.7-7.09.58-14.26.14-21.68.14Z"/>
    <path class="cls-4" d="M500.38,380.03v-56.18c7.33,0,14.48-.49,21.54.15,6.25.56,11,6.19,11.16,12.56.26,10.12.29,20.27,0,30.39-.21,7.24-5.75,12.37-13.29,13.02-1.83.16-3.68.07-5.52.07-4.41,0-8.82,0-13.89,0Z"/>
    <path class="cls-3" d="M293.3,252.55c1.11,0,2.23.12,3.32-.02,5.48-.73,8.95.6,12.13,6.16,6.71,11.75,25.66,16.81,41.23,12.22,8.79-2.59,16.14-7.07,20.29-15.8.58-1.23,2.69-2.38,4.13-2.44,6.08-.25,12.18-.18,18.27-.03,6.13.15,10.36,3.39,13.12,8.71,2.79,5.38,2.38,10.11-1.25,15.39-31.99,46.42-100.82,46.07-132.89-.26-6.48-9.36,1.68-23.86,11.69-23.83,3.32,0,6.64,0,9.97,0,0-.03,0-.06,0-.09Z"/>
    <path class="cls-7" d="M300.24,187.45c0-19.66,10.65-33.18,28.72-36.48,21.15-3.87,38.67,4.47,44.89,21.35,7.04,19.1-.93,45.77-17.28,57.88-12.34,9.14-27.81,8.16-39.54-2.5-10.33-9.39-16.8-24.89-16.79-40.24Z"/>
    <path class="cls-10" d="M360.12,241.5c1.64,7.15-.82,12.21-6.34,15.62-9.58,5.91-19.61,6.02-29.5.86-6.31-3.29-9.5-8.57-7.99-16.61,14.55,8.09,29.18,8.28,43.84.14Z"/>
    <path class="cls-9" d="M338.57,445.53c-16.62,0-33.23.06-49.85-.02-7.3-.04-12.1-5.82-8.95-11.34,1.43-2.5,5.38-5,8.21-5.03,33.6-.34,67.2-.26,100.8-.18,5.47.01,9.11,3.68,8.99,8.43-.12,4.74-3.76,8.08-9.35,8.11-16.62.09-33.23.03-49.85.03Z"/>
    <path class="cls-11" d="M338.38,481c-16.25,0-32.49.02-48.74,0-6.97-.01-10.67-2.99-10.62-8.4.05-5.25,3.62-8.19,10.26-8.2,32.68-.03,65.35-.03,98.03,0,6.51,0,10.34,3.06,10.46,8.11.12,5.1-3.77,8.46-10.09,8.48-16.43.05-32.86.02-49.29.02Z"/>
  </g>
</svg>