<?xml version="1.0" encoding="UTF-8"?>
<svg id="report" xmlns="http://www.w3.org/2000/svg" version="1.1" xmlns:xlink="http://www.w3.org/1999/xlink" viewBox="0 0 640.62 640.62">
  <defs>
    <style>
      .cls-1 {
        fill: #360061;
      }

      .cls-1, .cls-2, .cls-3, .cls-4 {
        stroke-width: 0px;
      }

      .cls-2 {
        fill: url(#linear-gradient);
      }

      .cls-3 {
        fill: #5800b2;
      }

      .cls-4 {
        fill: url(#linear-gradient-2);
      }
    </style>
    <linearGradient id="linear-gradient" x1="24.79" y1="102.85" x2="487.31" y2="659.29" gradientUnits="userSpaceOnUse">
      <stop offset="0" stop-color="#fff" stop-opacity=".4"/>
      <stop offset=".07" stop-color="#fff" stop-opacity=".34"/>
      <stop offset=".49" stop-color="#fff" stop-opacity="0"/>
      <stop offset=".75" stop-color="#fafafa" stop-opacity=".1"/>
      <stop offset="1" stop-color="#efefef" stop-opacity=".2"/>
    </linearGradient>
    <linearGradient id="linear-gradient-2" x1="179.6" y1="-25.83" x2="642.12" y2="530.6" xlink:href="#linear-gradient"/>
  </defs>
  <g>
    <path class="cls-1" d="M215.59,551.41c0,7.15.09,13.89-.02,20.62-.39,23.7-18.4,41.68-42.13,41.95-13.74.15-27.48.15-41.22,0-24.04-.26-41.95-18.36-42.24-42.51-.03-2.4-.17-4.82.02-7.21.87-10.79,0-19.93-9.85-28-5.81-4.76-9.84-14.56-10.38-22.39-1.39-20.22-.92-40.62-.15-60.91.43-11.52,5.47-21.91,12.45-31.2,9.31-12.38,18.55-24.8,28.81-38.54-7.71,0-14.27.14-20.83-.03-11.84-.3-20.89-9.34-20.99-20.74-.11-11.74,8.99-20.85,21.2-21.16,3.71-.09,7.42-.02,11.12-.02,11.12,0,22.25-.17,33.37.09,3.83.09,5.83-1.16,7.5-4.62,6.9-14.35,14.02-28.59,21.22-42.8,12.32-24.32,32.13-36.58,59.38-36.59,65-.02,129.99-.02,194.99,0,27.26.01,47.04,12.32,59.34,36.66,7.08,14.02,14.2,28.02,20.93,42.21,1.9,4,4.18,5.23,8.48,5.15,14.17-.28,28.35-.16,42.53-.09,12.89.07,22.25,8.75,22.42,20.63.18,12.17-9.26,21.17-22.42,21.3-6.02.06-12.03.01-19.37.01,8.84,11.84,16.52,22.9,24.99,33.32,12.14,14.94,17.73,31.68,16.93,50.93-.55,13.31-.11,26.66-.11,39.99,0,14.75-5.82,26.54-17.47,35.65-1.82,1.43-3.18,4.47-3.31,6.85-.43,7.41-.06,14.85-.19,22.28-.42,23.35-18.39,41.39-41.7,41.71-14.17.19-28.36.22-42.53-.01-22.92-.38-40.88-18.45-41.33-41.4-.14-6.94-.02-13.88-.02-21.14h-209.41ZM168.58,377.49c6.81,2.06,12.87,5.48,18.94,5.51,88.52.35,177.05.23,265.57.26,7.15,0,12.9-2.86,18-7.61-10.77-21.58-21.32-42.85-32.01-64.05-4.1-8.13-10.83-12.27-20.01-12.27-65.85,0-131.7,0-197.54,0-9.19,0-15.91,4.14-20.01,12.27-10.69,21.21-21.24,42.48-32.94,65.9ZM184.14,477.41c-.12-17.38-14.45-31.4-31.92-31.22-16.98.18-30.99,14.56-30.81,31.64.18,17.45,14.54,31.49,31.91,31.23,17.07-.26,30.94-14.5,30.82-31.65ZM519.16,477.7c.02-17.41-14.17-31.55-31.63-31.51-17.01.04-31.15,14.29-31.1,31.35.04,17.47,14.26,31.64,31.62,31.52,17.1-.12,31.09-14.22,31.11-31.36Z"/>
    <path class="cls-3" d="M474.78,194.37c-3.92,0-7.86-.15-11.77.03-8.9.42-15.23-3.24-20.11-10.81-8.95-13.87-26.82-13.8-35.72.12-4.87,7.62-11.31,11.12-20.18,10.68-3.26-.16-6.54-.03-9.81-.03-7.34.02-12.89-3.16-17.01-9.23-10.74-15.81-27.07-15.92-37.53-.25-4.22,6.33-9.94,9.54-17.54,9.49-8.28-.05-17.36-2.11-24.63.62-6.84,2.56-11.5,10.55-17.59,15.59-31.49,26.1-67.01,33.27-105.18,18.76-38.14-14.49-60.66-43.32-66.5-83.81-8.07-56.04,26.7-105.73,81.92-116.7,40.03-7.95,73.96,4.64,101.05,35.15,3.11,3.5,6.04,4.65,10.52,4.64,66.5-.13,133,.02,199.5-.18,14.16-.04,25.94,4.45,35.67,14.74,5.55,5.86,11.42,11.42,17.07,17.18,18.37,18.73,18.29,43.52-.18,62.32-4.89,4.98-10.11,9.67-14.74,14.88-10.9,12.26-24.32,18-40.69,16.81-2.17-.16-4.36-.02-6.54-.02ZM194.79,89.52c-23.14-.09-42.02,18.78-42,41.96.02,22.91,18.62,41.76,41.39,41.94,23.18.18,42.17-18.5,42.34-41.65.17-23.17-18.58-42.16-41.72-42.25Z"/>
  </g>
  <g>
    <path class="cls-2" d="M215.59,551.41c0,7.15.09,13.89-.02,20.62-.39,23.7-18.4,41.68-42.13,41.95-13.74.15-27.48.15-41.22,0-24.04-.26-41.95-18.36-42.24-42.51-.03-2.4-.17-4.82.02-7.21.87-10.79,0-19.93-9.85-28-5.81-4.76-9.84-14.56-10.38-22.39-1.39-20.22-.92-40.62-.15-60.91.43-11.52,5.47-21.91,12.45-31.2,9.31-12.38,18.55-24.8,28.81-38.54-7.71,0-14.27.14-20.83-.03-11.84-.3-20.89-9.34-20.99-20.74-.11-11.74,8.99-20.85,21.2-21.16,3.71-.09,7.42-.02,11.12-.02,11.12,0,22.25-.17,33.37.09,3.83.09,5.83-1.16,7.5-4.62,6.9-14.35,14.02-28.59,21.22-42.8,12.32-24.32,32.13-36.58,59.38-36.59,65-.02,129.99-.02,194.99,0,27.26.01,47.04,12.32,59.34,36.66,7.08,14.02,14.2,28.02,20.93,42.21,1.9,4,4.18,5.23,8.48,5.15,14.17-.28,28.35-.16,42.53-.09,12.89.07,22.25,8.75,22.42,20.63.18,12.17-9.26,21.17-22.42,21.3-6.02.06-12.03.01-19.37.01,8.84,11.84,16.52,22.9,24.99,33.32,12.14,14.94,17.73,31.68,16.93,50.93-.55,13.31-.11,26.66-.11,39.99,0,14.75-5.82,26.54-17.47,35.65-1.82,1.43-3.18,4.47-3.31,6.85-.43,7.41-.06,14.85-.19,22.28-.42,23.35-18.39,41.39-41.7,41.71-14.17.19-28.36.22-42.53-.01-22.92-.38-40.88-18.45-41.33-41.4-.14-6.94-.02-13.88-.02-21.14h-209.41ZM168.58,377.49c6.81,2.06,12.87,5.48,18.94,5.51,88.52.35,177.05.23,265.57.26,7.15,0,12.9-2.86,18-7.61-10.77-21.58-21.32-42.85-32.01-64.05-4.1-8.13-10.83-12.27-20.01-12.27-65.85,0-131.7,0-197.54,0-9.19,0-15.91,4.14-20.01,12.27-10.69,21.21-21.24,42.48-32.94,65.9ZM184.14,477.41c-.12-17.38-14.45-31.4-31.92-31.22-16.98.18-30.99,14.56-30.81,31.64.18,17.45,14.54,31.49,31.91,31.23,17.07-.26,30.94-14.5,30.82-31.65ZM519.16,477.7c.02-17.41-14.17-31.55-31.63-31.51-17.01.04-31.15,14.29-31.1,31.35.04,17.47,14.26,31.64,31.62,31.52,17.1-.12,31.09-14.22,31.11-31.36Z"/>
    <path class="cls-4" d="M474.78,194.37c-3.92,0-7.86-.15-11.77.03-8.9.42-15.23-3.24-20.11-10.81-8.95-13.87-26.82-13.8-35.72.12-4.87,7.62-11.31,11.12-20.18,10.68-3.26-.16-6.54-.03-9.81-.03-7.34.02-12.89-3.16-17.01-9.23-10.74-15.81-27.07-15.92-37.53-.25-4.22,6.33-9.94,9.54-17.54,9.49-8.28-.05-17.36-2.11-24.63.62-6.84,2.56-11.5,10.55-17.59,15.59-31.49,26.1-67.01,33.27-105.18,18.76-38.14-14.49-60.66-43.32-66.5-83.81-8.07-56.04,26.7-105.73,81.92-116.7,40.03-7.95,73.96,4.64,101.05,35.15,3.11,3.5,6.04,4.65,10.52,4.64,66.5-.13,133,.02,199.5-.18,14.16-.04,25.94,4.45,35.67,14.74,5.55,5.86,11.42,11.42,17.07,17.18,18.37,18.73,18.29,43.52-.18,62.32-4.89,4.98-10.11,9.67-14.74,14.88-10.9,12.26-24.32,18-40.69,16.81-2.17-.16-4.36-.02-6.54-.02ZM194.79,89.52c-23.14-.09-42.02,18.78-42,41.96.02,22.91,18.62,41.76,41.39,41.94,23.18.18,42.17-18.5,42.34-41.65.17-23.17-18.58-42.16-41.72-42.25Z"/>
  </g>
</svg>