<?xml version="1.0" encoding="utf-8"?>
<!-- Generator: Adobe Illustrator 26.2.1, SVG Export Plug-In . SVG Version: 6.00 Build 0)  -->
<svg version="1.1" id="report" xmlns="http://www.w3.org/2000/svg" xmlns:xlink="http://www.w3.org/1999/xlink" x="0px" y="0px"
	 viewBox="0 0 640.62 640.62" style="enable-background:new 0 0 640.62 640.62;" xml:space="preserve">
<style type="text/css">
	.st0{display:none;fill:url(#SVGID_1_);}
	.st1{display:none;fill:url(#SVGID_00000152263376058110965950000008793103244070837165_);}
	.st2{display:none;fill:url(#SVGID_00000057836781899215826550000008366329086825497533_);}
	.st3{opacity:0.5;fill:#EDE6F4;}
	.st4{fill:#EDE6F4;}
</style>
<linearGradient id="SVGID_1_" gradientUnits="userSpaceOnUse" x1="290.9483" y1="320.3009" x2="360.9372" y2="320.3009">
	<stop  offset="0" style="stop-color:#FFFFFF;stop-opacity:0.4"/>
	<stop  offset="0.0691" style="stop-color:#FFFFFF;stop-opacity:0.3435"/>
	<stop  offset="0.4892" style="stop-color:#FFFFFF;stop-opacity:0"/>
	<stop  offset="0.7527" style="stop-color:#FAFAFA;stop-opacity:0.1032"/>
	<stop  offset="1" style="stop-color:#EFEFEF;stop-opacity:0.2"/>
</linearGradient>
<path class="st0" d="M360.94,408.89c-23.09-16.59-45.06-32.27-66.81-48.25c-1.83-1.34-2.98-4.76-3.01-7.23
	c-0.23-22.1-0.21-44.2-0.02-66.3c0.02-2.29,0.86-5.51,2.5-6.71c21.96-16.13,44.13-31.97,67.35-48.68
	C360.94,291.13,360.94,349.28,360.94,408.89z"/>
<linearGradient id="SVGID_00000142867252327766439270000008019557260273929628_" gradientUnits="userSpaceOnUse" x1="234.72" y1="320.2812" x2="275.4071" y2="320.2812">
	<stop  offset="0" style="stop-color:#FFFFFF;stop-opacity:0.4"/>
	<stop  offset="0.0691" style="stop-color:#FFFFFF;stop-opacity:0.3435"/>
	<stop  offset="0.4892" style="stop-color:#FFFFFF;stop-opacity:0"/>
	<stop  offset="0.7527" style="stop-color:#FAFAFA;stop-opacity:0.1032"/>
	<stop  offset="1" style="stop-color:#EFEFEF;stop-opacity:0.2"/>
</linearGradient>
<path style="display:none;fill:url(#SVGID_00000142867252327766439270000008019557260273929628_);" d="M275.41,285.55
	c0,23.61,0,46.09,0,69.35c-11.46,0-22.58,0.48-33.59-0.36c-2.51-0.19-6.61-4.84-6.7-7.55c-0.6-17.88-0.4-35.78-0.22-53.68
	c0.05-4.85,2.99-7.68,7.96-7.73C253.46,285.48,264.05,285.55,275.41,285.55z"/>
<linearGradient id="SVGID_00000080895947454452738530000010771296964650666138_" gradientUnits="userSpaceOnUse" x1="377.0954" y1="320.1778" x2="405.9691" y2="320.1778">
	<stop  offset="0" style="stop-color:#FFFFFF;stop-opacity:0.4"/>
	<stop  offset="0.0691" style="stop-color:#FFFFFF;stop-opacity:0.3435"/>
	<stop  offset="0.4892" style="stop-color:#FFFFFF;stop-opacity:0"/>
	<stop  offset="0.7527" style="stop-color:#FAFAFA;stop-opacity:0.1032"/>
	<stop  offset="1" style="stop-color:#EFEFEF;stop-opacity:0.2"/>
</linearGradient>
<path style="display:none;fill:url(#SVGID_00000080895947454452738530000010771296964650666138_);" d="M377.1,355.13
	c0-23.33,0-46.62,0.01-69.9c15.57,1.63,28.5,17.01,28.86,34.31C406.32,336.88,393.67,352.67,377.1,355.13z"/>
<g>
	<path class="st3" d="M641.87,299.71c0,101.15,0,202.3,0,303.45c-2.07,0.14-4.13,0.4-6.2,0.4c-208.7,0.02-417.39,0.02-626.09,0
		c-2.21,0-4.41-0.2-6.84-0.31c0-101.17,0-201.81,0-302.87c1.85,0.56,3.44,0.93,4.96,1.51c83.08,31.61,166.15,63.26,249.27,94.75
		c3.8,1.44,4.99,3.27,4.94,7.2c-0.2,15.6,0.05,31.21-0.17,46.81c-0.06,4.05,1,6.25,4.94,8.01c17.27,7.69,34.3,15.9,51.56,23.6
		c2.24,1,5.7,1.03,7.93,0.04c17.26-7.7,34.29-15.92,51.56-23.6c4-1.78,4.92-4.08,4.87-8.08c-0.2-15.19,0.19-30.39-0.23-45.56
		c-0.14-5.12,1.69-7.2,6.21-8.9c37.72-14.15,75.37-28.5,113.02-42.86C548.38,335.47,595.12,317.57,641.87,299.71z"/>
	<path class="st4" d="M641.87,123.63c0,45.37,0,90.74,0,136.12c-86.11,32.81-172.21,65.62-259.37,98.83c0-19.84,0-38.63,0-57.54
		c-40.6,0-80.39,0-120.8,0c0,19.11,0,37.74,0,57.02c-2.64-0.86-4.59-1.41-6.48-2.13c-82.51-31.38-165.01-62.81-247.56-94.08
		c-3.91-1.48-5.3-3.24-5.28-7.56c0.19-41.41,0.11-82.82,0.13-124.24c0-1.81,0.21-3.61,0.37-6.15c68.9,0,137.44,0,206.8,0
		c0-28.91,0-57.07,0-85.17c75.42,0,150.02,0,225.45,0c0,28.57,0,56.71,0,85c2.47,0.13,4.11,0.29,5.76,0.29
		c65.34,0.01,130.69,0.01,196.03-0.01C638.57,124.03,640.22,123.77,641.87,123.63z M247.26,123.61c50.33,0,99.95,0,149.64,0
		c0-16.11,0-31.78,0-47.41c-50.12,0-99.74,0-149.64,0C247.26,92.15,247.26,107.66,247.26,123.61z"/>
	<path class="st4" d="M299.31,338.32c15.58,0,30.25,0,45.33,0c0.16,2.08,0.41,3.88,0.41,5.68c0.03,27.64-0.07,55.29,0.11,82.93
		c0.03,4.14-1.24,6.19-5.09,7.92c-19.25,8.65-19.22,8.83-37.47-1.05c-1.48-0.8-3.14-2.97-3.15-4.51
		C299.26,399.19,299.31,369.08,299.31,338.32z"/>
</g>
</svg>
