<?xml version="1.0" encoding="utf-8"?>
<!-- Generator: Adobe Illustrator 26.2.1, SVG Export Plug-In . SVG Version: 6.00 Build 0)  -->
<svg version="1.1" id="report" xmlns="http://www.w3.org/2000/svg" xmlns:xlink="http://www.w3.org/1999/xlink" x="0px" y="0px"
	 viewBox="0 0 640.62 640.62" style="enable-background:new 0 0 640.62 640.62;" xml:space="preserve">
<style type="text/css">
	.st0{display:none;fill:url(#SVGID_1_);}
	.st1{display:none;fill:url(#SVGID_00000150796431254682596990000014735455391207460794_);}
	.st2{display:none;fill:url(#SVGID_00000041989093352808152520000001840464365957980072_);}
	.st3{fill:#360061;}
	.st4{fill:#5800B2;}
</style>
<linearGradient id="SVGID_1_" gradientUnits="userSpaceOnUse" x1="290.9483" y1="320.3009" x2="360.9372" y2="320.3009">
	<stop  offset="0" style="stop-color:#FFFFFF;stop-opacity:0.4"/>
	<stop  offset="0.0691" style="stop-color:#FFFFFF;stop-opacity:0.3435"/>
	<stop  offset="0.4892" style="stop-color:#FFFFFF;stop-opacity:0"/>
	<stop  offset="0.7527" style="stop-color:#FAFAFA;stop-opacity:0.1032"/>
	<stop  offset="1" style="stop-color:#EFEFEF;stop-opacity:0.2"/>
</linearGradient>
<path class="st0" d="M360.94,408.89c-23.09-16.59-45.06-32.27-66.81-48.25c-1.83-1.34-2.98-4.76-3.01-7.23
	c-0.23-22.1-0.21-44.2-0.02-66.3c0.02-2.29,0.86-5.51,2.5-6.71c21.96-16.13,44.13-31.97,67.35-48.68
	C360.94,291.13,360.94,349.28,360.94,408.89z"/>
<linearGradient id="SVGID_00000124866545029913250480000008783678637215100570_" gradientUnits="userSpaceOnUse" x1="234.72" y1="320.2812" x2="275.4071" y2="320.2812">
	<stop  offset="0" style="stop-color:#FFFFFF;stop-opacity:0.4"/>
	<stop  offset="0.0691" style="stop-color:#FFFFFF;stop-opacity:0.3435"/>
	<stop  offset="0.4892" style="stop-color:#FFFFFF;stop-opacity:0"/>
	<stop  offset="0.7527" style="stop-color:#FAFAFA;stop-opacity:0.1032"/>
	<stop  offset="1" style="stop-color:#EFEFEF;stop-opacity:0.2"/>
</linearGradient>
<path style="display:none;fill:url(#SVGID_00000124866545029913250480000008783678637215100570_);" d="M275.41,285.55
	c0,23.61,0,46.09,0,69.35c-11.46,0-22.58,0.48-33.59-0.36c-2.51-0.19-6.61-4.84-6.7-7.55c-0.6-17.88-0.4-35.78-0.22-53.68
	c0.05-4.85,2.99-7.68,7.96-7.73C253.46,285.48,264.05,285.55,275.41,285.55z"/>
<linearGradient id="SVGID_00000155143434761710951380000007955826752791264400_" gradientUnits="userSpaceOnUse" x1="377.0954" y1="320.1778" x2="405.9691" y2="320.1778">
	<stop  offset="0" style="stop-color:#FFFFFF;stop-opacity:0.4"/>
	<stop  offset="0.0691" style="stop-color:#FFFFFF;stop-opacity:0.3435"/>
	<stop  offset="0.4892" style="stop-color:#FFFFFF;stop-opacity:0"/>
	<stop  offset="0.7527" style="stop-color:#FAFAFA;stop-opacity:0.1032"/>
	<stop  offset="1" style="stop-color:#EFEFEF;stop-opacity:0.2"/>
</linearGradient>
<path style="display:none;fill:url(#SVGID_00000155143434761710951380000007955826752791264400_);" d="M377.1,355.13
	c0-23.33,0-46.62,0.01-69.9c15.57,1.63,28.5,17.01,28.86,34.31C406.32,336.88,393.67,352.67,377.1,355.13z"/>
<g>
	<path class="st3" d="M412.95,193.82c-100.24,10.85-143.44,85.66-143.45,154.06c-0.02,68.37,42.37,140.52,139.48,153.37
		c-3.54,6.38-8.77,9.36-15.18,10.48c-2.78,0.49-5.7,0.31-8.56,0.31c-119.1,0.01-238.2,0.01-357.29,0.01
		C7.86,512.05,0,504.11,0,483.88C0,338.11,0,192.33,0,46.55c0-19.1,8.36-27.54,27.28-27.55C146.62,19,265.96,19,385.3,19.01
		c19.08,0,27.65,8.44,27.65,27.27c0.02,46.69,0.01,93.37,0.01,140.06C412.95,188.68,412.95,191.03,412.95,193.82z M206.27,168.58
		c46.69,0,93.37,0,140.06,0c12.04,0,18.07-4.11,18.12-12.32c0.05-8.27-5.8-12.27-18.02-12.27c-93.37-0.01-186.75,0-280.12,0.01
		c-2.38,0-4.79-0.07-7.13,0.25c-6.27,0.85-9.86,4.72-10.45,10.85c-0.6,6.19,2.42,10.65,8.33,12.57c2.63,0.86,5.61,0.88,8.44,0.88
		C112.42,168.59,159.34,168.58,206.27,168.58z M158.61,216.89c-24.28,0-48.56-0.01-72.84,0c-8.33,0-16.67-0.17-24.99,0.14
		c-7.22,0.27-11.85,4.91-12.18,11.46c-0.34,6.73,4.42,12.13,11.59,12.94c2.35,0.27,4.75,0.12,7.13,0.12c57.84,0,115.68,0,173.52,0
		c4.76,0,9.74,0.85,14.22-0.27c4.24-1.06,9.36-3.23,11.63-6.59c5.55-8.21-1.26-17.71-12.41-17.76
		C222.4,216.81,190.5,216.9,158.61,216.89z M150.82,289.8c-28.09,0-56.19-0.01-84.28,0.01c-2.61,0-5.27-0.07-7.83,0.35
		c-5.89,0.96-9.3,4.7-9.99,10.51c-0.7,5.86,1.92,10.31,7.38,12.49c2.55,1.02,5.56,1.25,8.35,1.25
		c57.62,0.07,115.24,0.07,172.85-0.01c3.03,0,6.29-0.27,9.03-1.4c5.48-2.27,7.69-6.9,6.91-12.73c-0.75-5.58-4.09-9.04-9.59-10.06
		c-2.55-0.47-5.21-0.4-7.83-0.4C207.49,289.79,179.15,289.8,150.82,289.8z M150.18,362.83c-25.71,0-51.43-0.01-77.14,0.01
		c-4.52,0-9.07-0.19-13.56,0.19c-6.29,0.54-9.99,4.4-10.74,10.51c-0.76,6.17,2.09,10.73,7.96,12.79c2.6,0.91,5.59,1,8.4,1
		c34.52,0.06,69.05,0.04,103.57,0.04c22.38,0,44.76-0.05,67.14,0.03c6.85,0.02,12.32-2.09,14.32-9.18
		c2.42-8.57-3.52-15.33-13.53-15.36C207.8,362.78,178.99,362.84,150.18,362.83z M206.6,91.92c15.95,0,31.91,0.01,47.86,0
		c8.33-0.01,16.67,0.17,25-0.15c7.01-0.26,11.81-5.2,12.06-11.66c0.25-6.59-4.79-12.03-11.91-12.71c-2.13-0.2-4.28-0.09-6.42-0.09
		c-30.71,0-61.43,0-92.14,0c-13.81,0-27.62,0-41.43,0c-1.43,0-2.86-0.04-4.29,0.01c-8.37,0.29-13.74,5.08-13.78,12.28
		c-0.05,7.31,5.13,12.21,13.63,12.26C158.98,91.98,182.79,91.9,206.6,91.92z"/>
	<path class="st3" d="M551.87,347.93c-0.08,71.56-58.34,129.29-130.52,129.35c-70.27,0.06-128.39-59.01-128.13-130.23
		c0.27-70.83,57.82-128.36,128.24-128.21C494.51,219.01,551.96,275.87,551.87,347.93z M416.05,239.05
		c-30.88,1.91-58.77,15.65-79.7,42.71c-5.08,6.56-4.23,13.93,1.59,18.29c5.55,4.15,12.37,2.91,17.7-2.98
		c4.3-4.75,8.44-9.75,13.29-13.89c15.04-12.83,32.75-19,52.42-19.58c6.66-0.2,11.67-2.65,13.27-9.52
		C436.72,245.02,430.18,238.77,416.05,239.05z"/>
	<path class="st4" d="M109.44,536.65c3.89,0,6.93,0,9.96,0c87.88,0,175.77-0.26,263.65,0.16c24.83,0.12,42.92-8.45,52.03-32.62
		c0.62-1.64,3.38-3.27,5.31-3.49c19.88-2.26,38.46-8.42,56.2-17.55c2.03-1.04,5.66-0.43,7.92,0.69
		c14.62,7.24,19.36,18.82,17.98,35.24c-1.61,19.16-0.29,38.55-0.4,57.84c-0.16,27.02-17.83,44.63-44.93,44.64
		c-107.65,0.05-215.31,0.06-322.96,0c-26.62-0.02-44.34-17.6-44.73-44.21C109.28,564.08,109.44,550.8,109.44,536.65z"/>
	<path class="st4" d="M521.52,465.92c19.15-16.43,33.29-35.54,43.26-58.87c7.72,6.04,14.91,11.68,22.1,17.3
		c13.67,10.69,27.65,21.01,40.94,32.16c12.68,10.64,15.24,24.91,10.75,40.21c-4.21,14.34-13.47,24.42-29.06,25.52
		c-6.51,0.46-14.65-0.46-19.66-4.07C566.76,501.51,544.52,483.68,521.52,465.92z"/>
	<path class="st4" d="M437.8,194.44c0-21.96,0-43.52,0-65.36c16.66,0,33.13-1.35,49.29,0.34c19.7,2.06,34.36,19.58,34.83,39.31
		c0.45,19.03,0.15,38.08,0.16,57.12c0,0.85-0.23,1.69-0.5,3.65C496.57,209.42,468.92,197.85,437.8,194.44z"/>
</g>
</svg>
