<svg width="28" height="27" viewBox="0 0 28 27" fill="none" xmlns="http://www.w3.org/2000/svg">
<path d="M-6.10352e-05 12.8614C0.0837742 12.3047 0.129801 11.7387 0.257472 11.1918C1.44651 6.08392 4.54622 2.70476 9.60045 1.32723C13.7949 0.183672 17.6404 1.13928 21.0377 3.86037C21.0662 3.88283 21.1018 3.89653 21.1034 3.89763C18.8108 6.18858 16.5385 8.45925 14.2426 10.754C14.2196 10.7321 14.1489 10.6669 14.081 10.5995C13.333 9.85267 12.5906 9.09925 11.8355 8.35953C10.8218 7.36611 9.6114 7.04611 8.2662 7.47679C6.93196 7.90364 6.11882 8.8587 5.88485 10.2445C5.69416 11.3716 5.99772 12.3913 6.80375 13.2105C8.47826 14.9124 10.1621 16.6061 11.8695 18.2751C13.2591 19.6335 15.3933 19.5951 16.7862 18.2088C19.4799 15.5277 22.1631 12.8362 24.8486 10.1475C24.9182 10.0779 24.9631 9.98308 25.0201 9.8998C25.0574 9.91404 25.0952 9.92829 25.1324 9.94199C25.265 10.5699 25.4344 11.1929 25.5242 11.8269C25.9165 14.5968 25.5127 17.2494 24.1702 19.7113C22.1626 23.3929 19.0848 25.6948 14.9363 26.3534C10.1533 27.1123 6.12704 25.5693 2.96705 21.903C1.22295 19.8817 0.287061 17.4855 0.0492538 14.822C0.0410347 14.7327 0.0169252 14.645 -6.10352e-05 14.5562C-6.10352e-05 13.9913 -6.10352e-05 13.4258 -6.10352e-05 12.8609V12.8614Z" fill="#2B0666"/>
<path d="M14.3084 14.1507C14.4042 14.0307 14.4601 13.9452 14.5308 13.8745C18.3188 10.0844 22.1089 6.29649 25.8952 2.50473C26.2173 2.18199 26.5724 1.98692 27.0409 2.0746C27.9121 2.23788 28.293 3.24555 27.7445 3.94144C27.6716 4.03404 27.5845 4.11623 27.5012 4.20007C23.4223 8.2795 19.3434 12.3584 15.2645 16.4373C14.6021 17.0997 13.9856 17.1003 13.3248 16.44C11.7396 14.8548 10.1533 13.2707 8.56975 11.6839C8.0514 11.1639 8.02948 10.4576 8.50784 9.97922C8.97961 9.50744 9.69304 9.51675 10.1933 10.0137C11.2985 11.1124 12.3993 12.2154 13.5001 13.3184C13.7571 13.5759 14.007 13.8395 14.3084 14.1507Z" fill="#4301C9"/>
</svg>
