<?xml version="1.0" encoding="utf-8"?>
<!-- Generator: Adobe Illustrator 26.2.1, SVG Export Plug-In . SVG Version: 6.00 Build 0)  -->
<svg version="1.1" id="Layer_1" xmlns="http://www.w3.org/2000/svg" xmlns:xlink="http://www.w3.org/1999/xlink" x="0px" y="0px"
	 viewBox="0 0 120 50" style="enable-background:new 0 0 120 50;" xml:space="preserve">
<style type="text/css">
	.st0{fill:#FFFFFF;}
</style>
<g>
	<path class="st0" d="M14.42,41.95c-0.57-0.09-1.14-0.16-1.7-0.28c-5.17-1.05-8.96-3.97-11.04-8.78c-2.61-6.01-2.2-11.93,1.5-17.42
		c2.51-3.72,6.14-5.8,10.61-6.33c4.5-0.54,8.55,0.6,12.09,3.45c0.75,0.6,1.42,1.31,2.1,1.94c-1.24,1.24-2.44,2.44-3.72,3.71
		c-0.3-0.33-0.63-0.72-0.99-1.07c-3.58-3.46-9.32-4-13.36-1.23c-2.33,1.6-3.72,3.86-4.31,6.59c-0.71,3.28-0.4,6.46,1.39,9.35
		c2.19,3.54,5.47,5.09,9.59,4.83c2.78-0.17,5.13-1.34,7.08-3.32c0.23-0.24,0.47-0.47,0.71-0.7c0.01-0.01,0.04-0.02,0.1-0.04
		c1.17,1.2,2.36,2.42,3.56,3.65c-0.89,0.99-1.83,1.89-2.9,2.66c-2.34,1.67-4.94,2.65-7.8,2.92c-0.09,0.01-0.18,0.04-0.27,0.06
		C16.17,41.95,15.29,41.95,14.42,41.95z"/>
	<path class="st0" d="M120,41.53c-1.73,0-3.45,0-5.23,0c0-0.18,0-0.33,0-0.48c0-4.04,0.01-8.08-0.01-12.11
		c0-0.8-0.06-1.61-0.24-2.39c-0.44-1.95-1.69-2.89-3.69-2.86c-1.08,0.02-2.11,0.27-3.04,0.84c-1.47,0.9-2.12,2.29-2.27,3.95
		c-0.05,0.48-0.05,0.97-0.05,1.45c0,3.7,0,7.39,0,11.09c0,0.15,0,0.3,0,0.47c-1.75,0-3.46,0-5.19,0c0-11.15,0-22.29,0-33.45
		c1.71,0,3.42,0,5.18,0c0,4.06,0,8.13,0,12.26c0.23-0.14,0.38-0.24,0.54-0.34c3.03-1.78,6.17-1.98,9.34-0.46
		c2.37,1.14,3.67,3.18,4.28,5.69c0.15,0.6,0.2,1.23,0.3,1.85c0.02,0.1,0.05,0.2,0.07,0.3C120,32.08,120,36.81,120,41.53z"/>
	<path class="st0" d="M48.83,41.95c-0.44-0.09-0.88-0.15-1.31-0.26c-3.37-0.85-5.38-3.06-6.18-6.37c-0.24-0.99-0.36-2.03-0.37-3.04
		c-0.04-4.26-0.02-8.52-0.02-12.79c0-0.15,0-0.3,0-0.48c1.75,0,3.46,0,5.23,0c0,0.16,0,0.31,0,0.46c0,4.2,0,8.41,0,12.61
		c0,0.94,0.13,1.86,0.52,2.72c0.59,1.3,1.62,1.96,3.04,1.99c1.46,0.03,2.82-0.29,3.97-1.25c1.31-1.09,1.73-2.57,1.74-4.21
		c0.01-3.96,0-7.91,0-11.87c0-0.14,0-0.28,0-0.46c1.74,0,3.46,0,5.2,0c0,7.48,0,14.97,0,22.48c-1.72,0-3.44,0-5.2,0
		c0-0.42,0-0.83,0-1.29c-0.14,0.08-0.23,0.12-0.32,0.18c-1.23,0.81-2.58,1.31-4.05,1.5c-0.07,0.01-0.13,0.04-0.2,0.07
		C50.2,41.95,49.52,41.95,48.83,41.95z"/>
	<path class="st0" d="M88,41.95c-0.62-0.09-1.24-0.17-1.85-0.28c-4.52-0.87-8.11-4.5-8.93-9.04c-0.52-2.89-0.24-5.67,1.18-8.27
		c1.6-2.94,4.09-4.75,7.34-5.49c3.4-0.77,6.63-0.32,9.58,1.6c0.84,0.54,1.58,1.22,2.34,1.81c-1.26,1.25-2.46,2.46-3.71,3.7
		c-0.18-0.15-0.42-0.36-0.67-0.57c-2.08-1.75-4.45-2.11-6.98-1.29c-2.54,0.82-4.07,3.07-4.14,5.91c-0.09,3.41,2.08,6.09,5.43,6.65
		c2.13,0.35,4.03-0.19,5.66-1.62c0.25-0.22,0.5-0.44,0.79-0.7c1.19,1.25,2.38,2.5,3.61,3.8c-0.5,0.43-1.07,0.97-1.7,1.44
		c-1.8,1.34-3.83,2.11-6.08,2.29c-0.1,0.01-0.2,0.04-0.3,0.06C89.04,41.95,88.52,41.95,88,41.95z"/>
	<path class="st0" d="M63.11,23.89c0-1.64,0-3.25,0-4.89c0.13-0.01,0.25-0.02,0.38-0.02c0.97,0,1.94-0.01,2.91,0.01
		c0.3,0.01,0.38-0.1,0.37-0.38c-0.01-2.23-0.01-4.46-0.01-6.69c0-0.15,0-0.3,0-0.48c1.74,0,3.45,0,5.22,0c0,0.15,0,0.3,0,0.45
		c0,2.23,0.01,4.46-0.01,6.69c0,0.32,0.07,0.43,0.41,0.42c1.18-0.02,2.36-0.01,3.55-0.01c0.19,0,0.34-0.02,0.34,0.26
		c-0.01,1.5-0.01,3-0.01,4.5c0,0.03-0.01,0.07-0.03,0.14c-1.4,0-2.8,0-4.24,0c0,5.89,0,11.74,0,17.62c-1.76,0-3.48,0-5.23,0
		c0-0.18,0-0.34,0-0.5c0-5.54,0-11.07,0-16.61c0-0.5,0-0.5-0.49-0.5C65.23,23.89,64.19,23.89,63.11,23.89z"/>
	<path class="st0" d="M31.34,8.05c1.73,0,3.42,0,5.14,0c0,11.16,0,22.3,0,33.45c-1.72,0-3.42,0-5.14,0
		C31.34,30.36,31.34,19.21,31.34,8.05z"/>
	<path class="st0" d="M88.48,26.35c2.16-0.03,3.94,1.67,3.97,3.78c0.03,2.18-1.66,3.95-3.74,4.02c-2.29,0.07-4.02-1.76-4.07-3.79
		C84.58,28.15,86.37,26.35,88.48,26.35z"/>
</g>
</svg>
