<?xml version="1.0" encoding="UTF-8"?>
<svg id="Layer_1" data-name="Layer 1" xmlns="http://www.w3.org/2000/svg" viewBox="0 0 594.96 594.9">
  <defs>
    <style>
      .cls-1 {
        fill: #4e2972;
      }
    </style>
  </defs>
  <path class="cls-1" d="m475.36,0C480.39,0,485.42,0,490.45,0c1.82.78,3.61,1.65,5.46,2.33,16.96,6.21,25.67,21.15,24.47,36.75-1.85,24.12-20.94,37.24-44.01,35.24-1.92-.17-4.54.77-5.91,2.12-26.78,26.56-53.75,52.93-79.88,80.12-7.74,8.06-15.37,11.46-26.51,10.91-18.85-.94-37.78-.26-56.85-.26v36.83c.76.13,1.3.31,1.84.31,29.4.01,58.8.08,88.2-.12,2.11-.01,4.66-1.47,6.23-3.03,22.8-22.6,45.43-45.38,68.27-67.93,1.78-1.75,4.85-3.03,7.35-3.08,13.92-.29,27.85-.03,41.77-.26,2.16-.04,4.65-1.25,6.36-2.68,2.3-1.91,3.75-4.82,5.99-6.82,15.61-14,40.88-10.76,52.33,4.35,3.85,5.08,6.3,11.22,9.39,16.88v15.1c-.77,1.23-1.82,2.36-2.27,3.69-5.03,14.99-16.04,23.08-31.06,25.1-14.22,1.92-25.89-3.49-34.36-15.48-1.08-1.53-3.74-2.66-5.72-2.73-8.5-.3-17.03.04-25.53-.21-3.55-.11-6,.96-8.52,3.5-22.34,22.53-44.77,44.98-67.38,67.24-2.02,1.99-5.5,3.49-8.32,3.51-32.89.24-65.78.15-98.68.15h-5.73v37.16c44.15,0,87.88,0,131.6,0,27.09,0,54.18.07,81.26-.12,2.35-.02,5.06-1.19,6.95-2.67,2.34-1.83,3.76-4.8,6-6.81,15.61-14.03,40.89-10.79,52.35,4.32,3.85,5.08,6.3,11.23,9.39,16.89v15.1c-.74,1.04-1.84,1.97-2.17,3.12-2.13,7.55-6.42,13.49-12.69,18.15-16.44,12.21-38.89,10.62-52.25-7.06-2.22-2.93-4.17-3.8-7.45-3.8-69.66.05-139.31.04-208.97.05-1.46,0-2.92.22-4.05.31v36.83c35.04,0,69.67.05,104.29-.08,3.53-.01,5.99.94,8.52,3.48,22.47,22.67,45.07,45.22,67.73,67.7,1.48,1.47,3.71,3,5.64,3.06,9.47.31,18.96.28,28.43.02,1.79-.05,3.84-1.33,5.24-2.62,2.21-2.04,3.74-4.84,5.97-6.85,15.61-14.03,40.89-10.79,52.35,4.32,3.85,5.08,6.3,11.23,9.39,16.89v15.1c-.77,1.22-1.82,2.35-2.27,3.68-5.02,14.99-16.05,23.07-31.05,25.1-14.21,1.93-25.87-3.5-34.36-15.47-1.15-1.62-4.13-2.7-6.28-2.74-13.73-.24-27.47-.24-41.21-.04-3.55.05-5.99-.97-8.51-3.51-22.47-22.67-45.05-45.24-67.77-67.66-1.78-1.76-4.86-3.07-7.35-3.09-28.25-.21-56.5-.14-84.75-.12-1.46,0-2.91.22-4.01.31v36.83c22.67,0,44.92.08,67.16-.08,3.56-.03,5.99.99,8.5,3.52,28.64,28.82,57.44,57.48,86.09,86.29,2.85,2.87,5.18,4.29,9.73,3.57,4.85-.76,10.21.35,15.13,1.53,16.43,3.95,29,22.32,25.73,41.86-3.95,23.62-31.77,37.47-51.94,27.18-14.61-7.46-22.29-19.04-21.33-35.56.33-5.74-1.31-9.64-5.46-13.69-20.36-19.86-40.33-40.11-60.45-60.21-5.74-5.73-10.6-13.65-17.53-16.51-6.95-2.87-15.99-.71-24.12-.72-10.56-.02-21.13,0-31.92,0,0,7.62.27,14.57-.06,21.5-.57,12.2.05,24.74-2.58,36.52-8.72,39.09-41.44,67.77-82.14,71.84-21.35,2.14-42.1-1.9-61.78-10.99-25.6-11.82-45.54-29.93-59.58-54.19-10.5-18.14-16.8-37.83-16.72-59.06.05-14.03,1.39-28.09.86-42.09-.45-11.68-6.47-21.65-15.9-28.29-14.89-10.49-28.79-21.88-40.12-36.2-16.53-20.9-25.91-44.93-28.28-71.2-1.82-20.14-.1-40.27,6.74-59.73,11.52-32.75,31.46-58.34,62.29-74.91,3.57-1.92,5.06-4.15,5.19-8.46.4-13.15-.12-26.64,2.67-39.35,7.24-33.01,24.27-60.38,51.42-81.12,13.8-10.54,28.64-18.89,45.66-22.96C182.76,3.84,190.87,1.93,198.99,0c8.9,0,17.81,0,26.71,0,2.19.77,4.33,1.91,6.58,2.26,22.54,3.5,40.03,15.79,54.25,32.64,14.71,17.43,20.24,38.48,20.43,61.03.1,11.32.02,22.65.02,34.12,18.36,0,35.95.09,53.54-.13,1.94-.02,4.26-1.44,5.72-2.9,25.94-25.77,51.73-51.69,77.68-77.44,2.25-2.23,2.93-4.3,2.58-7.32-1.52-13.15,2.07-24.71,12.51-33.11C463.8,5.28,469.87,3,475.36,0Z"/>
</svg>