<?xml version="1.0" encoding="utf-8"?>
<!-- Generator: Adobe Illustrator 26.2.1, SVG Export Plug-In . SVG Version: 6.00 Build 0)  -->
<svg version="1.1" id="report" xmlns="http://www.w3.org/2000/svg" xmlns:xlink="http://www.w3.org/1999/xlink" x="0px" y="0px"
	 viewBox="0 0 640.62 640.62" style="enable-background:new 0 0 640.62 640.62;" xml:space="preserve">
<style type="text/css">
	.st0{fill:#360061;}
	.st1{fill:#5800B2;}
	.st2{fill:url(#SVGID_1_);}
	.st3{fill:url(#SVGID_00000003081782962989330340000011690352364941828259_);}
	.st4{fill:url(#SVGID_00000043416512381100881040000014035652901820663684_);}
	.st5{fill:url(#SVGID_00000084524685234297795900000017852704293851033741_);}
	.st6{fill:url(#SVGID_00000180336527348389604470000013132339980008567175_);}
	.st7{fill:url(#SVGID_00000052076669120133703250000017684863990875243908_);}
	.st8{fill:url(#SVGID_00000085249145367971961490000016192922663250415750_);}
</style>
<g>
	<path class="st0" d="M641.87,565.69c-8.52,15.92-16.93,31.91-25.61,47.74c-4.64,8.47-12.73,9.91-20.34,3.76
		c-12.45-10.08-24.81-20.27-37.11-30.53c-5.49-4.58-6.35-10.94-2.62-16.65c4.06-6.21,9.87-7.67,16.76-4.32
		c2.19,1.07,4.5,1.89,8.74,3.65c-4.05-9.99-7.2-18.38-10.81-26.57c-8.17-18.54-17.83-36.13-32.55-50.51
		c-7.64-7.47-16.39-12.63-26.8-15.06c-6.59-1.54-11.66-9.24-10.37-15.51c1.3-6.31,8.43-10.37,15.66-8.66
		c20.97,4.96,36.02,18.42,48.74,34.82c17.38,22.41,28.89,47.96,38.68,74.36c1.2,3.23,2.34,6.49,3.98,11.08
		c2.52-4.96,4.46-8.54,6.18-12.22c2.65-5.67,5.76-10.66,12.9-11.13c7.29-0.49,11.51,3.59,14.57,9.52
		C641.87,561.53,641.87,563.61,641.87,565.69z"/>
	<path class="st1" d="M641.87,81.17c-2.62,5.43-6.83,9.05-12.86,9.48c-5.4,0.39-9.58-2.31-12.09-7.24
		c-2.63-5.17-5.25-10.34-8.56-16.87c-1.16,3.58-1.97,5.98-2.71,8.4c-8.49,27.81-20.05,54.13-38.16,77.14
		c-12.32,15.65-27.18,27.99-46.77,33.65c-1.2,0.35-2.4,0.69-3.63,0.9c-7.09,1.25-13.55-1.89-15.48-7.5
		c-1.55-4.5,1.87-11.27,7.37-14.46c1.07-0.62,2.23-1.17,3.42-1.48c19.66-5.07,32.27-19,43.08-34.85
		c11.75-17.23,20.4-36.07,27.82-57.19c-2.97,1.88-4.88,3.14-6.83,4.33c-5.14,3.15-12.37,2.21-16.63-2.13
		c-3.69-3.75-4.03-10.51-0.59-15.54c1.15-1.69,2.63-3.23,4.21-4.54c11.02-9.17,22.36-17.99,33.1-27.48
		c8.25-7.3,16.68-4.13,20.63,3.85c7.62,15.4,16.38,30.23,24.66,45.3C641.87,77.01,641.87,79.09,641.87,81.17z"/>
	<path class="st0" d="M461.18,291.01c0.24,87.16-71.05,150.65-151.92,149.62c-84.17-1.07-150.74-68.51-149.32-150.5
		c1.45-83.68,68.44-150.11,149.34-149.32C395,141.65,461.45,211.35,461.18,291.01z M311.62,417.35
		c69.07,0.65,125.19-55.76,124.9-127.02c-0.3-71.55-58.43-123.73-126.75-124.14c-68.14-0.4-124.69,56.45-125.15,126.72
		C184.21,354.2,234.02,417.59,311.62,417.35z"/>
	<linearGradient id="SVGID_1_" gradientUnits="userSpaceOnUse" x1="159.9147" y1="290.7294" x2="461.1803" y2="290.7294">
		<stop  offset="0" style="stop-color:#FFFFFF;stop-opacity:0.4"/>
		<stop  offset="0.0691" style="stop-color:#FFFFFF;stop-opacity:0.3435"/>
		<stop  offset="0.4892" style="stop-color:#FFFFFF;stop-opacity:0"/>
		<stop  offset="0.7527" style="stop-color:#FAFAFA;stop-opacity:0.1032"/>
		<stop  offset="1" style="stop-color:#EFEFEF;stop-opacity:0.2"/>
	</linearGradient>
	<path class="st2" d="M461.18,291.01c0.24,87.16-71.05,150.65-151.92,149.62c-84.17-1.07-150.74-68.51-149.32-150.5
		c1.45-83.68,68.44-150.11,149.34-149.32C395,141.65,461.45,211.35,461.18,291.01z M311.62,417.35
		c69.07,0.65,125.19-55.76,124.9-127.02c-0.3-71.55-58.43-123.73-126.75-124.14c-68.14-0.4-124.69,56.45-125.15,126.72
		C184.21,354.2,234.02,417.59,311.62,417.35z"/>
	<path class="st1" d="M358.77,447.96c21.54-12.45,42.5-24.56,63.82-36.89c16.83,29.09,33.34,57.64,50.33,87.02
		c-21.31,12.33-42.39,24.52-63.83,36.93C392.21,505.81,375.62,477.11,358.77,447.96z"/>
	
		<linearGradient id="SVGID_00000158010853509719074190000008460601254952247686_" gradientUnits="userSpaceOnUse" x1="358.7698" y1="473.0396" x2="472.9206" y2="473.0396">
		<stop  offset="0" style="stop-color:#FFFFFF;stop-opacity:0.4"/>
		<stop  offset="0.0691" style="stop-color:#FFFFFF;stop-opacity:0.3435"/>
		<stop  offset="0.4892" style="stop-color:#FFFFFF;stop-opacity:0"/>
		<stop  offset="0.7527" style="stop-color:#FAFAFA;stop-opacity:0.1032"/>
		<stop  offset="1" style="stop-color:#EFEFEF;stop-opacity:0.2"/>
	</linearGradient>
	<path style="fill:url(#SVGID_00000158010853509719074190000008460601254952247686_);" d="M358.77,447.96
		c21.54-12.45,42.5-24.56,63.82-36.89c16.83,29.09,33.34,57.64,50.33,87.02c-21.31,12.33-42.39,24.52-63.83,36.93
		C392.21,505.81,375.62,477.11,358.77,447.96z"/>
	<path class="st1" d="M35.32,574.08c6.69-16.67,12.38-33.17,19.82-48.85c11.7-24.69,26.61-47.23,51.05-61.39
		c6.2-3.6,13.22-5.95,20.09-8.21c6.9-2.26,11.53-0.35,13.79,4.63c3.09,6.81,1.21,13.87-4.7,17.6c-0.88,0.55-1.78,1.19-2.75,1.45
		c-18.79,4.99-30.66,18.6-41.07,33.63c-12.01,17.33-20.68,36.42-28.3,57.84c3.09-1.91,5.02-3.11,6.95-4.3
		c5.91-3.65,11.89-3.28,15.93,0.97c4.53,4.77,4.96,11.56,0.93,17.14c-1.08,1.5-2.44,2.85-3.86,4.03
		c-11.21,9.3-22.42,18.59-33.71,27.79c-8.77,7.14-16.82,5.45-22.28-4.53c-7.58-13.86-15.38-27.6-22.66-41.61
		c-4.57-8.79,1.74-18.63,11.68-18.89c4.98-0.13,8.81,1.83,11.06,6.56C29.85,563.35,32.62,568.69,35.32,574.08z"/>
	<path class="st0" d="M35.92,68.91c-3.37,6.65-5.85,12.15-8.86,17.34c-5.13,8.84-17.72,8.63-22.2-0.6c-1.3-2.67-1.24-7.16,0.15-9.78
		c7.88-14.84,16.37-29.36,24.62-44.01c5.6-9.95,11.14-11.17,19.97-4.02c11.63,9.41,23.15,18.97,34.67,28.53
		c6.84,5.67,7.93,12.04,3.33,18.41c-4.55,6.31-10.89,7.04-18.56,2.16c-1.55-0.99-3.1-1.96-6.31-3.98c4.04,9.93,7.21,18.4,10.9,26.64
		c8.28,18.46,17.43,36.6,32.92,50.11c6.69,5.84,15.41,9.31,23.06,14.1c3.74,2.34,8.79,4.54,10.24,8.05
		c1.53,3.69,0.72,9.57-1.33,13.22c-2.68,4.77-8.5,4.63-13.54,3.21c-15.93-4.48-28.54-14.07-39.46-26.14
		c-16.81-18.6-28.09-40.55-37.9-63.32C43.57,89.37,40.1,79.64,35.92,68.91z"/>
	
		<linearGradient id="SVGID_00000098940651950379559410000002570374506657645236_" gradientUnits="userSpaceOnUse" x1="500.9694" y1="536.8041" x2="641.8701" y2="536.8041">
		<stop  offset="0" style="stop-color:#FFFFFF;stop-opacity:0.4"/>
		<stop  offset="0.0691" style="stop-color:#FFFFFF;stop-opacity:0.3435"/>
		<stop  offset="0.4892" style="stop-color:#FFFFFF;stop-opacity:0"/>
		<stop  offset="0.7527" style="stop-color:#FAFAFA;stop-opacity:0.1032"/>
		<stop  offset="1" style="stop-color:#EFEFEF;stop-opacity:0.2"/>
	</linearGradient>
	<path style="fill:url(#SVGID_00000098940651950379559410000002570374506657645236_);" d="M641.87,565.69
		c-8.52,15.92-16.93,31.91-25.61,47.74c-4.64,8.47-12.73,9.91-20.34,3.76c-12.45-10.08-24.81-20.27-37.11-30.53
		c-5.49-4.58-6.35-10.94-2.62-16.65c4.06-6.21,9.87-7.67,16.76-4.32c2.19,1.07,4.5,1.89,8.74,3.65c-4.05-9.99-7.2-18.38-10.81-26.57
		c-8.17-18.54-17.83-36.13-32.55-50.51c-7.64-7.47-16.39-12.63-26.8-15.06c-6.59-1.54-11.66-9.24-10.37-15.51
		c1.3-6.31,8.43-10.37,15.66-8.66c20.97,4.96,36.02,18.42,48.74,34.82c17.38,22.41,28.89,47.96,38.68,74.36
		c1.2,3.23,2.34,6.49,3.98,11.08c2.52-4.96,4.46-8.54,6.18-12.22c2.65-5.67,5.76-10.66,12.9-11.13c7.29-0.49,11.51,3.59,14.57,9.52
		C641.87,561.53,641.87,563.61,641.87,565.69z"/>
	
		<linearGradient id="SVGID_00000097500814171230188130000015517266690672512423_" gradientUnits="userSpaceOnUse" x1="501.2468" y1="104.2833" x2="641.8701" y2="104.2833">
		<stop  offset="0" style="stop-color:#FFFFFF;stop-opacity:0.4"/>
		<stop  offset="0.0691" style="stop-color:#FFFFFF;stop-opacity:0.3435"/>
		<stop  offset="0.4892" style="stop-color:#FFFFFF;stop-opacity:0"/>
		<stop  offset="0.7527" style="stop-color:#FAFAFA;stop-opacity:0.1032"/>
		<stop  offset="1" style="stop-color:#EFEFEF;stop-opacity:0.2"/>
	</linearGradient>
	<path style="fill:url(#SVGID_00000097500814171230188130000015517266690672512423_);" d="M641.87,81.17
		c-2.62,5.43-6.83,9.05-12.86,9.48c-5.4,0.39-9.58-2.31-12.09-7.24c-2.63-5.17-5.25-10.34-8.56-16.87c-1.16,3.58-1.97,5.98-2.71,8.4
		c-8.49,27.81-20.05,54.13-38.16,77.14c-12.32,15.65-27.18,27.99-46.77,33.65c-1.2,0.35-2.4,0.69-3.63,0.9
		c-7.09,1.25-13.55-1.89-15.48-7.5c-1.55-4.5,1.87-11.27,7.37-14.46c1.07-0.62,2.23-1.17,3.42-1.48c19.66-5.07,32.27-19,43.08-34.85
		c11.75-17.23,20.4-36.07,27.82-57.19c-2.97,1.88-4.88,3.14-6.83,4.33c-5.14,3.15-12.37,2.21-16.63-2.13
		c-3.69-3.75-4.03-10.51-0.59-15.54c1.15-1.69,2.63-3.23,4.21-4.54c11.02-9.17,22.36-17.99,33.1-27.48
		c8.25-7.3,16.68-4.13,20.63,3.85c7.62,15.4,16.38,30.23,24.66,45.3C641.87,77.01,641.87,79.09,641.87,81.17z"/>
	
		<linearGradient id="SVGID_00000047017920993775857540000005971430311498458249_" gradientUnits="userSpaceOnUse" x1="3.0118" y1="537.7205" x2="141.5287" y2="537.7205">
		<stop  offset="0" style="stop-color:#FFFFFF;stop-opacity:0.4"/>
		<stop  offset="0.0691" style="stop-color:#FFFFFF;stop-opacity:0.3435"/>
		<stop  offset="0.4892" style="stop-color:#FFFFFF;stop-opacity:0"/>
		<stop  offset="0.7527" style="stop-color:#FAFAFA;stop-opacity:0.1032"/>
		<stop  offset="1" style="stop-color:#EFEFEF;stop-opacity:0.2"/>
	</linearGradient>
	<path style="fill:url(#SVGID_00000047017920993775857540000005971430311498458249_);" d="M35.32,574.08
		c6.69-16.67,12.38-33.17,19.82-48.85c11.7-24.69,26.61-47.23,51.05-61.39c6.2-3.6,13.22-5.95,20.09-8.21
		c6.9-2.26,11.53-0.35,13.79,4.63c3.09,6.81,1.21,13.87-4.7,17.6c-0.88,0.55-1.78,1.19-2.75,1.45
		c-18.79,4.99-30.66,18.6-41.07,33.63c-12.01,17.33-20.68,36.42-28.3,57.84c3.09-1.91,5.02-3.11,6.95-4.3
		c5.91-3.65,11.89-3.28,15.93,0.97c4.53,4.77,4.96,11.56,0.93,17.14c-1.08,1.5-2.44,2.85-3.86,4.03
		c-11.21,9.3-22.42,18.59-33.71,27.79c-8.77,7.14-16.82,5.45-22.28-4.53c-7.58-13.86-15.38-27.6-22.66-41.61
		c-4.57-8.79,1.74-18.63,11.68-18.89c4.98-0.13,8.81,1.83,11.06,6.56C29.85,563.35,32.62,568.69,35.32,574.08z"/>
	
		<linearGradient id="SVGID_00000183220461639574596680000013255254262474896778_" gradientUnits="userSpaceOnUse" x1="3.9315" y1="106.2263" x2="140.6585" y2="106.2263">
		<stop  offset="0" style="stop-color:#FFFFFF;stop-opacity:0.4"/>
		<stop  offset="0.0691" style="stop-color:#FFFFFF;stop-opacity:0.3435"/>
		<stop  offset="0.4892" style="stop-color:#FFFFFF;stop-opacity:0"/>
		<stop  offset="0.7527" style="stop-color:#FAFAFA;stop-opacity:0.1032"/>
		<stop  offset="1" style="stop-color:#EFEFEF;stop-opacity:0.2"/>
	</linearGradient>
	<path style="fill:url(#SVGID_00000183220461639574596680000013255254262474896778_);" d="M35.92,68.91
		c-3.37,6.65-5.85,12.15-8.86,17.34c-5.13,8.84-17.72,8.63-22.2-0.6c-1.3-2.67-1.24-7.16,0.15-9.78
		c7.88-14.84,16.37-29.36,24.62-44.01c5.6-9.95,11.14-11.17,19.97-4.02c11.63,9.41,23.15,18.97,34.67,28.53
		c6.84,5.67,7.93,12.04,3.33,18.41c-4.55,6.31-10.89,7.04-18.56,2.16c-1.55-0.99-3.1-1.96-6.31-3.98c4.04,9.93,7.21,18.4,10.9,26.64
		c8.28,18.46,17.43,36.6,32.92,50.11c6.69,5.84,15.41,9.31,23.06,14.1c3.74,2.34,8.79,4.54,10.24,8.05
		c1.53,3.69,0.72,9.57-1.33,13.22c-2.68,4.77-8.5,4.63-13.54,3.21c-15.93-4.48-28.54-14.07-39.46-26.14
		c-16.81-18.6-28.09-40.55-37.9-63.32C43.57,89.37,40.1,79.64,35.92,68.91z"/>
	<path class="st0" d="M416.24,548.81c21.5-12.6,42.6-24.97,64.35-37.72c6.62,10.66,7.4,21.58,2.58,32.61
		c-6.34,14.48-17.52,23.18-33.59,23.79C435.16,568.05,424.35,561.14,416.24,548.81z"/>
	
		<linearGradient id="SVGID_00000003080476118484440550000017921652728915375528_" gradientUnits="userSpaceOnUse" x1="416.2445" y1="539.3118" x2="486.2667" y2="539.3118">
		<stop  offset="0" style="stop-color:#FFFFFF;stop-opacity:0.4"/>
		<stop  offset="0.0691" style="stop-color:#FFFFFF;stop-opacity:0.3435"/>
		<stop  offset="0.4892" style="stop-color:#FFFFFF;stop-opacity:0"/>
		<stop  offset="0.7527" style="stop-color:#FAFAFA;stop-opacity:0.1032"/>
		<stop  offset="1" style="stop-color:#EFEFEF;stop-opacity:0.2"/>
	</linearGradient>
	<path style="fill:url(#SVGID_00000003080476118484440550000017921652728915375528_);" d="M416.24,548.81
		c21.5-12.6,42.6-24.97,64.35-37.72c6.62,10.66,7.4,21.58,2.58,32.61c-6.34,14.48-17.52,23.18-33.59,23.79
		C435.16,568.05,424.35,561.14,416.24,548.81z"/>
	<path class="st1" d="M347.31,229.74c9.36,0,18.44,0,28.02,0c0,42.06,0,84.11,0,126.63c-9.13,0-18.36,0-28.02,0
		C347.31,314.16,347.31,272.12,347.31,229.74z"/>
	<path class="st1" d="M272.78,258.82c0,32.74,0,64.91,0,97.54c-9.55,0-18.78,0-28.48,0c0-32.5,0-64.83,0-97.54
		C253.71,258.82,262.97,258.82,272.78,258.82z"/>
	<path class="st1" d="M324.26,294.65c0,20.73,0,40.83,0,61.53c-9.43,0-18.79,0-28.51,0c0-20.49,0-40.77,0-61.53
		C305.2,294.65,314.42,294.65,324.26,294.65z"/>
</g>
</svg>
