<?xml version="1.0" encoding="UTF-8"?>
<svg id="report" xmlns="http://www.w3.org/2000/svg" version="1.1" xmlns:xlink="http://www.w3.org/1999/xlink" viewBox="0 0 640.62 640.62">
  <defs>
    <style>
      .cls-1 {
        fill: #360061;
      }

      .cls-1, .cls-2, .cls-3, .cls-4, .cls-5, .cls-6, .cls-7, .cls-8, .cls-9 {
        stroke-width: 0px;
      }

      .cls-2 {
        fill: url(#linear-gradient);
      }

      .cls-3 {
        fill: url(#linear-gradient-6);
      }

      .cls-4 {
        fill: url(#linear-gradient-5);
      }

      .cls-5 {
        fill: #5800b2;
      }

      .cls-6 {
        fill: url(#linear-gradient-2);
      }

      .cls-7 {
        fill: url(#linear-gradient-7);
      }

      .cls-8 {
        fill: url(#linear-gradient-3);
      }

      .cls-9 {
        fill: url(#linear-gradient-4);
      }
    </style>
    <linearGradient id="linear-gradient" x1="31.89" y1="111.3" x2="555.46" y2="686.52" gradientUnits="userSpaceOnUse">
      <stop offset="0" stop-color="#efefef" stop-opacity=".2"/>
      <stop offset=".25" stop-color="#fafafa" stop-opacity=".1"/>
      <stop offset=".51" stop-color="#fff" stop-opacity="0"/>
      <stop offset=".93" stop-color="#fff" stop-opacity=".34"/>
      <stop offset="1" stop-color="#fff" stop-opacity=".4"/>
    </linearGradient>
    <linearGradient id="linear-gradient-2" x1="97.41" y1="51.67" x2="620.97" y2="626.89" xlink:href="#linear-gradient"/>
    <linearGradient id="linear-gradient-3" x1="59.38" y1="86.28" x2="582.94" y2="661.5" xlink:href="#linear-gradient"/>
    <linearGradient id="linear-gradient-4" x1="235.73" y1="-74.23" x2="759.29" y2="500.99" xlink:href="#linear-gradient"/>
    <linearGradient id="linear-gradient-5" x1="174.32" y1="-18.34" x2="697.89" y2="556.87" xlink:href="#linear-gradient"/>
    <linearGradient id="linear-gradient-6" x1="64.54" y1="81.58" x2="588.11" y2="656.8" xlink:href="#linear-gradient"/>
    <linearGradient id="linear-gradient-7" x1="-80.29" y1="213.41" x2="443.27" y2="788.63" xlink:href="#linear-gradient"/>
  </defs>
  <g>
    <path class="cls-1" d="M602,556.73c-2.54,5.27-6.74,6.89-12.51,6.89-102.99-.12-205.98-.09-308.96-.09-1.28,0-2.57.04-3.85-.08-4.89-.49-8.54-4.28-8.75-9-.21-4.84,3.54-9.14,8.59-9.76,1.27-.16,2.56-.09,3.84-.09,102.99,0,205.98.03,308.96-.1,5.76,0,9.9,1.75,12.67,6.73v5.5Z"/>
    <path class="cls-5" d="M376.29,248.74c-19.44,0-37.94-.08-56.44.13-1.66.02-3.59,1.56-4.91,2.87-11.74,11.59-23.33,23.32-35.04,34.94-12.45,12.36-30.11,12.84-41.69,1.24-11.53-11.56-10.99-29.35,1.33-41.72,14.88-14.93,29.87-29.75,44.67-44.76,6.68-6.77,14.46-10.09,24.05-10.02,27.13.19,54.26.22,81.38,0,12.59-.1,21.66,5.12,28.16,15.76,20.43,33.44,41.11,66.74,61.44,100.24,2.37,3.9,4.7,4.55,8.81,3.71,23.84-4.91,47.71-9.72,71.62-14.3,15.3-2.93,29.4,6.71,32.94,22.06,3.36,14.6-5.56,30.03-20.55,33.36-26.62,5.91-53.42,10.97-80.15,16.36-5.92,1.19-11.86,2.31-17.8,3.4-13.25,2.43-23.4-2.46-30.43-13.62-10.64-16.89-21-33.95-31.49-50.94-.75-1.22-1.59-2.39-2.9-4.35-11.01,16.5-21.7,32.51-32.69,48.98,6.88,3.46,13.37,6.74,19.89,10,14.9,7.45,29.77,14.95,44.72,22.3,6.84,3.36,11.92,8.29,15.33,15.13,15.66,31.46,31.47,62.83,47.07,94.32,8.58,17.33.46,36.24-17.47,41.32-13.34,3.78-26.83-2.3-33.49-15.46-13.87-27.45-27.49-55.03-41.48-82.41-1.52-2.97-4.43-5.83-7.4-7.37-21.47-11.07-43.15-21.72-64.68-32.67-3.08-1.57-5.48-1.6-8.6-.02-24.98,12.65-50.15,24.92-75.06,37.71-11.91,6.12-22.87,5.75-34.19-1.48-24.7-15.76-49.69-31.06-74.46-46.72-10.49-6.63-14.93-16.58-13.12-28.72,1.68-11.24,8.42-18.91,19.24-22.61,8.91-3.05,17.27-1.45,25.18,3.51,19.55,12.26,39.2,24.35,58.68,36.71,3.06,1.94,5.37,1.98,8.5.39,22.04-11.16,44.19-22.11,66.24-33.25,2.03-1.02,4.09-2.59,5.34-4.44,19.31-28.73,38.49-57.55,57.69-86.36.48-.73.85-1.53,1.78-3.22Z"/>
    <path class="cls-1" d="M282.57,177.16c-10.33,9.85-20.37,19.41-30.87,29.42-3.99-6.36-7.92-12.62-12.34-19.66-7.98,11.98-15.7,23.57-23.74,35.65,4.51,2.32,8.66,4.47,13.49,6.96-10.85,10.01-17.81,21.84-18.37,37.4-7.32-3.65-13.98-6.62-20.27-10.24-4-2.3-7.13-1.92-11.09.12-17.4,8.97-35.02,17.51-52.45,26.42-8.67,4.43-16.65,3.98-24.87-1.29-17.26-11.07-34.76-21.77-52.12-32.69-11.28-7.09-14.53-19.41-7.97-29.77,6.38-10.08,18.84-12.54,29.9-5.72,13.56,8.36,27.09,16.78,40.48,25.4,2.99,1.92,5.28,2.17,8.48.52,15.3-7.86,30.75-15.43,46.08-23.22,1.88-.96,3.9-2.27,5.05-3.97,14.04-20.79,27.93-41.69,41.84-62.57.37-.56.57-1.23,1.17-2.55-14.06,0-27.54-.09-41.01.13-1.47.02-3.1,1.71-4.34,2.94-8.08,7.99-16.04,16.09-24.11,24.1-9.42,9.35-22.28,9.92-30.83,1.45-8.74-8.67-8.34-21.23,1.12-30.8,10.82-10.95,21.78-21.77,32.64-32.68,4.48-4.5,9.72-6.95,16.17-6.93,20.53.06,41.05.05,61.58,0,7.54-.02,13.78,2.81,17.76,9.14,13.14,20.92,26,42.01,38.61,62.44Z"/>
    <path class="cls-1" d="M430.3,186.62c0-23.81,19.24-43.02,43-42.92,23.73.1,42.97,19.51,42.83,43.19-.15,23.45-19.3,42.53-42.83,42.65-23.69.13-42.99-19.15-42.99-42.93Z"/>
    <path class="cls-5" d="M287.29,77c15.79.09,28.61,13.08,28.4,28.76-.21,15.7-13.34,28.6-28.92,28.43-15.72-.17-28.39-13.15-28.26-28.95.13-15.95,12.75-28.33,28.78-28.24Z"/>
    <path class="cls-1" d="M269.68,342.4c-4.47-8.97-8.74-17.54-13.31-26.72,15.29-.28,27.8-5.43,38.24-16.79,3.56,7.08,7.48,13.47,9.81,20.39.67,1.97-2.59,6.63-5.17,8.1-9.35,5.33-19.16,9.82-29.58,15.01Z"/>
    <path class="cls-1" d="M229.67,563.45c-3.48,0-6.97.21-10.43-.05-4.85-.37-8.48-4.41-8.59-9.12-.11-4.62,3.44-9.22,8.21-9.47,7.3-.38,14.65-.4,21.95.02,4.73.27,8.21,5,8.02,9.62-.2,4.75-3.81,8.48-8.72,9.01-.36.04-.73.05-1.1.05-3.11,0-6.22,0-9.34,0,0-.02,0-.04,0-.07Z"/>
  </g>
  <g>
    <path class="cls-2" d="M602,556.73c-2.54,5.27-6.74,6.89-12.51,6.89-102.99-.12-205.98-.09-308.96-.09-1.28,0-2.57.04-3.85-.08-4.89-.49-8.54-4.28-8.75-9-.21-4.84,3.54-9.14,8.59-9.76,1.27-.16,2.56-.09,3.84-.09,102.99,0,205.98.03,308.96-.1,5.76,0,9.9,1.75,12.67,6.73v5.5Z"/>
    <path class="cls-6" d="M376.29,248.74c-19.44,0-37.94-.08-56.44.13-1.66.02-3.59,1.56-4.91,2.87-11.74,11.59-23.33,23.32-35.04,34.94-12.45,12.36-30.11,12.84-41.69,1.24-11.53-11.56-10.99-29.35,1.33-41.72,14.88-14.93,29.87-29.75,44.67-44.76,6.68-6.77,14.46-10.09,24.05-10.02,27.13.19,54.26.22,81.38,0,12.59-.1,21.66,5.12,28.16,15.76,20.43,33.44,41.11,66.74,61.44,100.24,2.37,3.9,4.7,4.55,8.81,3.71,23.84-4.91,47.71-9.72,71.62-14.3,15.3-2.93,29.4,6.71,32.94,22.06,3.36,14.6-5.56,30.03-20.55,33.36-26.62,5.91-53.42,10.97-80.15,16.36-5.92,1.19-11.86,2.31-17.8,3.4-13.25,2.43-23.4-2.46-30.43-13.62-10.64-16.89-21-33.95-31.49-50.94-.75-1.22-1.59-2.39-2.9-4.35-11.01,16.5-21.7,32.51-32.69,48.98,6.88,3.46,13.37,6.74,19.89,10,14.9,7.45,29.77,14.95,44.72,22.3,6.84,3.36,11.92,8.29,15.33,15.13,15.66,31.46,31.47,62.83,47.07,94.32,8.58,17.33.46,36.24-17.47,41.32-13.34,3.78-26.83-2.3-33.49-15.46-13.87-27.45-27.49-55.03-41.48-82.41-1.52-2.97-4.43-5.83-7.4-7.37-21.47-11.07-43.15-21.72-64.68-32.67-3.08-1.57-5.48-1.6-8.6-.02-24.98,12.65-50.15,24.92-75.06,37.71-11.91,6.12-22.87,5.75-34.19-1.48-24.7-15.76-49.69-31.06-74.46-46.72-10.49-6.63-14.93-16.58-13.12-28.72,1.68-11.24,8.42-18.91,19.24-22.61,8.91-3.05,17.27-1.45,25.18,3.51,19.55,12.26,39.2,24.35,58.68,36.71,3.06,1.94,5.37,1.98,8.5.39,22.04-11.16,44.19-22.11,66.24-33.25,2.03-1.02,4.09-2.59,5.34-4.44,19.31-28.73,38.49-57.55,57.69-86.36.48-.73.85-1.53,1.78-3.22Z"/>
    <path class="cls-8" d="M282.57,177.16c-10.33,9.85-20.37,19.41-30.87,29.42-3.99-6.36-7.92-12.62-12.34-19.66-7.98,11.98-15.7,23.57-23.74,35.65,4.51,2.32,8.66,4.47,13.49,6.96-10.85,10.01-17.81,21.84-18.37,37.4-7.32-3.65-13.98-6.62-20.27-10.24-4-2.3-7.13-1.92-11.09.12-17.4,8.97-35.02,17.51-52.45,26.42-8.67,4.43-16.65,3.98-24.87-1.29-17.26-11.07-34.76-21.77-52.12-32.69-11.28-7.09-14.53-19.41-7.97-29.77,6.38-10.08,18.84-12.54,29.9-5.72,13.56,8.36,27.09,16.78,40.48,25.4,2.99,1.92,5.28,2.17,8.48.52,15.3-7.86,30.75-15.43,46.08-23.22,1.88-.96,3.9-2.27,5.05-3.97,14.04-20.79,27.93-41.69,41.84-62.57.37-.56.57-1.23,1.17-2.55-14.06,0-27.54-.09-41.01.13-1.47.02-3.1,1.71-4.34,2.94-8.08,7.99-16.04,16.09-24.11,24.1-9.42,9.35-22.28,9.92-30.83,1.45-8.74-8.67-8.34-21.23,1.12-30.8,10.82-10.95,21.78-21.77,32.64-32.68,4.48-4.5,9.72-6.95,16.17-6.93,20.53.06,41.05.05,61.58,0,7.54-.02,13.78,2.81,17.76,9.14,13.14,20.92,26,42.01,38.61,62.44Z"/>
    <path class="cls-9" d="M430.3,186.62c0-23.81,19.24-43.02,43-42.92,23.73.1,42.97,19.51,42.83,43.19-.15,23.45-19.3,42.53-42.83,42.65-23.69.13-42.99-19.15-42.99-42.93Z"/>
    <path class="cls-4" d="M287.29,77c15.79.09,28.61,13.08,28.4,28.76-.21,15.7-13.34,28.6-28.92,28.43-15.72-.17-28.39-13.15-28.26-28.95.13-15.95,12.75-28.33,28.78-28.24Z"/>
    <path class="cls-3" d="M269.68,342.4c-4.47-8.97-8.74-17.54-13.31-26.72,15.29-.28,27.8-5.43,38.24-16.79,3.56,7.08,7.48,13.47,9.81,20.39.67,1.97-2.59,6.63-5.17,8.1-9.35,5.33-19.16,9.82-29.58,15.01Z"/>
    <path class="cls-7" d="M229.67,563.45c-3.48,0-6.97.21-10.43-.05-4.85-.37-8.48-4.41-8.59-9.12-.11-4.62,3.44-9.22,8.21-9.47,7.3-.38,14.65-.4,21.95.02,4.73.27,8.21,5,8.02,9.62-.2,4.75-3.81,8.48-8.72,9.01-.36.04-.73.05-1.1.05-3.11,0-6.22,0-9.34,0,0-.02,0-.04,0-.07Z"/>
  </g>
</svg>