<svg width="625" height="322" viewBox="0 0 625 322" fill="none" xmlns="http://www.w3.org/2000/svg">
<mask id="mask0_70_246" style="mask-type:alpha" maskUnits="userSpaceOnUse" x="0" y="0" width="625" height="322">
<path d="M0 0H625V322H0V0Z" fill="url(#paint0_linear_70_246)"/>
</mask>
<g mask="url(#mask0_70_246)">
<rect width="633" height="322" fill="#F8F1FE"/>
<g opacity="0.63" filter="url(#filter0_f_70_246)">
<path d="M478.787 283.634H490.41V279.453C490.41 242.18 490.439 204.908 490.351 167.626C490.351 165.113 491.079 163.377 492.845 161.631C505.747 148.864 518.524 135.961 531.456 123.233C532.659 122.049 534.725 121.195 536.413 121.147C544.135 120.924 551.877 121.05 560.007 121.05V283.498H571.551V80.644H652.926V283.537H676.063V295.344H672.134C659.911 295.344 647.687 295.441 635.463 295.276C632.534 295.237 630.768 296.207 628.75 298.361C621.076 306.558 613.121 314.504 605.069 322.333C603.789 323.574 601.46 324.273 599.607 324.302C587.529 324.477 575.451 324.389 563.111 324.389C568.534 314.746 573.812 305.365 579.448 295.344C574.85 295.344 571.231 295.15 567.661 295.47C566.604 295.567 565.42 296.944 564.741 298.021C559.754 306.015 554.962 314.135 549.869 322.051C549.093 323.254 547.036 324.283 545.561 324.292C516.516 324.418 487.47 324.37 458.424 324.438C456.368 324.438 455.077 323.856 454.02 322.09C449.169 314.009 444.134 306.044 439.371 297.914C438.246 295.994 437.14 295.13 434.889 295.285C431.804 295.499 428.69 295.334 424.576 295.334C430.213 305.336 435.452 314.639 440.855 324.215C439.808 324.273 438.799 324.37 437.78 324.37C426.885 324.38 415.991 324.292 405.106 324.438C402.36 324.477 400.178 323.817 398.296 321.886C390.447 313.854 382.521 305.889 374.789 297.74C373.247 296.12 371.927 295.247 369.609 295.266C355.823 295.382 342.038 295.324 328 295.324V283.857H350.982C350.982 282.324 350.982 281.063 350.982 279.792C350.982 269.625 351.05 259.458 350.924 249.291C350.895 247.06 351.603 245.828 353.514 244.732C359.597 241.249 365.612 237.64 371.559 233.925C373.441 232.751 374.886 232.644 376.807 233.847C382.851 237.631 388.963 241.317 395.152 244.858C397.015 245.925 397.5 247.196 397.481 249.204C397.403 260.555 397.442 271.915 397.442 283.489H409.064V279.472C409.064 258.537 409.2 237.601 408.948 216.666C408.899 212.349 410.257 209.623 413.507 206.945C423.684 198.563 433.589 189.861 443.853 181.062C444.998 181.994 446.123 182.867 447.19 183.788C456.93 192.131 466.622 200.533 476.44 208.789C478.205 210.273 478.826 211.767 478.816 214.027C478.739 235.807 478.768 257.596 478.768 279.375V283.634H478.787ZM583.532 126.619H594.708V97.9997H583.532V126.619ZM617.914 126.783V98.0676H606.864V126.783H617.914ZM641.148 126.783V98.0676H630.099V126.783H641.148ZM537.141 138.648V167.238H548.307V138.648H537.141ZM583.62 138.648V167.238H594.786V138.648H583.62ZM606.854 138.648V167.238H618.02V138.648H606.854ZM641.216 167.451V138.755H630.128V167.451H641.216ZM513.382 208.042V179.452H502.216V208.042H513.382ZM537.112 179.229V207.935H548.21V179.229H537.112ZM583.61 179.316V207.906H594.786V179.316H583.61ZM618.03 179.384H606.854V208.022H618.03V179.384ZM630.079 179.316V207.906H641.265V179.316H630.079ZM420.958 219.964V248.68H432.105V219.964H420.958ZM467.01 220.023H455.776V248.603H467.01V220.023ZM502.323 219.964V248.661H513.411V219.964H502.323ZM537.015 248.583H548.317V220.042H537.015V248.583ZM594.834 219.994H583.561V248.622H594.834V219.994ZM617.943 248.719V220.003H606.806V248.719H617.943ZM641.197 248.7V220.11H630.021V248.7H641.197ZM379.902 260.778H368.6V283.489H379.902V260.778ZM449.48 283.556V260.778H438.304V283.556H449.48ZM519.591 283.44H530.893V260.71H519.591V283.44ZM617.933 283.586V260.671H606.815V283.586H617.933Z" fill="#1222AA"/>
<path d="M339.37 188.92C339.37 182.459 339.312 176.813 339.428 171.176C339.448 170.371 340.127 169.411 340.767 168.809C367.184 144.1 393.639 119.43 420.095 94.7593C420.347 94.5264 420.706 94.41 421.162 94.1578C430.902 102.268 440.652 110.398 450.411 118.518C454.806 122.175 457.328 121.971 461.199 117.664C477.711 99.3189 494.213 80.9737 510.714 62.6286C515.032 57.8264 514.653 54.7802 509.298 51.1325C507.746 50.0751 506.203 48.9885 504.088 47.5236C516.962 43.6625 529.147 40.0148 541.827 36.2119C540.497 49.5124 539.227 62.3181 537.878 75.832C534.909 73.9209 532.436 72.3396 529.972 70.7583C525.392 67.8091 523.375 68.071 519.63 72.1164C499.034 94.4294 478.438 116.742 457.842 139.055C457.027 139.938 456.203 140.821 455.107 141.995C453.981 141.112 452.856 140.287 451.789 139.405C443.135 132.216 434.511 124.998 425.857 117.81C421.53 114.21 419.415 114.317 415.195 118.246C391.049 140.782 366.902 163.309 342.756 185.845C341.873 186.669 340.971 187.475 339.37 188.93V188.92Z" fill="#1222AA"/>
<path d="M606.68 34H618.059V57.0697H641.245V68.4881H583.639V57.2637H606.68V34Z" fill="#1222AA"/>
</g>
<rect opacity="0.68" y="-19" width="635" height="353" fill="#F8F1FE"/>
</g>
<defs>
<filter id="filter0_f_70_246" x="320" y="26" width="364.063" height="340.787" filterUnits="userSpaceOnUse" color-interpolation-filters="sRGB">
<feFlood flood-opacity="0" result="BackgroundImageFix"/>
<feBlend mode="normal" in="SourceGraphic" in2="BackgroundImageFix" result="shape"/>
<feGaussianBlur stdDeviation="4" result="effect1_foregroundBlur_70_246"/>
</filter>
<linearGradient id="paint0_linear_70_246" x1="-196" y1="-293.5" x2="733" y2="462" gradientUnits="userSpaceOnUse">
<stop stop-color="#200554"/>
<stop offset="1" stop-color="#45108A"/>
</linearGradient>
</defs>
</svg>
