<?xml version="1.0" encoding="utf-8"?>
<!-- Generator: Adobe Illustrator 26.2.1, SVG Export Plug-In . SVG Version: 6.00 Build 0)  -->
<svg version="1.1" id="report" xmlns="http://www.w3.org/2000/svg" xmlns:xlink="http://www.w3.org/1999/xlink" x="0px" y="0px"
	 viewBox="0 0 640.62 640.62" style="enable-background:new 0 0 640.62 640.62;" xml:space="preserve">
<style type="text/css">
	.st0{fill:#360061;}
	.st1{fill:#5800B2;}
	.st2{fill:url(#SVGID_1_);}
	.st3{fill:url(#SVGID_00000090279054606983092410000011828998484413629082_);}
	.st4{fill:url(#SVGID_00000145023187908632552900000002818274603206532253_);}
	.st5{fill:url(#SVGID_00000053547753322804328350000008299552289929568136_);}
	.st6{fill:url(#SVGID_00000086666431489742848900000015296748033758791340_);}
</style>
<g>
	<path class="st0" d="M24.98,1.25c117.8,0,235.6,0,353.4,0c-0.22,25.99-0.88,51.99-0.51,77.98c0.33,23.52,16.95,41.87,39.58,42.7
		c26.77,0.98,53.59,0.23,80.78,0.23c0,67.43,0,135.36,0,203.63c-1.24,0.14-2.22,0.28-3.22,0.36c-13.98,1.08-28.32-2.65-41.95,3.2
		c-0.8,0.34-2.01-0.42-3.02-0.43c-24.35-0.07-48.69-0.21-73.04-0.06c-5.63,0.03-8.73,4.14-7.67,9.03c1.06,4.85,4.64,5.86,8.97,5.85
		c19.15-0.03,38.29-0.01,57.44-0.01c2.18,0,4.35,0,6.55,0c0,4.73,0.39,8.52-0.16,12.17c-0.3,2-1.81,4.29-3.46,5.53
		c-3.37,2.53-6.3,1.97-9.6-1.39c-14.27-14.55-25.5-14.36-39.95,0.09c-8.09,8.09-16.31,16.07-24.21,24.35
		c-2.97,3.12-6.05,4.32-10.35,4.31c-40.79-0.15-81.58-0.1-122.37-0.07c-2.28,0-5.24-0.59-6.68,0.58c-2.42,1.96-5.27,5.11-5.28,7.76
		c-0.01,2.16,3.62,4.76,6.16,6.32c1.53,0.94,4.06,0.3,6.14,0.3c36.42,0.01,72.84,0.01,109.26,0.01c2.45,0,4.9,0,8.13,0
		c-1.69,11.11,2.74,19.22,10.57,25.64c3.21,2.63,2.88,5.16,1.59,8.68c-1.38,3.77-3.78,3.92-7.11,4.32
		c-6.07,0.72-12.05,2.23-18.03,3.58c-3.31,0.74-6.54,2.61-9.81,2.62c-52.03,0.17-104.05,0.12-156.08,0.12
		c-8.68,0-12.59,2.48-12.41,7.81c0.17,5.07,3.73,7.17,12.29,7.17c49.11,0.01,98.23,0,147.34,0c2.44,0,4.88,0,8.06,0
		c0,2.96,0,5.2,0,7.43c0,14.98-0.17,29.97,0.06,44.95c0.22,14.58,9.48,23.57,24,23.79c1.87,0.03,4.02-0.57,5.55,0.15
		c2.27,1.06,4.5,2.74,6.02,4.72c1.86,2.43,2,4.97-0.76,7.64c-3.53,3.43-7.2,7.18-9.26,11.53c-1.9,4.02-4.13,4.76-8.02,4.75
		c-37.04-0.11-74.09-0.07-111.13-0.06c-1.87,0-3.76-0.12-5.61,0.1c-4.47,0.54-7.51,2.84-7.36,7.64c0.15,4.74,3.1,7.02,7.73,7.19
		c1.87,0.07,3.75,0.05,5.62,0.05c37.67,0,75.34-0.03,113,0.07c2.31,0.01,5.37,0.24,6.81,1.66c12.4,12.29,24.43,24.96,36.73,37.37
		c13.66,13.79,25.29,13.74,39.08-0.11c2.69-2.7,4.74-4.21,9.04-2.44c4.38,1.81,4.54,4.52,4.52,8.22c-0.02,3.93,0.41,7.86,0.67,12.36
		c-2.41,0-4.88,0-7.34,0c-133.19,0-266.38-0.22-399.57,0.25c-19.05,0.07-32.75-11.99-32.69-32.68
		c0.45-165.65,0.25-331.31,0.25-496.96c0-27.26-0.05-54.52,0.03-81.79C3.74,16.9,10.22,7.6,21.79,2.88
		C22.89,2.43,23.92,1.8,24.98,1.25z M205.73,119.98c43.28,0,86.56,0.02,129.84-0.01c13.3-0.01,21.26-7.99,21.39-21.37
		c0.09-9.78,0.03-19.56,0.02-29.34c-0.01-16.96-7.29-24.19-24.4-24.2c-50.36-0.01-100.71,0-151.07,0c-34.75,0-69.5-0.03-104.25,0.01
		c-14.71,0.02-22.42,7.68-22.47,22.19c-0.04,10.2-0.04,20.39,0,30.59c0.05,14.69,7.55,22.13,22.35,22.13
		C120,119.99,162.87,119.98,205.73,119.98z M307.19,283.78c22.88,0,45.76,0,68.64,0c24.13,0,48.26-0.01,72.38-0.01
		c5.14,0,8.69-2.21,8.62-7.59c-0.07-5.03-3.62-7.13-8.37-7.36c-1.25-0.06-2.5-0.03-3.74-0.03c-91.31,0-182.63,0-273.94,0
		c-1.66,0-3.35-0.11-4.98,0.14c-4.49,0.68-7.38,3.2-7.07,7.92c0.28,4.32,3.06,6.65,7.43,6.86c1.87,0.09,3.74,0.06,5.61,0.06
		C216.91,283.78,262.05,283.78,307.19,283.78z M185.94,163.9c42.65,0,85.3,0,127.95,0c2.08,0,4.61,0.68,6.14-0.25
		c2.69-1.64,6.03-3.91,6.83-6.59c1.23-4.11-1.87-6.97-6.06-7.86c-1.8-0.38-3.72-0.27-5.59-0.27c-85.92-0.01-171.84-0.01-257.77,0
		c-1.87,0-3.79-0.12-5.6,0.25c-4.22,0.85-7.27,3.79-6.17,7.83c0.73,2.68,4.11,4.98,6.8,6.64c1.52,0.94,4.06,0.25,6.14,0.25
		C101.06,163.9,143.5,163.9,185.94,163.9z M177.32,343.72c39.74,0,79.48,0,119.22,0c2.08,0,4.62,0.68,6.14-0.26
		c2.67-1.67,5.95-3.98,6.73-6.67c1.19-4.14-1.97-6.94-6.15-7.79c-1.81-0.37-3.73-0.25-5.59-0.25
		c-80.11-0.01-160.21-0.01-240.32,0.01c-2.07,0-4.79-0.52-6.06,0.56c-2.41,2.05-5.39,5.05-5.45,7.71c-0.05,2.14,3.59,4.8,6.13,6.39
		c1.52,0.95,4.05,0.31,6.13,0.31C97.84,343.73,137.58,343.72,177.32,343.72z M177.64,523.55c39.74,0,79.48,0,119.22-0.01
		c2.29,0,5,0.62,6.75-0.39c2.4-1.38,5.61-4.01,5.66-6.16c0.05-2.56-2.45-5.69-4.68-7.58c-1.42-1.21-4.37-0.81-6.63-0.81
		c-80.31-0.03-160.63-0.03-240.94-0.01c-1.86,0-4.33-0.51-5.47,0.45c-2.43,2.07-5.83,5.02-5.73,7.49c0.1,2.39,3.81,5.04,6.47,6.75
		c1.49,0.96,4.05,0.27,6.13,0.28C98.16,523.55,137.9,523.55,177.64,523.55z M346.53,223.84c32.67,0,65.35,0,98.02-0.01
		c2.08,0,4.67,0.63,6.12-0.36c2.47-1.68,5.53-4.23,5.88-6.75c0.3-2.14-2.47-5.3-4.67-6.99c-1.53-1.18-4.38-0.85-6.64-0.85
		c-65.56-0.04-131.11-0.04-196.67,0c-2.25,0-5.14-0.28-6.61,0.93c-2.12,1.74-4.55,4.84-4.37,7.17c0.18,2.32,3.1,4.88,5.42,6.43
		c1.47,0.99,4.04,0.41,6.12,0.42C281.6,223.85,314.06,223.84,346.53,223.84z M111.08,223.84c19.11,0,38.22-0.03,57.33,0.02
		c4.92,0.01,8.74-1.34,9.27-6.92c0.48-5-3-8.04-9.48-8.05c-37.6-0.06-75.2-0.05-112.8-0.01c-6.45,0.01-10.15,2.95-10.08,7.67
		c0.07,4.73,3.54,7.27,10.28,7.28C74.1,223.87,92.59,223.84,111.08,223.84z M103.07,403.66c0-0.01,0-0.02,0-0.02
		c16.41,0,32.82,0.02,49.24-0.01c4.61-0.01,7.7-2.19,7.93-6.94c0.25-5.1-2.89-7.46-7.68-7.95c-0.82-0.09-1.66-0.05-2.49-0.05
		c-31.37,0-62.74-0.02-94.11,0.01c-6.92,0.01-10.76,2.89-10.63,7.75c0.13,4.72,3.58,7.18,10.37,7.2
		C71.49,403.69,87.28,403.66,103.07,403.66z M103.03,583.49c0-0.01,0-0.02,0-0.02c16.41,0,32.82,0.01,49.24-0.01
		c4.6-0.01,7.71-2.15,7.97-6.91c0.27-5.09-2.85-7.48-7.64-7.98c-1.03-0.11-2.08-0.06-3.11-0.06c-31.16,0-62.33-0.02-93.49,0.01
		c-6.95,0.01-10.76,2.85-10.66,7.72c0.1,4.73,3.56,7.22,10.33,7.24C71.45,583.52,87.24,583.49,103.03,583.49z M421.7,163.89
		c8.73,0,17.45-0.06,26.18,0.02c5.08,0.04,8.84-1.9,8.95-7.26c0.12-5.37-3.63-7.67-8.64-7.69c-17.66-0.07-35.32-0.07-52.99,0
		c-5.03,0.02-8.71,2.3-8.61,7.7c0.1,5.42,3.83,7.32,8.91,7.27C404.25,163.83,412.97,163.89,421.7,163.89z M72.4,283.76
		c6.24,0,12.48,0,18.72,0c4.97,0,8.15-2.46,8.15-7.41c0-5-3.41-7.45-8.2-7.49c-12.48-0.12-24.96-0.12-37.43,0.01
		c-4.81,0.05-8.2,2.6-8.17,7.55c0.03,4.92,3.26,7.37,8.22,7.36C59.93,283.76,66.16,283.77,72.4,283.76z M72.27,463.59
		c0-0.01,0-0.02,0-0.02c6.45,0,12.89,0.04,19.34-0.01c4.74-0.04,7.58-2.67,7.67-7.25c0.09-4.65-2.93-7.47-7.47-7.55
		c-12.89-0.22-25.79-0.2-38.68-0.02c-4.53,0.06-7.67,2.75-7.68,7.37c0,4.93,3.11,7.46,8.09,7.48
		C59.8,463.6,66.03,463.59,72.27,463.59z"/>
	<path class="st1" d="M403.35,1.25c30.76,30.67,61.57,61.28,92.13,92.16c1.92,1.94,3.16,6.46,2.22,8.76c-0.94,2.3-5,4.64-7.73,4.68
		c-23.29,0.35-46.59,0.59-69.87,0.03c-16.13-0.39-26.85-12.15-26.96-28.37c-0.15-22.04-0.23-44.09,0.14-66.13
		c0.06-3.73,2.49-7.43,3.83-11.14C399.19,1.25,401.27,1.25,403.35,1.25z"/>
	<path class="st1" d="M553.13,382.65c4.27-4.59,8.53-9.4,13.05-13.96c5.34-5.39,8.56-5.45,13.76-0.32
		c11.4,11.26,22.73,22.59,34,33.97c4.8,4.84,4.74,8.49,0.05,13.39c-4.45,4.65-11.47,8.66-12.71,14.03
		c-1.13,4.89,4.08,11.18,6.33,16.92c4.21,10.77,4.16,10.79,15.88,10.79c17.2,0,17.2,0,17.2,17.36c0,13.32,0.04,26.63-0.02,39.95
		c-0.03,7.39-2.35,9.69-9.64,9.8c-6.24,0.09-13.88-2.05-18.32,0.8c-4.27,2.75-5.18,10.66-7.67,16.26
		c-4.85,10.92-4.87,10.9,3.61,19.4c12.04,12.05,12.04,12.05,0.05,24.04c-9.42,9.42-18.8,18.87-28.27,28.23
		c-5.5,5.44-8.82,5.41-14.29,0.12c-4.48-4.33-8.38-11.09-13.58-12.3c-4.73-1.1-10.82,3.91-16.37,6.1
		c-11.52,4.55-11.53,4.51-11.53,17.22c0,16.17,0,16.17-16.43,16.17c-13.32,0-26.63,0.02-39.95-0.01
		c-8.21-0.02-11.37-2.32-10.45-10.17c1.58-13.56-1.46-21.98-16.51-25.7c-12.03-2.97-11.6-4.72-20.45,4.12
		c-11.69,11.69-11.69,11.69-23.59-0.22c-9.42-9.42-18.86-18.81-28.24-28.26c-5.71-5.75-5.66-8.85,0.06-14.7
		c4.22-4.31,10.91-8.07,11.97-13.05c1.03-4.8-3.79-10.82-5.96-16.33c-4.6-11.72-4.58-11.73-17.09-11.73c-16.28,0-16.28,0-16.28-16.3
		c0-13.52-0.05-27.05,0.02-40.57c0.04-7.88,2.23-10.05,9.93-10.23c6.23-0.14,13.76,1.84,18.29-1c4.12-2.57,4.9-10.4,7.28-15.85
		c4.88-11.14,4.92-11.13-3.77-19.81c-11.75-11.74-11.75-11.74-0.01-23.48c9.27-9.27,18.53-18.55,27.82-27.8
		c6.66-6.63,9.22-6.63,15.99,0.2c4.09,4.13,8.01,8.43,11.71,12.34c9.26-3.62,17.77-6.77,26.09-10.38c1.31-0.57,2.3-3.22,2.4-4.97
		c0.32-5.39,0.12-10.81,0.14-16.22c0.02-5.82,2.8-8.88,8.78-8.87c16.44,0.03,32.88-0.08,49.31,0.05c6.63,0.05,8.77,2.45,8.91,9.23
		c0.13,6.44-2,14.25,0.92,18.92c2.67,4.26,10.81,5.04,16.47,7.49C545.47,378.8,548.77,380.54,553.13,382.65z M491.39,411.94
		c-43.91-0.05-79.37,35.31-79.37,79.13c0,43.68,35.83,79.53,79.33,79.38c43.3-0.15,79.02-35.79,79.19-79.04
		C570.73,447.77,535.08,411.99,491.39,411.94z"/>
	<path class="st1" d="M205.6,104.99c-42.24,0-84.48,0-126.72,0c-8.8,0-9.09-0.3-9.1-9.2c-0.01-9.16-0.03-18.31,0.01-27.47
		c0.03-7.37,0.9-8.27,8.29-8.28c52.02-0.02,104.04-0.01,156.06-0.01c32.88,0,65.75-0.01,98.63,0.01c8.35,0,9.22,0.9,9.24,9.36
		c0.02,8.74,0.01,17.48,0,26.22c-0.01,8.9-0.5,9.37-9.68,9.37C290.08,105,247.84,104.99,205.6,104.99z"/>
	<path class="st0" d="M491.43,426.93c35.47,0.09,64.38,29.17,64.12,64.52c-0.25,35.07-29.16,63.87-64.23,63.99
		c-35.53,0.12-64.51-29.2-64.3-65.04C427.23,455.25,456.05,426.85,491.43,426.93z"/>
	<linearGradient id="SVGID_1_" gradientUnits="userSpaceOnUse" x1="3.4144" y1="321.0583" x2="498.2258" y2="321.0583">
		<stop  offset="0" style="stop-color:#FFFFFF;stop-opacity:0.4"/>
		<stop  offset="0.0691" style="stop-color:#FFFFFF;stop-opacity:0.3435"/>
		<stop  offset="0.4892" style="stop-color:#FFFFFF;stop-opacity:0"/>
		<stop  offset="0.7527" style="stop-color:#FAFAFA;stop-opacity:0.1032"/>
		<stop  offset="1" style="stop-color:#EFEFEF;stop-opacity:0.2"/>
	</linearGradient>
	<path class="st2" d="M24.98,1.25c117.8,0,235.6,0,353.4,0c-0.22,25.99-0.88,51.99-0.51,77.98c0.33,23.52,16.95,41.87,39.58,42.7
		c26.77,0.98,53.59,0.23,80.78,0.23c0,67.43,0,135.36,0,203.63c-1.24,0.14-2.22,0.28-3.22,0.36c-13.98,1.08-28.32-2.65-41.95,3.2
		c-0.8,0.34-2.01-0.42-3.02-0.43c-24.35-0.07-48.69-0.21-73.04-0.06c-5.63,0.03-8.73,4.14-7.67,9.03c1.06,4.85,4.64,5.86,8.97,5.85
		c19.15-0.03,38.29-0.01,57.44-0.01c2.18,0,4.35,0,6.55,0c0,4.73,0.39,8.52-0.16,12.17c-0.3,2-1.81,4.29-3.46,5.53
		c-3.37,2.53-6.3,1.97-9.6-1.39c-14.27-14.55-25.5-14.36-39.95,0.09c-8.09,8.09-16.31,16.07-24.21,24.35
		c-2.97,3.12-6.05,4.32-10.35,4.31c-40.79-0.15-81.58-0.1-122.37-0.07c-2.28,0-5.24-0.59-6.68,0.58c-2.42,1.96-5.27,5.11-5.28,7.76
		c-0.01,2.16,3.62,4.76,6.16,6.32c1.53,0.94,4.06,0.3,6.14,0.3c36.42,0.01,72.84,0.01,109.26,0.01c2.45,0,4.9,0,8.13,0
		c-1.69,11.11,2.74,19.22,10.57,25.64c3.21,2.63,2.88,5.16,1.59,8.68c-1.38,3.77-3.78,3.92-7.11,4.32
		c-6.07,0.72-12.05,2.23-18.03,3.58c-3.31,0.74-6.54,2.61-9.81,2.62c-52.03,0.17-104.05,0.12-156.08,0.12
		c-8.68,0-12.59,2.48-12.41,7.81c0.17,5.07,3.73,7.17,12.29,7.17c49.11,0.01,98.23,0,147.34,0c2.44,0,4.88,0,8.06,0
		c0,2.96,0,5.2,0,7.43c0,14.98-0.17,29.97,0.06,44.95c0.22,14.58,9.48,23.57,24,23.79c1.87,0.03,4.02-0.57,5.55,0.15
		c2.27,1.06,4.5,2.74,6.02,4.72c1.86,2.43,2,4.97-0.76,7.64c-3.53,3.43-7.2,7.18-9.26,11.53c-1.9,4.02-4.13,4.76-8.02,4.75
		c-37.04-0.11-74.09-0.07-111.13-0.06c-1.87,0-3.76-0.12-5.61,0.1c-4.47,0.54-7.51,2.84-7.36,7.64c0.15,4.74,3.1,7.02,7.73,7.19
		c1.87,0.07,3.75,0.05,5.62,0.05c37.67,0,75.34-0.03,113,0.07c2.31,0.01,5.37,0.24,6.81,1.66c12.4,12.29,24.43,24.96,36.73,37.37
		c13.66,13.79,25.29,13.74,39.08-0.11c2.69-2.7,4.74-4.21,9.04-2.44c4.38,1.81,4.54,4.52,4.52,8.22c-0.02,3.93,0.41,7.86,0.67,12.36
		c-2.41,0-4.88,0-7.34,0c-133.19,0-266.38-0.22-399.57,0.25c-19.05,0.07-32.75-11.99-32.69-32.68
		c0.45-165.65,0.25-331.31,0.25-496.96c0-27.26-0.05-54.52,0.03-81.79C3.74,16.9,10.22,7.6,21.79,2.88
		C22.89,2.43,23.92,1.8,24.98,1.25z M205.73,119.98c43.28,0,86.56,0.02,129.84-0.01c13.3-0.01,21.26-7.99,21.39-21.37
		c0.09-9.78,0.03-19.56,0.02-29.34c-0.01-16.96-7.29-24.19-24.4-24.2c-50.36-0.01-100.71,0-151.07,0c-34.75,0-69.5-0.03-104.25,0.01
		c-14.71,0.02-22.42,7.68-22.47,22.19c-0.04,10.2-0.04,20.39,0,30.59c0.05,14.69,7.55,22.13,22.35,22.13
		C120,119.99,162.87,119.98,205.73,119.98z M307.19,283.78c22.88,0,45.76,0,68.64,0c24.13,0,48.26-0.01,72.38-0.01
		c5.14,0,8.69-2.21,8.62-7.59c-0.07-5.03-3.62-7.13-8.37-7.36c-1.25-0.06-2.5-0.03-3.74-0.03c-91.31,0-182.63,0-273.94,0
		c-1.66,0-3.35-0.11-4.98,0.14c-4.49,0.68-7.38,3.2-7.07,7.92c0.28,4.32,3.06,6.65,7.43,6.86c1.87,0.09,3.74,0.06,5.61,0.06
		C216.91,283.78,262.05,283.78,307.19,283.78z M185.94,163.9c42.65,0,85.3,0,127.95,0c2.08,0,4.61,0.68,6.14-0.25
		c2.69-1.64,6.03-3.91,6.83-6.59c1.23-4.11-1.87-6.97-6.06-7.86c-1.8-0.38-3.72-0.27-5.59-0.27c-85.92-0.01-171.84-0.01-257.77,0
		c-1.87,0-3.79-0.12-5.6,0.25c-4.22,0.85-7.27,3.79-6.17,7.83c0.73,2.68,4.11,4.98,6.8,6.64c1.52,0.94,4.06,0.25,6.14,0.25
		C101.06,163.9,143.5,163.9,185.94,163.9z M177.32,343.72c39.74,0,79.48,0,119.22,0c2.08,0,4.62,0.68,6.14-0.26
		c2.67-1.67,5.95-3.98,6.73-6.67c1.19-4.14-1.97-6.94-6.15-7.79c-1.81-0.37-3.73-0.25-5.59-0.25
		c-80.11-0.01-160.21-0.01-240.32,0.01c-2.07,0-4.79-0.52-6.06,0.56c-2.41,2.05-5.39,5.05-5.45,7.71c-0.05,2.14,3.59,4.8,6.13,6.39
		c1.52,0.95,4.05,0.31,6.13,0.31C97.84,343.73,137.58,343.72,177.32,343.72z M177.64,523.55c39.74,0,79.48,0,119.22-0.01
		c2.29,0,5,0.62,6.75-0.39c2.4-1.38,5.61-4.01,5.66-6.16c0.05-2.56-2.45-5.69-4.68-7.58c-1.42-1.21-4.37-0.81-6.63-0.81
		c-80.31-0.03-160.63-0.03-240.94-0.01c-1.86,0-4.33-0.51-5.47,0.45c-2.43,2.07-5.83,5.02-5.73,7.49c0.1,2.39,3.81,5.04,6.47,6.75
		c1.49,0.96,4.05,0.27,6.13,0.28C98.16,523.55,137.9,523.55,177.64,523.55z M346.53,223.84c32.67,0,65.35,0,98.02-0.01
		c2.08,0,4.67,0.63,6.12-0.36c2.47-1.68,5.53-4.23,5.88-6.75c0.3-2.14-2.47-5.3-4.67-6.99c-1.53-1.18-4.38-0.85-6.64-0.85
		c-65.56-0.04-131.11-0.04-196.67,0c-2.25,0-5.14-0.28-6.61,0.93c-2.12,1.74-4.55,4.84-4.37,7.17c0.18,2.32,3.1,4.88,5.42,6.43
		c1.47,0.99,4.04,0.41,6.12,0.42C281.6,223.85,314.06,223.84,346.53,223.84z M111.08,223.84c19.11,0,38.22-0.03,57.33,0.02
		c4.92,0.01,8.74-1.34,9.27-6.92c0.48-5-3-8.04-9.48-8.05c-37.6-0.06-75.2-0.05-112.8-0.01c-6.45,0.01-10.15,2.95-10.08,7.67
		c0.07,4.73,3.54,7.27,10.28,7.28C74.1,223.87,92.59,223.84,111.08,223.84z M103.07,403.66c0-0.01,0-0.02,0-0.02
		c16.41,0,32.82,0.02,49.24-0.01c4.61-0.01,7.7-2.19,7.93-6.94c0.25-5.1-2.89-7.46-7.68-7.95c-0.82-0.09-1.66-0.05-2.49-0.05
		c-31.37,0-62.74-0.02-94.11,0.01c-6.92,0.01-10.76,2.89-10.63,7.75c0.13,4.72,3.58,7.18,10.37,7.2
		C71.49,403.69,87.28,403.66,103.07,403.66z M103.03,583.49c0-0.01,0-0.02,0-0.02c16.41,0,32.82,0.01,49.24-0.01
		c4.6-0.01,7.71-2.15,7.97-6.91c0.27-5.09-2.85-7.48-7.64-7.98c-1.03-0.11-2.08-0.06-3.11-0.06c-31.16,0-62.33-0.02-93.49,0.01
		c-6.95,0.01-10.76,2.85-10.66,7.72c0.1,4.73,3.56,7.22,10.33,7.24C71.45,583.52,87.24,583.49,103.03,583.49z M421.7,163.89
		c8.73,0,17.45-0.06,26.18,0.02c5.08,0.04,8.84-1.9,8.95-7.26c0.12-5.37-3.63-7.67-8.64-7.69c-17.66-0.07-35.32-0.07-52.99,0
		c-5.03,0.02-8.71,2.3-8.61,7.7c0.1,5.42,3.83,7.32,8.91,7.27C404.25,163.83,412.97,163.89,421.7,163.89z M72.4,283.76
		c6.24,0,12.48,0,18.72,0c4.97,0,8.15-2.46,8.15-7.41c0-5-3.41-7.45-8.2-7.49c-12.48-0.12-24.96-0.12-37.43,0.01
		c-4.81,0.05-8.2,2.6-8.17,7.55c0.03,4.92,3.26,7.37,8.22,7.36C59.93,283.76,66.16,283.77,72.4,283.76z M72.27,463.59
		c0-0.01,0-0.02,0-0.02c6.45,0,12.89,0.04,19.34-0.01c4.74-0.04,7.58-2.67,7.67-7.25c0.09-4.65-2.93-7.47-7.47-7.55
		c-12.89-0.22-25.79-0.2-38.68-0.02c-4.53,0.06-7.67,2.75-7.68,7.37c0,4.93,3.11,7.46,8.09,7.48
		C59.8,463.6,66.03,463.59,72.27,463.59z"/>
	
		<linearGradient id="SVGID_00000124128975700765066100000016542444440521339026_" gradientUnits="userSpaceOnUse" x1="393.0188" y1="54.2312" x2="498.0233" y2="54.2312">
		<stop  offset="0" style="stop-color:#FFFFFF;stop-opacity:0.4"/>
		<stop  offset="0.0691" style="stop-color:#FFFFFF;stop-opacity:0.3435"/>
		<stop  offset="0.4892" style="stop-color:#FFFFFF;stop-opacity:0"/>
		<stop  offset="0.7527" style="stop-color:#FAFAFA;stop-opacity:0.1032"/>
		<stop  offset="1" style="stop-color:#EFEFEF;stop-opacity:0.2"/>
	</linearGradient>
	<path style="fill:url(#SVGID_00000124128975700765066100000016542444440521339026_);" d="M403.35,1.25
		c30.76,30.67,61.57,61.28,92.13,92.16c1.92,1.94,3.16,6.46,2.22,8.76c-0.94,2.3-5,4.64-7.73,4.68
		c-23.29,0.35-46.59,0.59-69.87,0.03c-16.13-0.39-26.85-12.15-26.96-28.37c-0.15-22.04-0.23-44.09,0.14-66.13
		c0.06-3.73,2.49-7.43,3.83-11.14C399.19,1.25,401.27,1.25,403.35,1.25z"/>
	
		<linearGradient id="SVGID_00000048493413657792368090000007502873475356490634_" gradientUnits="userSpaceOnUse" x1="341.7473" y1="491.119" x2="640.7122" y2="491.119">
		<stop  offset="0" style="stop-color:#FFFFFF;stop-opacity:0.4"/>
		<stop  offset="0.0691" style="stop-color:#FFFFFF;stop-opacity:0.3435"/>
		<stop  offset="0.4892" style="stop-color:#FFFFFF;stop-opacity:0"/>
		<stop  offset="0.7527" style="stop-color:#FAFAFA;stop-opacity:0.1032"/>
		<stop  offset="1" style="stop-color:#EFEFEF;stop-opacity:0.2"/>
	</linearGradient>
	<path style="fill:url(#SVGID_00000048493413657792368090000007502873475356490634_);" d="M553.13,382.65
		c4.27-4.59,8.53-9.4,13.05-13.96c5.34-5.39,8.56-5.45,13.76-0.32c11.4,11.26,22.73,22.59,34,33.97c4.8,4.84,4.74,8.49,0.05,13.39
		c-4.45,4.65-11.47,8.66-12.71,14.03c-1.13,4.89,4.08,11.18,6.33,16.92c4.21,10.77,4.16,10.79,15.88,10.79c17.2,0,17.2,0,17.2,17.36
		c0,13.32,0.04,26.63-0.02,39.95c-0.03,7.39-2.35,9.69-9.64,9.8c-6.24,0.09-13.88-2.05-18.32,0.8c-4.27,2.75-5.18,10.66-7.67,16.26
		c-4.85,10.92-4.87,10.9,3.61,19.4c12.04,12.05,12.04,12.05,0.05,24.04c-9.42,9.42-18.8,18.87-28.27,28.23
		c-5.5,5.44-8.82,5.41-14.29,0.12c-4.48-4.33-8.38-11.09-13.58-12.3c-4.73-1.1-10.82,3.91-16.37,6.1
		c-11.52,4.55-11.53,4.51-11.53,17.22c0,16.17,0,16.17-16.43,16.17c-13.32,0-26.63,0.02-39.95-0.01
		c-8.21-0.02-11.37-2.32-10.45-10.17c1.58-13.56-1.46-21.98-16.51-25.7c-12.03-2.97-11.6-4.72-20.45,4.12
		c-11.69,11.69-11.69,11.69-23.59-0.22c-9.42-9.42-18.86-18.81-28.24-28.26c-5.71-5.75-5.66-8.85,0.06-14.7
		c4.22-4.31,10.91-8.07,11.97-13.05c1.03-4.8-3.79-10.82-5.96-16.33c-4.6-11.72-4.58-11.73-17.09-11.73c-16.28,0-16.28,0-16.28-16.3
		c0-13.52-0.05-27.05,0.02-40.57c0.04-7.88,2.23-10.05,9.93-10.23c6.23-0.14,13.76,1.84,18.29-1c4.12-2.57,4.9-10.4,7.28-15.85
		c4.88-11.14,4.92-11.13-3.77-19.81c-11.75-11.74-11.75-11.74-0.01-23.48c9.27-9.27,18.53-18.55,27.82-27.8
		c6.66-6.63,9.22-6.63,15.99,0.2c4.09,4.13,8.01,8.43,11.71,12.34c9.26-3.62,17.77-6.77,26.09-10.38c1.31-0.57,2.3-3.22,2.4-4.97
		c0.32-5.39,0.12-10.81,0.14-16.22c0.02-5.82,2.8-8.88,8.78-8.87c16.44,0.03,32.88-0.08,49.31,0.05c6.63,0.05,8.77,2.45,8.91,9.23
		c0.13,6.44-2,14.25,0.92,18.92c2.67,4.26,10.81,5.04,16.47,7.49C545.47,378.8,548.77,380.54,553.13,382.65z M491.39,411.94
		c-43.91-0.05-79.37,35.31-79.37,79.13c0,43.68,35.83,79.53,79.33,79.38c43.3-0.15,79.02-35.79,79.19-79.04
		C570.73,447.77,535.08,411.99,491.39,411.94z"/>
	
		<linearGradient id="SVGID_00000066516174683100343750000013560151153374712766_" gradientUnits="userSpaceOnUse" x1="69.7579" y1="82.5145" x2="342.0119" y2="82.5145">
		<stop  offset="0" style="stop-color:#FFFFFF;stop-opacity:0.4"/>
		<stop  offset="0.0691" style="stop-color:#FFFFFF;stop-opacity:0.3435"/>
		<stop  offset="0.4892" style="stop-color:#FFFFFF;stop-opacity:0"/>
		<stop  offset="0.7527" style="stop-color:#FAFAFA;stop-opacity:0.1032"/>
		<stop  offset="1" style="stop-color:#EFEFEF;stop-opacity:0.2"/>
	</linearGradient>
	<path style="fill:url(#SVGID_00000066516174683100343750000013560151153374712766_);" d="M205.6,104.99c-42.24,0-84.48,0-126.72,0
		c-8.8,0-9.09-0.3-9.1-9.2c-0.01-9.16-0.03-18.31,0.01-27.47c0.03-7.37,0.9-8.27,8.29-8.28c52.02-0.02,104.04-0.01,156.06-0.01
		c32.88,0,65.75-0.01,98.63,0.01c8.35,0,9.22,0.9,9.24,9.36c0.02,8.74,0.01,17.48,0,26.22c-0.01,8.9-0.5,9.37-9.68,9.37
		C290.08,105,247.84,104.99,205.6,104.99z"/>
	
		<linearGradient id="SVGID_00000170242857093431410920000017242075215535250343_" gradientUnits="userSpaceOnUse" x1="427.0222" y1="491.1888" x2="555.555" y2="491.1888">
		<stop  offset="0" style="stop-color:#FFFFFF;stop-opacity:0.4"/>
		<stop  offset="0.0691" style="stop-color:#FFFFFF;stop-opacity:0.3435"/>
		<stop  offset="0.4892" style="stop-color:#FFFFFF;stop-opacity:0"/>
		<stop  offset="0.7527" style="stop-color:#FAFAFA;stop-opacity:0.1032"/>
		<stop  offset="1" style="stop-color:#EFEFEF;stop-opacity:0.2"/>
	</linearGradient>
	<path style="fill:url(#SVGID_00000170242857093431410920000017242075215535250343_);" d="M491.43,426.93
		c35.47,0.09,64.38,29.17,64.12,64.52c-0.25,35.07-29.16,63.87-64.23,63.99c-35.53,0.12-64.51-29.2-64.3-65.04
		C427.23,455.25,456.05,426.85,491.43,426.93z"/>
</g>
</svg>
