<?xml version="1.0" encoding="UTF-8"?>
<svg id="report" xmlns="http://www.w3.org/2000/svg" version="1.1" xmlns:xlink="http://www.w3.org/1999/xlink" viewBox="0 0 640.62 640.62">
  <defs>
    <style>
      .cls-1 {
        fill: #360061;
      }

      .cls-1, .cls-2, .cls-3, .cls-4, .cls-5, .cls-6, .cls-7 {
        stroke-width: 0px;
      }

      .cls-2 {
        fill: url(#linear-gradient);
      }

      .cls-3 {
        fill: #5800b2;
      }

      .cls-4 {
        fill: url(#linear-gradient-2);
      }

      .cls-5 {
        fill: #ede6f4;
      }

      .cls-6 {
        fill: url(#linear-gradient-3);
      }

      .cls-7 {
        fill: url(#linear-gradient-4);
      }
    </style>
    <linearGradient id="linear-gradient" x1="227.08" y1="-19.87" x2="935.21" y2="617" gradientUnits="userSpaceOnUse">
      <stop offset="0" stop-color="#fff" stop-opacity=".4"/>
      <stop offset=".07" stop-color="#fff" stop-opacity=".34"/>
      <stop offset=".49" stop-color="#fff" stop-opacity="0"/>
      <stop offset=".75" stop-color="#fafafa" stop-opacity=".1"/>
      <stop offset="1" stop-color="#efefef" stop-opacity=".2"/>
    </linearGradient>
    <linearGradient id="linear-gradient-2" x1="-2.21" y1="235.07" x2="705.92" y2="871.95" xlink:href="#linear-gradient"/>
    <linearGradient id="linear-gradient-3" x1="99.02" y1="122.52" x2="807.14" y2="759.4" xlink:href="#linear-gradient"/>
    <linearGradient id="linear-gradient-4" x1="98.89" y1="122.66" x2="807.02" y2="759.54" xlink:href="#linear-gradient"/>
  </defs>
  <g>
    <path class="cls-5" d="M617.76,74.97c0-5.02-.47-10.18-1.72-15.02-5.52-21.44-23.5-34.61-47.09-34.62-92.71-.05-185.42-.03-278.14-.02-32.27,0-51.27,18.92-51.28,51.08-.02,56.6-.02,113.21,0,169.8,0,32.49,19.01,51.36,51.7,51.37,40.12.02,80.25.1,120.38-.08,6.37-.04,11.25,1.95,15.86,6.3,29.33,27.68,58.82,55.21,88.3,82.74,2.03,1.9,4.39,3.47,7.91,6.2.28-3.86.58-6.04.58-8.21.04-23.87-.05-47.73.06-71.6.05-9.89,5.45-15.2,15.37-15.3,9.5-.1,19.01,0,28.51-.04,30.08-.15,49.61-19.57,49.64-49.61.06-57.68.05-115.33-.07-172.99ZM509.99,215.17c-8.02.24-16.03.07-24.06.07h-57.62c-26.38,0-52.77.03-79.15-.02-8.04-.02-13.33-3.35-15.54-9.54-2.8-7.79,1.6-16.34,9.72-18.33,2.82-.7,5.84-.81,8.78-.82,51.08-.05,102.15-.04,153.23-.02,1.9,0,3.81-.04,5.69.2,8.44,1.04,13.69,6.85,13.43,14.74-.26,7.78-6.05,13.46-14.48,13.71ZM513,133.08c-2.27.38-4.62.43-6.93.43-51.48.02-102.97,0-154.45,0-1.48,0-2.96.02-4.43-.09-8.86-.63-14.43-6.29-14.28-14.48.14-8.04,6.11-13.81,14.91-13.84,24.9-.12,49.79-.05,74.69-.05h6.34c26.79,0,53.59-.06,80.38.04,9.43.04,15.57,6.18,15.24,14.8-.25,6.61-4.91,12.09-11.47,13.19Z"/>
    <path class="cls-3" d="M617.76,74.97c0-5.02-.47-10.18-1.72-15.02-5.52-21.44-23.5-34.61-47.09-34.62-92.71-.05-185.42-.03-278.14-.02-32.27,0-51.27,18.92-51.28,51.08-.02,56.6-.02,113.21,0,169.8,0,32.49,19.01,51.36,51.7,51.37,40.12.02,80.25.1,120.38-.08,6.37-.04,11.25,1.95,15.86,6.3,29.33,27.68,58.82,55.21,88.3,82.74,2.03,1.9,4.39,3.47,7.91,6.2.28-3.86.58-6.04.58-8.21.04-23.87-.05-47.73.06-71.6.05-9.89,5.45-15.2,15.37-15.3,9.5-.1,19.01,0,28.51-.04,30.08-.15,49.61-19.57,49.64-49.61.06-57.68.05-115.33-.07-172.99ZM509.99,215.17c-8.02.24-16.03.07-24.06.07h-57.62c-26.38,0-52.77.03-79.15-.02-8.04-.02-13.33-3.35-15.54-9.54-2.8-7.79,1.6-16.34,9.72-18.33,2.82-.7,5.84-.81,8.78-.82,51.08-.05,102.15-.04,153.23-.02,1.9,0,3.81-.04,5.69.2,8.44,1.04,13.69,6.85,13.43,14.74-.26,7.78-6.05,13.46-14.48,13.71ZM513,133.08c-2.27.38-4.62.43-6.93.43-51.48.02-102.97,0-154.45,0-1.48,0-2.96.02-4.43-.09-8.86-.63-14.43-6.29-14.28-14.48.14-8.04,6.11-13.81,14.91-13.84,24.9-.12,49.79-.05,74.69-.05h6.34c26.79,0,53.59-.06,80.38.04,9.43.04,15.57,6.18,15.24,14.8-.25,6.61-4.91,12.09-11.47,13.19Z"/>
    <path class="cls-1" d="M401.17,332.97c0-2.23-.2-4.47-.33-7.15h-7.54c-35.9,0-71.81.39-107.71-.13-31.72-.46-54.7-15.77-67.87-44.46-4.29-9.35-5.57-20.09-8.51-31.28.57.2.18-.06-.21-.06-47.09-.02-94.19-.55-141.27.21-25.69.42-44.5,20.07-44.67,45.82-.42,59.97-.4,119.95,0,179.92.16,24.28,17.02,42.9,40.93,45.51,12.11,1.33,24.47.39,36.71.56,10.18.14,15.63,5.55,15.72,15.69.1,11.19.03,22.38.03,33.57,0,13.1-.07,26.19.09,39.28.02,1.64,1.24,3.24,1.9,4.87,1.47-.63,2.99-1.16,4.38-1.94.89-.51,1.58-1.39,2.35-2.12,28.76-27.05,57.59-54.05,86.26-81.2,5.83-5.53,12.38-8.25,20.43-8.22,39.7.11,79.41.07,119.11.05,30.97-.02,50.2-19.19,50.23-50.17.02-46.24,0-92.49-.02-138.74ZM138.7,398.74c-7.59.1-14.09-6.36-14.12-14.05-.02-7.81,6.2-13.93,14.1-13.85,7.86.07,14.02,6.39,13.8,14.16-.2,7.45-6.41,13.64-13.79,13.74ZM220.21,398.73c-7.68,0-14.01-6.42-13.94-14.17.06-7.82,6.3-13.84,14.22-13.7,7.57.13,13.6,6.16,13.68,13.67.08,7.65-6.34,14.19-13.96,14.19ZM301.71,398.74c-7.33-.08-13.66-6.33-13.89-13.7-.24-7.65,6.05-14.1,13.83-14.19,7.97-.09,14.06,5.9,14.06,13.82,0,7.77-6.35,14.15-14.01,14.06Z"/>
    <path class="cls-1" d="M152.84,139.31c.24,7.8-5.79,14.29-14.43,14.5-13.51.33-27.02.33-40.53,0-8.73-.21-14.6-6.5-14.43-14.45.18-7.94,6.26-13.73,15-13.95,6.54-.17,13.09-.03,19.64-.03s13.09-.13,19.63.04c8.73.23,14.88,6,15.11,13.9Z"/>
    <path class="cls-3" d="M561.08,506.97c.08,7.67-5.59,14.01-13.95,14.25-13.93.38-27.87.39-41.79-.05-8.24-.27-13.95-6.97-13.65-14.54.33-7.7,6.33-13.48,14.62-13.72,6.75-.2,13.51-.05,20.27-.05s13.1-.14,19.64.03c8.69.22,14.77,6.1,14.85,14.07Z"/>
  </g>
  <g>
    <path class="cls-2" d="M617.76,74.97c0-5.02-.47-10.18-1.72-15.02-5.52-21.44-23.5-34.61-47.09-34.62-92.71-.05-185.42-.03-278.14-.02-32.27,0-51.27,18.92-51.28,51.08-.02,56.6-.02,113.21,0,169.8,0,32.49,19.01,51.36,51.7,51.37,40.12.02,80.25.1,120.38-.08,6.37-.04,11.25,1.95,15.86,6.3,29.33,27.68,58.82,55.21,88.3,82.74,2.03,1.9,4.39,3.47,7.91,6.2.28-3.86.58-6.04.58-8.21.04-23.87-.05-47.73.06-71.6.05-9.89,5.45-15.2,15.37-15.3,9.5-.1,19.01,0,28.51-.04,30.08-.15,49.61-19.57,49.64-49.61.06-57.68.05-115.33-.07-172.99ZM509.99,215.17c-8.02.24-16.03.07-24.06.07h-57.62c-26.38,0-52.77.03-79.15-.02-8.04-.02-13.33-3.35-15.54-9.54-2.8-7.79,1.6-16.34,9.72-18.33,2.82-.7,5.84-.81,8.78-.82,51.08-.05,102.15-.04,153.23-.02,1.9,0,3.81-.04,5.69.2,8.44,1.04,13.69,6.85,13.43,14.74-.26,7.78-6.05,13.46-14.48,13.71ZM513,133.08c-2.27.38-4.62.43-6.93.43-51.48.02-102.97,0-154.45,0-1.48,0-2.96.02-4.43-.09-8.86-.63-14.43-6.29-14.28-14.48.14-8.04,6.11-13.81,14.91-13.84,24.9-.12,49.79-.05,74.69-.05h6.34c26.79,0,53.59-.06,80.38.04,9.43.04,15.57,6.18,15.24,14.8-.25,6.61-4.91,12.09-11.47,13.19Z"/>
    <path class="cls-2" d="M617.76,74.97c0-5.02-.47-10.18-1.72-15.02-5.52-21.44-23.5-34.61-47.09-34.62-92.71-.05-185.42-.03-278.14-.02-32.27,0-51.27,18.92-51.28,51.08-.02,56.6-.02,113.21,0,169.8,0,32.49,19.01,51.36,51.7,51.37,40.12.02,80.25.1,120.38-.08,6.37-.04,11.25,1.95,15.86,6.3,29.33,27.68,58.82,55.21,88.3,82.74,2.03,1.9,4.39,3.47,7.91,6.2.28-3.86.58-6.04.58-8.21.04-23.87-.05-47.73.06-71.6.05-9.89,5.45-15.2,15.37-15.3,9.5-.1,19.01,0,28.51-.04,30.08-.15,49.61-19.57,49.64-49.61.06-57.68.05-115.33-.07-172.99ZM509.99,215.17c-8.02.24-16.03.07-24.06.07h-57.62c-26.38,0-52.77.03-79.15-.02-8.04-.02-13.33-3.35-15.54-9.54-2.8-7.79,1.6-16.34,9.72-18.33,2.82-.7,5.84-.81,8.78-.82,51.08-.05,102.15-.04,153.23-.02,1.9,0,3.81-.04,5.69.2,8.44,1.04,13.69,6.85,13.43,14.74-.26,7.78-6.05,13.46-14.48,13.71ZM513,133.08c-2.27.38-4.62.43-6.93.43-51.48.02-102.97,0-154.45,0-1.48,0-2.96.02-4.43-.09-8.86-.63-14.43-6.29-14.28-14.48.14-8.04,6.11-13.81,14.91-13.84,24.9-.12,49.79-.05,74.69-.05h6.34c26.79,0,53.59-.06,80.38.04,9.43.04,15.57,6.18,15.24,14.8-.25,6.61-4.91,12.09-11.47,13.19Z"/>
    <path class="cls-4" d="M401.17,332.97c0-2.23-.2-4.47-.33-7.15h-7.54c-35.9,0-71.81.39-107.71-.13-31.72-.46-54.7-15.77-67.87-44.46-4.29-9.35-5.57-20.09-8.51-31.28.57.2.18-.06-.21-.06-47.09-.02-94.19-.55-141.27.21-25.69.42-44.5,20.07-44.67,45.82-.42,59.97-.4,119.95,0,179.92.16,24.28,17.02,42.9,40.93,45.51,12.11,1.33,24.47.39,36.71.56,10.18.14,15.63,5.55,15.72,15.69.1,11.19.03,22.38.03,33.57,0,13.1-.07,26.19.09,39.28.02,1.64,1.24,3.24,1.9,4.87,1.47-.63,2.99-1.16,4.38-1.94.89-.51,1.58-1.39,2.35-2.12,28.76-27.05,57.59-54.05,86.26-81.2,5.83-5.53,12.38-8.25,20.43-8.22,39.7.11,79.41.07,119.11.05,30.97-.02,50.2-19.19,50.23-50.17.02-46.24,0-92.49-.02-138.74ZM138.7,398.74c-7.59.1-14.09-6.36-14.12-14.05-.02-7.81,6.2-13.93,14.1-13.85,7.86.07,14.02,6.39,13.8,14.16-.2,7.45-6.41,13.64-13.79,13.74ZM220.21,398.73c-7.68,0-14.01-6.42-13.94-14.17.06-7.82,6.3-13.84,14.22-13.7,7.57.13,13.6,6.16,13.68,13.67.08,7.65-6.34,14.19-13.96,14.19ZM301.71,398.74c-7.33-.08-13.66-6.33-13.89-13.7-.24-7.65,6.05-14.1,13.83-14.19,7.97-.09,14.06,5.9,14.06,13.82,0,7.77-6.35,14.15-14.01,14.06Z"/>
    <path class="cls-6" d="M152.84,139.31c.24,7.8-5.79,14.29-14.43,14.5-13.51.33-27.02.33-40.53,0-8.73-.21-14.6-6.5-14.43-14.45.18-7.94,6.26-13.73,15-13.95,6.54-.17,13.09-.03,19.64-.03s13.09-.13,19.63.04c8.73.23,14.88,6,15.11,13.9Z"/>
    <path class="cls-7" d="M561.08,506.97c.08,7.67-5.59,14.01-13.95,14.25-13.93.38-27.87.39-41.79-.05-8.24-.27-13.95-6.97-13.65-14.54.33-7.7,6.33-13.48,14.62-13.72,6.75-.2,13.51-.05,20.27-.05s13.1-.14,19.64.03c8.69.22,14.77,6.1,14.85,14.07Z"/>
  </g>
</svg>