<?xml version="1.0" encoding="utf-8"?>
<!-- Generator: Adobe Illustrator 27.3.1, SVG Export Plug-In . SVG Version: 6.00 Build 0)  -->
<svg version="1.1" id="report" xmlns="http://www.w3.org/2000/svg" xmlns:xlink="http://www.w3.org/1999/xlink" x="0px" y="0px"
	 viewBox="0 0 640.62 640.62" style="enable-background:new 0 0 640.62 640.62;" xml:space="preserve">
<style type="text/css">
	.st0{fill:#360061;}
	.st1{fill:#5800B2;}
</style>
<g>
	<path class="st0" d="M0,632.46c0.83-7.79,1.84-15.57,2.46-23.39c2.78-35.24,5.26-70.56,15.28-104.69
		c2.96-10.06,7.66-19.7,12.41-29.11c3.65-7.24,10.1-11.8,17.82-14.84c38.9-15.32,77.76-30.76,116.52-46.43
		c5.28-2.13,10.27-5.37,14.81-8.85c7.6-5.82,14.66-12.33,22.07-18.39c9.84-8.05,19.97-7.74,29.12,1.12
		c12.12,11.73,24.01,23.7,36.01,35.55c1.46,1.44,2.98,2.82,5.55,5.23c6.26-6.65,12.28-13.23,18.51-19.61
		c6.99-7.15,14.1-14.17,21.28-21.13c9.1-8.83,19.15-9.22,29.11-1.22c3.57,2.87,7.2,5.7,10.49,8.87
		c11.4,10.99,24.31,19.57,39.7,23.68c9.22,2.46,12.94,6.99,12.81,17.17c-0.13,10.41,2.22,21.07,4.99,31.22
		c2.7,9.93,7.29,19.34,11.32,29.66c-16.76,6.14-25.8,21.28-36.51,34.66c-9.63,12.02-19.03,24.22-28.69,36.22
		c-16.65,20.68-19.17,42.62-6.29,66.06c0.37,0.68,0.53,1.47,1.04,2.97c-2.95,0-5.36,0-7.77,0c-111.52,0-223.04,0-334.56,0.01
		c-2.5,0-4.99,0.14-7.49,0.22C0,635.79,0,634.12,0,632.46z"/>
	<path class="st1" d="M640.62,442.64c-1.46,6.22-2.61,12.54-4.42,18.66c-17.76,60.11-83.35,91.95-141.75,68.9
		c-2.09-0.83-4.18-1.67-6.55-2.62c-4.66,5.87-9.22,11.52-13.63,17.28c-0.82,1.07-1.38,2.61-1.43,3.96
		c-0.35,8.96-4.34,16.22-9.83,23.06c-14.08,17.52-27.78,35.34-41.9,52.83c-8.83,10.93-20.51,14.97-34.05,10.97
		c-12.98-3.84-20.47-13.12-22.42-26.51c-1.23-8.43,1.13-16.16,6.34-22.82c15.13-19.34,30.3-38.65,45.73-57.76
		c2.66-3.29,6.3-6.87,10.15-7.92c8.46-2.32,12.92-8.51,17.66-14.77c1.88-2.48,3.84-4.91,4.67-5.96
		c-6.27-13.84-13.66-26.31-17.74-39.79c-21.19-70.05,36.25-140.68,109.37-135.25c51.2,3.8,91.08,40.65,98.65,91.11
		c0.21,1.41,0.76,2.78,1.16,4.16C640.62,427.66,640.62,435.15,640.62,442.64z M534.23,356.29c-41.63-0.36-74.95,32.53-75.4,74.44
		c-0.45,41.31,32.98,75.12,74.58,75.44c41.33,0.32,75.09-33.01,75.58-74.61C609.48,390.36,576,356.65,534.23,356.29z"/>
	<path class="st1" d="M409.42,114.79c12.75,6,24.07,12.87,33,23.12c12.78,14.68,12.82,31.48,0.03,46.24
		c-10.06,11.61-23.04,19.13-37,24.86c-5.46,2.24-7.18,5.26-7.6,10.96c-2.89,38.31-12.07,74.78-34.98,106.45
		c-25.17,34.78-58.98,52.7-102.61,48.73c-34.87-3.18-61.19-21.34-81.2-49.2c-18.63-25.94-27.87-55.53-32.62-86.73
		c-0.94-6.16-2.33-12.42-2.03-18.57c0.35-7.19-3.39-9.5-8.98-12.54c-11.08-6.01-22.52-12.15-31.8-20.47
		c-18.36-16.46-18.06-36.87,0.21-53.55c8.46-7.72,18.68-13.53,28.19-20.28c19.68,30.31,49.06,41.44,80.51,48.32
		c47.34,10.35,94.42,9.03,140.59-6.5C375.81,148,396.29,136.81,409.42,114.79z"/>
	<path class="st0" d="M268.55,148.17c-27.3-0.17-56.62-4.14-84.37-16.41c-10.95-4.84-21.16-10.84-28.74-20.37
		c-1.42-1.79-2.71-4.48-2.52-6.62c2.12-22.79,4.92-45.5,13.62-66.93c2.48-6.11,5.61-12.12,9.37-17.53
		c10.3-14.84,24.84-20.72,41.96-15c12.68,4.23,25.33,9.98,36.28,17.52c12.42,8.55,22.31,8.35,34.33-0.27
		c12.29-8.82,25.7-16.19,41.18-18.57c14.05-2.15,25.41,2.43,34.42,13.12c9.08,10.77,14.14,23.64,17.09,37.04
		c3.48,15.79,5.27,31.94,8.1,47.87c0.88,4.93-0.96,8.38-4.1,11.68c-9.26,9.73-20.78,15.84-33.09,20.66
		C326.13,144.57,299,148.07,268.55,148.17z"/>
	<path class="st0" d="M495.68,556.65c13.48,1.92,26.21,3.73,40.22,5.73c2.02,24.08,4.1,49.03,6.23,74.43c-33.43,0-66.26,0-99.91,0
		c1.19-1.82,2.04-3.36,3.11-4.72c11.21-14.22,22.33-28.52,33.75-42.58C487.03,579.71,493.86,569.44,495.68,556.65z"/>
</g>
</svg>
