<?xml version="1.0" encoding="utf-8"?>
<!-- Generator: Adobe Illustrator 26.2.1, SVG Export Plug-In . SVG Version: 6.00 Build 0)  -->
<svg version="1.1" id="Layer_1" xmlns="http://www.w3.org/2000/svg" xmlns:xlink="http://www.w3.org/1999/xlink" x="0px" y="0px"
	 viewBox="0 0 120 50" style="enable-background:new 0 0 120 50;" xml:space="preserve">
<style type="text/css">
	.st0{fill:#FFFFFF;}
</style>
<g>
	<path class="st0" d="M12.38,19.97c-0.32-0.51-0.71-0.94-1.18-1.28c-0.46-0.34-0.97-0.61-1.53-0.79c-0.56-0.18-1.14-0.27-1.75-0.27
		c-1.11,0-2.07,0.21-2.87,0.64s-1.45,0.98-1.96,1.68c-0.51,0.7-0.89,1.49-1.13,2.36c-0.24,0.88-0.36,1.78-0.36,2.7
		c0,0.91,0.12,1.81,0.36,2.69c0.24,0.89,0.62,1.68,1.13,2.38c0.51,0.7,1.16,1.26,1.96,1.68s1.76,0.64,2.87,0.64
		c0.78,0,1.49-0.14,2.12-0.42c0.63-0.28,1.17-0.67,1.62-1.15c0.45-0.49,0.82-1.05,1.11-1.71c0.28-0.65,0.46-1.35,0.54-2.1h1.6
		c-0.11,1.03-0.35,1.97-0.73,2.8c-0.38,0.83-0.86,1.54-1.46,2.12c-0.6,0.58-1.3,1.03-2.11,1.34c-0.81,0.31-1.71,0.47-2.69,0.47
		c-1.32,0-2.47-0.24-3.47-0.72c-1-0.48-1.82-1.12-2.48-1.92s-1.15-1.72-1.48-2.78C0.16,27.28,0,26.17,0,25.01
		c0-1.16,0.16-2.27,0.49-3.32c0.33-1.05,0.82-1.98,1.48-2.79c0.66-0.81,1.49-1.45,2.48-1.93c1-0.48,2.15-0.72,3.47-0.72
		c0.8,0,1.58,0.12,2.34,0.35c0.76,0.24,1.45,0.58,2.07,1.05c0.62,0.46,1.14,1.03,1.55,1.71c0.41,0.67,0.68,1.45,0.79,2.33h-1.6
		C12.94,21.05,12.7,20.48,12.38,19.97z"/>
	<path class="st0" d="M17.51,21.27v2.85h0.05c0.38-0.99,0.96-1.75,1.75-2.28c0.79-0.53,1.74-0.78,2.83-0.73v1.48
		c-0.67-0.03-1.29,0.06-1.83,0.27c-0.55,0.21-1.02,0.51-1.42,0.91c-0.4,0.39-0.71,0.86-0.93,1.4c-0.22,0.54-0.33,1.13-0.33,1.78
		v6.47h-1.48V21.27H17.51z"/>
	<path class="st0" d="M31.28,33.41v-2.19h-0.05c-0.39,0.82-0.96,1.44-1.71,1.87s-1.57,0.65-2.48,0.65c-0.77,0-1.42-0.11-1.96-0.32
		c-0.54-0.21-0.98-0.51-1.32-0.91c-0.34-0.39-0.58-0.87-0.74-1.43c-0.16-0.56-0.24-1.21-0.24-1.93v-7.88h1.48v7.9
		c0.03,1.1,0.29,1.93,0.76,2.49c0.48,0.56,1.31,0.85,2.48,0.85c0.64,0,1.19-0.14,1.65-0.41c0.45-0.27,0.83-0.64,1.13-1.09
		c0.3-0.45,0.52-0.98,0.66-1.56s0.21-1.19,0.21-1.8v-6.37h1.48v12.14H31.28z"/>
	<path class="st0" d="M36.02,21.27v2.09h0.05c0.28-0.74,0.78-1.33,1.51-1.78c0.72-0.45,1.51-0.67,2.37-0.67
		c0.85,0,1.56,0.11,2.13,0.33c0.57,0.22,1.03,0.53,1.38,0.93c0.34,0.4,0.59,0.89,0.73,1.47c0.14,0.58,0.21,1.23,0.21,1.95v7.81
		h-1.48v-7.57c0-0.52-0.05-1-0.14-1.45c-0.09-0.45-0.26-0.83-0.49-1.16c-0.24-0.33-0.55-0.59-0.95-0.78
		c-0.4-0.19-0.9-0.28-1.49-0.28c-0.6,0-1.12,0.11-1.59,0.32s-0.85,0.5-1.18,0.87c-0.32,0.37-0.57,0.81-0.75,1.32
		s-0.28,1.06-0.29,1.66v7.08h-1.48V21.27H36.02z"/>
	<path class="st0" d="M53.73,22.94c-0.55-0.52-1.32-0.78-2.3-0.78c-0.71,0-1.32,0.15-1.86,0.45c-0.53,0.3-0.98,0.69-1.33,1.18
		c-0.35,0.49-0.62,1.04-0.8,1.66c-0.18,0.62-0.27,1.25-0.27,1.89s0.09,1.27,0.27,1.89c0.18,0.62,0.45,1.17,0.8,1.66
		c0.35,0.49,0.8,0.88,1.33,1.18c0.53,0.3,1.15,0.45,1.86,0.45c0.45,0,0.89-0.09,1.29-0.26c0.41-0.17,0.77-0.41,1.08-0.72
		c0.31-0.31,0.57-0.67,0.78-1.09c0.2-0.42,0.33-0.89,0.38-1.39h1.48c-0.2,1.47-0.74,2.62-1.62,3.45c-0.88,0.82-2.01,1.23-3.39,1.23
		c-0.93,0-1.74-0.17-2.46-0.51s-1.31-0.8-1.8-1.38c-0.49-0.58-0.85-1.26-1.11-2.03c-0.25-0.78-0.38-1.6-0.38-2.48
		s0.13-1.71,0.38-2.48c0.25-0.78,0.62-1.45,1.11-2.03c0.49-0.58,1.09-1.04,1.8-1.39c0.71-0.34,1.53-0.52,2.46-0.52
		c1.3,0,2.4,0.34,3.3,1.03c0.9,0.69,1.44,1.73,1.61,3.13h-1.48C54.66,24.17,54.28,23.46,53.73,22.94z"/>
	<path class="st0" d="M59.12,16.62v6.75h0.05c0.28-0.74,0.78-1.33,1.51-1.78c0.72-0.45,1.51-0.67,2.37-0.67
		c0.85,0,1.56,0.11,2.13,0.33c0.57,0.22,1.03,0.53,1.38,0.93c0.34,0.4,0.59,0.89,0.73,1.47c0.14,0.58,0.21,1.23,0.21,1.95v7.81
		h-1.48v-7.57c0-0.52-0.05-1-0.14-1.45c-0.09-0.45-0.26-0.83-0.49-1.16c-0.24-0.33-0.55-0.59-0.95-0.78
		c-0.4-0.19-0.9-0.28-1.49-0.28c-0.6,0-1.12,0.11-1.59,0.32s-0.85,0.5-1.18,0.87c-0.32,0.37-0.57,0.81-0.75,1.32
		s-0.28,1.06-0.29,1.66v7.08h-1.48V16.62H59.12z"/>
	<path class="st0" d="M69.7,16.62h8.16c1.51,0,2.71,0.34,3.62,1.03c0.91,0.69,1.36,1.73,1.36,3.13c0,0.85-0.21,1.57-0.62,2.18
		c-0.42,0.6-1.01,1.07-1.78,1.4v0.05c1.04,0.22,1.82,0.71,2.35,1.47c0.53,0.76,0.8,1.71,0.8,2.86c0,0.66-0.12,1.27-0.35,1.85
		c-0.24,0.57-0.6,1.07-1.11,1.48s-1.14,0.74-1.93,0.99c-0.78,0.24-1.72,0.36-2.8,0.36H69.7L69.7,16.62L69.7,16.62z M72.64,23.65h4.8
		c0.71,0,1.29-0.2,1.76-0.6c0.47-0.4,0.71-0.98,0.71-1.73c0-0.85-0.21-1.44-0.64-1.79s-1.03-0.52-1.83-0.52h-4.8L72.64,23.65
		L72.64,23.65z M72.64,31.01h5.2c0.89,0,1.59-0.23,2.08-0.69c0.49-0.46,0.74-1.12,0.74-1.96c0-0.83-0.25-1.47-0.74-1.92
		c-0.49-0.45-1.19-0.67-2.08-0.67h-5.2V31.01z"/>
	<path class="st0" d="M95.29,30.7c0,0.33,0.04,0.56,0.13,0.71c0.09,0.14,0.25,0.21,0.51,0.21c0.08,0,0.17,0,0.28,0
		c0.11,0,0.24-0.02,0.38-0.05v1.86c-0.09,0.03-0.22,0.07-0.36,0.11c-0.15,0.04-0.3,0.07-0.46,0.11c-0.16,0.03-0.31,0.05-0.47,0.07
		c-0.16,0.02-0.29,0.02-0.4,0.02c-0.55,0-1-0.11-1.36-0.33c-0.36-0.22-0.6-0.6-0.71-1.15c-0.53,0.52-1.19,0.89-1.96,1.13
		c-0.78,0.24-1.53,0.35-2.25,0.35c-0.55,0-1.07-0.07-1.58-0.22c-0.5-0.15-0.95-0.37-1.33-0.66c-0.38-0.29-0.69-0.66-0.92-1.11
		c-0.23-0.45-0.34-0.97-0.34-1.56c0-0.75,0.14-1.36,0.41-1.83c0.27-0.47,0.64-0.84,1.08-1.11c0.45-0.27,0.95-0.46,1.51-0.58
		c0.56-0.12,1.12-0.21,1.68-0.27c0.49-0.09,0.95-0.16,1.39-0.2c0.44-0.04,0.83-0.11,1.16-0.2c0.34-0.09,0.6-0.24,0.8-0.44
		c0.2-0.2,0.29-0.49,0.29-0.88c0-0.34-0.08-0.63-0.25-0.85c-0.17-0.22-0.37-0.39-0.61-0.51c-0.24-0.12-0.51-0.2-0.81-0.24
		c-0.3-0.04-0.58-0.06-0.85-0.06c-0.75,0-1.37,0.16-1.86,0.47c-0.49,0.31-0.76,0.8-0.82,1.46H84.9c0.05-0.78,0.24-1.43,0.57-1.95
		c0.33-0.52,0.75-0.93,1.26-1.25c0.51-0.31,1.09-0.53,1.73-0.66c0.64-0.13,1.3-0.19,1.98-0.19c0.6,0,1.18,0.06,1.76,0.19
		c0.58,0.13,1.1,0.33,1.56,0.61c0.46,0.28,0.83,0.65,1.12,1.09c0.28,0.45,0.42,0.99,0.42,1.63L95.29,30.7L95.29,30.7z M92.61,27.32
		c-0.41,0.27-0.91,0.43-1.51,0.48c-0.6,0.06-1.19,0.14-1.79,0.25c-0.28,0.05-0.56,0.11-0.82,0.2c-0.27,0.09-0.5,0.2-0.71,0.35
		c-0.2,0.15-0.36,0.34-0.48,0.59c-0.12,0.24-0.18,0.54-0.18,0.88c0,0.3,0.09,0.55,0.26,0.75c0.17,0.2,0.38,0.36,0.62,0.48
		c0.24,0.12,0.51,0.2,0.8,0.25c0.29,0.05,0.55,0.07,0.79,0.07c0.3,0,0.62-0.04,0.96-0.12c0.35-0.08,0.67-0.21,0.98-0.4
		c0.31-0.19,0.56-0.43,0.76-0.72c0.2-0.29,0.31-0.65,0.31-1.07V27.32z"/>
	<path class="st0" d="M99.54,29.5c0.08,0.78,0.38,1.33,0.89,1.65c0.52,0.31,1.14,0.47,1.86,0.47c0.25,0,0.54-0.02,0.86-0.06
		c0.32-0.04,0.62-0.11,0.91-0.22c0.28-0.11,0.51-0.27,0.69-0.48c0.18-0.21,0.26-0.49,0.25-0.83c-0.02-0.34-0.14-0.63-0.38-0.85
		c-0.24-0.22-0.54-0.4-0.91-0.53c-0.37-0.13-0.79-0.25-1.26-0.34c-0.47-0.09-0.95-0.2-1.43-0.31c-0.5-0.11-0.98-0.24-1.45-0.4
		c-0.46-0.16-0.88-0.37-1.25-0.64c-0.37-0.27-0.66-0.61-0.88-1.02c-0.22-0.42-0.33-0.93-0.33-1.54c0-0.66,0.16-1.21,0.48-1.66
		c0.32-0.45,0.73-0.81,1.22-1.08c0.49-0.27,1.04-0.47,1.65-0.58c0.6-0.11,1.18-0.16,1.73-0.16c0.63,0,1.23,0.07,1.8,0.2
		c0.57,0.13,1.09,0.35,1.55,0.65c0.46,0.3,0.85,0.69,1.15,1.16c0.31,0.48,0.5,1.05,0.58,1.73h-2.8c-0.13-0.64-0.42-1.07-0.88-1.29
		c-0.46-0.22-0.99-0.33-1.59-0.33c-0.19,0-0.41,0.02-0.67,0.05c-0.26,0.03-0.5,0.09-0.73,0.18c-0.23,0.09-0.42,0.21-0.58,0.38
		s-0.24,0.38-0.24,0.65c0,0.33,0.11,0.6,0.34,0.8c0.23,0.2,0.53,0.37,0.9,0.51c0.37,0.13,0.79,0.25,1.26,0.34
		c0.47,0.09,0.96,0.2,1.46,0.31c0.49,0.11,0.97,0.24,1.44,0.4c0.47,0.16,0.89,0.37,1.26,0.64c0.37,0.27,0.67,0.6,0.9,1.01
		c0.23,0.41,0.34,0.91,0.34,1.51c0,0.72-0.17,1.33-0.5,1.83c-0.33,0.5-0.76,0.91-1.29,1.22c-0.53,0.31-1.11,0.54-1.76,0.68
		c-0.64,0.14-1.28,0.21-1.91,0.21c-0.77,0-1.48-0.09-2.13-0.26c-0.65-0.17-1.22-0.44-1.7-0.79c-0.48-0.35-0.86-0.79-1.13-1.32
		c-0.27-0.53-0.42-1.15-0.44-1.87C96.85,29.5,99.54,29.5,99.54,29.5z"/>
	<path class="st0" d="M111.01,28.02c0,0.47,0.07,0.93,0.2,1.36c0.13,0.44,0.33,0.82,0.6,1.15c0.27,0.33,0.6,0.59,1.01,0.79
		c0.41,0.2,0.89,0.29,1.46,0.29c0.78,0,1.42-0.17,1.89-0.51c0.48-0.34,0.83-0.84,1.07-1.52h2.54c-0.14,0.66-0.38,1.25-0.73,1.76
		c-0.34,0.52-0.76,0.95-1.25,1.31c-0.49,0.35-1.03,0.62-1.64,0.8c-0.6,0.18-1.23,0.27-1.89,0.27c-0.96,0-1.8-0.16-2.54-0.47
		s-1.36-0.75-1.87-1.32c-0.51-0.56-0.89-1.24-1.15-2.02c-0.26-0.78-0.39-1.65-0.39-2.59c0-0.86,0.14-1.68,0.41-2.46
		c0.27-0.78,0.67-1.46,1.18-2.05c0.51-0.59,1.12-1.05,1.85-1.4c0.72-0.34,1.54-0.52,2.45-0.52c0.96,0,1.81,0.2,2.58,0.6
		c0.76,0.4,1.39,0.93,1.89,1.59c0.5,0.66,0.87,1.42,1.09,2.27c0.23,0.85,0.29,1.74,0.18,2.65
		C119.95,28.02,111.01,28.02,111.01,28.02z M117.27,26.26c-0.03-0.42-0.12-0.83-0.27-1.22c-0.15-0.39-0.35-0.73-0.61-1.02
		c-0.26-0.29-0.57-0.53-0.94-0.71c-0.37-0.18-0.78-0.27-1.23-0.27c-0.47,0-0.9,0.08-1.28,0.25c-0.38,0.16-0.71,0.39-0.99,0.68
		c-0.27,0.29-0.49,0.63-0.66,1.02c-0.16,0.39-0.26,0.82-0.27,1.27H117.27z"/>
</g>
</svg>
