<?xml version="1.0" encoding="utf-8"?>
<!-- Generator: Adobe Illustrator 26.2.1, SVG Export Plug-In . SVG Version: 6.00 Build 0)  -->
<svg version="1.1" id="report" xmlns="http://www.w3.org/2000/svg" xmlns:xlink="http://www.w3.org/1999/xlink" x="0px" y="0px"
	 viewBox="0 0 640.62 640.62" style="enable-background:new 0 0 640.62 640.62;" xml:space="preserve">
<style type="text/css">
	.st0{fill:#360061;}
	.st1{fill:url(#SVGID_1_);}
	.st2{fill:#5800B2;}
	.st3{fill:url(#SVGID_00000029748930576773157340000017878223302201287099_);}
	.st4{fill:url(#SVGID_00000046304994352162707390000015965808128906096778_);}
	.st5{fill:url(#SVGID_00000017509941250043079990000003847723114399634616_);}
	.st6{fill:url(#SVGID_00000003827753594686622360000013000205725140160444_);}
</style>
<g>
	<path class="st0" d="M635.1,142.48c0,139.75,0,279.5,0,419.26c-9.1,22.15-16.86,27.3-41.15,27.3c-182.73,0-365.46,0.01-548.18-0.01
		c-22.82,0-36.48-13.68-36.49-36.46c-0.01-134.45-0.01-268.9-0.01-403.35c0-2.17,0-4.34,0-6.96c3.37,0,5.98,0,8.6,0
		c203.3,0,406.61,0,609.91,0.01C630.22,142.26,632.66,142.4,635.1,142.48z M135.81,405.05c-1.03,7.56-2.57,15.16-2.98,22.81
		c-0.41,7.69-0.25,15.51,0.6,23.16c3.42,31.03,14.94,59.47,29.25,86.81c10.24,19.57,32.29,31.32,53.45,28.12
		c13.99-2.12,28.13-5.02,41.39-9.81c44.25-15.99,88.07-15.95,131.86,1.03c13.82,5.36,28.02,8.3,42.82,8.74
		c23.2,0.68,39.71-9.94,50.5-29.95c3.76-6.97,7.05-14.22,10.15-21.51c11.91-27.94,20.89-56.56,18.74-87.48
		c-0.52-7.42-2.06-14.77-3.15-22.29c4.35-1.85,8.68-3.57,12.92-5.51c12.66-5.77,24.71-12.5,34.44-22.72
		c16.05-16.85,16.61-37.69,0.49-54.5c-6.24-6.51-13.83-12.08-21.62-16.7c-21.02-12.47-44.21-19.48-67.87-24.94
		c-4.02-0.93-6-2.48-6.97-6.85c-4.93-22.24-10.34-44.37-15.57-66.54c-7.65-32.42-33.13-49.63-66.17-45.59
		c-37.14,4.54-74.42,4.54-111.56,0.04c-33.47-4.06-58.84,13.12-66.49,45.89c-5.13,21.98-10.56,43.9-15.44,65.94
		c-1.01,4.57-3.23,6.04-7.33,7.3c-17.84,5.51-35.82,10.76-53.22,17.48c-14.46,5.58-27.77,13.71-37.94,25.94
		c-13.28,15.95-13.36,35.13,0.78,50.36c6.14,6.61,13.64,12.27,21.35,17.02C117,396.7,126.69,400.58,135.81,405.05z M54.03,337.9
		c0-26.27,0.01-52.54-0.01-78.81c0-2.23,0.02-4.5-0.33-6.7c-0.93-5.81-5.33-9.63-10.83-9.66c-5.44-0.03-10.01,3.8-11.02,9.52
		c-0.38,2.18-0.31,4.46-0.31,6.69c-0.01,52.54-0.02,105.07,0.02,157.61c0,2.63,0.01,5.35,0.68,7.86c1.43,5.38,5.24,8.16,10.79,8.05
		c5.56-0.11,9.21-3.03,10.44-8.48c0.53-2.35,0.55-4.85,0.55-7.28C54.05,390.44,54.03,364.17,54.03,337.9z M31.53,191.89
		c0,5.5-0.18,11,0.04,16.5c0.29,7.12,5.09,12.04,11.31,11.98c6.01-0.06,10.83-4.73,11.02-11.57c0.29-10.79,0.28-21.59,0.03-32.38
		c-0.17-7.32-4.89-11.98-11.24-11.91c-6.36,0.07-10.84,4.81-11.11,12.11C31.38,181.71,31.53,186.8,31.53,191.89z"/>
	<linearGradient id="SVGID_1_" gradientUnits="userSpaceOnUse" x1="9.2688" y1="365.6415" x2="635.0971" y2="365.6415">
		<stop  offset="0" style="stop-color:#FFFFFF;stop-opacity:0.4"/>
		<stop  offset="0.0691" style="stop-color:#FFFFFF;stop-opacity:0.3435"/>
		<stop  offset="0.4892" style="stop-color:#FFFFFF;stop-opacity:0"/>
		<stop  offset="0.7527" style="stop-color:#FAFAFA;stop-opacity:0.1032"/>
		<stop  offset="1" style="stop-color:#EFEFEF;stop-opacity:0.2"/>
	</linearGradient>
	<path class="st1" d="M635.1,142.48c0,139.75,0,279.5,0,419.26c-9.1,22.15-16.86,27.3-41.15,27.3c-182.73,0-365.46,0.01-548.18-0.01
		c-22.82,0-36.48-13.68-36.49-36.46c-0.01-134.45-0.01-268.9-0.01-403.35c0-2.17,0-4.34,0-6.96c3.37,0,5.98,0,8.6,0
		c203.3,0,406.61,0,609.91,0.01C630.22,142.26,632.66,142.4,635.1,142.48z M135.81,405.05c-1.03,7.56-2.57,15.16-2.98,22.81
		c-0.41,7.69-0.25,15.51,0.6,23.16c3.42,31.03,14.94,59.47,29.25,86.81c10.24,19.57,32.29,31.32,53.45,28.12
		c13.99-2.12,28.13-5.02,41.39-9.81c44.25-15.99,88.07-15.95,131.86,1.03c13.82,5.36,28.02,8.3,42.82,8.74
		c23.2,0.68,39.71-9.94,50.5-29.95c3.76-6.97,7.05-14.22,10.15-21.51c11.91-27.94,20.89-56.56,18.74-87.48
		c-0.52-7.42-2.06-14.77-3.15-22.29c4.35-1.85,8.68-3.57,12.92-5.51c12.66-5.77,24.71-12.5,34.44-22.72
		c16.05-16.85,16.61-37.69,0.49-54.5c-6.24-6.51-13.83-12.08-21.62-16.7c-21.02-12.47-44.21-19.48-67.87-24.94
		c-4.02-0.93-6-2.48-6.97-6.85c-4.93-22.24-10.34-44.37-15.57-66.54c-7.65-32.42-33.13-49.63-66.17-45.59
		c-37.14,4.54-74.42,4.54-111.56,0.04c-33.47-4.06-58.84,13.12-66.49,45.89c-5.13,21.98-10.56,43.9-15.44,65.94
		c-1.01,4.57-3.23,6.04-7.33,7.3c-17.84,5.51-35.82,10.76-53.22,17.48c-14.46,5.58-27.77,13.71-37.94,25.94
		c-13.28,15.95-13.36,35.13,0.78,50.36c6.14,6.61,13.64,12.27,21.35,17.02C117,396.7,126.69,400.58,135.81,405.05z M54.03,337.9
		c0-26.27,0.01-52.54-0.01-78.81c0-2.23,0.02-4.5-0.33-6.7c-0.93-5.81-5.33-9.63-10.83-9.66c-5.44-0.03-10.01,3.8-11.02,9.52
		c-0.38,2.18-0.31,4.46-0.31,6.69c-0.01,52.54-0.02,105.07,0.02,157.61c0,2.63,0.01,5.35,0.68,7.86c1.43,5.38,5.24,8.16,10.79,8.05
		c5.56-0.11,9.21-3.03,10.44-8.48c0.53-2.35,0.55-4.85,0.55-7.28C54.05,390.44,54.03,364.17,54.03,337.9z M31.53,191.89
		c0,5.5-0.18,11,0.04,16.5c0.29,7.12,5.09,12.04,11.31,11.98c6.01-0.06,10.83-4.73,11.02-11.57c0.29-10.79,0.28-21.59,0.03-32.38
		c-0.17-7.32-4.89-11.98-11.24-11.91c-6.36,0.07-10.84,4.81-11.11,12.11C31.38,181.71,31.53,186.8,31.53,191.89z"/>
	<path class="st2" d="M635.1,119.25c-2.23,0.14-4.45,0.39-6.68,0.39c-203.86,0.02-407.71,0.02-611.57,0.02c-2.23,0-4.46,0-7.58,0
		c0-3.7,0-7.08,0-10.46c0-14.46-0.05-28.92,0.02-43.38c0.04-8.76,3.96-12.72,12.57-12.97c1.02-0.03,2.04-0.01,3.05-0.01
		c198.15,0,396.31,0.02,594.46-0.1c6.89,0,12.41,1.34,15.72,7.84C635.1,80.14,635.1,99.69,635.1,119.25z M568.49,75.16
		c-10.78,0-21.57-0.06-32.35,0.02c-7.9,0.05-12.54,4.16-12.61,10.94c-0.07,6.8,4.6,11.17,12.36,11.2
		c21.36,0.07,42.73,0.07,64.09,0.01c7.71-0.02,12.68-4.4,12.76-10.95c0.09-6.54-4.92-11.13-12.51-11.19
		C589.65,75.09,579.07,75.16,568.49,75.16z M42.62,97.3c6.25,0.09,11.24-4.81,11.25-11.05c0.01-6.01-4.63-10.84-10.62-11.06
		c-6.22-0.23-11.43,4.58-11.63,10.73C31.42,92.02,36.45,97.21,42.62,97.3z M132.24,75.19c-6.25-0.02-11.19,4.94-11.12,11.18
		c0.07,6,4.76,10.78,10.75,10.94c6.19,0.17,11.38-4.75,11.5-10.87C143.49,80.32,138.42,75.21,132.24,75.19z M98.54,86.11
		c-0.06-6.22-5.08-11.06-11.33-10.92c-5.97,0.14-10.68,4.89-10.77,10.87c-0.09,6.24,4.8,11.22,11.02,11.23
		C93.7,97.31,98.6,92.35,98.54,86.11z"/>
	
		<linearGradient id="SVGID_00000106127871875842140260000007210109455858074803_" gradientUnits="userSpaceOnUse" x1="9.2532" y1="86.2006" x2="635.0971" y2="86.2006">
		<stop  offset="0" style="stop-color:#FFFFFF;stop-opacity:0.4"/>
		<stop  offset="0.0691" style="stop-color:#FFFFFF;stop-opacity:0.3435"/>
		<stop  offset="0.4892" style="stop-color:#FFFFFF;stop-opacity:0"/>
		<stop  offset="0.7527" style="stop-color:#FAFAFA;stop-opacity:0.1032"/>
		<stop  offset="1" style="stop-color:#EFEFEF;stop-opacity:0.2"/>
	</linearGradient>
	<path style="fill:url(#SVGID_00000106127871875842140260000007210109455858074803_);" d="M635.1,119.25
		c-2.23,0.14-4.45,0.39-6.68,0.39c-203.86,0.02-407.71,0.02-611.57,0.02c-2.23,0-4.46,0-7.58,0c0-3.7,0-7.08,0-10.46
		c0-14.46-0.05-28.92,0.02-43.38c0.04-8.76,3.96-12.72,12.57-12.97c1.02-0.03,2.04-0.01,3.05-0.01c198.15,0,396.31,0.02,594.46-0.1
		c6.89,0,12.41,1.34,15.72,7.84C635.1,80.14,635.1,99.69,635.1,119.25z M568.49,75.16c-10.78,0-21.57-0.06-32.35,0.02
		c-7.9,0.05-12.54,4.16-12.61,10.94c-0.07,6.8,4.6,11.17,12.36,11.2c21.36,0.07,42.73,0.07,64.09,0.01
		c7.71-0.02,12.68-4.4,12.76-10.95c0.09-6.54-4.92-11.13-12.51-11.19C589.65,75.09,579.07,75.16,568.49,75.16z M42.62,97.3
		c6.25,0.09,11.24-4.81,11.25-11.05c0.01-6.01-4.63-10.84-10.62-11.06c-6.22-0.23-11.43,4.58-11.63,10.73
		C31.42,92.02,36.45,97.21,42.62,97.3z M132.24,75.19c-6.25-0.02-11.19,4.94-11.12,11.18c0.07,6,4.76,10.78,10.75,10.94
		c6.19,0.17,11.38-4.75,11.5-10.87C143.49,80.32,138.42,75.21,132.24,75.19z M98.54,86.11c-0.06-6.22-5.08-11.06-11.33-10.92
		c-5.97,0.14-10.68,4.89-10.77,10.87c-0.09,6.24,4.8,11.22,11.02,11.23C93.7,97.31,98.6,92.35,98.54,86.11z"/>
	<path class="st2" d="M331.96,321.14c-43.73-0.53-77.92-1.16-111.51-8.8c-5.33-1.21-10.45-3.3-15.69-4.89
		c-3.33-1.01-4.34-2.86-3.52-6.37c7.26-30.87,14.15-61.84,21.66-92.65c4.22-17.3,19.75-27.2,37.36-25.17
		c41.43,4.77,82.88,4.78,124.32,0c17.81-2.06,33.51,8.3,37.64,25.73c7.22,30.47,13.98,61.04,21.22,91.51c1,4.21-0.18,5.73-3.83,7.13
		c-17.3,6.65-35.45,9.18-53.7,10.62C364.8,319.91,343.62,320.54,331.96,321.14z"/>
	
		<linearGradient id="SVGID_00000166658365644036841500000011936845441854245545_" gradientUnits="userSpaceOnUse" x1="200.959" y1="252.0681" x2="443.7613" y2="252.0681">
		<stop  offset="0" style="stop-color:#FFFFFF;stop-opacity:0.4"/>
		<stop  offset="0.0691" style="stop-color:#FFFFFF;stop-opacity:0.3435"/>
		<stop  offset="0.4892" style="stop-color:#FFFFFF;stop-opacity:0"/>
		<stop  offset="0.7527" style="stop-color:#FAFAFA;stop-opacity:0.1032"/>
		<stop  offset="1" style="stop-color:#EFEFEF;stop-opacity:0.2"/>
	</linearGradient>
	<path style="fill:url(#SVGID_00000166658365644036841500000011936845441854245545_);" d="M331.96,321.14
		c-43.73-0.53-77.92-1.16-111.51-8.8c-5.33-1.21-10.45-3.3-15.69-4.89c-3.33-1.01-4.34-2.86-3.52-6.37
		c7.26-30.87,14.15-61.84,21.66-92.65c4.22-17.3,19.75-27.2,37.36-25.17c41.43,4.77,82.88,4.78,124.32,0
		c17.81-2.06,33.51,8.3,37.64,25.73c7.22,30.47,13.98,61.04,21.22,91.51c1,4.21-0.18,5.73-3.83,7.13
		c-17.3,6.65-35.45,9.18-53.7,10.62C364.8,319.91,343.62,320.54,331.96,321.14z"/>
	<path class="st2" d="M157.97,412.13c54.17,14.17,108.69,20.55,164.13,20.6c55.43,0.05,109.98-6.1,164.02-20.08
		c3.63,11.26,4.19,22.35,3.12,33.5c-2.83,29.48-13.7,56.41-27.55,82.15c-5.88,10.91-15.9,17.49-28.68,15.98
		c-12.22-1.44-24.79-3.23-36.21-7.52c-49.85-18.71-99.21-18.75-149.06-0.04c-11.24,4.22-23.58,6.08-35.59,7.56
		c-13.57,1.67-23.97-5.29-30.05-16.88c-13.09-24.95-23.63-50.94-26.8-79.29C153.97,436.33,154.31,424.59,157.97,412.13z
		 M422.49,521.72c22.23,3.13,38.94-9.43,43.29-33.95c2.56-14.43,2.18-28.78-0.38-43.12c-2.09-11.72-9.34-15.12-19.91-9.38
		c-31.11,16.88-62.18,33.84-93.31,50.68c-5.05,2.73-8.59,6.18-8.01,12.4c0.58,6.25,4.8,8.93,10.22,10.67
		C376.39,516.07,398.84,520.63,422.49,521.72z M221.14,521.74c23.97-1.14,46.62-5.63,68.75-12.85c4.99-1.63,8.69-4.36,9.31-10.02
		c0.64-5.85-2.18-9.6-7.11-12.28c-31.78-17.24-63.52-34.57-95.33-51.75c-9.18-4.96-17.57-0.82-18.53,9.62
		c-1.04,11.3-2.06,22.79-1.16,34.05C179.42,508,194.39,525.09,221.14,521.74z"/>
	<path class="st0" d="M468.65,303.44c22.34,6.11,44.36,12.66,63.35,26.35c18.19,13.12,18.12,25.32-0.25,38.34
		c-19.08,13.52-41.07,20.41-63.42,26.02c-59.17,14.85-119.42,17.9-180.07,15.37c-45.06-1.88-89.73-7.11-132.71-21.54
		c-14.14-4.75-28.13-10.99-40.83-18.77c-21.04-12.89-20.65-26.66-0.39-40.78c14.2-9.9,47.54-22.99,62.61-24.35
		c-2.67,11.82-5.27,23.44-7.91,35.04c-0.58,2.58-1.28,5.13-1.87,7.71c-2.57,11.24-0.72,15.84,9.46,21.53
		c14.46,8.08,30.47,11.4,46.61,13.54c63.29,8.41,126.72,8.34,190.06,1.01c15.62-1.81,30.89-6.77,46.23-10.63
		c3.46-0.87,6.71-2.92,9.81-4.84c9.03-5.58,10.59-9.53,8.28-19.8c-3.21-14.28-6.43-28.56-9.63-42.84
		C467.95,304.66,468.13,304.47,468.65,303.44z"/>
	
		<linearGradient id="SVGID_00000091695237137807551640000008675168105837294219_" gradientUnits="userSpaceOnUse" x1="99.0439" y1="356.8812" x2="545.5854" y2="356.8812">
		<stop  offset="0" style="stop-color:#FFFFFF;stop-opacity:0.4"/>
		<stop  offset="0.0691" style="stop-color:#FFFFFF;stop-opacity:0.3435"/>
		<stop  offset="0.4892" style="stop-color:#FFFFFF;stop-opacity:0"/>
		<stop  offset="0.7527" style="stop-color:#FAFAFA;stop-opacity:0.1032"/>
		<stop  offset="1" style="stop-color:#EFEFEF;stop-opacity:0.2"/>
	</linearGradient>
	<path style="fill:url(#SVGID_00000091695237137807551640000008675168105837294219_);" d="M468.65,303.44
		c22.34,6.11,44.36,12.66,63.35,26.35c18.19,13.12,18.12,25.32-0.25,38.34c-19.08,13.52-41.07,20.41-63.42,26.02
		c-59.17,14.85-119.42,17.9-180.07,15.37c-45.06-1.88-89.73-7.11-132.71-21.54c-14.14-4.75-28.13-10.99-40.83-18.77
		c-21.04-12.89-20.65-26.66-0.39-40.78c14.2-9.9,47.54-22.99,62.61-24.35c-2.67,11.82-5.27,23.44-7.91,35.04
		c-0.58,2.58-1.28,5.13-1.87,7.71c-2.57,11.24-0.72,15.84,9.46,21.53c14.46,8.08,30.47,11.4,46.61,13.54
		c63.29,8.41,126.72,8.34,190.06,1.01c15.62-1.81,30.89-6.77,46.23-10.63c3.46-0.87,6.71-2.92,9.81-4.84
		c9.03-5.58,10.59-9.53,8.28-19.8c-3.21-14.28-6.43-28.56-9.63-42.84C467.95,304.66,468.13,304.47,468.65,303.44z"/>
	<path class="st0" d="M194.64,328.1c68.27,20.54,183.33,20.57,255.14,0.08c1.53,6.65,3.3,13.24,4.37,19.94
		c0.18,1.14-2.41,3.62-4.07,4.01c-13.62,3.23-27.18,7.27-41.02,8.89c-54.58,6.38-109.33,6.26-163.97,1.08
		c-16.68-1.58-33.07-6.24-49.58-9.55c-5.04-1.01-6.42-3.77-4.71-8.8C192.48,338.82,193.33,333.6,194.64,328.1z"/>
	
		<linearGradient id="SVGID_00000164498311782759638460000008941625841137629061_" gradientUnits="userSpaceOnUse" x1="190.0982" y1="347.0054" x2="454.1561" y2="347.0054">
		<stop  offset="0" style="stop-color:#FFFFFF;stop-opacity:0.4"/>
		<stop  offset="0.0691" style="stop-color:#FFFFFF;stop-opacity:0.3435"/>
		<stop  offset="0.4892" style="stop-color:#FFFFFF;stop-opacity:0"/>
		<stop  offset="0.7527" style="stop-color:#FAFAFA;stop-opacity:0.1032"/>
		<stop  offset="1" style="stop-color:#EFEFEF;stop-opacity:0.2"/>
	</linearGradient>
	<path style="fill:url(#SVGID_00000164498311782759638460000008941625841137629061_);" d="M194.64,328.1
		c68.27,20.54,183.33,20.57,255.14,0.08c1.53,6.65,3.3,13.24,4.37,19.94c0.18,1.14-2.41,3.62-4.07,4.01
		c-13.62,3.23-27.18,7.27-41.02,8.89c-54.58,6.38-109.33,6.26-163.97,1.08c-16.68-1.58-33.07-6.24-49.58-9.55
		c-5.04-1.01-6.42-3.77-4.71-8.8C192.48,338.82,193.33,333.6,194.64,328.1z"/>
	<path class="st0" d="M386.87,493.28c19.04-10.33,38.07-20.66,58.3-31.64c1.24,13.17-0.39,24.67-7.35,34.88
		c-1.28,1.87-5.05,3.07-7.56,2.9c-14.52-0.98-29.01-2.47-43.51-3.78C386.79,494.85,386.83,494.07,386.87,493.28z"/>
	<path class="st0" d="M257.66,495.79c-14.74,1.25-29.47,2.83-44.23,3.47c-2.82,0.12-6.98-2.83-8.48-5.5
		c-5.28-9.42-7-19.8-5.68-32.09c20,10.8,39.31,21.22,58.62,31.65C257.81,494.14,257.73,494.97,257.66,495.79z"/>
</g>
</svg>
