<?xml version="1.0" encoding="utf-8"?>
<!-- Generator: Adobe Illustrator 27.7.0, SVG Export Plug-In . SVG Version: 6.00 Build 0)  -->
<svg version="1.1" id="report" xmlns="http://www.w3.org/2000/svg" xmlns:xlink="http://www.w3.org/1999/xlink" x="0px" y="0px"
	 viewBox="0 0 640.6 640.6" style="enable-background:new 0 0 640.6 640.6;" xml:space="preserve">
<style type="text/css">
	.st0{fill:#F2EFF4;}
	.st1{opacity:0.7;fill:#FFFFFF;enable-background:new    ;}
	.st2{fill:#FFFFFF;}
	.st3{fill:url(#SVGID_1_);}
	.st4{fill:url(#SVGID_00000049186745906917846250000003800259617667474847_);}
	.st5{fill:url(#SVGID_00000166665780304330920880000006534547890743933341_);}
	.st6{fill:url(#SVGID_00000127761797482254609790000004594451576475572633_);}
	.st7{fill:url(#SVGID_00000070826433272714137530000007343898203112547497_);}
	.st8{fill:url(#SVGID_00000114753013806248304280000001386323799843459500_);}
	.st9{fill:url(#SVGID_00000075863050303771916190000016850395842117550255_);}
	.st10{opacity:0.9;fill:#FFFFFF;enable-background:new    ;}
	.st11{opacity:0.6;fill:#FFFFFF;enable-background:new    ;}
	.st12{opacity:0.8;fill:#FFFFFF;enable-background:new    ;}
	.st13{opacity:0.5;fill:#FFFFFF;enable-background:new    ;}
	.st14{opacity:0.4;fill:#FFFFFF;enable-background:new    ;}
</style>
<path class="st0" d="M312.8,641.9c-6.7-2.1-13.7-3.6-20-6.5c-14.1-6.5-24.5-16.8-30.2-32.2c39.5,0,78.2,0,118,0
	c-1.2,2.8-2.1,5.5-3.5,7.8c-9.3,16.5-23.9,25.6-42,29.6c-1.6,0.3-3.2,0.9-4.7,1.3C324.5,641.9,318.6,641.9,312.8,641.9z"/>
<path class="st1" d="M325.3,1.3c4.2,3.4,5.2,7.9,5.2,13.2c-0.2,20.8,0,41.7-0.1,62.6c0,7.5-5.5,12.8-11.2,10
	c-2.9-1.4-6.1-5.7-6.2-8.8c-0.5-22.5-0.5-45-0.1-67.6c0.1-3.2,3.2-6.3,4.9-9.4C320.3,1.3,322.8,1.3,325.3,1.3z"/>
<path class="st2" d="M435.2,377.5c13,13,26,25.9,38.6,38.4c-10.6,10.6-21,21-31.9,31.8c-0.6-0.6-2.1-1.7-3.3-2.9
	c-10.5-10.4-21.1-20.8-31.4-31.5c-3-3.1-5-3.5-8.8-1c-56.3,35.9-128.8,26.1-172.3-24.4c-33.6-39-42.4-84.2-24.9-132.6
	c17.6-48.6,53.2-78.1,104.4-86.3c75.8-12.3,145,41.1,153.2,117.4c3.3,30.6-3.5,59.2-20,85.4C437.8,373.5,436.7,375.2,435.2,377.5z
	 M394,355.2c0-3.3,0-5.5,0-7.8c0-25.9,0-51.7,0-77.6c0-2.5,0.3-5.7-1-7.2c-2.3-2.5-5.9-5.5-8.7-5.2c-2.8,0.3-5.7,3.9-7.6,6.7
	c-1.1,1.6-0.5,4.5-0.5,6.7c0,25.4,0,50.9,0,76.3c0,2.4,0,4.9,0,7.4c-7.6,0-14.3,0-21.6,0c0-2.7,0-5,0-7.2c0-14.2,0.1-28.4,0-42.5
	c0-6.3-3.4-10.2-8.5-10.4c-5.3-0.2-9.2,3.9-9.3,10.3c-0.1,11,0,22.1,0,33.1c0,5.5,0,11.1,0,16.7c-7.6,0-14.3,0-21.4,0
	c0-2.8,0-5,0-7.3c0-21.1,0-42.1,0-63.2c0-7.2-4.1-11.3-10.2-10.3c-5.9,0.9-7.6,5-7.5,10.4c0,21.3,0,42.5,0,63.8
	c0,2.2-0.2,4.4-0.3,6.7c-7.3,0-13.8,0-21.2,0c0-2.6,0-4.8,0-7c0-12.7,0.1-25.4-0.1-38.1c-0.1-6.2-3.8-9.9-9-9.9
	c-5.2,0.1-8.6,3.9-8.9,10c-0.2,4,0,7.9,0,11.9c0,11,0,22,0,33.6c-3.9,0-7-0.3-10.1,0.1c-4.8,0.5-7.6,3.4-7.8,8.3
	c-0.2,5.2,2.7,8.1,7.6,9.1c1.4,0.3,2.9,0.1,4.4,0.1c49.2,0,98.4,0,147.6,0c1.2,0,2.5,0.1,3.8-0.1c5.2-0.6,8.6-4.2,8.3-9.1
	c-0.3-5.1-3.2-8-8.2-8.4C400.7,355,397.8,355.2,394,355.2z M344,249.4c-10.8-6.3-21.2-12.4-31.5-18.6c-5.2-3.1-9.7-2.7-14,1.8
	c-7.5,7.8-15.6,15.1-22.6,23.4c-7.8,9.3-16.4,15.7-29.2,12.9c-0.4-0.1-0.8,0-1.2,0c-5.2,0.4-7.9,3.4-8.4,8.4
	c-0.5,4.7,3.2,8.7,8.3,9.2c2.7,0.2,5.5-0.3,8.1,0.1c12.6,2.1,21.6-2.8,29.8-12.4c7.6-8.9,17-16.4,25.8-24.7
	c9.6,5.7,19.8,11.8,30,17.7c6.4,3.8,9.6,3.3,14.8-2.2c9.5-10.2,19-20.4,28.5-30.6c3.3-3.5,6.7-6.9,9.6-10.6c3.1-4,2.7-8.4-1-11.8
	c-3.7-3.4-8-3.3-11.9,0c-1.6,1.3-2.9,3-4.3,4.5C364.6,227.3,354.4,238.3,344,249.4z"/>
<path class="st0" d="M472.1,388.1c-4.8-4.9-9.2-9.3-13.8-14c8.7-16.2,14.8-33.5,17.6-52.1c11.8-77.8-40.5-153.4-117.3-169.5
	c-86.2-18.1-167.7,38.1-181.8,125.3c-12.9,80,44.4,158.8,124.1,171.4c33.5,5.2,65.1,0.5,95.1-15c3.3-1.7,5.4-1.7,8,1.1
	c5.6,5.9,11.6,11.4,17.7,17.3c-1.5,2.1-2.7,3.7-3.8,5.4c-8,12.7-16.2,25.2-23.8,38.1c-2.3,3.8-4.3,5.6-9,5.6
	c-42.5-0.2-85.1-0.2-127.6,0c-4.4,0-6.6-1.3-8.6-5.2c-14.9-29.7-36.4-54.7-57.3-80.1c-19.2-23.4-35.7-48.3-42.3-78.4
	c-24.5-110.9,49.5-205.7,149.9-218.9c92.8-12.2,180.8,52.5,196.2,145c7.1,42.7,1.6,83.4-21.4,120.9
	C473.6,385.9,473,386.8,472.1,388.1z"/>
<path class="st0" d="M536.4,429.3c-1.2,2.2-2.6,7.3-5.8,10.6c-21.2,21.8-42.8,43.2-64.4,64.6c-8.1,8-19.8,7.9-27.4,0.2
	c-7.6-7.7-7.5-19.3,0.6-27.4c21.3-21.4,42.6-42.8,64.1-64.1c6.1-6,13.4-7.4,21.3-4.3C532,411.8,536.5,418.9,536.4,429.3z"/>
<path class="st0" d="M495.6,501.4c10.6-10.6,21.1-21,31.9-31.9c0.8,0.8,2,1.8,3.1,2.9c16.2,16.2,32.4,32.4,48.6,48.6
	c10.5,10.5,11,24.5,1.4,33.9c-9.5,9.4-23,8.8-33.4-1.5c-16.3-16.2-32.5-32.4-48.6-48.6C497.5,503.7,496.5,502.4,495.6,501.4z"/>
<path class="st0" d="M382.7,546.3c-40.9,0-81.4,0-122.3,0c0-9,0-17.6,0-26.5c40.9,0,81.4,0,122.3,0
	C382.7,528.7,382.7,537.4,382.7,546.3z"/>
<path class="st0" d="M382.8,564.8c0,6.6,0,12.8,0,19.5c-40.8,0-81.3,0-122.3,0c0-6.3,0-12.7,0-19.5
	C301.1,564.8,341.6,564.8,382.8,564.8z"/>
<g>
	
		<linearGradient id="SVGID_1_" gradientUnits="userSpaceOnUse" x1="192.421" y1="333.2021" x2="473.81" y2="333.2021" gradientTransform="matrix(1 0 0 -1 0 640.62)">
		<stop  offset="0" style="stop-color:#FFFFFF;stop-opacity:0.4"/>
		<stop  offset="6.910000e-02" style="stop-color:#FFFFFF;stop-opacity:0.3435"/>
		<stop  offset="0.4892" style="stop-color:#FFFFFF;stop-opacity:0"/>
		<stop  offset="0.7527" style="stop-color:#FAFAFA;stop-opacity:0.1032"/>
		<stop  offset="1" style="stop-color:#EFEFEF;stop-opacity:0.2"/>
	</linearGradient>
	<path class="st3" d="M435.2,377.5c13,13,26,25.9,38.6,38.4c-10.6,10.6-21,21-31.9,31.8c-0.6-0.6-2.1-1.7-3.3-2.9
		c-10.5-10.4-21.1-20.8-31.4-31.5c-3-3.1-5-3.5-8.8-1c-56.3,35.9-128.8,26.1-172.3-24.4c-33.6-39-42.4-84.2-24.9-132.6
		c17.6-48.6,53.2-78.1,104.4-86.3c75.8-12.3,145,41.1,153.2,117.4c3.3,30.6-3.5,59.2-20,85.4C437.8,373.5,436.7,375.2,435.2,377.5z
		 M394,355.2c0-3.3,0-5.5,0-7.8c0-25.9,0-51.7,0-77.6c0-2.5,0.3-5.7-1-7.2c-2.3-2.5-5.9-5.5-8.7-5.2c-2.8,0.3-5.7,3.9-7.6,6.7
		c-1.1,1.6-0.5,4.5-0.5,6.7c0,25.4,0,50.9,0,76.3c0,2.4,0,4.9,0,7.4c-7.6,0-14.3,0-21.6,0c0-2.7,0-5,0-7.2c0-14.2,0.1-28.4,0-42.5
		c0-6.3-3.4-10.2-8.5-10.4c-5.3-0.2-9.2,3.9-9.3,10.3c-0.1,11,0,22.1,0,33.1c0,5.5,0,11.1,0,16.7c-7.6,0-14.3,0-21.4,0
		c0-2.8,0-5,0-7.3c0-21.1,0-42.1,0-63.2c0-7.2-4.1-11.3-10.2-10.3c-5.9,0.9-7.6,5-7.5,10.4c0,21.3,0,42.5,0,63.8
		c0,2.2-0.2,4.4-0.3,6.7c-7.3,0-13.8,0-21.2,0c0-2.6,0-4.8,0-7c0-12.7,0.1-25.4-0.1-38.1c-0.1-6.2-3.8-9.9-9-9.9
		c-5.2,0.1-8.6,3.9-8.9,10c-0.2,4,0,7.9,0,11.9c0,11,0,22,0,33.6c-3.9,0-7-0.3-10.1,0.1c-4.8,0.5-7.6,3.4-7.8,8.3
		c-0.2,5.2,2.7,8.1,7.6,9.1c1.4,0.3,2.9,0.1,4.4,0.1c49.2,0,98.4,0,147.6,0c1.2,0,2.5,0.1,3.8-0.1c5.2-0.6,8.6-4.2,8.3-9.1
		c-0.3-5.1-3.2-8-8.2-8.4C400.7,355,397.8,355.2,394,355.2z M344,249.4c-10.8-6.3-21.2-12.4-31.5-18.6c-5.2-3.1-9.7-2.7-14,1.8
		c-7.5,7.8-15.6,15.1-22.6,23.4c-7.8,9.3-16.4,15.7-29.2,12.9c-0.4-0.1-0.8,0-1.2,0c-5.2,0.4-7.9,3.4-8.4,8.4
		c-0.5,4.7,3.2,8.7,8.3,9.2c2.7,0.2,5.5-0.3,8.1,0.1c12.6,2.1,21.6-2.8,29.8-12.4c7.6-8.9,17-16.4,25.8-24.7
		c9.6,5.7,19.8,11.8,30,17.7c6.4,3.8,9.6,3.3,14.8-2.2c9.5-10.2,19-20.4,28.5-30.6c3.3-3.5,6.7-6.9,9.6-10.6c3.1-4,2.7-8.4-1-11.8
		c-3.7-3.4-8-3.3-11.9,0c-1.6,1.3-2.9,3-4.3,4.5C364.6,227.3,354.4,238.3,344,249.4z"/>
	
		<linearGradient id="SVGID_00000016060888973820356510000000471324301998843563_" gradientUnits="userSpaceOnUse" x1="144.6971" y1="330.8857" x2="498.4123" y2="330.8857" gradientTransform="matrix(1 0 0 -1 0 640.62)">
		<stop  offset="0" style="stop-color:#FFFFFF;stop-opacity:0.4"/>
		<stop  offset="6.910000e-02" style="stop-color:#FFFFFF;stop-opacity:0.3435"/>
		<stop  offset="0.4892" style="stop-color:#FFFFFF;stop-opacity:0"/>
		<stop  offset="0.7527" style="stop-color:#FAFAFA;stop-opacity:0.1032"/>
		<stop  offset="1" style="stop-color:#EFEFEF;stop-opacity:0.2"/>
	</linearGradient>
	<path style="fill:url(#SVGID_00000016060888973820356510000000471324301998843563_);" d="M472.1,388.1c-4.8-4.9-9.2-9.3-13.8-14
		c8.7-16.2,14.8-33.5,17.6-52.1c11.8-77.8-40.5-153.4-117.3-169.5c-86.2-18.1-167.7,38.1-181.8,125.3
		c-12.9,80,44.4,158.8,124.1,171.4c33.5,5.2,65.1,0.5,95.1-15c3.3-1.7,5.4-1.7,8,1.1c5.6,5.9,11.6,11.4,17.7,17.3
		c-1.5,2.1-2.7,3.7-3.8,5.4c-8,12.7-16.2,25.2-23.8,38.1c-2.3,3.8-4.3,5.6-9,5.6c-42.5-0.2-85.1-0.2-127.6,0c-4.4,0-6.6-1.3-8.6-5.2
		c-14.9-29.7-36.4-54.7-57.3-80.1c-19.2-23.4-35.7-48.3-42.3-78.4c-24.5-110.9,49.5-205.7,149.9-218.9
		c92.8-12.2,180.8,52.5,196.2,145c7.1,42.7,1.6,83.4-21.4,120.9C473.6,385.9,473,386.8,472.1,388.1z"/>
	
		<linearGradient id="SVGID_00000176020660077995564090000015772124009399004332_" gradientUnits="userSpaceOnUse" x1="433.1946" y1="181.7244" x2="536.4223" y2="181.7244" gradientTransform="matrix(1 0 0 -1 0 640.62)">
		<stop  offset="0" style="stop-color:#FFFFFF;stop-opacity:0.4"/>
		<stop  offset="6.910000e-02" style="stop-color:#FFFFFF;stop-opacity:0.3435"/>
		<stop  offset="0.4892" style="stop-color:#FFFFFF;stop-opacity:0"/>
		<stop  offset="0.7527" style="stop-color:#FAFAFA;stop-opacity:0.1032"/>
		<stop  offset="1" style="stop-color:#EFEFEF;stop-opacity:0.2"/>
	</linearGradient>
	<path style="fill:url(#SVGID_00000176020660077995564090000015772124009399004332_);" d="M536.4,429.3c-1.2,2.2-2.6,7.3-5.8,10.6
		c-21.2,21.8-42.8,43.2-64.4,64.6c-8.1,8-19.8,7.9-27.4,0.2c-7.6-7.7-7.5-19.3,0.6-27.4c21.3-21.4,42.6-42.8,64.1-64.1
		c6.1-6,13.4-7.4,21.3-4.3C532,411.8,536.5,418.9,536.4,429.3z"/>
	
		<linearGradient id="SVGID_00000151540809890222427040000006765097128891585441_" gradientUnits="userSpaceOnUse" x1="495.59" y1="125.0202" x2="587.5045" y2="125.0202" gradientTransform="matrix(1 0 0 -1 0 640.62)">
		<stop  offset="0" style="stop-color:#FFFFFF;stop-opacity:0.4"/>
		<stop  offset="6.910000e-02" style="stop-color:#FFFFFF;stop-opacity:0.3435"/>
		<stop  offset="0.4892" style="stop-color:#FFFFFF;stop-opacity:0"/>
		<stop  offset="0.7527" style="stop-color:#FAFAFA;stop-opacity:0.1032"/>
		<stop  offset="1" style="stop-color:#EFEFEF;stop-opacity:0.2"/>
	</linearGradient>
	<path style="fill:url(#SVGID_00000151540809890222427040000006765097128891585441_);" d="M495.6,501.4c10.6-10.6,21.1-21,31.9-31.9
		c0.8,0.8,2,1.8,3.1,2.9c16.2,16.2,32.4,32.4,48.6,48.6c10.5,10.5,11,24.5,1.4,33.9c-9.5,9.4-23,8.8-33.4-1.5
		c-16.3-16.2-32.5-32.4-48.6-48.6C497.5,503.7,496.5,502.4,495.6,501.4z"/>
	
		<linearGradient id="SVGID_00000116203526174150200750000017032220503650803121_" gradientUnits="userSpaceOnUse" x1="262.53" y1="18.13" x2="380.53" y2="18.13" gradientTransform="matrix(1 0 0 -1 0 640.62)">
		<stop  offset="0" style="stop-color:#FFFFFF;stop-opacity:0.4"/>
		<stop  offset="6.910000e-02" style="stop-color:#FFFFFF;stop-opacity:0.3435"/>
		<stop  offset="0.4892" style="stop-color:#FFFFFF;stop-opacity:0"/>
		<stop  offset="0.7527" style="stop-color:#FAFAFA;stop-opacity:0.1032"/>
		<stop  offset="1" style="stop-color:#EFEFEF;stop-opacity:0.2"/>
	</linearGradient>
	<path style="fill:url(#SVGID_00000116203526174150200750000017032220503650803121_);" d="M312.8,641.9c-6.7-2.1-13.7-3.6-20-6.5
		c-14.1-6.5-24.5-16.8-30.2-32.2c39.5,0,78.2,0,118,0c-1.2,2.8-2.1,5.5-3.5,7.8c-9.3,16.5-23.9,25.6-42,29.6
		c-1.6,0.3-3.2,0.9-4.7,1.3C324.5,641.9,318.6,641.9,312.8,641.9z"/>
	
		<linearGradient id="SVGID_00000046304307280284852080000012985254882625146514_" gradientUnits="userSpaceOnUse" x1="260.42" y1="107.595" x2="382.71" y2="107.595" gradientTransform="matrix(1 0 0 -1 0 640.62)">
		<stop  offset="0" style="stop-color:#FFFFFF;stop-opacity:0.4"/>
		<stop  offset="6.910000e-02" style="stop-color:#FFFFFF;stop-opacity:0.3435"/>
		<stop  offset="0.4892" style="stop-color:#FFFFFF;stop-opacity:0"/>
		<stop  offset="0.7527" style="stop-color:#FAFAFA;stop-opacity:0.1032"/>
		<stop  offset="1" style="stop-color:#EFEFEF;stop-opacity:0.2"/>
	</linearGradient>
	<path style="fill:url(#SVGID_00000046304307280284852080000012985254882625146514_);" d="M382.7,546.3c-40.9,0-81.4,0-122.3,0
		c0-9,0-17.6,0-26.5c40.9,0,81.4,0,122.3,0C382.7,528.7,382.7,537.4,382.7,546.3z"/>
	
		<linearGradient id="SVGID_00000085237936491368884070000009128770768731191443_" gradientUnits="userSpaceOnUse" x1="260.5" y1="66.145" x2="382.81" y2="66.145" gradientTransform="matrix(1 0 0 -1 0 640.62)">
		<stop  offset="0" style="stop-color:#FFFFFF;stop-opacity:0.4"/>
		<stop  offset="6.910000e-02" style="stop-color:#FFFFFF;stop-opacity:0.3435"/>
		<stop  offset="0.4892" style="stop-color:#FFFFFF;stop-opacity:0"/>
		<stop  offset="0.7527" style="stop-color:#FAFAFA;stop-opacity:0.1032"/>
		<stop  offset="1" style="stop-color:#EFEFEF;stop-opacity:0.2"/>
	</linearGradient>
	<path style="fill:url(#SVGID_00000085237936491368884070000009128770768731191443_);" d="M382.8,564.8c0,6.6,0,12.8,0,19.5
		c-40.8,0-81.3,0-122.3,0c0-6.3,0-12.7,0-19.5C301.1,564.8,341.6,564.8,382.8,564.8z"/>
</g>
<path class="st10" d="M74.3,142.4c3.7,1.6,5.9,2.3,7.8,3.4c18.4,10.6,36.8,21.1,55.1,31.8c6.4,3.7,8.2,8.4,5.4,13.2
	c-2.8,5-7.8,5.9-14.1,2.3c-18.8-10.8-37.5-21.6-56.2-32.4c-4.2-2.4-7.2-5.9-5.2-10.6C68.5,147,72,144.8,74.3,142.4z"/>
<path class="st11" d="M473.4,46.9c-1.4,3.3-1.9,5.3-2.9,7.1c-10.9,19-21.7,37.9-32.7,56.8c-4.1,7.1-12.7,7.7-15.9,1.1
	c-1.1-2.4-1.2-6.4,0-8.7c11-19.8,22.4-39.4,33.8-59c2.3-4,6.2-6.3,10.5-4.2C469.2,41.4,471.2,44.7,473.4,46.9z"/>
<path class="st12" d="M223.7,108.3c-2.1,2.4-3.8,6-6.5,7.1c-2.5,1-6.3-0.3-9.2-1.4c-1.4-0.5-2.4-2.8-3.3-4.4
	c-10.6-18.2-21.1-36.4-31.6-54.6c-0.5-0.9-1.1-1.8-1.5-2.8c-2.2-5-1.1-9.2,3.5-11.8c4.7-2.7,8.9-1.2,11.9,3.2c1.4,2,2.6,4.3,3.8,6.5
	c9.6,16.6,19.2,33.2,28.7,49.8C220.9,102.2,221.9,104.7,223.7,108.3z"/>
<path class="st13" d="M576.5,154.3c-1.1,1.3-2.7,4.4-5.3,6c-19.1,11.4-38.4,22.4-57.7,33.5c-5.4,3.1-10.3,1.7-13-2.9
	c-2.6-4.6-1.1-9.4,4.3-12.6c19-11.1,38.1-22.1,57.2-33C569.1,141.2,576.7,145.2,576.5,154.3z"/>
<path class="st2" d="M71.2,303.1c-10.6,0-21.2,0.1-31.9,0c-7.1-0.1-10.6-3-10.7-8.6c-0.1-5.8,3.8-9.1,10.9-9.2
	c21.5-0.1,42.9,0,64.4,0c7,0,11.2,3.5,11.2,9c0,5.5-4.1,8.7-11.3,8.8C92.9,303.1,82,303.1,71.2,303.1z"/>
<path class="st14" d="M571.2,285.3c10.8,0,21.6,0,32.4,0c7.2,0,11,3.3,11,9.1c-0.1,5.6-3.6,8.6-10.6,8.7c-21.6,0.1-43.2,0.1-64.9,0
	c-6.6,0-10.7-3.4-10.8-8.6c-0.1-5.5,4.1-9,11.1-9.1C549.9,285.3,560.5,285.3,571.2,285.3z"/>
</svg>
