<?xml version="1.0" encoding="utf-8"?>
<!-- Generator: Adobe Illustrator 26.2.1, SVG Export Plug-In . SVG Version: 6.00 Build 0)  -->
<svg version="1.1" id="Layer_1" xmlns="http://www.w3.org/2000/svg" xmlns:xlink="http://www.w3.org/1999/xlink" x="0px" y="0px"
	 viewBox="0 0 120 50" style="enable-background:new 0 0 120 50;" xml:space="preserve">
<style type="text/css">
	.st0{fill:#FFFFFF;}
</style>
<g>
	<path class="st0" d="M3.65,22.18c-0.04,1.88-0.03,3.77,0,5.66c0.01,0.85-0.14,1.61-1.03,1.91c-0.92,0.31-1.59-0.12-2.07-0.91v-0.47
		c0.2-2.29,0.2-4.57,0-6.86v-0.47c0.55-0.54,1.05-1.2,1.98-0.83C3.43,20.55,3.67,21.26,3.65,22.18z"/>
	<path class="st0" d="M12.45,41.37h-1.19c-0.92-0.71-1.31-2.44-0.79-3.45c0.33-0.64,0.88-0.89,1.56-0.8
		c0.75,0.1,1.22,0.62,1.33,1.31C13.52,39.53,13.5,40.62,12.45,41.37z"/>
	<path class="st0" d="M37.41,18.33c-2.03-0.36-4.11-0.07-6.17-0.12c-0.69-0.02-0.46,0.52-0.46,0.85c-0.02,2.05-0.01,4.1-0.01,6.15
		c0,2.09,0.03,4.18-0.01,6.27c-0.01,0.67,0.17,0.88,0.86,0.86c1.55-0.05,3.09,0.01,4.64-0.02c3.68-0.08,6.59-2.58,6.9-5.88
		C43.55,22.07,41.46,19.04,37.41,18.33z M36.39,29.15C34,29.31,34,29.31,34,26.96c0-0.59,0-1.18,0-1.77c0-1.02,0.04-2.04-0.01-3.07
		c-0.03-0.58,0.07-0.89,0.74-0.83c0.55,0.05,1.11-0.02,1.66,0.02c2.38,0.16,3.7,1.61,3.68,4C40.06,27.66,38.78,28.99,36.39,29.15z"
		/>
	<path class="st0" d="M107.36,20.24c0-2.05,0-2.01-2.04-2.06c-0.86-0.02-1.07,0.24-1.02,1.05c0.07,1.22,0.02,2.45,0.02,3.8
		c-2.45-1.6-4.78-1.35-6.49,0.54c-1.81,1.98-1.82,5.22-0.03,7.36c1.57,1.87,4.05,2.13,6.48,0.62c-0.03,0.59,0.19,0.87,0.79,0.77
		c0.39-0.06,0.8-0.05,1.19,0c0.87,0.11,1.15-0.17,1.13-1.09C107.32,27.57,107.36,23.9,107.36,20.24z M101.93,29.73
		c-1.37,0.02-2.39-1.05-2.38-2.51c0.01-1.43,0.95-2.4,2.33-2.41c1.35-0.01,2.45,1.1,2.43,2.48C104.3,28.6,103.21,29.71,101.93,29.73
		z"/>
	<path class="st0" d="M75.18,24.36c0-2.32-0.19-2.48-2.52-2.15c-0.23,0.03-0.48-0.01-0.5,0.34c-0.04,0.69-0.32,0.29-0.58,0.14
		c-2.68-1.55-5.68-0.47-6.86,2.46c-0.9,2.25-0.23,5.03,1.55,6.42c1.74,1.36,3.74,1.37,5.9-0.12c-0.13,0.75,0.16,0.94,0.75,0.88
		c0.47-0.05,0.95-0.05,1.42,0c0.69,0.07,0.86-0.22,0.85-0.88C75.16,29.08,75.18,26.72,75.18,24.36z M69.72,29.74
		c-1.35-0.02-2.31-1.03-2.32-2.44c-0.01-1.48,0.95-2.5,2.37-2.49c1.31,0.01,2.37,1.08,2.39,2.41
		C72.18,28.57,71.04,29.75,69.72,29.74z"/>
	<path class="st0" d="M55.31,31.19c-0.08-2.47-0.03-4.95-0.03-7.43c0-1.55,0-1.59-1.56-1.53c-0.5,0.02-1.28-0.38-1.46,0.26
		c-0.2,0.7-0.36,0.33-0.65,0.17c-0.3-0.17-0.61-0.35-0.94-0.46c-2.97-1-5.87,1.06-6.24,4.57c-0.22,2.13,0.57,3.98,2.46,5.13
		c1.74,1.05,3.52,0.97,5.27-0.42c0.02,0.53,0.05,0.91,0.64,0.85c0.43-0.05,0.87-0.05,1.3,0C55,32.43,55.34,32.17,55.31,31.19z
		 M49.8,29.73c-1.29-0.02-2.36-1.13-2.37-2.45c-0.01-1.4,1.06-2.49,2.43-2.47c1.35,0.01,2.32,1.01,2.34,2.42
		C52.21,28.65,51.15,29.75,49.8,29.73z"/>
	<path class="st0" d="M94.8,27.26c0-1.26,0.03-2.52-0.02-3.78c-0.01-0.42,0.3-1.15-0.29-1.21c-0.9-0.1-2.05-0.47-2.68,0.22
		c-0.41,0.46-0.48,0.18-0.72,0.09c-0.26-0.1-0.49-0.26-0.74-0.36c-2.88-1.08-5.92,1.05-6.32,4.34c-0.56,4.61,4.11,7.54,7.16,5.32
		c0.11-0.08,0.4-0.15,0.41-0.13c0.58,1.17,1.62,0.33,2.41,0.55c0.62,0.17,0.81-0.18,0.79-0.78C94.77,30.1,94.8,28.68,94.8,27.26z
		 M89.37,29.73c-1.28-0.01-2.38-1.13-2.4-2.44c-0.02-1.35,1.11-2.5,2.45-2.49c1.37,0.02,2.29,0.98,2.31,2.41
		C91.74,28.72,90.78,29.74,89.37,29.73z"/>
	<path class="st0" d="M117.38,22.92c-1.8-1.28-4.3-1.29-6.12-0.08c-1.74,1.15-2.67,3.54-2.13,5.72c0.48,1.94,1.71,3.26,3.67,3.77
		c2.11,0.56,4.07,0.27,5.71-1.29c0.17-0.16,0.48-0.34,0.27-0.69c-0.31-0.52-2.3-1.1-2.85-0.83c-1.4,0.69-2.87,0.31-3.58-1.03
		c2.09,0,4.13-0.02,6.16,0.01c0.57,0.01,0.9-0.1,0.93-0.73C119.53,25.82,119.05,24.1,117.38,22.92z M112.18,26.16
		c0.41-1.07,1.2-1.54,2.19-1.52c0.94,0.01,1.69,0.48,2.08,1.52H112.18z"/>
	<path class="st0" d="M63.39,30.58c-0.05,0.39-0.01,0.79-0.01,1.18c0,0.3-0.08,0.49-0.43,0.59c-2.4,0.73-4.59-0.78-4.72-3.32
		c-0.05-0.9-0.05-1.81,0.01-2.72c0.05-0.81,0-1.42-1.08-1.19c-0.4,0.08-0.58-0.07-0.53-0.52c0.05-0.51,0.05-1.03,0-1.54
		c-0.06-0.65,0.13-0.97,0.84-0.87c0.47,0.06,0.92,0.04,0.76-0.64c-0.26-1.1,0.37-1.45,1.29-1.63c0.54-0.1,1.06-0.29,1.72-0.48
		c0,0.49,0.04,0.85-0.01,1.19c-0.17,1.12,0.07,1.84,1.44,1.57c0.59-0.12,0.76,0.21,0.72,0.75c-0.03,0.31-0.05,0.63,0,0.94
		c0.15,0.96-0.18,1.41-1.2,1.22c-0.69-0.12-1.03,0.1-0.96,0.87c0.07,0.78,0.03,1.58,0.01,2.36c-0.02,0.79,0.39,1.23,1.15,1.15
		C63.26,29.44,63.49,29.79,63.39,30.58z"/>
	<path class="st0" d="M82.06,25.6c-1.16-0.01-1.67,1.06-1.68,2.2c-0.02,1.26-0.04,2.52,0.01,3.78c0.03,0.59-0.16,0.72-0.72,0.74
		c-2.3,0.11-2.3,0.13-2.3-2.14c0-2.29,0.06-4.57-0.03-6.85c-0.04-1,0.32-1.25,1.2-1.12c0.12,0.02,0.24,0.01,0.36,0
		c0.97-0.08,1.9-0.11,1.46,1.45c0.65-0.8,1.31-1.34,2.25-1.55c0.57-0.12,0.82-0.1,0.77,0.55c-0.03,0.39-0.02,0.79,0,1.18
		C83.42,24.78,83.6,25.62,82.06,25.6z"/>
	<path class="st0" d="M18.19,22.09c-0.02,1.09-0.62,1.78-1.52,1.71c-0.95-0.08-1.53-0.65-1.55-1.61c-0.04-2.2-0.04-4.41,0-6.61
		c0.02-0.97,0.64-1.54,1.62-1.5c0.91,0.03,1.44,0.57,1.45,1.52c0.01,1.1,0,2.2,0,3.31C18.19,19.97,18.21,21.03,18.19,22.09z"/>
	<path class="st0" d="M8.44,22.21c0.01,0.97-0.53,1.51-1.41,1.58c-0.9,0.07-1.6-0.49-1.63-1.37c-0.08-2.32-0.08-4.64-0.01-6.96
		c0.03-0.9,0.67-1.44,1.6-1.38c0.98,0.06,1.46,0.64,1.44,1.64c-0.02,1.1,0,2.2,0,3.31C8.44,20.09,8.43,21.15,8.44,22.21z"/>
	<path class="st0" d="M13.34,16.99c-0.04,0.86-0.77,1.43-1.66,1.33c-0.84-0.1-1.42-0.62-1.39-1.6c0.03-1.1,0.01-2.2,0.01-3.3
		c0-1.06,0.01-2.13,0-3.19c-0.02-0.94,0.42-1.49,1.36-1.59c0.93-0.09,1.64,0.41,1.68,1.28C13.43,12.27,13.43,14.64,13.34,16.99z"/>
	<path class="st0" d="M13.36,28.39c-0.03,0.94-0.65,1.51-1.67,1.41c-0.94-0.09-1.39-0.63-1.38-1.57c0.01-1.1,0-2.2,0-3.3
		c0-1.06,0.02-2.13,0-3.19c-0.02-1.02,0.54-1.58,1.47-1.62c0.91-0.05,1.56,0.57,1.59,1.43C13.44,23.82,13.44,26.11,13.36,28.39z"/>
	<path class="st0" d="M23.1,28.28c-0.02,0.94-0.55,1.55-1.58,1.52c-1.02-0.03-1.48-0.61-1.49-1.59c-0.01-1.06,0-2.12,0-3.18
		c0-1.1,0-2.2,0-3.3c-0.01-1,0.53-1.6,1.48-1.61c0.95-0.01,1.56,0.62,1.58,1.57C23.15,23.88,23.15,26.08,23.1,28.28z"/>
	<path class="st0" d="M17.51,29.59c-0.93,0.6-2.16,0.1-2.37-1.02c-0.09-0.49-0.08-1.02-0.02-1.52c0.12-0.94,0.7-1.54,1.65-1.47
		c0.87,0.06,1.42,0.61,1.41,1.56c0,0.2,0,0.39,0,0.69C18.24,28.44,18.22,29.13,17.51,29.59z"/>
	<path class="st0" d="M12.11,35.91c-1.13,0.25-1.81-0.58-1.81-2.2c0-1.39,0.4-1.98,1.38-2.03c1-0.05,1.54,0.5,1.69,1.43
		C13.63,34.56,13.1,35.69,12.11,35.91z"/>
	<path class="st0" d="M8.43,27.76c0,1.52-0.54,2.15-1.72,2.04c-0.74-0.07-1.16-0.51-1.27-1.18c-0.17-0.96-0.32-1.97,0.55-2.72
		c0.53-0.46,1.14-0.46,1.75-0.12C8.56,26.24,8.43,27.03,8.43,27.76z"/>
	<path class="st0" d="M8.43,33.17c0,1.51-0.46,2.14-1.54,2.12c-1.06-0.02-1.56-0.73-1.54-2.19C5.36,31.83,5.96,31.01,6.9,31
		C7.91,30.97,8.44,31.72,8.43,33.17z"/>
	<path class="st0" d="M17.62,34.98c-0.84,0.62-2.06,0.28-2.39-0.73c-0.22-0.68-0.21-1.4-0.03-2.08c0.2-0.77,0.8-1.22,1.57-1.15
		c0.79,0.08,1.39,0.53,1.41,1.45c0.01,0.22,0,0.43,0,0.43C18.2,33.85,18.26,34.51,17.62,34.98z"/>
</g>
</svg>
