<?xml version="1.0" encoding="utf-8"?>
<!-- Generator: Adobe Illustrator 27.7.0, SVG Export Plug-In . SVG Version: 6.00 Build 0)  -->
<svg version="1.1" id="report" xmlns="http://www.w3.org/2000/svg" xmlns:xlink="http://www.w3.org/1999/xlink" x="0px" y="0px"
	 viewBox="0 0 640.6 640.6" style="enable-background:new 0 0 640.6 640.6;" xml:space="preserve">
<style type="text/css">
	.st0{fill:#F2EFF4;}
	.st1{fill:url(#SVGID_1_);}
	.st2{opacity:0.9;fill:#FFFFFF;enable-background:new    ;}
	.st3{fill:url(#SVGID_00000145048078647865905380000002595632102413024655_);}
	.st4{fill:url(#SVGID_00000170986517676894518970000009636281859562813830_);}
</style>
<g>
	<path class="st0" d="M366,503.8c-6.3,23.3-20.2,37.5-43.2,44.1c-0.5-3.5-0.9-6.4-1.2-9.4c-0.7-7.4-5.1-12-11.5-11.9
		c-6.7,0.1-11.2,5.2-11.2,12.9c-0.3,36.2,28.9,70.8,65,76.7c4.4,0.7,8.9,1.3,13.4,1.4c7.3,0.2,12.3-4.3,12.6-10.7
		c0.4-6.6-4.5-11.7-12.2-11.9c-17.6-0.7-32-7.8-43.3-21.2c-1-1.2-1.8-2.7-2.7-4c39.5-20.5,48.9-31.2,57.6-65.9
		c7.4,0,14.9,0.1,22.4,0c26.6-0.3,46.2-19.7,46.5-46.4c0.1-7.1,0-14.1,0-22c3.1,0,5.6,0,8.2,0c40.3,0,80.7,1.3,121-0.4
		c32-1.3,61,21.7,51.2,64.2c-0.7,3.2-1.7,6.3-3,10.9c-1.7-3.4-2.7-5.7-3.9-7.9c-14.5-27-37-41.9-67.7-43.9
		c-8.9-0.6-14.3,3.7-14.6,10.9c-0.3,7,4.8,11.4,13.8,11.9c29.3,1.6,52.5,24.4,54.5,53.1c0.3,4.6-0.8,8-4.2,11.3
		c-11,10.5-23.5,18.2-38,22.9c-2.8,0.9-6,3.8-6.9,6.5c-19.9,61.8-89.1,84.9-142,47.3c-0.6-0.4-1.2-0.8-0.8-0.5
		c-11.8,5.1-22.7,11.1-34.2,14.6c-22.2,6.7-44,4.3-65.1-5.6c-2.4-1.1-6.1-1.6-8.4-0.6c-34.2,15.6-66.7,12.9-97.6-8.6
		c-0.4-0.3-0.9-0.3-1.8-0.7c-16.9,12.9-36.2,19.8-57.8,19.6C122,640,87,614.1,75.4,577c-1.6-5-3.6-7.6-8.9-9.2
		c-38.1-11.6-64.4-47.8-63.9-87.3c0.3-24.1,19.6-44.5,43.6-44.8c45.3-0.5,90.6-0.1,135.9-0.1c0.7,0,1.3,0.3,2.7,0.6
		c0,6.3,0,12.6,0,19c0.1,29.5,19.1,48.6,48.4,48.7c41.3,0,82.6,0,123.8,0C359.7,503.8,362.3,503.8,366,503.8z M170.2,617.6
		c8.9,0.2,14.3-3.8,14.6-10.9c0.3-7-4.8-11.4-13.7-11.9c-29.9-1.7-52.8-24.6-54.5-54.5c-0.5-9-4.8-14-11.9-13.8
		c-7.1,0.3-11.1,5.7-10.9,14.6C94.9,581.8,129.6,616.5,170.2,617.6z M472.4,617.6c40.8-0.8,75.9-35.8,76.8-76.7
		c0.2-8.8-4-14.2-11.2-14.3c-6.9-0.1-11.1,4.8-11.6,13.3c-1.7,30.5-24.4,53.2-54.8,54.9c-8.8,0.5-13.9,5.1-13.5,12.1
		C458.7,613.8,464,617.8,472.4,617.6z"/>
	<g>
		<path class="st0" d="M344.3,184.9c0,16.9,0.5,32.8-0.1,48.7c-1.5,37,4.5,44.1,42.9,42.5c15.8-0.6,31.7-0.1,48-0.1
			c0.1,2.8,0.3,5.1,0.3,7.4c0,56.9,0,113.8,0,170.7c0,18.4-8.6,26.8-27.1,26.8c-57.9,0-115.7,0-173.6,0c-18.5,0-27.1-8.5-27.1-26.8
			c0-80.9,0-161.7,0-242.6c0-18.1,8.6-26.7,26.4-26.7c34.1,0,68.3,0,102.4,0C338.9,184.9,341.2,184.9,344.3,184.9z M321.6,321.6
			c18,0,36.1,0,54.1,0c9,0,14.2-4.3,14.2-11.4c0-7.1-5.2-11.4-14.2-11.4c-36.1,0-72.1,0-108.2,0c-9,0-14.2,4.3-14.2,11.4
			c0,7.1,5.2,11.4,14.2,11.4C285.5,321.6,303.5,321.6,321.6,321.6z M322.3,344.4c-18.3,0-36.5,0-54.8,0c-9,0-14.2,4.2-14.2,11.4
			c0,7.1,5.2,11.4,14.2,11.4c36.1,0,72.1,0,108.2,0c9,0,14.2-4.3,14.2-11.4s-5.2-11.4-14.2-11.4
			C357.9,344.3,340.1,344.4,322.3,344.4z M321.6,412.7c18,0,36.1,0,54.1,0c9,0,14.2-4.3,14.1-11.4c0-7.1-5.2-11.3-14.2-11.3
			c-36.1,0-72.1,0-108.2,0c-9,0-14.2,4.3-14.1,11.4c0,7.1,5.2,11.3,14.2,11.3C285.5,412.7,303.6,412.7,321.6,412.7z"/>
		<path class="st0" d="M432.9,252.9c-21.1,0-43,0-65.3,0c0-22.1,0-44.2,0-65.4C389.2,209.1,411.2,231.1,432.9,252.9z"/>
	</g>
	<g>
		
			<linearGradient id="SVGID_1_" gradientUnits="userSpaceOnUse" x1="2.6618" y1="102.89" x2="640.5045" y2="102.89" gradientTransform="matrix(1 0 0 -1 0 640.62)">
			<stop  offset="0" style="stop-color:#FFFFFF;stop-opacity:0.4"/>
			<stop  offset="6.910000e-02" style="stop-color:#FFFFFF;stop-opacity:0.3435"/>
			<stop  offset="0.4892" style="stop-color:#FFFFFF;stop-opacity:0"/>
			<stop  offset="0.7527" style="stop-color:#FAFAFA;stop-opacity:0.1032"/>
			<stop  offset="1" style="stop-color:#EFEFEF;stop-opacity:0.2"/>
		</linearGradient>
		<path class="st1" d="M366,503.8c-6.3,23.3-20.2,37.5-43.2,44.1c-0.5-3.5-0.9-6.4-1.2-9.4c-0.7-7.4-5.1-12-11.5-11.9
			c-6.7,0.1-11.2,5.2-11.2,12.9c-0.3,36.2,28.9,70.8,65,76.7c4.4,0.7,8.9,1.3,13.4,1.4c7.3,0.2,12.3-4.3,12.6-10.7
			c0.4-6.6-4.5-11.7-12.2-11.9c-17.6-0.7-32-7.8-43.3-21.2c-1-1.2-1.8-2.7-2.7-4c39.5-20.5,48.9-31.2,57.6-65.9
			c7.4,0,14.9,0.1,22.4,0c26.6-0.3,46.2-19.7,46.5-46.4c0.1-7.1,0-14.1,0-22c3.1,0,5.6,0,8.2,0c40.3,0,80.7,1.3,121-0.4
			c32-1.3,61,21.7,51.2,64.2c-0.7,3.2-1.7,6.3-3,10.9c-1.7-3.4-2.7-5.7-3.9-7.9c-14.5-27-37-41.9-67.7-43.9
			c-8.9-0.6-14.3,3.7-14.6,10.9c-0.3,7,4.8,11.4,13.8,11.9c29.3,1.6,52.5,24.4,54.5,53.1c0.3,4.6-0.8,8-4.2,11.3
			c-11,10.5-23.5,18.2-38,22.9c-2.8,0.9-6,3.8-6.9,6.5c-19.9,61.8-89.1,84.9-142,47.3c-0.6-0.4-1.2-0.8-0.8-0.5
			c-11.8,5.1-22.7,11.1-34.2,14.6c-22.2,6.7-44,4.3-65.1-5.6c-2.4-1.1-6.1-1.6-8.4-0.6c-34.2,15.6-66.7,12.9-97.6-8.6
			c-0.4-0.3-0.9-0.3-1.8-0.7c-16.9,12.9-36.2,19.8-57.8,19.6C122,640,87,614.1,75.4,577c-1.6-5-3.6-7.6-8.9-9.2
			c-38.1-11.6-64.4-47.8-63.9-87.3c0.3-24.1,19.6-44.5,43.6-44.8c45.3-0.5,90.6-0.1,135.9-0.1c0.7,0,1.3,0.3,2.7,0.6
			c0,6.3,0,12.6,0,19c0.1,29.5,19.1,48.6,48.4,48.7c41.3,0,82.6,0,123.8,0C359.7,503.8,362.3,503.8,366,503.8z M170.2,617.6
			c8.9,0.2,14.3-3.8,14.6-10.9c0.3-7-4.8-11.4-13.7-11.9c-29.9-1.7-52.8-24.6-54.5-54.5c-0.5-9-4.8-14-11.9-13.8
			c-7.1,0.3-11.1,5.7-10.9,14.6C94.9,581.8,129.6,616.5,170.2,617.6z M472.4,617.6c40.8-0.8,75.9-35.8,76.8-76.7
			c0.2-8.8-4-14.2-11.2-14.3c-6.9-0.1-11.1,4.8-11.6,13.3c-1.7,30.5-24.4,53.2-54.8,54.9c-8.8,0.5-13.9,5.1-13.5,12.1
			C458.7,613.8,464,617.8,472.4,617.6z"/>
		<path class="st0" d="M184.6,412.7c-30.1,0-59.6,0-88.9,0c-14.9,0-29.9,0-44.8,0c-31.2-0.1-52-23.6-47.7-54.6
			c5.4-39.5,27.1-65.6,65-78.5c2.6-0.9,4.9-3.7,6.4-6.2c2.1-3.7,3.2-7.9,4.8-11.8c0.5-1.3,1.4-2.4,2.3-4c19.4,9.2,31,24,33.9,45.1
			c0.3,2-2.1,5.4-4.2,6.6c-22.4,13.7-36,33.2-39.7,59.3c-0.5,3.3-0.7,6.6-0.6,9.9c0.3,6.4,4.8,10.9,10.7,11.2
			c6.1,0.3,11-4.1,11.9-10.8c1-6.5,1.4-13.3,3.4-19.5c7.3-21.9,27.6-36.8,51-37.9c5.6-0.3,10.3-1.5,12.8-7c3.3-7.3-1.6-15.3-10-15.7
			c-4-0.2-8,0.4-12.6,0.7c-4.7-27.3-19.2-47.8-43.8-60.9c16.9-24.6,60.5-37.8,90-27.3C184.6,278.2,184.6,345,184.6,412.7z"/>
		<path class="st0" d="M635.3,339.5c14,36-1.6,62.5-25.9,70.5c-4.4,1.5-9.2,2.5-13.9,2.5c-44.6,0.2-89.2,0.1-133.8,0.1
			c-0.9,0-1.8-0.2-3.1-0.3c0-44.9,0-89.6,0-134.3c19.3,1.6,39,20.6,43.6,42.2c0.8,3.7,1.2,7.5,1.5,11.3c0.6,8.2,5.3,13.2,12.1,12.8
			c6.6-0.4,10.7-5.5,10.7-13.4c-0.1-34.4-25.6-66.2-60.1-74.8c-2.5-0.6-5-1.2-7.8-1.9c0-14.2,0-28.4,0-43.1
			c19.1-5.8,37.9-4.3,56.1,3.1c26.8,10.9,44.8,30.4,53.4,58.1c1.3,4.4,3.4,6.5,7.8,7.8c14.7,4.1,27.3,12,37.8,23
			c2.3,2.4,4,6.5,3.8,9.8c-0.9,28.4-24,52-52.5,54.1c-1.2,0.1-2.4,0.1-3.5,0.1c-7.4,0.6-12,5-12,11.5c0,6.7,5.1,11.5,12.8,11.2
			c31.3-1.4,54.2-16.3,69.3-43.6c1.1-2.1,2.1-4.2,3.2-6.3C634.8,339.7,635.1,339.6,635.3,339.5z"/>
		<path class="st2" d="M139.6,162.1c-12.8,0-24.6,0-36.4,0c-17.8,0-35.6,0.1-53.4,0c-15-0.1-24.3-9.5-24.4-24.5
			c-0.1-14.5-0.2-28.9,0.1-43.4c0.1-4.7-1.4-7.6-5.2-10.5C3,70.3-2.2,47.5,7.3,28.2c9.5-19.4,31.4-29.4,52.6-24
			c20.5,5.2,34.9,24.6,33.8,46.1c-0.7,14.3-7.3,25.6-18.5,34.6c-2.1,1.7-3.8,5.2-4,7.9c-0.5,7.5-0.2,15.1-0.2,23.7
			c2.8,0,5.3,0,7.8,0c26.8,0,53.6,0,80.4,0c16.4,0,25.6,9.1,25.6,25.4c0.1,14,0,27.9,0,42.4c-15.1,0-29.9,0-45.2,0
			C139.6,177.3,139.6,170.3,139.6,162.1z"/>
		<path class="st2" d="M572.1,116.6c0-9.3,0.3-17.9-0.2-26.3c-0.1-2.2-2.8-4.6-4.8-6.2c-15.8-12.7-21.7-32.3-15.1-51
			c6.5-18.3,23.6-30.4,43-30.4c19.1,0,36.2,12,42.6,29.9c6.6,18.3,1.3,38.5-14.1,50.5c-4.4,3.4-6.1,6.8-5.9,12.3
			c0.4,14,0.2,28,0.1,42c-0.1,15.5-9.3,24.7-24.9,24.7c-26.8,0.1-53.6,0-80.4,0c-2.6,0-5.1,0-8.5,0c0,7.7,0,14.9,0,22.4
			c-15.4,0-30,0-45.6,0c0-6.5,0-13.1,0-19.6c0-7.8,0-15.6,0-23.5c0.1-15.6,9.2-24.9,24.7-24.9c26.8-0.1,53.6,0,80.4,0
			C565.9,116.6,568.5,116.6,572.1,116.6z"/>
		<path class="st2" d="M253.4,161.7c0-30,0-59.8,0-90.6c-9.4,0-18.3-0.3-27.2,0.2c-1.9,0.1-4,2.8-5.5,4.7
			c-12.6,15.8-32.2,21.7-51,15.1c-18.5-6.5-30.7-24-30.4-43.7c0.3-19,12.5-35.8,30.6-42.1c18.5-6.4,38.2-0.9,50.3,14.9
			c3.1,4,6.1,5.5,11.1,5.4c14.7-0.4,29.4-0.2,44.1-0.1c13.4,0.1,23.2,9.6,23.2,22.8c0.2,37,0.1,74,0,111c0,0.7-0.2,1.4-0.4,2.4
			C283.5,161.7,268.7,161.7,253.4,161.7z"/>
		<path class="st2" d="M389.7,71c0,30.8,0,60.6,0,90.8c-15.1,0-29.8,0-45.1,0c-0.1-2.2-0.3-4.5-0.3-6.8c0-34.6,0-69.3,0-103.9
			c0-16.6,9-25.6,25.4-25.6c14,0,28-0.2,42,0.1c5,0.1,8-1.3,11.1-5.4c13.3-17.3,36.3-22.4,55.6-12.8c19.4,9.6,29.3,31.5,23.8,52.7
			c-5.3,20.5-24.8,34.8-46.3,33.6c-14.3-0.8-25.6-7.5-34.5-18.7c-1.6-2-4.8-3.6-7.3-3.8C406.3,70.7,398.5,71,389.7,71z"/>
		<g>
			
				<linearGradient id="SVGID_00000065754101129941572250000005813920587879895447_" gradientUnits="userSpaceOnUse" x1="208.668" y1="161.6643" x2="394.6097" y2="402.1303" gradientTransform="matrix(1 0 0 -1 0 640.62)">
				<stop  offset="0" style="stop-color:#FFFFFF;stop-opacity:0.4"/>
				<stop  offset="6.910000e-02" style="stop-color:#FFFFFF;stop-opacity:0.3435"/>
				<stop  offset="0.4892" style="stop-color:#FFFFFF;stop-opacity:0"/>
				<stop  offset="0.7527" style="stop-color:#FAFAFA;stop-opacity:0.1032"/>
				<stop  offset="1" style="stop-color:#EFEFEF;stop-opacity:0.2"/>
			</linearGradient>
			<path style="fill:url(#SVGID_00000065754101129941572250000005813920587879895447_);" d="M344.3,184.9c0,16.9,0.5,32.8-0.1,48.7
				c-1.5,37,4.5,44.1,42.9,42.5c15.8-0.6,31.7-0.1,48-0.1c0.1,2.8,0.3,5.1,0.3,7.4c0,56.9,0,113.8,0,170.7
				c0,18.4-8.6,26.8-27.1,26.8c-57.9,0-115.7,0-173.6,0c-18.5,0-27.1-8.5-27.1-26.8c0-80.9,0-161.7,0-242.6
				c0-18.1,8.6-26.7,26.4-26.7c34.1,0,68.3,0,102.4,0C338.9,184.9,341.2,184.9,344.3,184.9z M321.6,321.6c18,0,36.1,0,54.1,0
				c9,0,14.2-4.3,14.2-11.4c0-7.1-5.2-11.4-14.2-11.4c-36.1,0-72.1,0-108.2,0c-9,0-14.2,4.3-14.2,11.4c0,7.1,5.2,11.4,14.2,11.4
				C285.5,321.6,303.5,321.6,321.6,321.6z M322.3,344.4c-18.3,0-36.5,0-54.8,0c-9,0-14.2,4.2-14.2,11.4c0,7.1,5.2,11.4,14.2,11.4
				c36.1,0,72.1,0,108.2,0c9,0,14.2-4.3,14.2-11.4s-5.2-11.4-14.2-11.4C357.9,344.3,340.1,344.4,322.3,344.4z M321.6,412.7
				c18,0,36.1,0,54.1,0c9,0,14.2-4.3,14.1-11.4c0-7.1-5.2-11.3-14.2-11.3c-36.1,0-72.1,0-108.2,0c-9,0-14.2,4.3-14.1,11.4
				c0,7.1,5.2,11.3,14.2,11.3C285.5,412.7,303.6,412.7,321.6,412.7z"/>
			
				<linearGradient id="SVGID_00000012470084073387829150000003663086071995699122_" gradientUnits="userSpaceOnUse" x1="203.3403" y1="165.784" x2="389.282" y2="406.25" gradientTransform="matrix(1 0 0 -1 0 640.62)">
				<stop  offset="0" style="stop-color:#FFFFFF;stop-opacity:0.4"/>
				<stop  offset="6.910000e-02" style="stop-color:#FFFFFF;stop-opacity:0.3435"/>
				<stop  offset="0.4892" style="stop-color:#FFFFFF;stop-opacity:0"/>
				<stop  offset="0.7527" style="stop-color:#FAFAFA;stop-opacity:0.1032"/>
				<stop  offset="1" style="stop-color:#EFEFEF;stop-opacity:0.2"/>
			</linearGradient>
			<path style="fill:url(#SVGID_00000012470084073387829150000003663086071995699122_);" d="M432.9,252.9c-21.1,0-43,0-65.3,0
				c0-22.1,0-44.2,0-65.4C389.2,209.1,411.2,231.1,432.9,252.9z"/>
		</g>
	</g>
</g>
</svg>
