<svg width="625" height="322" viewBox="0 0 625 322" fill="none" xmlns="http://www.w3.org/2000/svg">
<mask id="mask0_70_268" style="mask-type:alpha" maskUnits="userSpaceOnUse" x="0" y="0" width="625" height="322">
<path d="M0 0H625V322H0V0Z" fill="url(#paint0_linear_70_268)"/>
</mask>
<g mask="url(#mask0_70_268)">
<rect width="633" height="322" fill="#F8F1FE"/>
<g opacity="0.63" filter="url(#filter0_f_70_268)">
<path d="M360 145.974C362.508 140.593 366.668 138.721 372.615 138.792C393.789 139.049 414.968 138.934 436.142 138.837C438.624 138.824 439.961 139.525 441.041 141.827C444.758 149.755 448.731 157.561 452.596 165.418C456.788 173.937 463.584 178.11 473.119 178.104C514.084 178.059 555.048 178.085 596.012 178.085C599.116 178.085 600.67 179.596 600.674 182.618C600.674 225.08 600.674 267.536 600.674 309.998C600.674 318.119 597.067 321.752 588.972 321.752C516.99 321.752 445.008 321.707 373.033 321.842C367.073 321.855 362.675 320.196 360.006 314.744V145.974H360ZM542.375 287.353C542.375 287.353 542.311 287.353 542.278 287.353C542.278 286.285 542.311 285.212 542.278 284.144C542.098 278.685 537.983 274.487 532.762 274.416C527.49 274.345 523.156 278.692 523.015 284.254C522.957 286.388 522.938 288.536 523.028 290.67C523.233 295.531 526.898 299.473 531.592 299.981C536.453 300.502 541.031 297.293 542.047 292.464C542.394 290.812 542.278 289.063 542.375 287.359V287.353ZM573.913 287.282H573.952C573.952 286.105 574.029 284.922 573.939 283.758C573.534 278.37 569.509 274.455 564.384 274.416C559.485 274.377 555.241 278.171 554.765 283.36C554.514 286.112 554.514 288.941 554.862 291.674C555.492 296.702 559.697 300.135 564.622 300.013C569.521 299.891 573.424 296.194 573.907 291.133C574.029 289.86 573.926 288.574 573.926 287.288L573.913 287.282Z" fill="#1222AA"/>
<path d="M619.97 277.534V273.631C619.97 243.045 619.97 212.465 619.97 181.878C619.97 167.218 611.547 158.795 596.906 158.789C556.167 158.789 515.421 158.75 474.682 158.859C471.75 158.866 470.323 157.908 469.12 155.33C465.455 147.498 461.514 139.795 457.694 132.034C453.611 123.746 446.982 119.567 437.717 119.58C427.77 119.593 417.83 119.58 407.883 119.58C406.719 119.58 405.555 119.58 404.288 119.58C404.288 113.613 403.883 107.839 404.43 102.162C404.79 98.4129 407.786 96.0661 411.561 95.2431C413.007 94.928 414.531 94.9216 416.023 94.9216C437.196 94.9023 458.37 94.9601 479.543 94.8444C482.372 94.8315 483.967 95.5774 485.201 98.2586C488.68 105.82 492.602 113.182 496.138 120.724C500.478 129.964 507.667 134.246 517.813 134.227C558.449 134.156 599.086 134.195 639.722 134.201C643.001 134.201 644.643 135.843 644.647 139.126C644.647 181.364 644.679 223.608 644.57 265.845C644.57 268.404 644.056 271.323 642.731 273.406C641.555 275.258 639.015 277.129 636.912 277.335C631.44 277.882 625.872 277.521 619.97 277.521V277.534Z" fill="#1222AA"/>
<path d="M664.001 233.87C664.001 232.018 664.001 230.635 664.001 229.247C664.001 198.557 664.027 167.874 663.988 137.185C663.975 126.216 657.854 117.857 648.042 115.536C645.477 114.925 642.744 114.841 640.089 114.841C599.671 114.803 559.253 114.783 518.835 114.873C515.884 114.88 514.264 114.076 512.984 111.279C509.525 103.711 505.577 96.3619 502.021 88.8327C497.714 79.6895 490.538 75.4651 480.552 75.5358C470.927 75.6066 461.308 75.5487 451.683 75.5487C450.538 75.5487 449.387 75.5487 448.005 75.5487C448.005 69.8133 447.703 64.3673 448.101 58.9791C448.423 54.549 452.634 51.064 457.232 51.0511C479.897 50.974 502.568 50.974 525.233 51.1219C526.39 51.1283 528.024 52.5107 528.622 53.6681C532.64 61.4417 536.505 69.3053 540.298 77.1947C544.535 86.0035 551.422 90.2536 561.234 90.2343C599.729 90.1636 638.218 90.2022 676.713 90.2086C685.033 90.2086 688.569 93.7643 688.569 102.123C688.569 142.11 688.569 182.103 688.569 222.09C688.569 230.218 684.956 233.863 676.893 233.876C672.746 233.882 668.592 233.876 664.007 233.876L664.001 233.87Z" fill="#1222AA"/>
</g>
<rect opacity="0.68" y="-19" width="635" height="353" fill="#F8F1FE"/>
</g>
<defs>
<filter id="filter0_f_70_268" x="352" y="43" width="344.569" height="286.842" filterUnits="userSpaceOnUse" color-interpolation-filters="sRGB">
<feFlood flood-opacity="0" result="BackgroundImageFix"/>
<feBlend mode="normal" in="SourceGraphic" in2="BackgroundImageFix" result="shape"/>
<feGaussianBlur stdDeviation="4" result="effect1_foregroundBlur_70_268"/>
</filter>
<linearGradient id="paint0_linear_70_268" x1="-196" y1="-293.5" x2="733" y2="462" gradientUnits="userSpaceOnUse">
<stop stop-color="#200554"/>
<stop offset="1" stop-color="#45108A"/>
</linearGradient>
</defs>
</svg>
