<?xml version="1.0" encoding="utf-8"?>
<!-- Generator: Adobe Illustrator 26.2.1, SVG Export Plug-In . SVG Version: 6.00 Build 0)  -->
<svg version="1.1" id="report" xmlns="http://www.w3.org/2000/svg" xmlns:xlink="http://www.w3.org/1999/xlink" x="0px" y="0px"
	 viewBox="0 0 640.62 640.62" style="enable-background:new 0 0 640.62 640.62;" xml:space="preserve">
<style type="text/css">
	.st0{display:none;fill:url(#SVGID_1_);}
	.st1{display:none;fill:url(#SVGID_00000007407858966470864630000016357321195245249711_);}
	.st2{display:none;fill:url(#SVGID_00000046319447820146372390000011913656878294959499_);}
	.st3{fill:#01147C;}
	.st4{fill-rule:evenodd;clip-rule:evenodd;fill:#01147C;}
	.st5{fill:none;}
	.st6{fill:url(#path4_00000129179847400620527670000011444671990916944538_);}
	.st7{fill-rule:evenodd;clip-rule:evenodd;fill:url(#path5_00000142152096096479884240000010533506618361190323_);}
</style>
<linearGradient id="SVGID_1_" gradientUnits="userSpaceOnUse" x1="290.9483" y1="320.3009" x2="360.9372" y2="320.3009">
	<stop  offset="0" style="stop-color:#FFFFFF;stop-opacity:0.4"/>
	<stop  offset="0.0691" style="stop-color:#FFFFFF;stop-opacity:0.3435"/>
	<stop  offset="0.4892" style="stop-color:#FFFFFF;stop-opacity:0"/>
	<stop  offset="0.7527" style="stop-color:#FAFAFA;stop-opacity:0.1032"/>
	<stop  offset="1" style="stop-color:#EFEFEF;stop-opacity:0.2"/>
</linearGradient>
<path class="st0" d="M360.94,408.89c-23.09-16.59-45.06-32.27-66.81-48.25c-1.83-1.34-2.98-4.76-3.01-7.23
	c-0.23-22.1-0.21-44.2-0.02-66.3c0.02-2.29,0.86-5.51,2.5-6.71c21.96-16.13,44.13-31.97,67.35-48.68
	C360.94,291.13,360.94,349.28,360.94,408.89z"/>
<linearGradient id="SVGID_00000012469093345098168750000002965929970639988367_" gradientUnits="userSpaceOnUse" x1="234.72" y1="320.2812" x2="275.4071" y2="320.2812">
	<stop  offset="0" style="stop-color:#FFFFFF;stop-opacity:0.4"/>
	<stop  offset="0.0691" style="stop-color:#FFFFFF;stop-opacity:0.3435"/>
	<stop  offset="0.4892" style="stop-color:#FFFFFF;stop-opacity:0"/>
	<stop  offset="0.7527" style="stop-color:#FAFAFA;stop-opacity:0.1032"/>
	<stop  offset="1" style="stop-color:#EFEFEF;stop-opacity:0.2"/>
</linearGradient>
<path style="display:none;fill:url(#SVGID_00000012469093345098168750000002965929970639988367_);" d="M275.41,285.55
	c0,23.61,0,46.09,0,69.35c-11.46,0-22.58,0.48-33.59-0.36c-2.51-0.19-6.61-4.84-6.7-7.55c-0.6-17.88-0.4-35.78-0.22-53.68
	c0.05-4.85,2.99-7.68,7.96-7.73C253.46,285.48,264.05,285.55,275.41,285.55z"/>
<linearGradient id="SVGID_00000008117415737202021800000014792714343868869513_" gradientUnits="userSpaceOnUse" x1="377.0954" y1="320.1778" x2="405.9691" y2="320.1778">
	<stop  offset="0" style="stop-color:#FFFFFF;stop-opacity:0.4"/>
	<stop  offset="0.0691" style="stop-color:#FFFFFF;stop-opacity:0.3435"/>
	<stop  offset="0.4892" style="stop-color:#FFFFFF;stop-opacity:0"/>
	<stop  offset="0.7527" style="stop-color:#FAFAFA;stop-opacity:0.1032"/>
	<stop  offset="1" style="stop-color:#EFEFEF;stop-opacity:0.2"/>
</linearGradient>
<path style="display:none;fill:url(#SVGID_00000008117415737202021800000014792714343868869513_);" d="M377.1,355.13
	c0-23.33,0-46.62,0.01-69.9c15.57,1.63,28.5,17.01,28.86,34.31C406.32,336.88,393.67,352.67,377.1,355.13z"/>
<g id="Group">
	<g id="group-1">
		<path id="Path" class="st3" d="M452.76,277.84c-8.87,2.03-32.2,3.2-32.2,3.2l-2.96,9.24c0,0,11.64-0.99,20.13-0.12
			c0,0,2.77-0.31,3.08,3.14c0.12,3.2-0.25,6.65-0.25,6.65s-0.18,2.09-3.14,2.59c-3.2,0.55-25.12,1.35-25.12,1.35l-3.57,12.01
			c0,0-1.29,2.77,1.66,1.97c2.77-0.74,25.74-5.05,28.75-4.43c3.2,0.8,6.77,5.05,5.73,8.99c-1.23,4.8-24.14,19.46-38.11,18.41
			c0,0-7.33,0.49-13.55-9.42c-5.79-9.42,2.22-27.34,2.22-27.34s-3.63-8.37-0.99-11.14c0,0,1.6-1.42,6.16-1.79l5.6-11.64
			c0,0-6.4,0.43-10.22-4.25c-3.57-4.49-3.82-6.53-1.11-7.76c2.89-1.42,29.55-6.28,47.9-5.66c0,0,6.4-0.62,11.88,10.47
			C454.61,272.3,457.32,276.79,452.76,277.84z M383.74,322.54c-2.34,5.54-8.56,11.45-16.26,7.76c-7.63-3.69-19.76-28.51-19.76-28.51
			s-4.62-9.24-5.48-9.05c0,0-0.99-1.79-1.6,8.31c-0.62,10.1,0.12,29.74-3.88,32.82c-3.82,3.08-8.44,1.85-10.84-1.79
			c-2.16-3.57-3.08-12.07-1.91-26.97c1.42-14.9,4.86-30.79,9.3-35.77c4.43-4.93,8-1.35,9.36-0.06c0,0,5.91,5.36,15.7,21.12
			l1.72,2.89c0,0,8.87,14.9,9.79,14.84c0,0,0.74,0.68,1.35,0.18c0.92-0.25,0.55-5.05,0.55-5.05s-1.85-16.19-9.91-43.65
			c0,0-1.23-3.45-0.37-6.65c0.8-3.26,4.06-1.72,4.06-1.72s12.56,6.28,18.59,26.72C390.14,298.59,386.08,317,383.74,322.54z
			 M322.05,270.02c-1.05,2.09-1.66,5.11-6.96,5.91c0,0-50.67,3.45-53.08,7.02c0,0-1.79,2.09,0.99,2.71
			c2.77,0.55,14.22,2.09,19.76,2.4c5.91,0.06,25.86,0.25,33,9.17c0,0,4.25,4.25,4.06,13.85c-0.18,9.85-1.91,13.3-5.73,16.87
			c-4,3.32-38.36,18.72-60.53-4.93c0,0-10.22-11.39,3.51-20.01c0,0,9.91-5.97,35.1,1.05c0,0,7.63,2.77,7.27,5.54
			c-0.43,2.96-6.28,6.1-14.78,5.91c-8.25-0.25-14.28-4.19-13.11-3.57c1.11,0.43-8.87-4.8-11.95-1.23c-3.08,3.26-2.34,5.3,0.68,7.33
			c7.7,4.37,37.44,2.83,46.3-7.02c0,0,3.51-4-1.85-7.27c-5.36-3.08-20.69-4.93-26.66-5.23c-5.73-0.31-27.03,0.06-30.11-5.6
			c0,0-3.08-3.82,0.31-14.65c3.57-11.33,28.38-15.7,39.1-16.69c0,0,29.49-1.05,34.91,4.99
			C322.23,266.57,322.97,267.99,322.05,270.02z M238.31,336.45c-3.57,2.65-11.14,1.48-13.3-1.48c-2.16-2.65-2.89-13.18-2.46-29.68
			c0.43-16.69,0.8-37.37,4.37-40.64c3.82-3.32,6.16-0.43,7.63,1.85c1.6,2.22,3.51,4.68,3.94,9.91c0.37,5.23,1.6,32.69,1.6,32.69
			S241.69,333.87,238.31,336.45z M246,247.91c-10.41,3.45-17.55,2.28-23.58-0.31c-2.65,4.62-4.19,6.03-6.22,6.34
			c-2.96,0.31-5.6-4.43-6.1-5.97c-0.49-1.17-1.91-3.14-0.18-7.82c-5.91-5.3-6.34-12.44-5.36-17.24c1.48-5.54,11.45-26.6,41.81-29.06
			c0,0,14.84-1.11,17.36,6.83h0.43c0,0,14.41,0.06,14.1,12.87C278.08,226.42,262.26,242.43,246,247.91z M217.68,219.41
			c-3.08,4.93-3.2,7.88-1.79,9.91c3.51-5.36,9.91-13.79,19.33-20.2C227.96,209.74,221.87,212.88,217.68,219.41z M259.61,211.15
			c-9.54,1.42-24.32,14.22-31.34,24.69c10.78,1.97,29.8,1.23,38.24-15.95C266.45,219.9,270.51,209.25,259.61,211.15z M518.71,310.35
			c-5.73,9.97-21.8,30.79-43.22,25.92c-7.08,17.18-12.99,34.48-16.38,60.46c0,0-0.74,5.05-4.93,3.26
			c-4.13-1.48-11.02-8.37-12.38-17.92c-1.48-12.56,4.13-33.8,15.52-58.12c-3.32-5.42-5.6-13.18-3.63-24.2c0,0,2.89-20.44,23.4-38.91
			c0,0,2.46-2.16,3.88-1.48c1.6,0.68,0.86,7.33-0.43,10.53c-1.29,3.2-10.47,19.09-10.47,19.09s-5.73,10.71-4.13,19.15
			c10.78-16.56,35.28-50,50.49-39.47c5.11,3.63,7.45,11.58,7.45,20.13C523.82,296.37,522.03,304.38,518.71,310.35z M514.27,284.12
			c0,0-0.86-6.59-7.27,0.68c-5.54,6.1-15.52,17.61-23.58,33.19c8.44-0.92,16.56-5.54,19.03-7.88
			C506.45,306.53,515.75,296.93,514.27,284.12z M215.34,292.49c-1.17,14.9-6.9,39.96-47.47,52.34c-26.78,8.07-52.09,4.19-65.88,0.68
			c-0.31,5.48-0.92,7.82-1.79,8.74c-1.17,1.17-9.91,6.22-14.72-0.92c-2.16-3.39-3.26-9.54-3.88-15.02
			c-31.03-14.28-45.32-34.85-45.87-35.77c-0.68-0.68-7.76-8.07-0.68-17.12c6.65-8.19,28.38-16.38,47.96-19.7
			c0.68-16.75,2.65-29.37,4.99-35.16c2.83-6.71,6.4-0.68,9.48,3.88c2.59,3.39,4.13,17.98,4.25,29.62
			c12.81-0.62,20.38,0.31,34.67,2.89c18.59,3.39,31.03,12.87,29.92,23.64c-0.8,10.59-10.53,14.96-14.22,15.27
			c-3.88,0.31-9.91-2.46-9.91-2.46c-4.13-1.97-0.31-3.69,4.68-5.85c5.42-2.65,4.19-5.36,4.19-5.36
			c-2.03-5.91-26.17-10.04-50.18-10.04c-0.12,13.24,0.55,35.22,0.86,48.03c16.81,3.2,29.37,2.59,29.37,2.59s61.33-1.72,63.17-40.88
			c1.91-39.22-61.14-76.84-107.75-88.79c-46.55-12.19-72.9-3.69-75.18-2.52c-2.46,1.23-0.18,1.6-0.18,1.6s2.52,0.37,6.9,1.85
			c4.62,1.48,1.05,3.88,1.05,3.88c-7.94,2.52-16.87,0.92-18.59-2.71c-1.72-3.63,1.17-6.9,4.49-11.58c3.32-4.93,6.96-4.74,6.96-4.74
			C69.54,168.92,139.67,205,139.67,205C205.37,238.31,216.57,277.35,215.34,292.49z M41.58,290.46c-6.53,3.2-2.03,7.82-2.03,7.82
			c12.25,13.18,27.34,21.43,41.68,26.54c1.66-22.72,1.42-30.72,1.6-42.18C60.42,284.18,47.49,287.75,41.58,290.46z"/>
		<path id="path1" class="st4" d="M363.37,492.6c-4.03-0.01-7.79-0.31-8.37-0.68c-0.75-0.47-0.98-2.49-0.81-7.05
			c0.24-6.39,0.24-6.39,7.28-6.79c5.16-0.3,7.41-0.77,8.41-1.78c1.29-1.3,0.61-3.57-11.74-38.89
			c-7.21-20.63-13.31-38.27-13.55-39.19c-0.43-1.63-0.17-1.67,10.17-1.67c10.27,0,10.63,0.06,11.28,1.82c0.37,1,2.2,7.63,4.07,14.73
			c1.87,7.1,4.88,18.47,6.7,25.26c1.82,6.79,3.61,12.05,3.97,11.68c0.37-0.37,3.24-12.26,6.38-26.42
			c3.14-14.17,5.89-26.05,6.12-26.41c0.22-0.36,4.97-0.66,10.55-0.66c10.14,0,10.14,0,9.69,2.27c-0.25,1.25-5.22,18.23-11.04,37.74
			c-6.81,22.82-11.72,37.82-13.78,42.06c-2.4,4.95-4.05,7.22-6.61,9.11c-1.88,1.38-5.21,3.05-7.41,3.7
			C372.43,492.1,367.49,492.61,363.37,492.6z M335.46,396.54v71.1l-9.08-0.23c-9.08-0.23-9.08-0.23-9.34-3.45
			c-0.14-1.77-0.4-3.36-0.58-3.54c-0.17-0.17-1.67,0.87-3.33,2.33c-1.66,1.46-4.67,3.39-6.69,4.3c-2.75,1.24-5.7,1.72-11.75,1.89
			c-6.36,0.18-8.97-0.1-12.28-1.31c-2.31-0.85-5.79-2.63-7.72-3.95s-4.84-3.89-6.46-5.69c-1.63-1.8-4.1-5.54-5.5-8.3
			c-1.45-2.88-3.03-7.81-3.68-11.53c-0.88-4.98-0.95-7.76-0.31-11.93c0.46-2.99,1.59-7.45,2.51-9.92c0.92-2.47,2.96-6.2,4.52-8.29
			c1.56-2.09,3.98-4.8,5.38-6.02c1.4-1.22,4.05-3.12,5.9-4.23c1.85-1.11,5.47-2.56,8.04-3.23c2.58-0.67,6.57-1.22,8.87-1.22
			c2.3,0,6.5,0.71,9.32,1.59c2.82,0.87,6.74,2.78,8.7,4.24c1.96,1.46,3.87,2.77,4.23,2.92c0.37,0.15,0.67-1.03,0.67-2.62
			c0-2.89,0-2.89,9.28-2.89H335.46z M169.97,373.94c35.01,0,41,0.3,45.45,1.29c3.2,0.71,8.47,2.55,11.72,4.09
			c3.93,1.86,7.48,4.38,10.6,7.49c2.83,2.83,5.74,6.83,7.34,10.08c1.46,2.97,3.13,7.83,3.7,10.8c0.57,2.97,1.05,8.3,1.05,11.86
			c0,3.55-0.5,9.29-1.12,12.74c-0.62,3.46-2.18,8.54-3.48,11.3c-1.3,2.76-3.83,6.86-5.62,9.12s-5.25,5.42-7.68,7.03
			c-2.43,1.61-7.28,3.92-10.79,5.12c-6.19,2.13-7,2.2-28.17,2.54c-11.99,0.19-22.07,0.06-22.4-0.28
			c-0.33-0.34-0.61-21.45-0.61-46.91V373.94z M296.71,451.38c3.93,0.04,6.3-0.44,9.44-1.9c2.73-1.27,5.05-3.14,6.66-5.36
			c1.36-1.88,2.88-4.9,3.37-6.72c0.49-1.82,0.71-5.34,0.49-7.82c-0.22-2.48-1.03-5.75-1.8-7.27c-0.77-1.52-2.35-3.79-3.52-5.05
			c-1.17-1.26-3.49-2.99-5.15-3.85c-1.66-0.86-4.63-1.78-6.58-2.04c-1.96-0.27-5.4-0.05-7.66,0.5c-2.25,0.54-5.59,2.06-7.4,3.38
			c-2.11,1.53-4.01,3.91-5.25,6.58c-1.44,3.09-1.95,5.59-1.96,9.54c0,2.94,0.54,6.65,1.2,8.24c0.67,1.59,2.38,4.23,3.81,5.86
			s4.07,3.62,5.85,4.41C290.2,450.76,293.51,451.35,296.71,451.38z M190.55,390.49l-0.42,60.14h9.2c6.39,0,10.48-0.41,13.37-1.35
			c2.29-0.74,5.74-2.73,7.65-4.41c2.02-1.78,4.22-4.78,5.25-7.18c0.97-2.26,2.18-7.21,2.69-10.99c0.69-5.16,0.69-8.47-0.01-13.23
			c-0.51-3.49-1.82-8.12-2.92-10.28c-1.1-2.16-3.44-5.24-5.22-6.85c-1.82-1.65-5.14-3.52-7.64-4.3c-2.94-0.93-7.34-1.42-13.19-1.48
			L190.55,390.49z"/>
	</g>
	<g id="group-3">
		<path id="path2" class="st3" d="M640.62,285.78v8.13c0,1.79-1.42,3.2-3.2,3.2h-38.73c0,2.03,0.06,3.82,0.06,5.48
			c0,12.01-0.49,21.8-1.66,32.82c-0.18,1.66-1.54,2.89-3.14,2.89h-8.37c-0.86,0-1.66-0.37-2.22-0.99c-0.55-0.62-0.86-1.48-0.74-2.34
			c1.17-10.96,1.72-20.63,1.72-32.39c0-1.72,0-3.51-0.06-5.48h-38.3c-1.79,0-3.2-1.42-3.2-3.2v-8.13c0-1.79,1.42-3.2,3.2-3.2h37.74
			c-0.8-13.24-2.4-25.98-4.99-38.91c-0.12-0.8,0.06-1.6,0.55-2.22s1.23-0.99,2.03-0.99h9.05c1.42,0,2.59,0.99,2.89,2.4
			c2.52,13.36,4.13,26.35,4.93,39.71h39.22C639.14,282.58,640.62,284.06,640.62,285.78z"/>
	</g>
	<g id="group-6">
		<path id="path3" class="st5" d="M122.98,178.46h-0.06 M122.49,178.52c-0.18,0-0.37-0.06-0.55-0.06
			C122.12,178.52,122.3,178.52,122.49,178.52h0.18C122.61,178.52,122.55,178.52,122.49,178.52z M122.49,178.52
			c-0.18,0-0.37-0.06-0.55-0.06C122.12,178.52,122.3,178.52,122.49,178.52h0.18C122.61,178.52,122.55,178.52,122.49,178.52z"/>
		
			<radialGradient id="path4_00000058548641039571709600000000412290655746535094_" cx="580.0488" cy="417.6151" r="468.027" gradientTransform="matrix(1 0 0 -1 0 642.6213)" gradientUnits="userSpaceOnUse">
			<stop  offset="7.000001e-03" style="stop-color:#021192"/>
			<stop  offset="0.03" style="stop-color:#021096"/>
			<stop  offset="0.057" style="stop-color:#010CB4"/>
			<stop  offset="0.084" style="stop-color:#0008CE"/>
			<stop  offset="0.111" style="stop-color:#0006D7"/>
			<stop  offset="0.138" style="stop-color:#0004E1"/>
			<stop  offset="0.165" style="stop-color:#0001FA"/>
			<stop  offset="0.191" style="stop-color:#0000FE"/>
			<stop  offset="0.216" style="stop-color:#0F1EFF"/>
			<stop  offset="1" style="stop-color:#00FFFF;stop-opacity:0"/>
		</radialGradient>
		<path id="path4" style="fill:url(#path4_00000058548641039571709600000000412290655746535094_);" d="M587.92,221.31
			c-20.01-49.2-53.81-91.13-97.78-121.3c-45.01-30.85-97.78-47.16-152.58-47.16c-90.63,0-174.74,45.01-224.92,120.44
			c-0.55,0.8-0.68,1.85-0.37,2.77c0.31,0.99,1.05,1.66,1.97,1.97l7.02,2.4c0.43,0.12,0.86,0.18,1.23,0.18
			c1.29,0,2.52-0.68,3.26-1.72c23.03-33.86,54.18-62,90.14-81.46c37.13-20.07,79.18-30.72,121.61-30.72
			c51.29,0,100.73,15.15,143.09,43.72c41.32,27.89,73.39,66.87,92.79,112.62c0.55,1.35,1.91,2.28,3.39,2.28h8.37
			c0.99,0,1.91-0.49,2.4-1.29C588.16,223.22,588.28,222.24,587.92,221.31z M122.49,178.52c-0.18,0-0.37-0.06-0.55-0.12
			C122.12,178.46,122.3,178.52,122.49,178.52h0.12C122.61,178.52,122.55,178.52,122.49,178.52z M575.05,224.21
			c0.18,0.12,0.37,0.25,0.55,0.31C575.42,224.39,575.23,224.33,575.05,224.21z"/>
		
			<radialGradient id="path5_00000049180734321356551660000000302952794928765830_" cx="588.5511" cy="263.5677" r="849.2368" gradientTransform="matrix(1 0 0 -1 0 642.6213)" gradientUnits="userSpaceOnUse">
			<stop  offset="9.017000e-03" style="stop-color:#021192"/>
			<stop  offset="0.0535" style="stop-color:#021096"/>
			<stop  offset="0.0874" style="stop-color:#010CB4"/>
			<stop  offset="0.1132" style="stop-color:#0008CE"/>
			<stop  offset="0.1408" style="stop-color:#0006D7"/>
			<stop  offset="0.1676" style="stop-color:#0004E1"/>
			<stop  offset="0.1942" style="stop-color:#0001FA"/>
			<stop  offset="0.2183" style="stop-color:#0000FE"/>
			<stop  offset="0.2447" style="stop-color:#0F1EFF"/>
			<stop  offset="0.5845" style="stop-color:#00FFFF;stop-opacity:0"/>
		</radialGradient>
		
			<path id="path5" style="fill-rule:evenodd;clip-rule:evenodd;fill:url(#path5_00000049180734321356551660000000302952794928765830_);" d="
			M327.79,587.77c-6.66-0.04-16.47-0.58-21.8-1.2c-5.33-0.62-13.68-1.87-18.57-2.78c-4.88-0.9-13.6-2.88-19.38-4.38
			c-5.77-1.51-14.74-4.21-19.94-6.01c-5.19-1.79-13.19-4.92-17.76-6.95s-12.35-5.82-17.28-8.43c-4.93-2.61-12.94-7.24-17.8-10.3
			s-12.45-8.31-16.87-11.67c-4.42-3.36-10.94-8.58-14.49-11.59c-3.55-3.01-9.92-8.96-14.16-13.22s-10.18-10.64-13.22-14.2
			c-3.03-3.55-8.17-9.95-11.42-14.22c-3.25-4.27-8.27-11.38-11.17-15.8c-2.9-4.42-7.83-12.74-10.96-18.48
			c-3.13-5.74-7.9-15.63-10.6-21.98s-6.14-15.22-7.65-19.7c-1.51-4.48-4.06-13-5.67-18.94c-2.37-8.73-2.74-11.02-1.93-11.99
			c0.66-0.8,2.49-1.2,5.4-1.2c3.74,0,4.73,0.34,6.59,2.22c1.58,1.6,2.83,4.58,4.5,10.7c1.28,4.66,3.68,12.29,5.33,16.95
			c1.66,4.66,4.44,11.78,6.19,15.82c1.75,4.04,5.23,11.41,7.75,16.38c2.52,4.97,6.76,12.52,9.44,16.78s7.26,11.18,10.2,15.39
			c2.93,4.2,7.49,10.24,10.13,13.41c2.64,3.17,9.04,10.08,14.23,15.34s12.88,12.66,17.08,16.44c4.21,3.78,11.11,9.34,15.34,12.36
			c4.23,3.02,11.14,7.66,15.36,10.31c4.22,2.65,11.12,6.66,15.34,8.91s11.98,5.94,17.26,8.21s14.43,5.7,20.34,7.65
			c5.91,1.94,15.58,4.63,21.49,5.97c5.91,1.34,14.56,2.99,19.22,3.67c4.66,0.68,14.44,1.64,21.72,2.14c9.78,0.67,16.75,0.67,26.64,0
			c7.37-0.5,17.21-1.46,21.87-2.14c4.66-0.68,13.31-2.33,19.22-3.67c5.91-1.34,15.58-4.03,21.49-5.97
			c5.91-1.94,15.06-5.39,20.34-7.65c5.28-2.26,13.05-5.96,17.26-8.21c4.22-2.25,11.12-6.26,15.34-8.91
			c4.22-2.65,11.13-7.29,15.36-10.31c4.23-3.02,11.13-8.57,15.34-12.34c4.21-3.77,11.9-11.17,17.09-16.44
			c5.19-5.27,11.81-12.45,14.7-15.94c2.89-3.5,8.5-11.13,12.45-16.95c3.96-5.83,9.38-14.41,12.05-19.07
			c2.67-4.66,6.76-12.65,9.09-17.76s5.41-12.37,6.85-16.15c1.44-3.77,3.95-10.99,5.58-16.04c1.63-5.05,3.86-12.86,4.95-17.36
			c1.09-4.5,2.52-11.25,3.18-15.01c0.75-4.29,1.75-7.38,2.69-8.32c1.18-1.18,2.47-1.44,6.18-1.24c3.34,0.18,4.94,0.64,5.55,1.61
			c0.61,0.97,0.57,3.37-0.15,8.33c-0.55,3.83-2.46,12.74-4.23,19.8c-1.77,7.06-4.82,17.5-6.77,23.21
			c-1.95,5.7-5.41,14.71-7.68,20.01c-2.27,5.3-6.34,13.82-9.05,18.93c-2.7,5.11-7.13,12.85-9.85,17.21s-7.81,11.8-11.32,16.55
			c-3.51,4.74-9.14,11.89-12.51,15.89c-3.37,3.99-9.76,10.93-14.2,15.41c-4.44,4.49-10.98,10.62-14.53,13.63
			c-3.55,3.01-10.07,8.22-14.49,11.58c-4.42,3.36-12.05,8.64-16.95,11.72c-4.91,3.09-13.28,7.9-18.61,10.71
			c-5.33,2.8-13.87,6.88-18.97,9.07c-5.11,2.19-13.92,5.48-19.59,7.32c-5.67,1.84-14.66,4.41-19.97,5.71
			c-5.32,1.3-14.15,3.12-19.62,4.04s-15.55,2.02-22.41,2.45C345.51,587.49,334.45,587.8,327.79,587.77z"/>
	</g>
</g>
</svg>
