<?xml version="1.0" encoding="utf-8"?>
<!-- Generator: Adobe Illustrator 26.2.1, SVG Export Plug-In . SVG Version: 6.00 Build 0)  -->
<svg version="1.1" id="Layer_1" xmlns="http://www.w3.org/2000/svg" xmlns:xlink="http://www.w3.org/1999/xlink" x="0px" y="0px"
	 viewBox="0 0 3.36 1.06" style="enable-background:new 0 0 3.36 1.06;" xml:space="preserve">
<style type="text/css">
	.st0{fill:#6FBD44;}
	.st1{fill:#231F20;}
</style>
<image style="overflow:visible;" width="120" height="21" xlink:href="C:\Users\admin\Desktop\dmca_protected_sml_120d.png"  transform="matrix(2.4104 0 0 2.4104 -897.8932 -158.9926)">
</image>
<g>
	<path class="st0" d="M0.58,0.26c-0.02,0-0.03,0-0.05,0c-0.02,0-0.03,0-0.03-0.02C0.49,0.21,0.48,0.18,0.46,0.16
		c-0.07-0.09-0.18-0.09-0.25,0C0.2,0.18,0.18,0.21,0.18,0.23C0.17,0.26,0.16,0.26,0.14,0.26c-0.01,0-0.01,0-0.02,0
		c-0.04,0-0.04,0-0.03-0.04c0.02-0.08,0.06-0.14,0.13-0.19C0.25,0.02,0.28,0.01,0.3,0h0.01c0.02,0,0.04,0,0.06,0h0.01
		c0.02,0.01,0.04,0.01,0.06,0.02c0.1,0.04,0.14,0.13,0.16,0.22C0.59,0.25,0.59,0.26,0.58,0.26z"/>
	<path class="st0" d="M0.67,0.38c0-0.04-0.02-0.06-0.06-0.06c-0.18,0-0.37,0-0.55,0C0.02,0.32,0,0.34,0,0.38c0,0.19,0,0.38,0,0.56
		C0,0.99,0.02,1,0.06,1c0.18,0,0.37,0,0.55,0c0.05,0,0.06-0.02,0.06-0.06c0-0.09,0-0.19,0-0.28C0.67,0.57,0.67,0.47,0.67,0.38z
		 M0.25,0.84c-0.02,0-0.02-0.01-0.01-0.02c0.02-0.05,0.03-0.1,0.05-0.14c0.01-0.02,0.01-0.03-0.01-0.04
		C0.23,0.61,0.23,0.55,0.27,0.51c0.04-0.04,0.09-0.04,0.13,0c0.04,0.04,0.03,0.1-0.01,0.13C0.37,0.65,0.37,0.66,0.38,0.68
		c0.02,0.05,0.04,0.1,0.06,0.16C0.37,0.84,0.31,0.84,0.25,0.84z"/>
	<path class="st1" d="M1.84,0.89c0,0.02,0,0.02-0.02,0.02c-0.03,0-0.06,0-0.09,0c-0.02,0-0.02-0.01-0.02-0.02c0-0.11,0-0.21,0-0.32
		V0.56c0,0,0,0,0,0C1.69,0.61,1.68,0.67,1.66,0.73C1.65,0.78,1.63,0.84,1.62,0.89c0,0.02-0.01,0.02-0.03,0.02
		c-0.03,0-0.07,0.01-0.09,0C1.48,0.9,1.48,0.85,1.47,0.82C1.45,0.74,1.43,0.65,1.4,0.56v0.03c0,0.1,0,0.2,0,0.3
		c0,0.02,0,0.02-0.02,0.02c-0.03,0-0.06,0-0.08,0c-0.02,0-0.02-0.01-0.02-0.02c0-0.15,0-0.31,0-0.46c0-0.02,0-0.02,0.02-0.02
		c0.05,0,0.11,0,0.16,0c0.02,0,0.02,0,0.03,0.02C1.5,0.52,1.53,0.6,1.55,0.68c0,0.01,0,0.01,0.01,0.02c0.02-0.1,0.05-0.18,0.07-0.27
		c0-0.02,0.01-0.03,0.03-0.03c0.05,0,0.11,0,0.16,0c0.02,0,0.02,0,0.02,0.02C1.84,0.59,1.84,0.74,1.84,0.89z"/>
	<path class="st1" d="M2.29,0.26c-0.22,0-0.4,0.18-0.4,0.39c0,0.23,0.17,0.41,0.4,0.41c0.22,0,0.4-0.18,0.4-0.39
		C2.69,0.44,2.51,0.27,2.29,0.26z M2.29,0.98c-0.18,0-0.32-0.14-0.32-0.32c0-0.18,0.14-0.32,0.32-0.32c0.17,0,0.32,0.15,0.32,0.32
		C2.61,0.84,2.47,0.98,2.29,0.98z"/>
	<path class="st1" d="M1.2,0.55C1.18,0.47,1.12,0.42,1.03,0.41c-0.08-0.01-0.17,0-0.25,0c-0.02,0-0.02,0.01-0.02,0.03
		c0,0.07,0,0.15,0,0.22c0,0.08,0,0.16,0,0.23c0,0.01,0,0.02,0.01,0.02c0.08,0,0.16,0,0.24,0c0.08,0,0.15-0.03,0.19-0.11
		C1.23,0.72,1.22,0.63,1.2,0.55z M1.05,0.73C1.04,0.77,1.02,0.79,0.98,0.8C0.91,0.8,0.91,0.8,0.91,0.73c0-0.02,0-0.05,0-0.07
		c0-0.04,0-0.08,0-0.12c0-0.01,0-0.02,0.02-0.02c0.01,0,0.03,0,0.04,0c0.05,0,0.07,0.03,0.08,0.07C1.06,0.65,1.06,0.69,1.05,0.73z"
		/>
	<path class="st1" d="M3.23,0.91C3.17,0.75,3.11,0.59,3.06,0.43C3.05,0.41,3.04,0.41,3.03,0.41c-0.04,0-0.08,0-0.12,0
		c-0.02,0-0.03,0.01-0.04,0.03C2.81,0.59,2.75,0.74,2.7,0.89c0,0.01-0.01,0.02-0.01,0.03c0.03,0,0.05,0,0.08,0
		c0.02,0,0.05,0.01,0.07,0C2.86,0.9,2.86,0.87,2.87,0.85c0-0.01,0.01-0.02,0.02-0.02c0.03,0,0.05,0,0.08,0c0.02,0,0.05-0.01,0.07,0
		C3.06,0.85,3.06,0.88,3.07,0.9c0,0.01,0.01,0.02,0.02,0.02C3.14,0.91,3.19,0.91,3.23,0.91C3.23,0.91,3.24,0.91,3.23,0.91z M3,0.72
		c-0.03,0-0.05,0-0.08,0c-0.01,0-0.02-0.01-0.01-0.02c0.02-0.05,0.03-0.1,0.05-0.16C2.98,0.6,2.99,0.66,3.01,0.71
		C3.01,0.72,3.01,0.72,3,0.72z"/>
	<path class="st1" d="M2.51,0.74C2.48,0.86,2.4,0.91,2.27,0.9C2.17,0.9,2.09,0.82,2.07,0.71C2.05,0.59,2.1,0.49,2.2,0.44
		C2.31,0.39,2.45,0.43,2.5,0.53C2.5,0.55,2.51,0.56,2.51,0.58c-0.03,0.01-0.07,0.01-0.1,0.02c-0.02,0-0.01-0.01-0.02-0.02
		C2.37,0.53,2.34,0.5,2.29,0.5c-0.04,0-0.07,0.02-0.08,0.05c-0.03,0.07-0.03,0.14,0,0.2C2.23,0.8,2.26,0.82,2.3,0.82
		c0.04,0,0.07-0.03,0.09-0.07C2.4,0.71,2.4,0.71,2.44,0.72C2.47,0.73,2.49,0.73,2.51,0.74C2.51,0.74,2.51,0.74,2.51,0.74z"/>
	<g>
		<path class="st1" d="M3.35,0.89c0,0-0.01,0.01-0.01,0.01c-0.01,0-0.01,0-0.01-0.01c0,0-0.01-0.01-0.01-0.01
			c0-0.01,0-0.01,0.01-0.01c0,0,0.01-0.01,0.01-0.01c0,0,0.01,0,0.01,0.01c0,0,0.01,0.01,0.01,0.01C3.36,0.88,3.36,0.89,3.35,0.89z"
			/>
		<path class="st1" d="M3.28,0.84c-0.01,0-0.01-0.01-0.02-0.02c0-0.01-0.01-0.02-0.01-0.03c0-0.01,0-0.02,0.01-0.03
			c0.01-0.01,0.02-0.01,0.03-0.02v0.03c-0.01,0-0.01,0.01-0.01,0.02c0,0.01,0,0.01,0.01,0.01c0,0,0.01,0.01,0.02,0.01
			c0.01,0,0.02,0,0.02-0.01c0,0,0.01-0.01,0.01-0.01c0-0.01,0-0.01-0.01-0.02V0.74c0.01,0,0.02,0.01,0.03,0.02
			c0.01,0.01,0.01,0.02,0.01,0.03c0,0.01,0,0.02-0.01,0.03c0,0.01-0.01,0.01-0.02,0.02c-0.01,0-0.02,0.01-0.03,0.01
			C3.29,0.85,3.28,0.84,3.28,0.84z"/>
		<path class="st1" d="M3.35,0.71c0,0.01-0.01,0.01-0.02,0.02c-0.01,0-0.02,0.01-0.03,0.01c-0.01,0-0.02,0-0.03-0.01
			c-0.01,0-0.01-0.01-0.02-0.02c0-0.01-0.01-0.02-0.01-0.03c0-0.01,0-0.02,0.01-0.03c0-0.01,0.01-0.01,0.02-0.02
			c0.01,0,0.02-0.01,0.03-0.01c0.01,0,0.02,0,0.03,0.01c0.01,0,0.01,0.01,0.02,0.02c0,0.01,0.01,0.02,0.01,0.03S3.36,0.7,3.35,0.71z
			 M3.32,0.66c0,0-0.01-0.01-0.02-0.01s-0.01,0-0.02,0.01c0,0-0.01,0.01-0.01,0.02c0,0.01,0,0.01,0.01,0.02c0,0,0.01,0.01,0.02,0.01
			c0.01,0,0.01,0,0.02-0.01c0,0,0.01-0.01,0.01-0.02S3.33,0.67,3.32,0.66z"/>
		<path class="st1" d="M3.26,0.44C3.27,0.43,3.28,0.43,3.3,0.43h0.06v0.03H3.3c-0.01,0-0.01,0-0.02,0.01c0,0-0.01,0.01-0.01,0.01
			c0,0.01,0,0.01,0.01,0.01c0,0,0.01,0.01,0.02,0.01h0.06v0.03H3.3c-0.01,0-0.01,0-0.02,0.01c0,0-0.01,0.01-0.01,0.01
			c0,0.01,0,0.01,0.01,0.01c0,0,0.01,0.01,0.02,0.01h0.06v0.03H3.25V0.57h0.01c0,0-0.01-0.01-0.01-0.01c0-0.01,0-0.01,0-0.02
			c0-0.01,0-0.02,0.01-0.02c0-0.01,0.01-0.01,0.01-0.01c-0.01,0-0.01-0.01-0.01-0.01c0-0.01-0.01-0.01-0.01-0.02
			C3.25,0.46,3.25,0.45,3.26,0.44z"/>
	</g>
</g>
</svg>
