<?xml version="1.0" encoding="UTF-8"?>
<svg id="report" xmlns="http://www.w3.org/2000/svg" version="1.1" xmlns:xlink="http://www.w3.org/1999/xlink" viewBox="0 0 640.62 640.62">
  <defs>
    <style>
      .cls-1 {
        fill: #360061;
      }

      .cls-1, .cls-2, .cls-3, .cls-4, .cls-5 {
        stroke-width: 0px;
      }

      .cls-2 {
        fill: url(#linear-gradient);
      }

      .cls-3 {
        fill: #5800b2;
      }

      .cls-4 {
        fill: url(#linear-gradient-2);
      }

      .cls-5 {
        fill: url(#linear-gradient-3);
      }
    </style>
    <linearGradient id="linear-gradient" x1="-26.19" y1="236.62" x2="447.14" y2="578.88" gradientUnits="userSpaceOnUse">
      <stop offset="0" stop-color="#fff" stop-opacity=".4"/>
      <stop offset=".07" stop-color="#fff" stop-opacity=".34"/>
      <stop offset=".49" stop-color="#fff" stop-opacity="0"/>
      <stop offset=".75" stop-color="#fafafa" stop-opacity=".1"/>
      <stop offset="1" stop-color="#efefef" stop-opacity=".2"/>
    </linearGradient>
    <linearGradient id="linear-gradient-2" x1="108.11" y1="50.89" x2="581.44" y2="393.15" xlink:href="#linear-gradient"/>
    <linearGradient id="linear-gradient-3" x1="46.74" y1="135.77" x2="520.07" y2="478.02" xlink:href="#linear-gradient"/>
  </defs>
  <g>
    <path class="cls-1" d="M165,365.06c-1.64,12.64-2.41,25.21-5.26,37.29-1.15,4.89-6.12,9.81-10.63,12.8-13.94,9.27-24.73,21.61-29.33,37.09-6.05,20.35-11.49,41.26-8.35,63.14,1.97,13.74,10.98,22.6,25.71,23.75,4.42.35,8.91.26,13.33-.04,6.32-.43,10.89-5.55,10.69-11.51-.19-5.7-4.84-10.43-10.93-10.71-4.82-.22-9.68-.23-14.5.11-2.93.21-4.25-.5-4.61-3.53-1.73-14.46-1.56-29.21,5-42.08,5.82-11.43,14.29-21.77,22.89-31.44,6.31-7.1,13.66-6.21,21.14,0,.59.49,1.21.98,1.72,1.56,18.37,20.36,28.9,43.44,24.95,71.61-.4,2.85-1.22,4.03-4.32,3.82-4.62-.32-9.29-.29-13.92-.07-6.42.31-10.97,5.14-10.94,11.23.03,5.89,4.29,10.45,10.5,11.02,8.96.83,17.6,0,25.87-4.18,7.99-4.04,11.34-10.82,12.25-19.09,1.71-15.53,1.1-31.03-3.95-45.88-3.43-10.07-2.57-21.22-9.48-30.51-7.11-9.56-14.58-18.18-24.53-25.06-6.23-4.31-12.1-9.87-10.12-19.91,2.06-10.44,3.12-20.99,8.4-30.5,4.02-7.25,9.2-12.66,18.15-13.56,6.29-.63,12.49-2.1,18.85-3.22,4.02,15.83,13.88,27.47,24.9,37.62,22.3,20.55,45.52,40.11,68.36,60.08,1.98,1.73,3.66,2.9,6.44.7,27.81-21.94,55.41-44.11,78.61-71.11,6.7-7.8,12.84-16.02,14.97-26.42,20.86-1.8,32.6,4.93,39.4,24.39,3.34,9.54,4.32,19.91,6.49,29.87.9,4.14-2.36,4.19-4.69,5.13-15.02,6.08-24.77,20.35-24.59,36.07.19,16.18,10.34,30.56,25.47,36.08,19.63,7.15,41.54-2.75,49.16-22.23,7.62-19.45-1.67-41.82-21.21-49.44-5.08-1.98-6.09-4.53-6.74-9.43-1.53-11.56-4.11-22.99-6.27-34.46,13.27,6.39,25.73,15.05,36.66,25.7,37.53,36.57,54.28,80.97,48.86,133.25-3.37,32.5-23.11,52.63-57.7,59.92-22.67,4.78-45.69,5.06-68.7,5.05-81.82-.02-163.64-.06-245.46-.33-20.72-.07-41.35-1.7-61.22-8.32-26.89-8.95-41.28-28.16-44.85-55.75-8.17-63.07,24.91-127.09,81.07-157.33,1-.54,2.04-1,2.47-1.2Z"/>
    <path class="cls-3" d="M320.3,52.63c78.55.53,139.79,67.92,131.43,146.39-5.78,54.23-27.75,101.39-66.82,139.88-15.13,14.9-32.95,25.47-54.56,28.43-23.75,3.26-44.2-4.73-62.69-18.64-28.3-21.3-46.7-50.14-60.66-82.06-9.73-22.24-15.95-45.44-18.23-69.74-6.21-66.11,39.69-127.97,105.14-140.89,8.68-1.71,17.59-2.28,26.39-3.37Z"/>
    <path class="cls-1" d="M471.89,461.14c-9.61-.11-17.72-8.29-17.67-17.84.05-9.51,8.29-17.74,17.81-17.79,9.84-.05,18.04,8.31,17.86,18.21-.18,9.66-8.3,17.52-18,17.41Z"/>
  </g>
  <g>
    <path class="cls-2" d="M165,365.06c-1.64,12.64-2.41,25.21-5.26,37.29-1.15,4.89-6.12,9.81-10.63,12.8-13.94,9.27-24.73,21.61-29.33,37.09-6.05,20.35-11.49,41.26-8.35,63.14,1.97,13.74,10.98,22.6,25.71,23.75,4.42.35,8.91.26,13.33-.04,6.32-.43,10.89-5.55,10.69-11.51-.19-5.7-4.84-10.43-10.93-10.71-4.82-.22-9.68-.23-14.5.11-2.93.21-4.25-.5-4.61-3.53-1.73-14.46-1.56-29.21,5-42.08,5.82-11.43,14.29-21.77,22.89-31.44,6.31-7.1,13.66-6.21,21.14,0,.59.49,1.21.98,1.72,1.56,18.37,20.36,28.9,43.44,24.95,71.61-.4,2.85-1.22,4.03-4.32,3.82-4.62-.32-9.29-.29-13.92-.07-6.42.31-10.97,5.14-10.94,11.23.03,5.89,4.29,10.45,10.5,11.02,8.96.83,17.6,0,25.87-4.18,7.99-4.04,11.34-10.82,12.25-19.09,1.71-15.53,1.1-31.03-3.95-45.88-3.43-10.07-2.57-21.22-9.48-30.51-7.11-9.56-14.58-18.18-24.53-25.06-6.23-4.31-12.1-9.87-10.12-19.91,2.06-10.44,3.12-20.99,8.4-30.5,4.02-7.25,9.2-12.66,18.15-13.56,6.29-.63,12.49-2.1,18.85-3.22,4.02,15.83,13.88,27.47,24.9,37.62,22.3,20.55,45.52,40.11,68.36,60.08,1.98,1.73,3.66,2.9,6.44.7,27.81-21.94,55.41-44.11,78.61-71.11,6.7-7.8,12.84-16.02,14.97-26.42,20.86-1.8,32.6,4.93,39.4,24.39,3.34,9.54,4.32,19.91,6.49,29.87.9,4.14-2.36,4.19-4.69,5.13-15.02,6.08-24.77,20.35-24.59,36.07.19,16.18,10.34,30.56,25.47,36.08,19.63,7.15,41.54-2.75,49.16-22.23,7.62-19.45-1.67-41.82-21.21-49.44-5.08-1.98-6.09-4.53-6.74-9.43-1.53-11.56-4.11-22.99-6.27-34.46,13.27,6.39,25.73,15.05,36.66,25.7,37.53,36.57,54.28,80.97,48.86,133.25-3.37,32.5-23.11,52.63-57.7,59.92-22.67,4.78-45.69,5.06-68.7,5.05-81.82-.02-163.64-.06-245.46-.33-20.72-.07-41.35-1.7-61.22-8.32-26.89-8.95-41.28-28.16-44.85-55.75-8.17-63.07,24.91-127.09,81.07-157.33,1-.54,2.04-1,2.47-1.2Z"/>
    <path class="cls-4" d="M320.3,52.63c78.55.53,139.79,67.92,131.43,146.39-5.78,54.23-27.75,101.39-66.82,139.88-15.13,14.9-32.95,25.47-54.56,28.43-23.75,3.26-44.2-4.73-62.69-18.64-28.3-21.3-46.7-50.14-60.66-82.06-9.73-22.24-15.95-45.44-18.23-69.74-6.21-66.11,39.69-127.97,105.14-140.89,8.68-1.71,17.59-2.28,26.39-3.37Z"/>
    <path class="cls-5" d="M471.89,461.14c-9.61-.11-17.72-8.29-17.67-17.84.05-9.51,8.29-17.74,17.81-17.79,9.84-.05,18.04,8.31,17.86,18.21-.18,9.66-8.3,17.52-18,17.41Z"/>
  </g>
</svg>