<?xml version="1.0" encoding="utf-8"?>
<!-- Generator: Adobe Illustrator 26.2.1, SVG Export Plug-In . SVG Version: 6.00 Build 0)  -->
<svg version="1.1" id="report" xmlns="http://www.w3.org/2000/svg" xmlns:xlink="http://www.w3.org/1999/xlink" x="0px" y="0px"
	 viewBox="0 0 640.62 640.62" style="enable-background:new 0 0 640.62 640.62;" xml:space="preserve">
<style type="text/css">
	.st0{fill:#360061;}
	.st1{fill:#5800B2;}
	.st2{fill:url(#SVGID_1_);}
	.st3{fill:url(#SVGID_00000003788300585101347270000012777922879923588274_);}
	.st4{fill:url(#SVGID_00000025419552526571340400000015879666700377956519_);}
	.st5{fill:url(#SVGID_00000034082442666912168180000012772480970342126733_);}
</style>
<g>
	<path class="st0" d="M192.6,127.36c16.83,0,33.27,0.12,49.69-0.18c1.77-0.03,4.25-2.18,5.14-3.97
		c17.03-34.19,33.87-68.47,50.77-102.72c3.42-6.93,6.89-13.83,10.93-21.94c40.54,54.08,80.46,107.34,120.91,161.31
		c7.69-11,15.32-21.24,22.14-31.99c3.43-5.41,7.34-6.95,13.56-6.87c27.13,0.36,54.28,0.16,81.41,0.16c2.41,0,4.82,0,7.83,0
		c0-11.07,0-21.65,0-34.04c28.97,16.71,56.71,32.71,85.52,49.33c-28.48,16.54-56.17,32.63-85.07,49.42c0-12,0-22.7,0-33.72
		c-2.77-0.17-4.71-0.39-6.66-0.39c-23.36-0.02-46.72,0.1-70.07-0.12c-4.31-0.04-6.81,1.37-9.21,4.89
		c-12.41,18.16-25.09,36.12-38.39,55.18c-38.96-51.84-77.55-103.2-116.69-155.28c-8.56,17.34-16.7,33.78-24.8,50.24
		c-7.65,15.54-15.35,31.05-22.81,46.68c-1.68,3.52-3.78,4.73-7.68,4.7c-20.69-0.19-41.38,0.04-62.06-0.17
		c-4.63-0.05-7.16,0.93-8.47,5.92c-11.5,43.54-54.9,72.56-100.13,69.22c-43.48-3.21-81.3-38.46-87.38-82.88
		C-7.02,91,38.09,39.45,97.67,39.74c47.92,0.23,88.94,37.12,94.32,84.81C192.07,125.21,192.27,125.84,192.6,127.36z M102.42,203.89
		c-3.4-11.28,4.06-13.27,12-14.86c0.86-0.17,1.69-0.56,2.5-0.92c22.53-10.03,26.06-36.87,6.32-51.63
		c-7.02-5.24-15.48-8.56-23.28-12.76c-4.08-2.2-8.67-3.8-12.14-6.72c-6.09-5.14-5.02-13.24,2.41-16.06
		c4.94-1.88,10.83-2.26,16.18-1.83c6.29,0.51,12.45,2.62,19.2,4.16c1.33-5.92,2.62-11.67,4.14-18.49
		c-9.32-1.77-18.13-3.45-27.13-5.16c-0.28-3.41-0.56-6.87-0.83-10.25c-3.89,0-7.29,0-11.14,0c0,4.06,0,7.57,0,10.67
		c-5.91,2.25-11.57,3.73-16.58,6.42c-20.87,11.17-22.54,37.32-3.19,50.74c4.85,3.36,10.61,5.45,16.07,7.86
		c4.87,2.14,10.02,3.64,14.82,5.9c4.7,2.22,8.07,5.99,7.36,11.56c-0.71,5.54-4.91,8.96-9.97,9.3c-7.19,0.48-14.53-0.07-21.7-1.01
		c-5.11-0.67-10.05-2.7-15.35-4.2c-1.75,6.43-3.3,12.13-5.26,19.32c11.4,2.83,22.25,5.53,33.64,8.37c0.19,2.66,0.43,6.08,0.68,9.59
		C94.99,203.89,98.22,203.89,102.42,203.89z"/>
	<path class="st0" d="M0.12,470.39c0-12.34,0-23.62,0-35.62c173.45,0,346.63,0,520.49,0c0.19-11.55,1.94-22.38,11.93-28.62
		c5.21-3.26,11.82-5.75,17.87-5.92c16.47-0.45,25.44,10.56,29.19,34.22c19.85,0,39.8,0,60.3,0c0,11.95,0,23.38,0,35.73
		c-19.96,0-40.27,0-60.44,0c-2.91,23.89-12.51,34.92-29.69,34.92c-17.12,0-26.38-10.71-29.59-34.71
		C347.04,470.39,173.83,470.39,0.12,470.39z"/>
	<path class="st1" d="M180.02,332.64c-3.7,24.6-13.13,35.23-30.1,34.96c-16.85-0.27-26.42-11.46-29.09-34.59
		c-40.04,0-80.17,0-120.64,0c0-12.12,0-23.55,0-35.77c40.4,0,80.51,0,120.51,0c3.34-23.71,12.47-34.47,29.06-34.91
		c16.73-0.44,25.6,9.57,30.4,34.74c153,0,306.13,0,459.77,0c0,12.01,0,23.44,0,35.57C486.83,332.64,333.52,332.64,180.02,332.64z"/>
	<path class="st1" d="M640.25,572.31c0,12.4,0,23.47,0,35.37c-84.69,0-169.26,0-254.57,0c0.38,11.83-1.72,22.55-11.71,28.66
		c-5.56,3.4-12.74,5.66-19.22,5.74c-15.76,0.21-24.55-11.05-27.57-33.71c-108.72,0-217.56,0-326.87,0c0-12.21,0-23.62,0-35.88
		c108.99,0,217.82,0,327.34,0c-0.23-12.05,1.81-22.95,12.2-29.17c5.27-3.16,11.95-5.62,17.97-5.57
		c16.96,0.15,26.33,12.12,28.13,34.56C470.48,572.31,555.08,572.31,640.25,572.31z"/>
	<linearGradient id="SVGID_1_" gradientUnits="userSpaceOnUse" x1="0.1368" y1="115.9015" x2="640.4987" y2="115.9015">
		<stop  offset="0" style="stop-color:#FFFFFF;stop-opacity:0.4"/>
		<stop  offset="0.0691" style="stop-color:#FFFFFF;stop-opacity:0.3435"/>
		<stop  offset="0.4892" style="stop-color:#FFFFFF;stop-opacity:0"/>
		<stop  offset="0.7527" style="stop-color:#FAFAFA;stop-opacity:0.1032"/>
		<stop  offset="1" style="stop-color:#EFEFEF;stop-opacity:0.2"/>
	</linearGradient>
	<path class="st2" d="M192.6,127.36c16.83,0,33.27,0.12,49.69-0.18c1.77-0.03,4.25-2.18,5.14-3.97
		c17.03-34.19,33.87-68.47,50.77-102.72c3.42-6.93,6.89-13.83,10.93-21.94c40.54,54.08,80.46,107.34,120.91,161.31
		c7.69-11,15.32-21.24,22.14-31.99c3.43-5.41,7.34-6.95,13.56-6.87c27.13,0.36,54.28,0.16,81.41,0.16c2.41,0,4.82,0,7.83,0
		c0-11.07,0-21.65,0-34.04c28.97,16.71,56.71,32.71,85.52,49.33c-28.48,16.54-56.17,32.63-85.07,49.42c0-12,0-22.7,0-33.72
		c-2.77-0.17-4.71-0.39-6.66-0.39c-23.36-0.02-46.72,0.1-70.07-0.12c-4.31-0.04-6.81,1.37-9.21,4.89
		c-12.41,18.16-25.09,36.12-38.39,55.18c-38.96-51.84-77.55-103.2-116.69-155.28c-8.56,17.34-16.7,33.78-24.8,50.24
		c-7.65,15.54-15.35,31.05-22.81,46.68c-1.68,3.52-3.78,4.73-7.68,4.7c-20.69-0.19-41.38,0.04-62.06-0.17
		c-4.63-0.05-7.16,0.93-8.47,5.92c-11.5,43.54-54.9,72.56-100.13,69.22c-43.48-3.21-81.3-38.46-87.38-82.88
		C-7.02,91,38.09,39.45,97.67,39.74c47.92,0.23,88.94,37.12,94.32,84.81C192.07,125.21,192.27,125.84,192.6,127.36z M102.42,203.89
		c-3.4-11.28,4.06-13.27,12-14.86c0.86-0.17,1.69-0.56,2.5-0.92c22.53-10.03,26.06-36.87,6.32-51.63
		c-7.02-5.24-15.48-8.56-23.28-12.76c-4.08-2.2-8.67-3.8-12.14-6.72c-6.09-5.14-5.02-13.24,2.41-16.06
		c4.94-1.88,10.83-2.26,16.18-1.83c6.29,0.51,12.45,2.62,19.2,4.16c1.33-5.92,2.62-11.67,4.14-18.49
		c-9.32-1.77-18.13-3.45-27.13-5.16c-0.28-3.41-0.56-6.87-0.83-10.25c-3.89,0-7.29,0-11.14,0c0,4.06,0,7.57,0,10.67
		c-5.91,2.25-11.57,3.73-16.58,6.42c-20.87,11.17-22.54,37.32-3.19,50.74c4.85,3.36,10.61,5.45,16.07,7.86
		c4.87,2.14,10.02,3.64,14.82,5.9c4.7,2.22,8.07,5.99,7.36,11.56c-0.71,5.54-4.91,8.96-9.97,9.3c-7.19,0.48-14.53-0.07-21.7-1.01
		c-5.11-0.67-10.05-2.7-15.35-4.2c-1.75,6.43-3.3,12.13-5.26,19.32c11.4,2.83,22.25,5.53,33.64,8.37c0.19,2.66,0.43,6.08,0.68,9.59
		C94.99,203.89,98.22,203.89,102.42,203.89z"/>
	
		<linearGradient id="SVGID_00000180358331000924127640000012251291096773816508_" gradientUnits="userSpaceOnUse" x1="0.1227" y1="452.6584" x2="639.8958" y2="452.6584">
		<stop  offset="0" style="stop-color:#FFFFFF;stop-opacity:0.4"/>
		<stop  offset="0.0691" style="stop-color:#FFFFFF;stop-opacity:0.3435"/>
		<stop  offset="0.4892" style="stop-color:#FFFFFF;stop-opacity:0"/>
		<stop  offset="0.7527" style="stop-color:#FAFAFA;stop-opacity:0.1032"/>
		<stop  offset="1" style="stop-color:#EFEFEF;stop-opacity:0.2"/>
	</linearGradient>
	<path style="fill:url(#SVGID_00000180358331000924127640000012251291096773816508_);" d="M0.12,470.39c0-12.34,0-23.62,0-35.62
		c173.45,0,346.63,0,520.49,0c0.19-11.55,1.94-22.38,11.93-28.62c5.21-3.26,11.82-5.75,17.87-5.92
		c16.47-0.45,25.44,10.56,29.19,34.22c19.85,0,39.8,0,60.3,0c0,11.95,0,23.38,0,35.73c-19.96,0-40.27,0-60.44,0
		c-2.91,23.89-12.51,34.92-29.69,34.92c-17.12,0-26.38-10.71-29.59-34.71C347.04,470.39,173.83,470.39,0.12,470.39z"/>
	
		<linearGradient id="SVGID_00000091000803463522808740000008489307407557516473_" gradientUnits="userSpaceOnUse" x1="0.1941" y1="314.9616" x2="639.933" y2="314.9616">
		<stop  offset="0" style="stop-color:#FFFFFF;stop-opacity:0.4"/>
		<stop  offset="0.0691" style="stop-color:#FFFFFF;stop-opacity:0.3435"/>
		<stop  offset="0.4892" style="stop-color:#FFFFFF;stop-opacity:0"/>
		<stop  offset="0.7527" style="stop-color:#FAFAFA;stop-opacity:0.1032"/>
		<stop  offset="1" style="stop-color:#EFEFEF;stop-opacity:0.2"/>
	</linearGradient>
	<path style="fill:url(#SVGID_00000091000803463522808740000008489307407557516473_);" d="M180.02,332.64
		c-3.7,24.6-13.13,35.23-30.1,34.96c-16.85-0.27-26.42-11.46-29.09-34.59c-40.04,0-80.17,0-120.64,0c0-12.12,0-23.55,0-35.77
		c40.4,0,80.51,0,120.51,0c3.34-23.71,12.47-34.47,29.06-34.91c16.73-0.44,25.6,9.57,30.4,34.74c153,0,306.13,0,459.77,0
		c0,12.01,0,23.44,0,35.57C486.83,332.64,333.52,332.64,180.02,332.64z"/>
	
		<linearGradient id="SVGID_00000063615905642643048610000011353409320585526971_" gradientUnits="userSpaceOnUse" x1="0.3225" y1="589.907" x2="640.2499" y2="589.907">
		<stop  offset="0" style="stop-color:#FFFFFF;stop-opacity:0.4"/>
		<stop  offset="0.0691" style="stop-color:#FFFFFF;stop-opacity:0.3435"/>
		<stop  offset="0.4892" style="stop-color:#FFFFFF;stop-opacity:0"/>
		<stop  offset="0.7527" style="stop-color:#FAFAFA;stop-opacity:0.1032"/>
		<stop  offset="1" style="stop-color:#EFEFEF;stop-opacity:0.2"/>
	</linearGradient>
	<path style="fill:url(#SVGID_00000063615905642643048610000011353409320585526971_);" d="M640.25,572.31c0,12.4,0,23.47,0,35.37
		c-84.69,0-169.26,0-254.57,0c0.38,11.83-1.72,22.55-11.71,28.66c-5.56,3.4-12.74,5.66-19.22,5.74
		c-15.76,0.21-24.55-11.05-27.57-33.71c-108.72,0-217.56,0-326.87,0c0-12.21,0-23.62,0-35.88c108.99,0,217.82,0,327.34,0
		c-0.23-12.05,1.81-22.95,12.2-29.17c5.27-3.16,11.95-5.62,17.97-5.57c16.96,0.15,26.33,12.12,28.13,34.56
		C470.48,572.31,555.08,572.31,640.25,572.31z"/>
</g>
</svg>
