<?xml version="1.0" encoding="utf-8"?>
<!-- Generator: Adobe Illustrator 26.2.1, SVG Export Plug-In . SVG Version: 6.00 Build 0)  -->
<svg version="1.1" id="report" xmlns="http://www.w3.org/2000/svg" xmlns:xlink="http://www.w3.org/1999/xlink" x="0px" y="0px"
	 viewBox="0 0 640.62 640.62" style="enable-background:new 0 0 640.62 640.62;" xml:space="preserve">
<style type="text/css">
	.st0{display:none;fill:url(#SVGID_1_);}
	.st1{display:none;fill:url(#SVGID_00000155127582115847365610000017365638074224699013_);}
	.st2{display:none;fill:url(#SVGID_00000119804216558805806730000017445673261219128477_);}
	.st3{fill:#360061;}
	.st4{fill:url(#SVGID_00000156569861234385148200000001650861967609780368_);}
	.st5{fill:#5800B2;}
	.st6{fill:url(#SVGID_00000150797594137655548770000017418072145770060695_);}
	.st7{fill:url(#SVGID_00000181085081392085144960000012883724960525043111_);}
</style>
<linearGradient id="SVGID_1_" gradientUnits="userSpaceOnUse" x1="290.9483" y1="320.3009" x2="360.9372" y2="320.3009">
	<stop  offset="0" style="stop-color:#FFFFFF;stop-opacity:0.4"/>
	<stop  offset="0.0691" style="stop-color:#FFFFFF;stop-opacity:0.3435"/>
	<stop  offset="0.4892" style="stop-color:#FFFFFF;stop-opacity:0"/>
	<stop  offset="0.7527" style="stop-color:#FAFAFA;stop-opacity:0.1032"/>
	<stop  offset="1" style="stop-color:#EFEFEF;stop-opacity:0.2"/>
</linearGradient>
<path class="st0" d="M360.94,408.89c-23.09-16.59-45.06-32.27-66.81-48.25c-1.83-1.34-2.98-4.76-3.01-7.23
	c-0.23-22.1-0.21-44.2-0.02-66.3c0.02-2.29,0.86-5.51,2.5-6.71c21.96-16.13,44.13-31.97,67.35-48.68
	C360.94,291.13,360.94,349.28,360.94,408.89z"/>
<linearGradient id="SVGID_00000023965863648100803830000000409494484409532841_" gradientUnits="userSpaceOnUse" x1="234.72" y1="320.2812" x2="275.4071" y2="320.2812">
	<stop  offset="0" style="stop-color:#FFFFFF;stop-opacity:0.4"/>
	<stop  offset="0.0691" style="stop-color:#FFFFFF;stop-opacity:0.3435"/>
	<stop  offset="0.4892" style="stop-color:#FFFFFF;stop-opacity:0"/>
	<stop  offset="0.7527" style="stop-color:#FAFAFA;stop-opacity:0.1032"/>
	<stop  offset="1" style="stop-color:#EFEFEF;stop-opacity:0.2"/>
</linearGradient>
<path style="display:none;fill:url(#SVGID_00000023965863648100803830000000409494484409532841_);" d="M275.41,285.55
	c0,23.61,0,46.09,0,69.35c-11.46,0-22.58,0.48-33.59-0.36c-2.51-0.19-6.61-4.84-6.7-7.55c-0.6-17.88-0.4-35.78-0.22-53.68
	c0.05-4.85,2.99-7.68,7.96-7.73C253.46,285.48,264.05,285.55,275.41,285.55z"/>
<linearGradient id="SVGID_00000075863628519019774400000004723486556938666663_" gradientUnits="userSpaceOnUse" x1="377.0954" y1="320.1778" x2="405.9691" y2="320.1778">
	<stop  offset="0" style="stop-color:#FFFFFF;stop-opacity:0.4"/>
	<stop  offset="0.0691" style="stop-color:#FFFFFF;stop-opacity:0.3435"/>
	<stop  offset="0.4892" style="stop-color:#FFFFFF;stop-opacity:0"/>
	<stop  offset="0.7527" style="stop-color:#FAFAFA;stop-opacity:0.1032"/>
	<stop  offset="1" style="stop-color:#EFEFEF;stop-opacity:0.2"/>
</linearGradient>
<path style="display:none;fill:url(#SVGID_00000075863628519019774400000004723486556938666663_);" d="M377.1,355.13
	c0-23.33,0-46.62,0.01-69.9c15.57,1.63,28.5,17.01,28.86,34.31C406.32,336.88,393.67,352.67,377.1,355.13z"/>
<g>
	<path class="st3" d="M153.6,1.25c119.47,0,238.93,0,358.4,0c-0.15,2.69-0.43,5.37-0.43,8.06c-0.02,100.69-0.02,201.37-0.02,302.06
		c0,2.65,0,5.29,0,7.41c-98.26,1.93-160.47,49.56-188.16,143.17c-56,0-112.51,0-169.71,0c0-2.54,0-4.76,0-6.99
		c0-32.87,0.01-65.74,0-98.61C153.65,237.99,153.62,119.62,153.6,1.25z M225.11,229.45c70.01,0,139.54,0,209.16,0
		c0-12.39,0-24.36,0-36.53c-69.87,0-139.4,0-209.16,0C225.11,205.18,225.11,216.99,225.11,229.45z M267.41,148.32
		c41.85,0,83.1,0,124.33,0c0-12.49,0-24.59,0-36.5c-41.77,0-83,0-124.33,0C267.41,124.15,267.41,135.97,267.41,148.32z"/>
	
		<linearGradient id="SVGID_00000150081212428574032330000008514832192533611711_" gradientUnits="userSpaceOnUse" x1="153.5993" y1="231.6003" x2="511.9976" y2="231.6003">
		<stop  offset="0" style="stop-color:#FFFFFF;stop-opacity:0.4"/>
		<stop  offset="0.0691" style="stop-color:#FFFFFF;stop-opacity:0.3435"/>
		<stop  offset="0.4892" style="stop-color:#FFFFFF;stop-opacity:0"/>
		<stop  offset="0.7527" style="stop-color:#FAFAFA;stop-opacity:0.1032"/>
		<stop  offset="1" style="stop-color:#EFEFEF;stop-opacity:0.2"/>
	</linearGradient>
	<path style="fill:url(#SVGID_00000150081212428574032330000008514832192533611711_);" d="M153.6,1.25c119.47,0,238.93,0,358.4,0
		c-0.15,2.69-0.43,5.37-0.43,8.06c-0.02,100.69-0.02,201.37-0.02,302.06c0,2.65,0,5.29,0,7.41
		c-98.26,1.93-160.47,49.56-188.16,143.17c-56,0-112.51,0-169.71,0c0-2.54,0-4.76,0-6.99c0-32.87,0.01-65.74,0-98.61
		C153.65,237.99,153.62,119.62,153.6,1.25z M225.11,229.45c70.01,0,139.54,0,209.16,0c0-12.39,0-24.36,0-36.53
		c-69.87,0-139.4,0-209.16,0C225.11,205.18,225.11,216.99,225.11,229.45z M267.41,148.32c41.85,0,83.1,0,124.33,0
		c0-12.49,0-24.59,0-36.5c-41.77,0-83,0-124.33,0C267.41,124.15,267.41,135.97,267.41,148.32z"/>
	<path class="st5" d="M641.87,510.75c-2.42,10.67-3.99,21.62-7.38,31.98c-20.25,61.87-80.56,102.44-144.45,97.64
		c-65.76-4.94-118.97-52.62-130.62-117.07c-16.93-93.6,62.09-177.77,156.24-166.43c66.01,7.95,116.86,58.44,125.11,124.2
		c0.15,1.18,0.73,2.31,1.11,3.46C641.87,493.27,641.87,502.01,641.87,510.75z M480.47,422.33c0,26.81,0,52.89,0,78.97
		c-0.52,0.34-1.03,0.68-1.55,1.03c-7.07-7.42-14.14-14.84-20.67-21.7c-8.91,8.9-17.41,17.39-25.1,25.06
		c22.22,22.21,44.77,44.76,66.53,66.52c21.86-21.84,44.32-44.27,66.01-65.94c-8.12-8.09-16.71-16.66-26.24-26.16
		c-6.42,6.73-13.38,14.03-21.32,22.35c0-27.52,0-53.77,0-80.14C505.4,422.33,493.42,422.33,480.47,422.33z"/>
	<path class="st5" d="M116.14,1.25c0.04,2.29,0.11,4.57,0.11,6.86c0.01,148.52,0,297.04,0,445.57c0,2.65,0,5.31,0,8.6
		c-11.4,0-22.17,0.33-32.91-0.06c-28.92-1.07-55.16,6.02-77.86,24.53c-0.26,0.21-0.75,0.13-1.84,0.29c0-2.3,0-4.49,0-6.68
		c0-131.05-0.01-262.1,0-393.15c0-44.95,26.13-76.56,70.21-85.06c0.8-0.15,1.54-0.59,2.31-0.9C89.5,1.25,102.82,1.25,116.14,1.25z"
		/>
	
		<linearGradient id="SVGID_00000124163035215049685980000010736730080432959885_" gradientUnits="userSpaceOnUse" x1="3.648" y1="244.1387" x2="116.2556" y2="244.1387">
		<stop  offset="0" style="stop-color:#FFFFFF;stop-opacity:0.4"/>
		<stop  offset="0.0691" style="stop-color:#FFFFFF;stop-opacity:0.3435"/>
		<stop  offset="0.4892" style="stop-color:#FFFFFF;stop-opacity:0"/>
		<stop  offset="0.7527" style="stop-color:#FAFAFA;stop-opacity:0.1032"/>
		<stop  offset="1" style="stop-color:#EFEFEF;stop-opacity:0.2"/>
	</linearGradient>
	<path style="fill:url(#SVGID_00000124163035215049685980000010736730080432959885_);" d="M116.14,1.25
		c0.04,2.29,0.11,4.57,0.11,6.86c0.01,148.52,0,297.04,0,445.57c0,2.65,0,5.31,0,8.6c-11.4,0-22.17,0.33-32.91-0.06
		c-28.92-1.07-55.16,6.02-77.86,24.53c-0.26,0.21-0.75,0.13-1.84,0.29c0-2.3,0-4.49,0-6.68c0-131.05-0.01-262.1,0-393.15
		c0-44.95,26.13-76.56,70.21-85.06c0.8-0.15,1.54-0.59,2.31-0.9C89.5,1.25,102.82,1.25,116.14,1.25z"/>
	<path class="st3" d="M98.76,550.62c0,12.99,0,24.96,0,37.59c2.74,0,5.18,0,7.62,0c77.61,0,155.22,0.04,232.84-0.11
		c4.53-0.01,6.99,1.38,9.35,5.22c10.98,17.91,25.13,33.06,42.57,46.82c-2.77,0.21-4.47,0.45-6.18,0.45
		c-103.62,0.02-207.24,0.08-310.86-0.02c-37.27-0.04-67.36-27.37-71.32-64.33c-3.75-34.99,20.22-67.88,55.65-75.89
		c5.82-1.32,11.95-1.79,17.94-1.8c79.28-0.11,158.55-0.08,237.83-0.06c2.03,0,4.06,0.17,5.34,0.23c2.65,17.49,5.23,34.44,7.87,51.89
		C251.88,550.62,175.65,550.62,98.76,550.62z"/>
	
		<linearGradient id="SVGID_00000016769166824491052640000006047924791063233200_" gradientUnits="userSpaceOnUse" x1="2.3789" y1="569.5619" x2="391.1274" y2="569.5619">
		<stop  offset="0" style="stop-color:#FFFFFF;stop-opacity:0.4"/>
		<stop  offset="0.0691" style="stop-color:#FFFFFF;stop-opacity:0.3435"/>
		<stop  offset="0.4892" style="stop-color:#FFFFFF;stop-opacity:0"/>
		<stop  offset="0.7527" style="stop-color:#FAFAFA;stop-opacity:0.1032"/>
		<stop  offset="1" style="stop-color:#EFEFEF;stop-opacity:0.2"/>
	</linearGradient>
	<path style="fill:url(#SVGID_00000016769166824491052640000006047924791063233200_);" d="M98.76,550.62c0,12.99,0,24.96,0,37.59
		c2.74,0,5.18,0,7.62,0c77.61,0,155.22,0.04,232.84-0.11c4.53-0.01,6.99,1.38,9.35,5.22c10.98,17.91,25.13,33.06,42.57,46.82
		c-2.77,0.21-4.47,0.45-6.18,0.45c-103.62,0.02-207.24,0.08-310.86-0.02c-37.27-0.04-67.36-27.37-71.32-64.33
		c-3.75-34.99,20.22-67.88,55.65-75.89c5.82-1.32,11.95-1.79,17.94-1.8c79.28-0.11,158.55-0.08,237.83-0.06
		c2.03,0,4.06,0.17,5.34,0.23c2.65,17.49,5.23,34.44,7.87,51.89C251.88,550.62,175.65,550.62,98.76,550.62z"/>
</g>
</svg>
