<?xml version="1.0" encoding="utf-8"?>
<!-- Generator: Adobe Illustrator 26.2.1, SVG Export Plug-In . SVG Version: 6.00 Build 0)  -->
<svg version="1.1" id="report" xmlns="http://www.w3.org/2000/svg" xmlns:xlink="http://www.w3.org/1999/xlink" x="0px" y="0px"
	 viewBox="0 0 640.62 640.62" style="enable-background:new 0 0 640.62 640.62;" xml:space="preserve">
<style type="text/css">
	.st0{fill:#360061;}
	.st1{fill:url(#SVGID_1_);}
	.st2{fill:#5800B2;}
	.st3{fill:url(#SVGID_00000073691102009531995530000015825290617835306635_);}
	.st4{fill:url(#SVGID_00000098903419839514498150000003375563576655144871_);}
	.st5{fill:url(#SVGID_00000176762330045008118850000015602442135248402615_);}
	.st6{fill:url(#SVGID_00000101794279763205507790000017444855843380556195_);}
	.st7{fill:url(#SVGID_00000045611507029796912820000009182684370746951847_);}
	.st8{fill:url(#SVGID_00000109733820555630678480000004689698727409126564_);}
</style>
<g>
	<path class="st0" d="M277.12,363c-23-87.29-45.86-174.05-68.68-260.68c-24.95,0-49.34-0.06-73.73,0.02
		c-15.61,0.05-31.23,0.29-46.84,0.48c-5,0.06-9.32-1.12-10.94-6.48c-1.69-5.6,2.43-10.38,9.23-10.48c20.45-0.31,40.9-0.44,61.35-0.6
		c21.11-0.17,42.22-0.31,63.34-0.41c8.64-0.04,10.51,1.44,12.8,10.01c23.12,86.78,46.23,173.56,69.34,260.33
		c0.56,2.09,1.19,4.17,1.9,6.66c97.98,0,195.78,0,293.63,0c-1.5,13.23-3.23,14.86-15.32,14.95c-93.69,0.68-187.37,1.33-281.06,2.08
		c-9.79,0.08-19.61,1.09-26.41,9.38c-7.04,8.58-7.98,18.56-3.93,28.59c4.31,10.67,13.32,16.02,24.37,16.25
		c24.18,0.49,48.38,0.21,72.56,0.09c85.99-0.46,171.98-0.98,257.97-1.48c0.22,0,0.44,0,0.66,0c7.48,0.04,11.03,2.66,11.15,8.23
		c0.12,5.68-3.77,8.79-11.4,8.84c-22.87,0.13-45.75,0.14-68.62,0.27c-84.45,0.48-168.9,1.09-253.36,1.3
		c-8.4,0.02-17.25-1.14-25.13-3.9c-18.38-6.43-28.23-23.18-27.23-43.62c0.93-18.96,11.99-32.87,30.54-38.42
		C274.35,364.09,275.35,363.66,277.12,363z"/>
	<linearGradient id="SVGID_1_" gradientUnits="userSpaceOnUse" x1="76.5509" y1="267.6028" x2="628.517" y2="267.6028">
		<stop  offset="0" style="stop-color:#FFFFFF;stop-opacity:0.4"/>
		<stop  offset="0.0691" style="stop-color:#FFFFFF;stop-opacity:0.3435"/>
		<stop  offset="0.4892" style="stop-color:#FFFFFF;stop-opacity:0"/>
		<stop  offset="0.7527" style="stop-color:#FAFAFA;stop-opacity:0.1032"/>
		<stop  offset="1" style="stop-color:#EFEFEF;stop-opacity:0.2"/>
	</linearGradient>
	<path class="st1" d="M277.12,363c-23-87.29-45.86-174.05-68.68-260.68c-24.95,0-49.34-0.06-73.73,0.02
		c-15.61,0.05-31.23,0.29-46.84,0.48c-5,0.06-9.32-1.12-10.94-6.48c-1.69-5.6,2.43-10.38,9.23-10.48c20.45-0.31,40.9-0.44,61.35-0.6
		c21.11-0.17,42.22-0.31,63.34-0.41c8.64-0.04,10.51,1.44,12.8,10.01c23.12,86.78,46.23,173.56,69.34,260.33
		c0.56,2.09,1.19,4.17,1.9,6.66c97.98,0,195.78,0,293.63,0c-1.5,13.23-3.23,14.86-15.32,14.95c-93.69,0.68-187.37,1.33-281.06,2.08
		c-9.79,0.08-19.61,1.09-26.41,9.38c-7.04,8.58-7.98,18.56-3.93,28.59c4.31,10.67,13.32,16.02,24.37,16.25
		c24.18,0.49,48.38,0.21,72.56,0.09c85.99-0.46,171.98-0.98,257.97-1.48c0.22,0,0.44,0,0.66,0c7.48,0.04,11.03,2.66,11.15,8.23
		c0.12,5.68-3.77,8.79-11.4,8.84c-22.87,0.13-45.75,0.14-68.62,0.27c-84.45,0.48-168.9,1.09-253.36,1.3
		c-8.4,0.02-17.25-1.14-25.13-3.9c-18.38-6.43-28.23-23.18-27.23-43.62c0.93-18.96,11.99-32.87,30.54-38.42
		C274.35,364.09,275.35,363.66,277.12,363z"/>
	<path class="st2" d="M387.33,177.89c39.88,0,79.55,0,119.97,0c-1.13,12.63-2.18,24.82-3.33,37.01
		c-1.15,12.24-2.56,24.46-3.49,36.72c-0.31,4.06-1.36,5.74-5.78,5.72c-31.85-0.16-63.71-0.02-95.56-0.25
		c-1.82-0.01-5.07-2.26-5.22-3.73c-2.57-24.45-4.76-48.95-7.01-73.43C386.87,179.5,387.08,179.07,387.33,177.89z"/>
	<path class="st0" d="M525.67,177.8c35.47,0,70.15,0,105.14,0c0,1.53,0.24,2.84-0.04,4.03c-5.56,23.51-11.23,46.98-16.71,70.51
		c-0.75,3.2-1.68,5-5.46,4.98c-29.03-0.14-58.06-0.09-87.09-0.13c-0.83,0-1.67-0.36-3.29-0.74
		C520.69,230.39,523.15,204.42,525.67,177.8z"/>
	<path class="st0" d="M266.52,177.8c34.13,0,67.49,0,101.77,0c2.51,26.17,5.02,52.27,7.59,79.02c-2.44,0.17-4.32,0.41-6.2,0.42
		c-26.16,0.02-52.32-0.11-78.48,0.13c-4.91,0.04-6.71-1.45-7.79-6.29c-5.15-22.91-10.78-45.71-16.22-68.56
		C266.89,181.27,266.82,179.97,266.52,177.8z"/>
	<path class="st0" d="M498.06,275.79c-2.17,22.71-4.29,44.92-6.43,67.35c-29.96,0-59.3,0-89.23,0c-2.15-22.41-4.28-44.62-6.46-67.35
		C429.97,275.79,463.44,275.79,498.06,275.79z"/>
	<path class="st2" d="M592.52,343.08c-27.86,0-55.01,0-82.62,0c2.17-22.6,4.29-44.81,6.45-67.27c30.73,0,61.08,0,92.1,0
		C603.06,298.53,597.83,320.66,592.52,343.08z"/>
	<path class="st2" d="M305.29,342.92c-5.21-21.96-10.47-44.09-15.89-66.94c29.42,0,58.45,0,88.26,0c2.13,21.99,4.28,44.2,6.48,66.94
		C357.87,342.92,331.86,342.92,305.29,342.92z"/>
	
		<linearGradient id="SVGID_00000177456596486149318900000014581974427118046109_" gradientUnits="userSpaceOnUse" x1="386.9066" y1="217.6118" x2="507.3008" y2="217.6118">
		<stop  offset="0" style="stop-color:#FFFFFF;stop-opacity:0.4"/>
		<stop  offset="0.0691" style="stop-color:#FFFFFF;stop-opacity:0.3435"/>
		<stop  offset="0.4892" style="stop-color:#FFFFFF;stop-opacity:0"/>
		<stop  offset="0.7527" style="stop-color:#FAFAFA;stop-opacity:0.1032"/>
		<stop  offset="1" style="stop-color:#EFEFEF;stop-opacity:0.2"/>
	</linearGradient>
	<path style="fill:url(#SVGID_00000177456596486149318900000014581974427118046109_);" d="M387.33,177.89c39.88,0,79.55,0,119.97,0
		c-1.13,12.63-2.18,24.82-3.33,37.01c-1.15,12.24-2.56,24.46-3.49,36.72c-0.31,4.06-1.36,5.74-5.78,5.72
		c-31.85-0.16-63.71-0.02-95.56-0.25c-1.82-0.01-5.07-2.26-5.22-3.73c-2.57-24.45-4.76-48.95-7.01-73.43
		C386.87,179.5,387.08,179.07,387.33,177.89z"/>
	
		<linearGradient id="SVGID_00000031204444760500943830000018365554076384021128_" gradientUnits="userSpaceOnUse" x1="518.2189" y1="217.5563" x2="630.9029" y2="217.5563">
		<stop  offset="0" style="stop-color:#FFFFFF;stop-opacity:0.4"/>
		<stop  offset="0.0691" style="stop-color:#FFFFFF;stop-opacity:0.3435"/>
		<stop  offset="0.4892" style="stop-color:#FFFFFF;stop-opacity:0"/>
		<stop  offset="0.7527" style="stop-color:#FAFAFA;stop-opacity:0.1032"/>
		<stop  offset="1" style="stop-color:#EFEFEF;stop-opacity:0.2"/>
	</linearGradient>
	<path style="fill:url(#SVGID_00000031204444760500943830000018365554076384021128_);" d="M525.67,177.8c35.47,0,70.15,0,105.14,0
		c0,1.53,0.24,2.84-0.04,4.03c-5.56,23.51-11.23,46.98-16.71,70.51c-0.75,3.2-1.68,5-5.46,4.98c-29.03-0.14-58.06-0.09-87.09-0.13
		c-0.83,0-1.67-0.36-3.29-0.74C520.69,230.39,523.15,204.42,525.67,177.8z"/>
	
		<linearGradient id="SVGID_00000115512850138874995930000006705400494482283930_" gradientUnits="userSpaceOnUse" x1="266.5237" y1="217.5799" x2="375.8841" y2="217.5799">
		<stop  offset="0" style="stop-color:#FFFFFF;stop-opacity:0.4"/>
		<stop  offset="0.0691" style="stop-color:#FFFFFF;stop-opacity:0.3435"/>
		<stop  offset="0.4892" style="stop-color:#FFFFFF;stop-opacity:0"/>
		<stop  offset="0.7527" style="stop-color:#FAFAFA;stop-opacity:0.1032"/>
		<stop  offset="1" style="stop-color:#EFEFEF;stop-opacity:0.2"/>
	</linearGradient>
	<path style="fill:url(#SVGID_00000115512850138874995930000006705400494482283930_);" d="M266.52,177.8c34.13,0,67.49,0,101.77,0
		c2.51,26.17,5.02,52.27,7.59,79.02c-2.44,0.17-4.32,0.41-6.2,0.42c-26.16,0.02-52.32-0.11-78.48,0.13
		c-4.91,0.04-6.71-1.45-7.79-6.29c-5.15-22.91-10.78-45.71-16.22-68.56C266.89,181.27,266.82,179.97,266.52,177.8z"/>
	
		<linearGradient id="SVGID_00000044875815897532967180000007340677242016389803_" gradientUnits="userSpaceOnUse" x1="395.9371" y1="309.4615" x2="498.0606" y2="309.4615">
		<stop  offset="0" style="stop-color:#FFFFFF;stop-opacity:0.4"/>
		<stop  offset="0.0691" style="stop-color:#FFFFFF;stop-opacity:0.3435"/>
		<stop  offset="0.4892" style="stop-color:#FFFFFF;stop-opacity:0"/>
		<stop  offset="0.7527" style="stop-color:#FAFAFA;stop-opacity:0.1032"/>
		<stop  offset="1" style="stop-color:#EFEFEF;stop-opacity:0.2"/>
	</linearGradient>
	<path style="fill:url(#SVGID_00000044875815897532967180000007340677242016389803_);" d="M498.06,275.79
		c-2.17,22.71-4.29,44.92-6.43,67.35c-29.96,0-59.3,0-89.23,0c-2.15-22.41-4.28-44.62-6.46-67.35
		C429.97,275.79,463.44,275.79,498.06,275.79z"/>
	
		<linearGradient id="SVGID_00000119116766741249067190000003001473927700725902_" gradientUnits="userSpaceOnUse" x1="509.8972" y1="309.4383" x2="608.4404" y2="309.4383">
		<stop  offset="0" style="stop-color:#FFFFFF;stop-opacity:0.4"/>
		<stop  offset="0.0691" style="stop-color:#FFFFFF;stop-opacity:0.3435"/>
		<stop  offset="0.4892" style="stop-color:#FFFFFF;stop-opacity:0"/>
		<stop  offset="0.7527" style="stop-color:#FAFAFA;stop-opacity:0.1032"/>
		<stop  offset="1" style="stop-color:#EFEFEF;stop-opacity:0.2"/>
	</linearGradient>
	<path style="fill:url(#SVGID_00000119116766741249067190000003001473927700725902_);" d="M592.52,343.08c-27.86,0-55.01,0-82.62,0
		c2.17-22.6,4.29-44.81,6.45-67.27c30.73,0,61.08,0,92.1,0C603.06,298.53,597.83,320.66,592.52,343.08z"/>
	
		<linearGradient id="SVGID_00000088827197402882097680000011628361441189975982_" gradientUnits="userSpaceOnUse" x1="289.3967" y1="309.4518" x2="384.1454" y2="309.4518">
		<stop  offset="0" style="stop-color:#FFFFFF;stop-opacity:0.4"/>
		<stop  offset="0.0691" style="stop-color:#FFFFFF;stop-opacity:0.3435"/>
		<stop  offset="0.4892" style="stop-color:#FFFFFF;stop-opacity:0"/>
		<stop  offset="0.7527" style="stop-color:#FAFAFA;stop-opacity:0.1032"/>
		<stop  offset="1" style="stop-color:#EFEFEF;stop-opacity:0.2"/>
	</linearGradient>
	<path style="fill:url(#SVGID_00000088827197402882097680000011628361441189975982_);" d="M305.29,342.92
		c-5.21-21.96-10.47-44.09-15.89-66.94c29.42,0,58.45,0,88.26,0c2.13,21.99,4.28,44.2,6.48,66.94
		C357.87,342.92,331.86,342.92,305.29,342.92z"/>
	<path class="st2" d="M489.72,518.42c0.16-20.08,16.63-36.37,36.75-36.34c20.25,0.03,36.87,16.95,36.59,37.25
		c-0.28,20.08-16.86,36.44-36.85,36.36C505.89,555.61,489.56,538.93,489.72,518.42z"/>
	<path class="st2" d="M274.47,520.35c-0.08-20.45,16.44-37.04,36.77-36.94c20.08,0.1,36.34,16.47,36.42,36.65
		c0.08,20.43-16.48,37.06-36.79,36.95C290.78,556.9,274.55,540.55,274.47,520.35z"/>
	<path class="st0" d="M153.41,310.63c-24.41,0-48.82,0.01-73.23,0c-7.41,0-11.14-2.68-11.33-8.07c-0.2-5.5,3.92-8.84,11.41-8.88
		c49.26-0.27,98.52-0.49,147.78-0.68c6.77-0.03,10.54,2.94,10.73,8.05c0.2,5.29-3.84,8.82-10.81,8.85
		c-24.85,0.09-49.7,0.04-74.55,0.04C153.41,310.16,153.41,310.39,153.41,310.63z"/>
	<path class="st2" d="M97.13,242.95c-24.41,0-48.81,0.02-73.22-0.01c-7.08-0.01-11.04-3.06-11.14-8.43
		c-0.1-5.4,3.81-8.59,10.84-8.65c48.81-0.36,97.62-0.7,146.43-1.04c1.1-0.01,2.2-0.05,3.3,0.03c5.26,0.38,8.83,2.72,9.09,8.4
		c0.23,5.21-3.3,8.48-9.45,8.55c-18.25,0.21-36.5,0.27-54.75,0.37c-7.04,0.04-14.07,0.01-21.11,0.01
		C97.13,242.44,97.13,242.69,97.13,242.95z"/>
</g>
</svg>
