<?xml version="1.0" encoding="utf-8"?>
<!-- Generator: Adobe Illustrator 26.2.1, SVG Export Plug-In . SVG Version: 6.00 Build 0)  -->
<svg version="1.1" id="report" xmlns="http://www.w3.org/2000/svg" xmlns:xlink="http://www.w3.org/1999/xlink" x="0px" y="0px"
	 viewBox="0 0 640.62 640.62" style="enable-background:new 0 0 640.62 640.62;" xml:space="preserve">
<style type="text/css">
	.st0{fill:#5800B2;}
	.st1{fill:url(#SVGID_1_);}
	.st2{fill:#360061;}
	.st3{fill:url(#SVGID_00000003103989192309003850000006162420861729872260_);}
	.st4{fill:url(#SVGID_00000021092132637704390790000002336399776937632649_);}
</style>
<g>
	<path class="st0" d="M618.69,5.97c5.89,3.19,7.77,8.1,7.63,14.74c-0.35,16.55-0.12,33.12-0.12,50.05c-202.7,0-404.89,0-607.71,0
		c-0.11-1.88-0.31-3.83-0.31-5.79c-0.03-14.76,0.24-29.52-0.13-44.27c-0.17-6.64,1.73-11.55,7.63-14.73
		C223.35,5.97,421.02,5.97,618.69,5.97z M533.8,27.81c-1.23,0-2.46,0-3.69,0c-18.23,0-36.46-0.08-54.69,0.05
		c-8.42,0.06-13.62,6.13-11.59,13.43c1.68,6.04,6.23,8.09,12.2,8.08c22.53-0.07,45.06-0.02,67.59-0.02
		c16.18,0,32.36-0.04,48.54,0.01c5.71,0.02,10.07-1.99,11.78-7.77c2.18-7.35-2.84-13.65-11.17-13.71
		C573.13,27.72,553.46,27.82,533.8,27.81z M322.05,49.33c10.25,0,20.5,0.08,30.75-0.02c8.23-0.08,12.74-4.09,12.64-10.93
		c-0.09-6.62-4.49-10.51-12.38-10.54c-20.5-0.08-41-0.07-61.5,0c-8.23,0.03-12.74,4.03-12.64,10.89
		c0.09,6.61,4.49,10.49,12.37,10.58C301.55,49.42,311.8,49.33,322.05,49.33z M61.41,38.52c-0.01-6.1-4.76-10.72-10.91-10.64
		c-5.92,0.08-10.41,4.5-10.55,10.39c-0.15,6.15,4.46,10.9,10.6,10.95C56.69,49.28,61.42,44.62,61.41,38.52z M104.79,38.4
		c-0.07-6.15-4.8-10.67-11-10.53c-5.89,0.14-10.32,4.62-10.4,10.51c-0.08,6.15,4.55,10.83,10.7,10.84
		C100.24,49.24,104.87,44.56,104.79,38.4z M137.69,49.22c6.02-0.06,10.92-5.07,10.73-10.97c-0.19-5.71-4.93-10.3-10.71-10.37
		c-6.07-0.07-11.02,4.71-11.02,10.66C126.67,44.47,131.64,49.28,137.69,49.22z"/>
	<linearGradient id="SVGID_1_" gradientUnits="userSpaceOnUse" x1="18.0376" y1="38.3647" x2="626.3276" y2="38.3647">
		<stop  offset="0" style="stop-color:#FFFFFF;stop-opacity:0.4"/>
		<stop  offset="0.0691" style="stop-color:#FFFFFF;stop-opacity:0.3435"/>
		<stop  offset="0.4892" style="stop-color:#FFFFFF;stop-opacity:0"/>
		<stop  offset="0.7527" style="stop-color:#FAFAFA;stop-opacity:0.1032"/>
		<stop  offset="1" style="stop-color:#EFEFEF;stop-opacity:0.2"/>
	</linearGradient>
	<path class="st1" d="M618.69,5.97c5.89,3.19,7.77,8.1,7.63,14.74c-0.35,16.55-0.12,33.12-0.12,50.05c-202.7,0-404.89,0-607.71,0
		c-0.11-1.88-0.31-3.83-0.31-5.79c-0.03-14.76,0.24-29.52-0.13-44.27c-0.17-6.64,1.73-11.55,7.63-14.73
		C223.35,5.97,421.02,5.97,618.69,5.97z M533.8,27.81c-1.23,0-2.46,0-3.69,0c-18.23,0-36.46-0.08-54.69,0.05
		c-8.42,0.06-13.62,6.13-11.59,13.43c1.68,6.04,6.23,8.09,12.2,8.08c22.53-0.07,45.06-0.02,67.59-0.02
		c16.18,0,32.36-0.04,48.54,0.01c5.71,0.02,10.07-1.99,11.78-7.77c2.18-7.35-2.84-13.65-11.17-13.71
		C573.13,27.72,553.46,27.82,533.8,27.81z M322.05,49.33c10.25,0,20.5,0.08,30.75-0.02c8.23-0.08,12.74-4.09,12.64-10.93
		c-0.09-6.62-4.49-10.51-12.38-10.54c-20.5-0.08-41-0.07-61.5,0c-8.23,0.03-12.74,4.03-12.64,10.89
		c0.09,6.61,4.49,10.49,12.37,10.58C301.55,49.42,311.8,49.33,322.05,49.33z M61.41,38.52c-0.01-6.1-4.76-10.72-10.91-10.64
		c-5.92,0.08-10.41,4.5-10.55,10.39c-0.15,6.15,4.46,10.9,10.6,10.95C56.69,49.28,61.42,44.62,61.41,38.52z M104.79,38.4
		c-0.07-6.15-4.8-10.67-11-10.53c-5.89,0.14-10.32,4.62-10.4,10.51c-0.08,6.15,4.55,10.83,10.7,10.84
		C100.24,49.24,104.87,44.56,104.79,38.4z M137.69,49.22c6.02-0.06,10.92-5.07,10.73-10.97c-0.19-5.71-4.93-10.3-10.71-10.37
		c-6.07-0.07-11.02,4.71-11.02,10.66C126.67,44.47,131.64,49.28,137.69,49.22z"/>
	<path class="st2" d="M321.69,205.7c-11.06-20.38-26.93-35.09-48.31-43.76c-7.99-3.24-16.06-5.02-24.56-2.81
		c-13.54,3.52-23.34,15.54-24.11,29.31c-0.82,14.77,7.17,27.65,21.11,32.68c10.42,3.76,17.7,10.17,20.42,21.01
		c0.52,2.08,0.34,5.26-0.92,6.71c-14.41,16.51-19.97,35.87-19.27,57.39c0.03,1-0.1,2-0.19,3.46c-27.57,2.34-45.42,16.76-53.25,43.66
		c-9.35-2.79-18.33-5.47-28.08-8.38c1.2-2.21,2.19-4.11,3.25-5.97c6.8-11.92,13.78-23.74,20.37-35.77
		c8.89-16.22,3.67-35.38-11.8-44.34c-15.77-9.14-35.08-3.93-44.68,12.29c-7.82,13.22-15.33,26.62-22.99,39.94
		c-11.06,19.22-12.32,39.1-4,59.62c0.51,1.25,0.93,2.53,1.45,3.94c-4.82-0.5-9.26-1.53-13.64-1.31
		c-22.85,1.16-36.95,23.62-28.31,45.18c5.02,12.54,10.59,24.86,15.89,37.28c0.78,1.82,1.43,3.7,2.4,6.23
		c-18.64,0-36.6,0.23-54.54-0.13c-5.87-0.12-9.36-4.7-9.72-10.73c-0.08-1.43-0.04-2.87-0.04-4.3c0-115.64,0-231.27,0-346.91
		c0-2.02,0-4.05,0-6.57c202.63,0,404.87,0,608.04,0c0,2.02,0,4.18,0,6.35c0,115.84,0,231.68,0,347.52c0,11.61-3.34,14.9-15.07,14.91
		c-15.73,0.01-31.47,0-48.19,0c1.79-4.26,3.25-7.78,4.74-11.29c4.42-10.35,8.85-20.7,13.28-31.05c5.4-12.61,4.37-24.61-4.63-35.09
		c-9.13-10.63-20.92-13.76-34.48-10.01c-0.55,0.15-1.16,0.08-2.22,0.14c1.72-5.2,3.76-10.05,4.92-15.09
		c3.73-16.21,1.75-31.81-6.36-46.4c-7.86-14.14-15.91-28.18-24.13-42.12c-9.59-16.26-28.9-21.54-44.63-12.48
		c-15.7,9.05-20.84,28.38-11.72,44.87c7.52,13.6,15.29,27.06,23.32,41.24c-9.99,3.01-19.45,5.85-29.27,8.81
		c-7.68-27.06-25.37-41.63-52.92-44c-0.6-7.99-0.66-15.8-1.88-23.43c-2.13-13.41-7.7-25.47-16.72-35.69
		c-2.68-3.03-3.16-5.73-1.99-9.43c3.24-10.17,9.99-16.4,19.98-20c21.1-7.59,28.39-32.92,14.82-50.54
		c-8.03-10.44-21.87-15.08-34.67-11.21c-22.74,6.88-40.2,20.69-52.61,40.92c-0.96,1.57-1.91,3.15-2.88,4.71
		C322.83,205.19,322.59,205.23,321.69,205.7z M164.84,125.41c-15.58,0-31.16-0.04-46.75,0.01c-8.09,0.03-12.91,4.07-13,10.73
		c-0.09,6.65,4.77,11.04,12.71,11.06c31.16,0.07,62.33,0.06,93.49,0.01c8.04-0.01,12.92-4.2,13-10.78
		c0.08-6.87-4.84-10.99-13.33-11.02C195.59,125.38,180.22,125.41,164.84,125.41z M93.95,190.56c13.73,0,27.45,0.03,41.18-0.01
		c8.09-0.03,13.06-4,13.29-10.49c0.23-6.64-4.94-11.22-13.26-11.24c-27.45-0.09-54.91-0.09-82.36,0.01
		c-8.09,0.03-12.85,4.29-12.85,10.91c0,6.72,4.73,10.78,12.82,10.81C66.5,190.6,80.22,190.56,93.95,190.56z M61.26,147.15
		c3.89,0,7.81,0.28,11.67-0.06c6.16-0.55,10.43-5.32,10.32-10.98c-0.11-5.7-4.52-10.37-10.68-10.61c-7.37-0.28-14.76-0.29-22.13,0
		c-6.24,0.25-10.42,4.8-10.49,10.66c-0.07,5.85,3.99,10.38,10.25,10.93C53.86,147.42,57.58,147.16,61.26,147.15z M61.54,212.52
		c-3.89,0-7.79-0.21-11.66,0.05c-5.87,0.4-9.85,4.76-9.94,10.45c-0.08,5.68,3.76,10.41,9.63,10.69c7.96,0.39,15.97,0.38,23.93,0
		c5.72-0.28,9.86-5.26,9.77-10.68c-0.09-5.45-4.35-10.07-10.07-10.46C69.33,212.31,65.43,212.52,61.54,212.52z"/>
	
		<linearGradient id="SVGID_00000078003988426238424250000002781714679039895686_" gradientUnits="userSpaceOnUse" x1="18.1538" y1="277.8103" x2="626.2041" y2="277.8103">
		<stop  offset="0" style="stop-color:#FFFFFF;stop-opacity:0.4"/>
		<stop  offset="0.0691" style="stop-color:#FFFFFF;stop-opacity:0.3435"/>
		<stop  offset="0.4892" style="stop-color:#FFFFFF;stop-opacity:0"/>
		<stop  offset="0.7527" style="stop-color:#FAFAFA;stop-opacity:0.1032"/>
		<stop  offset="1" style="stop-color:#EFEFEF;stop-opacity:0.2"/>
	</linearGradient>
	<path style="fill:url(#SVGID_00000078003988426238424250000002781714679039895686_);" d="M321.69,205.7
		c-11.06-20.38-26.93-35.09-48.31-43.76c-7.99-3.24-16.06-5.02-24.56-2.81c-13.54,3.52-23.34,15.54-24.11,29.31
		c-0.82,14.77,7.17,27.65,21.11,32.68c10.42,3.76,17.7,10.17,20.42,21.01c0.52,2.08,0.34,5.26-0.92,6.71
		c-14.41,16.51-19.97,35.87-19.27,57.39c0.03,1-0.1,2-0.19,3.46c-27.57,2.34-45.42,16.76-53.25,43.66
		c-9.35-2.79-18.33-5.47-28.08-8.38c1.2-2.21,2.19-4.11,3.25-5.97c6.8-11.92,13.78-23.74,20.37-35.77
		c8.89-16.22,3.67-35.38-11.8-44.34c-15.77-9.14-35.08-3.93-44.68,12.29c-7.82,13.22-15.33,26.62-22.99,39.94
		c-11.06,19.22-12.32,39.1-4,59.62c0.51,1.25,0.93,2.53,1.45,3.94c-4.82-0.5-9.26-1.53-13.64-1.31
		c-22.85,1.16-36.95,23.62-28.31,45.18c5.02,12.54,10.59,24.86,15.89,37.28c0.78,1.82,1.43,3.7,2.4,6.23
		c-18.64,0-36.6,0.23-54.54-0.13c-5.87-0.12-9.36-4.7-9.72-10.73c-0.08-1.43-0.04-2.87-0.04-4.3c0-115.64,0-231.27,0-346.91
		c0-2.02,0-4.05,0-6.57c202.63,0,404.87,0,608.04,0c0,2.02,0,4.18,0,6.35c0,115.84,0,231.68,0,347.52c0,11.61-3.34,14.9-15.07,14.91
		c-15.73,0.01-31.47,0-48.19,0c1.79-4.26,3.25-7.78,4.74-11.29c4.42-10.35,8.85-20.7,13.28-31.05c5.4-12.61,4.37-24.61-4.63-35.09
		c-9.13-10.63-20.92-13.76-34.48-10.01c-0.55,0.15-1.16,0.08-2.22,0.14c1.72-5.2,3.76-10.05,4.92-15.09
		c3.73-16.21,1.75-31.81-6.36-46.4c-7.86-14.14-15.91-28.18-24.13-42.12c-9.59-16.26-28.9-21.54-44.63-12.48
		c-15.7,9.05-20.84,28.38-11.72,44.87c7.52,13.6,15.29,27.06,23.32,41.24c-9.99,3.01-19.45,5.85-29.27,8.81
		c-7.68-27.06-25.37-41.63-52.92-44c-0.6-7.99-0.66-15.8-1.88-23.43c-2.13-13.41-7.7-25.47-16.72-35.69
		c-2.68-3.03-3.16-5.73-1.99-9.43c3.24-10.17,9.99-16.4,19.98-20c21.1-7.59,28.39-32.92,14.82-50.54
		c-8.03-10.44-21.87-15.08-34.67-11.21c-22.74,6.88-40.2,20.69-52.61,40.92c-0.96,1.57-1.91,3.15-2.88,4.71
		C322.83,205.19,322.59,205.23,321.69,205.7z M164.84,125.41c-15.58,0-31.16-0.04-46.75,0.01c-8.09,0.03-12.91,4.07-13,10.73
		c-0.09,6.65,4.77,11.04,12.71,11.06c31.16,0.07,62.33,0.06,93.49,0.01c8.04-0.01,12.92-4.2,13-10.78
		c0.08-6.87-4.84-10.99-13.33-11.02C195.59,125.38,180.22,125.41,164.84,125.41z M93.95,190.56c13.73,0,27.45,0.03,41.18-0.01
		c8.09-0.03,13.06-4,13.29-10.49c0.23-6.64-4.94-11.22-13.26-11.24c-27.45-0.09-54.91-0.09-82.36,0.01
		c-8.09,0.03-12.85,4.29-12.85,10.91c0,6.72,4.73,10.78,12.82,10.81C66.5,190.6,80.22,190.56,93.95,190.56z M61.26,147.15
		c3.89,0,7.81,0.28,11.67-0.06c6.16-0.55,10.43-5.32,10.32-10.98c-0.11-5.7-4.52-10.37-10.68-10.61c-7.37-0.28-14.76-0.29-22.13,0
		c-6.24,0.25-10.42,4.8-10.49,10.66c-0.07,5.85,3.99,10.38,10.25,10.93C53.86,147.42,57.58,147.16,61.26,147.15z M61.54,212.52
		c-3.89,0-7.79-0.21-11.66,0.05c-5.87,0.4-9.85,4.76-9.94,10.45c-0.08,5.68,3.76,10.41,9.63,10.69c7.96,0.39,15.97,0.38,23.93,0
		c5.72-0.28,9.86-5.26,9.77-10.68c-0.09-5.45-4.35-10.07-10.07-10.46C69.33,212.31,65.43,212.52,61.54,212.52z"/>
	<path class="st2" d="M333.13,613.07c0-2.3,0-4.71,0-7.13c0-53.5,0-107-0.01-160.5c0-2.25,0.11-4.55-0.28-6.74
		c-0.97-5.42-5.61-9.23-10.77-9.16c-5.21,0.07-9.7,3.93-10.59,9.39c-0.36,2.2-0.23,4.5-0.23,6.75
		c-0.01,53.29-0.01,106.59-0.01,159.88c0,2.43,0,4.86,0,7.82c-13.47-1.07-25.75-4.54-37.15-10.6
		c-38.07-20.25-59.26-51.88-60.15-95.16c-0.98-47.53-0.34-95.1-0.21-142.66c0.06-19.29,13.68-32.99,32.93-33.05
		c50.42-0.16,100.85-0.16,151.27,0.01c18.94,0.06,32.61,13.71,32.68,32.66c0.17,47.96,0.51,95.93-0.12,143.89
		c-0.71,53.69-42.25,98.76-95.53,104.91C334.58,613.43,334.18,613.26,333.13,613.07z M333.05,386.31c0.01,0,0.02,0,0.03,0
		c0-3.69,0.21-7.39-0.05-11.07c-0.45-6.51-5.2-11.01-11.1-10.86c-5.69,0.14-10.32,4.5-10.58,10.72c-0.31,7.37-0.33,14.77,0.02,22.13
		c0.29,6.21,5.01,10.49,10.74,10.53c5.73,0.04,10.35-4.2,10.88-10.39C333.31,393.71,333.05,390,333.05,386.31z"/>
	
		<linearGradient id="SVGID_00000080177039167133426680000002547316782675521471_" gradientUnits="userSpaceOnUse" x1="213.403" y1="472.6001" x2="430.8577" y2="472.6001">
		<stop  offset="0" style="stop-color:#FFFFFF;stop-opacity:0.4"/>
		<stop  offset="0.0691" style="stop-color:#FFFFFF;stop-opacity:0.3435"/>
		<stop  offset="0.4892" style="stop-color:#FFFFFF;stop-opacity:0"/>
		<stop  offset="0.7527" style="stop-color:#FAFAFA;stop-opacity:0.1032"/>
		<stop  offset="1" style="stop-color:#EFEFEF;stop-opacity:0.2"/>
	</linearGradient>
	<path style="fill:url(#SVGID_00000080177039167133426680000002547316782675521471_);" d="M333.13,613.07c0-2.3,0-4.71,0-7.13
		c0-53.5,0-107-0.01-160.5c0-2.25,0.11-4.55-0.28-6.74c-0.97-5.42-5.61-9.23-10.77-9.16c-5.21,0.07-9.7,3.93-10.59,9.39
		c-0.36,2.2-0.23,4.5-0.23,6.75c-0.01,53.29-0.01,106.59-0.01,159.88c0,2.43,0,4.86,0,7.82c-13.47-1.07-25.75-4.54-37.15-10.6
		c-38.07-20.25-59.26-51.88-60.15-95.16c-0.98-47.53-0.34-95.1-0.21-142.66c0.06-19.29,13.68-32.99,32.93-33.05
		c50.42-0.16,100.85-0.16,151.27,0.01c18.94,0.06,32.61,13.71,32.68,32.66c0.17,47.96,0.51,95.93-0.12,143.89
		c-0.71,53.69-42.25,98.76-95.53,104.91C334.58,613.43,334.18,613.26,333.13,613.07z M333.05,386.31c0.01,0,0.02,0,0.03,0
		c0-3.69,0.21-7.39-0.05-11.07c-0.45-6.51-5.2-11.01-11.1-10.86c-5.69,0.14-10.32,4.5-10.58,10.72c-0.31,7.37-0.33,14.77,0.02,22.13
		c0.29,6.21,5.01,10.49,10.74,10.53c5.73,0.04,10.35-4.2,10.88-10.39C333.31,393.71,333.05,390,333.05,386.31z"/>
	<path class="st0" d="M376.15,309.72c-36.01,0-71.61,0-107.75,0c-2.33-21.08,2.9-39.45,20.1-52.85
		c18.18-14.17,38.43-16.29,58.79-5.57C370.26,263.38,378.26,283.87,376.15,309.72z"/>
	<path class="st0" d="M449.27,535.69c1.09-6.94,2.12-13.56,3.44-21.99c17.81,6.3,35.03,12.37,52.21,18.53
		c1.29,0.46,2.37,1.59,3.48,2.5c16.14,13.22,20.96,35.23,11.17,53.79c-7.35,13.93-15.38,27.5-23.3,41.11
		c-3.6,6.19-9.67,7.92-15.13,4.85c-5.62-3.16-7.15-9.51-3.51-16c6.8-12.14,13.81-24.16,20.7-36.25c9.44-16.56,4.08-29.91-14.3-35.55
		c-11.14-3.42-22.3-6.75-33.45-10.14C450.22,536.44,449.91,536.12,449.27,535.69z"/>
	<path class="st0" d="M452.56,398.89c0-7.07-0.26-13.4,0.19-19.68c0.11-1.49,2.32-3.53,3.97-4.08c9.51-3.15,19.17-5.84,28.73-8.84
		c16.56-5.18,22.02-19.14,13.43-34.34c-6.85-12.11-13.87-24.13-20.74-36.23c-4.02-7.09-2.95-13.26,2.7-16.63
		c5.88-3.51,12.01-1.31,16.22,5.98c7.06,12.23,14.15,24.44,21.03,36.77c14.81,26.52,3.3,55.82-25.61,65.04
		C479.47,391.04,466.33,394.76,452.56,398.89z"/>
	<path class="st0" d="M191.84,514.78c1.2,7.79,2.23,14.43,3.37,21.79c-11.6,3.53-23.27,7.03-34.91,10.66
		c-2.71,0.85-5.51,1.79-7.86,3.3c-9.73,6.27-12.49,18.41-6.51,29.22c6.74,12.17,13.8,24.17,20.72,36.24
		c0.81,1.42,1.7,2.82,2.34,4.32c2.4,5.66,0.43,11.55-4.68,14.28c-4.96,2.65-10.98,1.52-14-3.64c-8.9-15.18-18.41-30.12-25.78-46.03
		c-9.86-21.29,0.6-47.01,22.42-55.85C161.26,523.26,176.42,519.6,191.84,514.78z"/>
	<path class="st0" d="M191.8,398.7c-15.48-4.87-30.64-8.61-44.98-14.38c-22.06-8.88-32.23-35.69-21.77-57.09
		c7.44-15.23,16.4-29.73,24.95-44.4c3.22-5.52,9.85-6.84,14.96-3.69c5.06,3.12,6.65,9.22,3.39,15.1
		c-6.84,12.35-13.96,24.54-20.95,36.81c-9.5,16.67-4.16,30.08,14.12,35.54c8.82,2.63,17.65,5.22,26.38,8.11
		c1.53,0.51,3.63,2.35,3.71,3.68C192.01,384.87,191.8,391.39,191.8,398.7z"/>
	<path class="st0" d="M452.8,468.75c0-7.91,0-15.23,0-23.3c12.5,4.65,24.54,9.12,36.58,13.61c16.98,6.34,26.54,2.25,33.72-14.46
		c5.98-13.91,11.87-27.87,17.97-41.73c2.87-6.53,8.61-9.02,14.43-6.71c5.5,2.19,8.23,8.28,5.71,14.3
		c-7.02,16.8-13.76,33.76-21.69,50.14c-8.83,18.24-29.85,27.3-49.35,21.55C477.46,478.41,465.17,473.24,452.8,468.75z"/>
	<path class="st0" d="M191.81,445.79c0,7.36,0.29,13.51-0.18,19.61c-0.14,1.8-2.03,4.32-3.73,5.01
		c-9.66,3.92-19.41,7.65-29.29,10.96c-22.06,7.39-44.64-2.56-54.1-23.85c-6.73-15.13-13.14-30.41-19.59-45.66
		c-2.89-6.83-0.76-13.13,4.98-15.6c5.93-2.54,11.84,0.07,14.83,6.91c6.22,14.24,12.24,28.57,18.38,42.85
		c6.3,14.65,16.86,19.2,31.71,13.66C166.84,455.2,178.85,450.66,191.81,445.79z"/>
	<path class="st0" d="M358.58,231.87c-7.1-2.65-13.58-5.07-20.38-7.61c8.58-21.95,23.76-36.83,46.25-43.97
		c5.85-1.86,11.41,1.06,13.44,6.49c2.1,5.63-0.44,11.63-6.66,13.82C375.65,206.09,364.67,216.24,358.58,231.87z"/>
	<path class="st0" d="M306.14,224.32c-6.92,2.57-13.4,4.98-19.57,7.28c-3.55-5.42-6.21-11.84-10.88-16.02
		c-6.42-5.74-14.13-10.17-21.72-14.4c-6.24-3.48-9.17-8.41-6.91-14.38c2.16-5.7,7.66-8.32,14.07-6.15
		C283,188.07,297.84,202.75,306.14,224.32z"/>
	<path class="st2" d="M144.42,440.46c-5.87-13.74-11.51-26.94-16.95-39.67c21.51,6.95,42.72,13.8,65.77,21.25
		C176.21,428.47,160.72,434.31,144.42,440.46z"/>
	<path class="st2" d="M518.24,400.69c-5.19,12.15-10.93,25.6-16.93,39.64c-16.03-5.99-31.81-11.89-48.56-18.15
		C475.37,414.75,497.04,407.64,518.24,400.69z"/>
</g>
</svg>
