<?xml version="1.0" encoding="utf-8"?>
<!-- Generator: Adobe Illustrator 26.2.1, SVG Export Plug-In . SVG Version: 6.00 Build 0)  -->
<svg version="1.1" id="report" xmlns="http://www.w3.org/2000/svg" xmlns:xlink="http://www.w3.org/1999/xlink" x="0px" y="0px"
	 viewBox="0 0 640.62 640.62" style="enable-background:new 0 0 640.62 640.62;" xml:space="preserve">
<style type="text/css">
	.st0{fill-rule:evenodd;clip-rule:evenodd;fill:#202843;}
	.st1{fill-rule:evenodd;clip-rule:evenodd;fill:#FFC94C;}
</style>
<g id="g76" transform="matrix(1, 0, 0, 1, 76.408318, 130.171539)">
	<g id="g50">
		<path id="path48" class="st0" d="M546.96,293.58c57.13-167.38-32.25-349.37-199.62-406.5C179.96-170.04-2.03-80.66-59.15,86.7
			c-57.13,167.38,32.25,349.37,199.62,406.5C307.85,550.32,489.84,460.94,546.96,293.58"/>
	</g>
	<path id="path54" class="st1" d="M-27.24,360.52c49.84-23.78,219.45-107.03,252.88-126.63c27.45-16,68.34-39.59,68.34-39.59
		l17.34,35.35l26.48,174.19l20.23-11.68l13.45-243.3c40.87-25.55,76.88-50.41,114.56-76.42c13.82-9.54,27.86-19.24,42.44-29.17
		c-4.62-8.93-9.65-17.63-15.06-26.06c-15.9,7.66-31.31,14.96-46.46,22.16c-41.38,19.63-80.91,38.38-123.48,60.99L126.06-9.61
		L105.83,2.06l137.61,110.02l21.9,32.63l0.04,0.06c0,0-40.87,23.6-68.46,39.39C163.24,203.32,6.3,308.61-39.2,339.86
		C-35.46,346.9-31.48,353.79-27.24,360.52"/>
</g>
</svg>
