<?xml version="1.0" encoding="UTF-8"?>
<svg id="report" xmlns="http://www.w3.org/2000/svg" version="1.1" xmlns:xlink="http://www.w3.org/1999/xlink" viewBox="0 0 640.62 640.62">
  <defs>
    <style>
      .cls-1 {
        fill: #360061;
      }

      .cls-1, .cls-2, .cls-3, .cls-4 {
        stroke-width: 0px;
      }

      .cls-2 {
        fill: url(#linear-gradient);
      }

      .cls-3 {
        fill: #5800b2;
      }

      .cls-4 {
        fill: url(#linear-gradient-2);
      }
    </style>
    <linearGradient id="linear-gradient" x1="42.74" y1="109.13" x2="565.86" y2="612.32" gradientUnits="userSpaceOnUse">
      <stop offset="0" stop-color="#fff" stop-opacity=".4"/>
      <stop offset=".07" stop-color="#fff" stop-opacity=".34"/>
      <stop offset=".49" stop-color="#fff" stop-opacity="0"/>
      <stop offset=".75" stop-color="#fafafa" stop-opacity=".1"/>
      <stop offset="1" stop-color="#efefef" stop-opacity=".2"/>
    </linearGradient>
    <linearGradient id="linear-gradient-2" x1="68.77" y1="82.07" x2="591.89" y2="585.26" xlink:href="#linear-gradient"/>
  </defs>
  <g>
    <path class="cls-3" d="M49.36,270.58c0-9.53,0-19.06,0-28.59,1.03-6.95,1.95-13.92,3.1-20.85C72,103.66,189.75,26.49,305.61,55.2c135.56,33.59,199.84,188.08,128.08,307.82-56.73,94.65-178.89,128.03-275.83,75.16-4.93-2.69-9.03-3.05-14.29-1.56-29.82,8.46-59.74,16.58-89.63,24.79-1.05.29-2.17.33-3.67.55,8.87-31.99,17.52-63.4,26.35-94.75,1.13-4.01.74-7.15-1.35-10.86-9.68-17.12-16.8-35.32-20.72-54.63-2.1-10.31-3.47-20.76-5.17-31.15ZM272.26,304.16c0-6.79-.32-13.31.15-19.77.19-2.64,1.45-5.8,3.31-7.62,8.32-8.14,17.29-15.61,25.54-23.82,25.5-25.38,24.62-67.11-1.68-91.36-26.74-24.66-68.06-22.26-91.56,5.44-9.89,11.66-15.02,25.14-15.02,40.83,2.09.09,3.64.22,5.2.23,8.61.02,17.23,0,26.07,0,.31-1.92.58-3.45.8-4.99,2.12-14.62,14.99-26.16,29.82-26.74,13.15-.51,25.23,6.95,30.5,18.84,5.29,11.93,2.94,25.92-6.59,35.17-9.74,9.46-19.58,18.89-30.07,27.48-6.54,5.36-9.03,11.18-8.39,19.47.69,8.86.15,17.82.15,26.81h31.76ZM272.02,367.69v-31.12h-31.27v31.12h31.27Z"/>
    <path class="cls-1" d="M403.04,591.43c-11.05-2.1-22.32-3.41-33.1-6.45-47.65-13.46-83.45-42.18-107.73-85.3-.68-1.21-1.24-2.49-2.22-4.46,64.2-2.18,119.53-24.9,164.79-70.06,45.38-45.28,68.22-100.62,70.5-165.31,2.15,1.11,4,1.94,5.74,2.98,61.4,36.69,91.8,90.83,90.17,162.32-.62,27-8.46,52.44-21.77,76.03-1.69,2.99-2,5.61-1.07,8.91,7.46,26.44,14.76,52.93,22.37,80.37-2.5-.6-4.43-1-6.31-1.52-24.44-6.79-48.89-13.55-73.3-20.43-3.72-1.05-6.82-.88-10.39,1.12-20.88,11.67-43.29,18.63-67.14,20.9-1.37.13-2.71.6-4.07.91h-26.47Z"/>
  </g>
  <g>
    <path class="cls-2" d="M49.36,270.58c0-9.53,0-19.06,0-28.59,1.03-6.95,1.95-13.92,3.1-20.85C72,103.66,189.75,26.49,305.61,55.2c135.56,33.59,199.84,188.08,128.08,307.82-56.73,94.65-178.89,128.03-275.83,75.16-4.93-2.69-9.03-3.05-14.29-1.56-29.82,8.46-59.74,16.58-89.63,24.79-1.05.29-2.17.33-3.67.55,8.87-31.99,17.52-63.4,26.35-94.75,1.13-4.01.74-7.15-1.35-10.86-9.68-17.12-16.8-35.32-20.72-54.63-2.1-10.31-3.47-20.76-5.17-31.15ZM272.26,304.16c0-6.79-.32-13.31.15-19.77.19-2.64,1.45-5.8,3.31-7.62,8.32-8.14,17.29-15.61,25.54-23.82,25.5-25.38,24.62-67.11-1.68-91.36-26.74-24.66-68.06-22.26-91.56,5.44-9.89,11.66-15.02,25.14-15.02,40.83,2.09.09,3.64.22,5.2.23,8.61.02,17.23,0,26.07,0,.31-1.92.58-3.45.8-4.99,2.12-14.62,14.99-26.16,29.82-26.74,13.15-.51,25.23,6.95,30.5,18.84,5.29,11.93,2.94,25.92-6.59,35.17-9.74,9.46-19.58,18.89-30.07,27.48-6.54,5.36-9.03,11.18-8.39,19.47.69,8.86.15,17.82.15,26.81h31.76ZM272.02,367.69v-31.12h-31.27v31.12h31.27Z"/>
    <path class="cls-4" d="M403.04,591.43c-11.05-2.1-22.32-3.41-33.1-6.45-47.65-13.46-83.45-42.18-107.73-85.3-.68-1.21-1.24-2.49-2.22-4.46,64.2-2.18,119.53-24.9,164.79-70.06,45.38-45.28,68.22-100.62,70.5-165.31,2.15,1.11,4,1.94,5.74,2.98,61.4,36.69,91.8,90.83,90.17,162.32-.62,27-8.46,52.44-21.77,76.03-1.69,2.99-2,5.61-1.07,8.91,7.46,26.44,14.76,52.93,22.37,80.37-2.5-.6-4.43-1-6.31-1.52-24.44-6.79-48.89-13.55-73.3-20.43-3.72-1.05-6.82-.88-10.39,1.12-20.88,11.67-43.29,18.63-67.14,20.9-1.37.13-2.71.6-4.07.91h-26.47Z"/>
  </g>
</svg>