<svg width="38" height="41" viewBox="0 0 38 41" fill="none" xmlns="http://www.w3.org/2000/svg">
<path d="M23.9277 38.4971C23.9677 39.2271 23.6977 39.7271 23.0277 40.0171H5.51769C4.83769 39.7271 4.56769 39.2271 4.61769 38.4971C4.70769 37.3271 4.62769 36.1271 4.84769 34.9671C5.38769 32.0671 8.24769 29.6371 11.2177 29.5571C13.2177 29.4971 15.2277 29.4571 17.2277 29.5471C20.9977 29.7271 23.8877 32.8271 23.9277 36.5971C23.9077 37.2271 23.8877 37.8671 23.9277 38.4971Z" fill="white"/>
<path d="M37.6877 8.80706C36.9977 11.8771 35.2977 14.2171 32.5777 15.7871C31.1877 16.5871 29.6877 17.0271 28.0977 17.1271C27.4277 17.1571 26.8677 17.3871 26.3477 17.8071C23.1677 20.3971 19.5377 21.7771 15.4577 21.9071C14.5277 21.9371 13.7577 22.1871 12.9977 22.7071C9.18771 25.3171 4.21771 25.1471 0.607714 22.3271C-0.182286 21.6971 -0.212286 20.9071 0.577714 20.2671C3.64771 17.7571 6.70771 15.2371 9.78771 12.7371C10.0277 12.5471 10.0677 12.3971 9.96771 12.1071C9.61771 11.0471 9.16771 10.0071 8.97771 8.92706C8.43771 5.83706 9.94771 2.81706 12.6677 1.27706C16.2877 -0.772941 20.8677 0.557059 22.8577 4.21706C22.9177 4.34706 22.9877 4.46706 23.0977 4.65706C23.3277 3.85706 23.5277 3.10706 23.7177 2.38706C23.8577 1.89706 23.9777 1.40706 24.1177 0.917059C24.3077 0.247059 24.9377 -0.122941 25.5477 0.037059C26.1877 0.217059 26.5577 0.817059 26.3777 1.49706C26.0477 2.81706 25.6877 4.10706 25.3477 5.41706C25.3177 5.50706 25.3077 5.59706 25.2877 5.74706C26.0277 5.21706 26.7177 4.73706 27.4077 4.26706C28.4277 3.54706 29.4277 2.84706 30.4477 2.14706C31.0977 1.69706 31.8177 1.76706 32.2077 2.32706C32.6177 2.89706 32.4577 3.61706 31.7977 4.07706C30.3877 5.06706 28.9677 6.05706 27.5477 7.05706C27.4377 7.13706 27.3177 7.21706 27.2177 7.29706C29.4877 7.29706 31.7377 7.29706 33.9877 7.28706C34.8077 7.28706 35.6077 7.28706 36.4077 7.27706C37.3777 7.26706 37.8977 7.86706 37.6877 8.80706Z" fill="white"/>
<path d="M27.4677 19.9771C27.4377 21.8871 26.9877 23.5871 25.7877 25.0271C25.0677 25.8971 24.1877 26.4971 23.1377 26.8871C22.9877 26.9471 22.8277 27.1171 22.7577 27.2671C22.5477 27.7571 22.3777 28.2571 22.1877 28.7871C22.0877 28.7471 22.0077 28.7271 21.9377 28.6771C20.3077 27.6171 18.5077 27.1471 16.5877 27.1471H12.2777C12.4777 26.6071 12.6377 26.1171 12.8277 25.6371C12.8677 25.5471 12.9877 25.4871 13.0877 25.4271C13.4677 25.1971 13.8777 25.0171 14.2177 24.7371C14.6477 24.4071 15.0877 24.2871 15.6077 24.2771C19.9277 24.1171 23.7977 22.7171 27.2377 20.1171C27.2977 20.0771 27.3377 20.0571 27.4677 19.9771Z" fill="#F7F7F7"/>
</svg>
