<?xml version="1.0" encoding="UTF-8"?>
<svg xmlns="http://www.w3.org/2000/svg" xmlns:xlink="http://www.w3.org/1999/xlink" viewBox="0 0 64.74 62">
  <defs>
    <style>
      .cls-1 {
        fill: url(#radial-gradient);
      }

      .cls-2 {
        fill: none;
        isolation: isolate;
      }

      .cls-3 {
        fill: url(#radial-gradient-2);
        mix-blend-mode: multiply;
        opacity: .5;
      }
    </style>
    <radialGradient id="radial-gradient" cx="11.26" cy="62.66" fx="11.26" fy="62.66" r="67.35" gradientUnits="userSpaceOnUse">
      <stop offset=".35" stop-color="#fdc20f"/>
      <stop offset=".53" stop-color="#fcbb15"/>
      <stop offset=".77" stop-color="#f9aa27"/>
      <stop offset="1" stop-color="#f7943f"/>
    </radialGradient>
    <radialGradient id="radial-gradient-2" cx="6.14" cy="79.35" fx="6.14" fy="79.35" r="97.38" xlink:href="#radial-gradient"/>
  </defs>
  <g class="cls-2">
    <g id="Layer_1" data-name="Layer 1">
      <g>
        <path class="cls-1" d="m52.81,59.64c.28,1.94-.92,2.8-2.67,1.92l-14.54-7.32c-1.75-.89-4.62-.9-6.38-.03l-14.61,7.2c-1.76.87-2.95-.01-2.65-1.95l2.48-16.09c.3-1.94-.58-4.67-1.94-6.08L1.13,25.62c-1.37-1.41-.9-2.81,1.03-3.13l16.07-2.63c1.94-.31,4.27-1.99,5.18-3.72L30.99,1.73c.91-1.73,2.39-1.73,3.29.02l7.46,14.47c.9,1.74,3.21,3.44,5.14,3.77l16.05,2.76c1.93.33,2.38,1.74,1.01,3.13l-11.47,11.57c-1.38,1.39-2.27,4.12-2,6.06l2.33,16.12Z"/>
        <path class="cls-3" d="m32.64,1.23c.3,0,.65.33.94.88l7.46,14.48c1.02,1.97,3.53,3.81,5.72,4.19l16.05,2.76c.61.1,1.03.34,1.12.63.09.29-.11.72-.55,1.16l-11.46,11.58c-1.56,1.57-2.54,4.53-2.22,6.73l2.33,16.12c.08.54.01.97-.17,1.18-.04.04-.15.17-.45.17-.25,0-.56-.09-.9-.26l-14.55-7.33c-.96-.48-2.24-.75-3.58-.75s-2.56.26-3.5.72l-14.61,7.2c-.34.17-.65.25-.9.25-.31,0-.42-.12-.46-.17-.19-.22-.24-.66-.16-1.19l2.48-16.1c.34-2.19-.61-5.16-2.16-6.74L1.7,25.06c-.43-.44-.63-.88-.54-1.16.09-.29.52-.52,1.12-.63l16.08-2.62c2.19-.36,4.72-2.18,5.75-4.14l7.59-14.41c.29-.55.64-.88.94-.88m0-.79c-.59,0-1.19.43-1.65,1.29l-7.59,14.42c-.91,1.73-3.24,3.41-5.18,3.72l-16.07,2.63c-1.93.31-2.4,1.72-1.03,3.13l11.36,11.66c1.37,1.41,2.24,4.14,1.94,6.08l-2.48,16.09c-.22,1.43.37,2.28,1.41,2.28.37,0,.79-.11,1.25-.33l14.61-7.2c.87-.43,2.01-.65,3.15-.65s2.34.23,3.23.68l14.54,7.32c.47.23.89.34,1.26.34,1.02,0,1.62-.84,1.41-2.27l-2.33-16.12c-.28-1.94.62-4.66,2-6.06l11.47-11.57c1.38-1.39.93-2.8-1.01-3.13l-16.05-2.76c-1.93-.33-4.24-2.03-5.14-3.77l-7.46-14.47c-.45-.87-1.04-1.31-1.64-1.31h0Z"/>
      </g>
    </g>
  </g>
</svg>