<?xml version="1.0" encoding="UTF-8"?>
<svg id="report" xmlns="http://www.w3.org/2000/svg" version="1.1" xmlns:xlink="http://www.w3.org/1999/xlink" viewBox="0 0 640.6 640.6">
  <defs>
    <style>
      .cls-1 {
        fill: url(#linear-gradient-6);
      }

      .cls-1, .cls-2, .cls-3, .cls-4 {
        stroke-width: 0px;
      }

      .cls-5 {
        fill: #f7e62d;
        stroke: #f7e62d;
      }

      .cls-5, .cls-6, .cls-7, .cls-8, .cls-9, .cls-10, .cls-11, .cls-12, .cls-13, .cls-14, .cls-15 {
        stroke-width: 0px;
      }

      .cls-6 {
        fill: url(#radial-gradient);
      }

      .cls-6, .cls-7, .cls-9, .cls-15 {
        stroke: #fcd109;
      }

      .cls-2, .cls-16 {
        fill: none;
      }

      .cls-7 {
        fill: url(#linear-gradient-5);
      }

      .cls-8 {
        fill: #fff;
        stroke: #fff;
      }

      .cls-9 {
        fill: url(#linear-gradient);
      }

      .cls-3 {
        fill: url(#linear-gradient-2);
      }

      .cls-16 {
        stroke: #d1d1d1;
        stroke-width: 2px;
      }

      .cls-4 {
        fill: url(#linear-gradient-3);
      }

      .cls-17 {
        clip-path: url(#clippath);
      }

      .cls-10 {
        fill: #f8f3b5;
        stroke: #f8f3b5;
      }

      .cls-11 {
        fill: #107bd4;
        stroke: #107bd4;
      }

      .cls-12 {
        fill: #f7b402;
        stroke: #f7b402;
      }

      .cls-13 {
        fill: #bda727;
        stroke: #bda727;
      }

      .cls-14 {
        fill: #0d69b3;
        stroke: #0d69b3;
      }

      .cls-15 {
        fill: url(#linear-gradient-4);
      }
    </style>
    <linearGradient id="linear-gradient" x1="320.1" y1="606.9" x2="320.1" y2="1126.5" gradientTransform="translate(.1 -493.5)" gradientUnits="userSpaceOnUse">
      <stop offset="0" stop-color="#f7e830"/>
      <stop offset="1" stop-color="#fdcb06"/>
    </linearGradient>
    <linearGradient id="linear-gradient-2" x1="19.6" y1="497.1" x2="679.6" y2="212.1" gradientUnits="userSpaceOnUse">
      <stop offset="0" stop-color="#fff" stop-opacity=".4"/>
      <stop offset="0" stop-color="#fff" stop-opacity=".3"/>
      <stop offset=".5" stop-color="#fff" stop-opacity="0"/>
      <stop offset=".8" stop-color="#fafafa" stop-opacity=".1"/>
      <stop offset="1" stop-color="#efefef" stop-opacity=".2"/>
    </linearGradient>
    <radialGradient id="radial-gradient" cx="317.4" cy="843.9" fx="317.4" fy="843.9" r="422.7" gradientTransform="translate(.1 -493.5)" gradientUnits="userSpaceOnUse">
      <stop offset=".6" stop-color="#f29405"/>
      <stop offset=".7" stop-color="#f7d01e"/>
      <stop offset="1" stop-color="#fdcb06"/>
    </radialGradient>
    <linearGradient id="linear-gradient-3" x1="5.7" y1="550.8" x2="634.4" y2="550.8" gradientTransform="translate(.1 -493.5)" xlink:href="#linear-gradient-2"/>
    <linearGradient id="linear-gradient-4" x1="464.7" y1="625.6" x2="464.9" y2="650.2" gradientTransform="translate(.1 -493.5)" gradientUnits="userSpaceOnUse">
      <stop offset="0" stop-color="#fada1c"/>
      <stop offset="1" stop-color="#fdcb06"/>
    </linearGradient>
    <linearGradient id="linear-gradient-5" x1="1824.1" y1="624.4" x2="1824.2" y2="649" gradientTransform="translate(1999.4 -493.5) rotate(-180) scale(1 -1)" xlink:href="#linear-gradient-4"/>
    <linearGradient id="linear-gradient-6" x1="281.8" y1="561.6" x2="373.8" y2="231.6" xlink:href="#linear-gradient-2"/>
    <clipPath id="clippath">
      <path class="cls-2" d="M464.9,144.2c-.7-1.3-.8-2.9-.8-4.4h-.7c-1.1-3.8-4.3-7.5-8.6-7.7-3.2-.3-7.2-.2-9,2.8-3.5,4.8-1.9,10.9-2,16.3,0,.4,0,1,0,1.3,0,3.6-.4,7.2-1.1,10.7-.5,1.1-.8,2.2-.8,3.4-1.5,8.3-4.5,16.5-8.6,24-.8,1.1-1.4,2.2-1.7,3.4-2.7,4.6-5.8,8.8-9.1,13.1-.5.4-1,1-1.4,1.5-2.3,2.8-4.8,5.2-7.3,7.7-.6.4-1.1.8-1.6,1.1-3,2.9-6.4,5.7-10,7.9-.4.3-.9.6-1.4,1-22.6,14.9-50.1,21.1-76.9,21.4-22.7.7-45.6-4.2-66.1-14-.4-.2-1.2-.5-1.6-.7-3.4-1.9-7-3.4-10.2-5.7-.7-.4-1.4-.8-2.2-1.1-3.3-1.9-6.4-4.1-9.3-6.5-1-.9-2-1.6-3.1-2.4-3.2-2.6-6.5-5.3-9.2-8.4-.7-.8-1.4-1.5-2.1-2.2-9.6-10-17.2-22.2-21.1-35.5-3.8-10.5-3.3-22-3.7-33.1-3.2-4.9-9.9-7.6-15.2-4.6-2.2,1.6-2.5,4.5-4.2,6.5-2.7,29.2,9.7,58.3,29.6,79.3,0,.7.4,1.1,1,1.4,3.5,3.3,7,6.6,10.5,9.8.6.6,1.3,1.2,2.1,1.8,3.5,2.9,7.3,5.6,11.1,8.3.7.5,1.4,1,2.2,1.4,4.9,2.8,9.5,6.2,14.7,8.1.4.3,1,.7,1.3.9,16.8,8,34.9,13.5,53.5,15.3,2,0,4.1.2,6.1.6,8.8.5,17.7.3,26.5,0,27.3-2.4,55.5-9,78.3-25.1l.3.4c.7-.6,1.3-1.1,2-1.7,3.6-2.7,7.2-5.5,10.7-8.4.8-.6,1.7-1.3,2.5-2.1,3.9-4.2,8.4-8.1,11.7-13l.5.3c.3-.4.7-1.3,1-1.8,3-4.1,5.7-8.3,8.4-12.6.2-.3.6-.7.8-1l-.4-.4c.3-.4.9-1.1,1.1-1.4,4.9-9.9,9.2-20.2,10.7-31.2.6-.3,1-.8,1-1.4,0-3.5,1.3-6.9,1-10.4.8-4.3.9-8.8.7-13.2h0Z"/>
    </clipPath>
  </defs>
  <path class="cls-9" d="M635.2,116c-.3-.9-.5-1.8-.9-2.7-209.5,0-418.8,0-628.2,0-.5.6-.9,1.2-1,2,0,162.4,0,324.8,0,487.2,1.3,8.7,6.1,16.5,12.5,22.5.3,0,.9.2,1.1.3,3.3,3.4,8,5.1,12.4,6.7,3.3-.2,6.5,1.2,9.7.9h259.9c2.5,0,5,.4,7.4-.6,0-.4.2-1,.3-1.3,0-.4.2-1.4.3-1.9,5.6-31.1,11-62.3,16.9-93.5l.5-4c-24,0-48.2,0-72.2,0-5.8-.2-11.8,0-17.7-.7-10-.4-20.1,0-30.1-1.1-12.4,0-24.7-1.2-37-1.2-9.7-1-19.5-.6-29.4-1.1-6.4-.8-12.9-.4-19.4-.7-10.5-1.1-21.2-.4-31.7-1.5-11.1,0-22.3-.9-33.4-1.2,0,0,.2-.4.2-.5,3.7,0,7.3-.2,11.1-.3,8.2-1.1,16.5-.4,24.8-1.5,8.6,0,17.1-1.1,25.6-1.1,7.6-1.1,15.3-.4,22.9-1.5,8.9,0,17.7-1.1,26.6-1.2,7.3-1,14.8-.4,22.1-1.4,8.6,0,17.1-1.2,25.6-1.1,8.4-1,17-.7,25.4-1.6-.8-3.3-1.4-6.5-2.1-9.8-.6-2-3.1-1.6-4.7-1.9-19.2-2.7-38.3-5.5-57.4-8.1,1.2-1,2.9-.5,4.3-.7,14.9-1.2,29.6-2.5,44.5-3.5,3.4-.2,6.6-.8,10-.9-1.5-4.6-2.4-9.6-4.4-13.9-31.7-4.9-63.5-9.2-95.1-14.4,8.2-1.3,16.5-1.9,24.8-2.8l.7-.3c26.3-2.7,52.6-5.8,78.9-8.4,33.3-.2,66.6,0,99.9,0,1.1-.2,2.9.4,3.1-1.2,2.7-14.3,5.4-28.6,8.1-43,3.8-19.9,9.8-39.5,19.1-57.6,14.6-29.2,37.7-53.9,65.8-70.4,26.3-15.4,56.7-22.8,86.9-24.2,9.8-.9,19.7-.6,29.4.6,6.4,1.5,12.9,3.3,17.9,7.6,4.2,3.4,6.6,8.3,8.5,13.3,4.1,11.8,6.4,24,8.3,36.3,0,5,1,10.5-1.7,15-2.5,4.4-7.4,6.5-12.1,7.9-17.1,4.4-34.9.3-52,4.4-14.1,3-27.1,10.8-36.1,22-10.5,13.1-16.1,29.4-19.2,45.6-2.4,14.5-5.4,29-7.8,43.6,16.8,0,33.7,0,50.6,0,6.7,0,13.6,3.7,16.4,10.1,3.5,8.1,2.7,17.3,1.6,25.9-1.4,9.6-3.7,19.2-8,28-3.6,7.5-9.6,14.4-17.9,17.1-4.2,1.7-8.8,1.3-13.4,1.3-14.9,0-29.7.2-44.6,0-2.4,10.9-4,22-6.1,33.1-3.9,21.5-7.7,43.1-11.6,64.6,0,.7-.2,2.2-.2,3,7,.4,14,0,21,.2,51.8,0,103.7,0,155.6,0,5.6.2,11.2-1.1,16.1-3.9,2.9-1.1,4.7-3.6,7.3-5,2.5-1.4,3.2-4.3,5.3-6.2,2.3-4.1,4.7-8.3,4.9-13.1.3,0,1,0,1.3-.2-.3-162.7,0-325.4-.2-488.1Z"/>
  <path class="cls-3" d="M635.2,116c-.3-.9-.5-1.8-.9-2.7-209.5,0-418.8,0-628.2,0-.5.6-.9,1.2-1,2,0,162.4,0,324.8,0,487.2,1.3,8.7,6.1,16.5,12.5,22.5.3,0,.9.2,1.1.3,3.3,3.4,8,5.1,12.4,6.7,3.3-.2,6.5,1.2,9.7.9h259.9c2.5,0,5,.4,7.4-.6,0-.4.2-1,.3-1.3,0-.4.2-1.4.3-1.9,5.6-31.1,11-62.3,16.9-93.5l.5-4c-24,0-48.2,0-72.2,0-5.8-.2-11.8,0-17.7-.7-10-.4-20.1,0-30.1-1.1-12.4,0-24.7-1.2-37-1.2-9.7-1-19.5-.6-29.4-1.1-6.4-.8-12.9-.4-19.4-.7-10.5-1.1-21.2-.4-31.7-1.5-11.1,0-22.3-.9-33.4-1.2,0,0,.2-.4.2-.5,3.7,0,7.3-.2,11.1-.3,8.2-1.1,16.5-.4,24.8-1.5,8.6,0,17.1-1.1,25.6-1.1,7.6-1.1,15.3-.4,22.9-1.5,8.9,0,17.7-1.1,26.6-1.2,7.3-1,14.8-.4,22.1-1.4,8.6,0,17.1-1.2,25.6-1.1,8.4-1,17-.7,25.4-1.6-.8-3.3-1.4-6.5-2.1-9.8-.6-2-3.1-1.6-4.7-1.9-19.2-2.7-38.3-5.5-57.4-8.1,1.2-1,2.9-.5,4.3-.7,14.9-1.2,29.6-2.5,44.5-3.5,3.4-.2,6.6-.8,10-.9-1.5-4.6-2.4-9.6-4.4-13.9-31.7-4.9-63.5-9.2-95.1-14.4,8.2-1.3,16.5-1.9,24.8-2.8l.7-.3c26.3-2.7,52.6-5.8,78.9-8.4,33.3-.2,66.6,0,99.9,0,1.1-.2,2.9.4,3.1-1.2,2.7-14.3,5.4-28.6,8.1-43,3.8-19.9,9.8-39.5,19.1-57.6,14.6-29.2,37.7-53.9,65.8-70.4,26.3-15.4,56.7-22.8,86.9-24.2,9.8-.9,19.7-.6,29.4.6,6.4,1.5,12.9,3.3,17.9,7.6,4.2,3.4,6.6,8.3,8.5,13.3,4.1,11.8,6.4,24,8.3,36.3,0,5,1,10.5-1.7,15-2.5,4.4-7.4,6.5-12.1,7.9-17.1,4.4-34.9.3-52,4.4-14.1,3-27.1,10.8-36.1,22-10.5,13.1-16.1,29.4-19.2,45.6-2.4,14.5-5.4,29-7.8,43.6,16.8,0,33.7,0,50.6,0,6.7,0,13.6,3.7,16.4,10.1,3.5,8.1,2.7,17.3,1.6,25.9-1.4,9.6-3.7,19.2-8,28-3.6,7.5-9.6,14.4-17.9,17.1-4.2,1.7-8.8,1.3-13.4,1.3-14.9,0-29.7.2-44.6,0-2.4,10.9-4,22-6.1,33.1-3.9,21.5-7.7,43.1-11.6,64.6,0,.7-.2,2.2-.2,3,7,.4,14,0,21,.2,51.8,0,103.7,0,155.6,0,5.6.2,11.2-1.1,16.1-3.9,2.9-1.1,4.7-3.6,7.3-5,2.5-1.4,3.2-4.3,5.3-6.2,2.3-4.1,4.7-8.3,4.9-13.1.3,0,1,0,1.3-.2-.3-162.7,0-325.4-.2-488.1Z"/>
  <path class="cls-10" d="M87.6,9c7.5-2.4,15.4-.8,23.1-1.3,144.4,0,288.8,0,433.2,0,8.6-.4,16.1,4.5,24,7,6.4,2.6,13,4.6,19.4,7.3,1.3.5,2.3,1.7,3.3,2.7,0,11.7,0,23.4,0,35.2,0,3.1-.4,6.3.6,9.3,1.9.3,2.8,1.7,4.1,2.8,5.8,2.7,10.8,7,16.1,10.5,8,5.7,16.4,10.6,24.2,16.4.4,2.3,0,4.7-.6,6.8-.8,2.5-.3,5.1-.5,7.6-209.5,0-418.8,0-628.2,0-.4-2.9.4-5.8-.9-8.6-.2-2.3-1-5.3,1.2-6.9,8.8-6.2,18.2-11.8,26.9-18.3,5.4-3.4,10.6-7,15.8-10.5,1.1-1.8.7-4,.7-5.9,0-12.8,0-25.6,0-38.5,3-3.9,8.2-4.3,12.4-6.3,8.4-3.2,16.9-6.3,25.2-9.5M88.1,10.5c-11.3,4.3-22.7,8.5-34,12.8-1.5.3-2.3,1.6-3.1,2.7,0,.7.2,1.9.2,2.7,0,10.6,0,21.2,0,31.8,0,2.7-.3,5.3.7,7.7-1.1,1.1-2.4,2.3-3.8,3.2-12.8,8.3-25.2,17.3-38,25.6-2.2,1.3-4.7,3.1-4,6-.4,1.6.4,2.9,2,2.5,27.8-.2,55.4.2,83.2-.3,41.3,0,82.5,0,123.8,0l.6-.3c1.9.4,3.7.3,5.7.3,74.8,0,149.6,0,224.5,0,23.5,0,47.1,0,70.7,0,38.9,0,77.9.4,116.8.2,1.1-.3,1.5-1.1,1.1-2.5,0-1.4.4-3.4-1.1-4.2-6.2-2.9-11.5-7.4-17.4-11-2.1-1.8-4.9-2.7-6.5-5.1-6.1-3.4-11.8-7.7-17.8-11.5-1.2-.7-2-1.9-3-2.8.5-1.9.7-3.9.7-5.8,0-11.2,0-22.5,0-33.7.3-1.8.2-3.8-1.4-5-10.6-3.8-21.1-7.9-31.7-11.8-3.3-1.6-6.9-2.5-10.4-3H93.8c-1.9,0-3.8,1.1-5.7,1.5h0Z"/>
  <path class="cls-12" d="M51.1,28.7c7.8,3.3,16.1,5.1,24,8.3,4.2,1.7,5.6,6.3,7.4,10-1.9,1.9-4.1,3.4-6.3,4.8-8.1,5.5-16.4,10.8-24.5,16.4-1-2.4-.6-5-.7-7.7,0-10.6,0-21.2,0-31.8ZM565.3,37c7.9-3.1,16.1-5.2,24-8.3,0,11.2,0,22.5,0,33.7,0,1.9-.2,4-.7,5.8-6.9-4.8-13.9-9.3-20.8-14-3.4-2.5-7.1-4.3-10.1-7.3,1.9-3.7,3.3-8.2,7.5-9.9h0Z"/>
  <path class="cls-13" d="M186.1,40.6c9.7-2.3,20.6,6.4,19.8,16.5,0,10-10.4,18.1-20.1,15.8-3.9-1.3-7.6-3.4-10-6.8-3.1-4.7-3.8-11-1.3-16.1,1.8-5,6.5-8.3,11.6-9.5h0ZM438.3,46.2c4.1-4.5,10.5-7.1,16.5-5.5,4.5,1.3,8.9,4.2,10.9,8.7,3.9,7.6.9,17.9-6.7,21.8-6.7,3.7-15.2,1.9-20.3-3.4-5.2-5.9-5.6-15.6-.4-21.6Z"/>
  <path class="cls-5" d="M76.3,51.8c2.2-1.4,4.4-2.9,6.3-4.8l.6.6c.6,4.6.2,9.3.4,13.9-.3,13.8.3,27.7-.4,41.5-25.7,0-51.5-.2-77.2,0-.7-2.9,1.8-4.7,4-6,12.8-8.2,25.2-17.2,38-25.6,1.4-.9,2.7-2,3.8-3.2,8-5.7,16.4-11,24.5-16.4ZM556.9,50c0-1.1.3-2.1.9-3.1,3,3,6.7,4.9,10.1,7.3,6.9,4.7,13.9,9.2,20.8,14,1,1,1.9,2.1,3,2.8,6,3.8,11.7,8,17.8,11.5,1.6,2.4,4.3,3.4,6.5,5.1,5.9,3.5,11.2,8,17.4,11,1.5.9,1,2.8,1.1,4.2-25.7,0-51.4,0-77.1,0-.4-3.5-.2-7.1-.3-10.5,0-14.1-.2-28.3,0-42.4h0Z"/>
  <path class="cls-6" d="M634.3,102.9c-25.7,0-51.4,0-77.1,0-.4-3.5-.2-7.1-.3-10.5,0-14.1-.2-28.3,0-42.4,0-1.1.3-2.1.9-3.1,1.9-3.7,3.3-8.2,7.5-9.9,7.9-3.1,16.1-5.2,24-8.3.3-1.8.2-3.8-1.4-5-10.6-3.8-21.1-7.9-31.7-11.8-3.3-1.6-6.9-2.5-10.4-3H93.8c-1.9,0-3.8,1.1-5.7,1.5-11.3,4.3-22.7,8.5-34,12.8-1.5.3-2.3,1.6-3.1,2.7,0,.7.2,1.9.2,2.7,7.8,3.3,16.1,5.1,24,8.3,4.2,1.7,5.6,6.3,7.4,10l.6.6c.6,4.6.2,9.3.4,13.9-.3,13.8.3,27.7-.4,41.5-25.7,0-51.5-.2-77.2,0-.4,1.6.4,2.9,2,2.5,27.8-.2,55.4.2,83.2-.3,41.3,0,82.5,0,123.8,0l.6-.3c1.9.4,3.7.3,5.7.3,74.8,0,149.6,0,224.5,0,23.5,0,47.1,0,70.7,0,38.9,0,77.9.4,116.8.2,1.2-.3,1.5-1.1,1.1-2.5h0ZM174.5,50.1c1.8-5,6.5-8.3,11.6-9.5,9.7-2.3,20.6,6.4,19.8,16.5,0,10-10.4,18.1-20.1,15.8-3.9-1.3-7.6-3.4-10-6.8-3.1-4.7-3.8-11-1.3-16.1h0ZM438.3,46.2c4.1-4.5,10.5-7.1,16.5-5.5,4.5,1.3,8.9,4.2,10.9,8.7,3.9,7.6.9,17.9-6.7,21.8-6.7,3.7-15.2,1.9-20.3-3.4-5.2-5.9-5.6-15.6-.4-21.6Z"/>
  <path class="cls-4" d="M634.3,102.9c-25.7,0-51.4,0-77.1,0-.4-3.5-.2-7.1-.3-10.5,0-14.1-.2-28.3,0-42.4,0-1.1.3-2.1.9-3.1,1.9-3.7,3.3-8.2,7.5-9.9,7.9-3.1,16.1-5.2,24-8.3.3-1.8.2-3.8-1.4-5-10.6-3.8-21.1-7.9-31.7-11.8-3.3-1.6-6.9-2.5-10.4-3H93.8c-1.9,0-3.8,1.1-5.7,1.5-11.3,4.3-22.7,8.5-34,12.8-1.5.3-2.3,1.6-3.1,2.7,0,.7.2,1.9.2,2.7,7.8,3.3,16.1,5.1,24,8.3,4.2,1.7,5.6,6.3,7.4,10l.6.6c.6,4.6.2,9.3.4,13.9-.3,13.8.3,27.7-.4,41.5-25.7,0-51.5-.2-77.2,0-.4,1.6.4,2.9,2,2.5,27.8-.2,55.4.2,83.2-.3,41.3,0,82.5,0,123.8,0l.6-.3c1.9.4,3.7.3,5.7.3,74.8,0,149.6,0,224.5,0,23.5,0,47.1,0,70.7,0,38.9,0,77.9.4,116.8.2,1.2-.3,1.5-1.1,1.1-2.5h0ZM174.5,50.1c1.8-5,6.5-8.3,11.6-9.5,9.7-2.3,20.6,6.4,19.8,16.5,0,10-10.4,18.1-20.1,15.8-3.9-1.3-7.6-3.4-10-6.8-3.1-4.7-3.8-11-1.3-16.1h0ZM438.3,46.2c4.1-4.5,10.5-7.1,16.5-5.5,4.5,1.3,8.9,4.2,10.9,8.7,3.9,7.6.9,17.9-6.7,21.8-6.7,3.7-15.2,1.9-20.3-3.4-5.2-5.9-5.6-15.6-.4-21.6Z"/>
  <path class="cls-15" d="M460.9,141.7c1.2.3-6.4-7.4-4.9-7.7,1.4.2,6.8-4,13.3-.6,6.5,3.4,4.9,11.3,4.1,14.3-.9,3.5-3.1,5.7-4.9,7.5-1,.8-3.2,2-4.5,1.9.8-4.3-1.8-5-1.9-9.5l-1.2-6Z"/>
  <path class="cls-7" d="M178.2,146.5c-.2,4.4-2.7,5.1-1.9,9.5-1.3,0-3.5-1.1-4.5-1.9-1.8-1.8-4-4-4.9-7.5-.7-2.9-2.3-10.9,4.1-14.3s11.8.8,13.3.6c1.5.4-6.2,8-4.9,7.7l-1.2,6h0Z"/>
  <path class="cls-13" d="M449.3,198.4c1.3-1.2,2.2-1.2,4-1.2-10.6,23-23,46-41.6,63.9-2,1.8-4.1,3.4-6.3,4.9-2.1,1.6-4.2,3-6.3,4.5-2,1.4-4.1,2.8-6,4.3-5,2.7-9.5,6.5-15,8.2-10.2,4.9-21.1,8.1-32.2,10.4-4.3.7-8.8,1.8-13.2,1.9-5.5,1.6-11.3.4-16.9.8-3.1.5-5.8-1.2-8.8-.9-2.6-.4-5.2-.8-7.8-1.3-2.6-.5-5.2-1.2-7.8-1.9-40.5-12.6-80.3-43.6-91.9-85.4-.5-2.8-.8-5.7-.8-8.5,1.2,2.5,2.5,4.9,3.8,7.4,16.5,36,49.2,64.2,87.9,72.8,3.1,1.4,6.5.9,9.5,2.2,2.7,0,5.4,0,8,.8,9.1.2,18.2,0,27.3,0,1.2,0,2.4-.5,3.6-.8,15.2-.5,30-4.7,43.9-10.9,2.8-1.3,5.5-2.6,8.2-4,2.3-1.2,4.6-2.6,6.9-4,2.2-1.4,4.3-2.9,6.4-4.5,16.4-13,30.5-29.8,40.1-49.1,1.8-3.5,3.5-6.7,5-9.6Z"/>
  <path class="cls-14" d="M434.9,277c26.3-15.4,56.7-22.8,86.9-24.2,9.8-.9,19.7-.6,29.4.6,6.4,1.5,12.9,3.3,17.9,7.6-2.6.2-5-1-7.6-1.3-7.3-1.4-14.8-.9-22.1-1.1-21.3,0-42.8,1.7-63.4,7.5-10.8,3.3-21.6,7.1-31.4,12.7-17,9.4-32.3,21.8-44.7,36.6-22.1,25.4-35.1,57.6-41.4,90.4-3,17.6-6.5,35.1-9.2,52.8-4.4.4-8.9.2-13.4.2-19.5,0-38.9-.2-58.4-.4-4.2.2-8.2-.8-12.4-.5-35.4.2-70.7,0-106.1,0l.7-.3c26.3-2.7,52.6-5.8,78.9-8.4,33.3-.2,66.6,0,99.9,0,1.1-.2,2.9.4,3.1-1.2,2.7-14.3,5.4-28.6,8.1-43,3.8-19.9,9.8-39.5,19.1-57.6,14.6-29.2,37.7-53.9,65.8-70.4Z"/>
  <path class="cls-11" d="M476.1,266.1c20.6-5.8,42.1-7.5,63.4-7.5,7.3.2,14.9-.4,22.1,1.1,2.6.4,5,1.5,7.6,1.3,4.2,3.4,6.6,8.3,8.5,13.3,4.1,11.8,6.4,24,8.3,36.3,0,5,1,10.5-1.7,15-2.5,4.4-7.4,6.5-12.1,7.9-17.1,4.4-34.9.3-52,4.4-14.1,3-27.1,10.8-36.1,22-10.5,13.1-16.1,29.4-19.2,45.6-2.4,14.5-5.4,29-7.8,43.6-1.1,3.3-1.7,6.8-2.3,10.3,16.7.3,33.4,0,50.1.2,6.4-.2,12.7.2,19.1-.3,3.5,8.1,2.7,17.3,1.6,25.9-1.4,9.6-3.7,19.2-8,28-3.6,7.5-9.6,14.4-17.9,17.1-4.2,1.7-8.8,1.3-13.4,1.3-14.9,0-29.7.2-44.6,0-2.4,10.9-4,22-6.1,33.1-3.9,21.5-7.7,43.1-11.6,64.6,0,.7-.2,2.2-.2,3h0c-38.6,0-77.2.2-115.8,0,0-.4.2-1,.3-1.3,0-.4.2-1.4.3-1.9,0,.7.2,2,.3,2.7,2.4.3,6.7,1.5,7.3-1.9,6-32.5,11.6-65.3,17.8-97.8-2.4-.5-4.9-.5-7.3,0-.4,1.2-.7,2.5-1.1,3.7l.5-4c-24,0-48.2,0-72.2,0-5.8-.2-11.8,0-17.7-.7-10-.4-20.1,0-30.1-1.1-12.4,0-24.7-1.1-37-1.1-9.7-1-19.5-.6-29.4-1.1-6.4-.8-12.9-.4-19.4-.7-10.5-1.2-21.2-.4-31.7-1.5-11.1,0-22.3-.9-33.4-1.1,0,0,.2-.4.2-.5,3.7,0,7.3-.2,11.1-.3,8.2-1.1,16.5-.4,24.8-1.5,8.6,0,17.1-1.2,25.6-1.2,7.6-1.1,15.3-.4,22.9-1.5,8.9,0,17.7-1.2,26.6-1.2,7.3-1,14.8-.4,22.1-1.4,8.6,0,17.1-1.2,25.6-1.2,8.4-1,17-.7,25.4-1.6-.8-3.3-1.4-6.5-2.1-9.8-.6-2-3.1-1.6-4.7-1.9-19.2-2.7-38.3-5.5-57.4-8.1,1.2-1,2.9-.5,4.3-.7,14.9-1.2,29.6-2.5,44.5-3.5,3.4-.2,6.6-.8,10-.9-1.5-4.6-2.4-9.6-4.4-13.9-31.7-4.9-63.5-9.2-95.1-14.4,8.2-1.3,16.5-1.9,24.8-2.8,35.4,0,70.7.3,106.1,0,4.2-.3,8.2.7,12.4.5,19.5.2,38.9.3,58.4.4,4.4,0,8.9.3,13.4-.2,2.7-17.7,6.2-35.2,9.2-52.8,6.3-32.8,19.3-65,41.4-90.4,12.4-14.9,27.7-27.2,44.7-36.6,9.8-5.7,20.6-9.5,31.4-12.7Z"/>
  <path class="cls-1" d="M476.1,266.1c20.6-5.8,42.1-7.5,63.4-7.5,7.3.2,14.9-.4,22.1,1.1,2.6.4,5,1.5,7.6,1.3,4.2,3.4,6.6,8.3,8.5,13.3,4.1,11.8,6.4,24,8.3,36.3,0,5,1,10.5-1.7,15-2.5,4.4-7.4,6.5-12.1,7.9-17.1,4.4-34.9.3-52,4.4-14.1,3-27.1,10.8-36.1,22-10.5,13.1-16.1,29.4-19.2,45.6-2.4,14.5-5.4,29-7.8,43.6-1.1,3.3-1.7,6.8-2.3,10.3,16.7.3,33.4,0,50.1.2,6.4-.2,12.7.2,19.1-.3,3.5,8.1,2.7,17.3,1.6,25.9-1.4,9.6-3.7,19.2-8,28-3.6,7.5-9.6,14.4-17.9,17.1-4.2,1.7-8.8,1.3-13.4,1.3-14.9,0-29.7.2-44.6,0-2.4,10.9-4,22-6.1,33.1-3.9,21.5-7.7,43.1-11.6,64.6,0,.7-.2,2.2-.2,3h0c-38.6,0-77.2.2-115.8,0,0-.4.2-1,.3-1.3,0-.4.2-1.4.3-1.9,0,.7.2,2,.3,2.7,2.4.3,6.7,1.5,7.3-1.9,6-32.5,11.6-65.3,17.8-97.8-2.4-.5-4.9-.5-7.3,0-.4,1.2-.7,2.5-1.1,3.7l.5-4c-24,0-48.2,0-72.2,0-5.8-.2-11.8,0-17.7-.7-10-.4-20.1,0-30.1-1.1-12.4,0-24.7-1.1-37-1.1-9.7-1-19.5-.6-29.4-1.1-6.4-.8-12.9-.4-19.4-.7-10.5-1.2-21.2-.4-31.7-1.5-11.1,0-22.3-.9-33.4-1.1,0,0,.2-.4.2-.5,3.7,0,7.3-.2,11.1-.3,8.2-1.1,16.5-.4,24.8-1.5,8.6,0,17.1-1.2,25.6-1.2,7.6-1.1,15.3-.4,22.9-1.5,8.9,0,17.7-1.2,26.6-1.2,7.3-1,14.8-.4,22.1-1.4,8.6,0,17.1-1.2,25.6-1.2,8.4-1,17-.7,25.4-1.6-.8-3.3-1.4-6.5-2.1-9.8-.6-2-3.1-1.6-4.7-1.9-19.2-2.7-38.3-5.5-57.4-8.1,1.2-1,2.9-.5,4.3-.7,14.9-1.2,29.6-2.5,44.5-3.5,3.4-.2,6.6-.8,10-.9-1.5-4.6-2.4-9.6-4.4-13.9-31.7-4.9-63.5-9.2-95.1-14.4,8.2-1.3,16.5-1.9,24.8-2.8,35.4,0,70.7.3,106.1,0,4.2-.3,8.2.7,12.4.5,19.5.2,38.9.3,58.4.4,4.4,0,8.9.3,13.4-.2,2.7-17.7,6.2-35.2,9.2-52.8,6.3-32.8,19.3-65,41.4-90.4,12.4-14.9,27.7-27.2,44.7-36.6,9.8-5.7,20.6-9.5,31.4-12.7Z"/>
  <path class="cls-14" d="M457.2,449c16.8,0,33.7,0,50.6,0,6.7,0,13.6,3.7,16.4,10.1-6.4.4-12.7,0-19.1.3-16.7-.2-33.4,0-50.1-.2.6-3.4,1.2-7,2.3-10.3h0ZM326.7,531.9c2.5-.4,5-.4,7.3,0-6.2,32.5-11.8,65.3-17.8,97.8-.6,3.4-5,2.2-7.3,1.9,0-.6-.2-1.9-.3-2.7,5.6-31.1,11-62.3,16.9-93.5.4-1.2.8-2.5,1.1-3.7h0Z"/>
  <path class="cls-8" d="M464.9,144.2c-.7-1.3-.8-2.9-.8-4.4h-.7c-1.1-3.8-4.3-7.5-8.6-7.7-3.2-.3-7.2-.2-9,2.8-3.5,4.8-1.9,10.9-2,16.3,0,.4,0,1,0,1.3,0,3.6-.4,7.2-1.1,10.7-.5,1.1-.8,2.2-.8,3.4-1.5,8.3-4.5,16.5-8.6,24-.8,1.1-1.4,2.2-1.7,3.4-2.7,4.6-5.8,8.8-9.1,13.1-.5.4-1,1-1.4,1.5-2.3,2.8-4.8,5.2-7.3,7.7-.6.4-1.1.8-1.6,1.1-3,2.9-6.4,5.7-10,7.9-.4.3-.9.6-1.4,1-22.6,14.9-50.1,21.1-76.9,21.4-22.7.7-45.6-4.2-66.1-14-.4-.2-1.2-.5-1.6-.7-3.4-1.9-7-3.4-10.2-5.7-.7-.4-1.4-.8-2.2-1.1-3.3-1.9-6.4-4.1-9.3-6.5-1-.9-2-1.6-3.1-2.4-3.2-2.6-6.5-5.3-9.2-8.4-.7-.8-1.4-1.5-2.1-2.2-9.6-10-17.2-22.2-21.1-35.5-3.8-10.5-3.3-22-3.7-33.1-3.2-4.9-9.9-7.6-15.2-4.6-2.2,1.6-2.5,4.5-4.2,6.5-2.7,29.2,9.7,58.3,29.6,79.3,0,.7.4,1.1,1,1.4,3.5,3.3,7,6.6,10.5,9.8.6.6,1.3,1.2,2.1,1.8,3.5,2.9,7.3,5.6,11.1,8.3.7.5,1.4,1,2.2,1.4,4.9,2.8,9.5,6.2,14.7,8.1.4.3,1,.7,1.3.9,16.8,8,34.9,13.5,53.5,15.3,2,0,4.1.2,6.1.6,8.8.5,17.7.3,26.5,0,27.3-2.4,55.5-9,78.3-25.1l.3.4c.7-.6,1.3-1.1,2-1.7,3.6-2.7,7.2-5.5,10.7-8.4.8-.6,1.7-1.3,2.5-2.1,3.9-4.2,8.4-8.1,11.7-13l.5.3c.3-.4.7-1.3,1-1.8,3-4.1,5.7-8.3,8.4-12.6.2-.3.6-.7.8-1l-.4-.4c.3-.4.9-1.1,1.1-1.4,4.9-9.9,9.2-20.2,10.7-31.2.6-.3,1-.8,1-1.4,0-3.5,1.3-6.9,1-10.4.8-4.3.9-8.8.7-13.2h0Z"/>
  <g class="cls-17">
    <path class="cls-16" d="M169.2,141.2c7.2,2.2,23.6-3.4,28.3,1.8M173.3,163c6.9-2.4,21.6-8,27.7-4.7M180.4,184.8c3.3,1.1,9.9-4.8,13.1-6.5,4.8-2.5,9.8-4.5,15.2-5.3M191,207.8c3.4-4.9,7.5-8.9,12.5-12.4,4.9-3.4,18.3-12.6,24.1-9.4M201,224.3c3.9-3.1,5.5-8.6,9.6-11.8,4.9-3.9,12.5-4.6,17.6-7.1M217.6,236.6c1.2-8.5,9.8-18.9,18.1-18.1M230.5,248.5c4.4-.4,8.1-10.2,11-13.6,4.4-5,9-6.5,14.9-8.3M255.8,259.1c-.3-6.2,6.1-23.9,13.6-23M274.7,265c-.3-7.3,3.5-29.3,12.4-30.1M294.1,276.8c-1.7-10.2-1.6-25,6.5-32.4M318.3,279.2c-.9-8.5-9.4-25.7,0-32.4M344.2,273.3c-4-4.7-6.4-23.2-4.7-28.3M369,269.1c-3.1-5.7-7-11-8.2-17.5-.7-3.9.5-9.5,0-12.5M389.6,260.3c-6.8-4.4-8.6-20.7-6.5-27.7M409.6,251.5c-4.8-10.3-9.9-18.3-10-30.1M429.1,232.6c-7.5-5-17-14.2-15.9-24.2M449.7,216.7c-11.4-2.5-25-12.7-31.8-21.8M459.2,197.2c-8.2-1.8-35.3-12.3-33.6-23M468,176.6c-11.4-4.2-28-7.9-37.1-15.9M473.9,157.7c-7.2.6-17.5-2.9-24.8-4.1-8.1-1.4-15.6-4.1-23.5-5.9M466.8,139.5c-13.9.8-26.9-3.9-39.5-8.3"/>
  </g>
</svg>