<?xml version="1.0" encoding="utf-8"?>
<!-- Generator: Adobe Illustrator 26.2.1, SVG Export Plug-In . SVG Version: 6.00 Build 0)  -->
<svg version="1.1" id="Layer_1" xmlns="http://www.w3.org/2000/svg" xmlns:xlink="http://www.w3.org/1999/xlink" x="0px" y="0px"
	 viewBox="0 0 1237 695" style="enable-background:new 0 0 1237 695;" xml:space="preserve">
<style type="text/css">
	.st0{fill:#6864F2;}
</style>
<g>
	<path class="st0" d="M306.37,348.5c0,25.13,0.06,50.25-0.01,75.38c-0.11,36.75-25.63,64.38-62.34,67.03
		c-8.45,0.61-17-0.6-24.98-3.88c-3.93-1.61-7.39-1.63-11.48-0.12c-41.95,15.53-87.05-15.63-87.21-60.33
		c-0.18-50.75-0.04-101.5-0.13-152.25c-0.01-3.01,0.52-4.82,3.98-4.73c11.81,0.29,23.61-0.18,35.44,0.44
		c20.5,1.08,35.76,17.84,35.74,39.94c-0.03,38.6,0.01,77.21-0.01,115.81c-0.01,12.06,4.16,22.45,12.37,31.21
		c4.89,5.23,6.59,4.99,11.5-0.5c8.42-9.42,12.03-20.52,12.03-32.96c0.03-50.58,0.02-101.17,0.07-151.75
		c0.04-38.38,26.13-65.94,64.56-67.81c7.97-0.39,15.96,1,23.45,4.11c3.6,1.5,6.86,1.29,10.56-0.07c41-15.05,84.67,13.45,87.49,57.01
		c1.67,25.76,0.31,51.56,0.77,77.33c0.07,3.82-1.4,5.34-5.3,5.28c-10.32-0.17-20.67-0.54-30.96,0.05
		c-20.8,1.19-39.28-14.66-39.55-39c-0.15-13.81,0.03-27.62-0.08-41.43c-0.1-12.33-5.51-22.37-13.85-31.11
		c-2.7-2.82-4.97-2.58-7.62-0.02c-9.5,9.16-14.22,20.44-14.31,33.48c-0.18,26.29-0.05,52.58-0.05,78.87
		C306.41,348.5,306.39,348.5,306.37,348.5z M241.38,471.25c24.98-0.1,44.78-19.71,45.01-44.3c0.19-21.28,0.25-42.56,0.62-63.85
		c0.52-30.6,0.41-61.22,0.07-91.82c-0.19-16.39,4.73-30.7,14.67-43.5c0.7-0.9,1.98-1.73,1.55-2.94c-0.55-1.57-2.24-1.11-3.5-1.19
		c-26.37-1.77-48.29,18.65-48.5,45.08c-0.43,52.05,0.68,104.11-0.6,156.16c-0.36,14.76-4.55,27.69-12.74,39.68
		c-1.24,1.81-4.48,3.4-3.23,5.6C235.98,472.42,239.32,470.86,241.38,471.25z M139.55,361.52c0,21.13-0.08,42.26,0.02,63.38
		c0.13,27.46,21.08,47.42,48.46,46.29c1.39-0.06,3.36,0.66,3.98-1.11c0.45-1.27-0.97-2.36-1.8-3.37
		c-10.17-12.33-14.75-26.61-14.78-42.45c-0.04-18.8-0.01-37.6-0.01-56.4c0-19.96,0.06-39.93-0.03-59.89
		c-0.05-11.03-7.47-18.31-18.53-18.48c-3.5-0.05-6.99-0.03-10.49-0.01c-6.63,0.03-6.8,0.17-6.81,6.65
		C139.53,317.94,139.55,339.73,139.55,361.52z M398.18,295.25c0-8.97,0.16-17.95-0.03-26.91c-0.56-26.47-23.19-46.82-49.53-44.68
		c-1.11,0.09-2.54-0.3-3.14,0.97c-0.63,1.32,0.69,2.06,1.39,2.91c10.46,12.69,15.48,27.27,15.39,43.69
		c-0.07,13.12-0.12,26.25,0.05,39.37c0.13,9.98,7.23,17.19,17.23,17.69c4.48,0.22,8.98-0.08,13.46,0.14
		c3.91,0.19,5.3-1.43,5.23-5.27C398.06,313.86,398.18,304.55,398.18,295.25z"/>
	<path class="st0" d="M903.37,400.72c-3.63,2.91-6.3,5.38-9.29,7.39c-21.44,14.42-52.21,6.86-64.33-15.99
		c-11.04-20.81-11.13-41.88,0.55-62.42c14.29-25.14,49.22-27.52,66.99-12.5c1.73,1.46,3.55,2.82,5.68,4.51
		c1.12-2.99,0.62-5.66,0.7-8.23c0.08-2.7,1.34-3.98,3.99-3.98c6.33,0,12.65,0,18.98,0.01c2.66,0,3.97,1.39,4.05,4
		c0.04,1.16,0.07,2.33,0.07,3.49c0,32.45,0.07,64.9-0.04,97.35c-0.03,9.6-1.88,18.93-6.87,27.28
		c-7.66,12.82-19.13,20.22-33.89,22.07c-18.58,2.33-36.27,0.49-51.21-12.46c-6.31-5.47-9.81-12.47-11.66-20.44
		c-0.84-3.63,0.66-5.39,4.36-5.39c4,0,7.99,0.02,11.99-0.04c5.3-0.09,9.12,0.93,12.84,6.07c7.04,9.73,17.94,11.48,29.25,8.75
		c10.34-2.5,15.96-9.44,17.36-20.07C903.71,414,903.81,407.93,903.37,400.72z M849.96,361.95c0,1.66-0.11,3.33,0.02,4.98
		c0.82,10.31,9.43,20.91,19.29,23.83c10.35,3.06,22.28-0.9,28.57-10.26c7.27-10.82,7.25-22.49,2.08-34.15
		c-5.9-13.33-23.37-18.91-35.97-11.58C853.57,340.82,849.43,350.24,849.96,361.95z"/>
	<path class="st0" d="M618.93,321.62c6.37-5.5,12.71-10.17,20.7-12.19c26.54-6.7,52.91,9.64,58.1,36.52
		c2.55,13.23,2.43,26.4-2.74,39.25c-12.36,30.69-47.39,39.83-73.14,18.96c-0.85-0.69-1.58-2.12-2.87-1.47
		c-1.43,0.72-0.92,2.37-0.92,3.62c-0.04,16.47-0.02,32.94-0.04,49.41c-0.01,7.31-0.23,7.52-7.59,7.54
		c-4.66,0.02-9.33-0.15-13.98,0.05c-4.08,0.17-5.6-1.45-5.54-5.56c0.18-11.64,0.06-23.29,0.06-34.94c0-35.44-0.01-70.87,0.01-106.31
		c0-6.84,0.18-7,6.97-7.03c4.66-0.02,9.33,0.19,13.98-0.06c4.54-0.24,6.46,1.59,6.15,6.11
		C617.95,317.29,617.67,319.17,618.93,321.62z M618.16,361.14c0,1.66-0.12,3.33,0.02,4.99c0.94,11.36,8.78,21.32,19.17,24.43
		c10.33,3.09,20.82-0.32,27.75-8.89c4.49-5.56,6.27-12.05,6.68-18.97c0.82-13.69-7.12-26.24-18.78-29.9
		C634.92,327.12,618.16,340.71,618.16,361.14z"/>
	<path class="st0" d="M946.68,344.08c0-21.13,0.12-42.25-0.09-63.38c-0.05-4.86,1.68-6.52,6.38-6.26
		c5.14,0.29,10.32,0.19,15.47,0.04c3.9-0.12,5.33,1.64,5.3,5.4c-0.09,11.64-0.04,23.29,0.02,34.93c0.01,1.41-0.74,3.38,0.86,4.09
		c1.52,0.67,2.59-1.13,3.73-1.98c17.4-13.08,42.39-11.75,56.61,3.21c6.16,6.48,9.7,14.41,10.54,23.23
		c2.02,21.23,0.99,42.54,1.02,63.82c0.01,4.75-2.08,6.83-7.09,6.42c-4.96-0.4-9.99-0.31-14.97-0.03c-4.46,0.25-5.78-1.66-5.75-5.87
		c0.13-17.63,0.06-35.26,0.04-52.9c-0.01-6.51-1.39-12.54-6.18-17.38c-7.44-7.51-16.48-7.55-25.51-4.52
		c-9.67,3.24-13.02,11.51-13.21,20.91c-0.32,15.63-0.12,31.27-0.13,46.91c0,1.66,0,3.33,0,4.99c-0.02,7.78-0.02,7.78-7.66,7.79
		c-4.66,0.01-9.33-0.19-13.98,0.05c-4.2,0.21-5.48-1.59-5.46-5.6C946.75,386.66,946.69,365.37,946.68,344.08z"/>
	<path class="st0" d="M546.75,402.5c-7.6,7.43-15.7,11.05-25.1,12.22c-24.99,3.1-45.8-14.02-46.44-39.23
		c-0.52-20.29-0.06-40.6-0.2-60.9c-0.03-4,1.69-5.27,5.41-5.16c5.32,0.15,10.66,0.2,15.98-0.01c4.36-0.17,5.85,1.72,5.82,5.94
		c-0.12,17.8-0.15,35.61,0.01,53.41c0.14,16.74,12.46,26.3,28.8,22.6c9.54-2.16,15.91-10.69,16-22c0.14-17.3,0.04-34.61,0.05-51.91
		c0.01-7.9,0.1-7.98,8.17-8c4.83-0.01,9.66,0.09,14.48-0.01c3.59-0.08,5.22,1.61,5.23,5.08c0.01,1.66,0.05,3.33,0.05,4.99
		c0,28.79,0.01,57.57-0.01,86.36c0,7.35-0.29,7.6-7.54,7.62c-4.66,0.01-9.34-0.23-13.98,0.06c-4.64,0.29-6.99-1.22-6.44-6.15
		C547.18,406.29,546.93,405.13,546.75,402.5z"/>
	<path class="st0" d="M1066.58,361.31c0-8.15-0.13-16.31,0.06-24.45c0.09-3.81-1.18-5.34-5.17-5.3c-6.9,0.07-6.9-0.13-6.94-6.96
		c-0.01-1.5-0.06-3,0.01-4.49c0.13-2.97-0.88-6.25,0.58-8.85c1.8-3.2,5.45-1.43,8.27-1.82c2.66-0.37,3.17-1.99,3.17-4.19
		c0.01-5.32,0.18-10.65-0.02-15.97c-0.15-3.89,1.64-5.52,5.27-5.56c5.82-0.06,11.65-0.05,17.47-0.08c3.1-0.01,4.53,1.51,4.5,4.62
		c-0.05,5.49,0.1,10.98-0.01,16.47c-0.07,3.38,1.32,4.85,4.74,4.76c4.66-0.12,9.32,0.03,13.98,0c2.88-0.02,4.31,1.28,4.28,4.22
		c-0.05,4.49-0.05,8.98,0,13.47c0.04,3.12-1.35,4.54-4.54,4.47c-4.66-0.1-9.32,0.08-13.98-0.04c-3.19-0.08-4.49,1.25-4.48,4.43
		c0.07,15.3,0.02,30.61,0.06,45.91c0.02,5.12,2.77,8.14,7.75,8.78c3.45,0.44,6.97,0.46,10.45,0.43c3.02-0.02,4.77,1.01,4.73,4.28
		c-0.05,4.66-0.02,9.32-0.02,13.97c0,2.59-1.1,4.13-3.86,4.06c-7.64-0.21-15.32,0.71-22.91-0.73c-14.24-2.7-22.74-12.38-23.27-26.98
		c-0.29-8.14-0.05-16.3-0.05-24.45C1066.63,361.31,1066.6,361.31,1066.58,361.31z"/>
	<path class="st0" d="M744.92,323.39c6.99-7.98,14.14-12.75,23.12-14.51c7.86-1.54,8.84-0.85,8.87,6.94
		c0.01,4.99-0.13,9.98,0.03,14.97c0.13,3.96-1.33,6.01-5.5,5.68c-1.32-0.1-2.66-0.01-3.99,0c-14.63,0.19-22.16,7.42-22.4,22.16
		c-0.26,16.13-0.24,32.26-0.03,48.39c0.06,4.95-1.5,6.97-6.6,6.57c-4.63-0.37-9.33-0.36-13.97-0.01c-4.99,0.38-6.68-1.37-6.64-6.47
		c0.22-24.11,0.1-48.22,0.1-72.34c0-6.49,0.18-12.98-0.06-19.45c-0.16-4.23,1.24-6.13,5.69-5.91c5.15,0.25,10.32,0.21,15.47,0.01
		c4.24-0.17,6.24,1.45,5.94,5.79C744.8,317.44,744.92,319.7,744.92,323.39z"/>
	<path class="st0" d="M784.81,361.47c0-15.31,0.13-30.61-0.08-45.92c-0.06-4.49,1.34-6.39,5.98-6.15
		c5.31,0.28,10.65,0.16,15.98,0.05c3.54-0.07,5.18,1.37,5.17,5c-0.04,31.44-0.04,62.89,0,94.33c0,3.33-1.29,4.85-4.75,4.76
		c-5.66-0.15-11.33-0.22-16.98,0.02c-4.27,0.18-5.42-1.74-5.39-5.67C784.89,392.41,784.81,376.94,784.81,361.47z"/>
	<path class="st0" d="M798.16,297.67c-9.67-0.01-16.3-6.36-16.27-15.59c0.03-8.76,7.41-15.62,16.66-15.51
		c9.25,0.11,16.39,7.07,16.34,15.9C814.85,291.48,808.03,297.68,798.16,297.67z"/>
</g>
</svg>
