<svg width="40" height="39" viewBox="0 0 40 39" fill="none" xmlns="http://www.w3.org/2000/svg">
<path d="M39 37.33C37.76 37.34 36.52 37.34 35.29 37.34C35.15 37.34 35.02 37.33 34.86 37.32C35.69 31.98 36.49 26.69 37.3 21.39C36.28 21.23 35.48 21.65 35.06 22.57C34.65 23.47 34.18 24.3 33.47 25C31.99 26.48 30.15 27.08 28.09 27.12C25.54 27.17 23.41 26.25 21.85 24.19C21.47 23.69 21.2 23.1 20.92 22.53C20.61 21.85 19.78 21.16 18.7 21.41C19.51 26.71 20.32 31.99 21.13 37.31H19.78C19.66 36.51 19.54 35.74 19.42 34.96C18.55 35.51 18.54 35.5 17.8 34.76C16.97 33.93 16.14 33.11 15.32 32.27C15.13 32.08 14.95 32 14.68 32C10.83 32.01 6.97 32.01 3.11 32.01H2.7C2.7 32.82 2.64 33.6 2.71 34.37C2.81 35.64 3.54 36.5 4.65 37.05C4.82 37.14 5.02 37.2 5.22 37.27C3.82 37.34 2.42 37.34 1.02 37.34C0.85 37.34 0.66 37.35 0.48 37.39C0.16 37.45 0 37.7 0 38.01C0.01 38.34 0.19 38.58 0.54 38.64C0.71 38.67 0.9 38.66 1.08 38.66C9.09 38.67 17.1 38.67 25.11 38.67C29.74 38.67 34.38 38.66 39.02 38.67C39.45 38.67 39.82 38.61 40.01 38.16V37.78C39.77 37.41 39.41 37.33 39 37.33ZM27.68 36C25.67 36.01 23.98 34.34 23.99 32.33C24 30.33 25.65 28.69 27.66 28.67C29.66 28.67 31.32 30.31 31.33 32.33C31.34 34.33 29.7 35.98 27.68 36Z" fill="#F6F6F6"/>
<path d="M28.58 6.01001C28.3 8.45001 28.02 10.88 27.73 13.3C26.96 13.42 26.1 13.08 25.53 13.86C24.58 13.03 23.53 12.45 22.32 12.21C21.7 12.09 21.09 12.01 20.46 12.01C17.63 11.99 14.79 12 11.95 12H11.45C11.22 10.01 10.98 8.04001 10.75 6.02001H28.58V6.01001Z" fill="#F6F6F6"/>
<path d="M24.11 14.45C23.09 13.7 21.93 13.34 20.68 13.33C16.69 13.31 12.69 13.31 8.68997 13.33C4.97997 13.35 2.36997 16.5 2.68997 19.98H18.66V18.79C18.66 17.77 19.09 17.33 20.1 17.32H22C22 16.82 21.99 16.39 22 15.95C22.02 15.14 22.48 14.68 23.3 14.66H24.36C24.23 14.54 24.17 14.5 24.11 14.45ZM9.36997 16.66C9.23997 16.67 9.10997 16.66 8.98997 16.66V16.67H8.78997C8.29997 16.65 7.99997 16.39 8.00997 16C8.00997 15.59 8.29997 15.35 8.80997 15.35C8.96997 15.34 9.14997 15.34 9.30997 15.35C9.68997 15.37 9.95997 15.63 9.98997 15.98C9.99997 16.31 9.75997 16.6 9.36997 16.66ZM12.98 18C12.9 18 12.81 18.01 12.71 18C12.27 17.97 12 17.71 12.01 17.32C12.01 16.94 12.28 16.69 12.73 16.67H13C13.68 16.67 13.99 16.89 13.98 17.35C13.98 17.79 13.66 18 12.98 18ZM16.98 16.67H16.86C16.3 16.66 16 16.41 16 15.98C16.01 15.57 16.3 15.34 16.84 15.34H17C17.68 15.34 17.98 15.55 17.98 16C17.97 16.46 17.66 16.67 16.98 16.67Z" fill="white"/>
<path d="M30 4.64999H9.35999C9.35999 4.14999 9.33999 3.66999 9.36999 3.20999C9.37999 2.89999 9.60999 2.72999 9.91999 2.69999C10.05 2.67999 10.18 2.67999 10.3 2.67999H29.02C29.12 2.67999 29.23 2.67999 29.32 2.68999C29.73 2.71999 29.97 2.94999 29.98 3.36999C30.01 3.75999 30 4.17999 30 4.64999Z" fill="white"/>
<path d="M17.65 23.33C17.06 23.33 16.49 23.34 15.93 23.32C15.32 23.3 14.86 23.51 14.44 23.94C13.43 24.99 12.4 26 11.34 27.05C11.24 26.95 11.13 26.86 11.03 26.76C10.08 25.81 9.11 24.86 8.17 23.88C7.79 23.5 7.36 23.31 6.81 23.32C6.1 23.34 5.4 23.33 4.69 23.33V21.36H17.33C17.44 22.02 17.53 22.65 17.65 23.33Z" fill="white"/>
<path d="M18.64 33.69C17.84 32.9 17.03 32.12 16.25 31.29C15.81 30.84 15.32 30.65 14.69 30.65C11.51 30.67 8.32999 30.66 5.15999 30.66H4.67999V28.68C4.82999 28.67 4.96999 28.66 5.10999 28.66C9.41999 28.66 13.72 28.67 18.03 28.66C18.38 28.66 18.48 28.75 18.53 29.1C18.68 30.3 18.89 31.49 19.07 32.69C19.16 33.3 19.16 33.3 18.64 33.69Z" fill="white"/>
<path d="M28.64 14.7H26.67V25.71H28.64V14.7Z" fill="white"/>
<path d="M28.01 1.32002H11.34C11.34 1.08002 11.32 0.840022 11.34 0.620022C11.39 0.270022 11.58 0.0500216 11.96 0.0100216C12.08 2.16244e-05 12.19 2.16338e-05 12.31 2.16338e-05H27.04C27.4 2.16338e-05 27.79 -0.00997844 27.92 0.400022C28.01 0.670022 27.99 0.980022 28.01 1.32002Z" fill="white"/>
<path d="M32.01 24.12C32.01 24.42 31.92 24.61 31.66 24.75C31.14 25.02 30.61 25.29 30.02 25.59V16.02H32V16.44C32 19 32 21.56 32.01 24.12Z" fill="white"/>
<path d="M25.3 16.02V25.25C24.55 24.97 23.95 24.54 23.43 23.98C23.37 23.92 23.35 23.79 23.35 23.7V16.17C23.35 16.14 23.36 16.1 23.37 16.02H25.3Z" fill="white"/>
<path d="M9.69998 27.3C9.51998 27.33 9.43998 27.34 9.36998 27.34C7.64998 27.34 5.93998 27.33 4.21998 27.34C3.76998 27.34 3.35998 27.25 3.03998 26.9C2.69998 26.54 2.54998 26.11 2.70998 25.62C2.86998 25.13 3.19998 24.79 3.69998 24.72C4.23998 24.66 4.77998 24.67 5.32998 24.67C5.89998 24.66 6.52998 24.52 6.99998 24.72C7.49998 24.93 7.84998 25.48 8.25998 25.87C8.70998 26.32 9.16998 26.78 9.69998 27.3Z" fill="white"/>
<path d="M18.24 27.3H12.94C13.48 26.78 13.93 26.32 14.4 25.87C14.81 25.47 15.16 24.93 15.65 24.73C16.13 24.52 16.76 24.7 17.31 24.66C17.73 24.63 17.89 24.74 17.94 25.18C18 25.88 18.14 26.57 18.24 27.3Z" fill="white"/>
<path d="M35.33 18.04C35.33 18.78 35.33 19.5 35.32 20.22C35.32 20.31 35.25 20.45 35.17 20.5C34.45 20.92 34.02 21.57 33.7 22.32C33.62 22.51 33.51 22.68 33.36 22.84V18.04H35.33Z" fill="white"/>
<path d="M21.97 18.69V21.58C21.92 21.55 21.88 21.52 21.84 21.48C21.46 20.9 20.92 20.49 20.26 20.22C20.14 20.17 20.03 20 20.02 19.87C19.98 19.48 20 19.1 20 18.69H21.97Z" fill="white"/>
<path d="M30 32.39C29.95 33.68 28.89 34.7 27.6 34.66C26.33 34.63 25.3 33.54 25.33 32.31C25.38 31.01 26.42 29.98 27.7 30.02C29.01 30.05 30.03 31.12 30 32.39Z" fill="white"/>
</svg>
