<?xml version="1.0" encoding="utf-8"?>
<!-- Generator: Adobe Illustrator 27.3.1, SVG Export Plug-In . SVG Version: 6.00 Build 0)  -->
<svg version="1.1" id="Layer_1" xmlns="http://www.w3.org/2000/svg" xmlns:xlink="http://www.w3.org/1999/xlink" x="0px" y="0px"
	 viewBox="0 0 210 110" style="enable-background:new 0 0 210 110;" xml:space="preserve">
<style type="text/css">
	.st0{fill:#D70F64;}
</style>
<g>
	<path class="st0" d="M44.95,48.05h2.92v-2.8c0-3.39,1.87-5.61,5.61-5.61l1.87,0.35v3.39l-1.99-0.35c-1.17,0-1.63,0.71-1.63,1.87
		v3.15h3.74v3.39h-3.74v14.02h-3.74V51.43h-3.04L44.95,48.05z M64.93,47.7c4.79,0,9.11,3.74,9.11,9.11s-4.2,9.11-9.11,9.11
		s-9.11-3.74-9.11-9.11C55.82,51.32,60.14,47.7,64.93,47.7L64.93,47.7z M64.93,62.53c3.51,0,5.37-2.57,5.37-5.72
		c0-3.15-1.87-5.73-5.37-5.73c-3.51,0-5.37,2.57-5.37,5.73C59.56,59.85,61.43,62.53,64.93,62.53z M84.67,47.7
		c4.79,0,9.11,3.74,9.11,9.11s-4.2,9.11-9.11,9.11s-9.11-3.74-9.11-9.11C75.68,51.32,79.88,47.7,84.67,47.7L84.67,47.7z
		 M84.67,62.53c3.5,0,5.37-2.57,5.37-5.72c0-3.15-1.87-5.73-5.37-5.73c-3.5,0-5.37,2.57-5.37,5.73
		C79.3,59.85,81.17,62.53,84.67,62.53z M113.18,65.45h-3.39l-0.35-1.51l-0.23-0.23l-0.23,0.23c-1.17,1.17-2.92,1.87-4.79,1.87
		c-4.79,0-8.87-3.74-8.87-9.11s4.08-9.11,8.87-9.11c1.87,0,3.74,0.71,4.79,1.87l0.23,0.23l0.23-0.23v-9.7h3.74L113.18,65.45z
		 M104.42,50.97c-3.51,0-5.37,2.57-5.37,5.72c0,3.15,1.87,5.73,5.37,5.73c3.16,0,5.37-2.57,5.37-5.73
		C109.79,53.66,107.57,50.97,104.42,50.97L104.42,50.97z M116.91,48.05h3.39l0.35,1.52l0.23,0.23l0.23-0.23
		c1.17-1.17,2.92-1.87,4.79-1.87c4.79,0,8.87,3.74,8.87,9.11s-4.09,9.11-8.87,9.11c-1.87,0-3.74-0.7-4.79-1.87l-0.23-0.23
		l-0.23,0.23v9.35h-3.62V48.05H116.91z M125.56,62.53c3.51,0,5.37-2.57,5.37-5.72c0-3.15-1.87-5.73-5.37-5.73
		c-3.15,0-5.37,2.57-5.37,5.73C120.19,59.85,122.41,62.53,125.56,62.53z M144.02,54.59h3.03v-0.82c0-2.11-1.4-3.04-3.39-3.04
		c-1.63,0-2.68,0.82-3.27,2.34l-3.27-0.7c0.7-2.92,3.27-4.79,6.66-4.79c4.67,0,7.01,2.34,7.01,6.89v10.87h-3.04L147.4,63
		c-1.17,1.76-3.03,2.57-5.49,2.57c-3.15,0-5.37-1.87-5.37-5.37C136.43,56.81,139.46,54.59,144.02,54.59L144.02,54.59z M142.39,62.53
		c1.17,0,2.33-0.35,3.15-1.17c0.93-0.82,1.4-1.87,1.4-3.27v-0.35h-3.15c-2.22,0-3.62,1.05-3.62,2.69
		C140.17,61.6,140.98,62.53,142.39,62.53L142.39,62.53z M154.07,48.05h3.39l0.35,1.52l0.23,0.23l0.23-0.23
		c0.71-1.17,2.57-1.87,4.09-1.87c4.44,0,7.01,2.92,7.01,7.01v10.75h-3.74V54.71c-0.11-2.34-1.28-3.74-3.74-3.74
		c-2.22,0-3.97,1.75-4.09,3.97v10.51h-3.74V48.05z M189.34,65.45h-3.39l-0.35-1.51l-0.23-0.23l-0.23,0.23
		c-1.17,1.17-2.92,1.87-4.79,1.87c-4.79,0-8.87-3.74-8.87-9.11s4.08-9.11,8.87-9.11c1.87,0,3.74,0.71,4.79,1.87l0.23,0.23l0.23-0.23
		v-9.7h3.74L189.34,65.45z M180.7,50.97c-3.5,0-5.37,2.57-5.37,5.72c0,3.15,1.87,5.73,5.37,5.73c3.16,0,5.38-2.57,5.38-5.73
		C186.08,53.66,183.86,50.97,180.7,50.97L180.7,50.97z M199.98,54.59h3.04v-0.82c0-2.11-1.4-3.04-3.39-3.04
		c-1.63,0-2.69,0.82-3.27,2.34l-3.27-0.7c0.7-2.92,3.27-4.79,6.65-4.79c4.68,0,7.01,2.34,7.01,6.89v10.87h-3.04L203.36,63
		c-1.17,1.76-3.04,2.57-5.49,2.57c-3.16,0-5.37-1.87-5.37-5.37C192.38,56.81,195.3,54.59,199.98,54.59L199.98,54.59z M198.34,62.53
		c1.17,0,2.34-0.35,3.15-1.17c0.94-0.82,1.4-1.87,1.4-3.27v-0.35h-3.16c-2.22,0-3.62,1.05-3.62,2.69
		C196.12,61.6,196.94,62.53,198.34,62.53z"/>
	<path class="st0" d="M19.13,59.97c2.11,0,3.86-1.52,3.86-3.39h-7.71C15.28,58.45,16.91,59.97,19.13,59.97L19.13,59.97z"/>
	<path class="st0" d="M32.1,43.84c0.94-0.7,1.4-1.87,1.4-3.16c0-2.34-1.87-4.09-4.21-4.09c-1.51,0-2.8,0.7-3.5,1.87
		c-2.11-1.03-4.43-1.55-6.78-1.52c-2.34,0.01-4.65,0.52-6.77,1.52c-0.71-1.17-1.99-1.87-3.51-1.87c-2.29-0.02-4.17,1.8-4.21,4.09
		c0.02,1.2,0.53,2.34,1.4,3.16c-1.77,2.57-2.71,5.63-2.69,8.76c0,8.71,7.06,15.77,15.77,15.78c8.71,0,15.77-7.06,15.77-15.77
		C34.79,49.34,33.85,46.3,32.1,43.84L32.1,43.84z M19.14,67.09c-7.95,0-14.49-6.54-14.49-14.48c0-3.04,0.93-5.85,2.45-8.18
		c1.41-2.14,3.4-3.84,5.73-4.91c1.87-0.94,4.09-1.4,6.31-1.4s4.44,0.47,6.31,1.4c2.34,1.17,4.21,2.8,5.73,4.91
		c1.52,2.34,2.45,5.14,2.45,8.18C33.62,60.55,27.08,67.09,19.14,67.09L19.14,67.09z"/>
	<path class="st0" d="M19.13,55.64c0.24,0.11,2.69-0.82,2.69-1.99c0-0.7-1.99-0.82-2.69-0.82c-0.71,0-2.68,0.11-2.68,0.82
		C16.33,54.83,18.9,55.76,19.13,55.64L19.13,55.64z M28.25,45.83c-1.4-0.93-4.44-1.4-5.61,0.12c0,0-1.52,1.63,0,3.27
		c1.52,1.63,2.57,3.28,2.92,4.56c0.35,1.4,0.93,1.87,1.99,1.87s3.15-1.63,3.5-4.32C31.23,49.11,30.15,46.98,28.25,45.83z
		 M25.09,49.22c-0.47,0-0.82-0.35-0.82-0.82c0-0.46,0.35-0.82,0.82-0.82s0.82,0.35,0.82,0.82C25.91,48.87,25.56,49.22,25.09,49.22z
		 M15.51,45.95c-1.17-1.52-4.2-1.05-5.61-0.12s-3.04,2.8-2.8,5.49c0.23,2.69,2.34,4.32,3.51,4.32c1.05,0,1.63-0.58,1.99-1.87
		c0.35-1.4,1.52-2.92,2.92-4.56C17.03,47.47,15.51,45.95,15.51,45.95z M13.3,49.21c-0.47,0-0.82-0.35-0.82-0.81
		c0-0.46,0.35-0.82,0.82-0.82s0.82,0.35,0.82,0.82C14.11,48.87,13.76,49.22,13.3,49.21L13.3,49.21z"/>
</g>
</svg>
