<?xml version="1.0" encoding="utf-8"?>
<!-- Generator: Adobe Illustrator 26.2.1, SVG Export Plug-In . SVG Version: 6.00 Build 0)  -->
<svg version="1.1" id="report" xmlns="http://www.w3.org/2000/svg" xmlns:xlink="http://www.w3.org/1999/xlink" x="0px" y="0px"
	 viewBox="0 0 640.62 640.62" style="enable-background:new 0 0 640.62 640.62;" xml:space="preserve">
<style type="text/css">
	.st0{fill:#360061;}
	.st1{fill:url(#SVGID_1_);}
	.st2{fill:#5800B2;}
	.st3{fill:url(#SVGID_00000056425479318007814660000011960246023664122242_);}
	.st4{opacity:0.9;fill:#5800B2;}
	.st5{opacity:0.8;fill:#5800B2;}
</style>
<g>
	<path class="st0" d="M505.43,279.5c6.09-1.34,11.93-2.61,17.7-3.88c3.95,4.73,8.02,9.95,12.5,14.78c1.76,1.9,4.31,3.75,6.76,4.2
		c8.36,1.54,10.08,6.59,10.71,14.45c3.4,42.21,7.48,84.36,11.32,126.53c2.26,24.77,4.56,49.53,6.7,74.31
		c0.57,6.59,4.36,8.54,10.34,8.84c27.82,1.38,50.46,19.67,57.62,46.39c0.63,2.34,0.92,4.77,1.54,8.08
		c-2.83,0.14-5.15,0.35-7.47,0.35c-147.5,0.02-295.01,0.02-442.51,0.01c-19.49,0-32.68-9.59-35.68-26.75
		c-0.89-5.09-0.7-11.01,1.03-15.81c10.93-30.31,22.44-60.41,33.77-90.57c0.14-0.38,0.59-0.65,1.54-1.65
		c18.8,12.42,40.37,9.66,61.5,9.79c21.52,0.12,43.04-0.09,64.56,0.07c14.17,0.1,28.26,0.05,42.15-6.2
		c0.79,5.54,1.24,10.56,2.24,15.46c6.23,30.55,27.64,51.49,60.14,57.45c27.15,4.98,52.3-0.54,73.62-18.73
		c20.74-17.7,26.57-41.13,24.04-67.35c-4.72-48.84-9.42-97.68-14.11-146.52C505.34,281.66,505.43,280.55,505.43,279.5z
		 M278.94,538.58c12.53,0,25.07,0.09,37.6-0.03c7.23-0.07,9.7-2.59,9.78-9.71c0.09-8.73,0.08-17.46,0.01-26.19
		c-0.13-17.58-11.25-28.89-28.96-29.17c-12.31-0.2-24.62-0.19-36.93,0c-17.48,0.27-28.53,11.18-28.95,28.52
		c-0.21,8.72-0.13,17.46-0.02,26.19c0.1,8.01,2.46,10.32,10.54,10.38C254.32,538.64,266.63,538.58,278.94,538.58z"/>
	<linearGradient id="SVGID_1_" gradientUnits="userSpaceOnUse" x1="154.4359" y1="424.5918" x2="640.6213" y2="424.5918">
		<stop  offset="0" style="stop-color:#FFFFFF;stop-opacity:0.4"/>
		<stop  offset="0.0691" style="stop-color:#FFFFFF;stop-opacity:0.3435"/>
		<stop  offset="0.4892" style="stop-color:#FFFFFF;stop-opacity:0"/>
		<stop  offset="0.7527" style="stop-color:#FAFAFA;stop-opacity:0.1032"/>
		<stop  offset="1" style="stop-color:#EFEFEF;stop-opacity:0.2"/>
	</linearGradient>
	<path class="st1" d="M505.43,279.5c6.09-1.34,11.93-2.61,17.7-3.88c3.95,4.73,8.02,9.95,12.5,14.78c1.76,1.9,4.31,3.75,6.76,4.2
		c8.36,1.54,10.08,6.59,10.71,14.45c3.4,42.21,7.48,84.36,11.32,126.53c2.26,24.77,4.56,49.53,6.7,74.31
		c0.57,6.59,4.36,8.54,10.34,8.84c27.82,1.38,50.46,19.67,57.62,46.39c0.63,2.34,0.92,4.77,1.54,8.08
		c-2.83,0.14-5.15,0.35-7.47,0.35c-147.5,0.02-295.01,0.02-442.51,0.01c-19.49,0-32.68-9.59-35.68-26.75
		c-0.89-5.09-0.7-11.01,1.03-15.81c10.93-30.31,22.44-60.41,33.77-90.57c0.14-0.38,0.59-0.65,1.54-1.65
		c18.8,12.42,40.37,9.66,61.5,9.79c21.52,0.12,43.04-0.09,64.56,0.07c14.17,0.1,28.26,0.05,42.15-6.2
		c0.79,5.54,1.24,10.56,2.24,15.46c6.23,30.55,27.64,51.49,60.14,57.45c27.15,4.98,52.3-0.54,73.62-18.73
		c20.74-17.7,26.57-41.13,24.04-67.35c-4.72-48.84-9.42-97.68-14.11-146.52C505.34,281.66,505.43,280.55,505.43,279.5z
		 M278.94,538.58c12.53,0,25.07,0.09,37.6-0.03c7.23-0.07,9.7-2.59,9.78-9.71c0.09-8.73,0.08-17.46,0.01-26.19
		c-0.13-17.58-11.25-28.89-28.96-29.17c-12.31-0.2-24.62-0.19-36.93,0c-17.48,0.27-28.53,11.18-28.95,28.52
		c-0.21,8.72-0.13,17.46-0.02,26.19c0.1,8.01,2.46,10.32,10.54,10.38C254.32,538.64,266.63,538.58,278.94,538.58z"/>
	<path class="st0" d="M161.46,226.01c-9.01-6.74-16.58-12.96-24.74-18.25c-3.62-2.34-8.55-4.17-12.74-3.9
		c-49.3,3.15-100.3-36.28-106.51-84.89C12.25,78.03,29.66,46.3,64.08,24.55c56.94-35.98,132.9-8.52,152.49,54.5
		c13.26,42.69-4.44,86.7-44.84,109.57c-7.73,4.37-11.27,9.19-10.38,17.95C161.95,212.5,161.46,218.54,161.46,226.01z M51.07,113.2
		c-5.19,0.51-10.01,2.57-8.98,7.92c0.68,3.54,4.93,6.38,7.58,9.54c0.65-0.4,1.31-0.8,1.96-1.2c0,3.79-0.11,7.59,0.02,11.38
		c0.35,10.13,6.65,17.39,16.63,17.48c33.83,0.3,67.67,0.29,101.5-0.01c9.64-0.09,16.09-7.29,16.56-16.9
		c0.19-4.01,0.03-8.03,0.03-12.05c0.53,0.36,1.06,0.72,1.6,1.08c2.73-2.89,7.11-5.42,7.84-8.75c1.33-6.08-4.22-7.85-9.06-8.7
		c-0.71-48.96-35.38-68.3-66.51-68.99C80.45,43.12,56.14,67.33,51.07,113.2z"/>
	<path class="st2" d="M277.04,309.5c25.72,2.67,51.11,5.26,76.5,7.94c22.27,2.35,44.57,4.48,66.79,7.28
		c17.94,2.26,29.29,15.71,28.42,33.93c-1.39,29.09-2.98,58.19-5.44,87.21c-1.81,21.39,3.53,39.01,22.17,51.27
		c-8.07,5.93-21.08,7.89-35.43,5.54c-31.01-5.08-55.75-33.41-55.11-63.56c0.07-3.12,2.12-6.41,3.87-9.24
		c4.53-7.36,10.75-13.97,13.87-21.85c6.8-17.18-5.31-34.04-23.89-34.43c-12.99-0.27-26,0-39-0.1
		C295.89,373.21,271.49,344.07,277.04,309.5z"/>
	<path class="st0" d="M399.72,238.7c2.95,0,5.35,0,7.74,0c33.16,0,66.33-0.05,99.49,0.04c10.54,0.03,16.58,7.57,13.5,16.43
		c-2.17,6.24-6.99,8.34-13.12,8.34c-16.13,0.01-32.27,0.02-48.4,0.02c-21.06,0-42.13,0.14-63.19-0.11
		c-4.49-0.05-6.35,1.46-8.43,5.47c-5.53,10.67-11.84,20.95-18.26,31.12c-1.13,1.79-4.42,3.41-6.53,3.21
		c-27.42-2.62-54.8-5.57-82.19-8.49c-1.05-0.11-2.05-0.63-3.37-1.05c1.59-21.83,9.87-40.92,21.34-58.82
		c18.12-28.27,42.36-50.84,67.78-72.27c9.32-7.86,9.38-7.75,19.7-1.39c2.47,1.52,5.01,2.96,7.62,4.23
		c15.87,7.69,22.29,19.72,18.17,37.01c-2.53,10.6-6.86,20.77-10.37,31.13C400.73,235.02,400.36,236.5,399.72,238.7z"/>
	<path class="st0" d="M177.92,388.46c-11.7,0-22.62,0-33.55,0c-10.09,0-20.17,0.01-30.26,0c-11.48-0.01-13.51-2.4-12.04-14.55
		c39.5,0,79.04,0,119.13,0c0,4.64,0,9.05,0,14.55c3.09,0,5.66,0,8.23,0c44.15,0,88.31-0.02,132.46,0.02
		c6.26,0.01,13.18-0.67,16.69,6.02c3.62,6.91-0.89,12.73-4.63,17.79c-10.57,14.33-25.48,21.05-42.95,21.23
		c-34.74,0.35-69.48,0.23-104.22-0.03c-5.73-0.04-11.85-0.76-17.1-2.87C191.3,423.22,176.11,412.84,177.92,388.46z"/>
	<path class="st2" d="M493.99,79.14c-21.72-0.14-43.45-0.42-65.17-0.31c-6.11,0.03-7.39,4.62-7.37,9.91
		c0.07,20.4,0.03,40.8,0.02,61.2c0,2.44,0,4.88,0,7.98c-13.4-1.11-24.61-6.12-34.54-14.01C363.27,125.1,355.33,94,366.58,65.09
		c10.27-26.4,36.49-42.46,66.33-40.63c30.63,1.88,53.15,19.83,60.52,48.36c0.53,2.05,0.29,4.29,0.41,6.44L493.99,79.14z"/>
	<path class="st2" d="M221.29,362.21c-35.27,0-69.69,0-104.85,0c0-13.93,0-27.54,0-41.14c0-7.4-0.17-14.8,0.06-22.19
		c0.35-11.53,7.89-19.79,19.32-20c22.18-0.41,44.38-0.38,66.57-0.03c10.17,0.16,18.54,7.88,18.75,17.63
		C221.62,318.19,221.29,339.91,221.29,362.21z"/>
	<path class="st2" d="M630.08,588.93c-3.65,26.79-25.71,44.86-53.37,44.15c-25.24-0.64-46.77-19.91-49.01-44.15
		C561.68,588.93,595.64,588.93,630.08,588.93z"/>
	<path class="st2" d="M281.62,588.59c-4.27,27.92-26.25,45.61-54.23,44.46c-25.07-1.03-46.12-20.37-48.03-44.46
		C213.3,588.59,247.21,588.59,281.62,588.59z"/>
	<path class="st2" d="M573.75,238.79c5.6,0,11.22-0.25,16.8,0.05c12.04,0.64,20.45,10.03,20.36,22.38
		c-0.09,12.13-8.21,21.52-19.97,22.02c-11.4,0.49-22.87,0.53-34.26-0.04c-12.02-0.59-20.52-10.59-20.22-22.61
		c0.3-11.89,8.71-20.99,20.49-21.73c5.58-0.35,11.2-0.06,16.8-0.06C573.75,238.81,573.75,238.8,573.75,238.79z"/>
	
		<linearGradient id="SVGID_00000080886007771127440820000011599568088166777492_" gradientUnits="userSpaceOnUse" x1="536.4465" y1="261.159" x2="610.9102" y2="261.159">
		<stop  offset="0" style="stop-color:#FFFFFF;stop-opacity:0.4"/>
		<stop  offset="0.0691" style="stop-color:#FFFFFF;stop-opacity:0.3435"/>
		<stop  offset="0.4892" style="stop-color:#FFFFFF;stop-opacity:0"/>
		<stop  offset="0.7527" style="stop-color:#FAFAFA;stop-opacity:0.1032"/>
		<stop  offset="1" style="stop-color:#EFEFEF;stop-opacity:0.2"/>
	</linearGradient>
	<path style="fill:url(#SVGID_00000080886007771127440820000011599568088166777492_);" d="M573.75,238.79
		c5.6,0,11.22-0.25,16.8,0.05c12.04,0.64,20.45,10.03,20.36,22.38c-0.09,12.13-8.21,21.52-19.97,22.02
		c-11.4,0.49-22.87,0.53-34.26-0.04c-12.02-0.59-20.52-10.59-20.22-22.61c0.3-11.89,8.71-20.99,20.49-21.73
		c5.58-0.35,11.2-0.06,16.8-0.06C573.75,238.81,573.75,238.8,573.75,238.79z"/>
	<path class="st0" d="M480.7,94c-2.28,30.52-21.6,53.64-43.89,53.1c0-17.59,0-35.2,0-53.1C451.6,94,466.05,94,480.7,94z"/>
	<path class="st2" d="M39.72,263.54c9.16,0,18.32-0.02,27.49,0.01c5.07,0.02,8.92,1.72,8.9,7.58c-0.02,5.92-4.02,7.47-9.01,7.48
		c-18.77,0.04-37.54,0.04-56.31-0.01c-5.01-0.01-8.96-1.65-8.9-7.57c0.06-5.88,3.97-7.47,9.01-7.48
		C20.5,263.52,30.11,263.54,39.72,263.54z"/>
	<path class="st4" d="M47.09,318.47c-6.71-0.01-13.41-0.02-20.12,0c-4.77,0.01-7.93-2.31-8.13-7.03c-0.22-5.1,3.02-7.83,8.01-7.87
		c13.86-0.12,27.72-0.12,41.58,0.01c4.68,0.04,7.67,2.49,7.68,7.43c0.01,5.35-3.21,7.48-8.23,7.48
		C60.95,318.47,54.02,318.48,47.09,318.47z"/>
	<path class="st5" d="M56.04,358.54c-4.24,0-8.5,0.2-12.73-0.06c-4.7-0.29-7.6-3.06-7.37-7.8c0.22-4.31,2.99-6.92,7.49-6.96
		c8.49-0.08,16.98-0.1,25.47,0.01c4.52,0.05,7.1,2.52,7.21,7.07c0.11,4.87-2.57,7.49-7.34,7.71
		C64.54,358.69,60.28,358.54,56.04,358.54z"/>
	<path class="st2" d="M155.1,489.88c-3.45,9.16-6.81,18.1-10.27,27.29c-6.43-0.47-10.26-3.9-12.02-9.34
		c-1.97-6.11-1.33-12.16,3.74-16.69C142.09,486.2,148.34,486.92,155.1,489.88z"/>
	<path class="st0" d="M493.84,79.26c8.48-0.16,16.97-0.54,25.45-0.41c4.49,0.07,7.52,3.4,6.66,7.47c-0.58,2.73-4.01,6.59-6.51,6.87
		c-7.89,0.89-15.93,0.33-24.05,0.33c-0.5-5.25-0.93-9.83-1.39-14.39C493.99,79.14,493.84,79.26,493.84,79.26z"/>
	<path class="st2" d="M311.44,523.12c-21.93,0-43.09,0-64.71,0c0-8.2-0.37-16.01,0.12-23.77c0.38-6.07,4.35-10.2,10.39-10.39
		c14.3-0.43,28.63-0.45,42.93-0.06c6.6,0.18,10.68,5.19,11.21,12.02c0.14,1.78,0.06,3.58,0.06,5.37
		C311.45,511.64,311.44,517,311.44,523.12z"/>
	<path class="st2" d="M67.13,106.45c1.49-28.79,24.32-48.73,53.98-47.78c27.81,0.89,49.4,21.57,49.37,46.13
		c-8.58,0-17.19-0.53-25.68,0.22c-4.23,0.37-8.47,2.69-12.32,4.83c-8.28,4.6-17.02,5.76-24.98,0.95
		C94.61,103.03,81.42,102.69,67.13,106.45z"/>
	<path class="st2" d="M118.75,143.5c-15.22,0-30.44-0.16-45.66,0.09c-4.81,0.08-7.58-1.14-6.48-6.3c1.03-4.85-3.07-10.76,3.23-14.58
		c8.14-4.94,17.22-6.07,24.96-1.47c16.41,9.77,31.87,9.29,48.23,0.28c4.16-2.3,9.96-2.67,14.89-2.33
		c11.8,0.81,17.77,10.9,13.18,21.81c-0.6,1.42-3.94,2.36-6.03,2.39C149.64,143.59,134.19,143.5,118.75,143.5z"/>
</g>
</svg>
