<?xml version="1.0" encoding="utf-8"?>
<!-- Generator: Adobe Illustrator 26.2.1, SVG Export Plug-In . SVG Version: 6.00 Build 0)  -->
<svg version="1.1" id="Layer_1" xmlns="http://www.w3.org/2000/svg" xmlns:xlink="http://www.w3.org/1999/xlink" x="0px" y="0px"
	 viewBox="0 0 500 2730" style="enable-background:new 0 0 500 2730;" xml:space="preserve">
<style type="text/css">
	.st0{opacity:0.18;}
	.st1{clip-path:url(#SVGID_00000049181754588721897000000011220413583968956063_);}
	.st2{opacity:0.25;}
	.st3{fill:none;}
	.st4{fill:#0B4697;}
	.st5{fill:#253670;}
</style>
<g class="st0">
	<defs>
		<rect id="SVGID_1_" class="st0" width="500" height="2730"/>
	</defs>
	<clipPath id="SVGID_00000169526450873178483450000017091302944404262048_">
		<use xlink:href="#SVGID_1_"  style="overflow:visible;"/>
	</clipPath>
	<g style="clip-path:url(#SVGID_00000169526450873178483450000017091302944404262048_);">
		<g class="st2">
			<g>
				<g>
					<g>
						<path class="st3" d="M1217.18,1274.81"/>
					</g>
					<g>
						<path class="st4" d="M-1108.13,2363.34l337.28,97.57l-337.28,200.73V2363.34z M-778.57,2461.92l-326.43-94.43v288.83
							L-778.57,2461.92z"/>
					</g>
					<g>
						<path class="st4" d="M-955.12,1937.42l1.29,2.66l-154.3,92.23v-35.4L-955.12,1937.42z M-1105,2026.8l133.7-79.82l-133.7,52.05
							V2026.8z"/>
					</g>
					<g>
						<path class="st4" d="M-953.74,1936.4l181.42,527.27l-335.81-97.01v-337.93L-953.74,1936.4z M-777.1,2459.07l-178.39-517.97
							l-149.52,89.29v333.98L-777.1,2459.07z"/>
					</g>
					<g>
						<path class="st4" d="M522.39,2379.99l243.58,387.12l-304.46-4.32L522.39,2379.99z M760.26,2763.98l-236.13-375.35
							l-59.12,371.03L760.26,2763.98z"/>
					</g>
					<g>
						<path class="st4" d="M332.54,2356.72l192.42,26.3l-0.19,1.56l-60.96,383.45L332.54,2356.72z M521.47,2385.6l-184.46-25.11
							l125.79,394.12L521.47,2385.6z"/>
					</g>
					<g>
						<path class="st4" d="M334.57,2353.04l130.53,408.92l-1.02,0.65l-277.42,169.01L334.57,2353.04z M461.51,2760.58
							l-126.63-396.41l-143.3,560.91L461.51,2760.58z"/>
					</g>
					<g>
						<path class="st4" d="M-77.15,1914.43l1.75,1.94l413.56,443.58l-575.21,43.22L-77.15,1914.43z M331.39,2357.36l-407.26-436.96
							l-156.87,479.26L331.39,2357.36z"/>
					</g>
					<g>
						<path class="st3" d="M-406.34,1129.15"/>
					</g>
					<g>
						<polygon class="st4" points="314.71,1188.27 545.93,1561.05 543.35,1562.62 312,1190.03 						"/>
					</g>
					<g>
						<path class="st3" d="M313.37,1189.1"/>
					</g>
					<g>
						<path class="st4" d="M312.5,1184.97l238.12,383.44L281.7,1356.91l0.14-0.91L312.5,1184.97z M538.75,1555.17L314.2,1193.33
							l-29.19,162.3L538.75,1555.17z"/>
					</g>
					<g>
						<path class="st3" d="M313.37,1189.1"/>
					</g>
					<g>
						<path class="st4" d="M-73.84,1914.15l-160.18,489.38L-632.45,2213L-73.84,1914.15z M-235.86,2399.3l156.69-478.71
							l-546.48,292.32L-235.86,2399.3z"/>
					</g>
					<g>
						<path class="st4" d="M-76.97,1915.9l1.29,2.94l-554.57,296.55l-21.98-119.26l1.38-0.37L-76.97,1915.9z M-627.86,2210.62
							l536.09-286.72l-556.87,174.53L-627.86,2210.62z"/>
					</g>
					<g>
						<path class="st4" d="M-628.32,2211.53l395.95,189.42l-53.88,58.12l-343.72-244.78L-628.32,2211.53z M-237.52,2401.87
							l-376.09-179.86l327.08,233.02L-237.52,2401.87z"/>
					</g>
					<g>
						<path class="st4" d="M-630.34,2210.24l348.69,248.28l-379.12,8.73l0.28-1.74L-630.34,2210.24z M-291.03,2455.67
							l-336.73-239.99l-29.52,248.37L-291.03,2455.67z"/>
					</g>
					<g>
						<path class="st4" d="M-966.34,1930.89l317.24,165.34l0.18,0.83l22.16,119.9L-966.34,1930.89z M-651.86,2098.24L-942.8,1946.7
							l311.35,262.35L-651.86,2098.24z"/>
					</g>
					<g>
						<path class="st4" d="M-626.66,2205.74l-31.08,261.51l-119.54-4.41L-626.66,2205.74z M-660.41,2464.04l28.97-243.86
							l-140.6,239.82L-660.41,2464.04z"/>
					</g>
					<g>
						<path class="st4" d="M-957.88,1934.11l330.85,278.52l-0.74,1.2l-147.31,251.31l-1.1-3.22L-957.88,1934.11z M-631.08,2213.36
							l-320.18-269.79l176.92,514.11L-631.08,2213.36z"/>
					</g>
					<g>
						<path class="st4" d="M-284.96,2455.48l34.85,270.34l-2.76-1.84l-411.31-259.77L-284.96,2455.48z M-254.07,2719.57
							l-33.65-260.78l-366.16,8.28L-254.07,2719.57z"/>
					</g>
					<g>
						<path class="st4" d="M336.86,2356.63l-146.94,574.89l-1.93-2.12l-425.97-473.37L336.86,2356.63z M188.37,2925.08
							l144.32-564.59l-564.59,97.66L188.37,2925.08z"/>
					</g>
					<g>
						<path class="st4" d="M334.66,2357l0.41,3.13l-571.58,98.85v-59.03L334.66,2357z M-233.38,2455.3l536.18-92.78l-536.18,40.37
							V2455.3z"/>
					</g>
					<g>
						<path class="st4" d="M-236.23,2453.27l2.39,2.85l429.24,476.86l-449.1-209.28l0.09-1.1L-236.23,2453.27z M182.85,2923.71
							l-416.5-462.8l-16.92,260.87L182.85,2923.71z"/>
					</g>
					<g>
						<path class="st4" d="M-233.38,2397.46v61.15h-56.55L-233.38,2397.46z M-236.5,2455.48v-50.11l-46.25,50.11H-236.5z"/>
					</g>
					<g>
						<path class="st4" d="M-288.09,2455.48h54.8l-17.29,267.31l-3.03,0.09L-288.09,2455.48z M-236.6,2458.6h-48l32,248
							L-236.6,2458.6z"/>
					</g>
					<g>
						<path class="st4" d="M1374.23,1264.87v154.39l-160.83-145.84L1374.23,1264.87z M1371.11,1412.27v-144l-150.06,8
							L1371.11,1412.27z"/>
					</g>
					<g>
						<path class="st3" d="M-406.34,1129.15"/>
					</g>
					<g>
						<path class="st4" d="M559.71,2196.63l-35.22,189.34l-193.84-26.39L559.71,2196.63z M522.01,2382.47l33.29-178.85
							l-216.42,153.93L522.01,2382.47z"/>
					</g>
					<g>
						<path class="st4" d="M-82.85,1912.86l643.49,286.99l-226.07,160.92l-0.96-1.2L-82.85,1912.86z M554.38,2200.41l-624.55-278.44
							l405.14,434.58L554.38,2200.41z"/>
					</g>
					<g>
						<path class="st4" d="M-214.25,1742.75l148.5,185.56l-162.39-134.53L-214.25,1742.75z M-87.08,1906.61l-125.79-157.14
							l-11.77,43.03L-87.08,1906.61z"/>
					</g>
					<g>
						<path class="st4" d="M-226.3,1791.22l153.01,126.8l-2.76,0.92l-583.16,182.8L-226.3,1791.22z M-79.63,1916.82l-146.85-121.74
							l-415.17,297.84L-79.63,1916.82z"/>
					</g>
					<g>
						<path class="st4" d="M-1108.13,1169.71l234.39,261.24l-234.39-18.94V1169.71z M-881.28,1427.17L-1105,1177.79v231.35
							L-881.28,1427.17z"/>
					</g>
					<g>
						<path class="st4" d="M-876.77,1427.63l665,317.61l-13.61,50.21l-652.87-365.06L-876.77,1427.63z M-215.45,1746.89
							l-619.4-295.81l607.44,339.77L-215.45,1746.89z"/>
					</g>
					<g>
						<path class="st4" d="M-880.27,1425.79l656.73,367.17l-427.77,306.85l-0.55-2.02L-880.27,1425.79z M-229.24,1793.33
							l-645.51-360.91l225.1,662.43L-229.24,1793.33z"/>
					</g>
					<g>
						<path class="st3" d="M-877.51,1429.01"/>
					</g>
					<g>
						<path class="st4" d="M-878.06,1422.48l2.02,6.07l228.23,671.9l-308.59-160.73l0.37-1.2L-878.06,1422.48z M-653.24,2094.1
							l-223.72-658.47l-75.95,502.33L-653.24,2094.1z"/>
					</g>
					<g>
						<polygon class="st4" points="-1105.46,1172.74 -876.31,1428.09 -878.7,1430.11 -1107.76,1174.76 						"/>
					</g>
					<g>
						<path class="st4" d="M1311.43,2106.06l62.8,155.31v337.01l-1.47,0.09l-269.42,23.17l1.1-2.3L1311.43,2106.06z
							 M1371.11,2261.56l-59.68-147.22l-203.3,503.81l262.98-22.53V2261.56z"/>
					</g>
					<g>
						<path class="st4" d="M1374.23,2595.25v41.29l-187.49,70.89l-84.32-88.74L1374.23,2595.25z M1371.11,2634.42v-35.77
							l-262.07,22.53l78.62,82.66L1371.11,2634.42z"/>
					</g>
					<g>
						<path class="st4" d="M1106.93,2618.79l81.74,86.17v44.32l-84.13-128.46L1106.93,2618.79z M1185.64,2706.14l-69.06-72.64
							l69.06,105.37V2706.14z"/>
					</g>
					<g>
						<path class="st4" d="M1106.28,2617.96l83.68,127.45l-435.49,22.17L1106.28,2617.96z M1184.44,2742.65l-79.26-120.83
							l-333.42,141.7L1184.44,2742.65z"/>
					</g>
					<g>
						<path class="st4" d="M519.44,2381l590.34,238.89l-347.21,147.68L519.44,2381z M1101.78,2619.89l-574.62-232.36l236.6,376.08
							L1101.78,2619.89z"/>
					</g>
					<g>
						<path class="st4" d="M556.41,2197.46l559.44,428.23l-594.38-240.47L556.41,2197.46z M1095.8,2614.19l-537.19-411.31
							l-33.65,180.41L1095.8,2614.19z"/>
					</g>
					<g>
						<path class="st4" d="M-40,1161.52l355.17,26.2l-30.62,170.94L-40,1161.52z M311.49,1190.57l-338.89-25.1l309.66,188.32
							L311.49,1190.57z"/>
					</g>
					<g>
						<polygon class="st4" points="-33.38,1161.98 313.47,1187.63 313.24,1190.67 -33.75,1165.1 						"/>
					</g>
					<g>
						<path class="st4" d="M1218.29,1272.14l0.37,2.48l90.3,602.2l-2.3-0.73L661.24,1656.5L1218.29,1272.14z M1305.18,1872.22
							l-89.1-594.66l-548.04,378.11L1305.18,1872.22z"/>
					</g>
					<g>
						<polygon class="st4" points="1216.26,1273.52 1218.1,1276.09 665.46,1657.33 663.71,1654.75 						"/>
					</g>
					<g>
						<path class="st4" d="M664.27,1649.88l96.28,306.39l-205.7,249.56L664.27,1649.88z M757.23,1955.71l-92.32-293.42
							l-104.64,532.14L757.23,1955.71z"/>
					</g>
					<g>
						<polygon class="st4" points="545.55,1560.59 665.56,1654.85 663.63,1657.24 543.72,1563.08 						"/>
					</g>
					<g>
						<path class="st4" d="M543.17,1558.57l123.12,96.92l-0.09,0.92l-109.88,558.15L543.17,1558.57z M662.88,1656.68L546.3,1565.1
							l12.5,620.59L662.88,1656.68z"/>
					</g>
					<g>
						<path class="st4" d="M1374.23,2093.92v37.7l-68.6-21.7L1374.23,2093.92z M1371.11,2127.4v-29.61l-53.79,12.6L1371.11,2127.4z"
							/>
					</g>
					<g>
						<path class="st4" d="M1308.76,2107.62l65.47,20.69v140.97L1308.76,2107.62z M1371.11,2130.61l-57-18.02l57,140.79V2130.61z"/>
					</g>
					<g>
						<path class="st4" d="M1308.67,1872.13l4.32,240.18l-2.02-0.56l-316.69-95.63L1308.67,1872.13z M1309.87,2107.99l-4.23-231.08
							l-302.53,138.67L1309.87,2107.99z"/>
					</g>
					<g>
						<path class="st4" d="M996.68,2013.65l316.77,95.53l-0.64,1.56l-207.63,514.75L996.68,2013.65z M1309.32,2111.02l-308.68-92.96
							l105.65,596.23L1309.32,2111.02z"/>
					</g>
					<g>
						<path class="st4" d="M659.31,1652.64l5.79,1.93l646.25,219.85l-313.02,143.45L659.31,1652.64z M1302.97,1874.79
							l-633.09-215.26l329.19,354.48L1302.97,1874.79z"/>
					</g>
					<g>
						<path class="st4" d="M999.89,2013.74l108.14,609.93l-3.22-2.49l-550.43-421.42L999.89,2013.74z M1103.52,2616.22
							l-105.93-598.16l-437.05,182.53L1103.52,2616.22z"/>
					</g>
					<g>
						<path class="st4" d="M661.05,1649.98l342.43,368.73l-245.88-61.52L661.05,1649.98z M994.1,2013.19L668.03,1662.2l91.96,292.51
							L994.1,2013.19z"/>
					</g>
					<g>
						<path class="st4" d="M758.24,1954.25l245.43,61.34l-451.31,188.4L758.24,1954.25z M993.73,2016.32l-234.3-58.58
							l-196.68,238.53L993.73,2016.32z"/>
					</g>
					<g>
						<path class="st4" d="M1213.87,1269.75l160.36,145.37v328.64L1213.87,1269.75z M1371.11,1416.41l-150.52-136.46l150.52,444.95
							V1416.41z"/>
					</g>
					<g>
						<path class="st4" d="M1374.23,1919.86v177.28l-65.28,15.17L1374.23,1919.86z M1371.11,2094.56v-156.04l-57.29,169.47
							L1371.11,2094.56z"/>
					</g>
					<g>
						<path class="st4" d="M1374.23,1843.81v85.89l-64.27,189.33l-4.32-245.42L1374.23,1843.81z M1371.11,1928.87v-80.46
							l-62.44,27.13l4.14,225.64L1371.11,1928.87z"/>
					</g>
					<g>
						<path class="st4" d="M1218.65,1274.35l155.58,459.76v112.92l-68.32,29.71l-90.21-601.75L1218.65,1274.35z M1371.11,1734.57
							l-149.79-442.76l87.08,580.41l62.71-27.22V1734.57z"/>
					</g>
					<g>
						<path class="st3" d="M1281.46,1154.89"/>
					</g>
					<g>
						<path class="st4" d="M-1108.13,1408.78l237.79,19.31l-237.79,88.27V1408.78z M-884.5,1430.11l-220.5-17.84v99.59
							L-884.5,1430.11z"/>
					</g>
					<g>
						<path class="st4" d="M-875.49,1426.62l-77.79,514.29l-154.85-59.12v-368.65L-875.49,1426.62z M-955.85,1936.69l76.41-505.2
							l-225.56,83.77v364.41L-955.85,1936.69z"/>
					</g>
					<g>
						<path class="st4" d="M-1108.13,1878.48l157.79,60.32l-157.79,61.43V1878.48z M-958.89,1938.79l-146.11-55.9v112.73
							L-958.89,1938.79z"/>
					</g>
					<g>
						<path class="st4" d="M-396.78,1333.01l0.55,1.2l185.75,415.17l-3.77-1.93l-668.04-318.99L-396.78,1333.01z M-216.55,1742.94
							l-182.07-406.35l-473.93,93.06L-216.55,1742.94z"/>
					</g>
					<g>
						<path class="st4" d="M546.2,1560.05v1.84l12.97,642.29l-518.8-566.34l2.94-0.45L546.2,1560.05z M555.85,2196.09l-12.68-632.45
							l-496.64,76.32L555.85,2196.09z"/>
					</g>
					<g>
						<path class="st4" d="M43.03,1636.18l1.56,1.65l519.17,566.8l-642.2-286.34L43.03,1636.18z M551.35,2195.62L44.04,1641.79
							l-118.44,274.85L551.35,2195.62z"/>
					</g>
					<g>
						<path class="st4" d="M283.17,1354.07l1.15,0.91L548.5,1562.8l-508.87,78.34L283.17,1354.07z M540.96,1560.87L283.58,1358.3
							L47.35,1636.82L540.96,1560.87z"/>
					</g>
					<g>
						<path class="st4" d="M-32.37,1161.15l0.28,2.02l77.61,479.08l-2.85-2.02l-443.49-305.65L-32.37,1161.15z M41.38,1635.72
							l-76.23-469.97l-359.72,169.28L41.38,1635.72z"/>
					</g>
					<g>
						<path class="st4" d="M46.44,1636.09l-122.48,284.32L-216,1745.42L46.44,1636.09z M-76.78,1914.43l117.33-272.55
							l-251.58,104.73L-76.78,1914.43z"/>
					</g>
					<g>
						<path class="st4" d="M-401.38,1330.44l4.6,3.13L46.8,1639.31l-2.76,1.1l-258.39,107.67l-0.64-1.47L-401.38,1330.44z
							 M40.37,1638.66l-434.39-299.4l181.24,404.78L40.37,1638.66z"/>
					</g>
				</g>
			</g>
			<path class="st5" d="M1079.8,2619.89c0-16.54,13.51-30.07,29.97-30.07c16.74,0,30.16,13.52,30.16,30.07
				c0,16.65-13.42,29.98-30.16,29.98C1093.32,2649.87,1079.8,2636.54,1079.8,2619.89z"/>
			<path class="st5" d="M300.91,2361.6c0-16.55,13.47-30.07,30.07-30.07c16.46,0,29.93,13.52,29.93,30.07
				c0,16.54-13.47,30.07-29.93,30.07C314.39,2391.67,300.91,2378.14,300.91,2361.6z"/>
			<path class="st5" d="M980.67,2016.59c0-13.24,10.67-23.91,23.82-23.91c13.14,0,23.81,10.67,23.81,23.91
				c0,13.15-10.67,23.81-23.81,23.81C991.34,2040.4,980.67,2029.74,980.67,2016.59z"/>
			<path class="st5" d="M736.55,2767.75c0-13.14,10.66-23.81,23.81-23.81c13.24,0,23.91,10.67,23.91,23.81
				c0,13.15-10.67,23.82-23.91,23.82C747.2,2791.57,736.55,2780.9,736.55,2767.75z"/>
			<path class="st5" d="M1172.31,2742.65c0-6.62,5.42-12.14,12.14-12.14c6.71,0,12.14,5.52,12.14,12.14
				c0,6.81-5.42,12.23-12.14,12.23C1177.73,2754.88,1172.31,2749.45,1172.31,2742.65z"/>
			<path class="st5" d="M1180.76,2707.89c0-3.95,3.13-6.99,7-6.99c3.86,0,6.99,3.03,6.99,6.99c0,3.86-3.13,6.89-6.99,6.89
				C1183.89,2714.78,1180.76,2711.75,1180.76,2707.89z"/>
			<path class="st5" d="M508.04,2384.58c0-9.38,7.54-16.83,16.73-16.83c9.2,0,16.74,7.45,16.74,16.83c0,9.2-7.54,16.73-16.74,16.73
				C515.58,2401.32,508.04,2393.78,508.04,2384.58z"/>
			<path class="st5" d="M448.09,2762.61c0-9.2,7.54-16.74,16.73-16.74c9.38,0,16.74,7.54,16.74,16.74c0,9.28-7.36,16.83-16.74,16.83
				C455.63,2779.43,448.09,2771.89,448.09,2762.61z"/>
			<path class="st5" d="M1297.36,2112.59c0-9.28,7.54-16.64,16.74-16.64c9.19,0,16.73,7.35,16.73,16.64
				c0,9.29-7.54,16.74-16.73,16.74C1304.9,2129.33,1297.36,2121.88,1297.36,2112.59z"/>
			<path class="st5" d="M-685.14,2462.84c0-13.15,10.58-23.82,23.72-23.82c13.24,0,23.91,10.67,23.91,23.82
				c0,13.14-10.67,23.81-23.91,23.81C-674.57,2486.65-685.14,2475.99-685.14,2462.84z"/>
			<path class="st5" d="M726.52,1960.77c0-16.54,13.43-29.97,29.98-29.97c16.64,0,30.07,13.43,30.07,29.97
				c0,16.55-13.43,29.98-30.07,29.98C739.94,1990.75,726.52,1977.32,726.52,1960.77z"/>
			<path class="st5" d="M647.25,1659.9c0-10.94,9.01-19.95,19.95-19.95c10.95,0,19.87,9.01,19.87,19.95
				c0,11.04-8.92,20.05-19.87,20.05C656.26,1679.95,647.25,1670.94,647.25,1659.9z"/>
			<path class="st5" d="M25.65,1642.25c0-10.94,9.01-19.86,19.86-19.86c11.13,0,20.05,8.92,20.05,19.86
				c0,11.04-8.92,19.95-20.05,19.95C34.67,1662.2,25.65,1653.28,25.65,1642.25z"/>
			<path class="st5" d="M-418.94,1334.3c0-11.04,8.92-20.05,19.95-20.05c11.03,0,19.86,9.01,19.86,20.05
				c0,10.94-8.83,19.86-19.86,19.86C-410.02,1354.16-418.94,1345.24-418.94,1334.3z"/>
			<path class="st5" d="M-231.81,1747.54c0-11.04,8.83-19.95,19.86-19.95c11.03,0,19.95,8.92,19.95,19.95
				c0,11.04-8.92,19.86-19.95,19.86C-222.99,1767.4-231.81,1758.57-231.81,1747.54z"/>
			<path class="st5" d="M-974.7,1940.91c0-10.94,8.92-19.86,19.95-19.86c11.03,0,19.86,8.92,19.86,19.86
				c0,11.13-8.83,19.95-19.86,19.95C-965.78,1960.87-974.7,1952.04-974.7,1940.91z"/>
			<path class="st5" d="M-796.41,2460.08c0-11.04,8.92-19.95,19.86-19.95c11.03,0,20.05,8.92,20.05,19.95
				c0,11.04-9.01,19.86-20.05,19.86C-787.49,2479.94-796.41,2471.12-796.41,2460.08z"/>
			<path class="st5" d="M-669.33,2093.65c0-11.04,8.92-19.95,20.05-19.95c10.85,0,19.86,8.92,19.86,19.95
				c0,10.94-9.01,19.86-19.86,19.86C-660.41,2113.51-669.33,2104.59-669.33,2093.65z"/>
			<path class="st5" d="M-272.92,2718.65c0-11.13,8.92-19.96,19.95-19.96s19.86,8.83,19.86,19.96c0,10.94-8.83,19.86-19.86,19.86
				S-272.92,2729.6-272.92,2718.65z"/>
			<path class="st5" d="M-302.8,2456.22c0-11.04,8.83-19.96,19.86-19.96s19.95,8.93,19.95,19.96c0,10.94-8.92,19.95-19.95,19.95
				S-302.8,2467.16-302.8,2456.22z"/>
			<path class="st5" d="M-245.98,2402.43c0-6.44,5.15-11.5,11.59-11.5c6.53,0,11.68,5.06,11.68,11.5c0,6.43-5.15,11.68-11.68,11.68
				C-240.83,2414.1-245.98,2408.86-245.98,2402.43z"/>
			<path class="st5" d="M-245.06,2460.36c0-6.44,5.24-11.68,11.77-11.68c6.35,0,11.59,5.24,11.59,11.68
				c0,6.44-5.24,11.68-11.59,11.68C-239.81,2472.03-245.06,2466.8-245.06,2460.36z"/>
			<path class="st5" d="M-647.63,2218.43c0-10.95,8.92-19.87,19.86-19.87c11.03,0,19.95,8.92,19.95,19.87
				c0,11.03-8.92,20.05-19.95,20.05C-638.71,2238.48-647.63,2229.46-647.63,2218.43z"/>
			<path class="st5" d="M-54.9,1162.99c0-11.04,8.92-19.87,19.86-19.87c11.03,0,20.05,8.83,20.05,19.87
				c0,10.94-9.01,19.95-20.05,19.95C-45.98,1182.94-54.9,1173.93-54.9,1162.99z"/>
			<path class="st5" d="M522.47,1563.91c0-11.04,8.93-19.95,19.95-19.95c11.04,0,19.87,8.92,19.87,19.95
				c0,10.94-8.83,19.86-19.87,19.86C531.4,1583.76,522.47,1574.85,522.47,1563.91z"/>
			<path class="st5" d="M1284.86,1873.88c0-11.13,9.01-20.05,20.05-20.05c10.94,0,19.86,8.92,19.86,20.05
				c0,10.94-8.92,19.95-19.86,19.95C1293.87,1893.83,1284.86,1884.82,1284.86,1873.88z"/>
			<path class="st5" d="M1198.42,1272.14c0-10.95,8.83-19.87,19.87-19.87c11.04,0,20.05,8.92,20.05,19.87
				c0,11.03-9.01,19.95-20.05,19.95C1207.25,1292.1,1198.42,1283.17,1198.42,1272.14z"/>
			<path class="st5" d="M263.17,1357.47c0-11.04,8.96-19.95,20-19.95c10.99,0,19.87,8.92,19.87,19.95
				c0,10.94-8.88,19.86-19.87,19.86C272.13,1377.33,263.17,1368.41,263.17,1357.47z"/>
			<path class="st5" d="M526.15,2196.27c0-21.05,17.1-38.25,38.16-38.25c21.24,0,38.34,17.19,38.34,38.25
				c0,21.24-17.1,38.34-38.34,38.34C543.25,2234.61,526.15,2217.51,526.15,2196.27z"/>
			<path class="st5" d="M-109.15,1923.63c0-21.05,17.1-38.25,38.25-38.25s38.25,17.19,38.25,38.25c0,21.24-17.1,38.26-38.25,38.26
				S-109.15,1944.87-109.15,1923.63z"/>
			<path class="st5" d="M149.1,2923.61c0-21.15,17.1-38.34,38.21-38.34c21.2,0,38.29,17.19,38.29,38.34
				c0,21.15-17.1,38.34-38.29,38.34C166.2,2961.95,149.1,2944.76,149.1,2923.61z"/>
			<path class="st5" d="M-915.03,1439.13c0-21.15,17.2-38.26,38.25-38.26c21.24,0,38.34,17.11,38.34,38.26s-17.1,38.25-38.34,38.25
				C-897.83,1477.37-915.03,1460.27-915.03,1439.13z"/>
		</g>
		<g>
			<g>
				<g>
					<g>
						<path class="st3" d="M1217.18,2816.31"/>
					</g>
					<g>
						<path class="st4" d="M-1108.13,1429.47l337.28,200.64l-337.28,97.65V1429.47z M-1105,1434.8v288.83l326.43-94.44L-1105,1434.8
							z"/>
					</g>
					<g>
						<path class="st4" d="M-1108.13,2094.2v-35.4l154.3,92.23l-1.29,2.76L-1108.13,2094.2z M-1105,2092.09l133.7,51.95
							l-133.7-79.73V2092.09z"/>
					</g>
					<g>
						<path class="st4" d="M-1108.13,2062.38v-337.92l335.81-97.11l-181.42,527.26L-1108.13,2062.38z M-1105,1726.76v333.98
							l149.52,89.28l178.39-517.97L-1105,1726.76z"/>
					</g>
					<g>
						<path class="st4" d="M461.51,1328.32l304.46-4.41l-243.58,387.21L461.51,1328.32z M465.01,1331.44l59.12,371.04l236.13-375.36
							L465.01,1331.44z"/>
					</g>
					<g>
						<path class="st4" d="M463.81,1323.08l60.96,383.44l0.19,1.56l-192.42,26.3L463.81,1323.08z M462.79,1336.5l-125.79,394.21
							l184.46-25.2L462.79,1336.5z"/>
					</g>
					<g>
						<path class="st4" d="M186.66,1159.5l277.42,169.01l1.02,0.64l-130.53,408.92L186.66,1159.5z M191.59,1166.02l143.3,560.73
							l126.63-396.22L191.59,1166.02z"/>
					</g>
					<g>
						<path class="st4" d="M-237.06,1687.95l575.21,43.22L-75.4,2174.75l-1.75,1.93L-237.06,1687.95z M-232.73,1691.35
							l156.87,479.35l407.26-436.96L-232.73,1691.35z"/>
					</g>
					<g>
						<path class="st3" d="M-406.34,2961.95"/>
					</g>
					<g>
						<polygon class="st4" points="314.71,2902.83 545.93,2529.97 543.35,2528.49 312,2901.09 						"/>
					</g>
					<g>
						<path class="st3" d="M313.37,2901.91"/>
					</g>
					<g>
						<path class="st4" d="M281.84,2735.11l-0.14-0.92l268.92-211.59L312.5,2906.15L281.84,2735.11z M285.01,2735.48l29.19,162.29
							l224.55-361.84L285.01,2735.48z"/>
					</g>
					<g>
						<path class="st3" d="M313.37,2901.91"/>
					</g>
					<g>
						<path class="st4" d="M-632.45,1878.11l398.43-190.71l160.18,489.47L-632.45,1878.11z M-625.65,1878.3l546.48,292.22
							l-156.69-478.71L-625.65,1878.3z"/>
					</g>
					<g>
						<path class="st4" d="M-650.84,1995.17l-1.38-0.28l21.98-119.17l554.57,296.55l-1.29,2.95L-650.84,1995.17z M-648.64,1992.68
							l556.87,174.53l-536.09-286.71L-648.64,1992.68z"/>
					</g>
					<g>
						<path class="st4" d="M-629.97,1876.91l343.72-245.05l53.88,58.29l-395.95,189.42L-629.97,1876.91z M-286.53,1636.09
							L-613.6,1869l376.09-179.77L-286.53,1636.09z"/>
					</g>
					<g>
						<path class="st4" d="M-660.5,1625.61l-0.28-1.75l379.12,8.74l-348.69,248.27L-660.5,1625.61z M-657.28,1627.08l29.52,248.37
							l336.73-240.09L-657.28,1627.08z"/>
					</g>
					<g>
						<path class="st4" d="M-626.75,1874.15l-22.16,119.9l-0.18,0.83l-317.24,165.34L-626.75,1874.15z M-631.44,1882.16
							L-942.8,2144.5l290.94-151.81L-631.44,1882.16z"/>
					</g>
					<g>
						<path class="st4" d="M-777.28,1628.18l119.54-4.32l31.08,261.43L-777.28,1628.18z M-772.04,1631.13l140.6,239.81
							l-28.97-243.86L-772.04,1631.13z"/>
					</g>
					<g>
						<path class="st4" d="M-776.18,1629.19l1.1-3.21l147.31,251.3l0.74,1.2L-957.88,2157L-776.18,1629.19z M-774.34,1633.33
							l-176.92,514.2l320.18-269.79L-774.34,1633.33z"/>
					</g>
					<g>
						<path class="st4" d="M-664.18,1626.89l411.31-259.77l2.76-1.84l-34.85,270.34L-664.18,1626.89z M-653.88,1623.95l366.16,8.37
							l33.65-260.88L-653.88,1623.95z"/>
					</g>
					<g>
						<path class="st4" d="M-237.98,1634.99L188,1161.7l1.93-2.12l146.94,574.8L-237.98,1634.99z M-231.91,1632.96l564.59,97.56
							l-144.32-564.5L-231.91,1632.96z"/>
					</g>
					<g>
						<path class="st4" d="M-236.5,1691.17v-59.04l571.58,98.85l-0.41,3.03L-236.5,1691.17z M-233.38,1688.23l536.18,40.37
							l-536.18-92.87V1688.23z"/>
					</g>
					<g>
						<path class="st4" d="M-253.61,1368.51l-0.09-1.1l449.1-209.29l-429.24,476.87l-2.39,2.76L-253.61,1368.51z M-250.57,1369.33
							l16.92,260.87l416.5-462.8L-250.57,1369.33z"/>
					</g>
					<g>
						<path class="st4" d="M-289.93,1632.32h56.55v61.33L-289.93,1632.32z M-282.76,1635.45l46.25,50.29v-50.29H-282.76z"/>
					</g>
					<g>
						<path class="st4" d="M-253.61,1368.23l3.03,0.08l17.29,267.13h-54.8L-253.61,1368.23z M-252.6,1384.5l-32,247.82h48
							L-252.6,1384.5z"/>
					</g>
					<g>
						<path class="st4" d="M1213.41,2817.68l160.83-145.83v154.38L1213.41,2817.68z M1221.04,2814.83l150.06,8v-144L1221.04,2814.83
							z"/>
					</g>
					<g>
						<path class="st3" d="M-406.34,2961.95"/>
					</g>
					<g>
						<path class="st4" d="M330.66,1731.54l193.84-26.39l35.22,189.33L330.66,1731.54z M338.89,1733.55l216.42,153.93l-33.29-178.94
							L338.89,1733.55z"/>
					</g>
					<g>
						<path class="st4" d="M333.61,1731.54l0.96-1.02l226.07,160.74l-643.49,286.98L333.61,1731.54z M334.98,1734.57l-405.14,434.57
							l624.55-278.43L334.98,1734.57z"/>
					</g>
					<g>
						<path class="st4" d="M-228.14,2297.33l162.39-134.44l-148.5,185.47L-228.14,2297.33z M-224.64,2298.51l11.77,43.13
							l125.79-157.15L-224.64,2298.51z"/>
					</g>
					<g>
						<path class="st4" d="M-659.21,1989.37l583.16,182.8l2.76,0.92l-153.01,126.8L-659.21,1989.37z M-641.65,1998.11l415.17,297.84
							l146.85-121.65L-641.65,1998.11z"/>
					</g>
					<g>
						<path class="st4" d="M-1108.13,2679.11l234.39-18.94l-234.39,261.24V2679.11z M-1105,2681.96v231.27l223.72-249.47
							L-1105,2681.96z"/>
					</g>
					<g>
						<path class="st4" d="M-878.24,2660.62l652.87-364.95l13.61,50.21l-665,317.6L-878.24,2660.62z M-227.4,2300.17l-607.44,339.77
							l619.4-295.72L-227.4,2300.17z"/>
					</g>
					<g>
						<path class="st4" d="M-651.86,1993.32l0.55-1.93l427.77,306.67l-656.73,367.26L-651.86,1993.32z M-649.65,1996.27
							l-225.1,662.42l645.51-360.91L-649.65,1996.27z"/>
					</g>
					<g>
						<path class="st3" d="M-877.51,2662.01"/>
					</g>
					<g>
						<path class="st4" d="M-956.04,2152.58l-0.37-1.2l308.59-160.83l-228.23,671.91l-2.02,6.16L-956.04,2152.58z M-952.91,2153.23
							l75.95,502.25L-653.24,1997L-952.91,2153.23z"/>
					</g>
					<g>
						<polygon class="st4" points="-1105.46,2918.38 -876.31,2663.02 -878.7,2661 -1107.76,2916.26 						"/>
					</g>
					<g>
						<path class="st4" d="M1104.45,1471.77l-1.1-2.39l269.42,23.27l1.47,0.08v337.01l-62.8,155.4L1104.45,1471.77z
							 M1371.11,1495.49l-262.98-22.52l203.3,503.81l59.68-147.41V1495.49z"/>
					</g>
					<g>
						<path class="st4" d="M1102.42,1472.41l84.32-88.74l187.49,70.9v41.28L1102.42,1472.41z M1187.67,1387.26l-78.62,82.66
							l262.07,22.53v-35.77L1187.67,1387.26z"/>
					</g>
					<g>
						<path class="st4" d="M1104.54,1470.29l84.13-128.55v44.42l-81.74,86.16L1104.54,1470.29z M1185.64,1352.14l-69.06,105.47
							l69.06-72.64V1352.14z"/>
					</g>
					<g>
						<path class="st4" d="M754.47,1323.54l435.49,21.98l-83.68,127.62L754.47,1323.54z M771.76,1327.49l333.42,141.8l79.26-120.92
							L771.76,1327.49z"/>
					</g>
					<g>
						<path class="st4" d="M762.56,1323.54l347.21,147.67l-590.34,238.89L762.56,1323.54z M763.76,1327.49l-236.6,376.09
							l574.62-232.55L763.76,1327.49z"/>
					</g>
					<g>
						<path class="st4" d="M521.47,1705.79l594.38-240.36l-559.44,428.41L521.47,1705.79z M524.96,1707.72l33.65,180.5l537.19-411.3
							L524.96,1707.72z"/>
					</g>
					<g>
						<path class="st4" d="M284.55,2732.44l30.62,170.95L-40,2929.59L284.55,2732.44z M282.25,2737.32L-27.4,2925.54l338.89-25.01
							L282.25,2737.32z"/>
					</g>
					<g>
						<polygon class="st4" points="-33.38,2929.13 313.47,2903.48 313.24,2900.35 -33.75,2926 						"/>
					</g>
					<g>
						<path class="st4" d="M661.24,2434.52l645.42-219.5l2.3-0.73l-90.3,602.11l-0.37,2.49L661.24,2434.52z M668.03,2435.43
							l548.04,378.12l89.1-594.67L668.03,2435.43z"/>
					</g>
					<g>
						<polygon class="st4" points="1216.26,2817.59 1218.1,2814.83 665.46,2433.78 663.71,2436.26 						"/>
					</g>
					<g>
						<path class="st4" d="M554.84,1885.28l205.7,249.47l-96.28,306.48L554.84,1885.28z M560.27,1896.69l104.64,532.13l92.32-293.33
							L560.27,1896.69z"/>
					</g>
					<g>
						<polygon class="st4" points="545.55,2530.42 665.56,2436.26 663.63,2433.87 543.72,2527.94 						"/>
					</g>
					<g>
						<path class="st4" d="M556.31,1876.55L666.2,2434.7l0.09,0.92l-123.12,96.82L556.31,1876.55z M558.8,1905.41l-12.5,620.5
							l116.59-91.5L558.8,1905.41z"/>
					</g>
					<g>
						<path class="st4" d="M1305.64,1981.19l68.6-21.69v37.7L1305.64,1981.19z M1317.31,1980.72l53.79,12.6v-29.51L1317.31,1980.72z
							"/>
					</g>
					<g>
						<path class="st4" d="M1374.23,1821.83v141.06l-65.47,20.51L1374.23,1821.83z M1371.11,1837.74l-57,140.87l57-18.12V1837.74z"
							/>
					</g>
					<g>
						<path class="st4" d="M994.29,2074.8l316.69-95.26l2.02-0.74l-4.32,240.18L994.29,2074.8z M1003.11,2075.44l302.53,138.75
							l4.23-231.26L1003.11,2075.44z"/>
					</g>
					<g>
						<path class="st4" d="M1105.18,1465.6l207.63,514.75l0.64,1.56l-316.77,95.45L1105.18,1465.6z M1106.28,1476.73l-105.65,596.31
							l308.68-93.14L1106.28,1476.73z"/>
					</g>
					<g>
						<path class="st4" d="M998.33,2073.24l313.02,143.63L665.1,2436.45l-5.79,2.02L998.33,2073.24z M999.07,2077.1l-329.19,354.47
							l633.09-215.26L999.07,2077.1z"/>
					</g>
					<g>
						<path class="st4" d="M554.38,1891.35l550.43-421.42l3.22-2.48l-108.14,609.92L554.38,1891.35z M560.54,1890.52l437.05,182.53
							l105.93-598.24L560.54,1890.52z"/>
					</g>
					<g>
						<path class="st4" d="M757.6,2133.92l245.88-61.51l-342.43,368.73L757.6,2133.92z M759.99,2136.49l-91.96,292.41l326.07-350.98
							L759.99,2136.49z"/>
					</g>
					<g>
						<path class="st4" d="M552.36,1887.21l451.31,188.41l-245.43,61.23L552.36,1887.21z M562.75,1894.84l196.68,238.53l234.3-58.57
							L562.75,1894.84z"/>
					</g>
					<g>
						<path class="st4" d="M1374.23,2347.34v328.64l-160.36,145.38L1374.23,2347.34z M1371.11,2366.2l-150.52,444.96l150.52-136.46
							V2366.2z"/>
					</g>
					<g>
						<path class="st4" d="M1308.95,1978.79l65.28,15.26v177.38L1308.95,1978.79z M1313.82,1983.12l57.29,169.47v-156.04
							L1313.82,1983.12z"/>
					</g>
					<g>
						<path class="st4" d="M1305.64,2217.6l4.32-245.61l64.27,189.52v85.98L1305.64,2217.6z M1312.81,1989.92l-4.14,225.65
							l62.44,27.13v-80.46L1312.81,1989.92z"/>
					</g>
					<g>
						<path class="st4" d="M1215.71,2816.03l90.21-601.74l68.32,29.79V2357l-155.58,459.77L1215.71,2816.03z M1371.11,2246.1
							l-62.71-27.4l-87.08,580.5l149.79-442.66V2246.1z"/>
					</g>
					<g>
						<path class="st3" d="M1281.46,2936.12"/>
					</g>
					<g>
						<path class="st4" d="M-1108.13,2574.74l237.79,88.27l-237.79,19.31V2574.74z M-1105,2579.25v99.58l220.5-17.83L-1105,2579.25z
							"/>
					</g>
					<g>
						<path class="st4" d="M-1108.13,2577.96v-368.64l154.85-59.12l77.79,514.29L-1108.13,2577.96z M-1105,2211.43v364.42
							l225.56,83.76l-76.41-505.19L-1105,2211.43z"/>
					</g>
					<g>
						<path class="st4" d="M-1108.13,2090.98l157.79,61.34l-157.79,60.41V2090.98z M-1105,2095.39v112.83l146.11-55.91
							L-1105,2095.39z"/>
					</g>
					<g>
						<path class="st4" d="M-882.29,2662.65l668.04-318.99l3.77-1.93l-185.75,415.17l-0.55,1.1L-882.29,2662.65z M-872.54,2661.45
							l473.93,93.06l182.07-406.24L-872.54,2661.45z"/>
					</g>
					<g>
						<path class="st4" d="M43.31,2453.74l-2.94-0.46l518.8-566.33l-12.97,642.28v1.75L43.31,2453.74z M46.53,2451.16l496.64,76.23
							l12.68-632.36L46.53,2451.16z"/>
					</g>
					<g>
						<path class="st4" d="M-78.44,2172.82l642.2-286.34L44.6,2453.27l-1.56,1.66L-78.44,2172.82z M-74.39,2174.56l118.44,274.76
							l507.31-553.83L-74.39,2174.56z"/>
					</g>
					<g>
						<path class="st4" d="M39.63,2449.88l508.87,78.44l-264.18,207.81l-1.15,0.83L39.63,2449.88z M47.35,2454.28l236.23,278.35
							l257.38-202.39L47.35,2454.28z"/>
					</g>
					<g>
						<path class="st4" d="M-400.82,2756.54l443.49-305.65l2.85-2.12l-77.61,479.17l-0.28,2.02L-400.82,2756.54z M-394.57,2756.07
							l359.72,169.29l76.23-469.89L-394.57,2756.07z"/>
					</g>
					<g>
						<path class="st4" d="M-216,2345.69l139.95-174.99l122.48,284.33L-216,2345.69z M-211.03,2344.49l251.58,104.73l-117.33-272.55
							L-211.03,2344.49z"/>
					</g>
					<g>
						<path class="st4" d="M-214.99,2344.49l0.64-1.47L44.04,2450.7l2.76,1.1l-443.58,305.74l-4.6,3.13L-214.99,2344.49z
							 M-212.78,2347.07l-181.24,404.77l434.39-299.4L-212.78,2347.07z"/>
					</g>
				</g>
			</g>
			<path class="st5" d="M1079.8,1471.22c0,16.55,13.51,29.89,29.97,29.89c16.74,0,30.16-13.33,30.16-29.89
				c0-16.64-13.42-29.97-30.16-29.97C1093.32,1441.24,1079.8,1454.58,1079.8,1471.22z"/>
			<path class="st5" d="M300.91,1729.51c0,16.46,13.47,30.07,30.07,30.07c16.46,0,29.93-13.61,29.93-30.07
				c0-16.65-13.47-30.07-29.93-30.07C314.39,1699.44,300.91,1712.87,300.91,1729.51z"/>
			<path class="st5" d="M980.67,2074.52c0,13.06,10.67,23.73,23.82,23.73c13.14,0,23.81-10.67,23.81-23.73
				c0-13.14-10.67-23.72-23.81-23.72C991.34,2050.8,980.67,2061.37,980.67,2074.52z"/>
			<path class="st5" d="M736.55,1323.36c0,13.14,10.66,23.73,23.81,23.73c13.24,0,23.91-10.58,23.91-23.73
				c0-13.24-10.67-23.91-23.91-23.91C747.2,1299.45,736.55,1310.12,736.55,1323.36z"/>
			<path class="st5" d="M1172.31,1348.36c0,6.71,5.42,12.23,12.14,12.23c6.71,0,12.14-5.52,12.14-12.23s-5.42-12.14-12.14-12.14
				C1177.73,1336.23,1172.31,1341.65,1172.31,1348.36z"/>
			<path class="st5" d="M1180.76,1383.21c0,3.95,3.13,7,7,7c3.86,0,7.08-3.04,7.08-7c0-3.86-3.22-6.89-7.08-6.89
				C1183.89,1376.32,1180.76,1379.35,1180.76,1383.21z"/>
			<path class="st5" d="M508.04,1706.52c0,9.29,7.54,16.83,16.73,16.83c9.2,0,16.74-7.53,16.74-16.83c0-9.28-7.54-16.73-16.74-16.73
				C515.58,1689.79,508.04,1697.24,508.04,1706.52z"/>
			<path class="st5" d="M448.09,1328.51c0,9.19,7.54,16.73,16.73,16.73c9.38,0,16.74-7.54,16.74-16.73
				c0-9.28-7.36-16.83-16.74-16.83C455.63,1311.68,448.09,1319.22,448.09,1328.51z"/>
			<path class="st5" d="M1297.36,1978.61c0,9.19,7.54,16.55,16.74,16.55c9.19,0,16.73-7.36,16.73-16.55
				c0-9.38-7.54-16.92-16.73-16.92C1304.9,1961.69,1297.36,1969.24,1297.36,1978.61z"/>
			<path class="st5" d="M-685.14,1628.18c0,13.24,10.58,23.91,23.72,23.91c13.24,0,23.91-10.67,23.91-23.91
				c0-13.06-10.67-23.72-23.91-23.72C-674.57,1604.46-685.14,1615.12-685.14,1628.18z"/>
			<path class="st5" d="M726.52,2130.33c0,16.55,13.43,29.98,29.98,29.98c16.64,0,30.07-13.43,30.07-29.98
				c0-16.55-13.43-30.07-30.07-30.07C739.94,2100.27,726.52,2113.78,726.52,2130.33z"/>
			<path class="st5" d="M647.25,2431.11c0,11.04,9.01,20.05,19.95,20.05c10.95,0,19.87-9.01,19.87-20.05
				c0-10.94-8.92-19.95-19.87-19.95C656.26,2411.16,647.25,2420.17,647.25,2431.11z"/>
			<path class="st5" d="M25.65,2448.76c0,11.04,9.01,19.96,19.86,19.96c11.13,0,20.05-8.93,20.05-19.96
				c0-10.94-8.92-19.86-20.05-19.86C34.67,2428.91,25.65,2437.82,25.65,2448.76z"/>
			<path class="st5" d="M-418.94,2756.81c0,10.94,8.92,19.95,19.95,19.95c11.03,0,19.86-9.01,19.86-19.95
				c0-11.04-8.83-19.95-19.86-19.95C-410.02,2736.86-418.94,2745.77-418.94,2756.81z"/>
			<path class="st5" d="M-231.81,2343.66c0,10.94,8.83,19.87,19.86,19.87c11.03,0,19.95-8.93,19.95-19.87
				c0-11.12-8.92-19.95-19.95-19.95C-222.99,2323.71-231.81,2332.54-231.81,2343.66z"/>
			<path class="st5" d="M-974.7,2150.2c0,10.94,8.92,19.86,19.95,19.86c11.03,0,19.86-8.92,19.86-19.86
				c0-11.13-8.83-19.96-19.86-19.96C-965.78,2130.24-974.7,2139.07-974.7,2150.2z"/>
			<path class="st5" d="M-796.41,1631.03c0,11.04,8.92,19.95,19.86,19.95c11.03,0,20.05-8.92,20.05-19.95s-9.01-19.87-20.05-19.87
				C-787.49,1611.17-796.41,1620-796.41,1631.03z"/>
			<path class="st5" d="M-669.33,1997.56c0,10.94,8.92,19.86,20.05,19.86c10.85,0,19.86-8.92,19.86-19.86
				c0-11.04-9.01-19.96-19.86-19.96C-660.41,1977.6-669.33,1986.52-669.33,1997.56z"/>
			<path class="st5" d="M-272.92,1372.46c0,11.04,8.92,19.95,19.95,19.95s19.86-8.92,19.86-19.95c0-10.94-8.83-19.95-19.86-19.95
				S-272.92,1361.52-272.92,1372.46z"/>
			<path class="st5" d="M-302.8,1634.89c0,10.94,8.83,19.86,19.86,19.86s19.95-8.92,19.95-19.86c0-11.04-8.92-19.95-19.95-19.95
				S-302.8,1623.86-302.8,1634.89z"/>
			<path class="st5" d="M-245.98,1688.69c0,6.35,5.15,11.5,11.59,11.5c6.53,0,11.68-5.15,11.68-11.5c0-6.53-5.15-11.68-11.68-11.68
				C-240.83,1677.01-245.98,1682.15-245.98,1688.69z"/>
			<path class="st5" d="M-245.06,1630.67c0,6.53,5.24,11.77,11.77,11.77c6.35,0,11.59-5.24,11.59-11.77
				c0-6.35-5.24-11.59-11.59-11.59C-239.81,1619.07-245.06,1624.32-245.06,1630.67z"/>
			<path class="st5" d="M-647.63,1872.68c0,11.04,8.92,19.95,19.86,19.95c11.03,0,19.95-8.92,19.95-19.95s-8.92-20.05-19.95-20.05
				C-638.71,1852.64-647.63,1861.65-647.63,1872.68z"/>
			<path class="st5" d="M-54.9,2928.12c0,11.04,8.92,19.86,19.86,19.86c11.03,0,20.05-8.82,20.05-19.86
				c0-10.94-9.01-19.95-20.05-19.95C-45.98,2908.17-54.9,2917.18-54.9,2928.12z"/>
			<path class="st5" d="M522.47,2527.21c0,11.03,8.93,19.95,19.95,19.95c11.04,0,19.87-8.93,19.87-19.95
				c0-10.95-8.83-19.87-19.87-19.87C531.4,2507.34,522.47,2516.26,522.47,2527.21z"/>
			<path class="st5" d="M1284.86,2217.23c0,11.12,9.01,20.05,20.05,20.05c10.94,0,19.86-8.93,19.86-20.05
				c0-10.94-8.92-19.77-19.86-19.77C1293.87,2197.46,1284.86,2206.29,1284.86,2217.23z"/>
			<path class="st5" d="M1198.42,2818.88c0,11.04,8.83,19.95,19.87,19.95c11.04,0,20.05-8.92,20.05-19.95
				c0-10.94-9.01-19.86-20.05-19.86C1207.25,2799.02,1198.42,2807.94,1198.42,2818.88z"/>
			<path class="st5" d="M263.17,2733.64c0,11.04,8.96,19.96,20,19.96c10.99,0,19.87-8.93,19.87-19.96
				c0-10.94-8.88-19.86-19.87-19.86C272.13,2713.78,263.17,2722.69,263.17,2733.64z"/>
			<path class="st5" d="M526.15,1894.84c0,21.06,17.1,38.26,38.16,38.26c21.24,0,38.34-17.19,38.34-38.26
				c0-21.23-17.1-38.25-38.34-38.25C543.25,1856.59,526.15,1873.61,526.15,1894.84z"/>
			<path class="st5" d="M-109.15,2167.57c0,21.06,17.1,38.16,38.25,38.16s38.25-17.1,38.25-38.16c0-21.15-17.1-38.34-38.25-38.34
				S-109.15,2146.43-109.15,2167.57z"/>
			<path class="st5" d="M149.1,1167.49c0,21.15,17.1,38.35,38.21,38.35c21.2,0,38.29-17.2,38.29-38.35
				c0-21.15-17.1-38.34-38.29-38.34C166.2,1129.15,149.1,1146.35,149.1,1167.49z"/>
			<path class="st5" d="M-915.03,2651.99c0,21.15,17.2,38.25,38.25,38.25c21.24,0,38.34-17.1,38.34-38.25
				c0-21.16-17.1-38.35-38.34-38.35C-897.83,2613.64-915.03,2630.83-915.03,2651.99z"/>
		</g>
	</g>
</g>
</svg>
