<?xml version="1.0" encoding="utf-8"?>
<!-- Generator: Adobe Illustrator 27.3.1, SVG Export Plug-In . SVG Version: 6.00 Build 0)  -->
<svg version="1.1" id="report" xmlns="http://www.w3.org/2000/svg" xmlns:xlink="http://www.w3.org/1999/xlink" x="0px" y="0px"
	 viewBox="0 0 640.62 640.62" style="enable-background:new 0 0 640.62 640.62;" xml:space="preserve">
<style type="text/css">
	.st0{fill:#360061;}
	.st1{fill:#5800B2;}
	.st2{fill:url(#SVGID_1_);}
	.st3{fill:url(#SVGID_00000007406555323486236980000009379748879707925888_);}
	.st4{fill:url(#SVGID_00000070119368132937193170000014543884213696793763_);}
	.st5{fill:url(#SVGID_00000042721942529558558210000005812691135661541773_);}
	.st6{fill:url(#SVGID_00000052803109014814183540000018022697442840353205_);}
	.st7{fill:url(#SVGID_00000074408618776110607500000018340595266936859268_);}
</style>
<g>
	<g>
		<path class="st0" d="M0,535.38c2.89-12.81,5-25.86,8.82-38.39c10.05-32.93,26.37-63.06,43.17-92.92
			c13.81-24.54,29.4-48.19,38.6-75.08c3.47-10.14,6.47-20.45,9.85-31.19c7.04,0,14.57,0,23.95,0c-5.02,15.67-8.6,31.4-15.05,45.86
			c-9.18,20.58-19.97,40.49-30.96,60.19c-16.79,30.1-33.93,60-45.44,92.66c-6.2,17.6-10.56,35.5-9.26,54.51
			c2.33,34.11,34.41,51.12,59.59,49.48c22.35-1.45,41.1-11.4,58.63-24.37c2.09-1.55,4.18-3.1,7.24-5.37c0,9.53,0.1,17.94-0.1,26.34
			c-0.03,1.26-1.15,2.94-2.26,3.65c-29.63,18.94-61.21,29.84-96,17.15c-28.41-10.36-46.02-30.94-49.71-61.93
			c-0.13-1.06-0.7-2.07-1.07-3.1C0,547.03,0,541.21,0,535.38z"/>
		<path class="st0" d="M435.8,400.69c0,3.66,0,6.31,0,8.97c0,56.67-0.01,113.35,0.01,170.02c0.01,25.16,13.89,38.93,39.17,38.95
			c13.42,0.01,26.84,0,41.11,0c0,4.48,0.41,8.68-0.1,12.77c-0.72,5.77-4.47,9.12-10.2,9.98c-2.2,0.33-4.47,0.15-6.71,0.15
			c-103.27,0.01-206.53,0.01-309.8,0c-14.16,0-17.21-3.09-17.21-17.43c0-195.11,0-390.22,0-585.32c0-26.36,13.32-39.73,39.58-39.73
			c88.48,0,176.96,0,265.45,0c25.41,0,39.11,13.61,39.11,38.86c0.01,58.91-0.1,117.83,0.14,176.74c0.03,7.25-1.55,12.41-6.88,18.04
			c-14.45,15.27-27.67,31.72-41.38,47.7c-23.04,26.86-46.03,53.77-69.15,80.55c-6.59,7.64-8.93,16.02-5.09,25.45
			c3.88,9.52,11.62,13.89,21.63,14.26C421.94,400.88,428.4,400.69,435.8,400.69z M344.36,21.95c-40.98,0-81.96-0.02-122.94,0.01
			c-17.46,0.01-26.44,9.01-26.44,26.51c-0.02,51.06-0.01,102.11,0,153.17c0,17.97,8.88,26.98,26.68,26.99
			c81.73,0.02,163.47,0.02,245.2,0c17.36-0.01,26.44-9.16,26.45-26.55c0.02-51.06,0.02-102.11,0-153.17
			c0-18.04-8.82-26.94-26.69-26.94C425.87,21.94,385.11,21.95,344.36,21.95z"/>
		<path class="st1" d="M527.7,246.19c37.48,43.67,74.6,86.92,112.92,131.56c-7.03,0-12.29-0.02-17.56,0
			c-17.92,0.06-26.41,8.45-26.42,26.25c-0.02,58.25-0.01,116.49-0.01,174.74c0,13.61-3.4,16.96-17.18,16.96
			c-34.5,0.01-69,0.01-103.5,0c-13.82,0-17.19-3.31-17.19-16.94c-0.01-57.8,0-115.6-0.01-173.39c0-19.61-8.06-27.6-27.77-27.61
			c-4.68,0-9.36,0-16.1,0C453.07,333.22,490.23,289.89,527.7,246.19z M515.85,534.54c-7.38-4.6-10.13-10.74-11.06-18.18
			c-1.14-9.09-5.98-13.3-13.41-12.17c-6.83,1.04-10.28,6.64-9.26,15.3c2.18,18.58,12.22,31.16,29.22,38.66
			c2.13,0.94,4.15,3.39,5.03,5.62c2.13,5.39,5.63,8.82,11.39,8.81c5.44-0.01,9.86-3.01,10.73-8.4c0.69-4.23,2.94-5.23,6.21-6.53
			c17.92-7.14,29.62-25.03,28.84-43.67c-0.82-19.73-13.18-36.41-31.8-42.18c-4.83-1.5-10.07-1.86-15.16-2.34
			c-10.5-0.99-19.02-7.97-21.15-17.68c-2.21-10.05,1.64-19.07,10.14-23.78c2.11,14.13,4.74,18.49,11.78,18.34
			c2.5-0.05,6.2-0.9,7.21-2.64c2.73-4.7,4.3-10.06,6.45-15.45c6.51,3.8,8.82,10.64,9.8,18.44c0.96,7.66,5.66,11.6,12.48,10.98
			c6.5-0.59,10.84-5.97,10.22-13.33c-1.63-19.1-11.23-32.68-28.88-40.25c-3.28-1.4-5.42-2.44-6.15-6.57
			c-0.94-5.36-5.32-8.34-10.78-8.35c-5.46-0.01-9.8,2.96-10.81,8.33c-0.76,4.04-2.73,5.25-6.12,6.58
			c-17.93,7.02-29.66,24.93-28.92,43.59c0.8,20.06,13.34,36.83,32.3,42.47c4.86,1.45,10.09,1.75,15.18,2.27
			c10.44,1.06,18.66,8.19,20.63,18.16c1.97,9.96-1.91,18.75-10.16,23.01c-2.26-14.33-5.21-18.59-12.62-18.25
			C519.74,515.68,516.82,520.38,515.85,534.54z"/>
		<path class="st1" d="M148.8,160.3c0,37.91,0,75.63,0,113.86c-16.49,0-32.8,0.73-49-0.25c-11.18-0.67-19.14-10.34-19.25-21.5
			c-0.24-23.73-0.24-47.47,0.03-71.2c0.12-10.25,7.89-20.11,17.7-20.66C114.95,159.63,131.71,160.3,148.8,160.3z"/>
		<path class="st1" d="M126.27,136.45c-8.01,0-14.91,0-22.56,0c-0.37-19.36-3.92-38.89,14.14-53.67c9.12-7.47,16.81-16.68,25.25-25
			c5.91-5.82,12.12-6.27,17.18-1.51c5.18,4.87,4.94,11.7-0.94,17.7c-8.29,8.47-16.48,17.07-25.25,25.02
			c-6,5.44-8.65,11.46-7.92,19.49C126.69,124.2,126.27,130.01,126.27,136.45z"/>
		<path class="st1" d="M470.22,45.44c0,53.44,0,106.26,0,159.66c-83.97,0-167.76,0-251.94,0c0-53.14,0-106.12,0-159.66
			C302.03,45.44,385.82,45.44,470.22,45.44z M345.66,78.79c-3.14-3.51-5.41-7.52-8.84-9.55c-4.73-2.8-9.46-0.74-13.29,3.1
			c-25.93,25.96-51.91,51.87-77.81,77.87c-5.84,5.86-6.21,12.2-1.42,17.2c4.91,5.13,11.72,4.84,17.71-1.13
			c25.84-25.74,51.64-51.51,77.31-77.42C341.7,86.46,343.04,83.04,345.66,78.79z M262.92,68.11c-0.81,0.2-2.52,0.1-3.34,0.9
			c-6.01,5.85-12.57,11.37-17.32,18.15c-1.59,2.27,0.34,9.24,2.92,11.59c2.58,2.36,9.31,3.62,11.88,1.89
			c6.33-4.28,12.24-9.91,16.61-16.18C278.5,77.5,271.95,67.88,262.92,68.11z"/>
	</g>
	<g>
		<linearGradient id="SVGID_1_" gradientUnits="userSpaceOnUse" x1="-98.5277" y1="215.5707" x2="331.5271" y2="802.5374">
			<stop  offset="0" style="stop-color:#FFFFFF;stop-opacity:0.4"/>
			<stop  offset="0.0691" style="stop-color:#FFFFFF;stop-opacity:0.3435"/>
			<stop  offset="0.4892" style="stop-color:#FFFFFF;stop-opacity:0"/>
			<stop  offset="0.7527" style="stop-color:#FAFAFA;stop-opacity:0.1032"/>
			<stop  offset="1" style="stop-color:#EFEFEF;stop-opacity:0.2"/>
		</linearGradient>
		<path class="st2" d="M0,535.38c2.89-12.81,5-25.86,8.82-38.39c10.05-32.93,26.37-63.06,43.17-92.92
			c13.81-24.54,29.4-48.19,38.6-75.08c3.47-10.14,6.47-20.45,9.85-31.19c7.04,0,14.57,0,23.95,0c-5.02,15.67-8.6,31.4-15.05,45.86
			c-9.18,20.58-19.97,40.49-30.96,60.19c-16.79,30.1-33.93,60-45.44,92.66c-6.2,17.6-10.56,35.5-9.26,54.51
			c2.33,34.11,34.41,51.12,59.59,49.48c22.35-1.45,41.1-11.4,58.63-24.37c2.09-1.55,4.18-3.1,7.24-5.37c0,9.53,0.1,17.94-0.1,26.34
			c-0.03,1.26-1.15,2.94-2.26,3.65c-29.63,18.94-61.21,29.84-96,17.15c-28.41-10.36-46.02-30.94-49.71-61.93
			c-0.13-1.06-0.7-2.07-1.07-3.1C0,547.03,0,541.21,0,535.38z"/>
		
			<linearGradient id="SVGID_00000148634905959841707550000008629404529848463508_" gradientUnits="userSpaceOnUse" x1="135.9328" y1="43.7878" x2="565.9877" y2="630.7545">
			<stop  offset="0" style="stop-color:#FFFFFF;stop-opacity:0.4"/>
			<stop  offset="0.0691" style="stop-color:#FFFFFF;stop-opacity:0.3435"/>
			<stop  offset="0.4892" style="stop-color:#FFFFFF;stop-opacity:0"/>
			<stop  offset="0.7527" style="stop-color:#FAFAFA;stop-opacity:0.1032"/>
			<stop  offset="1" style="stop-color:#EFEFEF;stop-opacity:0.2"/>
		</linearGradient>
		<path style="fill:url(#SVGID_00000148634905959841707550000008629404529848463508_);" d="M435.8,400.69c0,3.66,0,6.31,0,8.97
			c0,56.67-0.01,113.35,0.01,170.02c0.01,25.16,13.89,38.93,39.17,38.95c13.42,0.01,26.84,0,41.11,0c0,4.48,0.41,8.68-0.1,12.77
			c-0.72,5.77-4.47,9.12-10.2,9.98c-2.2,0.33-4.47,0.15-6.71,0.15c-103.27,0.01-206.53,0.01-309.8,0
			c-14.16,0-17.21-3.09-17.21-17.43c0-195.11,0-390.22,0-585.32c0-26.36,13.32-39.73,39.58-39.73c88.48,0,176.96,0,265.45,0
			c25.41,0,39.11,13.61,39.11,38.86c0.01,58.91-0.1,117.83,0.14,176.74c0.03,7.25-1.55,12.41-6.88,18.04
			c-14.45,15.27-27.67,31.72-41.38,47.7c-23.04,26.86-46.03,53.77-69.15,80.55c-6.59,7.64-8.93,16.02-5.09,25.45
			c3.88,9.52,11.62,13.89,21.63,14.26C421.94,400.88,428.4,400.69,435.8,400.69z M344.36,21.95c-40.98,0-81.96-0.02-122.94,0.01
			c-17.46,0.01-26.44,9.01-26.44,26.51c-0.02,51.06-0.01,102.11,0,153.17c0,17.97,8.88,26.98,26.68,26.99
			c81.73,0.02,163.47,0.02,245.2,0c17.36-0.01,26.44-9.16,26.45-26.55c0.02-51.06,0.02-102.11,0-153.17
			c0-18.04-8.82-26.94-26.69-26.94C425.87,21.94,385.11,21.95,344.36,21.95z"/>
		
			<linearGradient id="SVGID_00000178199502688735470620000009587183225665883311_" gradientUnits="userSpaceOnUse" x1="195.8604" y1="-0.1196" x2="625.9153" y2="586.8471">
			<stop  offset="0" style="stop-color:#FFFFFF;stop-opacity:0.4"/>
			<stop  offset="0.0691" style="stop-color:#FFFFFF;stop-opacity:0.3435"/>
			<stop  offset="0.4892" style="stop-color:#FFFFFF;stop-opacity:0"/>
			<stop  offset="0.7527" style="stop-color:#FAFAFA;stop-opacity:0.1032"/>
			<stop  offset="1" style="stop-color:#EFEFEF;stop-opacity:0.2"/>
		</linearGradient>
		<path style="fill:url(#SVGID_00000178199502688735470620000009587183225665883311_);" d="M527.7,246.19
			c37.48,43.67,74.6,86.92,112.92,131.56c-7.03,0-12.29-0.02-17.56,0c-17.92,0.06-26.41,8.45-26.42,26.25
			c-0.02,58.25-0.01,116.49-0.01,174.74c0,13.61-3.4,16.96-17.18,16.96c-34.5,0.01-69,0.01-103.5,0c-13.82,0-17.19-3.31-17.19-16.94
			c-0.01-57.8,0-115.6-0.01-173.39c0-19.61-8.06-27.6-27.77-27.61c-4.68,0-9.36,0-16.1,0C453.07,333.22,490.23,289.89,527.7,246.19z
			 M515.85,534.54c-7.38-4.6-10.13-10.74-11.06-18.18c-1.14-9.09-5.98-13.3-13.41-12.17c-6.83,1.04-10.28,6.64-9.26,15.3
			c2.18,18.58,12.22,31.16,29.22,38.66c2.13,0.94,4.15,3.39,5.03,5.62c2.13,5.39,5.63,8.82,11.39,8.81
			c5.44-0.01,9.86-3.01,10.73-8.4c0.69-4.23,2.94-5.23,6.21-6.53c17.92-7.14,29.62-25.03,28.84-43.67
			c-0.82-19.73-13.18-36.41-31.8-42.18c-4.83-1.5-10.07-1.86-15.16-2.34c-10.5-0.99-19.02-7.97-21.15-17.68
			c-2.21-10.05,1.64-19.07,10.14-23.78c2.11,14.13,4.74,18.49,11.78,18.34c2.5-0.05,6.2-0.9,7.21-2.64
			c2.73-4.7,4.3-10.06,6.45-15.45c6.51,3.8,8.82,10.64,9.8,18.44c0.96,7.66,5.66,11.6,12.48,10.98c6.5-0.59,10.84-5.97,10.22-13.33
			c-1.63-19.1-11.23-32.68-28.88-40.25c-3.28-1.4-5.42-2.44-6.15-6.57c-0.94-5.36-5.32-8.34-10.78-8.35
			c-5.46-0.01-9.8,2.96-10.81,8.33c-0.76,4.04-2.73,5.25-6.12,6.58c-17.93,7.02-29.66,24.93-28.92,43.59
			c0.8,20.06,13.34,36.83,32.3,42.47c4.86,1.45,10.09,1.75,15.18,2.27c10.44,1.06,18.66,8.19,20.63,18.16
			c1.97,9.96-1.91,18.75-10.16,23.01c-2.26-14.33-5.21-18.59-12.62-18.25C519.74,515.68,516.82,520.38,515.85,534.54z"/>
		
			<linearGradient id="SVGID_00000012461429275076565200000010384387510548276644_" gradientUnits="userSpaceOnUse" x1="42.8453" y1="111.9905" x2="472.9001" y2="698.9572">
			<stop  offset="0" style="stop-color:#FFFFFF;stop-opacity:0.4"/>
			<stop  offset="0.0691" style="stop-color:#FFFFFF;stop-opacity:0.3435"/>
			<stop  offset="0.4892" style="stop-color:#FFFFFF;stop-opacity:0"/>
			<stop  offset="0.7527" style="stop-color:#FAFAFA;stop-opacity:0.1032"/>
			<stop  offset="1" style="stop-color:#EFEFEF;stop-opacity:0.2"/>
		</linearGradient>
		<path style="fill:url(#SVGID_00000012461429275076565200000010384387510548276644_);" d="M148.8,160.3c0,37.91,0,75.63,0,113.86
			c-16.49,0-32.8,0.73-49-0.25c-11.18-0.67-19.14-10.34-19.25-21.5c-0.24-23.73-0.24-47.47,0.03-71.2
			c0.12-10.25,7.89-20.11,17.7-20.66C114.95,159.63,131.71,160.3,148.8,160.3z"/>
		
			<linearGradient id="SVGID_00000114773403715857658840000002405826318369430420_" gradientUnits="userSpaceOnUse" x1="108.3964" y1="63.963" x2="538.4512" y2="650.9297">
			<stop  offset="0" style="stop-color:#FFFFFF;stop-opacity:0.4"/>
			<stop  offset="0.0691" style="stop-color:#FFFFFF;stop-opacity:0.3435"/>
			<stop  offset="0.4892" style="stop-color:#FFFFFF;stop-opacity:0"/>
			<stop  offset="0.7527" style="stop-color:#FAFAFA;stop-opacity:0.1032"/>
			<stop  offset="1" style="stop-color:#EFEFEF;stop-opacity:0.2"/>
		</linearGradient>
		<path style="fill:url(#SVGID_00000114773403715857658840000002405826318369430420_);" d="M126.27,136.45c-8.01,0-14.91,0-22.56,0
			c-0.37-19.36-3.92-38.89,14.14-53.67c9.12-7.47,16.81-16.68,25.25-25c5.91-5.82,12.12-6.27,17.18-1.51
			c5.18,4.87,4.94,11.7-0.94,17.7c-8.29,8.47-16.48,17.07-25.25,25.02c-6,5.44-8.65,11.46-7.92,19.49
			C126.69,124.2,126.27,130.01,126.27,136.45z"/>
		
			<linearGradient id="SVGID_00000111181121908546998590000000559887716970525108_" gradientUnits="userSpaceOnUse" x1="232.6408" y1="-27.0676" x2="662.6956" y2="559.8991">
			<stop  offset="0" style="stop-color:#FFFFFF;stop-opacity:0.4"/>
			<stop  offset="0.0691" style="stop-color:#FFFFFF;stop-opacity:0.3435"/>
			<stop  offset="0.4892" style="stop-color:#FFFFFF;stop-opacity:0"/>
			<stop  offset="0.7527" style="stop-color:#FAFAFA;stop-opacity:0.1032"/>
			<stop  offset="1" style="stop-color:#EFEFEF;stop-opacity:0.2"/>
		</linearGradient>
		<path style="fill:url(#SVGID_00000111181121908546998590000000559887716970525108_);" d="M470.22,45.44c0,53.44,0,106.26,0,159.66
			c-83.97,0-167.76,0-251.94,0c0-53.14,0-106.12,0-159.66C302.03,45.44,385.82,45.44,470.22,45.44z M345.66,78.79
			c-3.14-3.51-5.41-7.52-8.84-9.55c-4.73-2.8-9.46-0.74-13.29,3.1c-25.93,25.96-51.91,51.87-77.81,77.87
			c-5.84,5.86-6.21,12.2-1.42,17.2c4.91,5.13,11.72,4.84,17.71-1.13c25.84-25.74,51.64-51.51,77.31-77.42
			C341.7,86.46,343.04,83.04,345.66,78.79z M262.92,68.11c-0.81,0.2-2.52,0.1-3.34,0.9c-6.01,5.85-12.57,11.37-17.32,18.15
			c-1.59,2.27,0.34,9.24,2.92,11.59c2.58,2.36,9.31,3.62,11.88,1.89c6.33-4.28,12.24-9.91,16.61-16.18
			C278.5,77.5,271.95,67.88,262.92,68.11z"/>
	</g>
</g>
</svg>
