<?xml version="1.0" encoding="utf-8"?>
<!-- Generator: Adobe Illustrator 27.3.1, SVG Export Plug-In . SVG Version: 6.00 Build 0)  -->
<svg version="1.1" id="Layer_1" xmlns="http://www.w3.org/2000/svg" xmlns:xlink="http://www.w3.org/1999/xlink" x="0px" y="0px"
	 viewBox="0 0 210 110" style="enable-background:new 0 0 210 110;" xml:space="preserve">
<style type="text/css">
	.st0{fill:url(#path34_00000163778266792232684820000005469105680504984983_);}
	.st1{fill:url(#path54_00000109716699570043447030000000631413935258133901_);}
	.st2{fill:url(#path78_00000069399000018906839720000003314664783843076278_);}
	.st3{fill:url(#path110_00000111900404807882956930000004777071072494550203_);}
	.st4{fill:url(#path130_00000122708892788864859770000001788608902473254567_);}
	.st5{fill:url(#path178_00000119086780825450469240000003192744978924426169_);}
	.st6{fill:url(#path198_00000150791165614112682110000018319740057432941444_);}
	.st7{fill:url(#path218_00000053546639822244579160000005990453140904737412_);}
	.st8{fill:url(#path238_00000082365571210058065110000017082345829815683972_);}
	.st9{fill:url(#path258_00000017509832828807815100000012869452387967200644_);}
	.st10{fill:url(#path306_00000083086841664756621890000010155818994062357401_);}
	.st11{fill:url(#path326_00000016046257659805374880000014674183474016477608_);}
	.st12{fill:url(#path346_00000161600252551375905860000001150221330143526070_);}
	.st13{fill:url(#path366_00000155105814636206995520000012636323453361977744_);}
	.st14{fill:url(#path386_00000086662586074909462620000004842985682213701521_);}
	.st15{fill:url(#path406_00000109018489860437426010000000462780620086285727_);}
	.st16{fill:url(#path426_00000044862171775735332180000016001873115176463006_);}
	.st17{fill:url(#path446_00000109007345435044406870000014972197376116010379_);}
	.st18{fill:url(#path478_00000076566114857712696260000005152656277159703454_);}
	.st19{fill:url(#path498_00000016763564009914929300000013276136272396429755_);}
	.st20{fill:url(#path518_00000042696548566106916360000013259981529399905459_);}
	.st21{fill:url(#path538_00000013912871090475645460000014557258627194748572_);}
	.st22{fill:url(#path558_00000049904959919396947010000014588606194872119224_);}
	.st23{fill:url(#path578_00000114782537003416436630000002830086833652451513_);}
	.st24{fill:url(#path598_00000058572328409397500360000005596625686026381450_);}
	.st25{fill:url(#path618_00000146478198427305664410000009806828343673474206_);}
	.st26{fill:url(#path638_00000163041117215715104320000006622136509225669787_);}
	.st27{fill:url(#path658_00000042012895499697956840000007900179322613784713_);}
	.st28{fill:url(#path678_00000074402311474379766620000016813944946914611892_);}
	.st29{fill:url(#path698_00000164477078769962182320000001561608159318719640_);}
	.st30{fill:url(#path718_00000152250957792883674800000000736260043056489885_);}
	.st31{fill:url(#path738_00000093863524293899030900000006010906134944686252_);}
	.st32{fill:url(#path762_00000047055929826647062080000016335385346362761906_);}
	.st33{fill:url(#path788_00000181792622662066459390000008550925606229835429_);}
	.st34{fill:url(#path808_00000147210910107171116410000014265195326327381143_);}
	.st35{fill:url(#path832_00000116958397666529222190000009226149005235674272_);}
	.st36{fill:url(#path856_00000082329741382225911860000012043273262454823328_);}
	.st37{fill:url(#path876_00000078024268946568986350000017268573681502034868_);}
	.st38{fill:url(#path898_00000062159071412255186880000015792964863440529556_);}
	.st39{fill:url(#path918_00000038371340493566975870000006458590240578859954_);}
	.st40{fill:url(#path940_00000086659479665889105390000003797113980816787623_);}
	.st41{fill:url(#path960_00000008837875448422265360000016652883670414439071_);}
	.st42{fill:#63BBEB;}
	.st43{fill:#3777C5;}
	.st44{fill:#4980CA;}
	.st45{fill:#2F67AB;}
	.st46{fill:#72C1ED;}
	.st47{fill:#326CB3;}
	.st48{fill:#AF0A55;}
	.st49{fill:#90C643;}
</style>
<g>
	<g id="g12">
		<g id="g14">
			<g id="g20">
				<g id="g22">
					
						<radialGradient id="path34_00000010998643211219484000000016104215634793329312_" cx="-852.345" cy="593.4595" r="0.5275" gradientTransform="matrix(286.5223 0 0 -286.5223 244320.8906 170097.625)" gradientUnits="userSpaceOnUse">
						<stop  offset="0" style="stop-color:#C11566"/>
						<stop  offset="0.9944" style="stop-color:#AF0A55"/>
						<stop  offset="0.9944" style="stop-color:#AF0A55"/>
						<stop  offset="1" style="stop-color:#AF0A55"/>
					</radialGradient>
					<path id="path34" style="fill:url(#path34_00000010998643211219484000000016104215634793329312_);" d="M20.33,55.23
						c0,6.69,6.25,7.52,9.52,7.52l0,0c8.63,0,12.47-3.98,14.17-3.98l0,0c1.7,0-1.01,4.05-3.58,5.67l0,0
						C19.04,77.37,1.45,88.51,1.45,98.82l0,0c0,4.66,4.31,4.97,7.58,4.97l0,0c3.28,0,19.29-2.05,43.8-40.04l0,0
						c1.15-1.78,3.04-2.82,4.85-4.12l0,0c1.81-1.3,7.65-5.58,8.81-5.58l0,0c1.15-0.01,1.11,0.5,1.07,1.02l0,0
						c-0.06,0.75-0.85,2.4-0.85,4.42l0,0c0,2.02,2.05,4.36,5.39,4.36l0,0c7.45,0,12.88-5.3,17.34-10.09l0,0
						c-1.47-0.31-3.16-0.68-5.03-1.12l0,0c-1.77,1.5-3.5,2.63-4.43,2.65l0,0c-1.71,0.04-2.23-0.93-2.3-1.81l0,0
						c-0.06-0.72,0.1-1.53,0.44-2.4l0,0c-3.39-0.89-7.16-1.95-11.25-3.2l0,0c-1.08,0.67-2.21,1.18-3.04,1.06l0,0
						c-0.26-0.04-0.42-0.28,0.16-1.1l0,0c0.07-0.1,0.25-0.35,0.51-0.71l0,0c-2.94-0.93-6.02-1.96-9.23-3.09l0,0
						c-6.21,5.7-13.36,11.42-17.28,11.42l0,0c-1.57,0-3.03-1.05-3.03-3.55l0,0c0-1.66,2.19-7.05,6.52-13.13l0,0
						c-3.25-1.34-6.57-2.77-9.94-4.31l0,0C23.87,42.61,20.33,49.98,20.33,55.23 M11.72,94.43c0-4.57,15.89-16.57,17.78-16.59l0,0
						c0.49-0.01,0.62,0.19,0.62,0.57l0,0c0.02,3.66-11.59,18.21-16.25,18.21l0,0C12.39,96.62,11.72,95.82,11.72,94.43 M153.28,57.15
						c-0.02,2.68,0.64,6.98,5.2,6.98l0,0c9,0,20.19-11.4,20.73-11.48l0,0c0.37-0.06,0.43,0.1,0.43,0.46l0,0
						c0,0.41-1.27,4.92-14.42,20.89l0,0c-13.16,15.98-19.53,22.24-19.53,25.69l0,0c0,3.45,2.92,4.7,4.28,4.7l0,0
						c1.36,0,7.1-0.31,20.78-22.55l0,0c9.76-15.88,14.37-25.67,19.56-33.56l0,0C180.95,52.34,169.18,55,153.28,57.15 M98.61,55.72
						c0,3.2,1.06,7.79,8.51,7.79l0,0c4.13,0,7.9-2.22,11.12-5.44l0,0c-6.26-0.48-12.8-1.32-19.62-2.59l0,0
						C98.61,55.56,98.61,55.64,98.61,55.72 M126.27,58.51c-0.97,1.48-1.8,2.73-2.37,3.62l0,0c0,0-0.7,0.84,0.35,0.84l0,0h9.75
						c0.42,0,0.84-0.35,1.18-0.84l0,0c0.12-0.17,1.12-1.69,2.39-3.64l0,0C133.92,58.62,130.16,58.63,126.27,58.51"/>
				</g>
			</g>
		</g>
	</g>
	<g id="g36">
		<g id="g38">
			<g id="g44">
				<g id="g46">
					
						<radialGradient id="path54_00000043438264734585732130000001623376868320723902_" cx="-848.8597" cy="591.2271" r="0.5275" gradientTransform="matrix(121.7019 0 0 -121.7019 103427.8359 71991.8438)" gradientUnits="userSpaceOnUse">
						<stop  offset="0" style="stop-color:#63BBEB"/>
						<stop  offset="1" style="stop-color:#3777C5"/>
					</radialGradient>
					<path id="path54" style="fill:url(#path54_00000043438264734585732130000001623376868320723902_);" d="M199.52,25.08
						c0,1.67,2.55,2.82,3.4,2.82l0,0c1.31,0,5.64-2.82,5.64-6.68l0,0c0-1.41-0.99-2.98-2.45-2.98l0,0
						C204.06,18.23,199.52,22.83,199.52,25.08 M187.98,38.49c-6.16,6.68-13.57,15.66-20.26,15.66l0,0c-2.47,0-3.24-1.57-3.24-3.13
						l0,0c0-1.15,0.9-2.21,2.61-2.72l0,0c6.3-1.86,16.19-10.07,16.19-15.66l0,0c0-1.46-0.73-3.04-2.61-3.04l0,0
						c-2.73,0-10.34,1.27-19.82,12.6l0,0c-1.06,1.27-2.21,2.13-3.05,2.13l0,0c-0.89,0-1.93-1.67-1.93-5.01l0,0
						c0-0.35,0.01-0.69,0.04-1.01l0,0c-6.89,2.49-13.91,4.43-20.95,5.85l0,0c-2.32,4.56-6.03,10.3-8.69,14.34l0,0
						c3.89,0.12,7.65,0.11,11.29-0.02l0,0c2.45-3.76,5.92-9.1,6.11-9.38l0,0c0.28-0.42,0.69-0.7,1.11-0.7l0,0
						c1.53,0-0.35,3.9,5.36,3.9l0,0c1.6,0,3.19-0.82,3.61-0.82l0,0c0.42,0,0.47,0.37,0.47,0.68l0,0c0,0.62-0.78,2.06-0.91,4.07l0,0
						c-0.02,0.27-0.03,0.58-0.03,0.91l0,0c15.9-2.15,27.67-4.81,37.03-8.88l0,0c2.08-3.16,5.11-7.35,7.28-9.46l0,0
						c4.07-3.97,5.12-6.06,5.12-7l0,0c0-1.22-0.73-2.4-2.19-2.4l0,0C199.05,29.41,194.14,31.81,187.98,38.49 M167.99,43.46
						c0-1.84,6.15-7.75,8.21-7.75l0,0c0.29,0,0.69,0.23,0.69,0.57l0,0c0,2.35-6.14,7.92-8.1,7.92l0,0
						C168.4,44.2,167.99,43.92,167.99,43.46 M31.52,34.47c3.38,1.54,6.69,2.98,9.94,4.31l0,0c0.55-0.77,1.13-1.56,1.75-2.35l0,0
						c-3.5-1.19-6.87-2.42-10.06-3.65l0,0C32.59,33.35,32.05,33.91,31.52,34.47 M55.25,44.04c3.21,1.13,6.29,2.16,9.23,3.09l0,0
						c0.6-0.83,1.63-2.25,2.81-3.88l0,0c-3-0.67-5.97-1.4-8.88-2.18l0,0C57.41,42.04,56.34,43.04,55.25,44.04 M69.88,45.54
						c-0.49,0.48-1.71,1.52-3.01,2.33l0,0c4.09,1.25,7.86,2.31,11.25,3.2l0,0c0.62-1.61,1.83-3.43,3.32-5.24l0,0
						c-3.39-0.47-6.76-1.05-10.09-1.72l0,0C70.87,44.57,70.38,45.05,69.88,45.54 M120.7,46.38c-2.35,4.28-5.68,8.19-9.69,8.2l0,0
						c-1.25,0-2.04-0.67-2.08-1.86l0,0c-0.05-1.44,0.93-3.53,2.26-5.6l0,0c-3.74,0.18-7.46,0.24-11.12,0.17l0,0
						c-0.22,1.11-1.39,5.28-1.45,8.19l0,0c6.82,1.27,13.36,2.11,19.62,2.59l0,0c3.48-3.48,6.32-8.14,8.25-12.43l0,0
						C124.56,45.92,122.63,46.17,120.7,46.38 M84.41,52.63c1.87,0.44,3.56,0.81,5.03,1.12l0,0c2.53-2.71,4.74-5.26,6.83-6.58l0,0
						c-2.23-0.1-4.44-0.24-6.63-0.43l0,0C88.8,48.39,86.58,50.79,84.41,52.63"/>
				</g>
			</g>
		</g>
	</g>
	<g id="g56">
		<g id="g58">
			<g id="g64">
				<g id="g66">
					
						<radialGradient id="path78_00000075877730638681902950000008370329958237298841_" cx="-850.1875" cy="592.0568" r="0.5275" gradientTransform="matrix(154.3956 0 0 -154.3956 131390 91454.6719)" gradientUnits="userSpaceOnUse">
						<stop  offset="0" style="stop-color:#90C643"/>
						<stop  offset="0.8309" style="stop-color:#5FB233"/>
						<stop  offset="0.8309" style="stop-color:#5FB233"/>
						<stop  offset="1" style="stop-color:#5FB233"/>
					</radialGradient>
					<path id="path78" style="fill:url(#path78_00000075877730638681902950000008370329958237298841_);" d="M45.58,22.27
						c-4.89,3.56-9.02,7.09-12.43,10.51l0,0c3.2,1.23,6.56,2.46,10.06,3.65l0,0c1.88-2.41,4.09-4.86,6.61-7.18l0,0
						c9.87-9.08,21.3-13.52,28.4-13.52l0,0c2.98,0,6.54,0.59,7.07,0.66l0,0c0.37,0.05,0.49-0.02,0.64-0.28l0,0
						c0.22-0.36,5.54-9.82,5.54-9.82l0,0c0.08-0.14,0.04-0.26-0.09-0.3l0,0c-0.13-0.04-1.06-0.37-3-0.37l0,0
						C80.42,5.62,63.06,9.57,45.58,22.27 M95.93,14.74c0,5.01,3,11.88,15.61,16.08l0,0c0.31,0.1,0.63,0.14,0.63,0.41l0,0
						c0,0.54-5.95,8.58-11.33,9.52l0,0c-0.62,0.11-1.04-0.42-1.04-0.99l0,0c0-0.57,0.84-2.25,0.84-4.8l0,0
						c0-2.56-0.78-6.16-5.64-6.16l0,0c-4.69,0-10.06,2.24-23.64,15.33l0,0c3.33,0.67,6.7,1.24,10.09,1.72l0,0
						c4.22-5.13,10.69-10.17,12.33-10.22l0,0c1.01-0.03,1.43,0.4,1.46,0.84l0,0c0.15,1.81-2.44,3.07-4.05,4.23l0,0
						c-1.88,1.36-2.49,1.78-2.3,2.92l0,0c0.11,0.63,1.01,0.79,1.12,1.9l0,0c0.03,0.32-0.1,0.74-0.36,1.24l0,0
						c2.19,0.19,4.4,0.33,6.63,0.43l0,0c0.94-0.6,1.86-0.95,2.77-0.95l0,0c0.77,0,1.06,0.34,1.06,0.83l0,0
						c0,0.04-0.01,0.13-0.04,0.24l0,0c3.67,0.07,7.38,0.02,11.12-0.17l0,0c1.94-3.03,4.63-6,5.91-6.78l0,0
						c2.16-1.3,3.34-2.59,3.32-3.32l0,0c-0.02-0.73-1.56-1.72-1.72-2.44l0,0c-0.18-0.84,0.49-1.29,1.99-0.91l0,0
						c2.15,0.54,3.71,0.61,3.76,2.19l0,0c0.04,1.29-1.33,6.09-3.75,10.5l0,0c1.93-0.21,3.85-0.46,5.79-0.74l0,0
						c1.86-4.11,2.9-7.89,2.9-9.98l0,0c0-0.45,0.15-1,0.98-1l0,0c0.83,0,3.15,0.25,4.17,0.35l0,0c1.12,0.11,2.58,1.02,2.58,3.11l0,0
						c0,1.31-0.87,3.5-2.17,6.06l0,0c7.04-1.43,14.06-3.36,20.95-5.85l0,0c0.3-4.42,2.47-6.22,2.47-7.67l0,0
						c0-0.99-0.41-1.39-1.58-1.39l0,0c-2.66,0-7.87,6.37-8.81,6.37l0,0c-0.76,0-1.64-2.92-2.51-4.07l0,0
						c-1.26-1.67-2.98-2.09-7.89-2.09l0,0c-2.45,0-3.86,0.21-6.06,0.21l0,0c-2.5,0-3.08-0.11-3.55-1.2l0,0
						c-0.47-1.1-7.78-20.36-24.44-20.36l0,0C99.85,8.11,95.93,9.73,95.93,14.74 M104.28,17.09c0-2.22,1.51-3.5,3.63-3.5l0,0
						c10.09,0,15.12,14.35,15.12,15.26l0,0c0,0.46-0.27,0.71-1,0.71l0,0C118.36,29.57,104.28,24.08,104.28,17.09 M66.43,33.12
						c-1.13,1.09-4.2,4.3-8.01,7.96l0,0c2.91,0.78,5.87,1.52,8.88,2.18l0,0c2.7-3.71,6.19-8.45,7.13-9.51l0,0
						c1.51-1.72,2.3-2.56,2.3-3.13l0,0c0-0.66-0.94-1.2-2.09-1.2l0,0C73.64,29.41,69.56,30.09,66.43,33.12"/>
				</g>
			</g>
		</g>
	</g>
	<g id="g92">
		<g id="g94">
			<g id="g100">
				<g id="g102">
					
						<linearGradient id="path110_00000183213637510773444900000002038272302989336971_" gradientUnits="userSpaceOnUse" x1="-795.3624" y1="603.8607" x2="-794.8349" y2="603.8607" gradientTransform="matrix(10.818 9.0774 9.0774 -10.818 3267.0122 13806.0518)">
						<stop  offset="0" style="stop-color:#4980CA"/>
						<stop  offset="1" style="stop-color:#63BBEB"/>
					</linearGradient>
					<path id="path110" style="fill:url(#path110_00000183213637510773444900000002038272302989336971_);" d="M143.27,48.84
						l-2.1,3.22c-1.22,1.87-2.87,4.41-4.19,6.44l0,0c0.39-0.01,0.78-0.03,1.17-0.04l0,0c1.09-1.67,2.43-3.73,3.82-5.87l0,0
						l2.09-3.21c0.2-0.29,0.48-0.48,0.71-0.48l0,0c0.12,0,0.17,0.06,0.35,0.7l0,0c0.33,1.2,0.88,3.2,5.01,3.2l0,0
						c1.14,0,2.25-0.38,2.98-0.63l0,0c0.23-0.08,0.5-0.17,0.6-0.18l0,0c0.01,0.04,0.01,0.09,0.01,0.19l0,0
						c0,0.16-0.12,0.53-0.24,0.91l0,0c-0.25,0.77-0.59,1.83-0.67,3.13l0,0c-0.02,0.32-0.03,0.65-0.03,1l0,0
						c0.32-0.04,0.64-0.08,0.96-0.13l0,0c0.01-0.29,0.01-0.57,0.03-0.81l0,0c0.07-1.18,0.39-2.17,0.62-2.9l0,0
						c0.17-0.52,0.29-0.89,0.29-1.21l0,0c0-1.05-0.66-1.16-0.95-1.16l0,0c-0.22,0-0.5,0.1-0.94,0.24l0,0
						c-0.67,0.23-1.69,0.58-2.67,0.58l0,0c-3.4,0-3.78-1.38-4.08-2.49l0,0c-0.17-0.63-0.39-1.4-1.28-1.4l0,0
						C144.21,47.93,143.65,48.27,143.27,48.84"/>
				</g>
			</g>
		</g>
	</g>
	<g id="g112">
		<g id="g114">
			<g id="g120">
				<g id="g122">
					
						<linearGradient id="path130_00000157288728893395940090000008818429598175325362_" gradientUnits="userSpaceOnUse" x1="-913.4922" y1="595.0884" x2="-912.9647" y2="595.0884" gradientTransform="matrix(-12.8152 -7.6201 -7.6201 12.8152 -7053.7744 -14534.918)">
						<stop  offset="0" style="stop-color:#82C7EF"/>
						<stop  offset="1" style="stop-color:#3777C5"/>
					</linearGradient>
					<path id="path130" style="fill:url(#path130_00000157288728893395940090000008818429598175325362_);" d="M120.13,46.44
						c-0.97,1.73-2.12,3.4-3.42,4.75l0,0c-1.86,1.93-3.78,2.91-5.69,2.91l0,0c-0.58,0-1.56-0.18-1.6-1.39l0,0
						c-0.05-1.42,0.99-3.54,2.36-5.61l0,0c-0.39,0.02-0.79,0.04-1.18,0.06l0,0c-1.27,2.04-2.19,4.1-2.14,5.59l0,0
						c0.05,1.43,1.03,2.32,2.56,2.32l0,0c2.19-0.01,4.33-1.08,6.38-3.21l0,0c1.5-1.55,2.81-3.52,3.9-5.55l0,0
						C120.91,46.36,120.52,46.4,120.13,46.44"/>
				</g>
			</g>
		</g>
	</g>
	<g id="g160">
		<g id="g162">
			<g id="g168">
				<g id="g170">
					
						<linearGradient id="path178_00000061444134095962197780000017423807062848951992_" gradientUnits="userSpaceOnUse" x1="-836.0994" y1="582.822" x2="-835.5719" y2="582.822" gradientTransform="matrix(37.4539 0 0 -37.4539 31479.1719 21870.7832)">
						<stop  offset="0" style="stop-color:#2F67AB"/>
						<stop  offset="1" style="stop-color:#2D61A2"/>
					</linearGradient>
					<path id="path178" style="fill:url(#path178_00000061444134095962197780000017423807062848951992_);" d="M182.8,32.65
						c0,5.43-9.88,13.44-15.84,15.2l0,0c-1.85,0.55-2.95,1.73-2.95,3.18l0,0h0.96c0-0.99,0.85-1.84,2.27-2.25l0,0
						c6.23-1.84,16.53-10.13,16.53-16.12l0,0L182.8,32.65L182.8,32.65z"/>
				</g>
			</g>
		</g>
	</g>
	<g id="g180">
		<g id="g182">
			<g id="g188">
				<g id="g190">
					
						<linearGradient id="path198_00000108289192948737970930000002878464530641399739_" gradientUnits="userSpaceOnUse" x1="-917.1596" y1="647.3677" x2="-916.6321" y2="647.3677" gradientTransform="matrix(-10.2946 1.3197 1.3197 10.2946 -10133.4004 -5413.2788)">
						<stop  offset="0" style="stop-color:#63BBEB"/>
						<stop  offset="1" style="stop-color:#3777C5"/>
					</linearGradient>
					<path id="path198" style="fill:url(#path198_00000108289192948737970930000002878464530641399739_);" d="M160.48,41.9
						c-1.01,1.21-2.04,1.96-2.68,1.96l0,0c-0.49,0-1.45-1.37-1.45-4.53l0,0c0-0.42,0.02-0.82,0.05-1.2l0,0
						c-0.33,0.12-0.66,0.24-0.99,0.36l0,0c-0.02,0.27-0.03,0.55-0.03,0.84l0,0c0,3.77,1.25,5.49,2.41,5.49l0,0
						c1.3,0,2.7-1.44,3.42-2.3l0,0c1.21-1.44,2.38-2.72,3.52-3.85l0,0l-0.41-0.95C163.09,38.93,161.8,40.32,160.48,41.9"/>
				</g>
			</g>
		</g>
	</g>
	<g id="g200">
		<g id="g202">
			<g id="g208">
				<g id="g210">
					
						<linearGradient id="path218_00000036955879205093440320000000918489457592707722_" gradientUnits="userSpaceOnUse" x1="-739.9426" y1="531.5162" x2="-739.4151" y2="531.5162" gradientTransform="matrix(6.3337 0.5279 0.5279 -6.3337 4584.1323 3791.3835)">
						<stop  offset="0" style="stop-color:#63BBEB"/>
						<stop  offset="1" style="stop-color:#2D61A2"/>
					</linearGradient>
					<path id="path218" style="fill:url(#path218_00000036955879205093440320000000918489457592707722_);" d="M164.33,37.72
						l0.41,0.95c7.96-7.9,14.07-8.58,15.93-8.58l0,0c2.03,0,2.13,2.13,2.13,2.56l0,0h0.96c0-1.75-0.96-3.52-3.09-3.52l0,0
						C178.2,29.13,172.14,30.05,164.33,37.72"/>
				</g>
			</g>
		</g>
	</g>
	<g id="g220">
		<g id="g222">
			<g id="g228">
				<g id="g230">
					
						<linearGradient id="path238_00000108272663997951488150000008601016504512239545_" gradientUnits="userSpaceOnUse" x1="-1009.6821" y1="544.1782" x2="-1009.1546" y2="544.1782" gradientTransform="matrix(-3.2063 -4.0075 -4.0075 3.2063 -883.3166 -5750.147)">
						<stop  offset="0" style="stop-color:#5AAAD7"/>
						<stop  offset="1" style="stop-color:#2F67AB"/>
					</linearGradient>
					<path id="path238" style="fill:url(#path238_00000108272663997951488150000008601016504512239545_);" d="M167.51,43.46
						c0,0.77,0.65,1.23,1.29,1.23l0,0c2.26,0,8.58-5.76,8.58-8.41l0,0c0-0.62-0.62-1.05-1.17-1.05l0,0
						C173.93,35.22,167.51,41.3,167.51,43.46 M168.47,43.46c0-1.63,6-7.27,7.73-7.27l0,0c0.07,0,0.19,0.07,0.21,0.11l0,0
						c0,2.06-5.91,7.43-7.62,7.43l0,0C168.66,43.72,168.47,43.64,168.47,43.46"/>
				</g>
			</g>
		</g>
	</g>
	<g id="g240">
		<g id="g242">
			<g id="g248">
				<g id="g250">
					
						<linearGradient id="path258_00000073684087531235616900000000451292644175864228_" gradientUnits="userSpaceOnUse" x1="-698.9326" y1="560.3737" x2="-698.4051" y2="560.3737" gradientTransform="matrix(4.7513 1.9797 1.9797 -4.7513 2414.4451 4068.5933)">
						<stop  offset="0" style="stop-color:#63BBEB"/>
						<stop  offset="1" style="stop-color:#2B5C99"/>
					</linearGradient>
					<path id="path258" style="fill:url(#path258_00000073684087531235616900000000451292644175864228_);" d="M199.04,25.07
						c0,1.99,2.76,3.3,3.87,3.3l0,0c1.48,0,6.12-2.97,6.12-7.16l0,0c0-1.67-1.18-3.46-2.93-3.46l0,0
						C203.72,17.75,199.04,22.61,199.04,25.07 M200,25.07c0-1.9,4.28-6.36,6.1-6.36l0,0c1.16,0,1.97,1.32,1.97,2.5l0,0
						c0,3.56-4.08,6.2-5.16,6.2l0,0C202.2,27.41,200,26.36,200,25.07"/>
				</g>
			</g>
		</g>
	</g>
	<g id="g288">
		<g id="g290">
			<g id="g296">
				<g id="g298">
					
						<linearGradient id="path306_00000140709830362818631690000005599422758552649116_" gradientUnits="userSpaceOnUse" x1="-875.3961" y1="636.5091" x2="-874.8687" y2="636.5091" gradientTransform="matrix(-15.4422 8.711 8.711 15.4422 -18863.7246 -2169.7358)">
						<stop  offset="0" style="stop-color:#63BBEB"/>
						<stop  offset="1" style="stop-color:#2F67AB"/>
					</linearGradient>
					<path id="path306" style="fill:url(#path306_00000140709830362818631690000005599422758552649116_);" d="M187.62,38.17
						l-1.91,2.09c-5.72,6.29-12.2,13.42-18,13.42l0,0c-2.28,0-2.76-1.44-2.76-2.65l0,0H164c0,2.08,1.18,3.39,3.18,3.59l0,0
						c2.07,0.04,3.41-0.32,5.7-1.44l0,0c4.62-2.45,9.29-7.59,13.55-12.27l0,0l1.9-2.08c6.16-6.68,10.94-8.93,12.18-8.93l0,0v-0.96
						C198.82,28.93,193.83,31.44,187.62,38.17"/>
				</g>
			</g>
		</g>
	</g>
	<g id="g308">
		<g id="g310">
			<g id="g316">
				<g id="g318">
					
						<linearGradient id="path326_00000080923119856566633300000017115027455092685203_" gradientUnits="userSpaceOnUse" x1="-606.6392" y1="696.2428" x2="-606.1118" y2="696.2428" gradientTransform="matrix(1.7031 2.5546 2.5546 -1.7031 -552.1066 2770.6709)">
						<stop  offset="0" style="stop-color:#63BBEB"/>
						<stop  offset="1" style="stop-color:#2B5C99"/>
					</linearGradient>
					<path id="path326" style="fill:url(#path326_00000080923119856566633300000017115027455092685203_);" d="M200.51,29.89
						c1.18,0,1.71,0.97,1.71,1.92l0,0c0,0.42-0.36,2.16-4.97,6.65l0,0c-2.31,2.25-5.5,6.69-7.73,10.14l0,0
						c0.55-0.23,1.09-0.47,1.61-0.7l0,0c1.91-2.85,4.81-6.82,6.79-8.75l0,0c3.44-3.35,5.26-5.89,5.26-7.34l0,0
						c0-1.43-0.92-2.88-2.67-2.88l0,0V29.89z"/>
				</g>
			</g>
		</g>
	</g>
	<g id="g328">
		<g id="g330">
			<g id="g336">
				<g id="g338">
					
						<linearGradient id="path346_00000153700086327168879270000015831014642470943627_" gradientUnits="userSpaceOnUse" x1="-801.8837" y1="564.8619" x2="-801.3563" y2="564.8619" gradientTransform="matrix(14.7916 0 0 -14.7916 11938.3154 8408.5586)">
						<stop  offset="0" style="stop-color:#AF0A55"/>
						<stop  offset="1" style="stop-color:#DB4990"/>
					</linearGradient>
					<path id="path346" style="fill:url(#path346_00000153700086327168879270000015831014642470943627_);" d="M77.2,53.52
						c0.12,1.45,1.17,2.29,2.8,2.25l0,0c1.18-0.03,3.15-1.39,4.99-2.99l0,0c-0.38-0.09-0.77-0.18-1.17-0.27l0,0
						c-1.63,1.35-3.14,2.29-3.85,2.31l0,0c-1.12,0.03-1.73-0.43-1.81-1.37l0,0c-0.05-0.63,0.1-1.39,0.43-2.24l0,0
						c-0.31-0.08-0.62-0.16-0.93-0.24l0,0C77.31,51.85,77.13,52.72,77.2,53.52"/>
				</g>
			</g>
		</g>
	</g>
	<g id="g348">
		<g id="g350">
			<g id="g356">
				<g id="g358">
					
						<linearGradient id="path366_00000008859124230118565800000000712230981667726479_" gradientUnits="userSpaceOnUse" x1="-758.4667" y1="540.5345" x2="-757.9392" y2="540.5345" gradientTransform="matrix(8.2696 0 0 -8.2696 6335.2915 4518.188)">
						<stop  offset="0" style="stop-color:#A2094D"/>
						<stop  offset="1" style="stop-color:#D73585"/>
					</linearGradient>
					<path id="path366" style="fill:url(#path366_00000008859124230118565800000000712230981667726479_);" d="M63.58,47.56
						c-0.44,0.63-0.57,1.07-0.42,1.43l0,0c0.1,0.23,0.31,0.38,0.59,0.42l0,0c1.08,0.15,2.49-0.54,3.71-1.35l0,0
						c-0.4-0.12-0.81-0.25-1.22-0.37l0,0c-0.77,0.44-1.51,0.75-2.09,0.78l0,0c0.04-0.09,0.11-0.19,0.21-0.34l0,0
						c0.07-0.11,0.29-0.4,0.6-0.83l0,0c-0.32-0.1-0.64-0.2-0.96-0.31l0,0C63.79,47.27,63.64,47.48,63.58,47.56"/>
				</g>
			</g>
		</g>
	</g>
	<g id="g368">
		<g id="g370">
			<g id="g376">
				<g id="g378">
					
						<linearGradient id="path386_00000121269198427522823750000007943542430314932893_" gradientUnits="userSpaceOnUse" x1="-724.2584" y1="666.9826" x2="-723.7308" y2="666.9826" gradientTransform="matrix(3.5639 5.1478 5.1478 -3.5639 -831.8913 6191.4741)">
						<stop  offset="0" style="stop-color:#AF0A55"/>
						<stop  offset="1" style="stop-color:#DB4990"/>
					</linearGradient>
					<path id="path386" style="fill:url(#path386_00000121269198427522823750000007943542430314932893_);" d="M29.5,77.36
						c-1.26,0.01-6.12,3.49-9.9,6.7l0,0c-3.12,2.65-8.35,7.52-8.35,10.37l0,0c0,1.72,0.93,2.67,2.63,2.67l0,0
						c2.17,0,5.25-2.64,7.46-4.86l0,0c4.39-4.41,9.29-11.26,9.27-13.83l0,0c0-0.22-0.03-0.54-0.28-0.78l0,0
						c-0.19-0.18-0.45-0.27-0.8-0.27l0,0C29.52,77.36,29.51,77.36,29.5,77.36 M12.21,94.43c0-4.24,15.49-16.06,17.3-16.11l0,0
						c0,0,0.08,0.01,0.12,0.01l0,0c0,0.04,0.01,0.08,0.01,0.08l0,0v0.01c0,2.07-4.45,8.57-8.99,13.14l0,0
						c-2.89,2.91-5.36,4.58-6.78,4.58l0,0C12.72,96.14,12.21,95.61,12.21,94.43"/>
				</g>
			</g>
		</g>
	</g>
	<g id="g388">
		<g id="g390">
			<g id="g396">
				<g id="g398">
					
						<linearGradient id="path406_00000168832039256218149020000014314942069607165322_" gradientUnits="userSpaceOnUse" x1="-804.3389" y1="602.6018" x2="-803.8115" y2="602.6018" gradientTransform="matrix(14.5114 11.1318 11.1318 -14.5114 5003.1499 17742.957)">
						<stop  offset="0" style="stop-color:#A2094D"/>
						<stop  offset="1" style="stop-color:#DB4990"/>
					</linearGradient>
					<path id="path406" style="fill:url(#path406_00000168832039256218149020000014314942069607165322_);" d="M34.47,51.91
						c0,2.98,1.89,4.03,3.51,4.03l0,0c4,0,10.8-5.28,17.78-11.72l0,0c-0.34-0.12-0.68-0.24-1.02-0.36l0,0
						c-6.09,5.58-13.02,11.12-16.76,11.12l0,0c-1.6,0-2.55-1.15-2.55-3.07l0,0c0-1.67,2.24-6.99,6.49-12.94l0,0
						c-0.31-0.12-0.61-0.25-0.92-0.38l0,0C36.67,44.69,34.47,50.11,34.47,51.91"/>
				</g>
			</g>
		</g>
	</g>
	<g id="g408">
		<g id="g410">
			<g id="g416">
				<g id="g418">
					
						<linearGradient id="path426_00000165229437012864991370000012280997266776279184_" gradientUnits="userSpaceOnUse" x1="-825.3137" y1="546.525" x2="-824.7863" y2="546.525" gradientTransform="matrix(13.9898 -8.447 -8.447 -13.9898 16196.0303 748.225)">
						<stop  offset="0" style="stop-color:#DB4990"/>
						<stop  offset="1" style="stop-color:#AF0A55"/>
					</linearGradient>
					<path id="path426" style="fill:url(#path426_00000165229437012864991370000012280997266776279184_);" d="M0.97,98.82h0.96
						c0-9.79,16.06-20.25,38.76-33.97l0,0l-0.5-0.82C17.23,77.91,0.97,88.53,0.97,98.82"/>
				</g>
			</g>
		</g>
	</g>
	<g id="g428">
		<g id="g430">
			<g id="g436">
				<g id="g438">
					
						<linearGradient id="path446_00000026142899565456253570000009454884616149851299_" gradientUnits="userSpaceOnUse" x1="-710.8763" y1="664.8764" x2="-710.3488" y2="664.8764" gradientTransform="matrix(3.4309 4.7503 4.7503 -3.4309 -687.6826 5712.313)">
						<stop  offset="0" style="stop-color:#DB4990"/>
						<stop  offset="1" style="stop-color:#AF0A55"/>
					</linearGradient>
					<path id="path446" style="fill:url(#path446_00000026142899565456253570000009454884616149851299_);" d="M19.85,55.23
						c0,5.09,3.65,8,10,8l0,0v-0.96c-3.38,0-9.04-0.92-9.04-7.04l0,0c0-4.79,3.14-12.09,11.16-20.56l0,0
						c-0.3-0.14-0.61-0.28-0.91-0.42l0,0C23,42.86,19.85,50.31,19.85,55.23"/>
				</g>
			</g>
		</g>
	</g>
	<g id="g460">
		<g id="g462">
			<g id="g468">
				<g id="g470">
					
						<linearGradient id="path478_00000150780807190045544420000002957172575122094753_" gradientUnits="userSpaceOnUse" x1="-990.097" y1="610.5723" x2="-989.5696" y2="610.5723" gradientTransform="matrix(-6.1365 -2.5734 -2.5734 6.1365 -4430.9727 -6238.4238)">
						<stop  offset="0" style="stop-color:#A2094D"/>
						<stop  offset="1" style="stop-color:#DF5E9C"/>
					</linearGradient>
					<path id="path478" style="fill:url(#path478_00000150780807190045544420000002957172575122094753_);" d="M72.11,63.36
						c-3.21,0-4.91-2.25-4.91-3.88l0,0h-0.96c0,2.34,2.36,4.84,5.87,4.84l0,0c7.76,0,13.36-5.58,17.89-10.45l0,0
						c-0.35-0.07-0.72-0.15-1.1-0.23l0,0C84.57,58.27,79.24,63.36,72.11,63.36"/>
				</g>
			</g>
		</g>
	</g>
	<g id="g480">
		<g id="g482">
			<g id="g488">
				<g id="g490">
					
						<linearGradient id="path498_00000137842763382592452800000011575588084468991411_" gradientUnits="userSpaceOnUse" x1="-711.4561" y1="599.1182" x2="-710.9286" y2="599.1182" gradientTransform="matrix(5.743 3.1685 3.1685 -5.743 2206.967 5764.667)">
						<stop  offset="0" style="stop-color:#DB4990"/>
						<stop  offset="1" style="stop-color:#A2094D"/>
					</linearGradient>
					<path id="path498" style="fill:url(#path498_00000137842763382592452800000011575588084468991411_);" d="M57.83,58.93
						l-0.43,0.31l-1.11,0.77c-1.49,1.02-2.9,1.98-3.87,3.48l0,0c-24.45,37.9-40.44,39.82-43.39,39.82l0,0c-4.26,0-7.1-0.76-7.1-4.49
						l0,0H0.97c0,5.45,5.44,5.45,8.06,5.45l0,0c1.77,0,6.7-0.57,14.21-5.86l0,0c9.48-6.67,19.56-18.24,29.99-34.4l0,0
						c0.86-1.34,2.19-2.24,3.6-3.21l0,0l1.13-0.79l0.43-0.31c5.93-4.28,7.58-5.11,8.1-5.18l0,0c0.43-0.06,0.53,0.04,0.56,0.07l0,0
						l0.68-0.68c-0.3-0.31-0.59-0.35-1.24-0.35l0,0C65.6,53.56,63.17,55.07,57.83,58.93"/>
				</g>
			</g>
		</g>
	</g>
	<g id="g500">
		<g id="g502">
			<g id="g508">
				<g id="g510">
					
						<linearGradient id="path518_00000005225709101752051730000001968938666110054795_" gradientUnits="userSpaceOnUse" x1="-927.2418" y1="630.139" x2="-926.7144" y2="630.139" gradientTransform="matrix(-10.8878 -0.7919 -0.7919 10.8878 -9489.416 -7535.0361)">
						<stop  offset="0" style="stop-color:#A2094D"/>
						<stop  offset="1" style="stop-color:#DF5E9C"/>
					</linearGradient>
					<path id="path518" style="fill:url(#path518_00000005225709101752051730000001968938666110054795_);" d="M98.13,55.72
						c0,5.41,3.11,8.27,8.99,8.27l0,0c4.35,0,8.33-2.41,11.7-5.87l0,0c-0.41-0.03-0.82-0.07-1.23-0.1l0,0
						c-2.83,2.74-6.4,5.01-10.47,5.01l0,0c-5.4,0-8.03-2.39-8.03-7.31l0,0c0-0.05,0-0.1,0-0.15l0,0c-0.32-0.06-0.64-0.12-0.96-0.18
						l0,0C98.13,55.5,98.13,55.62,98.13,55.72"/>
				</g>
			</g>
		</g>
	</g>
	<g id="g520">
		<g id="g522">
			<g id="g528">
				<g id="g530">
					
						<linearGradient id="path538_00000106855786414833110130000008029551478349794183_" gradientUnits="userSpaceOnUse" x1="-936.3879" y1="568.1036" x2="-935.8604" y2="568.1036" gradientTransform="matrix(-6.5588 -7.5524 -7.5524 6.5588 -1719.4065 -10736.3096)">
						<stop  offset="0" style="stop-color:#A2094D"/>
						<stop  offset="1" style="stop-color:#DB4990"/>
					</linearGradient>
					<path id="path538" style="fill:url(#path538_00000106855786414833110130000008029551478349794183_);" d="M136.98,58.51
						c-1.17,1.8-2.08,3.19-2.19,3.34l0,0c-0.33,0.47-0.63,0.63-0.79,0.63l0,0h-9.75h-0.01c0.01-0.02,0.02-0.04,0.03-0.05l0,0
						l0.01-0.02l1.62-2.47c0.29-0.45,0.61-0.92,0.93-1.42l0,0c-0.37-0.01-0.75-0.02-1.13-0.04l0,0c-0.21,0.32-0.41,0.63-0.61,0.92
						l0,0c0,0-1.58,2.42-1.6,2.44l0,0c-0.09,0.12-0.31,0.43-0.31,0.78l0,0c0,0.11,0.02,0.21,0.07,0.32l0,0
						c0.1,0.22,0.36,0.48,0.98,0.48l0,0h9.75c0.55,0,1.09-0.36,1.57-1.04l0,0c0.13-0.18,1.14-1.72,2.58-3.94l0,0
						C137.76,58.48,137.37,58.49,136.98,58.51"/>
				</g>
			</g>
		</g>
	</g>
	<g id="g540">
		<g id="g542">
			<g id="g548">
				<g id="g550">
					
						<linearGradient id="path558_00000065764807055003633870000012125160460239205765_" gradientUnits="userSpaceOnUse" x1="-1048.514" y1="548.3723" x2="-1047.9866" y2="548.3723" gradientTransform="matrix(-2.9697 -2.9697 -2.9697 2.9697 -1327.141 -4678.252)">
						<stop  offset="0" style="stop-color:#C01F6E"/>
						<stop  offset="1" style="stop-color:#D63384"/>
					</linearGradient>
					<path id="path558" style="fill:url(#path558_00000065764807055003633870000012125160460239205765_);" d="M152.8,57.21
						c0,0.02,0,0.04,0,0.06l0,0c0,1.97,0.36,4.28,1.79,5.8l0,0c0.96,1.02,2.27,1.53,3.9,1.53l0,0v-0.96c-1.35,0-2.43-0.41-3.19-1.23
						l0,0c-1.3-1.38-1.54-3.69-1.53-5.33l0,0C153.44,57.13,153.12,57.17,152.8,57.21"/>
				</g>
			</g>
		</g>
	</g>
	<g id="g560">
		<g id="g562">
			<g id="g568">
				<g id="g570">
					
						<linearGradient id="path578_00000113318429190061453730000012697226184295048620_" gradientUnits="userSpaceOnUse" x1="-939.7312" y1="490.8842" x2="-939.2037" y2="490.8842" gradientTransform="matrix(-1.1875 -6.6636 -6.6636 1.1875 2222.5376 -6786.1987)">
						<stop  offset="0" style="stop-color:#DF5E9C"/>
						<stop  offset="1" style="stop-color:#A2094D"/>
					</linearGradient>
					<path id="path578" style="fill:url(#path578_00000113318429190061453730000012697226184295048620_);" d="M67.4,54.24
						l-0.34,0.35c0.07,0.07,0.08,0.17,0.07,0.29l0,0c-0.01,0.12-0.05,0.26-0.07,0.37l0,0c-0.03,0.12-0.12,0.5-0.25,0.95l0,0
						c-0.24,0.83-0.58,1.96-0.58,3.28l0,0h0.96c0-1.18,0.3-2.19,0.54-3l0,0c0.16-0.54,0.24-0.86,0.3-1.25l0,0l0.02-0.26
						c0.01-0.38-0.02-0.76-0.32-1.05l0,0L67.4,54.24L67.4,54.24z"/>
				</g>
			</g>
		</g>
	</g>
	<g id="g580">
		<g id="g582">
			<g id="g588">
				<g id="g590">
					
						<linearGradient id="path598_00000065061901592802672480000006272222965936933292_" gradientUnits="userSpaceOnUse" x1="-851.6331" y1="571.6335" x2="-851.1057" y2="571.6335" gradientTransform="matrix(21.975 -27.2073 -27.2073 -21.975 34429.1953 -10529.001)">
						<stop  offset="0" style="stop-color:#DF5E9C"/>
						<stop  offset="1" style="stop-color:#A2094D"/>
					</linearGradient>
					<path id="path598" style="fill:url(#path598_00000065061901592802672480000006272222965936933292_);" d="M164.84,73.69
						c-3.5,4.25-6.46,7.74-9.07,10.82l0,0c-7.26,8.56-10.57,12.47-10.57,15.18l0,0c0,1.37,0.44,2.44,1.07,3.25l0,0l0.6-0.79
						c-0.42-0.62-0.71-1.42-0.71-2.46l0,0c0-2.35,3.46-6.43,10.34-14.55l0,0c2.61-3.08,5.57-6.57,9.07-10.83l0,0
						c4.69-5.69,7.87-9.93,10.02-13.05l0,0l-1-0.25C172.48,64.05,169.38,68.18,164.84,73.69"/>
				</g>
			</g>
		</g>
	</g>
	<g id="g600">
		<g id="g602">
			<g id="g608">
				<g id="g610">
					
						<linearGradient id="path618_00000098935879341739036730000012219915663854412426_" gradientUnits="userSpaceOnUse" x1="-701.4944" y1="562.6902" x2="-700.9669" y2="562.6902" gradientTransform="matrix(5.0124 1.7394 1.7394 -5.0124 2695.4932 4112.7568)">
						<stop  offset="0" style="stop-color:#DF5E9C"/>
						<stop  offset="1" style="stop-color:#A2094D"/>
					</linearGradient>
					<path id="path618" style="fill:url(#path618_00000098935879341739036730000012219915663854412426_);" d="M189.52,48.6
						c-2.44,3.78-3.95,6.7-6.92,11.97l0,0c-3.4,6.03-7.26,12.87-12.26,21l0,0c-11.95,19.43-17.89,22.33-20.37,22.33l0,0
						c-0.69,0-2.19-0.46-3.09-1.76l0,0l-0.6,0.79c1.05,1.34,2.66,1.93,3.69,1.93l0,0c4.69,0,12.02-7.88,21.19-22.78l0,0
						c5.01-8.15,8.87-14.99,12.28-21.03l0,0c3.3-5.85,5.02-9.16,7.7-13.14l0,0C190.6,48.14,190.07,48.37,189.52,48.6"/>
				</g>
			</g>
		</g>
	</g>
	<g id="g620">
		<g id="g622">
			<g id="g628">
				<g id="g630">
					
						<linearGradient id="path638_00000179626802606939366240000004666072288632058787_" gradientUnits="userSpaceOnUse" x1="-837.6274" y1="584.2455" x2="-837.0999" y2="584.2455" gradientTransform="matrix(41.0332 0 0 -41.0332 34529.0195 24031.8496)">
						<stop  offset="0" style="stop-color:#C01F6E"/>
						<stop  offset="1" style="stop-color:#A2094D"/>
					</linearGradient>
					<path id="path638" style="fill:url(#path638_00000179626802606939366240000004666072288632058787_);" d="M179.13,52.17
						c-0.2,0.06-0.38,0.16-1.5,1.13l0,0c-3.27,2.83-11.96,10.35-19.16,10.35l0,0v0.96c7.55,0,16.44-7.69,19.79-10.58l0,0
						c0.32-0.28,0.62-0.54,0.84-0.72l0,0c-0.2,0.62-1.05,2.74-4.5,7.7l0,0l1,0.25c4.44-6.44,4.52-8.13,4.52-8.15l0,0
						c0-0.19,0-0.55-0.27-0.78l0,0c-0.16-0.14-0.36-0.18-0.5-0.18l0,0C179.25,52.15,179.18,52.16,179.13,52.17"/>
				</g>
			</g>
		</g>
	</g>
	<g id="g640">
		<g id="g642">
			<g id="g648">
				<g id="g650">
					
						<linearGradient id="path658_00000166656019424702320800000004234939706421137554_" gradientUnits="userSpaceOnUse" x1="-610.8601" y1="622.2173" x2="-610.3326" y2="622.2173" gradientTransform="matrix(2.772 2.178 2.178 -2.772 470.7183 3096.8706)">
						<stop  offset="0" style="stop-color:#5FB233"/>
						<stop  offset="1" style="stop-color:#90C643"/>
					</linearGradient>
					<path id="path658" style="fill:url(#path658_00000166656019424702320800000004234939706421137554_);" d="M128.91,35.66
						c0,2.1-1.07,5.92-2.98,10.07l0,0c0.37-0.05,0.75-0.11,1.12-0.17l0,0c1.81-4.04,2.82-7.76,2.82-9.9l0,0
						c0-0.41,0.11-0.52,0.5-0.52l0,0c0.7,0,2.54,0.19,3.65,0.3l0,0l0.48,0.05c0.8,0.08,2.15,0.72,2.15,2.63l0,0
						c0,1.29-0.92,3.55-2.29,6.18l0,0c0.4-0.08,0.8-0.16,1.19-0.24l0,0c1.24-2.48,2.06-4.61,2.06-5.93l0,0
						c0-2.26-1.56-3.44-3.01-3.58l0,0l-0.48-0.05c-1.19-0.12-3-0.31-3.74-0.31l0,0C129.45,34.17,128.91,34.73,128.91,35.66"/>
				</g>
			</g>
		</g>
	</g>
	<g id="g660">
		<g id="g662">
			<g id="g668">
				<g id="g670">
					
						<linearGradient id="path678_00000116933462037254455150000002046642241848589704_" gradientUnits="userSpaceOnUse" x1="-760.3085" y1="471.16" x2="-759.7811" y2="471.16" gradientTransform="matrix(5.3455 -1.9798 -1.9798 -5.3455 5112.5146 1034.6039)">
						<stop  offset="0" style="stop-color:#5FB233"/>
						<stop  offset="1" style="stop-color:#90C643"/>
					</linearGradient>
					<path id="path678" style="fill:url(#path678_00000116933462037254455150000002046642241848589704_);" d="M103.8,17.09
						c0,7.45,14.43,12.96,18.24,12.96l0,0c1.28,0,1.48-0.75,1.48-1.19l0,0c0-0.95-5.01-15.74-15.6-15.74l0,0
						C105.42,13.11,103.8,14.67,103.8,17.09 M104.76,17.09c0-1.86,1.21-3.02,3.15-3.02l0,0c9.58,0,14.57,13.82,14.64,14.79l0,0
						c0,0.1,0,0.22-0.52,0.22l0,0C118.66,29.09,104.76,23.7,104.76,17.09"/>
				</g>
			</g>
		</g>
	</g>
	<g id="g680">
		<g id="g682">
			<g id="g688">
				<g id="g690">
					
						<linearGradient id="path698_00000171685322330320711040000008790878674394980252_" gradientUnits="userSpaceOnUse" x1="-537.0288" y1="582.3522" x2="-536.5013" y2="582.3522" gradientTransform="matrix(2.465 1.3228 1.3228 -2.465 651.4113 2192.5044)">
						<stop  offset="0" style="stop-color:#5FB233"/>
						<stop  offset="1" style="stop-color:#90C643"/>
					</linearGradient>
					<path id="path698" style="fill:url(#path698_00000171685322330320711040000008790878674394980252_);" d="M95.48,47.14
						c0.56,0.03,1.13,0.05,1.69,0.07l0,0c0.64-0.32,1.26-0.5,1.86-0.5l0,0c0.58,0,0.58,0.2,0.58,0.34l0,0
						c0,0.04-0.02,0.12-0.04,0.23l0,0c0.33,0.01,0.65,0.01,0.97,0.02l0,0c0.02-0.11,0.03-0.19,0.03-0.25l0,0
						c0-0.31-0.11-1.31-1.54-1.31l0,0C97.86,45.75,96.69,46.28,95.48,47.14"/>
				</g>
			</g>
		</g>
	</g>
	<g id="g700">
		<g id="g702">
			<g id="g708">
				<g id="g710">
					
						<linearGradient id="path718_00000103243389320815690330000015863967085644247716_" gradientUnits="userSpaceOnUse" x1="-608.6403" y1="574.2215" x2="-608.1127" y2="574.2215" gradientTransform="matrix(3.1682 1.5841 1.5841 -3.1682 1138.3566 2825.2725)">
						<stop  offset="0" style="stop-color:#5FB233"/>
						<stop  offset="1" style="stop-color:#90C643"/>
					</linearGradient>
					<path id="path718" style="fill:url(#path718_00000103243389320815690330000015863967085644247716_);" d="M118.55,33.47
						c-0.31,0.3-0.42,0.73-0.31,1.23l0,0c0.1,0.47,0.51,0.91,0.95,1.37l0,0c0.28,0.29,0.74,0.78,0.75,0.99l0,0
						c0.01,0.39-0.81,1.52-3.08,2.89l0,0c-1.4,0.84-4.27,4.01-6.26,7.22l0,0c0.39-0.02,0.79-0.04,1.18-0.06l0,0
						c1.88-2.86,4.39-5.62,5.58-6.34l0,0c2.25-1.36,3.58-2.76,3.55-3.75l0,0c-0.02-0.57-0.5-1.08-1.02-1.62l0,0
						c-0.28-0.3-0.67-0.7-0.71-0.91l0,0c-0.03-0.16-0.02-0.27,0.04-0.33l0,0c0.13-0.13,0.57-0.21,1.36-0.01l0,0l0.96,0.23
						c1.81,0.41,2.4,0.62,2.43,1.51l0,0c0.04,1.12-1.32,6.06-3.84,10.55l0,0c0.39-0.04,0.78-0.08,1.16-0.13l0,0
						c2.35-4.38,3.68-9.06,3.64-10.45l0,0c-0.06-1.7-1.5-2.03-3.18-2.42l0,0l-0.94-0.22c-0.42-0.11-0.77-0.15-1.07-0.15l0,0
						C119.12,33.07,118.76,33.27,118.55,33.47"/>
				</g>
			</g>
		</g>
	</g>
	<g id="g720">
		<g id="g722">
			<g id="g728">
				<g id="g730">
					
						<linearGradient id="path738_00000063632311721944446540000009165461943113635243_" gradientUnits="userSpaceOnUse" x1="-983.3149" y1="632.3965" x2="-982.7875" y2="632.3965" gradientTransform="matrix(-6.6313 -1.6578 -1.6578 6.6313 -5398.6631 -5786.9854)">
						<stop  offset="0" style="stop-color:#5FB233"/>
						<stop  offset="1" style="stop-color:#90C643"/>
					</linearGradient>
					<path id="path738" style="fill:url(#path738_00000063632311721944446540000009165461943113635243_);" d="M66.1,32.77
						l-1.76,1.76c-1.56,1.58-3.84,3.89-6.46,6.39l0,0c0.36,0.1,0.71,0.19,1.07,0.29l0,0c2.07-1.99,4.11-4.03,6.07-6l0,0l1.75-1.75
						c3.04-2.94,7.04-3.57,7.86-3.57l0,0c0.94,0,1.61,0.41,1.61,0.72l0,0l0.96,0c0-1.05-1.29-1.68-2.57-1.68l0,0
						C73.67,28.93,69.4,29.58,66.1,32.77"/>
				</g>
			</g>
		</g>
	</g>
	<g id="g740">
		<g id="g742">
			<g id="g748">
				<g id="g750">
					
						<linearGradient id="path762_00000090285951662397213170000013179517803201022849_" gradientUnits="userSpaceOnUse" x1="-814.7309" y1="571.6765" x2="-814.2035" y2="571.6765" gradientTransform="matrix(19.742 0 0 -19.742 16151.2314 11323.0449)">
						<stop  offset="0" style="stop-color:#529B2B"/>
						<stop  offset="0.8297" style="stop-color:#5FB233"/>
						<stop  offset="0.8297" style="stop-color:#5FB233"/>
						<stop  offset="1" style="stop-color:#5FB233"/>
					</linearGradient>
					<path id="path762" style="fill:url(#path762_00000090285951662397213170000013179517803201022849_);" d="M76.24,30.61
						c0,0.34-0.76,1.2-1.81,2.39l0,0l-0.37,0.42c-0.96,1.1-4.56,5.98-7.27,9.71l0,0c0.34,0.08,0.68,0.15,1.02,0.23l0,0
						c2.68-3.67,6.07-8.28,6.97-9.31l0,0l0.37-0.42c1.4-1.6,2.05-2.32,2.05-3.03l0,0L76.24,30.61L76.24,30.61z"/>
				</g>
			</g>
		</g>
	</g>
	<g id="g764">
		<g id="g766">
			<g id="g772">
				<g id="g774">
					
						<linearGradient id="path788_00000148634510917919980180000012027227788694353817_" gradientUnits="userSpaceOnUse" x1="-831.9334" y1="581.7802" x2="-831.4059" y2="581.7802" gradientTransform="matrix(35.3992 0 0 -35.3992 29492.5391 20623.1719)">
						<stop  offset="0" style="stop-color:#529B2B"/>
						<stop  offset="0.0396" style="stop-color:#529B2B"/>
						<stop  offset="0.8309" style="stop-color:#5AAB30"/>
						<stop  offset="0.8309" style="stop-color:#5AAB30"/>
						<stop  offset="1" style="stop-color:#5AAB30"/>
					</linearGradient>
					<path id="path788" style="fill:url(#path788_00000148634510917919980180000012027227788694353817_);" d="M49.5,28.9
						c-2.59,2.38-4.84,4.9-6.77,7.37l0,0c0.32,0.11,0.65,0.22,0.97,0.33l0,0c1.86-2.35,4.01-4.74,6.45-6.99l0,0
						c3.68-3.39,7.52-6.09,11.25-8.15l0,0l-0.43-0.85C57.17,22.7,53.25,25.45,49.5,28.9"/>
				</g>
			</g>
		</g>
	</g>
	<g id="g790">
		<g id="g792">
			<g id="g798">
				<g id="g800">
					
						<linearGradient id="path808_00000026127300576599156610000008515150549094445716_" gradientUnits="userSpaceOnUse" x1="-841.236" y1="586.9807" x2="-840.7086" y2="586.9807" gradientTransform="matrix(57.499 0 0 -57.499 48440.9766 33787.0391)">
						<stop  offset="0" style="stop-color:#90C643"/>
						<stop  offset="1" style="stop-color:#56A32E"/>
					</linearGradient>
					<path id="path808" style="fill:url(#path808_00000026127300576599156610000008515150549094445716_);" d="M70.78,43.99
						c0.38,0.08,0.76,0.15,1.15,0.23l0,0c12.95-12.45,18.33-14.96,23.06-14.96l0,0c2.06,0,3.51,0.69,4.34,2.07l0,0
						c0.55,0.91,0.82,2.11,0.82,3.61l0,0c0,1.67-0.37,2.94-0.61,3.78l0,0c-0.13,0.46-0.22,0.77-0.22,1.02l0,0
						c0,0.46,0.2,0.9,0.53,1.18l0,0l0.62-0.73c-0.11-0.1-0.19-0.27-0.19-0.45l0,0c0-0.12,0.09-0.44,0.18-0.75l0,0
						c0.26-0.89,0.65-2.25,0.65-4.05l0,0c0-1.41-0.24-2.62-0.7-3.6l0,0c-0.93-1.99-2.78-3.05-5.42-3.05l0,0
						C89.96,28.3,84.32,30.91,70.78,43.99"/>
				</g>
			</g>
		</g>
	</g>
	<g id="g810">
		<g id="g812">
			<g id="g818">
				<g id="g820">
					
						<linearGradient id="path832_00000119816863675976990440000017446075042603085708_" gradientUnits="userSpaceOnUse" x1="-840.0087" y1="547.6484" x2="-839.4812" y2="547.6484" gradientTransform="matrix(13.4247 -11.8553 -11.8553 -13.4247 17872.332 -2566.7354)">
						<stop  offset="0" style="stop-color:#56A32E"/>
						<stop  offset="0.5" style="stop-color:#83B43C"/>
						<stop  offset="0.5" style="stop-color:#83B43C"/>
						<stop  offset="1" style="stop-color:#5AAB30"/>
					</linearGradient>
					<path id="path832" style="fill:url(#path832_00000119816863675976990440000017446075042603085708_);" d="M111.59,31.34
						c-0.84,1.4-6.06,8.09-10.84,8.93l0,0c-0.12,0.02-0.21,0-0.3-0.07l0,0l-0.62,0.74c0.3,0.25,0.68,0.35,1.08,0.28l0,0
						c5.59-0.98,11.73-9.12,11.73-9.99l0,0L111.59,31.34L111.59,31.34z"/>
				</g>
			</g>
		</g>
	</g>
	<g id="g834">
		<g id="g836">
			<g id="g842">
				<g id="g844">
					
						<linearGradient id="path856_00000109718004164657525140000017638915195736563887_" gradientUnits="userSpaceOnUse" x1="-881.1467" y1="602.5081" x2="-880.6193" y2="602.5081" gradientTransform="matrix(-29.9308 -9.1232 -9.1232 29.9308 -20719.5059 -26038.5898)">
						<stop  offset="0" style="stop-color:#56A32E"/>
						<stop  offset="0.2986" style="stop-color:#90C643"/>
						<stop  offset="0.6648" style="stop-color:#59A72F"/>
						<stop  offset="1" style="stop-color:#90C643"/>
					</linearGradient>
					<path id="path856" style="fill:url(#path856_00000109718004164657525140000017638915195736563887_);" d="M150.13,33.28
						c-0.8,0.75-1.78,1.66-2.13,1.84l0,0c-0.27-0.19-0.77-1.23-1.07-1.87l0,0c-0.34-0.73-0.7-1.49-1.07-1.98l0,0
						c-1.34-1.79-3.12-2.28-8.27-2.28l0,0c-1.27,0-2.27,0.06-3.23,0.11l0,0l0.05,0.96c0.95-0.05,1.93-0.11,3.18-0.11l0,0
						c4.83,0,6.37,0.39,7.5,1.9l0,0c0.31,0.42,0.65,1.13,0.97,1.82l0,0c0.64,1.37,1.15,2.45,1.92,2.45l0,0
						c0.5,0,1.09-0.52,2.81-2.12l0,0c1.8-1.69,4.53-4.25,6.01-4.25l0,0c1,0,1.1,0.26,1.1,0.91l0,0c0,0.44-0.3,1-0.67,1.71l0,0
						c-0.67,1.29-1.65,3.17-1.81,6.14l0,0c0.33-0.12,0.66-0.24,0.99-0.36l0,0c0.21-2.51,1.05-4.12,1.68-5.33l0,0
						c0.43-0.83,0.78-1.49,0.78-2.16l0,0c0-0.53-0.12-0.94-0.35-1.25l0,0c-0.33-0.42-0.89-0.62-1.71-0.62l0,0
						C154.93,28.77,152.27,31.27,150.13,33.28"/>
				</g>
			</g>
		</g>
	</g>
	<g id="g858">
		<g id="g860">
			<g id="g866">
				<g id="g868">
					
						<linearGradient id="path876_00000014607779629814488860000015542241043197975719_" gradientUnits="userSpaceOnUse" x1="-798.1432" y1="559.1139" x2="-797.6158" y2="559.1139" gradientTransform="matrix(13.025 0 0 -13.025 10523.374 7311.6816)">
						<stop  offset="0" style="stop-color:#5FB233"/>
						<stop  offset="1" style="stop-color:#90C643"/>
					</linearGradient>
					<path id="path876" style="fill:url(#path876_00000014607779629814488860000015542241043197975719_);" d="M127.55,28.66
						c0.62,1.43,1.61,1.49,3.99,1.49l0,0l2.88-0.1l-0.05-0.96l-2.83,0.1c-2.53,0-2.77-0.13-3.11-0.91l0,0L127.55,28.66z"/>
				</g>
			</g>
		</g>
	</g>
	<g id="g878">
		<g id="g880">
			<g id="g886">
				<g id="g888">
					
						<linearGradient id="path898_00000093141575210980975810000011964642232137866909_" gradientUnits="userSpaceOnUse" x1="-771.8602" y1="629.2851" x2="-771.3328" y2="629.2851" gradientTransform="matrix(6.0396 7.9945 7.9945 -6.0396 -281.3422 10011.4219)">
						<stop  offset="0" style="stop-color:#56A32E"/>
						<stop  offset="0.4945" style="stop-color:#90C643"/>
						<stop  offset="1" style="stop-color:#90C643"/>
					</linearGradient>
					<path id="path898" style="fill:url(#path898_00000093141575210980975810000011964642232137866909_);" d="M93.76,35.13
						c-1.69,0.04-7.02,4.17-11.05,8.51l0,0c-0.18,0.19-0.35,0.38-0.52,0.57l0,0c-0.43,0.48-0.87,1-1.31,1.54l0,0
						c0.37,0.05,0.75,0.1,1.12,0.15l0,0c0.29-0.34,0.59-0.69,0.91-1.05l0,0c0.33-0.37,0.67-0.74,1.02-1.1l0,0
						c4.09-4.28,8.73-7.63,9.85-7.66l0,0c0.57-0.01,0.95,0.14,0.97,0.4l0,0c0,0.04,0.01,0.07,0.01,0.11l0,0
						c0,1.14-1.51,2.13-2.85,3.01l0,0L90.9,40.3l-0.05,0.04c-1.68,1.21-2.48,1.79-2.48,2.89l0,0c0,0.14,0.01,0.3,0.04,0.46l0,0
						c0.07,0.42,0.34,0.68,0.58,0.91l0,0c0.22,0.22,0.41,0.41,0.5,0.73l0,0h0.98c-0.11-0.73-0.51-1.12-0.81-1.42l0,0
						c-0.18-0.17-0.28-0.28-0.3-0.39l0,0c-0.13-0.78,0.14-1.03,2.06-2.42l0,0l0.05-0.04l0.98-0.66c1.6-1.06,3.42-2.25,3.28-4l0,0
						c-0.05-0.6-0.57-1.28-1.86-1.28l0,0C93.82,35.13,93.79,35.13,93.76,35.13"/>
				</g>
			</g>
		</g>
	</g>
	<g id="g900">
		<g id="g902">
			<g id="g908">
				<g id="g910">
					
						<linearGradient id="path918_00000151513708893853791930000011317499149962543272_" gradientUnits="userSpaceOnUse" x1="-771.8442" y1="629.4593" x2="-771.3167" y2="629.4593" gradientTransform="matrix(6.0384 7.9929 7.9929 -6.0384 -284.2517 10011.5439)">
						<stop  offset="0" style="stop-color:#5FB233"/>
						<stop  offset="1" style="stop-color:#90C643"/>
					</linearGradient>
					<path id="path918" style="fill:url(#path918_00000151513708893853791930000011317499149962543272_);" d="M89.48,45.33
						c0.02,0.07,0.04,0.14,0.04,0.23l0,0c0,0.02,0,0.04,0,0.06l0,0c0,0.23-0.12,0.59-0.4,1.09l0,0c0.34,0.03,0.69,0.06,1.03,0.09
						l0,0c0.25-0.52,0.36-0.97,0.32-1.33l0,0c0-0.05-0.01-0.09-0.02-0.13l0,0L89.48,45.33L89.48,45.33z"/>
				</g>
			</g>
		</g>
	</g>
	<g id="g920">
		<g id="g922">
			<g id="g928">
				<g id="g930">
					
						<linearGradient id="path940_00000029021724376355716400000004664257314223467664_" gradientUnits="userSpaceOnUse" x1="-991.5218" y1="551.6302" x2="-990.9943" y2="551.6302" gradientTransform="matrix(-4.0546 -4.8321 -4.8321 4.0546 -1252.33 -7016.875)">
						<stop  offset="0" style="stop-color:#5FB233"/>
						<stop  offset="0.8132" style="stop-color:#9BCB52"/>
						<stop  offset="1" style="stop-color:#9BCB52"/>
					</linearGradient>
					<path id="path940" style="fill:url(#path940_00000029021724376355716400000004664257314223467664_);" d="M96,11.75
						c-0.36,0.87-0.55,1.88-0.55,2.99l0,0c0,4.19,2.07,11.91,15.94,16.54l0,0l0.17,0.05c0,0,0.02,0.01,0.03,0.01l0,0l1.06-0.11
						c0-0.57-0.53-0.73-0.81-0.82l0,0l-0.14-0.04c-13.3-4.43-15.28-11.69-15.28-15.63l0,0c0-1.07,0.19-1.96,0.5-2.69l0,0
						c1.32-3.07,4.91-3.46,6.64-3.46l0,0c14.63,0,22.01,15.23,23.92,19.89l0,0l0.07,0.18l0.88-0.38l-0.07-0.17
						c-1.97-4.81-9.58-20.49-24.81-20.49l0,0C99.75,7.63,97.09,9.12,96,11.75"/>
				</g>
			</g>
		</g>
	</g>
	<g id="g942">
		<g id="g944">
			<g id="g950">
				<g id="g952">
					
						<linearGradient id="path960_00000017485222840381284720000012038055230926055853_" gradientUnits="userSpaceOnUse" x1="-1091.7992" y1="427.5767" x2="-1091.2717" y2="427.5767" gradientTransform="matrix(-1.2556 -2.9186 -2.9186 1.2556 -46.0974 -3709.2812)">
						<stop  offset="0" style="stop-color:#5AAB30"/>
						<stop  offset="1" style="stop-color:#90C643"/>
					</linearGradient>
					<path id="path960" style="fill:url(#path960_00000017485222840381284720000012038055230926055853_);" d="M90.03,6.19
						c0.36,0.05,0.64,0.1,0.86,0.16l0,0c-1.89,3.35-5.2,9.24-5.37,9.51l0,0c0,0-0.02,0.03-0.04,0.06l0,0
						c-0.04,0-0.12-0.01-0.12-0.01l0,0l-0.22-0.03c-2.77-0.42-5.1-0.63-6.92-0.63l0,0c-4.39,0-10.65,1.7-17.26,5.35l0,0l0.43,0.85
						c6.46-3.58,12.56-5.24,16.83-5.24l0,0c1.77,0,4.05,0.21,6.77,0.62l0,0l0.22,0.03c0.26,0.04,0.47,0.02,0.64-0.05l0,0
						c0.19-0.08,0.34-0.23,0.48-0.46l0,0c0.22-0.36,5.33-9.45,5.55-9.83l0,0c0.11-0.18,0.14-0.4,0.06-0.59l0,0
						c-0.07-0.19-0.23-0.34-0.43-0.4l0,0c-0.42-0.14-0.93-0.24-1.5-0.31l0,0V6.19z"/>
				</g>
			</g>
		</g>
	</g>
	<g id="g82">
		<g id="g88" transform="translate(134.0352,153.9531)">
			<path id="path90" class="st42" d="M-64.49-108.76c-0.74,0.72-2.04,1.77-3.29,2.49c0.41,0.13,0.82,0.25,1.22,0.37
				c1.5-0.99,2.72-2.15,2.75-2.17c0.59-0.58,1.16-1.13,1.71-1.66c-0.38-0.07-0.77-0.15-1.15-0.23
				C-63.66-109.57-64.07-109.17-64.49-108.76"/>
		</g>
	</g>
	<g id="g134">
		<g id="g140" transform="translate(145.0889,146.1162)">
			<path id="path142" class="st43" d="M-67.43-95.17c0.31,0.08,0.62,0.16,0.93,0.24c0.58-1.49,1.74-3.29,3.41-5.29
				c-0.37-0.05-0.75-0.1-1.12-0.15C-65.53-98.74-66.78-96.9-67.43-95.17"/>
		</g>
		<g id="g144" transform="translate(113.8711,155.7705)">
			<path id="path146" class="st42" d="M-59.13-111.91c0.34,0.12,0.68,0.24,1.02,0.36c1.06-0.98,2.13-1.99,3.19-3.01
				c-0.36-0.1-0.72-0.19-1.07-0.29C-57-113.88-58.05-112.9-59.13-111.91"/>
		</g>
		<g id="g148" transform="translate(160.7227,151.9053)">
			<path id="path150" class="st42" d="M-71.59-105.2c-0.34,0.6-0.91,1.4-1.8,2.41c-1.07,1.22-2.33,2.41-3.51,3.39
				c0.4,0.09,0.79,0.18,1.17,0.27c1.15-1,2.25-2.1,3.07-3.02c1.03-1.17,1.73-2.15,2.11-2.95C-70.91-105.14-71.25-105.17-71.59-105.2
				"/>
		</g>
		<g id="g152" transform="translate(162.0771,144.2549)">
			<path id="path154" class="st44" d="M-71.95-91.94c-0.4,0.43-0.81,0.88-1.23,1.32c0.38,0.08,0.75,0.16,1.1,0.23
				c0.28-0.3,0.56-0.61,0.84-0.9c2.33-2.52,4.42-4.79,6.35-5.76c-0.57-0.02-1.13-0.05-1.69-0.07C-68.29-95.9-70.05-94-71.95-91.94"
				/>
		</g>
		<g id="g156" transform="translate(95.1494,162.9575)">
			<path id="path158" class="st45" d="M-54.15-124.37c0.31,0.13,0.61,0.25,0.92,0.38c0.56-0.78,1.15-1.58,1.78-2.37
				c-0.33-0.11-0.65-0.22-0.97-0.33C-53.03-125.91-53.61-125.13-54.15-124.37"/>
		</g>
	</g>
	<g id="g262">
		<g id="g268" transform="translate(210.5537,135.8428)">
			<path id="path270" class="st46" d="M-84.85-77.35c0.38,0.01,0.75,0.03,1.13,0.04c2.73-4.16,6.44-9.92,8.72-14.48
				c-0.4,0.08-0.8,0.16-1.19,0.24C-78.6-86.94-82.35-81.15-84.85-77.35"/>
		</g>
		<g id="g272" transform="translate(81.5967,168.8672)">
			<path id="path274" class="st42" d="M-50.54-134.62c0.3,0.14,0.61,0.28,0.91,0.42c0.53-0.56,1.09-1.13,1.67-1.7
				c-0.33-0.12-0.65-0.25-0.97-0.37C-49.49-135.72-50.03-135.16-50.54-134.62"/>
		</g>
		<g id="g276" transform="translate(130.2773,156.7607)">
			<path id="path278" class="st47" d="M-63.49-113.62c-1.2,1.65-2.22,3.07-2.78,3.84c0.32,0.1,0.65,0.21,0.96,0.31
				c0.63-0.87,1.66-2.3,2.84-3.92C-62.81-113.47-63.15-113.55-63.49-113.62"/>
		</g>
		<g id="g280" transform="translate(174.6455,149.7568)">
			<path id="path282" class="st42" d="M-75.3-101.48c-0.41,1.7-1.14,4.79-1.21,7.11c0.32,0.06,0.64,0.12,0.96,0.18
				c0.03-2.24,0.78-5.37,1.19-7.07c0.15-0.63,0.23-0.98,0.27-1.2c-0.33-0.01-0.65-0.01-0.97-0.02
				C-75.12-102.23-75.21-101.85-75.3-101.48"/>
		</g>
		<g id="g284" transform="translate(210.8574,153.2373)">
			<path id="path286" class="st44" d="M-84.93-107.51c-0.9,1.97-1.99,4-3.25,5.96c-1.18,1.84-2.91,4.23-5.09,6.34
				c0.41,0.03,0.82,0.07,1.23,0.1c3.48-3.57,6.31-8.26,8.23-12.57C-84.18-107.62-84.56-107.57-84.93-107.51"/>
		</g>
	</g>
	<g id="g450">
		<g id="g456" transform="translate(94.7227,127.1768)">
			<path id="path458" class="st48" d="M-54.04-62.33c2.13-1.34,4.69-4.56,4.3-5.89c-0.12-0.41-0.48-0.66-0.97-0.66
				c-0.64,0-1.41,0.4-2.47,0.95c-2.18,1.13-5.84,3.03-11.7,3.03v0.96c6.1,0,9.88-1.96,12.14-3.14c0.91-0.47,1.67-0.86,2.03-0.86
				c0.05,0,0.07,0.04,0.07,0.1c0,0.69-1.72,3.32-3.91,4.7"/>
		</g>
	</g>
	<g id="g964">
		<g id="g970" transform="translate(101.7783,184.6567)">
			<path id="path972" class="st49" d="M-55.91-161.99c17.99-13.08,35.19-16.56,42.53-16.56c0.67,0,1.19,0.02,1.65,0.1v-0.97
				c-0.53-0.08-1.07-0.09-1.65-0.09c-7.45,0-24.9,3.53-43.09,16.75c-5.06,3.68-9.23,7.27-12.64,10.71c0.32,0.12,0.65,0.25,0.97,0.37
				C-64.83-154.99-60.79-158.45-55.91-161.99"/>
		</g>
	</g>
</g>
</svg>
