<?xml version="1.0" encoding="utf-8"?>
<!-- Generator: Adobe Illustrator 26.2.1, SVG Export Plug-In . SVG Version: 6.00 Build 0)  -->
<svg version="1.1" id="Layer_1" xmlns="http://www.w3.org/2000/svg" xmlns:xlink="http://www.w3.org/1999/xlink" x="0px" y="0px"
	 viewBox="0 0 120 50" style="enable-background:new 0 0 120 50;" xml:space="preserve">
<style type="text/css">
	.st0{fill:#FFFFFF;}
</style>
<g>
	<path class="st0" d="M17.73,16.69c-0.04,1.2-0.04,2.41,0,3.61c0.02,0.53-0.15,0.66-0.66,0.66c-3.48-0.02-6.95-0.01-10.43-0.01
		c-1.27,0-1.66,0.39-1.67,1.65c0,3.56-0.01,7.13,0.01,10.69c0,0.53-0.14,0.67-0.66,0.65c-1.23-0.04-2.46-0.03-3.68,0
		C0.16,33.96-0.01,33.81,0,33.32c0.02-2.04,0.01-4.07,0.01-6.11c0-1.92,0-3.84,0-5.76c0.01-2.91,2.5-5.38,5.43-5.38
		c3.87,0,7.74,0.01,11.61-0.01C17.55,16.05,17.75,16.14,17.73,16.69z"/>
	<path class="st0" d="M17.9,29.01c-0.05,2.77-2.3,4.92-5.07,4.92c-1.9,0-3.8-0.03-5.7,0.02c-0.63,0.01-0.78-0.19-0.76-0.79
		c0.05-1.18,0.04-2.36,0-3.54c-0.02-0.61,0.11-0.84,0.78-0.82c1.6,0.05,3.2,0.02,4.8,0.02c0.35,0,0.75,0.05,0.9-0.35
		c0.16-0.41,0.12-0.88,0.03-1.3c-0.05-0.24-0.36-0.13-0.55-0.13c-1.76-0.01-3.52-0.02-5.28,0.01c-0.5,0.01-0.7-0.09-0.67-0.64
		c0.05-1.02,0.01-2.04,0.02-3.05c0.01-0.79,0.24-1.04,1.04-1.04c1.67-0.01,3.34,0,5,0c1.65,0,3.29,0.01,4.93-0.01
		c0.41,0,0.56,0.08,0.56,0.53C17.89,24.89,17.93,26.95,17.9,29.01z"/>
	<path class="st0" d="M34.76,29.72c0,0.26,0,0.49-0.25,0.67c-3.46,2.55-7.32,2.31-10.25-0.46c-2.81-2.65-2.73-7.36-0.07-10.28
		c2.97-3.26,7.43-2.42,9.88-0.52c0.36,0.28,0.36,0.47,0.04,0.73c-0.02,0.02-0.03,0.03-0.05,0.05c-0.76,0.9-0.75,0.89-1.74,0.34
		c-1.82-1.03-4.81-1.28-6.54,0.64c-1.43,1.59-1.94,4.32-1.06,6.23c0.91,1.98,3.01,3.15,5.35,2.99c0.94-0.06,1.71-0.51,2.43-1.08
		c0.19-0.15,0.19-0.35,0.19-0.56c0-0.72-0.03-1.44,0.01-2.15c0.03-0.49-0.19-0.57-0.61-0.57c-1.04,0.02-2.09-0.01-3.13,0.01
		c-0.44,0.01-0.56-0.08-0.42-0.55c0.42-1.37,0.39-1.38,1.83-1.38c1.27,0,2.55,0.02,3.82-0.01c0.42-0.01,0.57,0.1,0.56,0.54
		c-0.03,0.9-0.01,1.81-0.01,2.71C34.76,27.96,34.76,28.84,34.76,29.72z"/>
	<path class="st0" d="M110.09,31.81c-1.14,0.08-1.14,0.14-1.14-1.01c0-2.04,0.02-4.07-0.02-6.11c-0.03-1.34-0.55-1.87-1.7-1.87
		c-1.12,0-1.93,0.79-1.96,1.99c-0.03,1.23-0.01,2.45-0.01,3.68c0,0.86-0.03,1.71,0.01,2.57c0.03,0.49-0.19,0.63-0.62,0.7
		c-1.41,0.22-1.4,0.23-1.4-1.2c-0.01-2.01,0-4.03-0.03-6.04c-0.02-1.02-0.5-1.6-1.29-1.69c-1.15-0.14-1.83,0.25-2.18,1.25
		c-0.19,0.53-0.18,1.09-0.19,1.65c0,1.78-0.02,3.56,0.01,5.35c0.01,0.41-0.12,0.56-0.51,0.64c-1.57,0.35-1.57,0.36-1.57-1.22
		c0-2.82,0.02-5.65-0.01-8.47c-0.01-0.53,0.16-0.76,0.67-0.77c0.05,0,0.09-0.02,0.14-0.03c1.05-0.18,1.05-0.18,1.16,0.9
		c1.91-1.77,3.51-1.68,5.16,0.31c0.78-1.07,1.82-1.58,3.15-1.52c1.74,0.07,2.9,1.1,3.1,2.85c0.19,1.73,0.05,3.47,0.09,5.2
		c0.01,0.62-0.04,1.25,0.02,1.87C111.01,31.52,110.79,31.76,110.09,31.81z"/>
	<path class="st0" d="M72.7,18.01c0-0.39-0.02-0.59-0.53-0.49c-1.48,0.27-1.49,0.25-1.49,1.78c0,0.19,0.01,0.37,0,0.56
		c-0.03,0.79,0.07,1.58-0.06,2.42c-1.88-1.88-4.94-1.88-6.89-0.06c-2.17,2.03-2.35,5.65-0.45,7.86c1.58,1.83,4.82,2.8,7.46,0.22
		c0.01,0.15,0.02,0.22,0.02,0.29c0.02,1.34,0.02,1.32,1.32,1.18c0.44-0.05,0.59-0.2,0.58-0.65c-0.02-1.85-0.01-3.7-0.01-5.55
		C72.68,23.05,72.68,20.53,72.7,18.01z M67.15,29.96c-1.87-0.02-3.21-1.58-3.2-3.71c0.01-2.04,1.39-3.45,3.37-3.44
		c1.98,0.01,3.6,1.7,3.58,3.75C70.88,28.46,69.21,29.98,67.15,29.96z"/>
	<path class="st0" d="M42.21,20.84c-2.95-0.02-5.38,2.48-5.38,5.55c-0.01,3.09,2.48,5.63,5.5,5.6c3.03-0.03,5.49-2.51,5.5-5.55
		C47.82,23.23,45.44,20.86,42.21,20.84z M42.33,29.98c-2.02,0-3.48-1.51-3.47-3.61c0.01-1.97,1.53-3.53,3.43-3.53
		c2.01,0,3.49,1.53,3.49,3.61C45.79,28.39,44.23,29.98,42.33,29.98z"/>
	<path class="st0" d="M55.07,20.84c-2.94,0.01-5.32,2.48-5.37,5.59c-0.05,2.97,2.5,5.55,5.49,5.57c3.02,0.01,5.55-2.53,5.55-5.58
		C60.74,23.24,58.29,20.83,55.07,20.84z M55.12,29.98c-1.98-0.04-3.44-1.61-3.41-3.68c0.03-1.92,1.62-3.48,3.51-3.45
		c2.02,0.03,3.47,1.6,3.44,3.72C58.64,28.45,57.02,30.02,55.12,29.98z"/>
	<path class="st0" d="M77.56,20.22c0.03,0.9,0.03,1.81,0,2.71c-0.02,0.46,0.18,0.53,0.57,0.53c1.07-0.02,2.13,0.01,3.2-0.01
		c0.41-0.01,0.56,0.1,0.56,0.54c0.02,1.41,0.04,1.41-1.35,1.41c-0.81,0-1.62,0.02-2.43-0.01c-0.44-0.02-0.55,0.15-0.54,0.56
		c0.02,1.67-0.02,3.33,0.02,5c0.02,0.62-0.21,0.78-0.77,0.84c-1.42,0.14-1.42,0.16-1.42-1.31v-5.62c0-2.13,0.02-4.26-0.01-6.39
		c-0.01-0.55,0.1-0.76,0.71-0.75c1.99,0.04,3.98,0.03,5.98,0c0.49-0.01,0.68,0.14,0.78,0.61c0.3,1.37,0.32,1.37-1.1,1.37
		c-1.21,0-2.41,0.02-3.62-0.01C77.72,19.68,77.54,19.78,77.56,20.22z"/>
	<path class="st0" d="M119.96,28.88c-0.26,1.81-1.6,2.9-3.33,2.9c-1.47,0.04-2.51-0.43-3.4-1.3c-0.3-0.3-0.43-0.54,0.01-0.81
		c0.04-0.02,0.07-0.06,0.11-0.09c0.26-0.23,0.48-0.57,0.79-0.66c0.36-0.11,0.49,0.39,0.78,0.55c0.69,0.4,1.4,0.61,2.18,0.33
		c0.59-0.21,0.87-0.65,0.9-1.27c0.03-0.61-0.28-0.95-0.82-1.13c-0.61-0.2-1.23-0.38-1.85-0.58c-1.83-0.6-2.61-1.87-2.25-3.65
		c0.31-1.51,1.88-2.62,3.54-2.49c0.95,0.07,1.79,0.43,2.53,1.03c0.37,0.3,0.5,0.58,0.06,0.93c-0.11,0.08-0.21,0.19-0.29,0.3
		c-0.3,0.43-0.58,0.55-1.03,0.12c-0.45-0.43-1.04-0.59-1.67-0.52c-0.69,0.08-1.14,0.45-1.2,1.03c-0.08,0.73,0.14,1.1,0.9,1.35
		c0.48,0.16,0.98,0.27,1.47,0.42C119.27,25.91,120.21,27.19,119.96,28.88z"/>
	<path class="st0" d="M95.92,21.5c-0.08,0.14-0.14,0.29-0.2,0.44c-0.27,0.72-0.53,1.25-1.54,1.29c-1.18,0.05-1.65,1.13-1.98,2.16
		c-0.21,0.68-0.17,1.37-0.17,2.07c0,1.21-0.02,2.41,0.01,3.61c0.01,0.43-0.12,0.61-0.55,0.68c-1.47,0.24-1.47,0.25-1.47-1.24
		c0-2.78,0.02-5.56-0.02-8.33c-0.01-0.61,0.17-0.84,0.77-0.94c1.12-0.19,1.12-0.22,1.12,0.89v0.81c0.06,0.03,0.11,0.06,0.17,0.1
		c0.64-1.62,1.96-2.01,3.49-2.06C96.04,20.96,96.15,21.08,95.92,21.5z"/>
	<path class="st0" d="M87.2,31.05c0,0.5-0.14,0.68-0.64,0.73c-1.34,0.12-1.33,0.14-1.33-1.18c0-2.82,0.01-5.65-0.01-8.47
		c0-0.52,0.06-0.82,0.68-0.82c0.41,0,0.82-0.12,1.26-0.19c0.01,0.2,0.03,0.39,0.03,0.57C87.19,24.8,87.18,27.93,87.2,31.05z"/>
	<path class="st0" d="M87.57,18.59c-0.24,0.31-0.46,0.59-0.69,0.87c-0.64,0.81-0.64,0.81-1.26-0.01c-0.64-0.84-0.64-0.84,0.01-1.71
		c0.64-0.84,0.64-0.83,1.27-0.01C87.12,18.02,87.33,18.29,87.57,18.59z"/>
</g>
</svg>
