<?xml version="1.0" encoding="UTF-8"?>
<svg id="Layer_1" data-name="Layer 1" xmlns="http://www.w3.org/2000/svg" viewBox="0 0 118 38.8">
  <defs>
    <style>
      .cls-1 {
        fill: #ea4535;
      }

      .cls-2 {
        fill: #36a852;
      }

      .cls-3 {
        fill: #f9bc15;
      }

      .cls-4 {
        fill: #557ebf;
      }
    </style>
  </defs>
  <path class="cls-1" d="m50.58,20.42c0,5.58-4.37,9.69-9.73,9.69s-9.73-4.11-9.73-9.69,4.37-9.69,9.73-9.69,9.73,4.07,9.73,9.69Zm-4.26,0c0-3.49-2.53-5.87-5.47-5.87s-5.47,2.39-5.47,5.87,2.53,5.87,5.47,5.87,5.47-2.43,5.47-5.87Z"/>
  <path class="cls-3" d="m71.56,20.42c0,5.58-4.37,9.69-9.73,9.69s-9.73-4.11-9.73-9.69,4.37-9.69,9.73-9.69,9.73,4.07,9.73,9.69Zm-4.26,0c0-3.49-2.53-5.87-5.47-5.87s-5.47,2.39-5.47,5.87,2.53,5.87,5.47,5.87,5.47-2.43,5.47-5.87Z"/>
  <path class="cls-4" d="m91.67,11.31v17.4c0,7.16-4.22,10.08-9.21,10.08-4.7,0-7.53-3.14-8.59-5.71l3.71-1.54c.66,1.58,2.28,3.44,4.88,3.44,3.2,0,5.18-1.97,5.18-5.68v-1.39h-.15c-.95,1.18-2.79,2.2-5.11,2.2-4.85,0-9.29-4.22-9.29-9.66s4.44-9.73,9.29-9.73c2.31,0,4.15,1.03,5.11,2.17h.15v-1.58h4.04Zm-3.74,9.14c0-3.41-2.28-5.91-5.18-5.91s-5.4,2.5-5.4,5.91,2.46,5.84,5.4,5.84,5.18-2.46,5.18-5.84Z"/>
  <path class="cls-2" d="m98.33,1.11v28.41h-4.15V1.11h4.15Z"/>
  <path class="cls-1" d="m114.51,23.61l3.3,2.2c-1.07,1.58-3.64,4.3-8.08,4.3-5.51,0-9.62-4.26-9.62-9.69,0-5.77,4.15-9.69,9.14-9.69s7.49,4,8.3,6.17l.44,1.1-12.96,5.37c.99,1.95,2.54,2.94,4.7,2.94s3.67-1.07,4.77-2.68h0Zm-10.17-3.49l8.66-3.6c-.48-1.21-1.91-2.05-3.6-2.05-2.16,0-5.18,1.91-5.07,5.65Z"/>
  <path class="cls-4" d="m15.41,17.89v-4.11h13.86c.14.72.21,1.56.21,2.48,0,3.09-.84,6.9-3.56,9.62-2.64,2.75-6.02,4.22-10.5,4.22-8.3,0-15.27-6.76-15.27-15.05S7.12,0,15.42,0c4.59,0,7.86,1.8,10.32,4.15l-2.9,2.9c-1.76-1.65-4.15-2.94-7.42-2.94-6.06,0-10.8,4.88-10.8,10.94s4.74,10.94,10.8,10.94c3.93,0,6.17-1.58,7.6-3.01,1.16-1.16,1.93-2.82,2.23-5.09h-9.83Z"/>
</svg>