<?xml version="1.0" encoding="utf-8"?>
<!-- Generator: Adobe Illustrator 26.2.1, SVG Export Plug-In . SVG Version: 6.00 Build 0)  -->
<svg version="1.1" id="report" xmlns="http://www.w3.org/2000/svg" xmlns:xlink="http://www.w3.org/1999/xlink" x="0px" y="0px"
	 viewBox="0 0 640.62 640.62" style="enable-background:new 0 0 640.62 640.62;" xml:space="preserve">
<style type="text/css">
	.st0{fill:#360061;}
	.st1{fill:url(#SVGID_1_);}
	.st2{fill:#5800B2;}
	.st3{fill:url(#SVGID_00000155869239448860862040000006262449088608594598_);}
	.st4{fill:url(#SVGID_00000069368418024776687000000002714939947375556799_);}
	.st5{fill:url(#SVGID_00000157277935542637434910000002719955835242091424_);}
	.st6{fill:url(#SVGID_00000080199202876383061380000007932749532563319741_);}
	.st7{fill:url(#SVGID_00000074438005225273839170000015238534007492704441_);}
	.st8{fill:url(#SVGID_00000012434703521206561010000004271601881213994170_);}
	.st9{fill:url(#SVGID_00000147934962518227734090000004996703108794135183_);}
	.st10{fill:url(#SVGID_00000052818841956301468720000004151294454031909802_);}
</style>
<g>
	<path class="st0" d="M322.18,310.32c0-6.87,0.04-12.82-0.01-18.76c-0.08-8.26-4.17-13.16-10.8-13.03
		c-6.41,0.12-10.32,4.86-10.41,12.74c-0.07,6.36-0.01,12.72-0.01,19.26c-2.03,0.47-3.5,0.82-4.97,1.15
		c-23.53,5.25-39.49,27.02-37.33,50.89c2.17,23.99,22.32,42.69,46.64,43.26c3.54,0.08,7.08-0.01,10.61,0.04
		c15.71,0.2,27.39,11.41,27.48,26.34c0.1,15.19-11.69,26.6-27.78,26.71c-14.59,0.1-29.19-0.01-43.78,0.03
		c-8.41,0.03-13.23,3.91-13.28,10.53c-0.05,6.63,4.82,10.62,13.15,10.67c9.47,0.05,18.95,0.01,29.25,0.01
		c0,6.76-0.07,13.09,0.02,19.42c0.11,7.7,4.36,12.5,10.78,12.37c6.19-0.12,10.95-4.84,10.26-12.08
		c-1.22-12.73,0.07-21.29,15.58-25.47c14.76-3.98,22.51-17.66,26.38-33.4c0.77,2.01,1.37,3.33,1.78,4.72
		c4.33,14.71,15.87,23.57,31.32,23.78c10.14,0.14,20.28,0.03,30.84,0.03c0,34.83,0,69.21,0,104.56c-3.13,0.51-6.5,1.52-9.88,1.53
		c-84.03,0.08-168.06,0.05-252.09,0.04c-0.43,0-0.86-0.14-1.78-0.31c0.34-0.98,0.5-1.97,0.99-2.75c6.18-9.86,8.49-20.6,8.48-32.19
		c-0.11-105.7-0.06-211.4-0.06-317.11c0-2.61,0-5.21,0-8.52c2.92,0,5.28,0,7.64,0c84.25,0,168.5,0,252.76,0
		c12.63,0,15.6,2.97,15.6,15.6c0.01,32.06,0.13,64.13-0.18,96.19c-0.03,3.52-1.68,7.78-4.04,10.4
		c-22.49,24.98-45.38,49.59-67.93,74.51c-4.8,5.3-8.66,11.44-12.68,16.83c-0.53-2.37-1.11-5.93-2.12-9.38
		c-5.84-19.93-23.94-33.74-44.78-34.26c-3.98-0.1-7.96,0.06-11.94-0.07c-14.7-0.47-26.07-11.94-26.15-26.33
		c-0.09-14.7,11.39-26.46,26.44-26.67c15.03-0.21,30.07-0.02,45.11-0.06c8.38-0.03,13.25-3.95,13.29-10.54
		c0.04-6.65-4.79-10.62-13.16-10.66C341.96,310.28,332.49,310.32,322.18,310.32z"/>
	<linearGradient id="SVGID_1_" gradientUnits="userSpaceOnUse" x1="164.1546" y1="395.2345" x2="449.5956" y2="395.2345">
		<stop  offset="0" style="stop-color:#FFFFFF;stop-opacity:0.4"/>
		<stop  offset="0.0691" style="stop-color:#FFFFFF;stop-opacity:0.3435"/>
		<stop  offset="0.4892" style="stop-color:#FFFFFF;stop-opacity:0"/>
		<stop  offset="0.7527" style="stop-color:#FAFAFA;stop-opacity:0.1032"/>
		<stop  offset="1" style="stop-color:#EFEFEF;stop-opacity:0.2"/>
	</linearGradient>
	<path class="st1" d="M322.18,310.32c0-6.87,0.04-12.82-0.01-18.76c-0.08-8.26-4.17-13.16-10.8-13.03
		c-6.41,0.12-10.32,4.86-10.41,12.74c-0.07,6.36-0.01,12.72-0.01,19.26c-2.03,0.47-3.5,0.82-4.97,1.15
		c-23.53,5.25-39.49,27.02-37.33,50.89c2.17,23.99,22.32,42.69,46.64,43.26c3.54,0.08,7.08-0.01,10.61,0.04
		c15.71,0.2,27.39,11.41,27.48,26.34c0.1,15.19-11.69,26.6-27.78,26.71c-14.59,0.1-29.19-0.01-43.78,0.03
		c-8.41,0.03-13.23,3.91-13.28,10.53c-0.05,6.63,4.82,10.62,13.15,10.67c9.47,0.05,18.95,0.01,29.25,0.01
		c0,6.76-0.07,13.09,0.02,19.42c0.11,7.7,4.36,12.5,10.78,12.37c6.19-0.12,10.95-4.84,10.26-12.08
		c-1.22-12.73,0.07-21.29,15.58-25.47c14.76-3.98,22.51-17.66,26.38-33.4c0.77,2.01,1.37,3.33,1.78,4.72
		c4.33,14.71,15.87,23.57,31.32,23.78c10.14,0.14,20.28,0.03,30.84,0.03c0,34.83,0,69.21,0,104.56c-3.13,0.51-6.5,1.52-9.88,1.53
		c-84.03,0.08-168.06,0.05-252.09,0.04c-0.43,0-0.86-0.14-1.78-0.31c0.34-0.98,0.5-1.97,0.99-2.75c6.18-9.86,8.49-20.6,8.48-32.19
		c-0.11-105.7-0.06-211.4-0.06-317.11c0-2.61,0-5.21,0-8.52c2.92,0,5.28,0,7.64,0c84.25,0,168.5,0,252.76,0
		c12.63,0,15.6,2.97,15.6,15.6c0.01,32.06,0.13,64.13-0.18,96.19c-0.03,3.52-1.68,7.78-4.04,10.4
		c-22.49,24.98-45.38,49.59-67.93,74.51c-4.8,5.3-8.66,11.44-12.68,16.83c-0.53-2.37-1.11-5.93-2.12-9.38
		c-5.84-19.93-23.94-33.74-44.78-34.26c-3.98-0.1-7.96,0.06-11.94-0.07c-14.7-0.47-26.07-11.94-26.15-26.33
		c-0.09-14.7,11.39-26.46,26.44-26.67c15.03-0.21,30.07-0.02,45.11-0.06c8.38-0.03,13.25-3.95,13.29-10.54
		c0.04-6.65-4.79-10.62-13.16-10.66C341.96,310.28,332.49,310.32,322.18,310.32z"/>
	<path class="st2" d="M449.57,448.32c-17.12,0-33.44-0.09-49.75,0.05c-5.7,0.05-10.63-0.9-13.09-6.78
		c-2.36-5.65,0.59-9.64,4.19-13.57c37.22-40.53,74.39-81.11,111.58-121.67c7.99-8.72,13.52-8.76,21.41-0.15
		c37.18,40.57,74.34,81.16,111.55,121.69c3.77,4.11,6.83,8.26,4.1,14.15c-2.69,5.82-7.79,6.36-13.38,6.32
		c-16.11-0.12-32.22-0.04-49.25-0.04c0,2.91,0,5.46,0,8.02c0,55.92,0,111.83,0,167.75c0,12.2-3.09,15.3-15.21,15.31
		c-32.49,0.01-64.98,0.01-97.47,0c-11.36,0-14.69-3.28-14.69-14.48c-0.01-55.92-0.01-111.83-0.01-167.75
		C449.57,454.53,449.57,451.9,449.57,448.32z"/>
	
		<linearGradient id="SVGID_00000036222655610136522850000016763409964884067979_" gradientUnits="userSpaceOnUse" x1="385.8819" y1="469.5852" x2="640.6213" y2="469.5852">
		<stop  offset="0" style="stop-color:#FFFFFF;stop-opacity:0.4"/>
		<stop  offset="0.0691" style="stop-color:#FFFFFF;stop-opacity:0.3435"/>
		<stop  offset="0.4892" style="stop-color:#FFFFFF;stop-opacity:0"/>
		<stop  offset="0.7527" style="stop-color:#FAFAFA;stop-opacity:0.1032"/>
		<stop  offset="1" style="stop-color:#EFEFEF;stop-opacity:0.2"/>
	</linearGradient>
	<path style="fill:url(#SVGID_00000036222655610136522850000016763409964884067979_);" d="M449.57,448.32
		c-17.12,0-33.44-0.09-49.75,0.05c-5.7,0.05-10.63-0.9-13.09-6.78c-2.36-5.65,0.59-9.64,4.19-13.57
		c37.22-40.53,74.39-81.11,111.58-121.67c7.99-8.72,13.52-8.76,21.41-0.15c37.18,40.57,74.34,81.16,111.55,121.69
		c3.77,4.11,6.83,8.26,4.1,14.15c-2.69,5.82-7.79,6.36-13.38,6.32c-16.11-0.12-32.22-0.04-49.25-0.04c0,2.91,0,5.46,0,8.02
		c0,55.92,0,111.83,0,167.75c0,12.2-3.09,15.3-15.21,15.31c-32.49,0.01-64.98,0.01-97.47,0c-11.36,0-14.69-3.28-14.69-14.48
		c-0.01-55.92-0.01-111.83-0.01-167.75C449.57,454.53,449.57,451.9,449.57,448.32z"/>
	<path class="st2" d="M67.42,214.78c0,3.15,0,5.34,0,7.53c0,89.34-0.04,178.69,0.11,268.03c0.01,4.84-1.4,8.16-4.83,11.52
		c-16.9,16.56-33.58,33.34-50.22,50.17c-1.67,1.69-2.51,4.22-3.73,6.36c-0.96-0.57-1.92-1.15-2.88-1.72
		c-0.71-4.71-2.04-9.43-2.05-14.14C3.7,437.71,3.72,332.88,3.74,228.06c0-9.54,3.71-13.23,13.24-13.26
		C33.53,214.75,50.07,214.78,67.42,214.78z"/>
	<path class="st2" d="M88.65,214.8c18.18,0,35.41-0.12,52.64,0.06c6.69,0.07,10.56,4.15,11.02,10.77c0.09,1.32,0.03,2.65,0.03,3.98
		c0,103.71,0.03,207.43-0.09,311.14c-0.01,5.3-1.27,10.6-2.18,17.71c-11.51-11.54-21.48-21.53-31.45-31.52
		c-8.75-8.76-17.66-17.38-26.14-26.39c-2.01-2.13-3.68-5.59-3.69-8.45c-0.19-90.67-0.16-181.33-0.16-272
		C88.65,218.6,88.65,217.09,88.65,214.8z"/>
	<path class="st2" d="M25.28,193.11c0-10.6,0-20.68,0-31.4c13.74,0,27.16-0.04,40.58,0.02c5.1,0.02,9.08-1.72,11.21-6.58
		c3.18-7.25-2.01-14.5-10.77-14.61c-13.46-0.17-26.93-0.05-40.87-0.05c0-14.1,0-27.88,0-42.47c10.96,0,21.93,0,32.9,0
		c2.43,0,4.86,0.04,7.29-0.01c7.71-0.17,12.48-4.38,12.34-10.82c-0.13-6.21-4.75-10.29-12.11-10.36
		c-11.27-0.11-22.55-0.03-33.82-0.03c-2.17,0-4.33,0-7.08,0c0.77-24.34,10.08-43.69,28.59-58.44C66.59,7.96,81.66,2.8,98.31,2.53
		c11.05-0.18,22.11-0.19,33.15-0.02C155,2.9,172.64,21.26,173.75,44.89c0.64,13.54-0.62,24.2-13.93,32.6
		c-12.63,7.97-19.5,21.9-24.56,36.15c-0.82,2.32-2.19,5.07-4.14,6.26c-27.27,16.67-40.89,41.23-42.75,73.21
		C67.51,193.11,46.64,193.11,25.28,193.11z"/>
	
		<linearGradient id="SVGID_00000046308457876181815340000015332595611987065993_" gradientUnits="userSpaceOnUse" x1="24.9649" y1="97.7483" x2="173.8801" y2="97.7483">
		<stop  offset="0" style="stop-color:#FFFFFF;stop-opacity:0.4"/>
		<stop  offset="0.0691" style="stop-color:#FFFFFF;stop-opacity:0.3435"/>
		<stop  offset="0.4892" style="stop-color:#FFFFFF;stop-opacity:0"/>
		<stop  offset="0.7527" style="stop-color:#FAFAFA;stop-opacity:0.1032"/>
		<stop  offset="1" style="stop-color:#EFEFEF;stop-opacity:0.2"/>
	</linearGradient>
	<path style="fill:url(#SVGID_00000046308457876181815340000015332595611987065993_);" d="M25.28,193.11c0-10.6,0-20.68,0-31.4
		c13.74,0,27.16-0.04,40.58,0.02c5.1,0.02,9.08-1.72,11.21-6.58c3.18-7.25-2.01-14.5-10.77-14.61c-13.46-0.17-26.93-0.05-40.87-0.05
		c0-14.1,0-27.88,0-42.47c10.96,0,21.93,0,32.9,0c2.43,0,4.86,0.04,7.29-0.01c7.71-0.17,12.48-4.38,12.34-10.82
		c-0.13-6.21-4.75-10.29-12.11-10.36c-11.27-0.11-22.55-0.03-33.82-0.03c-2.17,0-4.33,0-7.08,0c0.77-24.34,10.08-43.69,28.59-58.44
		C66.59,7.96,81.66,2.8,98.31,2.53c11.05-0.18,22.11-0.19,33.15-0.02C155,2.9,172.64,21.26,173.75,44.89
		c0.64,13.54-0.62,24.2-13.93,32.6c-12.63,7.97-19.5,21.9-24.56,36.15c-0.82,2.32-2.19,5.07-4.14,6.26
		c-27.27,16.67-40.89,41.23-42.75,73.21C67.51,193.11,46.64,193.11,25.28,193.11z"/>
	<path class="st0" d="M205.25,193.37c-32.11,0-63.26,0-95.56,0c0.64-4.95,0.77-9.74,1.91-14.27c5.08-20.04,16.96-34.75,35.78-43.43
		c3.84-1.77,5.63-3.7,6.43-7.98c5.47-29.2,31.97-50.8,61.93-50.9c30.03-0.1,56.88,21.14,62.24,50.39c1.2,6.54,5.69,7.5,9.1,9.72
		c-9.02,18.64-17.9,36.99-27.27,56.36c-9.45,0-20.88,0-32.75,0c-0.86-9.1-2.14-17.87,7.05-24.18c3.76-2.59,6.76-6.35,9.92-9.74
		c4.93-5.3,5.04-11.54,0.47-15.89c-4.37-4.16-10.41-4.01-15.39,0.77c-4.27,4.1-8.23,8.54-12.97,13.52
		c-4.59-4.73-8.46-8.89-12.53-12.87c-5.56-5.44-11.81-5.8-16.35-1.16c-4.52,4.62-4.02,10.73,1.44,16.37
		c3.39,3.49,6.48,7.45,10.41,10.19C208.18,176.57,204.96,185.15,205.25,193.37z"/>
	
		<linearGradient id="SVGID_00000000222624198029746140000015773025266583194042_" gradientUnits="userSpaceOnUse" x1="109.6935" y1="135.0823" x2="287.0926" y2="135.0823">
		<stop  offset="0" style="stop-color:#FFFFFF;stop-opacity:0.4"/>
		<stop  offset="0.0691" style="stop-color:#FFFFFF;stop-opacity:0.3435"/>
		<stop  offset="0.4892" style="stop-color:#FFFFFF;stop-opacity:0"/>
		<stop  offset="0.7527" style="stop-color:#FAFAFA;stop-opacity:0.1032"/>
		<stop  offset="1" style="stop-color:#EFEFEF;stop-opacity:0.2"/>
	</linearGradient>
	<path style="fill:url(#SVGID_00000000222624198029746140000015773025266583194042_);" d="M205.25,193.37c-32.11,0-63.26,0-95.56,0
		c0.64-4.95,0.77-9.74,1.91-14.27c5.08-20.04,16.96-34.75,35.78-43.43c3.84-1.77,5.63-3.7,6.43-7.98
		c5.47-29.2,31.97-50.8,61.93-50.9c30.03-0.1,56.88,21.14,62.24,50.39c1.2,6.54,5.69,7.5,9.1,9.72
		c-9.02,18.64-17.9,36.99-27.27,56.36c-9.45,0-20.88,0-32.75,0c-0.86-9.1-2.14-17.87,7.05-24.18c3.76-2.59,6.76-6.35,9.92-9.74
		c4.93-5.3,5.04-11.54,0.47-15.89c-4.37-4.16-10.41-4.01-15.39,0.77c-4.27,4.1-8.23,8.54-12.97,13.52
		c-4.59-4.73-8.46-8.89-12.53-12.87c-5.56-5.44-11.81-5.8-16.35-1.16c-4.52,4.62-4.02,10.73,1.44,16.37
		c3.39,3.49,6.48,7.45,10.41,10.19C208.18,176.57,204.96,185.15,205.25,193.37z"/>
	<path class="st2" d="M425.84,193.37c-48.75,0-94.71,0-142.62,0c4.59-9.8,8.58-18.91,13.1-27.74c2.91-5.68,7.66-10.58,9.75-16.48
		c3.25-9.21,4.95-18.97,7.52-29.4c26.16,0,54.1,0,82.59,0c0.1,2.03,0.31,4.15,0.29,6.28c-0.14,11.45,3.93,21.42,9.75,31.13
		C412.97,168.42,418.79,180.24,425.84,193.37z"/>
	<path class="st0" d="M353.45,98.01c-13.26,0-26.52,0.06-39.78-0.02c-8.73-0.06-12.69-3.87-12.65-12.47
		c0.02-5.49-0.06-11.14,1.13-16.44c3.16-13.97,15.3-23.77,29.58-24.06c14.8-0.29,29.62-0.31,44.42,0
		c17.04,0.36,30.4,13.93,30.91,31.04c0.52,17.25,0.97,22.96-21.13,22.03C375.12,97.64,364.28,98.02,353.45,98.01z"/>
	
		<linearGradient id="SVGID_00000165221909006708013910000010960352988978847148_" gradientUnits="userSpaceOnUse" x1="283.2202" y1="156.5612" x2="425.84" y2="156.5612">
		<stop  offset="0" style="stop-color:#FFFFFF;stop-opacity:0.4"/>
		<stop  offset="0.0691" style="stop-color:#FFFFFF;stop-opacity:0.3435"/>
		<stop  offset="0.4892" style="stop-color:#FFFFFF;stop-opacity:0"/>
		<stop  offset="0.7527" style="stop-color:#FAFAFA;stop-opacity:0.1032"/>
		<stop  offset="1" style="stop-color:#EFEFEF;stop-opacity:0.2"/>
	</linearGradient>
	<path style="fill:url(#SVGID_00000165221909006708013910000010960352988978847148_);" d="M425.84,193.37c-48.75,0-94.71,0-142.62,0
		c4.59-9.8,8.58-18.91,13.1-27.74c2.91-5.68,7.66-10.58,9.75-16.48c3.25-9.21,4.95-18.97,7.52-29.4c26.16,0,54.1,0,82.59,0
		c0.1,2.03,0.31,4.15,0.29,6.28c-0.14,11.45,3.93,21.42,9.75,31.13C412.97,168.42,418.79,180.24,425.84,193.37z"/>
	
		<linearGradient id="SVGID_00000065788656609280320370000011663284732697319072_" gradientUnits="userSpaceOnUse" x1="301.0181" y1="71.498" x2="407.2138" y2="71.498">
		<stop  offset="0" style="stop-color:#FFFFFF;stop-opacity:0.4"/>
		<stop  offset="0.0691" style="stop-color:#FFFFFF;stop-opacity:0.3435"/>
		<stop  offset="0.4892" style="stop-color:#FFFFFF;stop-opacity:0"/>
		<stop  offset="0.7527" style="stop-color:#FAFAFA;stop-opacity:0.1032"/>
		<stop  offset="1" style="stop-color:#EFEFEF;stop-opacity:0.2"/>
	</linearGradient>
	<path style="fill:url(#SVGID_00000065788656609280320370000011663284732697319072_);" d="M353.45,98.01
		c-13.26,0-26.52,0.06-39.78-0.02c-8.73-0.06-12.69-3.87-12.65-12.47c0.02-5.49-0.06-11.14,1.13-16.44
		c3.16-13.97,15.3-23.77,29.58-24.06c14.8-0.29,29.62-0.31,44.42,0c17.04,0.36,30.4,13.93,30.91,31.04
		c0.52,17.25,0.97,22.96-21.13,22.03C375.12,97.64,364.28,98.02,353.45,98.01z"/>
	<path class="st0" d="M22.23,573.4c19.3-19.3,37.53-37.53,55.15-55.15c18.02,18.01,36.35,36.34,55.14,55.12
		c-3.47,0.67-7.76,2.17-12.06,2.21c-28.25,0.22-56.51,0.2-84.76,0.01C31.41,575.57,27.12,574.23,22.23,573.4z"/>
	
		<linearGradient id="SVGID_00000057833359113379696180000006480942857498688658_" gradientUnits="userSpaceOnUse" x1="3.7229" y1="386.5832" x2="67.525" y2="386.5832">
		<stop  offset="0" style="stop-color:#FFFFFF;stop-opacity:0.4"/>
		<stop  offset="0.0691" style="stop-color:#FFFFFF;stop-opacity:0.3435"/>
		<stop  offset="0.4892" style="stop-color:#FFFFFF;stop-opacity:0"/>
		<stop  offset="0.7527" style="stop-color:#FAFAFA;stop-opacity:0.1032"/>
		<stop  offset="1" style="stop-color:#EFEFEF;stop-opacity:0.2"/>
	</linearGradient>
	<path style="fill:url(#SVGID_00000057833359113379696180000006480942857498688658_);" d="M67.42,214.78c0,3.15,0,5.34,0,7.53
		c0,89.34-0.04,178.69,0.11,268.03c0.01,4.84-1.4,8.16-4.83,11.52c-16.9,16.56-33.58,33.34-50.22,50.17
		c-1.67,1.69-2.51,4.22-3.73,6.36c-0.96-0.57-1.92-1.15-2.88-1.72c-0.71-4.71-2.04-9.43-2.05-14.14
		C3.7,437.71,3.72,332.88,3.74,228.06c0-9.54,3.71-13.23,13.24-13.26C33.53,214.75,50.07,214.78,67.42,214.78z"/>
	
		<linearGradient id="SVGID_00000080900288248661959420000014573860508217265285_" gradientUnits="userSpaceOnUse" x1="88.6454" y1="386.6134" x2="152.3558" y2="386.6134">
		<stop  offset="0" style="stop-color:#FFFFFF;stop-opacity:0.4"/>
		<stop  offset="0.0691" style="stop-color:#FFFFFF;stop-opacity:0.3435"/>
		<stop  offset="0.4892" style="stop-color:#FFFFFF;stop-opacity:0"/>
		<stop  offset="0.7527" style="stop-color:#FAFAFA;stop-opacity:0.1032"/>
		<stop  offset="1" style="stop-color:#EFEFEF;stop-opacity:0.2"/>
	</linearGradient>
	<path style="fill:url(#SVGID_00000080900288248661959420000014573860508217265285_);" d="M88.65,214.8
		c18.18,0,35.41-0.12,52.64,0.06c6.69,0.07,10.56,4.15,11.02,10.77c0.09,1.32,0.03,2.65,0.03,3.98c0,103.71,0.03,207.43-0.09,311.14
		c-0.01,5.3-1.27,10.6-2.18,17.71c-11.51-11.54-21.48-21.53-31.45-31.52c-8.75-8.76-17.66-17.38-26.14-26.39
		c-2.01-2.13-3.68-5.59-3.69-8.45c-0.19-90.67-0.16-181.33-0.16-272C88.65,218.6,88.65,217.09,88.65,214.8z"/>
	
		<linearGradient id="SVGID_00000126311129270498030660000016987713216621089414_" gradientUnits="userSpaceOnUse" x1="22.225" y1="546.9929" x2="132.52" y2="546.9929">
		<stop  offset="0" style="stop-color:#FFFFFF;stop-opacity:0.4"/>
		<stop  offset="0.0691" style="stop-color:#FFFFFF;stop-opacity:0.3435"/>
		<stop  offset="0.4892" style="stop-color:#FFFFFF;stop-opacity:0"/>
		<stop  offset="0.7527" style="stop-color:#FAFAFA;stop-opacity:0.1032"/>
		<stop  offset="1" style="stop-color:#EFEFEF;stop-opacity:0.2"/>
	</linearGradient>
	<path style="fill:url(#SVGID_00000126311129270498030660000016987713216621089414_);" d="M22.23,573.4
		c19.3-19.3,37.53-37.53,55.15-55.15c18.02,18.01,36.35,36.34,55.14,55.12c-3.47,0.67-7.76,2.17-12.06,2.21
		c-28.25,0.22-56.51,0.2-84.76,0.01C31.41,575.57,27.12,574.23,22.23,573.4z"/>
</g>
</svg>
