<?xml version="1.0" encoding="UTF-8"?>
<svg id="report" xmlns="http://www.w3.org/2000/svg" version="1.1" xmlns:xlink="http://www.w3.org/1999/xlink" viewBox="0 0 640.62 640.62">
  <defs>
    <style>
      .cls-1 {
        fill: #360061;
      }

      .cls-1, .cls-2, .cls-3, .cls-4, .cls-5, .cls-6, .cls-7, .cls-8 {
        stroke-width: 0px;
      }

      .cls-2 {
        fill: url(#linear-gradient);
      }

      .cls-3 {
        fill: url(#linear-gradient-6);
      }

      .cls-4 {
        fill: url(#linear-gradient-5);
      }

      .cls-5 {
        fill: #5800b2;
      }

      .cls-6 {
        fill: url(#linear-gradient-2);
      }

      .cls-7 {
        fill: url(#linear-gradient-3);
      }

      .cls-8 {
        fill: url(#linear-gradient-4);
      }
    </style>
    <linearGradient id="linear-gradient" x1="34.05" y1="77.95" x2="512.79" y2="590.32" gradientUnits="userSpaceOnUse">
      <stop offset="0" stop-color="#fff" stop-opacity=".4"/>
      <stop offset=".07" stop-color="#fff" stop-opacity=".34"/>
      <stop offset=".49" stop-color="#fff" stop-opacity="0"/>
      <stop offset=".75" stop-color="#fafafa" stop-opacity=".1"/>
      <stop offset="1" stop-color="#efefef" stop-opacity=".2"/>
    </linearGradient>
    <linearGradient id="linear-gradient-2" x1="45.57" y1="67.18" x2="524.31" y2="579.55" xlink:href="#linear-gradient"/>
    <linearGradient id="linear-gradient-3" x1="115.45" y1="1.89" x2="594.19" y2="514.26" xlink:href="#linear-gradient"/>
    <linearGradient id="linear-gradient-4" x1="204.62" y1="-81.43" x2="683.36" y2="430.94" xlink:href="#linear-gradient"/>
    <linearGradient id="linear-gradient-5" x1="268.46" y1="-141.08" x2="747.2" y2="371.29" xlink:href="#linear-gradient"/>
    <linearGradient id="linear-gradient-6" x1="171.49" y1="-50.47" x2="650.23" y2="461.9" xlink:href="#linear-gradient"/>
  </defs>
  <g>
    <path class="cls-1" d="M320.28,275.25c85.75,0,171.5-.03,257.24.07,4.99,0,10.18.32,14.91,1.73,12.53,3.74,20.76,15.81,20.37,28.72-.4,13.22-9.34,24.66-22.57,27.66-4.38.99-5.56,3.03-6.26,6.9-11.64,64.23-23.35,128.45-35.14,192.65-3.95,21.49-18.14,33.35-39.96,33.37-68.72.07-137.45.03-206.17.03-56.11,0-112.23,0-168.34,0-24.89,0-38.28-10.77-42.82-35.28-11.77-63.57-23.31-127.18-34.8-190.79-.72-3.99-1.97-5.86-6.29-6.86-14.13-3.26-23.52-16.21-22.61-30.12.94-14.51,11.7-25.85,26.38-27.62,3.32-.4,6.71-.43,10.06-.43,85.33-.02,170.66-.02,255.98-.02ZM119.55,398.71c.09.99.12,2.48.38,3.92,6.14,33.61,12.27,67.21,18.51,100.8,1.59,8.54,7.66,13.3,14.73,11.99,7.81-1.44,11.68-8.19,10.03-17.29-4.05-22.27-8.04-44.55-12.09-66.82-2.17-11.96-4.18-23.95-6.71-35.84-1.49-6.99-7.16-10.56-14.02-9.78-6.32.72-10.77,5.89-10.84,13.02ZM521.06,400.55c.16-8.16-3.69-13.43-9.5-14.69-6.45-1.4-12.36,1.69-14.71,7.82-.6,1.55-.91,3.22-1.21,4.86-6.11,33.4-12.19,66.8-18.28,100.2-1.56,8.56,2.51,15.27,10.13,16.69,7.06,1.31,13.14-3.42,14.75-11.97,3.81-20.18,7.43-40.4,11.12-60.6,2.67-14.63,5.33-29.27,7.7-42.3ZM420.61,501.19c-.27,7.34,3.63,12.61,9.95,14.1,7.94,1.88,14.46-3.81,15.69-13.77,1.61-13.13,3.16-26.27,4.74-39.41,2.49-20.64,5.02-41.28,7.44-61.93.67-5.75-1.4-10.43-6.65-13.15-4.66-2.43-9.97-2.59-13.42,1.34-2.81,3.22-4.68,7.85-5.46,12.13-1.69,9.28-2.41,18.74-3.54,28.12-2.94,24.4-5.89,48.79-8.76,72.57ZM220.12,501.16c-4.2-34.29-8.39-69.53-12.95-104.73-1-7.73-7.17-11.71-14.47-10.69-7.1.99-11.24,7.07-10.28,15.41,2.24,19.4,4.53,38.8,6.89,58.19,1.85,15.22,3.61,30.45,5.85,45.61,1.04,6.99,7.08,11.28,13.42,10.62,6.81-.71,11.69-6.39,11.54-14.41ZM392.64,449.9c1.03-16.15,2.09-32.29,3.07-48.44.57-9.25-3.84-15.24-11.5-15.82-7.95-.6-13.1,4.27-13.8,13.59-1.12,15.09-2.02,30.19-2.93,45.29-1.13,18.88-2.28,37.76-3.22,56.65-.38,7.63,3.3,12.56,9.82,14.11,8.03,1.91,14.94-4.19,15.51-13.78,1.04-17.2,2.03-34.4,3.04-51.6ZM248.04,449.87c1.01,17.41,1.95,34.83,3.07,52.24.54,8.44,6.3,14,13.58,13.49,7.31-.51,12.18-6.11,11.71-14.39-1.91-33.99-3.94-67.97-6.13-101.94-.6-9.38-5.85-14.2-13.79-13.62-7.67.56-12.1,6.59-11.53,15.79,1.01,16.15,2.05,32.3,3.08,48.44ZM333.04,450.79c0-16.79.12-33.58-.11-50.37-.04-3.2-.76-6.79-2.37-9.5-3.04-5.12-8.26-6.21-13.81-4.89-5.63,1.34-9.03,6.48-9.04,13.53-.05,33.58-.04,67.17-.01,100.75,0,9.4,5.17,15.45,12.88,15.31,7.55-.14,12.41-5.95,12.43-15.08.05-16.58.01-33.16.01-49.74Z"/>
    <path class="cls-5" d="M213.75,249.84c-4.13,0-6.18,0-8.23,0-38.46,0-76.92-.09-115.38.11-5.01.03-7.29-1.14-7.19-6.48.09-5.02-.91-10.05-.91-15.08,0-19.15,4.46-36.33,22.45-47.02-7.36-3.96-14.68-7.1-21.13-11.5-19.05-13.01-31.08-31.53-39.46-52.62-1.97-4.95-.07-7.88,5.6-7.26,14.33,1.55,28.58,3.82,42.85,5.9,2,.29,3.93,1.11,5.74,1.64,2.72-9.86,4.95-19.42,8.02-28.69,4.64-14.04,7.15-14.58,16.83-3.68,6.53,7.34,12.45,15.22,18.41,22.56,9.18-6.21,18.51-12.82,28.17-18.93,4.4-2.78,9.36-4.73,14.19-6.74,5.14-2.13,7.76-.55,7.82,4.91.34,30.17-5.8,58.05-28.73,79.88-.71.68-1.28,1.51-2.37,2.82,20.57,2.92,32.05,16.08,38.73,33.51,5.67,14.78,9.53,30.25,14.58,46.68Z"/>
    <path class="cls-5" d="M397.93,249.52h-156.2c1.17-14.3,2.26-28.24,3.47-42.16.4-4.59.7-9.24,1.75-13.7,4.06-17.28,19.83-28.3,37.5-26.75,27.6,2.43,55.2,4.82,82.82,7.03,20.4,1.63,34.58,16.77,33.77,37.26-.5,12.73-2.02,25.42-3.11,38.33Z"/>
    <path class="cls-5" d="M428.31,249.43c6.22-4.98,13.06-9.5,18.7-15.21,9.11-9.23,11.96-21.3,13.34-33.87,1.42-12.89,3.31-25.72,5.09-39.32,19.52,2.56,38.54,5.05,58.33,7.65-1.49,11.67-2.51,22.9-4.42,33.99-2.77,16.01-3.83,31.66,6.05,46.76h-97.08Z"/>
    <path class="cls-5" d="M477.47,74.23c18.63,2.48,38.64,4.95,58.57,7.9,6.68.99,10.66,7,9.85,14.01-1.43,12.3-3.05,24.59-4.9,36.84-1.04,6.86-6.53,11.31-13.48,10.48-19.81-2.35-39.59-4.95-59.32-7.84-6.8-1-10.95-6.85-10.18-13.78,1.4-12.52,3.06-25.01,4.97-37.46,1.01-6.59,6.18-10.27,14.49-10.15Z"/>
    <path class="cls-5" d="M373.11,148.84c-28.43-2.43-56.2-4.81-84.8-7.25.78-10.06,1.51-19.61,2.26-29.17.12-1.47.37-2.92.5-4.39,1.4-16.47,6.62-21.15,22.85-19.96,15.51,1.14,31,2.52,46.49,3.89,10.27.91,16.42,7.83,15.78,18.22-.77,12.57-1.97,25.11-3.07,38.65Z"/>
  </g>
  <g>
    <path class="cls-2" d="M320.28,275.25c85.75,0,171.5-.03,257.24.07,4.99,0,10.18.32,14.91,1.73,12.53,3.74,20.76,15.81,20.37,28.72-.4,13.22-9.34,24.66-22.57,27.66-4.38.99-5.56,3.03-6.26,6.9-11.64,64.23-23.35,128.45-35.14,192.65-3.95,21.49-18.14,33.35-39.96,33.37-68.72.07-137.45.03-206.17.03-56.11,0-112.23,0-168.34,0-24.89,0-38.28-10.77-42.82-35.28-11.77-63.57-23.31-127.18-34.8-190.79-.72-3.99-1.97-5.86-6.29-6.86-14.13-3.26-23.52-16.21-22.61-30.12.94-14.51,11.7-25.85,26.38-27.62,3.32-.4,6.71-.43,10.06-.43,85.33-.02,170.66-.02,255.98-.02ZM119.55,398.71c.09.99.12,2.48.38,3.92,6.14,33.61,12.27,67.21,18.51,100.8,1.59,8.54,7.66,13.3,14.73,11.99,7.81-1.44,11.68-8.19,10.03-17.29-4.05-22.27-8.04-44.55-12.09-66.82-2.17-11.96-4.18-23.95-6.71-35.84-1.49-6.99-7.16-10.56-14.02-9.78-6.32.72-10.77,5.89-10.84,13.02ZM521.06,400.55c.16-8.16-3.69-13.43-9.5-14.69-6.45-1.4-12.36,1.69-14.71,7.82-.6,1.55-.91,3.22-1.21,4.86-6.11,33.4-12.19,66.8-18.28,100.2-1.56,8.56,2.51,15.27,10.13,16.69,7.06,1.31,13.14-3.42,14.75-11.97,3.81-20.18,7.43-40.4,11.12-60.6,2.67-14.63,5.33-29.27,7.7-42.3ZM420.61,501.19c-.27,7.34,3.63,12.61,9.95,14.1,7.94,1.88,14.46-3.81,15.69-13.77,1.61-13.13,3.16-26.27,4.74-39.41,2.49-20.64,5.02-41.28,7.44-61.93.67-5.75-1.4-10.43-6.65-13.15-4.66-2.43-9.97-2.59-13.42,1.34-2.81,3.22-4.68,7.85-5.46,12.13-1.69,9.28-2.41,18.74-3.54,28.12-2.94,24.4-5.89,48.79-8.76,72.57ZM220.12,501.16c-4.2-34.29-8.39-69.53-12.95-104.73-1-7.73-7.17-11.71-14.47-10.69-7.1.99-11.24,7.07-10.28,15.41,2.24,19.4,4.53,38.8,6.89,58.19,1.85,15.22,3.61,30.45,5.85,45.61,1.04,6.99,7.08,11.28,13.42,10.62,6.81-.71,11.69-6.39,11.54-14.41ZM392.64,449.9c1.03-16.15,2.09-32.29,3.07-48.44.57-9.25-3.84-15.24-11.5-15.82-7.95-.6-13.1,4.27-13.8,13.59-1.12,15.09-2.02,30.19-2.93,45.29-1.13,18.88-2.28,37.76-3.22,56.65-.38,7.63,3.3,12.56,9.82,14.11,8.03,1.91,14.94-4.19,15.51-13.78,1.04-17.2,2.03-34.4,3.04-51.6ZM248.04,449.87c1.01,17.41,1.95,34.83,3.07,52.24.54,8.44,6.3,14,13.58,13.49,7.31-.51,12.18-6.11,11.71-14.39-1.91-33.99-3.94-67.97-6.13-101.94-.6-9.38-5.85-14.2-13.79-13.62-7.67.56-12.1,6.59-11.53,15.79,1.01,16.15,2.05,32.3,3.08,48.44ZM333.04,450.79c0-16.79.12-33.58-.11-50.37-.04-3.2-.76-6.79-2.37-9.5-3.04-5.12-8.26-6.21-13.81-4.89-5.63,1.34-9.03,6.48-9.04,13.53-.05,33.58-.04,67.17-.01,100.75,0,9.4,5.17,15.45,12.88,15.31,7.55-.14,12.41-5.95,12.43-15.08.05-16.58.01-33.16.01-49.74Z"/>
    <path class="cls-6" d="M213.75,249.84c-4.13,0-6.18,0-8.23,0-38.46,0-76.92-.09-115.38.11-5.01.03-7.29-1.14-7.19-6.48.09-5.02-.91-10.05-.91-15.08,0-19.15,4.46-36.33,22.45-47.02-7.36-3.96-14.68-7.1-21.13-11.5-19.05-13.01-31.08-31.53-39.46-52.62-1.97-4.95-.07-7.88,5.6-7.26,14.33,1.55,28.58,3.82,42.85,5.9,2,.29,3.93,1.11,5.74,1.64,2.72-9.86,4.95-19.42,8.02-28.69,4.64-14.04,7.15-14.58,16.83-3.68,6.53,7.34,12.45,15.22,18.41,22.56,9.18-6.21,18.51-12.82,28.17-18.93,4.4-2.78,9.36-4.73,14.19-6.74,5.14-2.13,7.76-.55,7.82,4.91.34,30.17-5.8,58.05-28.73,79.88-.71.68-1.28,1.51-2.37,2.82,20.57,2.92,32.05,16.08,38.73,33.51,5.67,14.78,9.53,30.25,14.58,46.68Z"/>
    <path class="cls-7" d="M397.93,249.52h-156.2c1.17-14.3,2.26-28.24,3.47-42.16.4-4.59.7-9.24,1.75-13.7,4.06-17.28,19.83-28.3,37.5-26.75,27.6,2.43,55.2,4.82,82.82,7.03,20.4,1.63,34.58,16.77,33.77,37.26-.5,12.73-2.02,25.42-3.11,38.33Z"/>
    <path class="cls-8" d="M428.31,249.43c6.22-4.98,13.06-9.5,18.7-15.21,9.11-9.23,11.96-21.3,13.34-33.87,1.42-12.89,3.31-25.72,5.09-39.32,19.52,2.56,38.54,5.05,58.33,7.65-1.49,11.67-2.51,22.9-4.42,33.99-2.77,16.01-3.83,31.66,6.05,46.76h-97.08Z"/>
    <path class="cls-4" d="M477.47,74.23c18.63,2.48,38.64,4.95,58.57,7.9,6.68.99,10.66,7,9.85,14.01-1.43,12.3-3.05,24.59-4.9,36.84-1.04,6.86-6.53,11.31-13.48,10.48-19.81-2.35-39.59-4.95-59.32-7.84-6.8-1-10.95-6.85-10.18-13.78,1.4-12.52,3.06-25.01,4.97-37.46,1.01-6.59,6.18-10.27,14.49-10.15Z"/>
    <path class="cls-3" d="M373.11,148.84c-28.43-2.43-56.2-4.81-84.8-7.25.78-10.06,1.51-19.61,2.26-29.17.12-1.47.37-2.92.5-4.39,1.4-16.47,6.62-21.15,22.85-19.96,15.51,1.14,31,2.52,46.49,3.89,10.27.91,16.42,7.83,15.78,18.22-.77,12.57-1.97,25.11-3.07,38.65Z"/>
  </g>
</svg>