<svg width="36" height="39" viewBox="0 0 36 39" fill="none" xmlns="http://www.w3.org/2000/svg">
<path d="M32.7917 11.27C33.0217 11.64 33.2517 12.02 33.5017 12.44C30.8017 13.66 28.0717 14.58 25.0917 15.14C25.1917 14.85 25.2217 14.63 25.3217 14.45C26.4117 12.4 27.1717 10.25 27.5317 7.95C27.5617 7.78 27.5817 7.6 27.5917 7.43C27.6217 6.8 27.2117 6.28 26.6117 6.22C25.9917 6.14 25.5117 6.53 25.3617 7.15C25.0817 8.35 24.7817 9.55 24.4917 10.75C24.4617 10.85 24.4217 10.93 24.3617 11.07C22.7817 8.13 20.3517 6.56 17.0417 6.37C17.2017 4.52 19.1317 3.1 21.5917 3C21.6217 2.95 21.6517 2.89 21.6817 2.82C22.2817 1.3 23.3917 0.39 24.9817 0.07C25.0417 0.06 25.0917 0.03 25.1417 0H26.2717C27.0017 0.18 27.7117 0.41 28.3117 0.88C29.0617 1.47 29.5717 2.23 29.8417 3.12C32.4017 2.78 34.2817 3.79 35.0317 5.88C35.7017 7.71 35.1117 10.09 32.7917 11.27Z" fill="white"/>
<path d="M32.8517 15.18C28.7917 16.83 24.5817 17.78 20.2117 17.99C16.0617 18.19 11.9917 17.74 8.01167 16.57C6.60167 16.15 5.22167 15.61 3.83167 15.12C2.97167 14.82 2.21167 15.39 2.26167 16.3C2.27167 16.48 2.30167 16.67 2.32167 16.86C2.63167 19.8 2.93167 22.73 3.25167 25.67C3.59167 28.85 3.94167 32.02 4.26167 35.19C4.46167 37.23 5.81167 38.48 7.87167 38.48H18.3917C21.9517 38.48 25.5217 38.49 29.0917 38.47C30.8117 38.47 32.1617 37.34 32.4617 35.64C32.5717 34.98 32.6117 34.3 32.6917 33.63C33.0117 30.68 33.3217 27.73 33.6317 24.79C33.9317 22.03 34.2117 19.27 34.5217 16.5C34.6517 15.39 33.8817 14.76 32.8517 15.18ZM27.0417 30.79C27.0317 31.64 26.5917 32.08 25.7417 32.08H11.0617C10.2017 32.08 9.76167 31.64 9.76167 30.79C9.75167 28.89 9.75167 26.99 9.76167 25.08C9.76167 24.26 10.2017 23.81 11.0317 23.81H25.7117C26.5917 23.81 27.0417 24.24 27.0417 25.12V30.79Z" fill="#F6F6F6"/>
<path d="M14.8217 15.62C14.0017 15.51 13.2717 15.41 12.5517 15.3C9.06169 14.76 5.78169 13.57 2.57169 12.16C2.44169 12.11 2.32169 11.99 2.25169 11.87C1.68169 10.9 1.11169 9.93998 0.561693 8.94998C-0.618307 6.80998 0.121693 4.10998 2.21169 2.88998C4.32169 1.64998 7.03169 2.30998 8.33169 4.39998C8.78169 5.12998 9.19169 5.87998 9.65169 6.67998C8.74169 6.73998 7.90169 6.78998 7.06169 6.83998C6.44169 6.87998 5.81169 6.88998 5.19169 6.94998C4.62169 6.99998 4.22169 7.38998 4.13169 7.91998C4.06169 8.39998 4.34169 8.91998 4.81169 9.08998C5.01169 9.16998 5.23169 9.18998 5.44169 9.17998C7.08169 9.08998 8.71169 8.99998 10.3517 8.87998C10.7617 8.84998 11.0217 8.91998 11.2017 9.31998C11.3817 9.73998 11.6417 10.12 11.9117 10.58C10.5017 10.67 9.16169 10.74 7.82169 10.83C7.68169 10.84 7.54169 10.84 7.41169 10.86C6.77169 10.95 6.33169 11.48 6.39169 12.08C6.45169 12.68 6.94169 13.12 7.58169 13.09C8.75169 13.04 9.91169 12.96 11.0717 12.9C11.6917 12.86 12.2917 12.82 12.9117 12.79C13.0217 12.78 13.1917 12.81 13.2317 12.88C13.7517 13.76 14.2517 14.65 14.8217 15.62Z" fill="white"/>
<path d="M22.9017 15.06C22.8917 15.39 22.7917 15.55 22.4217 15.56C20.8817 15.62 19.3517 15.71 17.8117 15.76C17.6717 15.77 17.4617 15.67 17.4017 15.56C16.2317 13.57 15.0817 11.56 13.9217 9.56003C13.9117 9.54003 13.9117 9.52003 13.9017 9.47003C16.6817 7.80003 20.6417 8.70003 22.2917 12.01C22.7717 12.97 22.9517 13.99 22.9017 15.06Z" fill="white"/>
<path d="M24.7517 26.1H12.0317V29.82H24.7517V26.1Z" fill="white"/>
</svg>
