<?xml version="1.0" encoding="UTF-8"?>
<svg id="report" xmlns="http://www.w3.org/2000/svg" version="1.1" xmlns:xlink="http://www.w3.org/1999/xlink" viewBox="0 0 640.6 640.6">
  <defs>
    <style>
      .cls-1 {
        fill: url(#linear-gradient);
      }

      .cls-1, .cls-2 {
        stroke-width: 0px;
      }

      .cls-2 {
        fill: #ff8000;
      }
    </style>
    <linearGradient id="linear-gradient" x1="14" y1="320.3" x2="626.6" y2="320.3" gradientUnits="userSpaceOnUse">
      <stop offset="0" stop-color="#fff" stop-opacity=".4"/>
      <stop offset="0" stop-color="#fff" stop-opacity=".3"/>
      <stop offset=".5" stop-color="#fff" stop-opacity="0"/>
      <stop offset=".8" stop-color="#fafafa" stop-opacity=".1"/>
      <stop offset="1" stop-color="#efefef" stop-opacity=".2"/>
    </linearGradient>
  </defs>
  <path class="cls-2" d="M546.3,194.3c-1.1-1.5-2.2-3.4-2.2-5.2h0c-5.6-64.2-14.9-107.2-14.9-107.2-1.5-7.5-7.8-12.7-14.9-13.8l-51.5-6.3h-1.5c-6,0-10.8,4.9-10.8,10.8v17.9c0,.4-.4.7-.7.7h-.4c-30.6-27.6-65.4-54.5-103.8-78.4-7.5-4.9-16.1-7.8-25.4-7.8h0c-9.3,0-18.3,3-25.4,7.8C117.1,122.2,19.3,300.7,15.5,310.4c-1.1,2.2-1.5,4.9-1.5,7.5,0,8.2,5.6,15.3,13.4,17.2l51.2,9.7c6.7,1.9,12,7.8,12.7,14.9.4,9,10.1,210.7,22.4,263,1.9,7.5,9,13.1,17.2,13.1h.4c29.9-.7,57.1-1.1,86.7-1.5h2.6c3,0,5.6-2.6,5.6-5.6h0c-1.1-17.6-3.7-57.9-6-100.1,0-1.1,0-2.2-.4-3.4h0c-.4-3.7-2.2-6.7-5.2-8.6-15.3-9.3-25.8-25.8-26.9-44.4-2.6-70.6-4.1-152.4,0-216.3.4-5.2,4.9-9.7,10.1-9.7s10.5,4.5,10.5,10.1v.7c-2.6,42.6-2.6,93-1.9,142.7,0,6.7,5.6,12,12.3,12s12-5.6,12-12.3c-.7-50.1-.7-100.8,1.9-143.4.4-5.2,4.9-9.7,10.1-9.7s10.5,4.5,10.5,10.1v.7c-2.6,42.6-2.6,92.6-1.9,141.9h0c0,6.7,5.6,12,12.3,12s12-5.6,12-12.3c-.7-49.7-.7-100.5,1.9-143.1.4-5.2,4.9-9.7,10.1-9.7s10.5,4.5,10.5,10.1v.7c-3.7,62-2.6,140.8,0,209.9v1.9h0v.7c0,19-9.3,35.5-23.9,45.6-2.6,1.9-4.5,4.5-4.5,7.8,0,0-1.1,10.5,3.4,62,2.2,22.4,3.7,38.1,4.5,44.8.4,2.6,2.6,4.9,5.2,4.9h77.7l29.1.4h0c2.6,0,4.9-2.2,5.6-4.9,6.7-61.6,8.2-96,8.2-96,0-3-2.2-5.6-5.6-6l-35.1-5.6c-5.6-1.1-9-4.5-10.1-8.6-.7-2.6-.4-5.6-.4-5.6,14.2-205.1,81.8-274.5,81.8-274.5,1.9-1.9,3.4-3,3.4-3,1.9-1.1,4.1-2.2,6.3-2.2,4.5,0,8.6,3,10.1,6.7,0,0,.4,1.5.7,4.9,6,64.6,3,174.4-.7,260-3,72.8-6.7,129.6-6.7,129.6h0c0,2.2,1.9,4.1,4.1,4.1h0c19,.4,38.1.7,58.3,1.1h.4c8.2,0,14.9-5.6,17.2-13.1,12.3-52.3,21.7-254,22.4-263,.7-7.1,6-13.1,12.7-14.9l51.2-9.7c7.5-1.9,13.4-9,13.4-17.2s-.7-5.2-1.5-7.5c-2.6-4.1-29.1-53.4-78.8-115"/>
  <path class="cls-1" d="M546.3,194.3c-1.1-1.5-2.2-3.4-2.2-5.2h0c-5.6-64.2-14.9-107.2-14.9-107.2-1.5-7.5-7.8-12.7-14.9-13.8l-51.5-6.3h-1.5c-6,0-10.8,4.9-10.8,10.8v17.9c0,.4-.4.7-.7.7h-.4c-30.6-27.6-65.4-54.5-103.8-78.4-7.5-4.9-16.1-7.8-25.4-7.8h0c-9.3,0-18.3,3-25.4,7.8C117.1,122.2,19.3,300.7,15.5,310.4c-1.1,2.2-1.5,4.9-1.5,7.5,0,8.2,5.6,15.3,13.4,17.2l51.2,9.7c6.7,1.9,12,7.8,12.7,14.9.4,9,10.1,210.7,22.4,263,1.9,7.5,9,13.1,17.2,13.1h.4c29.9-.7,57.1-1.1,86.7-1.5h2.6c3,0,5.6-2.6,5.6-5.6h0c-1.1-17.6-3.7-57.9-6-100.1,0-1.1,0-2.2-.4-3.4h0c-.4-3.7-2.2-6.7-5.2-8.6-15.3-9.3-25.8-25.8-26.9-44.4-2.6-70.6-4.1-152.4,0-216.3.4-5.2,4.9-9.7,10.1-9.7s10.5,4.5,10.5,10.1v.7c-2.6,42.6-2.6,93-1.9,142.7,0,6.7,5.6,12,12.3,12s12-5.6,12-12.3c-.7-50.1-.7-100.8,1.9-143.4.4-5.2,4.9-9.7,10.1-9.7s10.5,4.5,10.5,10.1v.7c-2.6,42.6-2.6,92.6-1.9,141.9h0c0,6.7,5.6,12,12.3,12s12-5.6,12-12.3c-.7-49.7-.7-100.5,1.9-143.1.4-5.2,4.9-9.7,10.1-9.7s10.5,4.5,10.5,10.1v.7c-3.7,62-2.6,140.8,0,209.9v1.9h0v.7c0,19-9.3,35.5-23.9,45.6-2.6,1.9-4.5,4.5-4.5,7.8,0,0-1.1,10.5,3.4,62,2.2,22.4,3.7,38.1,4.5,44.8.4,2.6,2.6,4.9,5.2,4.9h77.7l29.1.4h0c2.6,0,4.9-2.2,5.6-4.9,6.7-61.6,8.2-96,8.2-96,0-3-2.2-5.6-5.6-6l-35.1-5.6c-5.6-1.1-9-4.5-10.1-8.6-.7-2.6-.4-5.6-.4-5.6,14.2-205.1,81.8-274.5,81.8-274.5,1.9-1.9,3.4-3,3.4-3,1.9-1.1,4.1-2.2,6.3-2.2,4.5,0,8.6,3,10.1,6.7,0,0,.4,1.5.7,4.9,6,64.6,3,174.4-.7,260-3,72.8-6.7,129.6-6.7,129.6h0c0,2.2,1.9,4.1,4.1,4.1h0c19,.4,38.1.7,58.3,1.1h.4c8.2,0,14.9-5.6,17.2-13.1,12.3-52.3,21.7-254,22.4-263,.7-7.1,6-13.1,12.7-14.9l51.2-9.7c7.5-1.9,13.4-9,13.4-17.2s-.7-5.2-1.5-7.5c-2.6-4.1-29.1-53.4-78.8-115"/>
</svg>