<?xml version="1.0" encoding="UTF-8"?>
<svg id="report" xmlns="http://www.w3.org/2000/svg" version="1.1" xmlns:xlink="http://www.w3.org/1999/xlink" viewBox="0 0 640.62 640.62">
  <defs>
    <style>
      .cls-1 {
        fill: #360061;
      }

      .cls-1, .cls-2, .cls-3, .cls-4, .cls-5, .cls-6, .cls-7, .cls-8, .cls-9, .cls-10 {
        stroke-width: 0px;
      }

      .cls-2 {
        fill: url(#linear-gradient);
      }

      .cls-3 {
        fill: url(#linear-gradient-6);
      }

      .cls-4 {
        fill: url(#linear-gradient-5);
      }

      .cls-5 {
        fill: #5800b2;
      }

      .cls-6 {
        fill: url(#linear-gradient-2);
      }

      .cls-7 {
        fill: url(#linear-gradient-7);
      }

      .cls-8 {
        fill: url(#linear-gradient-3);
      }

      .cls-9 {
        fill: url(#linear-gradient-8);
      }

      .cls-10 {
        fill: url(#linear-gradient-4);
      }
    </style>
    <linearGradient id="linear-gradient" x1="160.91" y1="-31.28" x2="572.56" y2="518.11" gradientUnits="userSpaceOnUse">
      <stop offset="0" stop-color="#efefef" stop-opacity=".2"/>
      <stop offset=".25" stop-color="#fafafa" stop-opacity=".1"/>
      <stop offset=".51" stop-color="#fff" stop-opacity="0"/>
      <stop offset=".93" stop-color="#fff" stop-opacity=".34"/>
      <stop offset="1" stop-color="#fff" stop-opacity=".4"/>
    </linearGradient>
    <linearGradient id="linear-gradient-2" x1="36.58" y1="61.88" x2="448.23" y2="611.27" xlink:href="#linear-gradient"/>
    <linearGradient id="linear-gradient-3" x1="-7.9" y1="95.2" x2="403.75" y2="644.6" xlink:href="#linear-gradient"/>
    <linearGradient id="linear-gradient-4" x1="136.77" y1="-13.19" x2="548.42" y2="536.2" xlink:href="#linear-gradient"/>
    <linearGradient id="linear-gradient-5" x1="92.15" y1="20.24" x2="503.8" y2="569.63" xlink:href="#linear-gradient"/>
    <linearGradient id="linear-gradient-6" x1="-69.69" y1="141.5" x2="341.97" y2="690.89" xlink:href="#linear-gradient"/>
    <linearGradient id="linear-gradient-7" x1="-108.07" y1="170.26" x2="303.59" y2="719.65" xlink:href="#linear-gradient"/>
    <linearGradient id="linear-gradient-8" x1="128.25" y1="-6.81" x2="539.9" y2="542.58" xlink:href="#linear-gradient"/>
  </defs>
  <g>
    <path class="cls-1" d="M454.64,330.71c0-11.65-.51-22.59.1-33.45,1.53-27.1-18.65-50.12-49.61-49.84-54.75.5-109.51.09-164.27.16-30.85.04-49.54,18.85-49.57,49.61,0,9.21,0,18.43,0,28.5-22.53-1.29-44.67,2.7-66.31-3.91-36.08-11.03-61.04-44.01-61.25-81.6-.22-39.17-.28-78.35,0-117.51.35-46.82,38.65-85.17,85.56-85.26,113.93-.22,227.87-.21,341.8,0,47.21.09,85.46,38.45,85.79,85.71.28,40.64.28,81.29,0,121.94-.33,47.38-38.34,85.15-85.77,85.66-11.93.13-23.87.02-36.46.02ZM288.85,156.69c-.02-13.61-3.26-26.12-9.21-35.59-14.38-22.9-43.91-23.22-57.41.21-13.4,23.25-13.4,47.74-.1,71.03,13.57,23.75,43.46,23.37,57.7,0,6.65-10.92,9.08-22.98,9.02-35.63ZM152.52,167.8h24.34c0,2.87-.01,5.36,0,7.85.04,8-.18,16.01.21,23.99.32,6.35,4.84,10.13,10.79,9.86,5.64-.26,9.78-4.18,9.81-10.26.14-28.21.14-56.42.01-84.63-.03-6.39-4.31-10.44-10.21-10.51-5.94-.08-9.95,3.76-10.5,10.25-.23,2.72-.12,5.47-.12,8.21-.01,7.73,0,15.46,0,23.2h-24.34c0-10.13.08-19.78-.03-29.43-.09-7.82-4.06-12.21-10.6-12.07-6.28.13-10.04,4.44-10.1,11.92-.09,10.74-.03,21.47-.03,32.21,0,16.63-.08,33.26.05,49.89.06,7.66,5.06,12.14,11.96,11.17,5.45-.76,8.63-4.67,8.71-11.29.13-10.04.03-20.09.03-30.36ZM392.13,126.44c10.06,0,19.71.23,29.35-.08,6.72-.22,10.97-4.87,10.73-10.79-.23-5.69-4.58-9.92-10.88-9.98-13.27-.14-26.54-.16-39.8.02-6.6.09-10.63,4.11-10.66,10.76-.13,28.01-.12,56.02-.02,84.03.02,6.61,3.94,10.93,10.46,11.07,13.26.29,26.54.28,39.8,0,6.28-.13,10.45-4.74,10.45-10.45,0-5.71-4.15-9.97-10.44-10.52-2.3-.2-4.63-.07-6.95-.07-7.29,0-14.59,0-21.95,0v-19.83c9.33,0,18.15.07,26.97-.02,8.32-.09,13.09-3.96,13.12-10.4.03-6.47-4.83-10.4-13.02-10.43-8.98-.04-17.96,0-27.17,0v-23.28ZM314.66,124.75c0,3.25,0,5.52,0,7.8,0,21.03-.02,42.05.01,63.08.02,9.34,3.71,14.09,10.66,13.96,6.75-.13,10.2-4.74,10.21-13.73.02-21.24,0-42.48,0-63.71,0-2.24,0-4.49,0-6.4,1.12-.5,1.49-.81,1.86-.81,5.25-.08,10.51-.06,15.76-.19,7.33-.18,11.58-4.1,11.52-10.47-.06-6.12-4.19-10.16-11.13-10.21-18.92-.14-37.85-.13-56.77,0-7.11.05-11.69,4.52-11.5,10.62.18,5.87,4.67,9.9,11.45,10.05,5.65.13,11.31.03,17.93.03ZM466.91,188.92c0-2.88,0-5.13,0-7.39,0-21.69.04-43.38-.02-65.06-.02-7.87-3.87-12.3-10.4-12.34-6.52-.04-10.57,4.34-10.6,12.2-.11,26.95-.11,53.9,0,80.85.03,8.65,3.79,12.44,12.29,12.52,14.53.14,29.06.09,43.58-.01,2.25-.02,4.74-.3,6.71-1.29,4.74-2.39,6.39-6.69,5.15-11.7-1.26-5.1-4.93-7.73-10.18-7.76-11.95-.08-23.89-.02-36.53-.02Z"/>
    <path class="cls-5" d="M251.91,603.27h-39.76c0-2.44,0-4.7,0-6.96,0-99.62,0-199.24,0-298.86,0-19.42,9.34-28.81,28.54-28.81,55.18-.01,110.36-.02,165.54,0,17.51,0,27.59,9.9,27.59,27.28.04,100.46.02,200.93.02,301.39v5.9h-39.95c0-2.35,0-4.77,0-7.18,0-44.02,0-88.04,0-132.06,0-12.12-2.71-14.81-14.85-14.82-37.07,0-74.14,0-111.2,0-13.5,0-15.94,2.39-15.94,15.65,0,43.39,0,86.77,0,130.16v8.32ZM365.87,330c0,3.78,0,7.56,0,11.33,0,.42,0,.84.03,1.26.51,6.14,4.81,10.52,10.38,10.59,5.32.06,10.15-3.92,10.45-9.75.45-8.79.46-17.63.04-26.43-.29-6.17-5.27-10.21-10.89-9.91-5.65.31-9.68,4.62-9.96,10.94-.18,3.98-.03,7.97-.04,11.96ZM279.89,330.23c0-3.78,0-7.55,0-11.33,0-.42,0-.84-.02-1.26-.42-6.17-4.64-10.49-10.3-10.57-5.46-.07-10.09,3.79-10.37,9.72-.41,8.79-.41,17.62-.03,26.41.27,6.17,5.19,10.27,10.8,9.96,5.61-.31,9.66-4.7,9.89-10.98.15-3.98.03-7.97.04-11.96ZM365.92,400.96s-.02,0-.02,0c0,4.21-.19,8.43.04,12.63.35,6.28,4.64,10.47,10.38,10.52,5.48.04,10.13-3.79,10.42-9.75.43-8.82.45-17.69-.01-26.51-.32-5.99-4.95-9.62-10.58-9.5-5.62.12-9.75,3.97-10.17,9.98-.29,4.19-.06,8.42-.06,12.63ZM279.86,400.73s-.01,0-.02,0c0-4.21.22-8.43-.05-12.62-.37-5.67-4.33-9.44-9.69-9.73-5.76-.31-10.48,3.15-10.81,9.1-.49,9.02-.48,18.09-.06,27.12.27,5.94,4.97,9.68,10.53,9.51,5.54-.17,9.72-4.19,10.05-10.12.25-4.41.05-8.84.05-13.26ZM333.2,330.21s.01,0,.02,0c0-4.4.22-8.82-.05-13.21-.37-5.87-4.65-9.87-10.15-9.93-5.46-.06-10.14,4-10.33,9.73-.29,8.8-.28,17.62-.02,26.42.18,5.79,4.7,9.89,10.15,9.94,5.48.06,9.9-3.9,10.32-9.76.31-4.38.06-8.8.06-13.21ZM333.24,401.33s-.02,0-.03,0c0-4.42.24-8.85-.06-13.25-.4-6-4.57-9.74-10.28-9.72-5.7.02-10.02,3.83-10.21,9.78-.28,8.62-.26,17.25-.02,25.87.17,5.96,4.4,9.94,9.98,10.09,5.85.16,10.19-3.86,10.57-10.16.25-4.19.05-8.41.05-12.62Z"/>
    <path class="cls-1" d="M372.72,603.39h-99.46v-133.14h99.46v133.14Z"/>
    <path class="cls-5" d="M562.94,491.4h-107.83v-107.84c1.23.57,2.55.94,3.58,1.71,25.04,18.86,50.1,37.69,75.05,56.67,15.16,11.54,24.66,26.77,28.67,45.4.26,1.19.32,2.41.53,4.06Z"/>
    <path class="cls-5" d="M535.41,513.09v90.1h-80.41v-90.1h80.41ZM484.7,557.73s.02,0,.02,0c0,4.42-.24,8.86.06,13.26.4,5.98,4.56,9.88,10.15,10.01,5.62.12,10.27-3.51,10.6-9.48.48-8.81.46-17.69.03-26.51-.29-5.98-4.89-9.78-10.41-9.75-5.78.03-10.04,4.17-10.4,10.47-.23,3.99-.04,8-.04,12Z"/>
    <path class="cls-5" d="M103.59,475.58c28.36-28.9,57.7-58.8,87.37-89.03v89.03h-87.37Z"/>
    <path class="cls-5" d="M123.08,550.43v-52.77h67.87v52.77h-67.87ZM167.32,524.39s.03,0,.05,0c0-2.09.1-4.19-.02-6.28-.36-6.3-4.38-10.47-10.12-10.63-5.77-.16-10.21,3.75-10.64,10.05-.33,4.78-.34,9.66.22,14.41.65,5.59,5.03,8.89,10.47,8.72,5.36-.16,9.41-3.85,10.01-9.37.25-2.28.04-4.6.04-6.9Z"/>
    <path class="cls-1" d="M232.26,156.92c2.41-8.16,3.67-16.44,7.25-23.55,5.63-11.21,17.02-11.17,22.85-.04,8.11,15.49,8.1,31.69-.02,47.18-5.86,11.16-17.15,11.2-22.8-.04-3.58-7.11-4.84-15.39-7.26-23.54Z"/>
  </g>
  <g>
    <path class="cls-2" d="M454.64,330.71c0-11.65-.51-22.59.1-33.45,1.53-27.1-18.65-50.12-49.61-49.84-54.75.5-109.51.09-164.27.16-30.85.04-49.54,18.85-49.57,49.61,0,9.21,0,18.43,0,28.5-22.53-1.29-44.67,2.7-66.31-3.91-36.08-11.03-61.04-44.01-61.25-81.6-.22-39.17-.28-78.35,0-117.51.35-46.82,38.65-85.17,85.56-85.26,113.93-.22,227.87-.21,341.8,0,47.21.09,85.46,38.45,85.79,85.71.28,40.64.28,81.29,0,121.94-.33,47.38-38.34,85.15-85.77,85.66-11.93.13-23.87.02-36.46.02ZM288.85,156.69c-.02-13.61-3.26-26.12-9.21-35.59-14.38-22.9-43.91-23.22-57.41.21-13.4,23.25-13.4,47.74-.1,71.03,13.57,23.75,43.46,23.37,57.7,0,6.65-10.92,9.08-22.98,9.02-35.63ZM152.52,167.8h24.34c0,2.87-.01,5.36,0,7.85.04,8-.18,16.01.21,23.99.32,6.35,4.84,10.13,10.79,9.86,5.64-.26,9.78-4.18,9.81-10.26.14-28.21.14-56.42.01-84.63-.03-6.39-4.31-10.44-10.21-10.51-5.94-.08-9.95,3.76-10.5,10.25-.23,2.72-.12,5.47-.12,8.21-.01,7.73,0,15.46,0,23.2h-24.34c0-10.13.08-19.78-.03-29.43-.09-7.82-4.06-12.21-10.6-12.07-6.28.13-10.04,4.44-10.1,11.92-.09,10.74-.03,21.47-.03,32.21,0,16.63-.08,33.26.05,49.89.06,7.66,5.06,12.14,11.96,11.17,5.45-.76,8.63-4.67,8.71-11.29.13-10.04.03-20.09.03-30.36ZM392.13,126.44c10.06,0,19.71.23,29.35-.08,6.72-.22,10.97-4.87,10.73-10.79-.23-5.69-4.58-9.92-10.88-9.98-13.27-.14-26.54-.16-39.8.02-6.6.09-10.63,4.11-10.66,10.76-.13,28.01-.12,56.02-.02,84.03.02,6.61,3.94,10.93,10.46,11.07,13.26.29,26.54.28,39.8,0,6.28-.13,10.45-4.74,10.45-10.45,0-5.71-4.15-9.97-10.44-10.52-2.3-.2-4.63-.07-6.95-.07-7.29,0-14.59,0-21.95,0v-19.83c9.33,0,18.15.07,26.97-.02,8.32-.09,13.09-3.96,13.12-10.4.03-6.47-4.83-10.4-13.02-10.43-8.98-.04-17.96,0-27.17,0v-23.28ZM314.66,124.75c0,3.25,0,5.52,0,7.8,0,21.03-.02,42.05.01,63.08.02,9.34,3.71,14.09,10.66,13.96,6.75-.13,10.2-4.74,10.21-13.73.02-21.24,0-42.48,0-63.71,0-2.24,0-4.49,0-6.4,1.12-.5,1.49-.81,1.86-.81,5.25-.08,10.51-.06,15.76-.19,7.33-.18,11.58-4.1,11.52-10.47-.06-6.12-4.19-10.16-11.13-10.21-18.92-.14-37.85-.13-56.77,0-7.11.05-11.69,4.52-11.5,10.62.18,5.87,4.67,9.9,11.45,10.05,5.65.13,11.31.03,17.93.03ZM466.91,188.92c0-2.88,0-5.13,0-7.39,0-21.69.04-43.38-.02-65.06-.02-7.87-3.87-12.3-10.4-12.34-6.52-.04-10.57,4.34-10.6,12.2-.11,26.95-.11,53.9,0,80.85.03,8.65,3.79,12.44,12.29,12.52,14.53.14,29.06.09,43.58-.01,2.25-.02,4.74-.3,6.71-1.29,4.74-2.39,6.39-6.69,5.15-11.7-1.26-5.1-4.93-7.73-10.18-7.76-11.95-.08-23.89-.02-36.53-.02Z"/>
    <path class="cls-6" d="M251.91,603.27h-39.76c0-2.44,0-4.7,0-6.96,0-99.62,0-199.24,0-298.86,0-19.42,9.34-28.81,28.54-28.81,55.18-.01,110.36-.02,165.54,0,17.51,0,27.59,9.9,27.59,27.28.04,100.46.02,200.93.02,301.39v5.9h-39.95c0-2.35,0-4.77,0-7.18,0-44.02,0-88.04,0-132.06,0-12.12-2.71-14.81-14.85-14.82-37.07,0-74.14,0-111.2,0-13.5,0-15.94,2.39-15.94,15.65,0,43.39,0,86.77,0,130.16v8.32ZM365.87,330c0,3.78,0,7.56,0,11.33,0,.42,0,.84.03,1.26.51,6.14,4.81,10.52,10.38,10.59,5.32.06,10.15-3.92,10.45-9.75.45-8.79.46-17.63.04-26.43-.29-6.17-5.27-10.21-10.89-9.91-5.65.31-9.68,4.62-9.96,10.94-.18,3.98-.03,7.97-.04,11.96ZM279.89,330.23c0-3.78,0-7.55,0-11.33,0-.42,0-.84-.02-1.26-.42-6.17-4.64-10.49-10.3-10.57-5.46-.07-10.09,3.79-10.37,9.72-.41,8.79-.41,17.62-.03,26.41.27,6.17,5.19,10.27,10.8,9.96,5.61-.31,9.66-4.7,9.89-10.98.15-3.98.03-7.97.04-11.96ZM365.92,400.96s-.02,0-.02,0c0,4.21-.19,8.43.04,12.63.35,6.28,4.64,10.47,10.38,10.52,5.48.04,10.13-3.79,10.42-9.75.43-8.82.45-17.69-.01-26.51-.32-5.99-4.95-9.62-10.58-9.5-5.62.12-9.75,3.97-10.17,9.98-.29,4.19-.06,8.42-.06,12.63ZM279.86,400.73s-.01,0-.02,0c0-4.21.22-8.43-.05-12.62-.37-5.67-4.33-9.44-9.69-9.73-5.76-.31-10.48,3.15-10.81,9.1-.49,9.02-.48,18.09-.06,27.12.27,5.94,4.97,9.68,10.53,9.51,5.54-.17,9.72-4.19,10.05-10.12.25-4.41.05-8.84.05-13.26ZM333.2,330.21s.01,0,.02,0c0-4.4.22-8.82-.05-13.21-.37-5.87-4.65-9.87-10.15-9.93-5.46-.06-10.14,4-10.33,9.73-.29,8.8-.28,17.62-.02,26.42.18,5.79,4.7,9.89,10.15,9.94,5.48.06,9.9-3.9,10.32-9.76.31-4.38.06-8.8.06-13.21ZM333.24,401.33s-.02,0-.03,0c0-4.42.24-8.85-.06-13.25-.4-6-4.57-9.74-10.28-9.72-5.7.02-10.02,3.83-10.21,9.78-.28,8.62-.26,17.25-.02,25.87.17,5.96,4.4,9.94,9.98,10.09,5.85.16,10.19-3.86,10.57-10.16.25-4.19.05-8.41.05-12.62Z"/>
    <path class="cls-8" d="M372.72,603.39h-99.46v-133.14h99.46v133.14Z"/>
    <path class="cls-10" d="M562.94,491.4h-107.83v-107.84c1.23.57,2.55.94,3.58,1.71,25.04,18.86,50.1,37.69,75.05,56.67,15.16,11.54,24.66,26.77,28.67,45.4.26,1.19.32,2.41.53,4.06Z"/>
    <path class="cls-4" d="M535.41,513.09v90.1h-80.41v-90.1h80.41ZM484.7,557.73s.02,0,.02,0c0,4.42-.24,8.86.06,13.26.4,5.98,4.56,9.88,10.15,10.01,5.62.12,10.27-3.51,10.6-9.48.48-8.81.46-17.69.03-26.51-.29-5.98-4.89-9.78-10.41-9.75-5.78.03-10.04,4.17-10.4,10.47-.23,3.99-.04,8-.04,12Z"/>
    <path class="cls-3" d="M103.59,475.58c28.36-28.9,57.7-58.8,87.37-89.03v89.03h-87.37Z"/>
    <path class="cls-7" d="M123.08,550.43v-52.77h67.87v52.77h-67.87ZM167.32,524.39s.03,0,.05,0c0-2.09.1-4.19-.02-6.28-.36-6.3-4.38-10.47-10.12-10.63-5.77-.16-10.21,3.75-10.64,10.05-.33,4.78-.34,9.66.22,14.41.65,5.59,5.03,8.89,10.47,8.72,5.36-.16,9.41-3.85,10.01-9.37.25-2.28.04-4.6.04-6.9Z"/>
    <path class="cls-9" d="M232.26,156.92c2.41-8.16,3.67-16.44,7.25-23.55,5.63-11.21,17.02-11.17,22.85-.04,8.11,15.49,8.1,31.69-.02,47.18-5.86,11.16-17.15,11.2-22.8-.04-3.58-7.11-4.84-15.39-7.26-23.54Z"/>
  </g>
</svg>