<?xml version="1.0" encoding="UTF-8"?>
<svg id="report" xmlns="http://www.w3.org/2000/svg" version="1.1" xmlns:xlink="http://www.w3.org/1999/xlink" viewBox="0 0 640.62 640.62">
  <defs>
    <style>
      .cls-1 {
        fill: #360061;
      }

      .cls-1, .cls-2, .cls-3, .cls-4, .cls-5, .cls-6 {
        stroke-width: 0px;
      }

      .cls-2 {
        fill: url(#linear-gradient);
      }

      .cls-3 {
        fill: #5800b2;
      }

      .cls-4 {
        fill: url(#linear-gradient-2);
      }

      .cls-5 {
        fill: url(#linear-gradient-3);
      }

      .cls-6 {
        fill: url(#linear-gradient-4);
      }
    </style>
    <linearGradient id="linear-gradient" x1="59.81" y1="26.28" x2="501.21" y2="481.76" gradientUnits="userSpaceOnUse">
      <stop offset="0" stop-color="#fff" stop-opacity=".4"/>
      <stop offset=".07" stop-color="#fff" stop-opacity=".34"/>
      <stop offset=".49" stop-color="#fff" stop-opacity="0"/>
      <stop offset=".75" stop-color="#fafafa" stop-opacity=".1"/>
      <stop offset="1" stop-color="#efefef" stop-opacity=".2"/>
    </linearGradient>
    <linearGradient id="linear-gradient-2" x1="59.19" y1="26.89" x2="500.58" y2="482.37" xlink:href="#linear-gradient"/>
    <linearGradient id="linear-gradient-3" x1="-99.77" y1="180.93" x2="341.62" y2="636.41" xlink:href="#linear-gradient"/>
    <linearGradient id="linear-gradient-4" x1="159.49" y1="-70.31" x2="600.88" y2="385.17" xlink:href="#linear-gradient"/>
  </defs>
  <g>
    <path class="cls-1" d="M575.86,532.89c-1.85,2.47-3.35,5.33-5.63,7.32-4.5,3.93-9.88,4.69-15.36,2.12-5.6-2.62-8.61-7.26-8.88-13.4-.23-5.46-.05-10.94-.05-17.19h-6.53c-70.68,0-141.36-.01-212.05.04-3.23,0-5.37-.25-6.62-4.07-10.42-31.9-29.68-57.25-57.35-76.23-.82-.56-1.57-1.2-2.72-2.08,21.99-27.52,28.84-58.51,20.83-93.12h6.3c89.31,0,178.62.09,267.93-.14,9.27-.02,16.13,2.47,20.12,11.11v185.64Z"/>
    <path class="cls-1" d="M271.46,64.8c8.06,3.28,16.91,5.37,24.04,10.08,16.08,10.62,23.67,26.53,23.8,45.78.15,23.44-.04,46.89.15,70.34.02,2.77.96,5.91,2.46,8.23,8.29,12.85,16.82,25.53,25.39,38.19,3.79,5.6,5.62,11.33,2.2,17.72-3.42,6.37-9.25,8.07-15.97,8.06-70.67-.02-141.34.11-212.01-.06-33.16-.08-56.59-24.01-56.65-57.24-.04-27.77.36-55.54-.1-83.3-.54-32.59,23.29-54.17,46.74-57.07.44-.05.84-.47,1.26-.72,52.9,0,105.79,0,158.69,0ZM192.16,150.72s0,.03,0,.05c15.44,0,30.89.04,46.33-.01,9.86-.04,16.47-5.93,16.64-14.66.17-8.5-6.7-15.17-16.3-15.21-31.22-.12-62.44-.13-93.66.08-3.3.02-6.94,1.21-9.79,2.92-5.43,3.26-7.49,10.12-5.69,16.19,1.81,6.12,7.34,10.53,14.14,10.59,16.11.16,32.22.05,48.33.05ZM168.1,206.69c0,.09,0,.18,0,.27,7.14,0,14.27.08,21.41-.04,2.46-.04,5.04-.2,7.35-.95,6.86-2.22,10.73-8.67,9.91-15.94-.74-6.63-5.8-12.4-12.71-12.56-17.4-.41-34.82-.15-52.24-.07-1.27,0-2.61.51-3.81,1.02-6.02,2.58-9.73,9.01-8.88,15.24.94,6.91,6.13,12.54,13.1,12.92,8.6.47,17.24.11,25.87.11Z"/>
    <path class="cls-3" d="M172.13,436.01c-48.61-7.53-67.93-51.8-63.48-83.27,4.72-33.35,33.45-61.03,67.24-63.24,35.62-2.32,67.99,20.52,76.5,54.18,5.47,21.61,2.31,41.97-10.27,60.45-12.4,18.21-30.06,28.43-51.8,32.09,19.51,2.02,37.59,7.66,53.79,18.36,31.91,21.09,49.99,50.67,53.51,88.91.4,4.3.69,8.64.6,12.95-.24,11.8-7.79,19.33-19.54,19.34-64.68.05-129.37.05-194.05,0-12.23,0-19.7-7.74-19.76-20.09-.25-51.95,31.51-96.92,80.69-113.53,8.73-2.95,18.02-4.22,26.58-6.15Z"/>
    <path class="cls-3" d="M361.79,305.06c9.58-48.23,38.27-75.87,86.9-83.83-41.66-7.91-57.18-42.55-53.9-68.5,4.18-33.09,31.21-56.8,63.24-55.86,32.33.95,58.82,26.25,60.79,58.07,2.02,32.66-20.31,60.26-54.72,66.18,49.17,8.06,77.85,35.77,87.47,83.95h-189.78Z"/>
  </g>
  <g>
    <path class="cls-2" d="M575.86,532.89c-1.85,2.47-3.35,5.33-5.63,7.32-4.5,3.93-9.88,4.69-15.36,2.12-5.6-2.62-8.61-7.26-8.88-13.4-.23-5.46-.05-10.94-.05-17.19h-6.53c-70.68,0-141.36-.01-212.05.04-3.23,0-5.37-.25-6.62-4.07-10.42-31.9-29.68-57.25-57.35-76.23-.82-.56-1.57-1.2-2.72-2.08,21.99-27.52,28.84-58.51,20.83-93.12h6.3c89.31,0,178.62.09,267.93-.14,9.27-.02,16.13,2.47,20.12,11.11v185.64Z"/>
    <path class="cls-4" d="M271.46,64.8c8.06,3.28,16.91,5.37,24.04,10.08,16.08,10.62,23.67,26.53,23.8,45.78.15,23.44-.04,46.89.15,70.34.02,2.77.96,5.91,2.46,8.23,8.29,12.85,16.82,25.53,25.39,38.19,3.79,5.6,5.62,11.33,2.2,17.72-3.42,6.37-9.25,8.07-15.97,8.06-70.67-.02-141.34.11-212.01-.06-33.16-.08-56.59-24.01-56.65-57.24-.04-27.77.36-55.54-.1-83.3-.54-32.59,23.29-54.17,46.74-57.07.44-.05.84-.47,1.26-.72,52.9,0,105.79,0,158.69,0ZM192.16,150.72s0,.03,0,.05c15.44,0,30.89.04,46.33-.01,9.86-.04,16.47-5.93,16.64-14.66.17-8.5-6.7-15.17-16.3-15.21-31.22-.12-62.44-.13-93.66.08-3.3.02-6.94,1.21-9.79,2.92-5.43,3.26-7.49,10.12-5.69,16.19,1.81,6.12,7.34,10.53,14.14,10.59,16.11.16,32.22.05,48.33.05ZM168.1,206.69c0,.09,0,.18,0,.27,7.14,0,14.27.08,21.41-.04,2.46-.04,5.04-.2,7.35-.95,6.86-2.22,10.73-8.67,9.91-15.94-.74-6.63-5.8-12.4-12.71-12.56-17.4-.41-34.82-.15-52.24-.07-1.27,0-2.61.51-3.81,1.02-6.02,2.58-9.73,9.01-8.88,15.24.94,6.91,6.13,12.54,13.1,12.92,8.6.47,17.24.11,25.87.11Z"/>
    <path class="cls-5" d="M172.13,436.01c-48.61-7.53-67.93-51.8-63.48-83.27,4.72-33.35,33.45-61.03,67.24-63.24,35.62-2.32,67.99,20.52,76.5,54.18,5.47,21.61,2.31,41.97-10.27,60.45-12.4,18.21-30.06,28.43-51.8,32.09,19.51,2.02,37.59,7.66,53.79,18.36,31.91,21.09,49.99,50.67,53.51,88.91.4,4.3.69,8.64.6,12.95-.24,11.8-7.79,19.33-19.54,19.34-64.68.05-129.37.05-194.05,0-12.23,0-19.7-7.74-19.76-20.09-.25-51.95,31.51-96.92,80.69-113.53,8.73-2.95,18.02-4.22,26.58-6.15Z"/>
    <path class="cls-6" d="M361.79,305.06c9.58-48.23,38.27-75.87,86.9-83.83-41.66-7.91-57.18-42.55-53.9-68.5,4.18-33.09,31.21-56.8,63.24-55.86,32.33.95,58.82,26.25,60.79,58.07,2.02,32.66-20.31,60.26-54.72,66.18,49.17,8.06,77.85,35.77,87.47,83.95h-189.78Z"/>
  </g>
</svg>