<?xml version="1.0" encoding="UTF-8"?>
<svg id="report" xmlns="http://www.w3.org/2000/svg" version="1.1" xmlns:xlink="http://www.w3.org/1999/xlink" viewBox="0 0 640.6 640.6">
  <defs>
    <style>
      .cls-1, .cls-2, .cls-3, .cls-4, .cls-5, .cls-6, .cls-7, .cls-8, .cls-9, .cls-10 {
        stroke-width: 0px;
      }

      .cls-1, .cls-10 {
        fill: url(#linear-gradient);
      }

      .cls-2 {
        fill: url(#linear-gradient-6);
      }

      .cls-3 {
        fill: #3dbb3d;
      }

      .cls-4 {
        fill: url(#linear-gradient-3);
      }

      .cls-4, .cls-5, .cls-9, .cls-10 {
        fill-opacity: 0;
      }

      .cls-5 {
        fill: url(#linear-gradient-7);
      }

      .cls-6 {
        fill: url(#linear-gradient-2);
      }

      .cls-7 {
        fill: url(#linear-gradient-8);
      }

      .cls-8 {
        fill: url(#linear-gradient-4);
      }

      .cls-9 {
        fill: url(#linear-gradient-5);
      }
    </style>
    <linearGradient id="linear-gradient" x1="10.1" y1="330.6" x2="688.6" y2="272" gradientUnits="userSpaceOnUse">
      <stop offset="0" stop-color="#fff" stop-opacity=".4"/>
      <stop offset="0" stop-color="#fff" stop-opacity=".3"/>
      <stop offset=".5" stop-color="#fff" stop-opacity="0"/>
      <stop offset=".8" stop-color="#fafafa" stop-opacity=".1"/>
      <stop offset="1" stop-color="#efefef" stop-opacity=".2"/>
    </linearGradient>
    <linearGradient id="linear-gradient-2" x1="10.8" y1="339.2" x2="689.4" y2="280.5" xlink:href="#linear-gradient"/>
    <linearGradient id="linear-gradient-3" x1="10.8" y1="339.2" x2="689.4" y2="280.5" xlink:href="#linear-gradient"/>
    <linearGradient id="linear-gradient-4" x1="11.8" y1="349.8" x2="690.3" y2="291.1" xlink:href="#linear-gradient"/>
    <linearGradient id="linear-gradient-5" x1="11.8" y1="349.8" x2="690.3" y2="291.1" xlink:href="#linear-gradient"/>
    <linearGradient id="linear-gradient-6" x1="12.7" y1="360.7" x2="691.2" y2="302" xlink:href="#linear-gradient"/>
    <linearGradient id="linear-gradient-7" x1="12.7" y1="360.7" x2="691.2" y2="302" xlink:href="#linear-gradient"/>
    <linearGradient id="linear-gradient-8" x1="19.1" y1="320.3" x2="621.5" y2="320.3" xlink:href="#linear-gradient"/>
  </defs>
  <g>
    <path id="g5jjnq26yS" class="cls-1" d="M91.8,229.5h47.8v184h-47.8v-184Z"/>
    <path id="g5jjnq26yS-2" data-name="g5jjnq26yS" class="cls-10" d="M91.8,229.5h47.8v184h-47.8v-184Z"/>
  </g>
  <g>
    <path id="i3Prh1JpXt" class="cls-6" d="M229.9,314.3c-4.1-28-6.4-43.6-6.8-46.7-2-15-3.9-28.1-5.7-39.2h-62v184h41.9v-121.5c.1,0,17.8,121.5,17.8,121.5h29.8l16.7-124.2.2,124.2h41.7v-184h-62.4l-11.1,86Z"/>
    <path id="i3Prh1JpXt-2" data-name="i3Prh1JpXt" class="cls-4" d="M229.9,314.3c-4.1-28-6.4-43.6-6.8-46.7-2-15-3.9-28.1-5.7-39.2h-62v184h41.9v-121.5c.1,0,17.8,121.5,17.8,121.5h29.8l16.7-124.2.2,124.2h41.7v-184h-62.4l-11.1,86Z"/>
  </g>
  <g>
    <path id="a4ov9rRGQm" class="cls-8" d="M382.3,266.6c.5,2.3.8,7.7.8,16v71.3c0,12.2-.8,19.7-2.4,22.5-1.6,2.8-5.8,4.1-12.7,4.1v-120.8c5.2,0,8.8.6,10.6,1.6,1.9,1.1,3.1,2.8,3.6,5.2ZM403.9,410.4c5.7-1.2,10.5-3.4,14.3-6.6,3.9-3.1,6.6-7.5,8.1-13.1,1.6-5.6,2.5-16.6,2.5-33.1v-64.6c0-17.4-.7-29.1-1.7-35-1.1-5.9-3.7-11.3-8-16.2-4.3-4.8-10.5-8.3-18.6-10.4-8.2-2.1-21.5-3.2-44.6-3.2h-35.7v184h57.9c13.3-.4,21.9-1,25.7-1.9Z"/>
    <path id="a4ov9rRGQm-2" data-name="a4ov9rRGQm" class="cls-9" d="M382.3,266.6c.5,2.3.8,7.7.8,16v71.3c0,12.2-.8,19.7-2.4,22.5-1.6,2.8-5.8,4.1-12.7,4.1v-120.8c5.2,0,8.8.6,10.6,1.6,1.9,1.1,3.1,2.8,3.6,5.2ZM403.9,410.4c5.7-1.2,10.5-3.4,14.3-6.6,3.9-3.1,6.6-7.5,8.1-13.1,1.6-5.6,2.5-16.6,2.5-33.1v-64.6c0-17.4-.7-29.1-1.7-35-1.1-5.9-3.7-11.3-8-16.2-4.3-4.8-10.5-8.3-18.6-10.4-8.2-2.1-21.5-3.2-44.6-3.2h-35.7v184h57.9c13.3-.4,21.9-1,25.7-1.9Z"/>
  </g>
  <g>
    <path id="fk968BpsX" class="cls-2" d="M506,382.9c-.9,2.3-4.7,3.5-7.6,3.5s-4.7-1.1-5.7-3.4c-1-2.3-1.4-7.4-1.4-15.5v-48.6c0-8.4.4-13.6,1.3-15.7.8-2.1,2.7-3.1,5.5-3.1s6.8,1.2,7.8,3.6c1,2.4,1.5,7.5,1.5,15.2v47.1c-.3,9.7-.7,15.3-1.3,16.9ZM445.2,410.7h43c1.8-7,2.8-10.9,3-11.7,3.9,4.7,8.2,8.3,12.9,10.6,4.7,2.4,11.7,3.5,17.1,3.5s14.1-2,19.6-6c5.5-4,9-8.7,10.5-14,1.5-5.4,2.2-13.6,2.2-24.7v-51.6c0-11.1-.3-18.4-.7-21.8s-2-6.9-4.4-10.4c-2.4-3.6-6-6.3-10.6-8.3-4.7-2-10.1-3-16.5-3s-12.5,1.1-17.2,3.3c-4.7,2.2-8.9,5.5-12.7,9.9v-59.9h-46v184Z"/>
    <path id="fk968BpsX-2" data-name="fk968BpsX" class="cls-5" d="M506,382.9c-.9,2.3-4.7,3.5-7.6,3.5s-4.7-1.1-5.7-3.4c-1-2.3-1.4-7.4-1.4-15.5v-48.6c0-8.4.4-13.6,1.3-15.7.8-2.1,2.7-3.1,5.5-3.1s6.8,1.2,7.8,3.6c1,2.4,1.5,7.5,1.5,15.2v47.1c-.3,9.7-.7,15.3-1.3,16.9ZM445.2,410.7h43c1.8-7,2.8-10.9,3-11.7,3.9,4.7,8.2,8.3,12.9,10.6,4.7,2.4,11.7,3.5,17.1,3.5s14.1-2,19.6-6c5.5-4,9-8.7,10.5-14,1.5-5.4,2.2-13.6,2.2-24.7v-51.6c0-11.1-.3-18.4-.7-21.8s-2-6.9-4.4-10.4c-2.4-3.6-6-6.3-10.6-8.3-4.7-2-10.1-3-16.5-3s-12.5,1.1-17.2,3.3c-4.7,2.2-8.9,5.5-12.7,9.9v-59.9h-46v184Z"/>
  </g>
  <g id="layer1">
    <path id="path4" class="cls-3" d="M153.1,295.2c10,8.1,15,20.8,15,38v86.4h-47.5v-80.1c0-3.5-1.3-6.5-3.9-9.2-2.6-2.6-5.7-3.9-9.2-3.9h-27.7c-3.5,0-6.5,1.3-9,3.9-2.5,2.6-3.7,5.7-3.7,9.2v80.1H19.1v-198.7h47.9v64.7c.7-.2,2.5-.7,5.2-1.5,2.7-.7,6.4-1.1,10.8-1.1h30.7c16.2,0,29.3,4.1,39.3,12.2ZM303.8,283.1h47.9v83.8c0,15.7-4.3,28.4-12.9,38.2-8.6,9.7-20.3,14.6-35,14.6h-47.1c-16.5,0-29.6-4.5-39.5-13.7-9.9-9.1-14.8-22.1-14.8-39.1v-83.8h47.9v80.1c0,3.5,1.2,6.5,3.7,9,2.5,2.5,5.5,3.7,9,3.7h27.7c3.5,0,6.5-1.2,9.2-3.7,2.6-2.5,3.9-5.5,3.9-9v-80.1ZM388,221h47.9v198.7h-47.9v-198.7ZM621.5,283.1v83.8c0,15.7-4.3,28.4-12.9,38.2-8.6,9.7-20.3,14.6-35,14.6h-46.8c-16.7,0-30-4.5-39.8-13.7-9.9-9.1-14.8-22.1-14.8-39.1v-83.8h47.9v80.1c0,3.5,1.2,6.5,3.7,9,2.5,2.5,5.5,3.7,9,3.7h28.1c3.5,0,6.5-1.2,9-3.7,2.5-2.5,3.7-5.5,3.7-9v-80.1h47.9Z"/>
  </g>
  <g id="layer1-2" data-name="layer1">
    <path id="path4-2" data-name="path4" class="cls-7" d="M153.1,295.2c10,8.1,15,20.8,15,38v86.4h-47.5v-80.1c0-3.5-1.3-6.5-3.9-9.2-2.6-2.6-5.7-3.9-9.2-3.9h-27.7c-3.5,0-6.5,1.3-9,3.9-2.5,2.6-3.7,5.7-3.7,9.2v80.1H19.1v-198.7h47.9v64.7c.7-.2,2.5-.7,5.2-1.5,2.7-.7,6.4-1.1,10.8-1.1h30.7c16.2,0,29.3,4.1,39.3,12.2ZM303.8,283.1h47.9v83.8c0,15.7-4.3,28.4-12.9,38.2-8.6,9.7-20.3,14.6-35,14.6h-47.1c-16.5,0-29.6-4.5-39.5-13.7-9.9-9.1-14.8-22.1-14.8-39.1v-83.8h47.9v80.1c0,3.5,1.2,6.5,3.7,9,2.5,2.5,5.5,3.7,9,3.7h27.7c3.5,0,6.5-1.2,9.2-3.7,2.6-2.5,3.9-5.5,3.9-9v-80.1ZM388,221h47.9v198.7h-47.9v-198.7ZM621.5,283.1v83.8c0,15.7-4.3,28.4-12.9,38.2-8.6,9.7-20.3,14.6-35,14.6h-46.8c-16.7,0-30-4.5-39.8-13.7-9.9-9.1-14.8-22.1-14.8-39.1v-83.8h47.9v80.1c0,3.5,1.2,6.5,3.7,9,2.5,2.5,5.5,3.7,9,3.7h28.1c3.5,0,6.5-1.2,9-3.7,2.5-2.5,3.7-5.5,3.7-9v-80.1h47.9Z"/>
  </g>
</svg>