<?xml version="1.0" encoding="utf-8"?>
<!-- Generator: Adobe Illustrator 26.2.1, SVG Export Plug-In . SVG Version: 6.00 Build 0)  -->
<svg version="1.1" id="Layer_1" xmlns="http://www.w3.org/2000/svg" xmlns:xlink="http://www.w3.org/1999/xlink" x="0px" y="0px"
	 viewBox="0 0 80 80" style="enable-background:new 0 0 80 80;" xml:space="preserve">
<style type="text/css">
	.st0{fill:#005942;}
	.st1{fill:#FFFFFF;}
</style>
<circle class="st0" cx="40" cy="40" r="40"/>
<g>
	<g>
		<path class="st1" d="M45.54,43.83c-2.56-9.04-5.12-18.06-7.68-27.11c-0.13-0.46-0.37-0.59-0.83-0.58
			c-1.73,0.03-3.46,0.04-5.18-0.01c-0.71-0.03-0.99,0.21-1.19,0.89c-2.5,8.77-5.04,17.54-7.56,26.31c-0.09,0.32-0.14,0.63-0.23,1.04
			c1.73,0,3.35,0.02,4.97-0.03c0.18-0.01,0.46-0.32,0.52-0.54c0.54-1.81,1.03-3.62,1.54-5.47c2.84,0,5.63-0.01,8.43,0.03
			c0.18,0,0.46,0.31,0.51,0.52c0.46,1.66,0.87,3.32,1.32,4.98c0.06,0.19,0.32,0.48,0.48,0.48c1.62,0.04,3.25,0.03,4.97,0.03
			C45.59,44.11,45.59,43.97,45.54,43.83z M31.1,33.77c1.08-4,2.15-7.95,3.22-11.9c0.04,0.01,0.09,0.01,0.12,0.01
			c1.02,3.95,2.04,7.9,3.08,11.9H31.1z"/>
		<path class="st1" d="M64.55,22.24c-1.69,0.52-3.28,1.02-4.91,1.52c-0.11-0.21-0.22-0.39-0.31-0.58c-1.28-2.63-4.07-3.75-6.81-2.75
			c-1.11,0.41-1.75,1.19-1.9,2.36c-0.14,1.05,0.3,1.9,1.16,2.43c1.07,0.65,2.22,1.19,3.36,1.71c1.79,0.81,3.65,1.48,5.39,2.37
			c2.11,1.08,3.89,2.61,4.36,5.08c0.85,4.47-0.87,8.83-6.06,10c-4.1,0.92-7.92,0.39-11.28-2.31c-1.29-1.04-2.24-2.34-2.9-3.99
			c1.49-0.66,2.97-1.3,4.44-1.95c0.42,0.66,0.78,1.29,1.19,1.88c1.95,2.82,5.44,2.97,7.76,1.96c2.19-0.95,2.64-3.89,0.8-5.43
			c-0.86-0.72-1.91-1.25-2.93-1.73c-1.84-0.87-3.75-1.6-5.59-2.46c-0.79-0.37-1.53-0.86-2.22-1.39c-3.99-3.01-3.07-8.55,0.08-11.06
			c4.31-3.44,12.94-2.82,16.05,3.58C64.32,21.68,64.41,21.91,64.55,22.24z"/>
		<path class="st1" d="M22.19,44.32c-1.81,0-3.57,0-5.36,0c0-9.36,0-18.68,0-28.03c1.8,0,3.56,0,5.36,0
			C22.19,25.65,22.19,34.96,22.19,44.32z"/>
		<path class="st0" d="M37.52,33.77c-2.17,0-4.23,0-6.42,0c1.08-4,2.15-7.95,3.22-11.9c0.04,0,0.08,0,0.12,0.01
			C35.47,25.82,36.49,29.77,37.52,33.77z"/>
	</g>
	<g>
		<path class="st1" d="M22.59,48.65v3.49h-0.7v-3.49H22.59z"/>
		<path class="st1" d="M26.27,52.14h-0.7l-1.58-2.39v2.39h-0.7v-3.5h0.7l1.58,2.4v-2.4h0.7V52.14z"/>
		<path class="st1" d="M29.33,48.65v0.57H28.4v2.92h-0.7v-2.92h-0.93v-0.57H29.33z"/>
		<path class="st1" d="M30.54,49.22v0.88h1.18v0.55h-1.18v0.92h1.33v0.57h-2.02v-3.5h2.02v0.57H30.54z"/>
		<path class="st1" d="M34.3,52.14l-0.77-1.36H33.2v1.36h-0.7v-3.49h1.31c0.27,0,0.5,0.05,0.69,0.14c0.19,0.09,0.33,0.22,0.43,0.38
			c0.1,0.16,0.14,0.34,0.14,0.54c0,0.23-0.07,0.44-0.2,0.62c-0.13,0.19-0.33,0.31-0.59,0.38l0.83,1.42H34.3z M33.2,50.26h0.58
			c0.19,0,0.33-0.05,0.43-0.14c0.09-0.09,0.14-0.22,0.14-0.38c0-0.16-0.05-0.28-0.14-0.37c-0.09-0.09-0.24-0.13-0.43-0.13H33.2
			V50.26z"/>
		<path class="st1" d="M38.69,52.14h-0.7l-1.58-2.39v2.39h-0.7v-3.5h0.7l1.58,2.4v-2.4h0.7V52.14z"/>
		<path class="st1" d="M41.52,51.48h-1.39l-0.23,0.67h-0.74l1.25-3.5h0.82l1.25,3.5h-0.74L41.52,51.48z M41.33,50.92l-0.5-1.46
			l-0.5,1.46H41.33z"/>
		<path class="st1" d="M45.33,48.65v0.57H44.4v2.92h-0.7v-2.92h-0.93v-0.57H45.33z"/>
		<path class="st1" d="M46.54,48.65v3.49h-0.7v-3.49H46.54z"/>
		<path class="st1" d="M47.95,51.95c-0.27-0.15-0.49-0.37-0.65-0.64c-0.16-0.27-0.24-0.58-0.24-0.92c0-0.34,0.08-0.65,0.24-0.92
			c0.16-0.27,0.38-0.48,0.65-0.64c0.27-0.15,0.57-0.23,0.9-0.23c0.33,0,0.63,0.08,0.9,0.23s0.49,0.37,0.65,0.64
			c0.16,0.27,0.24,0.58,0.24,0.92c0,0.34-0.08,0.65-0.24,0.92c-0.16,0.27-0.37,0.48-0.65,0.64s-0.57,0.23-0.9,0.23
			C48.53,52.18,48.23,52.1,47.95,51.95z M49.41,51.41c0.16-0.09,0.29-0.23,0.38-0.41c0.09-0.18,0.14-0.38,0.14-0.62
			s-0.04-0.44-0.14-0.61c-0.09-0.18-0.21-0.31-0.38-0.4c-0.16-0.09-0.34-0.14-0.55-0.14s-0.4,0.05-0.56,0.14
			c-0.16,0.09-0.29,0.23-0.38,0.4c-0.09,0.17-0.14,0.38-0.14,0.61s0.05,0.44,0.14,0.62s0.22,0.31,0.38,0.41
			c0.16,0.09,0.35,0.14,0.56,0.14S49.25,51.51,49.41,51.41z"/>
		<path class="st1" d="M54.14,52.14h-0.7l-1.58-2.39v2.39h-0.7v-3.5h0.7l1.58,2.4v-2.4h0.7V52.14z"/>
		<path class="st1" d="M56.97,51.48h-1.39l-0.23,0.67h-0.74l1.25-3.5h0.82l1.25,3.5H57.2L56.97,51.48z M56.78,50.92l-0.5-1.46
			l-0.5,1.46H56.78z"/>
		<path class="st1" d="M59.11,51.59h1.15v0.55h-1.85v-3.49h0.7V51.59z"/>
		<path class="st1" d="M23.22,57.48h-1.39l-0.23,0.67h-0.74l1.25-3.5h0.82l1.25,3.5h-0.74L23.22,57.48z M23.03,56.92l-0.5-1.46
			l-0.5,1.46H23.03z"/>
		<path class="st1" d="M24.72,55.47c0.15-0.27,0.37-0.48,0.63-0.63c0.27-0.15,0.57-0.23,0.9-0.23c0.39,0,0.73,0.1,1.03,0.3
			c0.29,0.2,0.5,0.48,0.61,0.83h-0.81c-0.08-0.17-0.19-0.29-0.34-0.38c-0.15-0.08-0.31-0.12-0.5-0.12c-0.2,0-0.38,0.05-0.54,0.14
			s-0.28,0.23-0.37,0.4c-0.09,0.17-0.13,0.38-0.13,0.61c0,0.23,0.04,0.43,0.13,0.61s0.21,0.31,0.37,0.41s0.34,0.14,0.54,0.14
			c0.19,0,0.36-0.04,0.5-0.13s0.26-0.21,0.34-0.38h0.81c-0.12,0.36-0.32,0.63-0.61,0.83c-0.29,0.2-0.63,0.3-1.03,0.3
			c-0.33,0-0.63-0.08-0.9-0.23c-0.27-0.15-0.48-0.36-0.63-0.63c-0.16-0.27-0.23-0.58-0.23-0.92S24.57,55.74,24.72,55.47z"/>
		<path class="st1" d="M28.56,55.47c0.15-0.27,0.37-0.48,0.63-0.63c0.27-0.15,0.57-0.23,0.9-0.23c0.39,0,0.73,0.1,1.03,0.3
			c0.29,0.2,0.5,0.48,0.61,0.83h-0.81c-0.08-0.17-0.19-0.29-0.34-0.38c-0.15-0.08-0.31-0.12-0.5-0.12c-0.2,0-0.38,0.05-0.54,0.14
			s-0.28,0.23-0.37,0.4c-0.09,0.17-0.13,0.38-0.13,0.61c0,0.23,0.04,0.43,0.13,0.61s0.21,0.31,0.37,0.41s0.34,0.14,0.54,0.14
			c0.19,0,0.36-0.04,0.5-0.13s0.26-0.21,0.34-0.38h0.81c-0.12,0.36-0.32,0.63-0.61,0.83c-0.29,0.2-0.63,0.3-1.03,0.3
			c-0.33,0-0.63-0.08-0.9-0.23c-0.27-0.15-0.48-0.36-0.63-0.63c-0.16-0.27-0.23-0.58-0.23-0.92S28.41,55.74,28.56,55.47z"/>
		<path class="st1" d="M34.14,58.14l-0.77-1.36h-0.33v1.36h-0.7v-3.49h1.31c0.27,0,0.5,0.05,0.69,0.14
			c0.19,0.09,0.33,0.22,0.43,0.38c0.1,0.16,0.14,0.34,0.14,0.54c0,0.23-0.07,0.44-0.2,0.62c-0.13,0.19-0.33,0.31-0.59,0.38
			l0.83,1.42H34.14z M33.04,56.26h0.58c0.19,0,0.33-0.05,0.43-0.14c0.09-0.09,0.14-0.22,0.14-0.38c0-0.16-0.05-0.28-0.14-0.37
			c-0.09-0.09-0.24-0.13-0.43-0.13h-0.58V56.26z"/>
		<path class="st1" d="M36.24,55.22v0.88h1.18v0.55h-1.18v0.92h1.33v0.57h-2.02v-3.5h2.02v0.57H36.24z"/>
		<path class="st1" d="M40.39,54.87c0.28,0.14,0.49,0.35,0.65,0.61c0.15,0.26,0.23,0.57,0.23,0.92c0,0.35-0.08,0.66-0.23,0.92
			c-0.15,0.26-0.37,0.46-0.65,0.61s-0.6,0.21-0.97,0.21h-1.22v-3.49h1.22C39.79,54.65,40.11,54.73,40.39,54.87z M40.25,57.25
			c0.2-0.2,0.3-0.48,0.3-0.85s-0.1-0.65-0.3-0.85c-0.2-0.21-0.48-0.31-0.85-0.31h-0.5v2.31h0.5C39.77,57.55,40.05,57.45,40.25,57.25
			z"/>
		<path class="st1" d="M42.49,54.65v3.49h-0.7v-3.49H42.49z"/>
		<path class="st1" d="M45.55,54.65v0.57h-0.93v2.92h-0.7v-2.92h-0.93v-0.57H45.55z"/>
		<path class="st1" d="M48.2,57.48h-1.39l-0.23,0.67h-0.74l1.25-3.5h0.82l1.25,3.5h-0.74L48.2,57.48z M48.01,56.92l-0.5-1.46
			L47,56.92H48.01z"/>
		<path class="st1" d="M52.02,54.65v0.57h-0.93v2.92h-0.7v-2.92h-0.93v-0.57H52.02z"/>
		<path class="st1" d="M53.23,54.65v3.49h-0.7v-3.49H53.23z"/>
		<path class="st1" d="M54.64,57.95c-0.27-0.15-0.49-0.37-0.65-0.64c-0.16-0.27-0.24-0.58-0.24-0.92c0-0.34,0.08-0.65,0.24-0.92
			c0.16-0.27,0.38-0.48,0.65-0.64c0.27-0.15,0.57-0.23,0.9-0.23c0.33,0,0.63,0.08,0.9,0.23s0.49,0.37,0.65,0.64
			c0.16,0.27,0.24,0.58,0.24,0.92c0,0.34-0.08,0.65-0.24,0.92c-0.16,0.27-0.37,0.48-0.65,0.64s-0.57,0.23-0.9,0.23
			C55.21,58.18,54.91,58.1,54.64,57.95z M56.09,57.41c0.16-0.09,0.29-0.23,0.38-0.41c0.09-0.18,0.14-0.38,0.14-0.62
			s-0.04-0.44-0.14-0.61c-0.09-0.18-0.21-0.31-0.38-0.4c-0.16-0.09-0.34-0.14-0.55-0.14s-0.4,0.05-0.56,0.14
			c-0.16,0.09-0.29,0.23-0.38,0.4c-0.09,0.17-0.14,0.38-0.14,0.61s0.05,0.44,0.14,0.62s0.22,0.31,0.38,0.41
			c0.16,0.09,0.35,0.14,0.56,0.14S55.93,57.51,56.09,57.41z"/>
		<path class="st1" d="M60.83,58.14h-0.7l-1.58-2.39v2.39h-0.7v-3.5h0.7l1.58,2.4v-2.4h0.7V58.14z"/>
		<path class="st1" d="M31.67,64.05c-0.2-0.08-0.35-0.2-0.46-0.36c-0.11-0.16-0.17-0.34-0.18-0.55h0.75
			c0.01,0.14,0.06,0.26,0.15,0.34c0.09,0.08,0.22,0.12,0.38,0.12c0.16,0,0.29-0.04,0.38-0.12s0.14-0.18,0.14-0.31
			c0-0.1-0.03-0.19-0.1-0.25c-0.06-0.07-0.14-0.12-0.24-0.16c-0.1-0.04-0.23-0.08-0.39-0.13c-0.23-0.07-0.41-0.13-0.55-0.2
			c-0.14-0.07-0.26-0.16-0.37-0.29c-0.1-0.13-0.15-0.31-0.15-0.53c0-0.21,0.05-0.39,0.15-0.54s0.25-0.27,0.44-0.35
			c0.19-0.08,0.4-0.12,0.64-0.12c0.36,0,0.65,0.09,0.88,0.26s0.35,0.42,0.37,0.73h-0.77c-0.01-0.12-0.06-0.22-0.15-0.3
			c-0.09-0.08-0.22-0.12-0.38-0.12c-0.14,0-0.25,0.04-0.33,0.1c-0.08,0.07-0.12,0.17-0.12,0.31c0,0.09,0.03,0.17,0.09,0.23
			s0.14,0.11,0.23,0.15c0.09,0.04,0.22,0.08,0.39,0.13c0.23,0.07,0.41,0.13,0.55,0.2c0.14,0.07,0.27,0.17,0.37,0.3
			c0.1,0.13,0.16,0.31,0.16,0.53c0,0.19-0.05,0.36-0.15,0.52s-0.24,0.29-0.43,0.38c-0.19,0.09-0.41,0.14-0.67,0.14
			C32.08,64.18,31.86,64.14,31.67,64.05z"/>
		<path class="st1" d="M34.87,61.22v0.88h1.18v0.55h-1.18v0.92h1.33v0.57h-2.02v-3.5h2.02v0.57H34.87z"/>
		<path class="st1" d="M38.63,64.14l-0.77-1.36h-0.33v1.36h-0.7v-3.49h1.31c0.27,0,0.5,0.05,0.69,0.14
			c0.19,0.09,0.33,0.22,0.43,0.38c0.09,0.16,0.14,0.34,0.14,0.54c0,0.23-0.07,0.44-0.2,0.62c-0.13,0.19-0.33,0.31-0.59,0.38
			l0.83,1.42H38.63z M37.53,62.26h0.58c0.19,0,0.33-0.05,0.43-0.14c0.09-0.09,0.14-0.22,0.14-0.38c0-0.16-0.05-0.28-0.14-0.37
			c-0.09-0.09-0.24-0.13-0.43-0.13h-0.58V62.26z"/>
		<path class="st1" d="M43.17,60.65l-1.28,3.49h-0.85l-1.28-3.49h0.75l0.96,2.78l0.96-2.78H43.17z"/>
		<path class="st1" d="M44.29,60.65v3.49h-0.7v-3.49H44.29z"/>
		<path class="st1" d="M45.04,61.47c0.16-0.27,0.37-0.48,0.64-0.63c0.27-0.15,0.57-0.23,0.9-0.23c0.39,0,0.73,0.1,1.02,0.3
			c0.29,0.2,0.5,0.48,0.62,0.83h-0.8c-0.08-0.17-0.19-0.29-0.34-0.38c-0.14-0.08-0.31-0.12-0.5-0.12c-0.2,0-0.38,0.05-0.54,0.14
			s-0.28,0.23-0.37,0.4c-0.09,0.17-0.13,0.38-0.13,0.61c0,0.23,0.04,0.43,0.13,0.61c0.09,0.17,0.21,0.31,0.37,0.41
			s0.34,0.14,0.54,0.14c0.19,0,0.36-0.04,0.5-0.13c0.15-0.08,0.26-0.21,0.34-0.38h0.8c-0.12,0.36-0.32,0.63-0.61,0.83
			c-0.29,0.2-0.63,0.3-1.03,0.3c-0.33,0-0.63-0.08-0.9-0.23c-0.27-0.15-0.48-0.36-0.64-0.63c-0.15-0.27-0.23-0.58-0.23-0.92
			S44.88,61.74,45.04,61.47z"/>
		<path class="st1" d="M49.52,61.22v0.88h1.17v0.55h-1.17v0.92h1.33v0.57h-2.03v-3.5h2.03v0.57H49.52z"/>
	</g>
</g>
</svg>
