<?xml version="1.0" encoding="utf-8"?>
<!-- Generator: Adobe Illustrator 26.2.1, SVG Export Plug-In . SVG Version: 6.00 Build 0)  -->
<svg version="1.1" id="report" xmlns="http://www.w3.org/2000/svg" xmlns:xlink="http://www.w3.org/1999/xlink" x="0px" y="0px"
	 viewBox="0 0 640.62 640.62" style="enable-background:new 0 0 640.62 640.62;" xml:space="preserve">
<style type="text/css">
	.st0{display:none;fill:url(#SVGID_1_);}
	.st1{display:none;fill:url(#SVGID_00000018950999307275318750000015245892963936135569_);}
	.st2{display:none;fill:url(#SVGID_00000069378273538653373190000003873461860599434118_);}
	.st3{fill:#360061;}
	.st4{fill:#5800B2;}
	.st5{opacity:0.9;fill:#5800B2;}
	.st6{opacity:0.8;fill:#5800B2;}
	.st7{opacity:0.9;fill:#360061;}
	.st8{opacity:0.8;fill:#360061;}
</style>
<linearGradient id="SVGID_1_" gradientUnits="userSpaceOnUse" x1="290.9483" y1="320.3009" x2="360.9372" y2="320.3009">
	<stop  offset="0" style="stop-color:#FFFFFF;stop-opacity:0.4"/>
	<stop  offset="0.0691" style="stop-color:#FFFFFF;stop-opacity:0.3435"/>
	<stop  offset="0.4892" style="stop-color:#FFFFFF;stop-opacity:0"/>
	<stop  offset="0.7527" style="stop-color:#FAFAFA;stop-opacity:0.1032"/>
	<stop  offset="1" style="stop-color:#EFEFEF;stop-opacity:0.2"/>
</linearGradient>
<path class="st0" d="M360.94,408.89c-23.09-16.59-45.06-32.27-66.81-48.25c-1.83-1.34-2.98-4.76-3.01-7.23
	c-0.23-22.1-0.21-44.2-0.02-66.3c0.02-2.29,0.86-5.51,2.5-6.71c21.96-16.13,44.13-31.97,67.35-48.68
	C360.94,291.13,360.94,349.28,360.94,408.89z"/>
<linearGradient id="SVGID_00000089549692905926002080000001984417963928750502_" gradientUnits="userSpaceOnUse" x1="234.72" y1="320.2812" x2="275.4071" y2="320.2812">
	<stop  offset="0" style="stop-color:#FFFFFF;stop-opacity:0.4"/>
	<stop  offset="0.0691" style="stop-color:#FFFFFF;stop-opacity:0.3435"/>
	<stop  offset="0.4892" style="stop-color:#FFFFFF;stop-opacity:0"/>
	<stop  offset="0.7527" style="stop-color:#FAFAFA;stop-opacity:0.1032"/>
	<stop  offset="1" style="stop-color:#EFEFEF;stop-opacity:0.2"/>
</linearGradient>
<path style="display:none;fill:url(#SVGID_00000089549692905926002080000001984417963928750502_);" d="M275.41,285.55
	c0,23.61,0,46.09,0,69.35c-11.46,0-22.58,0.48-33.59-0.36c-2.51-0.19-6.61-4.84-6.7-7.55c-0.6-17.88-0.4-35.78-0.22-53.68
	c0.05-4.85,2.99-7.68,7.96-7.73C253.46,285.48,264.05,285.55,275.41,285.55z"/>
<linearGradient id="SVGID_00000173879687703785962570000000134942190308335753_" gradientUnits="userSpaceOnUse" x1="377.0954" y1="320.1778" x2="405.9691" y2="320.1778">
	<stop  offset="0" style="stop-color:#FFFFFF;stop-opacity:0.4"/>
	<stop  offset="0.0691" style="stop-color:#FFFFFF;stop-opacity:0.3435"/>
	<stop  offset="0.4892" style="stop-color:#FFFFFF;stop-opacity:0"/>
	<stop  offset="0.7527" style="stop-color:#FAFAFA;stop-opacity:0.1032"/>
	<stop  offset="1" style="stop-color:#EFEFEF;stop-opacity:0.2"/>
</linearGradient>
<path style="display:none;fill:url(#SVGID_00000173879687703785962570000000134942190308335753_);" d="M377.1,355.13
	c0-23.33,0-46.62,0.01-69.9c15.57,1.63,28.5,17.01,28.86,34.31C406.32,336.88,393.67,352.67,377.1,355.13z"/>
<g>
	<path class="st3" d="M641.87,154.85c-1.58,7.71-2.81,15.51-4.81,23.11c-16.66,63.43-75.85,107.57-140.2,104.7
		c-67.76-3.02-122.87-50.54-134.45-115.92c-0.07-0.41-0.21-0.83-0.17-1.23c1.16-13.63-6.24-20.65-17.65-26.95
		c-25.46-14.06-50.07-29.67-75.04-44.63c-1.93-1.16-3.92-2.24-6.54-3.73c-0.23,2.13-0.52,3.64-0.53,5.16
		c-0.04,10.61-0.01,21.23-0.03,31.84c-0.02,11.81-3.28,15-15.33,15c-30.8,0.01-61.6,0-92.4,0c-3.5,0-7,0-11.27,0
		c0,6.67,0.05,12.84-0.01,19c-0.08,8.24-4.18,13.31-10.74,13.44c-6.58,0.12-10.87-4.89-11.02-13.11
		c-0.11-6.19-0.02-12.39-0.02-19.33c-2.86,0-5.08,0-7.3,0c-32.46,0-64.93,0.01-97.39-0.01c-10.95-0.01-14.46-3.59-14.46-14.69
		C2.49,93.8,2.49,60.08,2.5,26.37C2.51,15.68,5.96,12.19,16.7,12.19c77.21-0.02,154.42-0.02,231.62,0
		c10.83,0,14.12,3.32,14.14,14.15c0.03,13.1,0.01,26.2,0.01,38.19c33.15,19.82,65.57,39.19,98.62,58.95
		c1.25-5.62,2.25-10.61,3.46-15.54C378.4,51.57,426.37,9.24,484.11,2.35c1.41-0.17,2.78-0.73,4.17-1.1c8.74,0,17.48,0,26.22,0
		c1.37,0.39,2.71,0.92,4.1,1.15c58.77,9.36,97.79,42.29,116.95,98.51c3.04,8.92,4.26,18.46,6.33,27.72
		C641.87,137.37,641.87,146.11,641.87,154.85z M576.8,232.24c0.53,0.32,1.06,0.64,1.59,0.96c5.19-5.56,10.35-11.14,15.57-16.66
		c3.47-3.67,4.62-7.85,4.58-12.99c-0.23-30.17-0.09-60.35-0.12-90.52c-0.02-16.97-8.22-25.11-25.37-25.18
		c-12.07-0.05-24.14-0.07-36.21,0.01c-16.61,0.1-24.92,8.46-24.93,25c-0.02,47.03-0.01,94.06-0.01,141.09c0,2.18,0,4.36,0,7.17
		c7.7-1.48,14.36-2.76,21.68-4.17c0-49.27,0-98.05,0-146.76c14.81,0,28.85,0,43.22,0C576.8,151.16,576.8,191.7,576.8,232.24z
		 M489.55,260.36c0.22-1.09,0.52-1.88,0.53-2.66c0.02-34.95,0.23-69.91-0.1-104.86c-0.12-13.05-9.4-21.45-22.59-21.58
		c-13.52-0.14-27.05-0.11-40.57-0.01c-14.36,0.1-23.31,9.09-23.38,23.46c-0.08,17.06-0.03,34.12,0,51.18c0,1.64-0.33,3.77,0.53,4.83
		c6.17,7.59,12.62,14.96,18.98,22.41c0.76-0.38,1.51-0.76,2.27-1.14c0-26.21,0-52.43,0-78.73c14.85,0,28.71,0,43.19,0
		c0,2.59,0,4.83,0,7.07c0,26.22,0,52.43,0,78.65c0,19.23,0,19.23,19.29,21.5C488.09,260.53,488.51,260.43,489.55,260.36z
		 M127.38,44.73c-20.19,0-40.37,0-60.56,0c-7.08,0-14.16-0.15-21.22,0.09c-6.29,0.22-10.67,4.94-10.56,10.81
		c0.11,5.57,4.43,10.01,10.32,10.54c1.24,0.11,2.5,0.06,3.74,0.06c52.03,0,104.06,0,156.08,0c1.66,0,3.36,0.1,4.98-0.19
		c7.12-1.25,11.08-8.9,7.89-15.31c-2.46-4.94-6.83-6.07-12.01-6.05C179.82,44.79,153.6,44.73,127.38,44.73z M88.79,109.73
		c14.12,0,28.25,0.17,42.36-0.06c9.84-0.16,15.23-8.91,10.51-16.55c-2.76-4.46-7.15-5.29-11.9-5.29c-14.33,0-28.66,0-42.99,0
		c-13.08,0-26.17-0.13-39.25,0.06c-8,0.12-12.94,4.96-12.47,11.58c0.43,6.16,5.16,10.16,12.61,10.22
		C61.38,109.82,75.09,109.73,88.79,109.73z"/>
	<path class="st4" d="M232,426.96c17.63,21.16,27.27,45.07,29.97,70.75c36.41,21.76,72.14,43.12,108.95,65.12
		c0-13.11-0.01-25.07,0-37.03c0.01-11.95,3.2-15.14,15.16-15.14c32.05-0.01,64.1,0,96.14,0c2.26,0,4.53,0,7.93,0
		c0-6.74-0.34-13.1,0.14-19.4c0.25-3.33,0.97-7.81,3.21-9.52c2.84-2.17,8.17-3.74,11.07-2.47c3.23,1.41,6.39,6.08,6.98,9.74
		c1.1,6.84,0.32,13.98,0.32,21.64c2.93,0,5.16,0,7.39,0c32.46,0,64.93-0.01,97.39,0.01c10.87,0.01,14.26,3.31,14.27,14.03
		c0.03,33.92,0.03,67.84,0,101.76c-0.01,10.7-3.51,14.17-14.21,14.17c-77.21,0.01-154.41,0.01-231.62,0
		c-10.56,0-14.14-3.64-14.16-14.33c-0.02-12.9-0.01-25.79-0.01-38.12c-36.17-21.68-71.95-43.12-108.11-64.79
		c-12.04,66.89-50.99,106.03-118.98,117.32c-0.16-3.29-0.35-5.46-0.35-7.63c-0.02-37.46-0.07-74.92,0.1-112.37
		c0.01-2.8,0.89-6.41,2.73-8.28c27.79-28.13,55.8-56.02,83.78-83.97C230.53,428.01,231.07,427.68,232,426.96z M495.65,586.51
		c-24.56,0-49.12-0.01-73.67,0.01c-2.91,0-5.84-0.1-8.73,0.2c-5.67,0.59-9.65,4.91-9.77,10.32c-0.13,5.28,3.8,10.01,9.27,10.91
		c1.83,0.3,3.74,0.21,5.61,0.21c51.41,0.01,102.81,0.01,154.22,0c2.08,0,4.2,0.11,6.22-0.28c5.46-1.05,9.32-5.92,8.75-11.25
		c-0.6-5.6-3.69-9.18-9.48-9.9c-2.05-0.26-4.15-0.21-6.23-0.21C546.43,586.5,521.04,586.51,495.65,586.51z M457.62,543.12
		c-13.7,0-27.4-0.04-41.11,0.02c-8.11,0.04-13.16,4.36-13.05,10.95c0.11,6.41,4.94,10.54,12.77,10.56c27.61,0.06,55.22,0.06,82.84,0
		c7.77-0.02,12.66-4.21,12.76-10.59c0.1-6.55-5-10.88-13.1-10.91C485.02,543.08,471.32,543.12,457.62,543.12z"/>
	<path class="st5" d="M3.62,499.28C5.19,461.9,29.92,412,83.68,390.08c48.15-19.64,101.12-6.97,132.45,21.62
		c-10.31,10.28-20.61,20.55-30.9,30.83c-17.81,17.8-35.57,35.65-53.51,53.32c-1.87,1.84-4.82,3.64-7.28,3.65
		c-39.33,0.22-78.66,0.15-117.99,0.13C5.65,499.63,4.85,499.44,3.62,499.28z"/>
	<path class="st6" d="M3.96,521.86c38.91,0,77.86,0,117.25,0c0,39.18,0,78.12,0,117.03C71.88,646.52-0.01,574.93,3.96,521.86z"/>
	<path class="st6" d="M284.28,401.67c0.43-1.81,0.79-3.64,1.3-5.43c13.88-48.72,27.78-97.44,41.68-146.16
		c0.23-0.8,0.49-1.59,0.78-2.36c2.28-6.12,7.49-9.17,13.11-7.68c5.88,1.56,9.25,7.2,7.47,13.67c-5.29,19.22-10.83,38.37-16.31,57.53
		c-8.72,30.55-17.42,61.1-26.28,91.61c-0.78,2.68-2.04,6.33-4.11,7.28c-3.4,1.55-8.19,2.63-11.39,1.36c-3.13-1.24-5-5.67-7.42-8.69
		C283.51,402.42,283.9,402.04,284.28,401.67z"/>
	<path class="st3" d="M418.61,326.37c-12.82-10.28-25.13-20.14-37.43-30c-1.78-1.43-3.62-2.79-5.35-4.28
		c-5.57-4.79-6.45-10.87-2.35-15.86c4.07-4.95,10.24-5.4,16.05-0.9c7.23,5.6,14.31,11.38,21.44,17.1
		c10.05,8.06,20.17,16.03,30.12,24.21c7.77,6.39,7.74,13.22-0.18,19.63c-16.96,13.72-34.01,27.33-51.11,40.87
		c-6.06,4.8-12.51,4.31-16.51-0.85c-4.04-5.22-2.91-11.29,3.23-16.24C390.27,348.98,404.08,337.99,418.61,326.37z"/>
	<path class="st4" d="M215.16,326.49c12.95,10.37,25.59,20.48,38.22,30.6c1.78,1.43,3.63,2.8,5.27,4.38
		c4.61,4.45,5.1,10.59,1.3,15.09c-3.88,4.6-9.92,5.47-15.05,1.42c-18.13-14.28-36.17-28.68-54.05-43.28
		c-5.65-4.61-5.61-12.1,0.11-16.78c17.88-14.6,35.92-29,54.06-43.26c5.14-4.04,11.25-3.09,15.03,1.53
		c3.83,4.69,3.27,11.22-1.95,15.51c-12.7,10.42-25.61,20.58-38.42,30.86C218.26,323.72,216.91,324.97,215.16,326.49z"/>
	<path class="st5" d="M511.72,438.27c0,2.91,0.34,5.86-0.07,8.71c-0.82,5.67-5.29,9.29-10.79,9.24c-5.55-0.06-9.78-3.73-10.45-9.53
		c-0.86-7.38-1.58-14.78-2.08-22.19c-0.37-5.45,2.46-9.17,7.5-10.92c5.17-1.79,10.98,0.49,12.86,5.87
		c2.08,5.96,2.88,12.37,4.24,18.59C512.52,438.12,512.12,438.19,511.72,438.27z"/>
	<path class="st7" d="M130.25,196.25c7.94,0.14,12.49,4.38,13.09,10.34c0.73,7.19,1.3,14.4,1.75,21.61
		c0.36,5.8-2.61,9.62-8.04,11.09c-5.27,1.43-9.72-0.71-12.02-5.48c-4.7-9.77-4.53-20.33-2.18-30.48
		C123.61,200.07,128.56,197.78,130.25,196.25z"/>
	<path class="st6" d="M470.35,404.25c-3.31-1.48-5.76-1.96-7.34-3.39c-4.76-4.33-9.45-8.8-13.66-13.66
		c-3.71-4.29-3.04-10.24,0.86-14.14c3.96-3.96,9.68-4.6,14.11-0.78c4.87,4.19,9.9,8.55,13.46,13.78c1.92,2.82,2.19,8.14,0.87,11.39
		C477.44,400.44,473.1,402.15,470.35,404.25z"/>
	<path class="st8" d="M186.97,273.54c-1.65,2.13-3.36,6.46-6.32,7.62c-3.28,1.29-8.59,0.98-11.43-0.95
		c-5.22-3.56-9.61-8.54-13.72-13.46c-3.39-4.06-3.25-8.98,0.1-13.21c3.38-4.26,8.66-5.91,12.73-2.81
		c6.34,4.84,11.61,11.09,17.15,16.91C186.35,268.54,186.22,270.37,186.97,273.54z"/>
</g>
</svg>
