<?xml version="1.0" encoding="UTF-8"?>
<svg id="Layer_1" data-name="Layer 1" xmlns="http://www.w3.org/2000/svg" viewBox="0 0 45 45">
  <defs>
    <style>
      .cls-1 {
        fill: #ff7009;
      }

      .cls-2 {
        fill: #0aad0a;
      }
    </style>
  </defs>
  <path class="cls-2" d="m33.76,9.24c-1.72,0-2.95.75-4.09,2.38l-3.27,4.69V2.92h-7.8v13.4l-3.27-4.69c-1.13-1.63-2.36-2.38-4.09-2.38-2.6,0-4.33,1.92-4.34,4.29,0,2.03.95,3.35,2.96,4.65l12.63,8.14,12.63-8.14c2.01-1.3,2.97-2.62,2.96-4.65,0-2.37-1.74-4.29-4.34-4.29Z"/>
  <path class="cls-1" d="m22.5,28.26c7.51,0,13.66,5.61,13.65,13.65H8.85c-.02-8.04,6.14-13.65,13.65-13.65Z"/>
</svg>