<?xml version="1.0" encoding="utf-8"?>
<!-- Generator: Adobe Illustrator 26.2.1, SVG Export Plug-In . SVG Version: 6.00 Build 0)  -->
<svg version="1.1" id="Layer_1" xmlns="http://www.w3.org/2000/svg" xmlns:xlink="http://www.w3.org/1999/xlink" x="0px" y="0px"
	 viewBox="0 0 80 80" style="enable-background:new 0 0 80 80;" xml:space="preserve">
<style type="text/css">
	.st0{fill:#145BAD;}
</style>
<g>
	<path class="st0" d="M40.01,0.01C62.51,0.1,80.17,18.35,80,40.35c-0.17,21.79-18,40-40.68,39.64C17.75,79.64-0.07,62.15,0,39.72
		C0.07,17.83,18.19-0.09,40.01,0.01z M40.07,0.79C18.38,0.76,0.77,18.27,0.75,39.92C0.72,61.54,18.04,78.99,39.47,79.26
		c22.29,0.28,39.42-17.63,39.79-38.5C79.66,18.54,61.56,0.67,40.07,0.79z"/>
	<path class="st0" d="M69.93,40.03c0.04,16.46-13.34,29.86-29.86,29.9C23.7,69.97,10.25,56.65,10.07,40.49
		C9.88,23.91,23.2,9.95,40.27,10.08C56.75,10.22,69.97,23.62,69.93,40.03z M52.39,27.84c-0.47,0.06-1.18,0.1-1.86,0.25
		c-2.09,0.46-3.99,1.3-4.91,3.38c-0.47,1.07-0.79,2.27-0.87,3.44c-0.27,3.77,1.09,6.66,4.75,7.86c2.3,0.76,4.61,0.69,6.88-0.15
		c2.04-0.75,3.29-2.2,3.86-4.3c0.51-1.89,0.48-3.77-0.02-5.64c-0.41-1.52-1.27-2.75-2.68-3.55C56.02,28.27,54.36,27.9,52.39,27.84z
		 M33.93,42.03c0.45,0.2,0.85,0.39,1.25,0.55c1.98,0.79,4,0.96,6.06,0.29c2.04-0.66,3.3-2.44,3.21-4.58
		c-0.08-1.88-1.56-3.64-3.69-4.31c-1.66-0.52-3.34-0.97-4.99-1.5c-0.29-0.09-0.51-0.4-0.77-0.61c0.31-0.18,0.61-0.5,0.93-0.51
		c1.71-0.06,3.29,0.29,4.54,1.59c0.18,0.18,0.43,0.41,0.65,0.42c0.91,0.05,1.83,0.02,2.78,0.02c0-1.73,0-3.35,0-5.06
		c-0.81,0-1.57-0.05-2.32,0.02c-0.37,0.03-0.72,0.27-1.29,0.5c-2.01-1.11-4.31-1.11-6.05-0.77c-2.71,0.53-4.29,2.69-3.8,5.34
		c0.38,2.07,1.93,3.07,3.76,3.67c1.52,0.5,3.07,0.91,4.6,1.39c0.36,0.11,0.68,0.35,1.2,0.63c-0.43,0.25-0.64,0.47-0.87,0.5
		c-1.83,0.3-3.61,0.08-4.9-1.33c-0.67-0.73-1.29-0.95-2.17-0.87c-0.3,0.03-0.6,0.03-0.9,0c-0.51-0.04-0.66,0.19-0.65,0.67
		c0.02,1.31,0.05,2.61-0.01,3.92c-0.04,0.79,0.27,1.01,0.99,0.93c0.46-0.05,0.93-0.04,1.39-0.01
		C33.52,42.99,34.02,42.88,33.93,42.03z M22.25,31.74c0,2.56,0,4.99,0,7.51c-0.5,0-0.93,0.02-1.36-0.01
		c-0.49-0.03-0.69,0.17-0.67,0.66c0.02,0.71,0.05,1.42-0.01,2.12c-0.06,0.71,0.18,0.95,0.91,0.94c2.59-0.04,5.17-0.02,7.76-0.02
		c0.26,0,0.52-0.04,0.84-0.07c0-1.11,0.03-2.14-0.03-3.17c-0.01-0.17-0.34-0.43-0.56-0.46c-0.47-0.07-0.96-0.02-1.49-0.02
		c0-2.52,0-4.96,0-7.46c0.53,0,1.02,0.04,1.5-0.02c0.2-0.02,0.54-0.25,0.54-0.39c0.05-1.07,0.03-2.15,0.03-3.27
		c-3.06,0-6-0.01-8.94,0.02c-0.18,0-0.51,0.27-0.52,0.42c-0.05,1.05-0.02,2.11-0.02,3.23C20.95,31.74,21.57,31.74,22.25,31.74z
		 M29.6,26.4c0.06,0.1,0.13,0.2,0.19,0.3c0.28-0.15,0.62-0.25,0.82-0.47c0.4-0.47,0.69-1.04,1.09-1.52
		c0.12-0.15,0.48-0.24,0.66-0.18c0.74,0.26,1.45,0.6,2.18,0.92c-0.09,0.37-0.18,0.72-0.26,1.08c0.89,0.34,0.79-0.48,1.11-0.81
		c0.91,0.14,1.82,0.42,2.72,0.38c0.82-0.04,1.45,0.67,2.45,0.19c1.06-0.5,2.43-0.38,3.67-0.53c0.27,0.32,0.16,1.15,1.05,0.76
		c-0.08-0.36-0.16-0.71-0.24-1.07c0.71-0.31,1.37-0.63,2.07-0.86c0.22-0.07,0.63,0.02,0.78,0.19c0.42,0.46,0.71,1.03,1.12,1.5
		c0.18,0.21,0.51,0.28,0.77,0.41c0.07-0.08,0.13-0.17,0.2-0.25c-0.55-0.82-1.09-1.64-1.65-2.48c0.52-0.35,1.01-0.67,1.65-1.1
		c0.98,1.11,1.95,2.2,2.9,3.3c0.3,0.35,0.55,0.68,1.06,0.37c-1.98-3.75-7.95-8.57-15.95-7.76c-5.61,0.56-10.7,4.42-12.22,7.89
		c0.35-0.1,0.69-0.25,0.92-0.49c1.01-1.09,1.99-2.2,2.97-3.3c0.65,0.44,1.14,0.77,1.63,1.1C30.69,24.8,30.15,25.6,29.6,26.4z
		 M31.32,47.21c-0.28,0.18-0.58,0.33-0.81,0.54c-0.54,0.51-0.97,0.38-1.42-0.13c-0.8-0.92-1.61-1.84-2.45-2.72
		c-0.23-0.24-0.57-0.36-0.87-0.54c-0.04,0.07-0.08,0.14-0.12,0.21c2.09,3.94,8.09,8.61,16.17,7.76c4.64-0.48,11.45-4.83,12.11-8.12
		c-0.47,0.33-0.81,0.49-1.05,0.74c-0.61,0.66-1.14,1.39-1.76,2.03c-1.27,1.31-1.29,1.3-2.8,0.27c-0.02-0.01-0.02-0.05-0.04-0.08
		c0.56-0.85,1.12-1.71,1.68-2.56c-0.09-0.07-0.18-0.14-0.27-0.21c-1.18,0.29-1.24,1.77-2.31,2.3c-0.74-0.3-1.58-0.65-2.4-0.98
		c0.1-0.45,0.18-0.82,0.27-1.21c-0.98-0.26-0.72,0.71-1.07,0.9c-1.17-0.14-2.3-0.15-3.35-0.46c-0.74-0.22-1.27-0.31-2.06-0.01
		c-1.03,0.39-2.23,0.33-3.36,0.46c-0.38-0.23-0.14-1.23-1.13-0.88c0.1,0.42,0.2,0.82,0.29,1.2c-0.69,0.29-1.33,0.51-1.93,0.82
		c-0.47,0.24-0.73,0.14-1-0.28c-0.31-0.51-0.65-1.01-1.05-1.45c-0.19-0.21-0.53-0.28-0.79-0.42c-0.06,0.09-0.11,0.18-0.17,0.27
		C30.17,45.5,30.72,46.32,31.32,47.21z M31.53,56.78c0.09,0.47,0.11,0.97,0.28,1.42c0.27,0.71,0.84,1.13,1.62,1.12
		c0.77-0.01,1.45-0.41,1.56-1.16c0.13-0.91,0.1-1.88-0.05-2.79c-0.13-0.78-0.82-1.09-1.61-1.08c-0.81,0.01-1.33,0.44-1.56,1.19
		C31.63,55.89,31.6,56.33,31.53,56.78z M27.62,56.76c0.02,0.35,0,0.68,0.05,1c0.14,0.87,0.82,1.52,1.62,1.58
		c0.83,0.06,1.63-0.44,1.76-1.35c0.12-0.83,0.09-1.73-0.08-2.55c-0.17-0.82-0.92-1.2-1.75-1.14c-0.8,0.06-1.39,0.59-1.54,1.43
		C27.62,56.08,27.64,56.43,27.62,56.76z M45.73,56.74c0.03,0,0.05,0.01,0.08,0.01c0,0.33-0.04,0.66,0.01,0.97
		c0.14,0.91,0.84,1.57,1.67,1.62c0.82,0.04,1.64-0.5,1.74-1.39c0.1-0.86,0.05-1.79-0.15-2.63c-0.18-0.75-0.87-1.08-1.66-1.02
		c-0.75,0.05-1.29,0.41-1.47,1.17C45.83,55.88,45.79,56.32,45.73,56.74z M43.39,58.43c-0.03-0.06-0.05-0.11-0.08-0.17
		c0.47-0.41,0.96-0.79,1.4-1.22c0.8-0.78,0.86-1.74,0.16-2.35c-0.71-0.63-2.06-0.54-2.65,0.2c-0.29,0.36-0.63,0.84-0.11,1.2
		c0.54,0.37,0.63-0.24,0.83-0.55c0.03-0.05,0.04-0.13,0.08-0.14c0.31-0.08,0.67-0.26,0.93-0.17c0.16,0.05,0.32,0.6,0.23,0.8
		c-0.17,0.37-0.52,0.66-0.82,0.97c-0.43,0.45-0.93,0.84-1.3,1.33c-0.39,0.52-0.15,0.97,0.5,1.01c0.73,0.04,1.47,0.05,2.2-0.01
		c0.23-0.02,0.44-0.28,0.66-0.43c-0.21-0.15-0.41-0.4-0.64-0.43C44.31,58.38,43.85,58.43,43.39,58.43z M21.01,58.43
		c0.71-0.65,1.3-1.09,1.76-1.64c0.65-0.77,0.54-1.75-0.15-2.21c-0.8-0.54-2.19-0.34-2.64,0.41c-0.22,0.37-0.47,0.83,0.04,1.12
		c0.11,0.06,0.5-0.34,0.75-0.54c0.06-0.05,0.07-0.18,0.13-0.2c0.29-0.09,0.65-0.29,0.86-0.19c0.2,0.1,0.36,0.56,0.29,0.8
		c-0.08,0.31-0.38,0.57-0.62,0.82c-0.47,0.48-1.01,0.91-1.45,1.42c-0.43,0.5-0.28,1.04,0.3,1.09c0.84,0.07,1.68,0.05,2.52,0
		c0.16-0.01,0.31-0.3,0.47-0.46c-0.16-0.14-0.32-0.38-0.49-0.4C22.26,58.4,21.75,58.43,21.01,58.43z M56.65,56.53
		c0.53-0.64,0.72-1.24,0.09-1.85c-0.68-0.65-2.1-0.51-2.61,0.29c-0.12,0.19-0.02,0.52-0.03,0.78c0.25-0.07,0.51-0.13,0.75-0.23
		c0.29-0.12,0.56-0.31,0.87-0.38c0.07-0.02,0.36,0.47,0.32,0.53c-0.18,0.22-0.47,0.36-0.71,0.53c-0.2,0.14-0.39,0.28-0.59,0.42
		c0.21,0.12,0.42,0.24,0.63,0.36c0.29,0.18,0.76,0.32,0.82,0.56c0.06,0.26-0.19,0.73-0.44,0.89c-0.43,0.26-0.76-0.06-0.94-0.48
		c-0.16-0.35-0.4-0.7-0.77-0.38c-0.16,0.14-0.14,0.68,0,0.92c0.37,0.63,1.03,1.02,1.72,0.8c0.57-0.18,1.17-0.61,1.49-1.1
		C57.62,57.62,57.25,57,56.65,56.53z M26.02,55.18c-0.19,0.32-0.31,0.47-0.38,0.63c-0.37,0.9-0.76,1.78-1.05,2.71
		c-0.06,0.2,0.25,0.52,0.39,0.78c0.23-0.18,0.61-0.34,0.65-0.56c0.23-1.34,0.69-2.55,1.55-3.62c0.33-0.41,0.19-0.8-0.4-0.83
		c-0.79-0.03-1.58-0.04-2.37,0.01c-0.2,0.01-0.38,0.27-0.57,0.41c0.19,0.15,0.36,0.41,0.56,0.44
		C24.88,55.23,25.37,55.18,26.02,55.18z M37.14,56.01c0.02,0.26,0.06,0.48,0.06,0.7c0.01,0.63-0.05,1.26,0.03,1.87
		c0.04,0.27,0.36,0.5,0.55,0.74c0.17-0.24,0.47-0.48,0.48-0.73c0.05-1.22,0.04-2.45,0.01-3.67c0-0.2-0.2-0.57-0.3-0.56
		c-0.23,0.01-0.47,0.17-0.67,0.31c-0.35,0.25-0.69,0.52-0.98,0.83c-0.2,0.21-0.33,0.49-0.49,0.75c0.29,0.01,0.58,0.03,0.86,0.01
		C36.8,56.25,36.92,56.14,37.14,56.01z M51.36,56.04c0,0.93-0.04,1.79,0.02,2.65c0.02,0.22,0.33,0.42,0.5,0.63
		c0.18-0.2,0.51-0.4,0.52-0.6c0.05-1.3,0.04-2.6,0.02-3.9c0-0.16-0.15-0.41-0.27-0.44c-0.17-0.04-0.42,0.04-0.56,0.16
		c-0.34,0.27-0.63,0.59-0.94,0.88c-0.26,0.24-0.97,0.22-0.68,0.78c0.3,0.56,0.74,0.09,1.11-0.08C51.13,56.1,51.19,56.09,51.36,56.04
		z M41.19,58.71c-0.35-0.25-0.61-0.58-0.77-0.53c-0.23,0.07-0.49,0.38-0.53,0.63c-0.02,0.14,0.36,0.48,0.56,0.49
		C40.66,59.29,40.86,58.98,41.19,58.71z M40.33,55.4c-0.21,0.3-0.48,0.53-0.45,0.69c0.04,0.19,0.38,0.48,0.52,0.45
		c0.22-0.06,0.39-0.34,0.58-0.53C40.79,55.84,40.61,55.67,40.33,55.4z"/>
	<path class="st0" d="M35.43,77.35c0.25-1.47,0.48-2.83,0.71-4.18c-0.07-0.02-0.13-0.05-0.2-0.07c-0.57,1.35-1.13,2.69-1.69,4
		c-0.85,0.1-1.1-0.28-1.1-1.02c0-1.16-0.08-2.32-0.13-3.48c-0.08-0.01-0.16-0.02-0.24-0.02c-0.24,1.38-0.49,2.75-0.74,4.15
		c-0.31-0.02-0.54-0.04-0.9-0.06c0.3-1.79,0.59-3.54,0.88-5.27c1.44-0.11,1.51-0.05,1.62,1.28c0.09,1.04,0.15,2.09,0.42,3.17
		c0.55-1.3,1.1-2.61,1.68-3.97c0.47,0.09,0.92,0.18,1.48,0.29c-0.29,1.77-0.58,3.49-0.89,5.34C36.04,77.46,35.77,77.41,35.43,77.35z
		"/>
	<path class="st0" d="M53.9,69.19c0.53-0.62,1.02-0.62,1.65-0.19c0.96,0.65,1.99,1.2,3.13,1.68c-0.59-1.07-1.17-2.14-1.79-3.26
		c0.26-0.16,0.48-0.29,0.76-0.46c0.9,1.6,1.78,3.14,2.65,4.68c-0.53,0.59-1.02,0.56-1.64,0.14c-0.97-0.65-2.01-1.22-3.02-1.82
		c-0.05,0.05-0.1,0.1-0.15,0.16c0.59,1.07,1.19,2.15,1.81,3.26c-0.27,0.17-0.5,0.31-0.77,0.48C55.64,72.27,54.77,70.72,53.9,69.19z"
		/>
	<path class="st0" d="M30.29,9.81c-0.34,0.1-0.6,0.18-0.94,0.28c-0.5-1.75-0.98-3.46-1.49-5.26c1.05-0.28,2.03-0.61,3.03-0.79
		c0.99-0.17,1.83,0.91,1.53,1.87c-0.07,0.23-0.2,0.44-0.09,0.58c0.39,0.79,0.78,1.58,1.19,2.44c-0.38,0.09-0.69,0.17-1.08,0.26
		C32.29,8.75,32.16,8.35,32,7.95c-0.29-0.73-0.62-0.77-1.77-0.42c-0.69,0.22-0.41,0.62-0.29,1.02C30.05,8.94,30.15,9.33,30.29,9.81z
		 M29.41,6.92c1.84-0.35,2.28-0.65,2.09-1.36c-0.18-0.7-0.76-0.86-1.98-0.34C28.52,5.67,29.57,6.3,29.41,6.92z"/>
	<path class="st0" d="M28.5,71.53c-0.04,1.74-1.36,3.27-2.8,3.23c-1.51-0.05-2.64-1.15-2.63-2.55c0.01-1.76,1.3-3.28,2.76-3.25
		C27.41,68.98,28.53,70.07,28.5,71.53z M27.51,71.45c0.03-0.9-0.58-1.56-1.47-1.6c-0.97-0.04-1.96,1.16-1.98,2.39
		c-0.01,0.88,0.62,1.58,1.47,1.63C26.46,73.92,27.47,72.69,27.51,71.45z"/>
	<path class="st0" d="M60.35,15.39c1.12-1.18,2.34-2.46,3.62-3.81c0.67,0.66,1.36,1.28,1.97,1.95c0.5,0.54,0.58,1.22,0.3,1.91
		c-0.49,1.22-1.38,2.07-2.66,2.27c-0.53,0.08-1.22-0.25-1.68-0.6C61.33,16.67,60.91,16.03,60.35,15.39z M61.48,15.57
		c0.68,0.67,1.16,1.47,2.13,1.13c0.91-0.32,1.62-0.99,1.78-1.96c0.16-0.94-0.74-1.27-1.11-1.67C63.33,13.92,62.44,14.71,61.48,15.57
		z"/>
	<path class="st0" d="M58.07,8.57c-0.24,0.37-0.44,0.68-0.71,1.09c0.76,0.48,1.5,0.95,2.28,1.45c-0.13,0.23-0.24,0.43-0.39,0.69
		c-0.53-0.32-1.05-0.56-1.48-0.91c-0.64-0.52-1.05-0.39-1.35,0.34c-0.07,0.17-0.15,0.34-0.25,0.56c0.85,0.53,1.67,1.05,2.52,1.58
		c-0.13,0.24-0.24,0.45-0.4,0.72c-1.17-0.71-2.29-1.39-3.49-2.12c0.95-1.56,1.87-3.08,2.83-4.65c1.15,0.69,2.23,1.35,3.37,2.04
		c-0.15,0.24-0.26,0.43-0.43,0.69C59.74,9.56,58.94,9.08,58.07,8.57z"/>
	<path class="st0" d="M22.87,9.52c0.68-0.35,1.27-0.63,1.83-0.96c0.5-0.3,0.74-0.16,0.87,0.45c-0.72,0.4-1.47,0.81-2.31,1.27
		c0.24,0.47,0.47,0.91,0.71,1.39c0.95-0.49,1.81-0.93,2.73-1.41c0.14,0.26,0.25,0.46,0.39,0.72c-1.21,0.65-2.37,1.27-3.59,1.92
		c-0.85-1.61-1.68-3.18-2.54-4.81c1.18-0.63,2.29-1.22,3.45-1.84c0.14,0.25,0.25,0.46,0.39,0.72c-0.86,0.46-1.69,0.91-2.59,1.39
		C22.44,8.76,22.63,9.1,22.87,9.52z"/>
	<path class="st0" d="M52.78,75.35c-0.61,0.39-1.07,0.45-1.45-0.25c-0.09-0.16-0.48-0.24-0.72-0.23c-0.34,0.02-0.72,0.1-1.01,0.28
		c-0.25,0.15-0.56,0.45-0.58,0.7c-0.05,0.67-0.34,0.92-1.07,0.83c0.11-1.76,0.21-3.51,0.36-5.26c0.02-0.2,0.34-0.45,0.57-0.52
		c0.23-0.07,0.66-0.05,0.77,0.11C50.73,72.44,51.74,73.9,52.78,75.35z M50.56,73.91c-0.42-0.62-0.83-1.21-1.23-1.8
		c-0.07,0.04-0.13,0.07-0.2,0.11c0,0.71,0,1.41,0,2.19c0.42-0.1,0.76-0.18,1.09-0.28C50.32,74.1,50.4,74.01,50.56,73.91z"/>
	<path class="st0" d="M41.58,77.57c-0.28,0-0.54,0-0.87,0c-0.13-1.76-0.26-3.5-0.41-5.47c1.07,0,2.06-0.06,3.04,0.02
		c0.75,0.06,1.13,0.74,1.13,1.71c0,0.93-0.37,1.42-1.19,1.58c-0.55,0.11-1.28,0.02-1.59,0.35c-0.26,0.28-0.04,1.02-0.03,1.56
		C41.68,77.37,41.64,77.42,41.58,77.57z M41.37,74.69c0.89-0.03,1.64,0.24,1.99-0.49c0.14-0.28,0.02-1-0.17-1.08
		c-0.46-0.2-1.25-0.37-1.49-0.13C41.39,73.31,41.48,74.02,41.37,74.69z"/>
	<path class="st0" d="M20.28,12.98c0.56,1.26,0.39,2.07-0.57,2.87c-0.9,0.75-1.85,0.81-2.85,0.13c-0.81-0.55-1.38-1.3-1.59-2.28
		c-0.21-0.96,0.22-1.88,1.16-2.49c0.82-0.53,1.63-0.49,2.51,0.14c-0.31,0.4-0.57,0.67-1.19,0.48c-0.88-0.28-1.74,0.62-1.53,1.55
		c0.2,0.9,0.77,1.56,1.58,1.97c0.89,0.45,1.93-0.26,1.87-1.22C19.64,13.43,19.64,13.43,20.28,12.98z"/>
	<path class="st0" d="M21.12,68.08c-0.5-0.18-0.75-0.43-0.71-1.06c0.07-0.96-0.93-1.56-1.83-1.15c-0.83,0.38-1.43,1.05-1.57,1.95
		c-0.06,0.41,0.12,1.01,0.41,1.27c0.29,0.25,0.86,0.17,1.31,0.25c0.36,0.06,0.73,0.13,1.24,0.23c-0.97,0.87-1.85,0.98-2.72,0.5
		c-0.95-0.53-1.47-1.52-1.24-2.52c0.26-1.15,0.95-2,2-2.53c0.89-0.45,1.98-0.17,2.75,0.62C21.47,66.38,21.59,67.13,21.12,68.08z"/>
	<path class="st0" d="M49.84,6.55C49.77,6.8,49.71,7,49.65,7.24C49.41,7.22,49.2,7.21,49,7.17c-1.7-0.36-1.7-0.37-2.17,1.3
		c-0.04,0.16-0.09,0.31-0.15,0.56c-0.31-0.08-0.61-0.15-0.95-0.24c0.42-1.77,0.83-3.48,1.26-5.27c1.26,0.3,2.46,0.58,3.71,0.88
		c-0.08,0.29-0.13,0.51-0.2,0.76c-0.89-0.2-1.73-0.39-2.57-0.58c-0.69,1.17-0.62,1.37,0.61,1.65C48.95,6.33,49.36,6.43,49.84,6.55z"
		/>
	<path class="st0" d="M60,65.36c1.19-1.54,2.16,0.23,3.33,0.05c-0.16-0.54-0.25-1.07-0.48-1.54c-0.35-0.73-0.14-1.21,0.55-1.58
		c0.68,1.74,0.43,3.89,2.38,5.07c-0.21,0.22-0.31,0.33-0.42,0.44c-0.1,0.09-0.21,0.17-0.43,0.34C63.92,66.16,61.78,66.17,60,65.36z"
		/>
	<path class="st0" d="M39.59,3.54c-0.6,0.17-1.33,0.17-1.53,0.49c-0.23,0.38,0,1.04,0.04,1.58c0.04,0.65,0.06,1.3,0.15,1.95
		c0.09,0.7-0.08,1.06-0.95,0.85c-0.12-1.46-0.23-2.96-0.35-4.48c-0.57,0-1.05,0-1.61,0c-0.03-0.24-0.06-0.46-0.1-0.78
		c1.45-0.11,2.85-0.22,4.29-0.32C39.55,3.13,39.57,3.34,39.59,3.54z"/>
	<path class="st0" d="M53.53,5.46c0.35,0.15,0.62,0.27,0.93,0.41c-0.68,1.66-1.34,3.29-2.04,4.98c-0.31-0.1-0.58-0.19-0.95-0.31
		C52.16,8.84,52.83,7.19,53.53,5.46z"/>
	<path class="st0" d="M43.11,8.49c-0.35-0.04-0.61-0.07-1-0.12c0.15-1.81,0.29-3.57,0.43-5.4c0.34,0.02,0.6,0.03,0.99,0.05
		C43.39,4.84,43.25,6.6,43.11,8.49z"/>
	<path class="st0" d="M55.14,35.45c-0.07,0.88-0.11,1.64-0.19,2.39c-0.08,0.79-0.54,1.34-1.3,1.47c-0.6,0.11-1.28,0.17-1.84-0.01
		c-0.46-0.15-1.01-0.62-1.16-1.06c-0.58-1.73-0.45-3.53-0.13-5.3c0.03-0.15,0.11-0.31,0.2-0.44c0.43-0.66,1.8-1,2.85-0.73
		c0.82,0.22,1.28,0.76,1.38,1.7C55.03,34.17,55.09,34.87,55.14,35.45z"/>
	<path class="st0" d="M35.46,24.98c0.73-1.05,1.28-1.88,1.87-2.68c0.51-0.69,1.18-0.91,2.04-0.51c0,1.19,0,2.39,0,3.76
		C38.11,25.37,36.92,25.19,35.46,24.98z"/>
	<path class="st0" d="M44.08,24.91c-0.76,0.16-1.26,0.28-1.77,0.36c-0.67,0.1-1.34,0.16-2.08,0.24c0-1.28,0-2.49,0-3.74
		c0.72-0.32,1.39-0.25,1.91,0.43C42.76,23.04,43.35,23.9,44.08,24.91z"/>
	<path class="st0" d="M36.3,19.83c2.34-0.53,4.62-0.52,6.95-0.01C41.78,21.26,37.83,21.27,36.3,19.83z"/>
	<path class="st0" d="M44.81,24.69c-0.84-1.23-1.6-2.34-2.35-3.43c0.86-0.33,2.96,0.79,4.53,2.54
		C46.22,24.11,45.49,24.41,44.81,24.69z"/>
	<path class="st0" d="M32.49,23.78c1.49-1.29,2.78-2.48,4.76-2.72c-0.89,1.3-1.65,2.42-2.49,3.64
		C34.11,24.43,33.38,24.13,32.49,23.78z"/>
	<path class="st0" d="M30.41,22.23c1.48-0.68,2.96-1.38,4.46-2.02c0.22-0.09,0.58,0.12,0.8,0.17c-1.23,0.95-2.41,1.87-3.6,2.76
		c-0.13,0.1-0.41,0.12-0.55,0.05c-0.36-0.18-0.68-0.43-1.02-0.65C30.48,22.44,30.44,22.33,30.41,22.23z"/>
	<path class="st0" d="M47.86,23.3c-1.38-0.99-2.65-1.9-4.07-2.91c0.39-0.05,0.79-0.24,1.06-0.12c1.44,0.61,2.85,1.29,4.27,1.95
		c-0.01,0.1-0.01,0.19-0.02,0.29C48.64,22.79,48.19,23.08,47.86,23.3z"/>
	<path class="st0" d="M39.37,49.38c-0.75,0.41-1.34,0.2-1.78-0.36c-0.68-0.85-1.31-1.75-2.11-2.83c1.47-0.2,2.65-0.37,3.89-0.54
		C39.37,46.99,39.37,48.17,39.37,49.38z"/>
	<path class="st0" d="M40.2,49.37c0-1.16,0-2.35,0-3.7c1.21,0.16,2.39,0.31,3.67,0.48c-0.5,1.27-1.2,2.23-2.08,3.08
		C41.3,49.69,40.78,49.67,40.2,49.37z"/>
	<path class="st0" d="M32.6,47.35c0.84-0.33,1.56-0.62,2.21-0.87c0.81,1.17,1.58,2.28,2.39,3.46c-0.22,0-0.54,0.08-0.78-0.01
		C35.03,49.35,33.76,48.57,32.6,47.35z"/>
	<path class="st0" d="M43.17,51.3c-2.27,0.49-4.49,0.47-6.75,0.02C37.97,49.86,41.65,49.96,43.17,51.3z"/>
	<path class="st0" d="M44.76,46.46c0.67,0.27,1.38,0.56,2.23,0.91c-1.43,1.27-2.77,2.37-4.73,2.71
		C43.14,48.81,43.91,47.69,44.76,46.46z"/>
	<path class="st0" d="M43.79,50.73c1.25-0.95,2.42-1.85,3.62-2.72c0.14-0.1,0.45-0.1,0.63-0.02c0.36,0.17,0.67,0.42,1.06,0.68
		c-1.4,1.07-2.89,1.76-4.47,2.24C44.37,50.99,44.03,50.79,43.79,50.73z"/>
	<path class="st0" d="M30.43,48.67c0.58-0.36,1.01-0.62,1.34-0.83c1.36,0.96,2.66,1.87,4.04,2.84c-0.27,0.08-0.6,0.29-0.86,0.22
		C33.36,50.46,31.9,49.72,30.43,48.67z"/>
	<path class="st0" d="M34.13,56.82c-0.05,0.36-0.05,0.81-0.18,1.21c-0.07,0.2-0.36,0.46-0.56,0.46c-0.19,0-0.53-0.28-0.54-0.45
		c-0.07-0.79-0.08-1.6-0.03-2.39c0.01-0.19,0.41-0.55,0.54-0.51c0.25,0.06,0.53,0.33,0.63,0.57C34.13,56.02,34.09,56.4,34.13,56.82z
		"/>
	<path class="st0" d="M30.16,56.84c-0.06,0.38-0.08,0.82-0.22,1.21c-0.07,0.2-0.38,0.45-0.56,0.44c-0.2-0.01-0.52-0.29-0.54-0.48
		c-0.06-0.8-0.06-1.61-0.01-2.4c0.01-0.18,0.36-0.48,0.53-0.47c0.23,0.02,0.54,0.25,0.62,0.46C30.11,55.96,30.1,56.38,30.16,56.84z"
		/>
	<path class="st0" d="M48.31,56.82c-0.06,0.43-0.07,0.85-0.21,1.22c-0.08,0.2-0.37,0.41-0.59,0.44c-0.16,0.02-0.5-0.26-0.51-0.41
		c-0.05-0.85-0.05-1.72,0-2.57c0.01-0.14,0.34-0.36,0.53-0.37c0.18,0,0.48,0.2,0.53,0.37C48.22,55.92,48.25,56.39,48.31,56.82z"/>
</g>
</svg>
