<?xml version="1.0" encoding="utf-8"?>
<!-- Generator: Adobe Illustrator 26.2.1, SVG Export Plug-In . SVG Version: 6.00 Build 0)  -->
<svg version="1.1" id="Layer_1" xmlns="http://www.w3.org/2000/svg" xmlns:xlink="http://www.w3.org/1999/xlink" x="0px" y="0px"
	 viewBox="0 0 80 80" style="enable-background:new 0 0 80 80;" xml:space="preserve">
<style type="text/css">
	.st0{fill:#14437B;}
	.st1{fill:#FFFFFF;}
</style>
<circle class="st0" cx="40" cy="40" r="40"/>
<circle class="st1" cx="40" cy="40" r="38.14"/>
<circle class="st0" cx="40" cy="40" r="36.27"/>
<g>
	<polygon class="st1" points="27.67,28.98 27.67,24.58 16.18,24.58 16.18,28.98 18.82,28.98 18.82,38.4 16.18,38.4 16.18,42.8 
		27.67,42.8 27.67,38.4 25.04,38.4 25.04,28.98 	"/>
	<path class="st1" d="M40.35,31.57c-0.71-0.21-4.36-1.25-5-1.46s-1.15-0.5-1.15-0.88c0-0.37,0.58-0.77,1.76-0.77
		c3.71,0,5.49,2.29,5.49,2.29s0.2,0.27,0.27,0.36h3.58v-6.24h-3.84v1.13c-0.29-0.2-2.46-1.62-5.81-1.62c-4.43,0-6.9,2.3-6.9,5.73
		s3.11,4.86,3.98,5.22c0.87,0.36,4.25,1.32,5.69,1.77c1.45,0.45,1.98,0.77,1.98,1.01s-0.63,0.84-2.44,0.84
		c-3.15,0-4.77-1.86-5.06-2.22v0c-0.09-0.12-0.2-0.26-0.23-0.32c-0.04-0.06-0.14-0.2-0.21-0.3h-3.58v6.66h4.01v-1.39
		c0.47,0.31,2.86,1.8,5.73,1.8c3.2,0,7.28-1.39,7.28-5.75S41.07,31.78,40.35,31.57z"/>
	<path class="st1" d="M56.1,24.33c-5.34,0-9.72,2.67-9.72,9.48s4.75,9.37,9.74,9.37s9.69-2.53,9.69-9.3S61.11,24.33,56.1,24.33z
		 M56.15,38.64c-1.83,0-3-0.42-3-4.85c0-4.43,0.87-4.89,3.07-4.89c1.33,0,2.95,0.09,2.95,4.75S57.97,38.64,56.15,38.64z"/>
	<g>
		<path class="st1" d="M23.84,22.57c1.2-1.77,2.68-3.34,4.37-4.65c0.68,0.51,1.41,0.96,2.18,1.37c-1.28,1.43-2.43,3.01-2.62,3.27
			h0.77c0.46-0.62,1.42-1.87,2.42-2.98c1.1,0.54,2.27,0.98,3.49,1.32c-0.32,0.69-0.57,1.29-0.71,1.66h0.67
			c0.15-0.38,0.38-0.91,0.66-1.5c1.56,0.38,3.19,0.59,4.85,0.63v0.88h0.62v-0.87c1.66-0.01,3.28-0.2,4.83-0.56
			c0.26,0.56,0.48,1.06,0.62,1.43h0.67c-0.14-0.36-0.37-0.93-0.68-1.58c1.24-0.32,2.43-0.75,3.55-1.29
			c0.97,1.08,1.87,2.27,2.32,2.87h0.77c-0.18-0.26-1.27-1.76-2.51-3.15c0.85-0.44,1.66-0.94,2.41-1.5c1.69,1.3,3.17,2.88,4.37,4.65
			h0.75c-3.67-5.66-10.04-9.41-17.26-9.41s-13.6,3.75-17.26,9.41H23.84L23.84,22.57z M34.72,20.34c-1.16-0.31-2.27-0.72-3.32-1.23
			c0.14-0.15,0.29-0.29,0.43-0.43c1.44-1.39,3.8-2.91,4.32-3.23c0.42,0.23,0.88,0.43,1.37,0.58c-0.38,0.5-1.12,1.51-1.93,2.79
			C35.26,19.32,34.97,19.84,34.72,20.34z M39.91,21.07c-1.57-0.03-3.1-0.23-4.57-0.57c0.23-0.45,0.49-0.91,0.76-1.35
			c0.93-1.47,1.78-2.58,2.06-2.94c0.56,0.13,1.15,0.21,1.75,0.24L39.91,21.07L39.91,21.07z M40.53,21.07v-4.62
			c0.6-0.01,1.18-0.07,1.74-0.19c0.32,0.41,1.12,1.48,2.01,2.88c0.29,0.46,0.56,0.95,0.8,1.42C43.61,20.89,42.09,21.06,40.53,21.07z
			 M45.7,20.42c-0.26-0.52-0.56-1.08-0.9-1.6c-0.77-1.21-1.48-2.18-1.87-2.7c0.52-0.15,1.01-0.34,1.46-0.56
			c0.73,0.47,2.84,1.86,4.16,3.14c0.18,0.17,0.35,0.35,0.53,0.54C48.01,19.72,46.88,20.12,45.7,20.42z M51.99,17.53
			c-0.73,0.52-1.5,1-2.32,1.41c-0.23-0.25-0.46-0.48-0.69-0.7c-1.24-1.2-3.09-2.45-3.99-3.04c0.31-0.2,0.59-0.42,0.84-0.66
			C48.07,15.18,50.15,16.2,51.99,17.53z M40.36,13.78c1.64,0,3.23,0.2,4.75,0.57c-1.16,0.94-2.89,1.49-4.75,1.49
			c-1.87,0-3.6-0.55-4.75-1.49C37.13,13.98,38.72,13.78,40.36,13.78z M34.89,14.54c0.2,0.2,0.43,0.38,0.67,0.55
			c-0.82,0.53-2.84,1.87-4.16,3.15c-0.19,0.18-0.38,0.38-0.58,0.58c-0.73-0.38-1.43-0.81-2.09-1.29
			C30.57,16.2,32.65,15.18,34.89,14.54z"/>
		<path class="st1" d="M56.88,44.87c-1.17,1.73-2.61,3.28-4.26,4.56c-0.78-0.59-1.63-1.12-2.52-1.58c1.07-1.21,2.03-2.5,2.39-2.99
			h-0.77c-0.48,0.64-1.31,1.71-2.19,2.7c-1.12-0.53-2.31-0.96-3.55-1.29c0.26-0.56,0.47-1.06,0.61-1.42h-0.67
			c-0.14,0.35-0.33,0.79-0.56,1.27c-1.55-0.35-3.17-0.54-4.83-0.55v-0.71h-0.62v0.71c-1.67,0.03-3.3,0.25-4.85,0.62
			c-0.24-0.51-0.44-0.97-0.59-1.34h-0.67c0.15,0.37,0.37,0.9,0.65,1.5c-1.22,0.34-2.39,0.78-3.49,1.32c-0.92-1.02-1.8-2.16-2.3-2.82
			h-0.77c0.37,0.5,1.38,1.87,2.5,3.11c-0.8,0.43-1.57,0.92-2.28,1.45c-1.65-1.29-3.09-2.83-4.26-4.56h-0.74
			c3.67,5.66,10.04,9.41,17.26,9.41c7.23,0,13.6-3.75,17.26-9.41L56.88,44.87L56.88,44.87z M45.7,46.85c1.18,0.3,2.32,0.7,3.39,1.19
			c-0.18,0.19-0.36,0.37-0.53,0.54c-1.32,1.27-3.43,2.66-4.16,3.13c-0.45-0.23-0.94-0.42-1.46-0.57c0.4-0.52,1.1-1.49,1.87-2.7
			C45.13,47.93,45.43,47.37,45.7,46.85z M40.53,46.2c1.56,0.01,3.09,0.18,4.55,0.51c-0.24,0.47-0.51,0.96-0.8,1.42
			c-0.88,1.39-1.68,2.46-2.01,2.88c-0.56-0.11-1.14-0.17-1.74-0.18L40.53,46.2L40.53,46.2z M39.91,46.2v4.62
			c-0.61,0.03-1.2,0.11-1.76,0.24c-0.28-0.36-1.12-1.47-2.05-2.94c-0.28-0.44-0.53-0.9-0.76-1.35C36.8,46.43,38.34,46.23,39.91,46.2
			z M34.72,46.93c0.25,0.5,0.54,1.02,0.86,1.52c0.81,1.28,1.55,2.29,1.93,2.78c-0.49,0.15-0.95,0.35-1.37,0.58
			c-0.52-0.33-2.88-1.85-4.32-3.23c-0.14-0.14-0.28-0.28-0.43-0.43C32.45,47.65,33.56,47.24,34.72,46.93z M28.61,49.82
			c0.69-0.51,1.43-0.97,2.2-1.37c0.19,0.2,0.38,0.4,0.58,0.58c1.33,1.28,3.34,2.62,4.16,3.15c-0.29,0.2-0.56,0.43-0.79,0.67
			C32.53,52.2,30.45,51.16,28.61,49.82z M40.36,53.66c-1.69,0-3.33-0.21-4.9-0.61c1.15-1.01,2.96-1.62,4.9-1.62
			c1.93,0,3.75,0.61,4.9,1.62C43.69,53.44,42.05,53.66,40.36,53.66z M45.96,52.85c-0.28-0.29-0.6-0.55-0.96-0.79
			c0.91-0.59,2.75-1.84,3.99-3.04c0.23-0.22,0.46-0.46,0.69-0.7c0.86,0.43,1.67,0.93,2.43,1.49C50.27,51.16,48.19,52.2,45.96,52.85z
			"/>
	</g>
	<g>
		<path class="st1" d="M17.37,60.85c0.03,0.51,0.23,0.87,0.59,1.06c0.19,0.1,0.4,0.15,0.64,0.15c0.44,0,0.82-0.18,1.14-0.55
			c0.31-0.37,0.54-1.12,0.67-2.25c-0.21,0.33-0.46,0.56-0.77,0.69c-0.3,0.13-0.63,0.2-0.98,0.2c-0.71,0-1.28-0.22-1.69-0.67
			c-0.41-0.44-0.62-1.01-0.62-1.71c0-0.67,0.2-1.26,0.61-1.77c0.41-0.51,1.01-0.76,1.81-0.76c1.08,0,1.82,0.48,2.23,1.45
			c0.23,0.53,0.34,1.2,0.34,2c0,0.9-0.14,1.71-0.41,2.4c-0.45,1.16-1.21,1.74-2.29,1.74c-0.72,0-1.27-0.19-1.65-0.57
			c-0.38-0.38-0.56-0.85-0.56-1.42L17.37,60.85L17.37,60.85z M19.78,58.97c0.3-0.24,0.46-0.67,0.46-1.27c0-0.54-0.14-0.95-0.41-1.21
			c-0.27-0.27-0.62-0.4-1.05-0.4c-0.45,0-0.81,0.15-1.08,0.46c-0.27,0.3-0.4,0.71-0.4,1.22c0,0.48,0.12,0.86,0.35,1.15
			c0.23,0.28,0.61,0.43,1.12,0.43C19.14,59.33,19.48,59.21,19.78,58.97z"/>
		<path class="st1" d="M26.78,56.43c0.33,0.61,0.5,1.44,0.5,2.5c0,1-0.15,1.84-0.45,2.49c-0.43,0.94-1.14,1.41-2.13,1.41
			c-0.89,0-1.55-0.39-1.98-1.16c-0.36-0.64-0.54-1.51-0.54-2.59c0-0.84,0.11-1.56,0.33-2.16c0.41-1.12,1.14-1.68,2.2-1.68
			C25.66,55.25,26.35,55.64,26.78,56.43z M25.84,61.35c0.29-0.43,0.43-1.22,0.43-2.38c0-0.84-0.1-1.53-0.31-2.07
			c-0.21-0.54-0.61-0.81-1.2-0.81c-0.55,0-0.95,0.26-1.2,0.77c-0.25,0.51-0.38,1.27-0.38,2.27c0,0.75,0.08,1.36,0.24,1.82
			c0.25,0.7,0.67,1.05,1.27,1.05C25.17,61.99,25.55,61.78,25.84,61.35z"/>
		<path class="st1" d="M32.66,56.43c0.33,0.61,0.5,1.44,0.5,2.5c0,1-0.15,1.84-0.45,2.49c-0.43,0.94-1.14,1.41-2.13,1.41
			c-0.89,0-1.55-0.39-1.98-1.16c-0.36-0.64-0.54-1.51-0.54-2.59c0-0.84,0.11-1.56,0.33-2.16c0.41-1.12,1.14-1.68,2.2-1.68
			C31.54,55.25,32.23,55.64,32.66,56.43z M31.72,61.35c0.29-0.43,0.43-1.22,0.43-2.38c0-0.84-0.1-1.53-0.31-2.07
			c-0.21-0.54-0.61-0.81-1.2-0.81c-0.55,0-0.95,0.26-1.2,0.77c-0.25,0.51-0.38,1.27-0.38,2.27c0,0.75,0.08,1.36,0.24,1.82
			c0.25,0.7,0.67,1.05,1.27,1.05C31.05,61.99,31.43,61.78,31.72,61.35z"/>
		<path class="st1" d="M34.61,57.41v-0.71c0.67-0.07,1.14-0.17,1.4-0.33c0.26-0.15,0.46-0.52,0.59-1.09h0.73v7.36h-0.99v-5.23
			L34.61,57.41L34.61,57.41z"/>
		<path class="st1" d="M40.65,57.18h1.08v1.13h-1.08V57.18z M40.65,61.51h1.08v1.13h-1.08V61.51z"/>
		<path class="st1" d="M43.14,60.98c0.23-0.47,0.68-0.9,1.34-1.29l0.99-0.57c0.44-0.26,0.76-0.48,0.93-0.66
			c0.28-0.29,0.42-0.61,0.42-0.98c0-0.43-0.13-0.77-0.39-1.03c-0.26-0.25-0.6-0.38-1.03-0.38c-0.64,0-1.08,0.24-1.32,0.72
			c-0.13,0.26-0.2,0.62-0.22,1.08h-0.94c0.01-0.64,0.13-1.17,0.36-1.57c0.4-0.72,1.11-1.07,2.13-1.07c0.85,0,1.47,0.23,1.86,0.69
			c0.39,0.46,0.59,0.97,0.59,1.53c0,0.59-0.21,1.1-0.62,1.52c-0.24,0.24-0.67,0.54-1.3,0.89l-0.71,0.39
			c-0.34,0.19-0.6,0.36-0.79,0.53c-0.34,0.3-0.56,0.63-0.65,1h4.04v0.88h-5.07C42.78,62,42.91,61.45,43.14,60.98z"/>
		<path class="st1" d="M53.23,56.43c0.33,0.61,0.5,1.44,0.5,2.5c0,1-0.15,1.84-0.45,2.49c-0.43,0.94-1.14,1.41-2.13,1.41
			c-0.89,0-1.55-0.39-1.98-1.16c-0.36-0.64-0.54-1.51-0.54-2.59c0-0.84,0.11-1.56,0.33-2.16c0.41-1.12,1.14-1.68,2.2-1.68
			C52.11,55.25,52.8,55.64,53.23,56.43z M52.3,61.35c0.29-0.43,0.43-1.22,0.43-2.38c0-0.84-0.1-1.53-0.31-2.07
			c-0.21-0.54-0.61-0.81-1.2-0.81c-0.55,0-0.95,0.26-1.2,0.77c-0.25,0.51-0.38,1.27-0.38,2.27c0,0.75,0.08,1.36,0.24,1.82
			c0.25,0.7,0.67,1.05,1.27,1.05C51.63,61.99,52.01,61.78,52.3,61.35z"/>
		<path class="st1" d="M55.19,57.41v-0.71c0.67-0.07,1.14-0.17,1.4-0.33c0.26-0.15,0.46-0.52,0.59-1.09h0.73v7.36h-0.99v-5.23
			L55.19,57.41L55.19,57.41z"/>
		<path class="st1" d="M61.36,60.76c0.06,0.53,0.31,0.9,0.74,1.1c0.22,0.1,0.47,0.15,0.76,0.15c0.55,0,0.96-0.18,1.22-0.53
			c0.26-0.35,0.4-0.74,0.4-1.17c0-0.52-0.16-0.92-0.47-1.2c-0.31-0.28-0.69-0.42-1.13-0.42c-0.32,0-0.59,0.06-0.82,0.19
			c-0.23,0.12-0.42,0.3-0.59,0.52l-0.81-0.05l0.56-3.98h3.84v0.9h-3.14l-0.31,2.05c0.17-0.13,0.34-0.23,0.49-0.29
			c0.28-0.11,0.59-0.17,0.95-0.17c0.68,0,1.25,0.22,1.72,0.66c0.47,0.44,0.71,0.99,0.71,1.66c0,0.7-0.22,1.31-0.65,1.85
			c-0.43,0.53-1.12,0.8-2.07,0.8c-0.6,0-1.13-0.17-1.6-0.51c-0.46-0.34-0.72-0.86-0.78-1.56L61.36,60.76L61.36,60.76z"/>
	</g>
</g>
</svg>
