<svg width="625" height="322" viewBox="0 0 625 322" fill="none" xmlns="http://www.w3.org/2000/svg">
<mask id="mask0_70_245" style="mask-type:alpha" maskUnits="userSpaceOnUse" x="0" y="0" width="625" height="322">
<path d="M0 0H625V322H0V0Z" fill="url(#paint0_linear_70_245)"/>
</mask>
<g mask="url(#mask0_70_245)">
<rect width="633" height="322" fill="#F8F1FE"/>
<g opacity="0.63" filter="url(#filter0_f_70_245)">
<path d="M438.002 164.185C438.448 156.506 440.979 153.306 447.155 152.267C456.307 150.732 459.784 152.44 462.959 160.317C465.354 159.996 467.841 159.661 470.521 159.296C470.898 154.037 466.294 146.462 477.024 146.233C476.641 143.183 476.331 140.324 475.917 137.477C474.537 128.096 475.731 119.297 481.375 111.351C481.969 110.516 482.062 108.758 481.604 107.818C475.756 95.8872 473.454 83.4554 475.341 70.2067C475.645 68.0904 474.71 65.5162 473.646 63.536C470.775 58.1771 467.501 53.0348 464.426 47.7873C462.73 44.8975 464.636 43.9198 466.944 43.0968C479.896 38.4929 492.841 33.8642 505.787 29.2417C510.254 27.6452 514.753 26.1229 519.184 24.4397C522.055 23.3506 523.435 24.2912 524.202 27.1872C526.442 35.634 528.713 44.0807 531.319 52.4222C531.913 54.3219 533.577 56.2588 535.279 57.3479C537.909 59.0311 540.898 60.2996 543.899 61.2216C562.544 66.9209 566.745 81.1534 566.566 94.9838C566.523 98.1087 567.03 100.336 569.388 102.607C574.864 107.88 577.086 114.866 578.558 122.131C579.177 125.194 579.926 128.226 580.693 131.63C591.207 128.146 589.79 136.481 591.145 142.143C593.831 141.797 596.219 141.481 598.552 141.178C600.922 132.044 604.313 129.433 613.781 129.495C617.611 129.519 621.046 131.097 622.296 134.693C623.422 137.941 625.322 138.047 628.032 138.146C647.605 138.863 664.257 152.855 667.097 170.918C668.403 179.216 669.542 187.545 670.717 195.862C674.232 220.694 677.122 245.639 681.398 270.341C685.866 296.177 666.912 315.285 646.479 318.751C626.677 322.105 606.739 324.673 586.85 327.513C563.466 330.848 540.069 334.097 516.684 337.401C500.651 339.666 484.636 342.061 468.584 344.221C450.001 346.721 432.26 338.218 423.739 323.088C420.156 316.733 419.531 309.673 418.535 302.705C414.141 271.969 409.865 241.214 405.435 210.484C402.532 190.348 414.37 171.932 434.754 165.218C435.787 164.878 436.821 164.556 437.99 164.185H438.002ZM417.687 278.776C419.16 288.924 420.657 298.54 421.883 308.194C422.186 310.576 423.102 311.356 425.342 311.863C443.355 315.947 458.547 324.889 470.576 338.961C472.229 340.892 473.912 341.003 476.022 340.7C491.808 338.447 507.6 336.207 523.385 333.967C550.378 330.13 577.376 326.337 604.356 322.457C619.053 320.341 633.725 318.076 648.415 315.91C650.73 315.57 651.893 314.506 652.32 312.037C655.383 294.326 663.521 279.246 676.249 266.591C676.961 265.886 677.84 264.741 677.735 263.918C676.751 256.233 675.569 248.572 674.43 240.762C662.425 242.545 650.903 244.252 639.016 246.016C639.492 249.908 640.024 253.491 640.352 257.093C640.835 262.458 637.704 266.616 632.444 267.68C630.662 268.046 628.836 268.305 627.023 268.417C620.687 268.819 616.863 265.676 615.928 259.419C615.452 256.22 614.932 253.027 614.406 249.636C568.101 256.492 522.259 263.275 475.966 270.131C476.307 273.237 476.696 276.084 476.919 278.949C477.439 285.607 474.091 289.611 467.489 290.366C466.523 290.477 465.558 290.607 464.593 290.743C458.095 291.678 453.739 288.528 452.619 282.043C452.155 279.351 451.796 276.641 451.369 273.788C439.927 275.484 428.993 277.105 417.699 278.782L417.687 278.776ZM613.973 247.167C613.929 246.783 613.886 246.394 613.843 246.01C611.163 245.688 608.243 245.923 605.872 244.896C603.583 243.9 601.25 241.944 600.05 239.791C598.756 237.47 598.416 234.451 598.274 231.703C597.946 225.422 601.194 222.235 610.266 219.581C606.689 194.401 603.106 169.173 599.505 143.789C595.551 144.29 591.727 143.418 589.542 147.502C589.14 148.251 587.686 148.665 586.659 148.82C575.334 150.466 563.998 152.075 552.649 153.541C551.325 153.715 549.877 153.04 548.497 152.706C546.851 152.31 545.155 151.332 543.59 151.518C535.007 152.545 526.455 153.814 517.909 155.126C516.869 155.287 515.929 156.19 514.964 156.784C513.491 157.694 512.136 159.216 510.564 159.47C499.382 161.264 488.169 162.824 476.95 164.371C475.818 164.525 474.159 164.501 473.491 163.826C470.069 160.373 466.629 162.768 462.897 163.096C465.991 188.591 469.029 213.69 472.055 238.634C472.656 238.819 472.885 238.943 473.114 238.949C480.583 239.11 484.828 242.26 485.781 248.349C487.216 257.557 485.032 261.486 477.21 264.289C476.35 264.599 475.898 266.041 475.255 266.95C475.564 267.161 475.88 267.365 476.189 267.575C522.117 260.775 568.051 253.968 613.979 247.167H613.973ZM539.406 120.646C542.853 121.172 546.133 122.081 549.419 122.094C555.774 122.118 559.14 117.558 557.76 111.357C556.993 107.917 556.12 104.495 555.409 101.042C552.872 88.6967 547.228 78.4802 535.923 72.0136C535.242 71.6238 534.926 70.6089 534.202 69.526C535.347 69.4518 535.755 69.3033 536.052 69.4332C536.944 69.8169 537.816 70.25 538.645 70.7575C545.984 75.2129 551.442 81.4876 554.276 89.4578C556.04 94.4206 559.19 96.4132 563.769 97.3167C566.034 81.4071 558.917 69.5941 543.497 63.7773C536.17 61.0112 528.274 58.9197 528.039 48.6227C511.634 54.489 495.725 60.1573 479.859 65.9122C479.141 66.1721 478.299 67.2179 478.237 67.9543C477.804 73.2822 476.913 78.6844 477.377 83.9566C478.955 101.723 488.107 116.277 498.212 130.281C499.889 132.607 502.47 133.95 505.564 131.865V127.211C509.592 129.717 511.523 134.68 516.572 133.777C521.832 132.842 522.643 128.888 522.315 124.018C523.887 125.336 524.84 126.636 525.793 127.929C527.73 130.565 529.914 132.966 533.583 132.31C537.265 131.648 538.416 128.492 539.357 125.46C539.759 124.161 539.425 122.638 539.425 120.646H539.406ZM674.028 238.269C673.929 237.161 673.898 236.437 673.799 235.725C670.798 214.395 668.013 193.028 664.715 171.741C661.132 148.616 638.261 139.358 623.966 140.825C627.537 165.961 631.101 191.085 634.69 216.388C640.569 215.793 645.315 217.285 647.617 222.792C649.276 226.765 650.47 231.412 647.988 235.119C645.786 238.405 642.036 240.657 639.09 243.256C639.053 243.25 639.412 243.423 639.74 243.374C651.045 241.709 662.351 240.02 674.028 238.275V238.269ZM438.64 167.093C419.698 169.89 405.002 190.119 407.786 208.925C410.249 225.546 412.495 242.204 414.853 258.844C415.664 264.574 416.536 270.298 417.415 276.232C428.077 274.685 438.306 273.2 448.528 271.703C449.351 271.579 450.15 271.313 451.016 271.102C451.016 270.465 451.078 269.989 451.004 269.537C450.905 268.949 450.688 268.374 450.533 267.823C439.642 267.241 436.425 264.617 435.397 255.558C434.556 248.157 437.662 244.574 447.668 241.585C444.661 216.784 441.653 191.938 438.64 167.087V167.093ZM508.485 133.325C506.331 134.253 504.499 135.045 502.414 135.943C502.748 137.972 503.101 140.089 503.299 141.32C506.944 142.025 510.954 141.648 512.81 143.467C514.796 145.417 514.759 149.426 515.7 152.898C525.861 151.45 536.121 149.983 546.325 148.523C545.982 141.126 548.191 136.607 552.952 134.965C552.606 131.58 552.259 128.139 551.925 124.866C548.521 124.594 545.539 124.359 542.55 124.117C540.118 133.04 534.171 139.563 524.536 130.998C518.54 137.657 515.31 138.108 508.485 133.319V133.325ZM646.652 230.713C646.751 223.139 642.939 218.089 637.042 218.776C627.029 219.952 617.048 221.443 607.11 223.12C602.45 223.906 600.025 228.368 600.804 233.479C601.844 240.274 605.056 243.863 610.272 243.231C620.161 242.043 630.025 240.589 639.857 239.017C643.991 238.361 646.59 234.84 646.646 230.701L646.652 230.713ZM483.677 252.359C483.398 244.605 479.784 240.7 473.281 241.443C464.11 242.483 454.952 243.646 445.806 244.877C439.562 245.719 437.235 249.469 438.157 256.858C438.881 262.687 442.705 265.911 448.33 265.255C457.495 264.178 466.659 263.058 475.812 261.857C481.214 261.146 483.875 257.829 483.683 252.365L483.677 252.359ZM588.824 144.408C588.298 140.93 588.193 138.313 587.401 135.918C587.061 134.884 585.217 133.542 584.22 133.665C572.983 135.045 561.77 136.679 550.557 138.263C548.41 138.566 547.389 140.033 548.187 141.902C549.499 144.983 546.857 149.6 551.776 151.24C551.987 151.308 552.259 151.233 552.5 151.196C563.589 149.593 574.685 148.04 585.755 146.308C586.974 146.116 588.032 144.922 588.824 144.408ZM472.216 151.116C472.693 154.581 472.792 157.186 473.516 159.606C473.807 160.577 475.558 161.895 476.486 161.778C487.835 160.361 499.159 158.709 510.483 157.112C513.361 156.704 513.318 154.42 512.631 152.669C511.517 149.81 513.961 145.398 509.085 144.142C508.973 144.111 508.844 144.142 508.72 144.16C497.396 145.794 486.065 147.384 474.766 149.154C473.708 149.321 472.829 150.627 472.216 151.122V151.116ZM513.93 43.1525C513.355 44.1426 512.767 45.1388 512.185 46.1351C513.497 45.9309 515.056 46.1042 516.053 45.4297C517.395 44.5324 518.602 43.1339 519.332 41.6859C520.873 38.629 520.254 35.7144 517.624 33.4743C515.372 31.5498 512.457 31.0053 510.261 32.8679C508.67 34.2169 507.173 36.8963 507.346 38.827C507.662 42.4099 510.731 43.5052 513.93 43.1463V43.1525Z" fill="#1222AA"/>
<path d="M503.231 320.199C504.766 319.79 506.275 319.24 507.835 318.992C539.58 313.974 571.331 308.974 603.088 304.035C604.121 303.875 605.248 304.345 606.33 304.518C605.371 305.149 604.474 306.195 603.441 306.362C571.467 311.498 539.481 316.56 507.495 321.597C506.176 321.801 504.803 321.622 503.448 321.622C503.373 321.145 503.305 320.675 503.231 320.199Z" fill="#1222AA"/>
<path d="M511.739 235.843C511.201 235.113 509.883 234.104 509.685 232.91C508.392 224.989 507.371 217.031 506.189 209.092C505.824 206.654 506.585 205.682 509.159 205.329C527.352 202.842 545.52 200.206 563.688 197.551C566.232 197.18 567.822 197.44 568.193 200.521C569.14 208.368 570.31 216.183 571.442 224.005C571.714 225.886 571.739 227.254 569.239 227.6C550.452 230.236 531.684 232.972 511.739 235.843ZM528.453 220.849C530.904 222.384 549.666 219.853 552.03 217.675C549.691 216.171 530.817 218.708 528.453 220.849Z" fill="#1222AA"/>
<path d="M500.62 113.647C499.865 112.991 498.887 112.465 498.38 111.654C493.206 103.332 489.37 94.4331 487.154 84.8725C486.95 83.9814 487.377 82.948 487.513 81.9827C488.151 82.6695 489.159 83.2636 489.363 84.0619C491.789 93.4306 495.471 102.249 500.514 110.516C500.966 111.258 501.139 112.168 501.436 113.003L500.613 113.653L500.62 113.647Z" fill="#1222AA"/>
<path d="M624.127 225.057C627.958 225.076 631.132 227.965 631.194 231.493C631.262 235.478 628.112 238.621 624.01 238.665C619.95 238.708 616.801 235.837 616.757 232.043C616.714 228.182 620.031 225.038 624.127 225.051V225.057Z" fill="#1222AA"/>
<path d="M467.501 253.207C467.501 257.278 464.426 260.317 460.292 260.304C456.263 260.292 453.188 257.353 453.2 253.516C453.213 249.698 456.672 246.449 460.651 246.536C464.413 246.616 467.501 249.624 467.507 253.207H467.501Z" fill="#1222AA"/>
<path d="M516.808 40.8319C516.616 37.9978 516.22 35.8196 512.6 36.8344C513.194 37.9235 513.676 38.796 514.753 40.7576C512.773 40.2997 511.028 40.3864 510.595 39.6747C510.001 38.697 509.902 36.3146 510.477 35.9557C511.801 35.1389 513.887 34.5324 515.242 35.0213C517.594 35.8629 517.996 38.0596 516.808 40.8319Z" fill="#1222AA"/>
</g>
<rect opacity="0.68" y="-19" width="635" height="353" fill="#F8F1FE"/>
</g>
<defs>
<filter id="filter0_f_70_245" x="397" y="16" width="293.058" height="336.653" filterUnits="userSpaceOnUse" color-interpolation-filters="sRGB">
<feFlood flood-opacity="0" result="BackgroundImageFix"/>
<feBlend mode="normal" in="SourceGraphic" in2="BackgroundImageFix" result="shape"/>
<feGaussianBlur stdDeviation="4" result="effect1_foregroundBlur_70_245"/>
</filter>
<linearGradient id="paint0_linear_70_245" x1="-196" y1="-293.5" x2="733" y2="462" gradientUnits="userSpaceOnUse">
<stop stop-color="#200554"/>
<stop offset="1" stop-color="#45108A"/>
</linearGradient>
</defs>
</svg>
