<?xml version="1.0" encoding="UTF-8"?>
<svg id="report" xmlns="http://www.w3.org/2000/svg" version="1.1" xmlns:xlink="http://www.w3.org/1999/xlink" viewBox="0 0 640.62 640.62">
  <defs>
    <style>
      .cls-1 {
        fill: #360061;
      }

      .cls-1, .cls-2, .cls-3, .cls-4, .cls-5, .cls-6, .cls-7 {
        stroke-width: 0px;
      }

      .cls-2 {
        fill: url(#linear-gradient);
      }

      .cls-3 {
        fill: url(#linear-gradient-5);
      }

      .cls-4 {
        fill: #5800b2;
      }

      .cls-5 {
        fill: url(#linear-gradient-2);
      }

      .cls-6 {
        fill: url(#linear-gradient-3);
      }

      .cls-7 {
        fill: url(#linear-gradient-4);
      }
    </style>
    <linearGradient id="linear-gradient" x1="137.22" y1="-64.74" x2="650.25" y2="651.03" gradientUnits="userSpaceOnUse">
      <stop offset="0" stop-color="#fff" stop-opacity=".4"/>
      <stop offset=".07" stop-color="#fff" stop-opacity=".34"/>
      <stop offset=".49" stop-color="#fff" stop-opacity="0"/>
      <stop offset=".75" stop-color="#fafafa" stop-opacity=".1"/>
      <stop offset="1" stop-color="#efefef" stop-opacity=".2"/>
    </linearGradient>
    <linearGradient id="linear-gradient-2" x1="46.72" y1=".13" x2="559.75" y2="715.89" xlink:href="#linear-gradient"/>
    <linearGradient id="linear-gradient-3" x1="-81.83" y1="92.26" x2="431.2" y2="808.03" xlink:href="#linear-gradient"/>
    <linearGradient id="linear-gradient-4" x1="128.36" y1="-58.4" x2="641.4" y2="657.37" xlink:href="#linear-gradient"/>
    <linearGradient id="linear-gradient-5" x1="146.3" y1="-71.25" x2="659.33" y2="644.51" xlink:href="#linear-gradient"/>
  </defs>
  <g>
    <path class="cls-1" d="M320.39,364.28c-47.65-33.05-84.61-76.86-109.25-132.01,19.42-3.38,33.53-15.17,47.71-27.08,29.46-24.73,59.04-49.3,88.79-73.67,11.91-9.75,22.12-20.65,28.3-36,49.63,34.19,85.88,78.51,110.56,133.16-1.79.67-3.4,1.12-4.87,1.87-9.71,4.94-20.55,8.5-28.86,15.18-36.48,29.32-72.53,59.2-108.05,89.69-9.24,7.93-15.98,18.79-24.33,28.86Z"/>
    <path class="cls-4" d="M459.24,622.69c-45.5,0-91.01.01-136.51,0-17.19,0-24.9-7.72-24.95-24.9-.03-12.31-.17-24.62.03-36.93.49-30.14,21.31-50.58,51.54-50.59,73.42-.04,146.85-.05,220.27,0,30.77.02,51.65,20.99,51.77,51.83.05,12.53.07,25.06,0,37.59-.09,14.47-8.47,22.96-22.98,22.98-46.38.08-92.77.03-139.15.03Z"/>
    <path class="cls-4" d="M203.43,279.02c19.28,32.7,42.99,61.02,71.93,86.01-3.01,2.53-5.62,4.74-8.25,6.93-53.9,44.74-107.81,89.48-161.71,134.23-12.16,10.09-25.49,12.45-39.76,5.3-4.2-2.1-8.11-5.36-11.23-8.9-9.12-10.4-17.91-21.09-26.57-31.88-12.92-16.09-11.32-36.76,4.5-49.98,56.13-46.88,112.49-93.48,168.76-140.18.5-.41,1.09-.72,2.33-1.53Z"/>
    <path class="cls-4" d="M199.17,205.52c-23.03-.02-41.52-12.8-48.65-31.73-7.49-19.87-2-41.39,14.73-55.44,28.45-23.89,57.12-47.5,85.69-71.23,6.76-5.62,13.49-11.28,20.29-16.86,22.4-18.35,52.95-16,70.66,5.39,17.62,21.27,14.63,51.51-7.38,69.97-35.02,29.38-70.29,58.48-105.45,87.7-9.47,7.87-20.3,12.05-29.88,12.2Z"/>
    <path class="cls-1" d="M550.89,303.18c-.04,15.96-4.94,28.97-16.32,38.53-36.64,30.8-73.31,61.57-110.52,91.66-20.57,16.63-50.77,12.79-67.5-7.22-17.14-20.5-15.6-50.62,4.9-68.1,36.41-31.06,73.27-61.61,110.46-91.73,15.47-12.53,33.45-13.97,51.4-5.2,17.71,8.65,26.51,23.59,27.58,42.05Z"/>
  </g>
  <g>
    <path class="cls-2" d="M320.39,364.28c-47.65-33.05-84.61-76.86-109.25-132.01,19.42-3.38,33.53-15.17,47.71-27.08,29.46-24.73,59.04-49.3,88.79-73.67,11.91-9.75,22.12-20.65,28.3-36,49.63,34.19,85.88,78.51,110.56,133.16-1.79.67-3.4,1.12-4.87,1.87-9.71,4.94-20.55,8.5-28.86,15.18-36.48,29.32-72.53,59.2-108.05,89.69-9.24,7.93-15.98,18.79-24.33,28.86Z"/>
    <path class="cls-5" d="M459.24,622.69c-45.5,0-91.01.01-136.51,0-17.19,0-24.9-7.72-24.95-24.9-.03-12.31-.17-24.62.03-36.93.49-30.14,21.31-50.58,51.54-50.59,73.42-.04,146.85-.05,220.27,0,30.77.02,51.65,20.99,51.77,51.83.05,12.53.07,25.06,0,37.59-.09,14.47-8.47,22.96-22.98,22.98-46.38.08-92.77.03-139.15.03Z"/>
    <path class="cls-6" d="M203.43,279.02c19.28,32.7,42.99,61.02,71.93,86.01-3.01,2.53-5.62,4.74-8.25,6.93-53.9,44.74-107.81,89.48-161.71,134.23-12.16,10.09-25.49,12.45-39.76,5.3-4.2-2.1-8.11-5.36-11.23-8.9-9.12-10.4-17.91-21.09-26.57-31.88-12.92-16.09-11.32-36.76,4.5-49.98,56.13-46.88,112.49-93.48,168.76-140.18.5-.41,1.09-.72,2.33-1.53Z"/>
    <path class="cls-7" d="M199.17,205.52c-23.03-.02-41.52-12.8-48.65-31.73-7.49-19.87-2-41.39,14.73-55.44,28.45-23.89,57.12-47.5,85.69-71.23,6.76-5.62,13.49-11.28,20.29-16.86,22.4-18.35,52.95-16,70.66,5.39,17.62,21.27,14.63,51.51-7.38,69.97-35.02,29.38-70.29,58.48-105.45,87.7-9.47,7.87-20.3,12.05-29.88,12.2Z"/>
    <path class="cls-3" d="M550.89,303.18c-.04,15.96-4.94,28.97-16.32,38.53-36.64,30.8-73.31,61.57-110.52,91.66-20.57,16.63-50.77,12.79-67.5-7.22-17.14-20.5-15.6-50.62,4.9-68.1,36.41-31.06,73.27-61.61,110.46-91.73,15.47-12.53,33.45-13.97,51.4-5.2,17.71,8.65,26.51,23.59,27.58,42.05Z"/>
  </g>
</svg>