<?xml version="1.0" encoding="UTF-8"?>
<svg id="Layer_1" data-name="Layer 1" xmlns="http://www.w3.org/2000/svg" version="1.1" xmlns:xlink="http://www.w3.org/1999/xlink" viewBox="0 0 45 45">
  <defs>
    <style>
      .cls-1 {
        fill: url(#linear-gradient);
      }

      .cls-1, .cls-2, .cls-3 {
        stroke-width: 0px;
      }

      .cls-2 {
        fill: url(#linear-gradient-2);
      }

      .cls-3 {
        fill: url(#linear-gradient-3);
      }
    </style>
    <linearGradient id="linear-gradient" x1=".14" y1="40.94" x2="7.95" y2="41" gradientTransform="translate(-.14 250.64) scale(5.57 -5.57)" gradientUnits="userSpaceOnUse">
      <stop offset="0" stop-color="#ffb900"/>
      <stop offset=".34" stop-color="#f38000"/>
      <stop offset=".57" stop-color="#f83c72"/>
      <stop offset=".78" stop-color="#fc1cbe"/>
      <stop offset=".93" stop-color="#fe08ed"/>
      <stop offset="1" stop-color="#f0f"/>
    </linearGradient>
    <linearGradient id="linear-gradient-2" x1="2.34" y1="38.38" x2="10.3" y2="42.79" gradientTransform="translate(-.14 250.64) scale(5.57 -5.57)" gradientUnits="userSpaceOnUse">
      <stop offset="0" stop-color="#ee0a3f"/>
      <stop offset="1" stop-color="#ee0a3f" stop-opacity="0"/>
    </linearGradient>
    <linearGradient id="linear-gradient-3" x1="64.24" y1="39.88" x2="68.12" y2="43.02" gradientTransform="translate(371.5 249.39) rotate(-180) scale(5.51)" gradientUnits="userSpaceOnUse">
      <stop offset="0" stop-color="#ed6600"/>
      <stop offset="1" stop-color="#f98200"/>
    </linearGradient>
  </defs>
  <g id="g942">
    <g id="g71">
      <path id="path69" class="cls-1" d="M22.51,40.33c-.31,0-.62-.08-.89-.23-2.32-1.34-19.53-12.13-20.18-12.46-.49-.23-.83-.7-.89-1.25v-15.13c-.01-.56.27-1.1.74-1.41l.12-.07c1.66-1.03,7.24-4.43,8.12-4.92.2-.12.43-.18.67-.19.22,0,.44.06.63.16,0,0,7.8,5.08,8.99,5.54.84.38,1.75.58,2.67.56,1.04.02,2.07-.23,2.99-.73,1.17-.61,8.61-5.34,8.7-5.34.19-.11.4-.17.62-.17.24,0,.47.07.67.19,1.01.56,7.92,4.79,8.21,4.97.49.29.78.82.77,1.39v15.13c-.05.54-.39,1.02-.89,1.25-.65.36-17.8,11.14-20.17,12.46-.27.16-.58.25-.89.25"/>
    </g>
    <g id="g79">
      <path id="path77" class="cls-2" d="M22.42,40.33h.09c.31,0,.62-.08.89-.23,2.32-1.34,19.52-12.13,20.17-12.46.5-.23.84-.7.89-1.25v-15.13c0-.26-.06-.51-.17-.74l-21.87,12.01v17.8"/>
    </g>
    <g id="g970">
      <path id="path968" class="cls-3" d="M22.34,40.11h-.09c-.31,0-.61-.08-.88-.23-2.3-1.33-19.31-12-19.95-12.33-.49-.23-.83-.69-.88-1.23v-14.97c0-.25.05-.5.17-.73l21.63,11.88v17.61"/>
    </g>
  </g>
</svg>