<?xml version="1.0" encoding="UTF-8"?>
<svg id="report" xmlns="http://www.w3.org/2000/svg" version="1.1" xmlns:xlink="http://www.w3.org/1999/xlink" viewBox="0 0 640.62 640.62">
  <defs>
    <style>
      .cls-1 {
        fill: #360061;
      }

      .cls-1, .cls-2, .cls-3, .cls-4, .cls-5, .cls-6 {
        stroke-width: 0px;
      }

      .cls-2 {
        fill: url(#linear-gradient);
      }

      .cls-3 {
        fill: #5800b2;
      }

      .cls-4 {
        fill: url(#linear-gradient-2);
      }

      .cls-5 {
        fill: url(#linear-gradient-3);
      }

      .cls-6 {
        fill: url(#linear-gradient-4);
      }
    </style>
    <linearGradient id="linear-gradient" x1="182.16" y1="67.52" x2="546.38" y2="628.89" gradientUnits="userSpaceOnUse">
      <stop offset="0" stop-color="#fff" stop-opacity=".4"/>
      <stop offset=".07" stop-color="#fff" stop-opacity=".34"/>
      <stop offset=".49" stop-color="#fff" stop-opacity="0"/>
      <stop offset=".75" stop-color="#fafafa" stop-opacity=".1"/>
      <stop offset="1" stop-color="#efefef" stop-opacity=".2"/>
    </linearGradient>
    <linearGradient id="linear-gradient-2" x1="34.96" y1="163.02" x2="399.18" y2="724.39" xlink:href="#linear-gradient"/>
    <linearGradient id="linear-gradient-3" x1="228.45" y1="37.49" x2="592.67" y2="598.86" xlink:href="#linear-gradient"/>
    <linearGradient id="linear-gradient-4" x1="330.12" y1="-28.48" x2="694.34" y2="532.89" xlink:href="#linear-gradient"/>
  </defs>
  <g>
    <path class="cls-3" d="M317.95,610.99v-68.14h-41.93c0-15.94-.1-31.23.17-46.51.03-1.46,2.12-3.35,3.7-4.26,22.77-13.03,39.4-31.56,50.07-55.49,9.95-22.3,11.96-45.57,8.1-69.44-5.08-31.36-10.41-62.68-15.66-94.01-.21-1.28-.65-2.52-1.11-4.26h-44.67c-1.23-26.54,17.54-64.95,61.88-76.79v-60.25h102.2v58.23c11.37,6.25,22.26,10.85,31.54,17.64,18.66,13.66,28.99,32.79,30.68,55.88.94,12.8.17,25.72.17,39.23h-113.08v193.27h113.16v114.91h-185.23Z"/>
    <path class="cls-1" d="M158.86,610.99v-33.85h45.08v-105.48c-15.75-3.6-29.84-10.64-41.28-22.22-19.73-19.95-28.47-43.96-24.49-71.88,3.53-24.69,7.9-49.25,11.94-74.16h142.67c2.69,16.06,5.59,32.19,8.05,48.39,1.92,12.7,4.5,25.46,4.68,38.22.51,36.98-24.93,69.96-60.55,80.1-1.98.56-3.95,1.13-6.17,1.75v104.87h45.05v34.26h-125Z"/>
    <path class="cls-1" d="M502.89,461.85h-78.85v-124.25h78.85v124.25Z"/>
    <path class="cls-3" d="M440.55,29.63v67.4h-101.74V29.63h101.74Z"/>
  </g>
  <g>
    <path class="cls-2" d="M317.95,610.99v-68.14h-41.93c0-15.94-.1-31.23.17-46.51.03-1.46,2.12-3.35,3.7-4.26,22.77-13.03,39.4-31.56,50.07-55.49,9.95-22.3,11.96-45.57,8.1-69.44-5.08-31.36-10.41-62.68-15.66-94.01-.21-1.28-.65-2.52-1.11-4.26h-44.67c-1.23-26.54,17.54-64.95,61.88-76.79v-60.25h102.2v58.23c11.37,6.25,22.26,10.85,31.54,17.64,18.66,13.66,28.99,32.79,30.68,55.88.94,12.8.17,25.72.17,39.23h-113.08v193.27h113.16v114.91h-185.23Z"/>
    <path class="cls-4" d="M158.86,610.99v-33.85h45.08v-105.48c-15.75-3.6-29.84-10.64-41.28-22.22-19.73-19.95-28.47-43.96-24.49-71.88,3.53-24.69,7.9-49.25,11.94-74.16h142.67c2.69,16.06,5.59,32.19,8.05,48.39,1.92,12.7,4.5,25.46,4.68,38.22.51,36.98-24.93,69.96-60.55,80.1-1.98.56-3.95,1.13-6.17,1.75v104.87h45.05v34.26h-125Z"/>
    <path class="cls-5" d="M502.89,461.85h-78.85v-124.25h78.85v124.25Z"/>
    <path class="cls-6" d="M440.55,29.63v67.4h-101.74V29.63h101.74Z"/>
  </g>
</svg>