<?xml version="1.0" encoding="utf-8"?>
<!-- Generator: Adobe Illustrator 27.3.1, SVG Export Plug-In . SVG Version: 6.00 Build 0)  -->
<svg version="1.1" id="report" xmlns="http://www.w3.org/2000/svg" xmlns:xlink="http://www.w3.org/1999/xlink" x="0px" y="0px"
	 viewBox="0 0 640.62 640.62" style="enable-background:new 0 0 640.62 640.62;" xml:space="preserve">
<style type="text/css">
	.st0{fill:#360061;}
	.st1{fill:#5800B2;}
	.st2{fill:url(#SVGID_1_);}
	.st3{fill:url(#SVGID_00000063624483832037620790000017784280405550120882_);}
	.st4{fill:url(#SVGID_00000095313828574436215960000001776613155229095067_);}
	.st5{fill:url(#SVGID_00000132782988878168670740000018054132256333823663_);}
	.st6{fill:url(#SVGID_00000027563188810078467820000003668894860703261081_);}
	.st7{fill:url(#SVGID_00000015346712599552832810000012447253046215886476_);}
	.st8{fill:url(#SVGID_00000054960437100581212710000005064435550782432411_);}
</style>
<g>
	<path class="st0" d="M640.62,116.21c0,131.79,0,263.57,0,395.36c-4.6,7.91-11.94,6.73-17.74,6.21c-3.69-6-6.37-11.36-9.99-15.99
		c-3.77-4.83-8.44-8.96-12.87-13.55c1.01-0.75,1.45-1.2,1.97-1.45c19.62-9.09,23.64-30.2,8.53-45.49
		c-10.7-10.82-21.41-21.63-32.42-32.14c-9.85-9.4-21.5-10.53-33.28-3.86c-4.67,2.64-9.31,5.33-13.85,7.93
		c-3.56-3.1-2.66-5.24-0.05-7.99c16.56-17.48,25.24-38.42,26.78-62.39c0.48-7.52-0.87-14.53-5.6-20.61
		c-7.03-9.03-18.83-12.64-29.72-9.1c-10.65,3.46-17.73,12.73-18.28,24.37c-0.49,10.43-3.19,19.92-10.32,27.95
		c-24.22-15.57-48.48-15.87-73.09-2.08c-7.21-8.5-9.15-18.28-9.92-28.64c-1.14-15.34-13.17-26.28-27.65-25.65
		c-14.96,0.65-26.12,12.63-25.87,28.16c0.38,23.31,7.63,44.3,23,61.93c4.35,4.99,4.75,8.66,0.38,13.58
		c-4.92-2.78-9.9-5.79-15.06-8.45c-10.45-5.38-21.64-4.25-30.16,3.77c-12.44,11.72-24.79,23.57-36.5,36
		c-12.47,13.24-7.65,34.26,8.95,41.8c1.6,0.73,3.19,1.46,5,2.29c-8.17,9.89-20.02,16.4-21.85,30.29c-2.23,0.11-4.08,0.28-5.92,0.28
		c-90.68,0.01-181.36,0.02-272.05,0c-10.12,0-13-2.92-13-13.05c-0.01-127.79,0-255.58,0-383.37c0-2,0-4,0-6.35c3.36,0,5.84,0,8.32,0
		c208.47,0,416.93,0,625.4,0.01C636.04,116,638.33,116.14,640.62,116.21z M320.1,271.4c83.4,0,166.79,0,250.19-0.01
		c9.93,0,12.62-2.67,12.64-12.56c0.03-16.89,0.02-33.77,0-50.66c-0.02-10.16-2.93-13.13-12.92-13.14
		c-19.81-0.02-39.61-0.01-59.42-0.01c-146.57,0-293.13,0-439.7,0c-10.96,0-13.55,2.61-13.56,13.65c-0.02,16.26-0.01,32.52,0,48.79
		c0.01,11.59,2.34,13.93,13.84,13.93C154.14,271.4,237.12,271.4,320.1,271.4z M57.33,389.59c0,23.35-0.02,46.7,0.01,70.05
		c0.01,9.8,2.85,12.71,12.67,12.72c47.12,0.04,94.23,0.04,141.35,0c9.42-0.01,12.48-3.06,12.48-12.29
		c0.02-46.91,0.02-93.82,0-140.72c0-10.06-2.96-13-13.05-13c-46.91-0.01-93.82-0.01-140.72,0c-9.8,0-12.72,2.87-12.73,12.57
		C57.3,342.47,57.33,366.03,57.33,389.59z M319.7,161.26c83.62,0,167.23,0.01,250.85-0.01c7.78,0,12.23-3.47,12.31-9.37
		c0.08-5.92-4.35-9.33-12.19-9.39c-0.63,0-1.25,0-1.88,0c-165.78,0-331.55,0-497.33,0c-1.88,0-3.78-0.17-5.62,0.1
		c-4.87,0.73-8.06,3.41-8.39,8.54c-0.34,5.42,2.6,8.67,7.66,9.85c2.19,0.51,4.56,0.27,6.85,0.27
		C154.55,161.26,237.13,161.26,319.7,161.26z"/>
	<path class="st1" d="M640.62,97.45c-2.71-0.05-5.42-0.15-8.12-0.15c-207.87-0.01-415.73-0.01-623.6-0.01c-2.67,0-5.34,0-8.86,0
		c0-9.56,0-18.65,0-27.74c0-7.3-0.11-14.6,0.04-21.89c0.14-6.6,3.51-9.92,10.03-10.25c1.25-0.06,2.5-0.02,3.75-0.02
		c204.32,0,408.64,0.02,612.97-0.08c5.83,0,10.71,0.9,13.79,6.33C640.62,61.58,640.62,79.51,640.62,97.45z M589.62,68.08
		c-5-0.06-9.19,3.78-8.79,8.53c0.41,4.93,3.11,8.12,8.32,8.44c4.72,0.29,8.74-3.75,8.77-8.6C597.94,71.81,594.3,68.14,589.62,68.08z
		 M505.67,76.65c0.12-4.76-3.25-8.4-7.95-8.57c-5.08-0.19-8.92,3.35-8.8,8.34c0.12,5.11,2.82,8.15,7.95,8.62
		C501.7,85.47,505.55,81.68,505.67,76.65z M551.65,76.39c-0.01-4.58-3.7-8.26-8.32-8.3c-4.61-0.04-8.86,4.15-8.81,8.69
		c0.04,4.33,4.01,8.22,8.46,8.3C547.64,85.16,551.66,81.14,551.65,76.39z"/>
	<path class="st0" d="M391.75,541.54c-2.55-13.87-4.98-27.1-7.61-41.4c-9.99,0-20.72-0.13-31.45,0.15
		c-1.49,0.04-3.08,1.93-4.38,3.21c-7.74,7.59-15.37,15.3-23.1,22.89c-5.09,4.99-10.29,5.41-14.15,1.32
		c-3.65-3.87-3.24-9.19,1.35-13.84c9.37-9.5,18.66-19.1,28.42-28.17c2.45-2.28,6.56-3.72,9.98-3.86c11-0.48,22.04-0.18,33.4-0.18
		c0.78-7.44,1.72-14.43,2.07-21.44c0.07-1.48-1.66-3.63-3.14-4.52c-9.28-5.58-18.72-10.89-28.81-16.69
		c-7.96,8-15.99,16.08-24.04,24.16c-1.62,1.62-3.17,3.32-4.91,4.81c-4.13,3.55-9.47,3.56-12.97,0.16c-3.9-3.78-3.98-8.93,0.31-13.3
		c8.61-8.78,17.43-17.36,26.19-26c12.6-12.44,12.61-12.43,27.79-3.75c7.73,4.42,15.46,8.81,23.73,13.52
		c2.01-5.59,3.8-10.59,5.51-15.33c16.86,3.58,33.28,7.07,50.2,10.67c0,55.41,0,111.36,0,169.37c-7.65-4.1-15.32-6.55-20.71-11.49
		c-8.03-7.35-14.34-16.56-21.61-24.77c-2.04-2.31-4.64-4.73-7.45-5.64c-8.9-2.88-18.11-4.79-27.02-7.65
		c-4.12-1.32-5.9-0.1-7.83,3.33c-5.52,9.8-11.33,19.43-17.12,29.07c-3.9,6.51-8.79,8.43-13.83,5.65c-4.89-2.7-5.55-8.11-1.71-14.69
		c7.25-12.41,14.66-24.72,21.75-37.22c3.19-5.63,7.55-7.32,13.6-5.68C373.22,536.67,382.27,539.03,391.75,541.54z"/>
	<path class="st0" d="M548.55,552.99c-12.28,3.32-24.36,6.34-36.24,10.01c-2.31,0.71-4.2,3.71-5.67,6.04
		c-8.9,14.04-19.66,25.87-35.94,31.43c-1.18,0.4-2.39,0.72-3.6,1c-0.37,0.08-0.81-0.12-1.5-0.24c0-55.56,0-111.17,0-166.91
		c16.63-2.73,33.17-5.44,50.71-8.32c1.28,3.69,2.8,8.1,4.59,13.27c10.26-5.88,20.27-11.61,30.26-17.35
		c8.47-4.87,10.6-4.62,17.4,2.16c9.44,9.43,18.86,18.87,28.29,28.31c0.88,0.88,1.81,1.74,2.6,2.7c3.46,4.24,3.45,9.45,0.02,13.02
		c-3.37,3.5-8.65,3.51-12.83-0.45c-6.2-5.88-12.15-12.02-18.19-18.07c-3.38-3.39-6.71-6.82-10.42-10.59
		c-10.63,6.1-21.08,12.02-31.4,18.13c-0.93,0.55-1.66,2.37-1.58,3.54c0.47,6.63,1.22,13.23,1.95,20.55
		c10.75,0,21.36,0.37,31.91-0.13c6.88-0.32,11.8,1.94,16.37,6.98c7.84,8.64,16.3,16.71,24.4,25.12c4.95,5.14,5.29,10.16,1.27,14.27
		c-4.27,4.37-9.44,4-14.64-1.25c-7.48-7.56-14.69-15.38-22.38-22.72c-1.99-1.9-5.28-3.22-8.05-3.37
		c-8.32-0.43-16.67-0.29-25.01-0.04c-1.61,0.05-4.39,1.41-4.59,2.53c-2.32,13.03-4.25,26.12-6.37,39.71
		c9.22-2.38,18.59-4.82,27.98-7.23c8.1-2.07,10.38-1.2,14.42,5.73c7.22,12.42,14.42,24.86,21.55,37.33
		c3.28,5.75,2.5,11.46-1.7,13.87c-4.7,2.7-10.92,0.52-14.21-5.17C561.5,575.74,555.15,564.53,548.55,552.99z"/>
	<path class="st1" d="M506.14,407.47c-33.11,11.18-67.23,11.06-101.1-1.24c-0.12-0.15-0.37-0.36-0.34-0.43
		c0.7-1.5,1.43-2.99,2.69-5.59c-0.78-0.45-1.96-0.93-2.89-1.7c-18.23-15.22-28.24-34.64-29.68-58.39c-0.12-2.06-0.16-4.21,0.28-6.2
		c1.04-4.66,4.32-7.26,8.93-7.24c4.93,0.02,8.23,2.81,9.03,7.84c0.89,5.54,1.06,11.24,2.36,16.67c3.48,14.53,11.61,26.06,24,35.22
		c10.97-9.68,23.26-15.95,38.32-15.36c14.89,0.58,26.41,7.94,36.89,18.07c16.99-12.31,25.79-28.68,26.94-49.3
		c0.4-7.06,4.59-11.27,10.32-10.51c5.48,0.72,8.58,5.15,8.19,12.05c-1.37,24.19-11.36,44.02-29.96,59.6
		C508.28,402.52,507.45,405.27,506.14,407.47z"/>
	<path class="st1" d="M564.28,213.7c0,13.14,0,25.79,0,39.02c-162.58,0-325.02,0-487.82,0c0-12.94,0-25.76,0-39.02
		C239,213.7,401.3,213.7,564.28,213.7z"/>
	<path class="st1" d="M76.24,453.56c0-42.8,0-85.12,0-127.94c42.92,0,85.71,0,128.87,0c0,42.52,0,84.98,0,127.94
		C162.42,453.56,119.63,453.56,76.24,453.56z"/>
</g>
<g>
	<linearGradient id="SVGID_1_" gradientUnits="userSpaceOnUse" x1="20.1047" y1="544.7632" x2="638.1721" y2="70.6958">
		<stop  offset="0" style="stop-color:#FFFFFF;stop-opacity:0.4"/>
		<stop  offset="0.0691" style="stop-color:#FFFFFF;stop-opacity:0.3435"/>
		<stop  offset="0.4892" style="stop-color:#FFFFFF;stop-opacity:0"/>
		<stop  offset="0.7527" style="stop-color:#FAFAFA;stop-opacity:0.1032"/>
		<stop  offset="1" style="stop-color:#EFEFEF;stop-opacity:0.2"/>
	</linearGradient>
	<path class="st2" d="M640.62,116.21c0,131.79,0,263.57,0,395.36c-4.6,7.91-11.94,6.73-17.74,6.21c-3.69-6-6.37-11.36-9.99-15.99
		c-3.77-4.83-8.44-8.96-12.87-13.55c1.01-0.75,1.45-1.2,1.97-1.45c19.62-9.09,23.64-30.2,8.53-45.49
		c-10.7-10.82-21.41-21.63-32.42-32.14c-9.85-9.4-21.5-10.53-33.28-3.86c-4.67,2.64-9.31,5.33-13.85,7.93
		c-3.56-3.1-2.66-5.24-0.05-7.99c16.56-17.48,25.24-38.42,26.78-62.39c0.48-7.52-0.87-14.53-5.6-20.61
		c-7.03-9.03-18.83-12.64-29.72-9.1c-10.65,3.46-17.73,12.73-18.28,24.37c-0.49,10.43-3.19,19.92-10.32,27.95
		c-24.22-15.57-48.48-15.87-73.09-2.08c-7.21-8.5-9.15-18.28-9.92-28.64c-1.14-15.34-13.17-26.28-27.65-25.65
		c-14.96,0.65-26.12,12.63-25.87,28.16c0.38,23.31,7.63,44.3,23,61.93c4.35,4.99,4.75,8.66,0.38,13.58
		c-4.92-2.78-9.9-5.79-15.06-8.45c-10.45-5.38-21.64-4.25-30.16,3.77c-12.44,11.72-24.79,23.57-36.5,36
		c-12.47,13.24-7.65,34.26,8.95,41.8c1.6,0.73,3.19,1.46,5,2.29c-8.17,9.89-20.02,16.4-21.85,30.29c-2.23,0.11-4.08,0.28-5.92,0.28
		c-90.68,0.01-181.36,0.02-272.05,0c-10.12,0-13-2.92-13-13.05c-0.01-127.79,0-255.58,0-383.37c0-2,0-4,0-6.35c3.36,0,5.84,0,8.32,0
		c208.47,0,416.93,0,625.4,0.01C636.04,116,638.33,116.14,640.62,116.21z M320.1,271.4c83.4,0,166.79,0,250.19-0.01
		c9.93,0,12.62-2.67,12.64-12.56c0.03-16.89,0.02-33.77,0-50.66c-0.02-10.16-2.93-13.13-12.92-13.14
		c-19.81-0.02-39.61-0.01-59.42-0.01c-146.57,0-293.13,0-439.7,0c-10.96,0-13.55,2.61-13.56,13.65c-0.02,16.26-0.01,32.52,0,48.79
		c0.01,11.59,2.34,13.93,13.84,13.93C154.14,271.4,237.12,271.4,320.1,271.4z M57.33,389.59c0,23.35-0.02,46.7,0.01,70.05
		c0.01,9.8,2.85,12.71,12.67,12.72c47.12,0.04,94.23,0.04,141.35,0c9.42-0.01,12.48-3.06,12.48-12.29
		c0.02-46.91,0.02-93.82,0-140.72c0-10.06-2.96-13-13.05-13c-46.91-0.01-93.82-0.01-140.72,0c-9.8,0-12.72,2.87-12.73,12.57
		C57.3,342.47,57.33,366.03,57.33,389.59z M319.7,161.26c83.62,0,167.23,0.01,250.85-0.01c7.78,0,12.23-3.47,12.31-9.37
		c0.08-5.92-4.35-9.33-12.19-9.39c-0.63,0-1.25,0-1.88,0c-165.78,0-331.55,0-497.33,0c-1.88,0-3.78-0.17-5.62,0.1
		c-4.87,0.73-8.06,3.41-8.39,8.54c-0.34,5.42,2.6,8.67,7.66,9.85c2.19,0.51,4.56,0.27,6.85,0.27
		C154.55,161.26,237.13,161.26,319.7,161.26z"/>
	
		<linearGradient id="SVGID_00000170984990614445460130000005741710476330923686_" gradientUnits="userSpaceOnUse" x1="-98.0617" y1="390.7033" x2="520.0057" y2="-83.3641">
		<stop  offset="0" style="stop-color:#FFFFFF;stop-opacity:0.4"/>
		<stop  offset="0.0691" style="stop-color:#FFFFFF;stop-opacity:0.3435"/>
		<stop  offset="0.4892" style="stop-color:#FFFFFF;stop-opacity:0"/>
		<stop  offset="0.7527" style="stop-color:#FAFAFA;stop-opacity:0.1032"/>
		<stop  offset="1" style="stop-color:#EFEFEF;stop-opacity:0.2"/>
	</linearGradient>
	<path style="fill:url(#SVGID_00000170984990614445460130000005741710476330923686_);" d="M640.62,97.45
		c-2.71-0.05-5.42-0.15-8.12-0.15c-207.87-0.01-415.73-0.01-623.6-0.01c-2.67,0-5.34,0-8.86,0c0-9.56,0-18.65,0-27.74
		c0-7.3-0.11-14.6,0.04-21.89c0.14-6.6,3.51-9.92,10.03-10.25c1.25-0.06,2.5-0.02,3.75-0.02c204.32,0,408.64,0.02,612.97-0.08
		c5.83,0,10.71,0.9,13.79,6.33C640.62,61.58,640.62,79.51,640.62,97.45z M589.62,68.08c-5-0.06-9.19,3.78-8.79,8.53
		c0.41,4.93,3.11,8.12,8.32,8.44c4.72,0.29,8.74-3.75,8.77-8.6C597.94,71.81,594.3,68.14,589.62,68.08z M505.67,76.65
		c0.12-4.76-3.25-8.4-7.95-8.57c-5.08-0.19-8.92,3.35-8.8,8.34c0.12,5.11,2.82,8.15,7.95,8.62
		C501.7,85.47,505.55,81.68,505.67,76.65z M551.65,76.39c-0.01-4.58-3.7-8.26-8.32-8.3c-4.61-0.04-8.86,4.15-8.81,8.69
		c0.04,4.33,4.01,8.22,8.46,8.3C547.64,85.16,551.66,81.14,551.65,76.39z"/>
	
		<linearGradient id="SVGID_00000110453300420026298830000000472474586849868174_" gradientUnits="userSpaceOnUse" x1="143.8784" y1="706.1337" x2="761.9458" y2="232.0663">
		<stop  offset="0" style="stop-color:#FFFFFF;stop-opacity:0.4"/>
		<stop  offset="0.0691" style="stop-color:#FFFFFF;stop-opacity:0.3435"/>
		<stop  offset="0.4892" style="stop-color:#FFFFFF;stop-opacity:0"/>
		<stop  offset="0.7527" style="stop-color:#FAFAFA;stop-opacity:0.1032"/>
		<stop  offset="1" style="stop-color:#EFEFEF;stop-opacity:0.2"/>
	</linearGradient>
	<path style="fill:url(#SVGID_00000110453300420026298830000000472474586849868174_);" d="M391.75,541.54
		c-2.55-13.87-4.98-27.1-7.61-41.4c-9.99,0-20.72-0.13-31.45,0.15c-1.49,0.04-3.08,1.93-4.38,3.21c-7.74,7.59-15.37,15.3-23.1,22.89
		c-5.09,4.99-10.29,5.41-14.15,1.32c-3.65-3.87-3.24-9.19,1.35-13.84c9.37-9.5,18.66-19.1,28.42-28.17
		c2.45-2.28,6.56-3.72,9.98-3.86c11-0.48,22.04-0.18,33.4-0.18c0.78-7.44,1.72-14.43,2.07-21.44c0.07-1.48-1.66-3.63-3.14-4.52
		c-9.28-5.58-18.72-10.89-28.81-16.69c-7.96,8-15.99,16.08-24.04,24.16c-1.62,1.62-3.17,3.32-4.91,4.81
		c-4.13,3.55-9.47,3.56-12.97,0.16c-3.9-3.78-3.98-8.93,0.31-13.3c8.61-8.78,17.43-17.36,26.19-26
		c12.6-12.44,12.61-12.43,27.79-3.75c7.73,4.42,15.46,8.81,23.73,13.52c2.01-5.59,3.8-10.59,5.51-15.33
		c16.86,3.58,33.28,7.07,50.2,10.67c0,55.41,0,111.36,0,169.37c-7.65-4.1-15.32-6.55-20.71-11.49
		c-8.03-7.35-14.34-16.56-21.61-24.77c-2.04-2.31-4.64-4.73-7.45-5.64c-8.9-2.88-18.11-4.79-27.02-7.65
		c-4.12-1.32-5.9-0.1-7.83,3.33c-5.52,9.8-11.33,19.43-17.12,29.07c-3.9,6.51-8.79,8.43-13.83,5.65c-4.89-2.7-5.55-8.11-1.71-14.69
		c7.25-12.41,14.66-24.72,21.75-37.22c3.19-5.63,7.55-7.32,13.6-5.68C373.22,536.67,382.27,539.03,391.75,541.54z"/>
	
		<linearGradient id="SVGID_00000057134383916066157840000010472214396527750529_" gradientUnits="userSpaceOnUse" x1="191.479" y1="768.1933" x2="809.5464" y2="294.1259">
		<stop  offset="0" style="stop-color:#FFFFFF;stop-opacity:0.4"/>
		<stop  offset="0.0691" style="stop-color:#FFFFFF;stop-opacity:0.3435"/>
		<stop  offset="0.4892" style="stop-color:#FFFFFF;stop-opacity:0"/>
		<stop  offset="0.7527" style="stop-color:#FAFAFA;stop-opacity:0.1032"/>
		<stop  offset="1" style="stop-color:#EFEFEF;stop-opacity:0.2"/>
	</linearGradient>
	<path style="fill:url(#SVGID_00000057134383916066157840000010472214396527750529_);" d="M548.55,552.99
		c-12.28,3.32-24.36,6.34-36.24,10.01c-2.31,0.71-4.2,3.71-5.67,6.04c-8.9,14.04-19.66,25.87-35.94,31.43c-1.18,0.4-2.39,0.72-3.6,1
		c-0.37,0.08-0.81-0.12-1.5-0.24c0-55.56,0-111.17,0-166.91c16.63-2.73,33.17-5.44,50.71-8.32c1.28,3.69,2.8,8.1,4.59,13.27
		c10.26-5.88,20.27-11.61,30.26-17.35c8.47-4.87,10.6-4.62,17.4,2.16c9.44,9.43,18.86,18.87,28.29,28.31
		c0.88,0.88,1.81,1.74,2.6,2.7c3.46,4.24,3.45,9.45,0.02,13.02c-3.37,3.5-8.65,3.51-12.83-0.45c-6.2-5.88-12.15-12.02-18.19-18.07
		c-3.38-3.39-6.71-6.82-10.42-10.59c-10.63,6.1-21.08,12.02-31.4,18.13c-0.93,0.55-1.66,2.37-1.58,3.54
		c0.47,6.63,1.22,13.23,1.95,20.55c10.75,0,21.36,0.37,31.91-0.13c6.88-0.32,11.8,1.94,16.37,6.98c7.84,8.64,16.3,16.71,24.4,25.12
		c4.95,5.14,5.29,10.16,1.27,14.27c-4.27,4.37-9.44,4-14.64-1.25c-7.48-7.56-14.69-15.38-22.38-22.72c-1.99-1.9-5.28-3.22-8.05-3.37
		c-8.32-0.43-16.67-0.29-25.01-0.04c-1.61,0.05-4.39,1.41-4.59,2.53c-2.32,13.03-4.25,26.12-6.37,39.71
		c9.22-2.38,18.59-4.82,27.98-7.23c8.1-2.07,10.38-1.2,14.42,5.73c7.22,12.42,14.42,24.86,21.55,37.33
		c3.28,5.75,2.5,11.46-1.7,13.87c-4.7,2.7-10.92,0.52-14.21-5.17C561.5,575.74,555.15,564.53,548.55,552.99z"/>
	
		<linearGradient id="SVGID_00000167370685362095340660000018223632091837492109_" gradientUnits="userSpaceOnUse" x1="91.0872" y1="637.307" x2="709.1546" y2="163.2396">
		<stop  offset="0" style="stop-color:#FFFFFF;stop-opacity:0.4"/>
		<stop  offset="0.0691" style="stop-color:#FFFFFF;stop-opacity:0.3435"/>
		<stop  offset="0.4892" style="stop-color:#FFFFFF;stop-opacity:0"/>
		<stop  offset="0.7527" style="stop-color:#FAFAFA;stop-opacity:0.1032"/>
		<stop  offset="1" style="stop-color:#EFEFEF;stop-opacity:0.2"/>
	</linearGradient>
	<path style="fill:url(#SVGID_00000167370685362095340660000018223632091837492109_);" d="M506.14,407.47
		c-33.11,11.18-67.23,11.06-101.1-1.24c-0.12-0.15-0.37-0.36-0.34-0.43c0.7-1.5,1.43-2.99,2.69-5.59c-0.78-0.45-1.96-0.93-2.89-1.7
		c-18.23-15.22-28.24-34.64-29.68-58.39c-0.12-2.06-0.16-4.21,0.28-6.2c1.04-4.66,4.32-7.26,8.93-7.24
		c4.93,0.02,8.23,2.81,9.03,7.84c0.89,5.54,1.06,11.24,2.36,16.67c3.48,14.53,11.61,26.06,24,35.22
		c10.97-9.68,23.26-15.95,38.32-15.36c14.89,0.58,26.41,7.94,36.89,18.07c16.99-12.31,25.79-28.68,26.94-49.3
		c0.4-7.06,4.59-11.27,10.32-10.51c5.48,0.72,8.58,5.15,8.19,12.05c-1.37,24.19-11.36,44.02-29.96,59.6
		C508.28,402.52,507.45,405.27,506.14,407.47z"/>
	
		<linearGradient id="SVGID_00000051362122599010534930000017580781559849709999_" gradientUnits="userSpaceOnUse" x1="-19.1294" y1="493.6117" x2="598.938" y2="19.5443">
		<stop  offset="0" style="stop-color:#FFFFFF;stop-opacity:0.4"/>
		<stop  offset="0.0691" style="stop-color:#FFFFFF;stop-opacity:0.3435"/>
		<stop  offset="0.4892" style="stop-color:#FFFFFF;stop-opacity:0"/>
		<stop  offset="0.7527" style="stop-color:#FAFAFA;stop-opacity:0.1032"/>
		<stop  offset="1" style="stop-color:#EFEFEF;stop-opacity:0.2"/>
	</linearGradient>
	<path style="fill:url(#SVGID_00000051362122599010534930000017580781559849709999_);" d="M564.28,213.7c0,13.14,0,25.79,0,39.02
		c-162.58,0-325.02,0-487.82,0c0-12.94,0-25.76,0-39.02C239,213.7,401.3,213.7,564.28,213.7z"/>
	
		<linearGradient id="SVGID_00000102523149826472112140000017339182334573354161_" gradientUnits="userSpaceOnUse" x1="-10.1722" y1="505.2896" x2="607.8952" y2="31.2222">
		<stop  offset="0" style="stop-color:#FFFFFF;stop-opacity:0.4"/>
		<stop  offset="0.0691" style="stop-color:#FFFFFF;stop-opacity:0.3435"/>
		<stop  offset="0.4892" style="stop-color:#FFFFFF;stop-opacity:0"/>
		<stop  offset="0.7527" style="stop-color:#FAFAFA;stop-opacity:0.1032"/>
		<stop  offset="1" style="stop-color:#EFEFEF;stop-opacity:0.2"/>
	</linearGradient>
	<path style="fill:url(#SVGID_00000102523149826472112140000017339182334573354161_);" d="M76.24,453.56c0-42.8,0-85.12,0-127.94
		c42.92,0,85.71,0,128.87,0c0,42.52,0,84.98,0,127.94C162.42,453.56,119.63,453.56,76.24,453.56z"/>
</g>
</svg>
