<?xml version="1.0" encoding="UTF-8"?>
<svg id="report" xmlns="http://www.w3.org/2000/svg" xmlns:xlink="http://www.w3.org/1999/xlink" viewBox="0 0 609.81 590.48">
  <defs>
    <style>
      .cls-1 {
        fill: #360061;
      }

      .cls-1, .cls-2, .cls-3, .cls-4, .cls-5, .cls-6, .cls-7, .cls-8, .cls-9, .cls-10, .cls-11, .cls-12 {
        stroke-width: 0px;
      }

      .cls-2 {
        fill: url(#linear-gradient);
      }

      .cls-3 {
        fill: url(#linear-gradient-6);
      }

      .cls-4 {
        fill: url(#linear-gradient-5);
      }

      .cls-5 {
        fill: #5800b2;
      }

      .cls-6 {
        fill: url(#linear-gradient-2);
      }

      .cls-7 {
        fill: url(#linear-gradient-7);
      }

      .cls-8 {
        fill: url(#linear-gradient-3);
      }

      .cls-9 {
        fill: url(#linear-gradient-9);
      }

      .cls-10 {
        fill: url(#linear-gradient-8);
      }

      .cls-11 {
        fill: url(#linear-gradient-10);
      }

      .cls-12 {
        fill: url(#linear-gradient-4);
      }
    </style>
    <linearGradient id="linear-gradient" x1="-32.46" y1="528.16" x2="453.54" y2="23.37" gradientUnits="userSpaceOnUse">
      <stop offset="0" stop-color="#fff" stop-opacity=".4"/>
      <stop offset=".07" stop-color="#fff" stop-opacity=".34"/>
      <stop offset=".49" stop-color="#fff" stop-opacity="0"/>
      <stop offset=".75" stop-color="#fafafa" stop-opacity=".1"/>
      <stop offset="1" stop-color="#efefef" stop-opacity=".2"/>
    </linearGradient>
    <linearGradient id="linear-gradient-2" x1="150.28" y1="704.09" x2="636.28" y2="199.31" xlink:href="#linear-gradient"/>
    <linearGradient id="linear-gradient-3" x1="-39.36" y1="521.51" x2="446.64" y2="16.73" xlink:href="#linear-gradient"/>
    <linearGradient id="linear-gradient-4" x1="59.1" y1="616.31" x2="545.1" y2="111.52" xlink:href="#linear-gradient"/>
    <linearGradient id="linear-gradient-5" x1="13.36" y1="572.27" x2="499.36" y2="67.48" xlink:href="#linear-gradient"/>
    <linearGradient id="linear-gradient-6" x1="75.05" y1="631.66" x2="561.05" y2="126.88" xlink:href="#linear-gradient"/>
    <linearGradient id="linear-gradient-7" x1=".16" y1="559.56" x2="486.16" y2="54.77" xlink:href="#linear-gradient"/>
    <linearGradient id="linear-gradient-8" x1="148.14" y1="702.03" x2="634.14" y2="197.25" xlink:href="#linear-gradient"/>
    <linearGradient id="linear-gradient-9" x1="109.76" y1="665.08" x2="595.76" y2="160.3" xlink:href="#linear-gradient"/>
    <linearGradient id="linear-gradient-10" x1="168.59" y1="721.72" x2="654.59" y2="216.94" xlink:href="#linear-gradient"/>
  </defs>
  <g>
    <path class="cls-1" d="M230.9,25.9c-18.22,8.06-31.1,19.25-49.5,20.88-21.6,1.91-37.38,21.14-38.5,42.31-1.13,21.38,13.36,41.04,34.55,46.86,23.73,6.51,50.82-6.85,55.87-31.01,4.7-22.5,22.67-24.75,38.31-31.64,1.09-.48,3.52.75,4.63,1.88,29.6,30.08,59.1,60.25,89.61,91.42-3.08.35-4.97.75-6.86.76-17.22.05-34.44.23-51.65-.05-8.72-.14-14.88,3.25-19.24,10.72-13.81,23.68-27.8,47.25-41.61,70.93-5.42,9.29-4.8,15.89,2.09,24.38,34.06,41.98,68.11,83.96,102.3,125.84,2.84,3.48,6.38,6.59,10.12,9.1,7.58,5.09,9.88,10.43,7.9,19.39-1.26,5.67-5.5,4.98-9.48,4.98-28.78,0-57.57-.17-86.35-.04-24.99.12-47.96,7.16-67.27,23.13-9.21,7.62-17.49,16.79-24.58,26.45-24.34,33.16-48.11,66.74-71.74,100.42-4.05,5.77-8.4,7.83-15.34,7.72-25.01-.39-50.03-.11-75.05-.17-13.85-.03-19.07-5.23-19.07-19.02C.04,445.76.08,320.4,0,195.04c0-12.82,4.35-23.4,13.37-32.54C62.28,112.88,111.01,63.08,159.87,13.41c17.64-17.93,37.93-17.8,55.93-.13,4.21,4.13,9.06,7.6,15.11,12.61ZM183.98,270.58c8.86,0,17.73.16,26.58-.06,6.1-.15,10.47-3.01,10.6-9.64.13-6.63-4.01-9.83-10.22-9.89-17.45-.19-34.91-.15-52.36-.05-6.21.03-10.55,2.95-10.59,9.56-.04,7,4.5,9.96,11.01,10.07,8.32.14,16.65.03,24.97.02ZM229.72,219.97c-1.33-3.02-1.77-5.69-3.31-7.27-11.81-12.09-23.67-24.16-35.91-35.8-3.99-3.8-9.09-3.11-12.98.97-3.62,3.8-4.15,8.65-.57,12.38,11.89,12.39,24.01,24.57,36.54,36.3,1.89,1.77,6.83,1.83,9.55.71,2.73-1.12,4.45-4.71,6.69-7.3ZM230,302.26c-2.36-3-4.12-7.44-6.85-8.15-3.5-.91-8.97-.1-11.53,2.23-11.28,10.3-21.82,21.42-32.64,32.22-4.59,4.58-6.07,9.55-1.47,14.89,4.09,4.74,9.81,4.38,15.4-1.1,10.73-10.52,21.35-21.15,31.84-31.9,1.96-2.01,3.12-4.81,5.25-8.19Z"/>
    <path class="cls-1" d="M268.46,590.16c-41.68,0-83.37.07-125.05-.14-3.35-.02-6.68-2.03-10.02-3.11,1.21-3.08,1.87-6.55,3.72-9.17,20.48-28.97,41.11-57.84,61.76-86.69,18.37-25.67,43.5-38.6,74.96-38.72,43.56-.17,87.13.01,130.7.13,13.35.04,21.59,6.09,23.16,16.58,1.9,12.72-7.47,22.8-21.77,22.88-28.51.15-57.01.05-85.52.05-7.8,0-15.6,0-23.4,0-6.52.01-11.28,2.57-11.29,9.67,0,7.01,4.56,9.81,11.17,9.81,37.65,0,75.3.33,112.95-.18,16.21-.22,27.58-9.06,34.65-23.67,1.94-4,4.44-7.98,7.55-11.12,29.53-29.8,59.32-59.34,88.87-89.12,8.25-8.31,17.83-10.98,28.7-7.41,16.37,5.37,22.49,25.75,12.21,39.75-1.9,2.58-4.25,4.85-6.53,7.13-49.05,49.08-98.25,98-147.07,147.3-11.16,11.27-23.77,16.51-39.56,16.36-40.07-.37-80.14-.12-120.21-.12,0-.07,0-.13,0-.2Z"/>
    <path class="cls-5" d="M352.74,44.11c-45.79.94-88.18,10.14-126.11,34.7-8.93,5.78-16.79,13.37-24.63,20.67-8,7.44-16.15,8.57-22.74,2.16-6.36-6.18-6.11-14.33,1.03-22.17,23.32-25.62,52.87-41.17,85.39-51.29,48.42-15.05,97.63-19.5,147.02-5.62,44.46,12.49,76.81,38.99,89.98,85.02,5.99,20.95,5.36,42.02-.8,62.87-2.55,8.63-10.21,13.01-17.98,10.82-8.06-2.27-12.9-9.72-10.45-18.2,14.39-49.65-11.52-97.65-72.37-113.06-8.31-2.11-16.84-3.57-25.36-4.6-7.99-.96-16.1-.94-22.99-1.3Z"/>
    <path class="cls-5" d="M323.53,270.61c12.1,0,24.2.31,36.29-.12,7.17-.25,9.45,2.69,9.36,9.49-.24,19.89-.08,39.78-.08,59.68,0,2.15-.04,4.3.02,6.45.22,8.56,3.7,12.95,10.03,12.73,6.16-.21,9.6-4.8,9.63-13.27.07-18.01-.12-36.02.06-54.03.24-24.18-3.53-20.72,20.83-20.91,20.7-.16,41.4-.15,62.1.11,2.79.04,5.56,1.99,8.34,3.06-1.01,2.6-1.45,5.65-3.12,7.72-28.36,35.14-56.8,70.2-85.38,105.16-7.96,9.73-17.72,9.55-25.77-.33-28.37-34.78-56.67-69.62-84.82-104.57-1.8-2.24-2.2-5.61-3.25-8.46,2.89-.91,5.77-2.53,8.68-2.6,12.36-.29,24.73-.12,37.09-.12Z"/>
    <path class="cls-5" d="M429.93,190.06c-2.66,3.8-3.79,5.87-5.34,7.54-13.17,14.13-26.54,28.08-39.58,42.33-4.68,5.11-8.15,4.43-12.54-.33-12.91-14.01-26.19-27.67-39.05-41.72-1.87-2.05-2.28-5.43-3.37-8.2,2.62-.93,5.23-2.65,7.86-2.66,27.37-.2,54.74-.2,82.1,0,2.85.02,5.7,1.7,9.93,3.05Z"/>
    <path class="cls-5" d="M447.12,250.81c-10.47,0-20.95.18-31.41-.13-2.35-.07-5.82-1.27-6.64-2.98-.78-1.61.6-5.17,2.14-6.85,12.7-13.85,25.7-27.43,38.53-41.16,3.95-4.23,7.3-4.01,10.23.95,8.06,13.62,16.18,27.21,24.04,40.94,3.43,5.98,1.62,9-5.48,9.17-10.47.25-20.94.06-31.42.06Z"/>
    <path class="cls-5" d="M310.3,250.81c-9.93,0-19.87.1-29.8-.02-8.77-.11-10.46-2.8-6.25-10.15,7.61-13.26,15.45-26.38,23.14-39.59,3.11-5.33,6.5-5.71,10.74-1.16,12.83,13.73,25.84,27.29,38.54,41.15,1.49,1.63,2.36,4.96,1.78,6.99-.4,1.39-3.83,2.62-5.94,2.67-10.73.26-21.47.12-32.21.13Z"/>
    <path class="cls-1" d="M572.72,270.59c-8.33,0-16.67.05-25-.02-6.55-.06-11.28-3.11-11.33-9.89-.05-6.87,4.73-9.8,11.29-9.81,16.94-.04,33.87-.04,50.81,0,6.54.01,11.34,2.9,11.33,9.78-.01,6.81-4.75,9.85-11.29,9.92-8.6.09-17.2.02-25.81.02Z"/>
    <path class="cls-1" d="M527.54,219.52c2.41-3.8,3.77-7.03,6.04-9.38,10.08-10.4,20.45-20.51,30.64-30.8,4.73-4.77,9.81-6.79,15.51-1.91,4.59,3.93,4.16,10-1.2,15.47-10.51,10.73-20.97,21.53-32.04,31.67-2.61,2.39-7.79,3.53-11.34,2.86-2.73-.51-4.77-4.76-7.62-7.92Z"/>
    <path class="cls-1" d="M573.99,347.9c-3.49-1.94-6.44-2.86-8.41-4.78-11.14-10.85-22.08-21.91-33.03-32.95-4.44-4.47-5.17-9.7-.85-14.3,4.36-4.64,9.76-4.27,14.25.13,11.31,11.06,22.65,22.11,33.4,33.72,2.23,2.41,3.22,7.52,2.37,10.76-.74,2.85-4.85,4.83-7.73,7.43Z"/>
  </g>
  <g>
    <path class="cls-2" d="M230.9,25.9c-18.22,8.06-31.1,19.25-49.5,20.88-21.6,1.91-37.38,21.14-38.5,42.31-1.13,21.38,13.36,41.04,34.55,46.86,23.73,6.51,50.82-6.85,55.87-31.01,4.7-22.5,22.67-24.75,38.31-31.64,1.09-.48,3.52.75,4.63,1.88,29.6,30.08,59.1,60.25,89.61,91.42-3.08.35-4.97.75-6.86.76-17.22.05-34.44.23-51.65-.05-8.72-.14-14.88,3.25-19.24,10.72-13.81,23.68-27.8,47.25-41.61,70.93-5.42,9.29-4.8,15.89,2.09,24.38,34.06,41.98,68.11,83.96,102.3,125.84,2.84,3.48,6.38,6.59,10.12,9.1,7.58,5.09,9.88,10.43,7.9,19.39-1.26,5.67-5.5,4.98-9.48,4.98-28.78,0-57.57-.17-86.35-.04-24.99.12-47.96,7.16-67.27,23.13-9.21,7.62-17.49,16.79-24.58,26.45-24.34,33.16-48.11,66.74-71.74,100.42-4.05,5.77-8.4,7.83-15.34,7.72-25.01-.39-50.03-.11-75.05-.17-13.85-.03-19.07-5.23-19.07-19.02C.04,445.76.08,320.4,0,195.04c0-12.82,4.35-23.4,13.37-32.54C62.28,112.88,111.01,63.08,159.87,13.41c17.64-17.93,37.93-17.8,55.93-.13,4.21,4.13,9.06,7.6,15.11,12.61ZM183.98,270.58c8.86,0,17.73.16,26.58-.06,6.1-.15,10.47-3.01,10.6-9.64.13-6.63-4.01-9.83-10.22-9.89-17.45-.19-34.91-.15-52.36-.05-6.21.03-10.55,2.95-10.59,9.56-.04,7,4.5,9.96,11.01,10.07,8.32.14,16.65.03,24.97.02ZM229.72,219.97c-1.33-3.02-1.77-5.69-3.31-7.27-11.81-12.09-23.67-24.16-35.91-35.8-3.99-3.8-9.09-3.11-12.98.97-3.62,3.8-4.15,8.65-.57,12.38,11.89,12.39,24.01,24.57,36.54,36.3,1.89,1.77,6.83,1.83,9.55.71,2.73-1.12,4.45-4.71,6.69-7.3ZM230,302.26c-2.36-3-4.12-7.44-6.85-8.15-3.5-.91-8.97-.1-11.53,2.23-11.28,10.3-21.82,21.42-32.64,32.22-4.59,4.58-6.07,9.55-1.47,14.89,4.09,4.74,9.81,4.38,15.4-1.1,10.73-10.52,21.35-21.15,31.84-31.9,1.96-2.01,3.12-4.81,5.25-8.19Z"/>
    <path class="cls-6" d="M268.46,590.16c-41.68,0-83.37.07-125.05-.14-3.35-.02-6.68-2.03-10.02-3.11,1.21-3.08,1.87-6.55,3.72-9.17,20.48-28.97,41.11-57.84,61.76-86.69,18.37-25.67,43.5-38.6,74.96-38.72,43.56-.17,87.13.01,130.7.13,13.35.04,21.59,6.09,23.16,16.58,1.9,12.72-7.47,22.8-21.77,22.88-28.51.15-57.01.05-85.52.05-7.8,0-15.6,0-23.4,0-6.52.01-11.28,2.57-11.29,9.67,0,7.01,4.56,9.81,11.17,9.81,37.65,0,75.3.33,112.95-.18,16.21-.22,27.58-9.06,34.65-23.67,1.94-4,4.44-7.98,7.55-11.12,29.53-29.8,59.32-59.34,88.87-89.12,8.25-8.31,17.83-10.98,28.7-7.41,16.37,5.37,22.49,25.75,12.21,39.75-1.9,2.58-4.25,4.85-6.53,7.13-49.05,49.08-98.25,98-147.07,147.3-11.16,11.27-23.77,16.51-39.56,16.36-40.07-.37-80.14-.12-120.21-.12,0-.07,0-.13,0-.2Z"/>
    <path class="cls-8" d="M352.74,44.11c-45.79.94-88.18,10.14-126.11,34.7-8.93,5.78-16.79,13.37-24.63,20.67-8,7.44-16.15,8.57-22.74,2.16-6.36-6.18-6.11-14.33,1.03-22.17,23.32-25.62,52.87-41.17,85.39-51.29,48.42-15.05,97.63-19.5,147.02-5.62,44.46,12.49,76.81,38.99,89.98,85.02,5.99,20.95,5.36,42.02-.8,62.87-2.55,8.63-10.21,13.01-17.98,10.82-8.06-2.27-12.9-9.72-10.45-18.2,14.39-49.65-11.52-97.65-72.37-113.06-8.31-2.11-16.84-3.57-25.36-4.6-7.99-.96-16.1-.94-22.99-1.3Z"/>
    <path class="cls-12" d="M323.53,270.61c12.1,0,24.2.31,36.29-.12,7.17-.25,9.45,2.69,9.36,9.49-.24,19.89-.08,39.78-.08,59.68,0,2.15-.04,4.3.02,6.45.22,8.56,3.7,12.95,10.03,12.73,6.16-.21,9.6-4.8,9.63-13.27.07-18.01-.12-36.02.06-54.03.24-24.18-3.53-20.72,20.83-20.91,20.7-.16,41.4-.15,62.1.11,2.79.04,5.56,1.99,8.34,3.06-1.01,2.6-1.45,5.65-3.12,7.72-28.36,35.14-56.8,70.2-85.38,105.16-7.96,9.73-17.72,9.55-25.77-.33-28.37-34.78-56.67-69.62-84.82-104.57-1.8-2.24-2.2-5.61-3.25-8.46,2.89-.91,5.77-2.53,8.68-2.6,12.36-.29,24.73-.12,37.09-.12Z"/>
    <path class="cls-4" d="M429.93,190.06c-2.66,3.8-3.79,5.87-5.34,7.54-13.17,14.13-26.54,28.08-39.58,42.33-4.68,5.11-8.15,4.43-12.54-.33-12.91-14.01-26.19-27.67-39.05-41.72-1.87-2.05-2.28-5.43-3.37-8.2,2.62-.93,5.23-2.65,7.86-2.66,27.37-.2,54.74-.2,82.1,0,2.85.02,5.7,1.7,9.93,3.05Z"/>
    <path class="cls-3" d="M447.12,250.81c-10.47,0-20.95.18-31.41-.13-2.35-.07-5.82-1.27-6.64-2.98-.78-1.61.6-5.17,2.14-6.85,12.7-13.85,25.7-27.43,38.53-41.16,3.95-4.23,7.3-4.01,10.23.95,8.06,13.62,16.18,27.21,24.04,40.94,3.43,5.98,1.62,9-5.48,9.17-10.47.25-20.94.06-31.42.06Z"/>
    <path class="cls-7" d="M310.3,250.81c-9.93,0-19.87.1-29.8-.02-8.77-.11-10.46-2.8-6.25-10.15,7.61-13.26,15.45-26.38,23.14-39.59,3.11-5.33,6.5-5.71,10.74-1.16,12.83,13.73,25.84,27.29,38.54,41.15,1.49,1.63,2.36,4.96,1.78,6.99-.4,1.39-3.83,2.62-5.94,2.67-10.73.26-21.47.12-32.21.13Z"/>
    <path class="cls-10" d="M572.72,270.59c-8.33,0-16.67.05-25-.02-6.55-.06-11.28-3.11-11.33-9.89-.05-6.87,4.73-9.8,11.29-9.81,16.94-.04,33.87-.04,50.81,0,6.54.01,11.34,2.9,11.33,9.78-.01,6.81-4.75,9.85-11.29,9.92-8.6.09-17.2.02-25.81.02Z"/>
    <path class="cls-9" d="M527.54,219.52c2.41-3.8,3.77-7.03,6.04-9.38,10.08-10.4,20.45-20.51,30.64-30.8,4.73-4.77,9.81-6.79,15.51-1.91,4.59,3.93,4.16,10-1.2,15.47-10.51,10.73-20.97,21.53-32.04,31.67-2.61,2.39-7.79,3.53-11.34,2.86-2.73-.51-4.77-4.76-7.62-7.92Z"/>
    <path class="cls-11" d="M573.99,347.9c-3.49-1.94-6.44-2.86-8.41-4.78-11.14-10.85-22.08-21.91-33.03-32.95-4.44-4.47-5.17-9.7-.85-14.3,4.36-4.64,9.76-4.27,14.25.13,11.31,11.06,22.65,22.11,33.4,33.72,2.23,2.41,3.22,7.52,2.37,10.76-.74,2.85-4.85,4.83-7.73,7.43Z"/>
  </g>
</svg>