<?xml version="1.0" encoding="utf-8"?>
<!-- Generator: Adobe Illustrator 27.3.1, SVG Export Plug-In . SVG Version: 6.00 Build 0)  -->
<svg version="1.1" id="report" xmlns="http://www.w3.org/2000/svg" xmlns:xlink="http://www.w3.org/1999/xlink" x="0px" y="0px"
	 viewBox="0 0 640.62 640.62" style="enable-background:new 0 0 640.62 640.62;" xml:space="preserve">
<style type="text/css">
	.st0{fill:#5800B2;}
	.st1{fill:#360061;}
	.st2{fill:url(#SVGID_1_);}
	.st3{fill:url(#SVGID_00000046341509148456626230000003714913069087674775_);}
	.st4{fill:url(#SVGID_00000155858762805238041930000008705989097016916406_);}
	.st5{fill:url(#SVGID_00000072252662953396319080000007708848201871414150_);}
	.st6{fill:url(#SVGID_00000031205342396873555390000006203409597057907634_);}
	.st7{fill:url(#SVGID_00000043435346042549979610000008143567636983681154_);}
	.st8{fill:url(#SVGID_00000050653503481870299300000011633772886623433648_);}
	.st9{fill:url(#SVGID_00000116211521624186306140000012137103134111378560_);}
</style>
<g>
	<g>
		<path class="st0" d="M590.87,293.05c0,49.38-0.33,98.76,0.2,148.13c0.16,14.9-4.17,27.2-12.51,39.42
			c-38.96,57.03-89.69,100.45-150.47,132.6c-13.24,7-26.27,14.48-39.86,20.73c-14.76,6.8-30.28,7.15-44.79-0.57
			c-43.28-23.04-85.42-47.91-123.08-79.68c-31.18-26.3-56.97-57.26-78.81-91.51c-3.5-5.49-5.46-12.96-5.48-19.52
			c-0.32-103.81-0.19-207.61-0.22-311.42c0-2.71,0.3-4.57,3.28-5.87c43.59-19.16,87.77-36.61,134.35-47.31
			c37.16-8.54,74.71-11.7,112.79-8.9c39.37,2.89,77.03,13.02,114.47,24.93c28.74,9.15,56.85,19.7,84.42,31.85
			c4.34,1.91,5.86,4.11,5.84,8.9C590.81,187.55,590.88,240.3,590.87,293.05z M159.54,290.21c0.02,0,0.05,0,0.07,0
			c0,45.67-0.19,91.34,0.22,137c0.06,6.26,1.73,13.37,5.01,18.6c18.61,29.68,40.96,56.32,67.56,79.28
			c32.97,28.46,70.36,50.17,108.21,71.21c13.25,7.37,26.26,7.64,39.29-0.09c24.61-14.59,49.62-28.56,73.63-44.08
			c37.78-24.43,69.95-54.75,92.74-94.13c5.31-9.18,11.02-18.16,11.02-29.37c-0.02-92.18-0.03-184.36,0.11-276.54
			c0.01-4.29-1.63-6.35-5.32-7.84c-19.19-7.72-38.17-16-57.54-23.25c-37.18-13.92-75.41-23.77-115.17-26.42
			c-38.3-2.55-75.93,2.1-112.92,12.13c-35.14,9.52-68.87,22.83-102.11,37.54c-3.59,1.59-4.92,3.4-4.9,7.43
			C159.6,197.86,159.54,244.04,159.54,290.21z"/>
		<path class="st1" d="M53.11,101.6c3.24-7.57,6.47-15.15,9.81-22.96c-0.67-0.6-1.36-1.32-2.14-1.9
			c-10.58-7.8-12.85-18.66-10.26-30.6c1.84-8.5,4.82-16.79,7.74-25.02C63.84,5.45,80.39-2.02,97.05,3.18
			c23.42,7.32,46.76,14.92,70.34,21.66c17.21,4.92,20.98,19.06,17.42,32.2c-3.11,11.49-7.09,22.75-10.87,34.04
			c-3.87,11.56-14.62,17.73-26.33,14.45c-17.64-4.94-35.15-10.38-52.63-15.88c-4.46-1.4-8.26-1.24-12.52,0.73
			c-9.26,4.27-18.73,8.06-28.12,12.05C53.92,102.16,53.52,101.88,53.11,101.6z M152.69,73.49c5.64,0.02,11.5-5.39,11.47-10.61
			c-0.03-4.63-5.6-9.69-10.57-9.61c-5.42,0.09-11.25,5.86-11.13,10.99C142.58,68.97,147.56,73.47,152.69,73.49z M117.75,41.83
			c-5.32,0-11.54,5.83-11.45,10.72c0.09,4.84,5.43,9.59,10.63,9.47c5.38-0.13,11.12-5.51,11.12-10.43
			C128.05,46.69,122.92,41.82,117.75,41.83z M80.67,50.36c5.67,0.03,11.65-5.48,11.52-10.62c-0.12-4.5-5.38-9.21-10.33-9.26
			c-5.75-0.06-11.5,5.3-11.39,10.63C70.56,45.89,75.47,50.33,80.67,50.36z"/>
		<path class="st1" d="M485.72,199.83c3.4,3.91,6.59,3.99,10.99,0.8c12.79-9.29,25.95-18.07,39.48-27.4
			c0.19,1.47,0.48,2.67,0.48,3.86c0.02,82.07-0.05,164.14,0.09,246.21c0.02,13.01-6.86,22.98-13.13,33.29
			c-22.27,36.58-54.13,63.23-89.87,85.62c-18.11,11.35-36.79,21.79-55.32,32.46c-12.26,7.06-24.57,6.74-36.98-0.1
			c-31.74-17.49-62.92-35.81-90.96-58.98c-28.07-23.19-50.8-50.93-70.18-81.97c11.27-8.37,22.54-16.6,33.62-25.09
			c1.91-1.46,2.95-4.04,4.4-6.11c5.37,7.08,10.81,14.11,16.1,21.24c6.59,8.88,13.07,17.85,19.75,27
			c7.69-5.62,14.96-10.93,22.49-16.43c-7.88-10.9-15.4-21.31-23.84-32.98c2.99,1.06,4.52,1.55,6.01,2.14
			c8.72,3.51,17.38,7.19,26.2,10.44c1.79,0.66,4.36,0.1,6.24-0.69c2.12-0.88,4.08-2.44,5.69-4.11c1.1-1.14,2.15-2.99,2.08-4.47
			c-0.23-5.2-0.99-10.37-1.46-15.55c-0.59-6.46-1.08-12.94-1.62-19.41c0.37-0.04,0.74-0.09,1.1-0.13
			c7.97,10.75,15.93,21.5,24.07,32.48c7.69-5.61,14.97-10.92,22.49-16.42c-6.84-9.35-13.44-18.24-19.88-27.25
			c-5.54-7.75-10.9-15.64-16.33-23.47c1.67,1.77,3.08,2.26,5.39,0.42c6.51-5.19,13.1-10.36,20.06-14.9
			c4.84-3.16,7.48-6.66,5.9-12.52c0.41,0.91,1,1.78,1.21,2.73c3.09,13.91,6.12,27.84,9.19,41.76c1.79,8.09,3.64,16.17,5.64,25.02
			c4.91-3.52,9.13-6.48,13.27-9.53c3.77-2.78,9.28-4.98,10.66-8.69c1.36-3.66-1.72-8.86-2.36-13.46c-0.22-1.59,0.52-4,1.71-4.97
			c4.53-3.73,9.94-6.51,14.06-10.61c8.02-7.99,15.67-9.34,24.21-1.05c0.81,0.78,3.34,0.91,4.3,0.24
			c7.68-5.36,15.18-10.98,23.33-16.96c-7.29-4.34-14.05-8.34-20.78-12.38c-13.07-7.84-26.12-15.71-39.18-23.57
			c1.43-0.22,3.22,0.04,4.24-0.73c9.47-7.07,18.8-14.32,28.59-21.84c-1.49-2.27-2.82-4.3-4.15-6.33c1.47,1.31,3.22,2.41,4.36,3.96
			c7.29,9.84,14.41,19.81,21.65,29.68c5.52,7.53,11.15,14.98,16.89,22.7c7.87-5.77,15.28-11.2,23.56-17.27
			c-4.14-6.45-8.06-12.54-12.22-19.02c3.95-2.89,7.78-5.58,11.49-8.43c12.31-9.45,20.78-20.84,18.98-37.48
			C496.47,212.71,490.69,206.51,485.72,199.83z"/>
		<path class="st0" d="M247.72,184.81c1.88,4.47,3.67,8.71,6.05,14.36c-6.26-2.64-11.23-4.45-15.91-6.81
			c-3.6-1.81-6.88-1.76-10.6-0.55c-8.94,2.92-17.96,5.62-26.99,8.27c-9.04,2.65-15.07-0.58-17.99-9.5
			c-1.83-5.58-3.61-11.17-5.33-16.79c-3.21-10.5,0.45-17.38,10.82-20.56c13.34-4.09,26.64-8.31,40.02-12.28
			c11.24-3.34,19.51,1.16,23.2,12.31c0.9,2.71,1.82,5.42,2.69,8.14C256.57,170.39,256.71,178.73,247.72,184.81z M223.14,170.59
			c-0.84-4.05-4.9-8.1-7.58-7.02c-2.34,0.94-3.95,3.72-5.88,5.69c2.21,1.94,4.22,5.06,6.68,5.46
			C218.35,175.05,220.86,172.09,223.14,170.59z M237.27,154.57c-2.98,3.33-5.42,5.09-6.44,7.47c-1.05,2.45,3.2,6.41,6.37,6.3
			c3.44-0.11,6.31-2.14,5.83-5.41C242.65,160.41,239.92,158.24,237.27,154.57z M194.94,184.12c2.91-3.56,5.82-5.52,6.02-7.74
			c0.3-3.28-2.18-5.97-6.02-6.1c-3.61-0.12-6.37,2.15-5.98,5.34C189.27,178.11,192.11,180.29,194.94,184.12z"/>
		<path class="st0" d="M269.36,324.97c0.77,10.82,1.49,21.65,2.34,32.46c0.66,8.3,1.49,16.59,2.4,26.54
			c-7.44-3.66-13.84-6.81-20.24-9.96c2.7,1.36,4.79,0.77,7.72-0.55c11.74-5.31,9.32-14.79,8.25-24.19
			c-0.78-6.8-1.26-13.64-1.68-20.47C268.07,327.56,268.93,326.25,269.36,324.97z"/>
		<path class="st0" d="M483.12,197.67c-2.48-0.92-4.95-1.86-7.44-2.75c-7.39-2.65-14.78-1.97-22.18,0.02
			c-1.26,0.34-2.58,0.48-3.87,0.71C461.15,190.46,472.38,190.1,483.12,197.67z"/>
		<path class="st0" d="M448.25,226.05c2.43-4.81,6.98-6.44,11.42-5.05c3.24,1.01,6.56,4.09,8.26,7.13c2.16,3.87,0.98,8.36-2.59,11.4
			c-3.8,3.24-7.93,6.08-12.3,9.38c-3.88-5.53-7.41-10.57-10.94-15.61c8.39,0.18,12.31-7.04,18.81-9.99
			c-0.38-0.75-0.76-1.51-1.14-2.26C455.93,222.73,452.09,224.39,448.25,226.05z"/>
		<path class="st0" d="M384.45,308.68c-4.71,3.49-8.47,6.29-12.25,9.05c-0.66,0.48-1.44,0.81-2.82,1.58
			c-2.16-7.9-4.23-15.49-6.75-24.7C370.53,299.71,377.13,303.96,384.45,308.68z"/>
	</g>
	<g>
		<linearGradient id="SVGID_1_" gradientUnits="userSpaceOnUse" x1="32.0702" y1="-29.9727" x2="661.868" y2="598.6115">
			<stop  offset="0" style="stop-color:#FFFFFF;stop-opacity:0.4"/>
			<stop  offset="0.0691" style="stop-color:#FFFFFF;stop-opacity:0.3435"/>
			<stop  offset="0.4892" style="stop-color:#FFFFFF;stop-opacity:0"/>
			<stop  offset="0.7527" style="stop-color:#FAFAFA;stop-opacity:0.1032"/>
			<stop  offset="1" style="stop-color:#EFEFEF;stop-opacity:0.2"/>
		</linearGradient>
		<path class="st2" d="M590.87,293.05c0,49.38-0.33,98.76,0.2,148.13c0.16,14.9-4.17,27.2-12.51,39.42
			c-38.96,57.03-89.69,100.45-150.47,132.6c-13.24,7-26.27,14.48-39.86,20.73c-14.76,6.8-30.28,7.15-44.79-0.57
			c-43.28-23.04-85.42-47.91-123.08-79.68c-31.18-26.3-56.97-57.26-78.81-91.51c-3.5-5.49-5.46-12.96-5.48-19.52
			c-0.32-103.81-0.19-207.61-0.22-311.42c0-2.71,0.3-4.57,3.28-5.87c43.59-19.16,87.77-36.61,134.35-47.31
			c37.16-8.54,74.71-11.7,112.79-8.9c39.37,2.89,77.03,13.02,114.47,24.93c28.74,9.15,56.85,19.7,84.42,31.85
			c4.34,1.91,5.86,4.11,5.84,8.9C590.81,187.55,590.88,240.3,590.87,293.05z M159.54,290.21c0.02,0,0.05,0,0.07,0
			c0,45.67-0.19,91.34,0.22,137c0.06,6.26,1.73,13.37,5.01,18.6c18.61,29.68,40.96,56.32,67.56,79.28
			c32.97,28.46,70.36,50.17,108.21,71.21c13.25,7.37,26.26,7.64,39.29-0.09c24.61-14.59,49.62-28.56,73.63-44.08
			c37.78-24.43,69.95-54.75,92.74-94.13c5.31-9.18,11.02-18.16,11.02-29.37c-0.02-92.18-0.03-184.36,0.11-276.54
			c0.01-4.29-1.63-6.35-5.32-7.84c-19.19-7.72-38.17-16-57.54-23.25c-37.18-13.92-75.41-23.77-115.17-26.42
			c-38.3-2.55-75.93,2.1-112.92,12.13c-35.14,9.52-68.87,22.83-102.11,37.54c-3.59,1.59-4.92,3.4-4.9,7.43
			C159.6,197.86,159.54,244.04,159.54,290.21z"/>
		
			<linearGradient id="SVGID_00000107583414482822602730000005094287395977046146_" gradientUnits="userSpaceOnUse" x1="25.8264" y1="-23.7168" x2="655.6241" y2="604.8674">
			<stop  offset="0" style="stop-color:#FFFFFF;stop-opacity:0.4"/>
			<stop  offset="0.0691" style="stop-color:#FFFFFF;stop-opacity:0.3435"/>
			<stop  offset="0.4892" style="stop-color:#FFFFFF;stop-opacity:0"/>
			<stop  offset="0.7527" style="stop-color:#FAFAFA;stop-opacity:0.1032"/>
			<stop  offset="1" style="stop-color:#EFEFEF;stop-opacity:0.2"/>
		</linearGradient>
		<path style="fill:url(#SVGID_00000107583414482822602730000005094287395977046146_);" d="M53.11,101.6
			c3.24-7.57,6.47-15.15,9.81-22.96c-0.67-0.6-1.36-1.32-2.14-1.9c-10.58-7.8-12.85-18.66-10.26-30.6
			c1.84-8.5,4.82-16.79,7.74-25.02C63.84,5.45,80.39-2.02,97.05,3.18c23.42,7.32,46.76,14.92,70.34,21.66
			c17.21,4.92,20.98,19.06,17.42,32.2c-3.11,11.49-7.09,22.75-10.87,34.04c-3.87,11.56-14.62,17.73-26.33,14.45
			c-17.64-4.94-35.15-10.38-52.63-15.88c-4.46-1.4-8.26-1.24-12.52,0.73c-9.26,4.27-18.73,8.06-28.12,12.05
			C53.92,102.16,53.52,101.88,53.11,101.6z M152.69,73.49c5.64,0.02,11.5-5.39,11.47-10.61c-0.03-4.63-5.6-9.69-10.57-9.61
			c-5.42,0.09-11.25,5.86-11.13,10.99C142.58,68.97,147.56,73.47,152.69,73.49z M117.75,41.83c-5.32,0-11.54,5.83-11.45,10.72
			c0.09,4.84,5.43,9.59,10.63,9.47c5.38-0.13,11.12-5.51,11.12-10.43C128.05,46.69,122.92,41.82,117.75,41.83z M80.67,50.36
			c5.67,0.03,11.65-5.48,11.52-10.62c-0.12-4.5-5.38-9.21-10.33-9.26c-5.75-0.06-11.5,5.3-11.39,10.63
			C70.56,45.89,75.47,50.33,80.67,50.36z"/>
		
			<linearGradient id="SVGID_00000042722188413151845160000008981621417981640846_" gradientUnits="userSpaceOnUse" x1="24.7156" y1="-22.604" x2="654.5134" y2="605.9803">
			<stop  offset="0" style="stop-color:#FFFFFF;stop-opacity:0.4"/>
			<stop  offset="0.0691" style="stop-color:#FFFFFF;stop-opacity:0.3435"/>
			<stop  offset="0.4892" style="stop-color:#FFFFFF;stop-opacity:0"/>
			<stop  offset="0.7527" style="stop-color:#FAFAFA;stop-opacity:0.1032"/>
			<stop  offset="1" style="stop-color:#EFEFEF;stop-opacity:0.2"/>
		</linearGradient>
		<path style="fill:url(#SVGID_00000042722188413151845160000008981621417981640846_);" d="M485.72,199.83
			c3.4,3.91,6.59,3.99,10.99,0.8c12.79-9.29,25.95-18.07,39.48-27.4c0.19,1.47,0.48,2.67,0.48,3.86
			c0.02,82.07-0.05,164.14,0.09,246.21c0.02,13.01-6.86,22.98-13.13,33.29c-22.27,36.58-54.13,63.23-89.87,85.62
			c-18.11,11.35-36.79,21.79-55.32,32.46c-12.26,7.06-24.57,6.74-36.98-0.1c-31.74-17.49-62.92-35.81-90.96-58.98
			c-28.07-23.19-50.8-50.93-70.18-81.97c11.27-8.37,22.54-16.6,33.62-25.09c1.91-1.46,2.95-4.04,4.4-6.11
			c5.37,7.08,10.81,14.11,16.1,21.24c6.59,8.88,13.07,17.85,19.75,27c7.69-5.62,14.96-10.93,22.49-16.43
			c-7.88-10.9-15.4-21.31-23.84-32.98c2.99,1.06,4.52,1.55,6.01,2.14c8.72,3.51,17.38,7.19,26.2,10.44c1.79,0.66,4.36,0.1,6.24-0.69
			c2.12-0.88,4.08-2.44,5.69-4.11c1.1-1.14,2.15-2.99,2.08-4.47c-0.23-5.2-0.99-10.37-1.46-15.55c-0.59-6.46-1.08-12.94-1.62-19.41
			c0.37-0.04,0.74-0.09,1.1-0.13c7.97,10.75,15.93,21.5,24.07,32.48c7.69-5.61,14.97-10.92,22.49-16.42
			c-6.84-9.35-13.44-18.24-19.88-27.25c-5.54-7.75-10.9-15.64-16.33-23.47c1.67,1.77,3.08,2.26,5.39,0.42
			c6.51-5.19,13.1-10.36,20.06-14.9c4.84-3.16,7.48-6.66,5.9-12.52c0.41,0.91,1,1.78,1.21,2.73c3.09,13.91,6.12,27.84,9.19,41.76
			c1.79,8.09,3.64,16.17,5.64,25.02c4.91-3.52,9.13-6.48,13.27-9.53c3.77-2.78,9.28-4.98,10.66-8.69c1.36-3.66-1.72-8.86-2.36-13.46
			c-0.22-1.59,0.52-4,1.71-4.97c4.53-3.73,9.94-6.51,14.06-10.61c8.02-7.99,15.67-9.34,24.21-1.05c0.81,0.78,3.34,0.91,4.3,0.24
			c7.68-5.36,15.18-10.98,23.33-16.96c-7.29-4.34-14.05-8.34-20.78-12.38c-13.07-7.84-26.12-15.71-39.18-23.57
			c1.43-0.22,3.22,0.04,4.24-0.73c9.47-7.07,18.8-14.32,28.59-21.84c-1.49-2.27-2.82-4.3-4.15-6.33c1.47,1.31,3.22,2.41,4.36,3.96
			c7.29,9.84,14.41,19.81,21.65,29.68c5.52,7.53,11.15,14.98,16.89,22.7c7.87-5.77,15.28-11.2,23.56-17.27
			c-4.14-6.45-8.06-12.54-12.22-19.02c3.95-2.89,7.78-5.58,11.49-8.43c12.31-9.45,20.78-20.84,18.98-37.48
			C496.47,212.71,490.69,206.51,485.72,199.83z"/>
		
			<linearGradient id="SVGID_00000088849442823706598780000013531317042294768063_" gradientUnits="userSpaceOnUse" x1="23.395" y1="-21.2808" x2="653.1927" y2="607.3035">
			<stop  offset="0" style="stop-color:#FFFFFF;stop-opacity:0.4"/>
			<stop  offset="0.0691" style="stop-color:#FFFFFF;stop-opacity:0.3435"/>
			<stop  offset="0.4892" style="stop-color:#FFFFFF;stop-opacity:0"/>
			<stop  offset="0.7527" style="stop-color:#FAFAFA;stop-opacity:0.1032"/>
			<stop  offset="1" style="stop-color:#EFEFEF;stop-opacity:0.2"/>
		</linearGradient>
		<path style="fill:url(#SVGID_00000088849442823706598780000013531317042294768063_);" d="M247.72,184.81
			c1.88,4.47,3.67,8.71,6.05,14.36c-6.26-2.64-11.23-4.45-15.91-6.81c-3.6-1.81-6.88-1.76-10.6-0.55
			c-8.94,2.92-17.96,5.62-26.99,8.27c-9.04,2.65-15.07-0.58-17.99-9.5c-1.83-5.58-3.61-11.17-5.33-16.79
			c-3.21-10.5,0.45-17.38,10.82-20.56c13.34-4.09,26.64-8.31,40.02-12.28c11.24-3.34,19.51,1.16,23.2,12.31
			c0.9,2.71,1.82,5.42,2.69,8.14C256.57,170.39,256.71,178.73,247.72,184.81z M223.14,170.59c-0.84-4.05-4.9-8.1-7.58-7.02
			c-2.34,0.94-3.95,3.72-5.88,5.69c2.21,1.94,4.22,5.06,6.68,5.46C218.35,175.05,220.86,172.09,223.14,170.59z M237.27,154.57
			c-2.98,3.33-5.42,5.09-6.44,7.47c-1.05,2.45,3.2,6.41,6.37,6.3c3.44-0.11,6.31-2.14,5.83-5.41
			C242.65,160.41,239.92,158.24,237.27,154.57z M194.94,184.12c2.91-3.56,5.82-5.52,6.02-7.74c0.3-3.28-2.18-5.97-6.02-6.1
			c-3.61-0.12-6.37,2.15-5.98,5.34C189.27,178.11,192.11,180.29,194.94,184.12z"/>
		
			<linearGradient id="SVGID_00000075875069614236329860000006385060501693676961_" gradientUnits="userSpaceOnUse" x1="-43.1118" y1="45.3544" x2="586.686" y2="673.9387">
			<stop  offset="0" style="stop-color:#FFFFFF;stop-opacity:0.4"/>
			<stop  offset="0.0691" style="stop-color:#FFFFFF;stop-opacity:0.3435"/>
			<stop  offset="0.4892" style="stop-color:#FFFFFF;stop-opacity:0"/>
			<stop  offset="0.7527" style="stop-color:#FAFAFA;stop-opacity:0.1032"/>
			<stop  offset="1" style="stop-color:#EFEFEF;stop-opacity:0.2"/>
		</linearGradient>
		<path style="fill:url(#SVGID_00000075875069614236329860000006385060501693676961_);" d="M269.36,324.97
			c0.77,10.82,1.49,21.65,2.34,32.46c0.66,8.3,1.49,16.59,2.4,26.54c-7.44-3.66-13.84-6.81-20.24-9.96c2.7,1.36,4.79,0.77,7.72-0.55
			c11.74-5.31,9.32-14.79,8.25-24.19c-0.78-6.8-1.26-13.64-1.68-20.47C268.07,327.56,268.93,326.25,269.36,324.97z"/>
		
			<linearGradient id="SVGID_00000022535692663271825410000010913964258737567133_" gradientUnits="userSpaceOnUse" x1="135.4885" y1="-133.5907" x2="765.2863" y2="494.9936">
			<stop  offset="0" style="stop-color:#FFFFFF;stop-opacity:0.4"/>
			<stop  offset="0.0691" style="stop-color:#FFFFFF;stop-opacity:0.3435"/>
			<stop  offset="0.4892" style="stop-color:#FFFFFF;stop-opacity:0"/>
			<stop  offset="0.7527" style="stop-color:#FAFAFA;stop-opacity:0.1032"/>
			<stop  offset="1" style="stop-color:#EFEFEF;stop-opacity:0.2"/>
		</linearGradient>
		<path style="fill:url(#SVGID_00000022535692663271825410000010913964258737567133_);" d="M483.12,197.67
			c-2.48-0.92-4.95-1.86-7.44-2.75c-7.39-2.65-14.78-1.97-22.18,0.02c-1.26,0.34-2.58,0.48-3.87,0.71
			C461.15,190.46,472.38,190.1,483.12,197.67z"/>
		
			<linearGradient id="SVGID_00000106864751614525690190000013228097507931388593_" gradientUnits="userSpaceOnUse" x1="111.8217" y1="-109.8782" x2="741.6321" y2="518.7186">
			<stop  offset="0" style="stop-color:#FFFFFF;stop-opacity:0.4"/>
			<stop  offset="0.0691" style="stop-color:#FFFFFF;stop-opacity:0.3435"/>
			<stop  offset="0.4892" style="stop-color:#FFFFFF;stop-opacity:0"/>
			<stop  offset="0.7527" style="stop-color:#FAFAFA;stop-opacity:0.1032"/>
			<stop  offset="1" style="stop-color:#EFEFEF;stop-opacity:0.2"/>
		</linearGradient>
		<path style="fill:url(#SVGID_00000106864751614525690190000013228097507931388593_);" d="M448.25,226.05
			c2.43-4.81,6.98-6.44,11.42-5.05c3.24,1.01,6.56,4.09,8.26,7.13c2.16,3.87,0.98,8.36-2.59,11.4c-3.8,3.24-7.93,6.08-12.3,9.38
			c-3.88-5.53-7.41-10.57-10.94-15.61c8.39,0.18,12.31-7.04,18.81-9.99c-0.38-0.75-0.76-1.51-1.14-2.26
			C455.93,222.73,452.09,224.39,448.25,226.05z"/>
		
			<linearGradient id="SVGID_00000078027551543447232920000009721005983784040366_" gradientUnits="userSpaceOnUse" x1="32.1731" y1="-30.0758" x2="661.9708" y2="598.5085">
			<stop  offset="0" style="stop-color:#FFFFFF;stop-opacity:0.4"/>
			<stop  offset="0.0691" style="stop-color:#FFFFFF;stop-opacity:0.3435"/>
			<stop  offset="0.4892" style="stop-color:#FFFFFF;stop-opacity:0"/>
			<stop  offset="0.7527" style="stop-color:#FAFAFA;stop-opacity:0.1032"/>
			<stop  offset="1" style="stop-color:#EFEFEF;stop-opacity:0.2"/>
		</linearGradient>
		<path style="fill:url(#SVGID_00000078027551543447232920000009721005983784040366_);" d="M384.45,308.68
			c-4.71,3.49-8.47,6.29-12.25,9.05c-0.66,0.48-1.44,0.81-2.82,1.58c-2.16-7.9-4.23-15.49-6.75-24.7
			C370.53,299.71,377.13,303.96,384.45,308.68z"/>
	</g>
</g>
</svg>
