<?xml version="1.0" encoding="utf-8"?>
<!-- Generator: Adobe Illustrator 28.2.0, SVG Export Plug-In . SVG Version: 6.00 Build 0)  -->
<svg version="1.1" id="Layer_1" xmlns="http://www.w3.org/2000/svg" xmlns:xlink="http://www.w3.org/1999/xlink" x="0px" y="0px"
	 viewBox="0 0 384 384" style="enable-background:new 0 0 384 384;" xml:space="preserve">
<style type="text/css">
	.st0{fill:url(#SVGID_1_);}
	.st1{fill:url(#SVGID_00000008140672413688272190000016384603383484175247_);}
</style>
<g>
	<linearGradient id="SVGID_1_" gradientUnits="userSpaceOnUse" x1="192.7343" y1="270.7183" x2="192.7343" y2="0.75">
		<stop  offset="0" style="stop-color:#4D469B"/>
		<stop  offset="1" style="stop-color:#2C1E5D"/>
	</linearGradient>
	<path class="st0" d="M200.25,0.75c6.4,1.55,12.99,2.59,19.18,4.74c27.09,9.44,47.46,34.51,51.1,62.71c-18.33,0-36.62,0-55.09,0
		c0,7.61,0,14.81,0,22.43c18.54,0,37.08,0,55.84,0c0,11.36,0,22.31,0,33.68c-18.43,0-36.97,0-55.77,0c0,7.7,0,14.99,0,22.56
		c18.5,0,36.95,0,55.7,0c0,11.31,0,22.35,0,33.81c-18.48,0-37.02,0-55.76,0c0,7.61,0,14.81,0,22.43c18.26,0,36.56,0,54.89,0
		c-2.61,28.05-27.88,64.92-73.29,67.49c-40.71,2.3-76.57-27.19-82.09-67.23c18.32,0,36.6,0,55.08,0c0-7.62,0-14.82,0-22.43
		c-18.46,0-37,0-55.79,0c0-11.45,0-22.49,0-33.81c18.53,0,36.98,0,55.71,0c0-7.56,0-14.85,0-22.56c-18.51,0-37.05,0-55.77,0
		c0-11.36,0-22.31,0-33.68c18.53,0,37.07,0,55.83,0c0-7.7,0-14.99,0-22.58c-18.35,0-36.55,0-55.09,0c1.01-8.43,3.37-16.1,7.09-23.29
		c12.9-24.95,33.21-39.62,61.11-43.63c0.72-0.1,1.41-0.42,2.12-0.63C190.25,0.75,195.25,0.75,200.25,0.75z"/>
	
		<linearGradient id="SVGID_00000089550609524498516260000007263904597412410289_" gradientUnits="userSpaceOnUse" x1="192.5876" y1="384.75" x2="192.5876" y2="192">
		<stop  offset="0" style="stop-color:#4D469B"/>
		<stop  offset="1" style="stop-color:#2C1E5D"/>
	</linearGradient>
	<path style="fill:url(#SVGID_00000089550609524498516260000007263904597412410289_);" d="M102.75,384.75c0-7.35,0-14.7,0-22.46
		c26.31,0,52.35,0,78.57,0c0-15.85,0-31.28,0-46.91c-37.25-4.43-67.22-21.37-89.33-51.7c-14.87-20.4-24.26-50.09-22.76-71.42
		c7.27,0,14.56,0,22.11,0c1.01,32.44,13.68,59.27,39.24,79.47c19.8,15.66,42.63,22.74,67.79,21.34
		c52.52-2.92,94.97-45.78,95.78-101.08c3.66,0,7.36,0,11.06,0c3.61,0,7.21,0,10.8,0c2.39,51.17-37.84,115.34-111.72,123.32
		c0,15.5,0,31.03,0,46.84c26.02,0,51.97,0,78.46,0c0,7.71,0,15.15,0,22.59C222.75,384.75,162.75,384.75,102.75,384.75z"/>
</g>
</svg>
