<?xml version="1.0" encoding="utf-8"?>
<!-- Generator: Adobe Illustrator 26.2.1, SVG Export Plug-In . SVG Version: 6.00 Build 0)  -->
<svg version="1.1" id="report" xmlns="http://www.w3.org/2000/svg" xmlns:xlink="http://www.w3.org/1999/xlink" x="0px" y="0px"
	 viewBox="0 0 640.62 640.62" style="enable-background:new 0 0 640.62 640.62;" xml:space="preserve">
<style type="text/css">
	.st0{fill:#360061;}
	.st1{fill:url(#SVGID_1_);}
	.st2{fill:#5800B2;}
	.st3{fill:url(#SVGID_00000080182710526726000110000016178651287988915642_);}
</style>
<g>
	<path class="st0" d="M445.57,214.78c-12.04,0.55-23.19,1.07-34.94,1.61c0-39.53,0-79.92,0-120.74c-99.71,0-198.79,0-298.4,0
		c0,142.71,0,285.38,0,428.39c99.37,0,198.45,0,298.19,0c0-4.87,0-9.5,0-13.49c11.84,0.87,23.06,1.69,34.27,2.52
		c0.23,0.4,0.63,0.78,0.63,1.16c0.07,29.23,0.73,58.48-0.04,87.69c-0.59,22.53-17.85,38.36-40.54,38.39
		c-95.81,0.13-191.62,0.14-287.43-0.01c-23.3-0.04-39.63-16.57-40.36-39.94c-0.05-1.57-0.03-3.15-0.03-4.72
		c0-183.52,0.04-367.05-0.09-550.57c-0.01-13.23,2.87-24.94,12.85-34.16C98.23,2.99,108.47,0.2,120,0.23
		c58.93,0.16,117.85,0.07,176.78,0.07c34.86,0,69.72-0.03,104.58,0.01c27.61,0.03,44.18,16.49,44.2,43.93
		c0.03,54.43,0.01,108.86,0.01,163.28C445.57,209.75,445.57,211.97,445.57,214.78z M261,596.09c10.56,0,21.11,0.1,31.67-0.03
		c7.19-0.09,11.3-3.68,11.46-9.57c0.16-6.14-4.12-10.1-11.59-10.13c-20.89-0.11-41.78-0.09-62.67-0.01
		c-7.37,0.03-11.93,4.02-11.88,9.93c0.04,5.93,4.54,9.71,12.01,9.79C240.33,596.17,250.67,596.09,261,596.09z M261.62,57.72
		c7.86,0,15.73,0.17,23.59-0.05c7.27-0.2,11.08-3.83,11.08-9.94c0-6.13-3.84-9.78-11.11-9.85c-15.95-0.15-31.91-0.14-47.86-0.01
		c-7.25,0.06-11.31,3.65-11.48,9.56c-0.18,6.17,4.02,10.09,11.52,10.26C245.44,57.87,253.53,57.72,261.62,57.72z"/>
	<linearGradient id="SVGID_1_" gradientUnits="userSpaceOnUse" x1="76.8252" y1="320.3107" x2="445.6481" y2="320.3107">
		<stop  offset="0" style="stop-color:#FFFFFF;stop-opacity:0.4"/>
		<stop  offset="0.0691" style="stop-color:#FFFFFF;stop-opacity:0.3435"/>
		<stop  offset="0.4892" style="stop-color:#FFFFFF;stop-opacity:0"/>
		<stop  offset="0.7527" style="stop-color:#FAFAFA;stop-opacity:0.1032"/>
		<stop  offset="1" style="stop-color:#EFEFEF;stop-opacity:0.2"/>
	</linearGradient>
	<path class="st1" d="M445.57,214.78c-12.04,0.55-23.19,1.07-34.94,1.61c0-39.53,0-79.92,0-120.74c-99.71,0-198.79,0-298.4,0
		c0,142.71,0,285.38,0,428.39c99.37,0,198.45,0,298.19,0c0-4.87,0-9.5,0-13.49c11.84,0.87,23.06,1.69,34.27,2.52
		c0.23,0.4,0.63,0.78,0.63,1.16c0.07,29.23,0.73,58.48-0.04,87.69c-0.59,22.53-17.85,38.36-40.54,38.39
		c-95.81,0.13-191.62,0.14-287.43-0.01c-23.3-0.04-39.63-16.57-40.36-39.94c-0.05-1.57-0.03-3.15-0.03-4.72
		c0-183.52,0.04-367.05-0.09-550.57c-0.01-13.23,2.87-24.94,12.85-34.16C98.23,2.99,108.47,0.2,120,0.23
		c58.93,0.16,117.85,0.07,176.78,0.07c34.86,0,69.72-0.03,104.58,0.01c27.61,0.03,44.18,16.49,44.2,43.93
		c0.03,54.43,0.01,108.86,0.01,163.28C445.57,209.75,445.57,211.97,445.57,214.78z M261,596.09c10.56,0,21.11,0.1,31.67-0.03
		c7.19-0.09,11.3-3.68,11.46-9.57c0.16-6.14-4.12-10.1-11.59-10.13c-20.89-0.11-41.78-0.09-62.67-0.01
		c-7.37,0.03-11.93,4.02-11.88,9.93c0.04,5.93,4.54,9.71,12.01,9.79C240.33,596.17,250.67,596.09,261,596.09z M261.62,57.72
		c7.86,0,15.73,0.17,23.59-0.05c7.27-0.2,11.08-3.83,11.08-9.94c0-6.13-3.84-9.78-11.11-9.85c-15.95-0.15-31.91-0.14-47.86-0.01
		c-7.25,0.06-11.31,3.65-11.48,9.56c-0.18,6.17,4.02,10.09,11.52,10.26C245.44,57.87,253.53,57.72,261.62,57.72z"/>
	<path class="st2" d="M537.04,287.86c-1.89,3.25-3.37,7.11-5.95,9.99c-7.67,8.54-8.77,16-3.77,27.67
		c4.88,11.39,10.76,14.81,21.77,15.15c12.41,0.39,14.67,3.4,14.7,15.82c0.01,5.4,0.01,10.79-0.03,16.19
		c-0.05,6.22-2.88,10.2-9.2,11.4c-7.05,1.34-15.69,0.71-20.68,4.66c-4.69,3.72-4.87,12.67-8.22,18.65
		c-3.15,5.61-2.47,9.26,1.55,14.12c14.67,17.69,14.47,17.85-1.95,34.25c-1.91,1.91-3.76,3.88-5.75,5.69
		c-4.41,3.99-9.17,4.43-14.14,1.04c-5.93-4.05-11.52-10.71-17.83-11.48c-5.91-0.72-12.35,5.7-18.97,7.31
		c-6.82,1.67-8.84,5.42-9.03,11.62c-0.12,3.81-0.69,7.61-1.25,11.39c-1.15,7.89-4.14,10.72-11.84,10.93
		c-6.52,0.18-13.05,0.17-19.56,0c-7.41-0.19-11.6-3.05-11.83-10.17c-0.46-14.49-5.9-23.06-20.9-27.45c-8.05-2.36-13.11-2.93-18.6,3
		c-0.6,0.65-1.38,1.15-2.08,1.71c-12.51,10.03-14.3,9.92-25.77-1.55c-3.18-3.18-6.4-6.32-9.53-9.55c-4.38-4.53-4.67-9.51-1.2-14.67
		c3.88-5.77,10.33-11.16,11.09-17.29c0.71-5.72-5.55-11.97-6.95-18.38c-1.7-7.75-6.18-9.51-13.06-10.08
		c-20.89-1.71-21.17-2.19-21.17-22.97c0-19.74,0.27-20.39,19.57-22.85c7.88-1,13.42-3.09,14.56-12.05c0.46-3.64,2.3-7.41,4.46-10.45
		c3.59-5.05,2.43-8.73-1.53-12.77c-3.13-3.19-5.72-6.93-8.46-10.5c-3.83-5-3.79-10.03,0.56-14.63c4.94-5.23,10.04-10.31,15.24-15.29
		c4.33-4.15,9.25-4.3,14.15-1.06c4.68,3.1,9.32,6.29,13.74,9.75c2.84,2.23,5.12,2.49,8.47,0.75c5.75-2.99,11.77-5.61,17.93-7.6
		c3.69-1.19,4.99-2.98,5.18-6.62c0.27-5.15,0.88-10.3,1.57-15.42c0.98-7.35,4.7-10.63,12.19-10.77c6.52-0.12,13.04-0.05,19.56-0.02
		c6.2,0.03,10.27,2.85,11.49,9.13c1.38,7.04,0.65,15.68,4.58,20.7c3.68,4.69,12.68,4.82,18.54,8.31c5.85,3.48,9.92,3.11,14.53-1.64
		c3.1-3.2,6.87-5.79,10.51-8.43c4.35-3.15,9.03-3.24,12.99,0.41c5.94,5.48,11.6,11.29,17.12,17.2
		C535.29,282.56,535.75,284.98,537.04,287.86z M435.51,406.86c23.78-0.03,42.78-18.98,42.86-42.73
		c0.08-24.03-19.25-43.53-43.04-43.43c-23.46,0.1-42.86,19.44-43.05,42.94C392.08,387.41,411.56,406.89,435.51,406.86z"/>
	
		<linearGradient id="SVGID_00000011005304471668339240000017071102381678120114_" gradientUnits="userSpaceOnUse" x1="306.9144" y1="363.8578" x2="563.7961" y2="363.8578">
		<stop  offset="0" style="stop-color:#FFFFFF;stop-opacity:0.4"/>
		<stop  offset="0.0691" style="stop-color:#FFFFFF;stop-opacity:0.3435"/>
		<stop  offset="0.4892" style="stop-color:#FFFFFF;stop-opacity:0"/>
		<stop  offset="0.7527" style="stop-color:#FAFAFA;stop-opacity:0.1032"/>
		<stop  offset="1" style="stop-color:#EFEFEF;stop-opacity:0.2"/>
	</linearGradient>
	<path style="fill:url(#SVGID_00000011005304471668339240000017071102381678120114_);" d="M537.04,287.86
		c-1.89,3.25-3.37,7.11-5.95,9.99c-7.67,8.54-8.77,16-3.77,27.67c4.88,11.39,10.76,14.81,21.77,15.15
		c12.41,0.39,14.67,3.4,14.7,15.82c0.01,5.4,0.01,10.79-0.03,16.19c-0.05,6.22-2.88,10.2-9.2,11.4c-7.05,1.34-15.69,0.71-20.68,4.66
		c-4.69,3.72-4.87,12.67-8.22,18.65c-3.15,5.61-2.47,9.26,1.55,14.12c14.67,17.69,14.47,17.85-1.95,34.25
		c-1.91,1.91-3.76,3.88-5.75,5.69c-4.41,3.99-9.17,4.43-14.14,1.04c-5.93-4.05-11.52-10.71-17.83-11.48
		c-5.91-0.72-12.35,5.7-18.97,7.31c-6.82,1.67-8.84,5.42-9.03,11.62c-0.12,3.81-0.69,7.61-1.25,11.39
		c-1.15,7.89-4.14,10.72-11.84,10.93c-6.52,0.18-13.05,0.17-19.56,0c-7.41-0.19-11.6-3.05-11.83-10.17
		c-0.46-14.49-5.9-23.06-20.9-27.45c-8.05-2.36-13.11-2.93-18.6,3c-0.6,0.65-1.38,1.15-2.08,1.71c-12.51,10.03-14.3,9.92-25.77-1.55
		c-3.18-3.18-6.4-6.32-9.53-9.55c-4.38-4.53-4.67-9.51-1.2-14.67c3.88-5.77,10.33-11.16,11.09-17.29
		c0.71-5.72-5.55-11.97-6.95-18.38c-1.7-7.75-6.18-9.51-13.06-10.08c-20.89-1.71-21.17-2.19-21.17-22.97
		c0-19.74,0.27-20.39,19.57-22.85c7.88-1,13.42-3.09,14.56-12.05c0.46-3.64,2.3-7.41,4.46-10.45c3.59-5.05,2.43-8.73-1.53-12.77
		c-3.13-3.19-5.72-6.93-8.46-10.5c-3.83-5-3.79-10.03,0.56-14.63c4.94-5.23,10.04-10.31,15.24-15.29c4.33-4.15,9.25-4.3,14.15-1.06
		c4.68,3.1,9.32,6.29,13.74,9.75c2.84,2.23,5.12,2.49,8.47,0.75c5.75-2.99,11.77-5.61,17.93-7.6c3.69-1.19,4.99-2.98,5.18-6.62
		c0.27-5.15,0.88-10.3,1.57-15.42c0.98-7.35,4.7-10.63,12.19-10.77c6.52-0.12,13.04-0.05,19.56-0.02c6.2,0.03,10.27,2.85,11.49,9.13
		c1.38,7.04,0.65,15.68,4.58,20.7c3.68,4.69,12.68,4.82,18.54,8.31c5.85,3.48,9.92,3.11,14.53-1.64c3.1-3.2,6.87-5.79,10.51-8.43
		c4.35-3.15,9.03-3.24,12.99,0.41c5.94,5.48,11.6,11.29,17.12,17.2C535.29,282.56,535.75,284.98,537.04,287.86z M435.51,406.86
		c23.78-0.03,42.78-18.98,42.86-42.73c0.08-24.03-19.25-43.53-43.04-43.43c-23.46,0.1-42.86,19.44-43.05,42.94
		C392.08,387.41,411.56,406.89,435.51,406.86z"/>
	<path class="st0" d="M229.02,286.68c-8.74,0.1-13.03-6.82-9.9-14.82c8.41-21.52,17.03-42.95,25.56-64.42
		c10.43-26.27,20.86-52.53,31.24-78.82c1.8-4.55,3.88-8.71,9.44-9.36c8.11-0.95,13.07,6.53,9.73,15.16
		c-6.72,17.36-13.69,34.63-20.56,51.93c-12.09,30.43-24.24,60.85-36.26,91.31C236.34,282.57,233.87,286.51,229.02,286.68z"/>
	<path class="st2" d="M164.11,203.73c10.66,10.3,20.85,20.13,31.01,29.98c1.61,1.56,3.29,3.1,4.64,4.88
		c3.44,4.52,3.52,9.19-0.37,13.46c-3.72,4.09-9.61,4.42-13.88,0.22c-14.09-13.88-28.02-27.94-41.81-42.12
		c-4.42-4.55-4.38-9.83,0.1-14.44c13.63-14.03,27.4-27.92,41.3-41.67c4.57-4.52,10.42-4.27,14.4-0.07
		c3.87,4.07,3.78,9.82-0.73,14.49c-9.53,9.86-19.28,19.51-28.93,29.26C168.29,199.28,166.78,200.92,164.11,203.73z"/>
	<path class="st2" d="M359.23,203.27c-10.84-10.45-20.2-19.46-29.54-28.48c-1.78-1.72-3.52-3.47-5.22-5.27
		c-5.34-5.64-5.85-11.74-1.36-15.94c4.47-4.19,9.97-3.65,15.4,1.76c10.98,10.95,21.86,21.99,32.78,33c2.22,2.23,4.51,4.39,6.64,6.7
		c4.77,5.19,5.04,10.58,0.24,15.51c-13.49,13.83-27.09,27.56-40.83,41.15c-4.69,4.64-10.25,4.57-14.4,0.48
		c-3.96-3.91-4.14-9.98,0.37-14.43C334.65,226.56,346.29,215.65,359.23,203.27z"/>
</g>
</svg>
