<?xml version="1.0" encoding="utf-8"?>
<!-- Generator: Adobe Illustrator 26.2.1, SVG Export Plug-In . SVG Version: 6.00 Build 0)  -->
<svg version="1.1" id="report" xmlns="http://www.w3.org/2000/svg" xmlns:xlink="http://www.w3.org/1999/xlink" x="0px" y="0px"
	 viewBox="0 0 640.62 640.62" style="enable-background:new 0 0 640.62 640.62;" xml:space="preserve">
<style type="text/css">
	.st0{display:none;fill:url(#SVGID_1_);}
	.st1{display:none;fill:url(#SVGID_00000111910677054852790450000011422404261807969196_);}
	.st2{display:none;fill:url(#SVGID_00000178201322873398625360000014824937674754491279_);}
	.st3{fill:url(#path6055_00000177477943445897724490000008128079121229637049_);}
	.st4{fill:url(#path678_00000074443065962394532300000002706081751614693010_);}
	.st5{fill:#E50914;}
</style>
<linearGradient id="SVGID_1_" gradientUnits="userSpaceOnUse" x1="290.9483" y1="320.3009" x2="360.9372" y2="320.3009">
	<stop  offset="0" style="stop-color:#FFFFFF;stop-opacity:0.4"/>
	<stop  offset="0.0691" style="stop-color:#FFFFFF;stop-opacity:0.3435"/>
	<stop  offset="0.4892" style="stop-color:#FFFFFF;stop-opacity:0"/>
	<stop  offset="0.7527" style="stop-color:#FAFAFA;stop-opacity:0.1032"/>
	<stop  offset="1" style="stop-color:#EFEFEF;stop-opacity:0.2"/>
</linearGradient>
<path class="st0" d="M360.94,408.89c-23.09-16.59-45.06-32.27-66.81-48.25c-1.83-1.34-2.98-4.76-3.01-7.23
	c-0.23-22.1-0.21-44.2-0.02-66.3c0.02-2.29,0.86-5.51,2.5-6.71c21.96-16.13,44.13-31.97,67.35-48.68
	C360.94,291.13,360.94,349.28,360.94,408.89z"/>
<linearGradient id="SVGID_00000052072887252633236040000011384476228854666426_" gradientUnits="userSpaceOnUse" x1="234.72" y1="320.2812" x2="275.4071" y2="320.2812">
	<stop  offset="0" style="stop-color:#FFFFFF;stop-opacity:0.4"/>
	<stop  offset="0.0691" style="stop-color:#FFFFFF;stop-opacity:0.3435"/>
	<stop  offset="0.4892" style="stop-color:#FFFFFF;stop-opacity:0"/>
	<stop  offset="0.7527" style="stop-color:#FAFAFA;stop-opacity:0.1032"/>
	<stop  offset="1" style="stop-color:#EFEFEF;stop-opacity:0.2"/>
</linearGradient>
<path style="display:none;fill:url(#SVGID_00000052072887252633236040000011384476228854666426_);" d="M275.41,285.55
	c0,23.61,0,46.09,0,69.35c-11.46,0-22.58,0.48-33.59-0.36c-2.51-0.19-6.61-4.84-6.7-7.55c-0.6-17.88-0.4-35.78-0.22-53.68
	c0.05-4.85,2.99-7.68,7.96-7.73C253.46,285.48,264.05,285.55,275.41,285.55z"/>
<linearGradient id="SVGID_00000155868792918533014140000004986912415604310940_" gradientUnits="userSpaceOnUse" x1="377.0954" y1="320.1778" x2="405.9691" y2="320.1778">
	<stop  offset="0" style="stop-color:#FFFFFF;stop-opacity:0.4"/>
	<stop  offset="0.0691" style="stop-color:#FFFFFF;stop-opacity:0.3435"/>
	<stop  offset="0.4892" style="stop-color:#FFFFFF;stop-opacity:0"/>
	<stop  offset="0.7527" style="stop-color:#FAFAFA;stop-opacity:0.1032"/>
	<stop  offset="1" style="stop-color:#EFEFEF;stop-opacity:0.2"/>
</linearGradient>
<path style="display:none;fill:url(#SVGID_00000155868792918533014140000004986912415604310940_);" d="M377.1,355.13
	c0-23.33,0-46.62,0.01-69.9c15.57,1.63,28.5,17.01,28.86,34.31C406.32,336.88,393.67,352.67,377.1,355.13z"/>
<g>
	
		<linearGradient id="path6055_00000156550828140848663440000008813166050132201607_" gradientUnits="userSpaceOnUse" x1="210.8076" y1="329.8239" x2="301.9726" y2="367.1186" gradientTransform="matrix(1 0 0 -1 0 642.6213)">
		<stop  offset="0" style="stop-color:#B1060F"/>
		<stop  offset="0.5461" style="stop-color:#7B010C"/>
		<stop  offset="1" style="stop-color:#E50914;stop-opacity:0"/>
	</linearGradient>
	<path id="path6055" style="fill:url(#path6055_00000156550828140848663440000008813166050132201607_);" d="M143.4,1.29l2.2,638.04
		c46.57-8.97,83.2-7.99,124.53-11.72V2.02L143.4,1.29z"/>
	
		<linearGradient id="path678_00000043454464559557913830000000211453467081358525_" gradientUnits="userSpaceOnUse" x1="429.1726" y1="321.0096" x2="335.9358" y2="281.643" gradientTransform="matrix(1 0 0 -1 0 642.6213)">
		<stop  offset="0" style="stop-color:#B1060F"/>
		<stop  offset="0.625" style="stop-color:#7B010C"/>
		<stop  offset="1" style="stop-color:#B1060F;stop-opacity:0"/>
	</linearGradient>
	<path id="path678" style="fill:url(#path678_00000043454464559557913830000000211453467081358525_);" d="M369.02,2.02h126.73
		l1.47,635.84l-128.93-21.24L369.02,2.02z"/>
	<path id="path362" class="st5" d="M144.87,2.02c2.93,7.33,219.76,624.12,219.76,624.12c35.63-0.25,83.4,5.56,130.39,10.99
		L269.4,2.02H144.87z"/>
</g>
</svg>
