<?xml version="1.0" encoding="utf-8"?>
<!-- Generator: Adobe Illustrator 26.2.1, SVG Export Plug-In . SVG Version: 6.00 Build 0)  -->
<svg version="1.1" id="report" xmlns="http://www.w3.org/2000/svg" xmlns:xlink="http://www.w3.org/1999/xlink" x="0px" y="0px"
	 viewBox="0 0 640.62 640.62" style="enable-background:new 0 0 640.62 640.62;" xml:space="preserve">
<style type="text/css">
	.st0{display:none;fill:url(#SVGID_1_);}
	.st1{display:none;fill:url(#SVGID_00000113327994418694660710000012607825585096708006_);}
	.st2{display:none;fill:url(#SVGID_00000098913491576315074900000015720405954584475808_);}
	.st3{fill:#360061;}
	.st4{fill:url(#SVGID_00000102507074870920584740000013713776954825419673_);}
	.st5{fill:#5800B2;}
</style>
<linearGradient id="SVGID_1_" gradientUnits="userSpaceOnUse" x1="290.9483" y1="320.3009" x2="360.9372" y2="320.3009">
	<stop  offset="0" style="stop-color:#FFFFFF;stop-opacity:0.4"/>
	<stop  offset="0.0691" style="stop-color:#FFFFFF;stop-opacity:0.3435"/>
	<stop  offset="0.4892" style="stop-color:#FFFFFF;stop-opacity:0"/>
	<stop  offset="0.7527" style="stop-color:#FAFAFA;stop-opacity:0.1032"/>
	<stop  offset="1" style="stop-color:#EFEFEF;stop-opacity:0.2"/>
</linearGradient>
<path class="st0" d="M360.94,408.89c-23.09-16.59-45.06-32.27-66.81-48.25c-1.83-1.34-2.98-4.76-3.01-7.23
	c-0.23-22.1-0.21-44.2-0.02-66.3c0.02-2.29,0.86-5.51,2.5-6.71c21.96-16.13,44.13-31.97,67.35-48.68
	C360.94,291.13,360.94,349.28,360.94,408.89z"/>
<linearGradient id="SVGID_00000016073424174053332780000016817332177209074066_" gradientUnits="userSpaceOnUse" x1="234.72" y1="320.2812" x2="275.4071" y2="320.2812">
	<stop  offset="0" style="stop-color:#FFFFFF;stop-opacity:0.4"/>
	<stop  offset="0.0691" style="stop-color:#FFFFFF;stop-opacity:0.3435"/>
	<stop  offset="0.4892" style="stop-color:#FFFFFF;stop-opacity:0"/>
	<stop  offset="0.7527" style="stop-color:#FAFAFA;stop-opacity:0.1032"/>
	<stop  offset="1" style="stop-color:#EFEFEF;stop-opacity:0.2"/>
</linearGradient>
<path style="display:none;fill:url(#SVGID_00000016073424174053332780000016817332177209074066_);" d="M275.41,285.55
	c0,23.61,0,46.09,0,69.35c-11.46,0-22.58,0.48-33.59-0.36c-2.51-0.19-6.61-4.84-6.7-7.55c-0.6-17.88-0.4-35.78-0.22-53.68
	c0.05-4.85,2.99-7.68,7.96-7.73C253.46,285.48,264.05,285.55,275.41,285.55z"/>
<linearGradient id="SVGID_00000033351803755896377400000014608166633180090754_" gradientUnits="userSpaceOnUse" x1="377.0954" y1="320.1778" x2="405.9691" y2="320.1778">
	<stop  offset="0" style="stop-color:#FFFFFF;stop-opacity:0.4"/>
	<stop  offset="0.0691" style="stop-color:#FFFFFF;stop-opacity:0.3435"/>
	<stop  offset="0.4892" style="stop-color:#FFFFFF;stop-opacity:0"/>
	<stop  offset="0.7527" style="stop-color:#FAFAFA;stop-opacity:0.1032"/>
	<stop  offset="1" style="stop-color:#EFEFEF;stop-opacity:0.2"/>
</linearGradient>
<path style="display:none;fill:url(#SVGID_00000033351803755896377400000014608166633180090754_);" d="M377.1,355.13
	c0-23.33,0-46.62,0.01-69.9c15.57,1.63,28.5,17.01,28.86,34.31C406.32,336.88,393.67,352.67,377.1,355.13z"/>
<g>
	<path class="st3" d="M641.87,339.67c0,95.74,0,191.48,0,287.22c-4.97,10.83-13.56,13.92-25.15,13.9
		c-197.26-0.23-394.51-0.16-591.77-0.17c-15.43,0-22.45-7.03-22.45-22.48c-0.01-90.51,0-181.03,0-271.54c0-2.2,0-4.39,0-6.93
		C216.2,339.67,429.03,339.67,641.87,339.67z M380.12,489.55c0.51,0.02,1.01,0.03,1.52,0.05c5.94,19.2,11.85,38.41,17.83,57.6
		c3.09,9.91,10.13,15.28,19.04,14.7c8.68-0.57,15.1-6.6,17.05-16.35c7.09-35.44,14.15-70.88,21.15-106.34
		c2.06-10.44-2.93-18.54-12.31-20.39c-8.66-1.71-16.37,4.27-18.41,14.41c-2.22,10.99-4.29,22.02-6.49,33.01
		c-1.43,7.14-2.97,14.26-4.46,21.39c-7.11-18.94-12.88-37.78-18.8-56.56c-2.68-8.5-8.22-12.81-15.65-12.66
		c-7.29,0.15-12.42,4.38-15,12.62c-4.59,14.66-9.08,29.36-13.65,44.03c-1.3,4.19-2.72,8.34-4.64,14.22
		c-0.82-2.78-1.16-3.7-1.35-4.64c-3.36-16.91-6.43-33.88-10.22-50.69c-0.99-4.38-3.41-9.02-6.53-12.2
		c-4.55-4.63-11.81-4.42-17.37-0.97c-5.9,3.66-8.39,9.9-6.82,17.98c2.72,14.07,5.63,28.11,8.4,42.17
		c4.26,21.6,8.45,43.22,12.74,64.81c1.92,9.67,8.45,15.72,17.17,16.19c8.72,0.47,15.7-4.82,18.78-14.27
		c0.96-2.96,1.81-5.96,2.73-8.93C369.92,522.31,375.02,505.93,380.12,489.55z M153.77,496.01c-1.55-2.05-2.81-3.6-3.95-5.24
		c-14.66-21.2-29.27-42.43-43.95-63.61c-5.25-7.58-11.32-10.07-18.53-7.85c-7.54,2.32-11.16,7.86-11.17,17.34
		c-0.02,35.77-0.03,71.54,0,107.31c0.01,10.82,6.29,17.97,15.59,17.96c9.3-0.01,15.57-7.16,15.6-17.98
		c0.05-17.47,0-34.94,0.03-52.41c0-1.72,0.24-3.44,0.45-6.23c1.8,2.45,2.93,3.91,3.97,5.42c14.19,20.51,28.3,41.08,42.58,61.53
		c5.13,7.35,12.16,9.92,19.38,7.67c7.6-2.37,12.31-8.72,12.25-17.57c-0.26-36.18-0.65-72.37-1.13-108.55
		c-0.1-7.72-5.24-13.62-12.42-15.14c-10.05-2.14-18.62,5.6-18.68,17.12C153.7,455.52,153.77,475.27,153.77,496.01z M519.57,561.99
		c12.17-0.08,22.95-2.84,32.25-9.81c13.7-10.26,20.8-23.73,17.68-41.13c-2.97-16.54-14.28-26.27-28.83-32.7
		c-9.87-4.36-20.1-7.91-29.93-12.36c-2.79-1.26-6.31-4.16-6.71-6.73c-0.71-4.61,3.18-7.46,7.57-8.43c3.4-0.75,7.31-1.88,10.39-0.91
		c7.03,2.21,13.89,5.2,20.43,8.63c7.65,4.01,16.32,2.76,21.18-3.9c4.94-6.77,4.06-15.96-2.88-21.19
		c-17.52-13.21-36.89-18.87-58.62-12.49c-17.08,5.02-28.78,19.57-29.66,36.93c-0.74,14.68,7.96,30.62,24.79,36.64
		c11.13,3.98,22.02,8.69,32.85,13.44c4.58,2.01,9.45,4.92,8.78,10.85c-0.67,6.02-5.45,9.06-10.92,10.72
		c-2.16,0.65-4.48,1.11-6.72,1.11c-10.17,0.02-19.04-3.29-26.73-10.16c-2.84-2.53-6.36-4.91-9.96-5.86
		c-6.67-1.75-13.1,1.66-16.35,7.49c-3.41,6.11-2.73,12.81,2.48,18.41C484.01,554.9,500.91,561.25,519.57,561.99z M239.58,505.75
		c8.81,0,17.29,0.05,25.76-0.01c10.69-0.08,17.91-6.6,17.7-15.89c-0.21-9.12-7.2-15.23-17.66-15.3c-8.48-0.06-16.95-0.01-25.72-0.01
		c0-8.57,0-16.51,0-24.32c0.8-0.29,1.18-0.55,1.56-0.55c7.69-0.05,15.38-0.1,23.07-0.11c14.91-0.01,22.18-5.19,22.08-15.76
		c-0.09-10.49-7.29-15.46-22.38-15.46c-12.06,0-24.12-0.01-36.18,0c-14.55,0.01-19.79,5.28-19.8,20.02
		c-0.03,34.51-0.01,69.02,0,103.54c0,1.87,0.01,3.75,0.19,5.6c0.81,8.16,6.46,14.15,14.59,14.3c16.42,0.31,32.85,0.39,49.27-0.04
		c9.01-0.24,15.04-8.13,14.19-17.09c-0.77-8.19-7.18-13.77-16.31-13.9c-10.11-0.13-20.23-0.03-30.37-0.03
		C239.58,522.03,239.58,514.21,239.58,505.75z"/>
	
		<linearGradient id="SVGID_00000083767402765364253650000005629678250899028625_" gradientUnits="userSpaceOnUse" x1="2.4969" y1="490.2266" x2="641.8701" y2="490.2266">
		<stop  offset="0" style="stop-color:#FFFFFF;stop-opacity:0.4"/>
		<stop  offset="0.0691" style="stop-color:#FFFFFF;stop-opacity:0.3435"/>
		<stop  offset="0.4892" style="stop-color:#FFFFFF;stop-opacity:0"/>
		<stop  offset="0.7527" style="stop-color:#FAFAFA;stop-opacity:0.1032"/>
		<stop  offset="1" style="stop-color:#EFEFEF;stop-opacity:0.2"/>
	</linearGradient>
	<path style="fill:url(#SVGID_00000083767402765364253650000005629678250899028625_);" d="M641.87,339.67c0,95.74,0,191.48,0,287.22
		c-4.97,10.83-13.56,13.92-25.15,13.9c-197.26-0.23-394.51-0.16-591.77-0.17c-15.43,0-22.45-7.03-22.45-22.48
		c-0.01-90.51,0-181.03,0-271.54c0-2.2,0-4.39,0-6.93C216.2,339.67,429.03,339.67,641.87,339.67z M380.12,489.55
		c0.51,0.02,1.01,0.03,1.52,0.05c5.94,19.2,11.85,38.41,17.83,57.6c3.09,9.91,10.13,15.28,19.04,14.7
		c8.68-0.57,15.1-6.6,17.05-16.35c7.09-35.44,14.15-70.88,21.15-106.34c2.06-10.44-2.93-18.54-12.31-20.39
		c-8.66-1.71-16.37,4.27-18.41,14.41c-2.22,10.99-4.29,22.02-6.49,33.01c-1.43,7.14-2.97,14.26-4.46,21.39
		c-7.11-18.94-12.88-37.78-18.8-56.56c-2.68-8.5-8.22-12.81-15.65-12.66c-7.29,0.15-12.42,4.38-15,12.62
		c-4.59,14.66-9.08,29.36-13.65,44.03c-1.3,4.19-2.72,8.34-4.64,14.22c-0.82-2.78-1.16-3.7-1.35-4.64
		c-3.36-16.91-6.43-33.88-10.22-50.69c-0.99-4.38-3.41-9.02-6.53-12.2c-4.55-4.63-11.81-4.42-17.37-0.97
		c-5.9,3.66-8.39,9.9-6.82,17.98c2.72,14.07,5.63,28.11,8.4,42.17c4.26,21.6,8.45,43.22,12.74,64.81
		c1.92,9.67,8.45,15.72,17.17,16.19c8.72,0.47,15.7-4.82,18.78-14.27c0.96-2.96,1.81-5.96,2.73-8.93
		C369.92,522.31,375.02,505.93,380.12,489.55z M153.77,496.01c-1.55-2.05-2.81-3.6-3.95-5.24c-14.66-21.2-29.27-42.43-43.95-63.61
		c-5.25-7.58-11.32-10.07-18.53-7.85c-7.54,2.32-11.16,7.86-11.17,17.34c-0.02,35.77-0.03,71.54,0,107.31
		c0.01,10.82,6.29,17.97,15.59,17.96c9.3-0.01,15.57-7.16,15.6-17.98c0.05-17.47,0-34.94,0.03-52.41c0-1.72,0.24-3.44,0.45-6.23
		c1.8,2.45,2.93,3.91,3.97,5.42c14.19,20.51,28.3,41.08,42.58,61.53c5.13,7.35,12.16,9.92,19.38,7.67
		c7.6-2.37,12.31-8.72,12.25-17.57c-0.26-36.18-0.65-72.37-1.13-108.55c-0.1-7.72-5.24-13.62-12.42-15.14
		c-10.05-2.14-18.62,5.6-18.68,17.12C153.7,455.52,153.77,475.27,153.77,496.01z M519.57,561.99c12.17-0.08,22.95-2.84,32.25-9.81
		c13.7-10.26,20.8-23.73,17.68-41.13c-2.97-16.54-14.28-26.27-28.83-32.7c-9.87-4.36-20.1-7.91-29.93-12.36
		c-2.79-1.26-6.31-4.16-6.71-6.73c-0.71-4.61,3.18-7.46,7.57-8.43c3.4-0.75,7.31-1.88,10.39-0.91c7.03,2.21,13.89,5.2,20.43,8.63
		c7.65,4.01,16.32,2.76,21.18-3.9c4.94-6.77,4.06-15.96-2.88-21.19c-17.52-13.21-36.89-18.87-58.62-12.49
		c-17.08,5.02-28.78,19.57-29.66,36.93c-0.74,14.68,7.96,30.62,24.79,36.64c11.13,3.98,22.02,8.69,32.85,13.44
		c4.58,2.01,9.45,4.92,8.78,10.85c-0.67,6.02-5.45,9.06-10.92,10.72c-2.16,0.65-4.48,1.11-6.72,1.11
		c-10.17,0.02-19.04-3.29-26.73-10.16c-2.84-2.53-6.36-4.91-9.96-5.86c-6.67-1.75-13.1,1.66-16.35,7.49
		c-3.41,6.11-2.73,12.81,2.48,18.41C484.01,554.9,500.91,561.25,519.57,561.99z M239.58,505.75c8.81,0,17.29,0.05,25.76-0.01
		c10.69-0.08,17.91-6.6,17.7-15.89c-0.21-9.12-7.2-15.23-17.66-15.3c-8.48-0.06-16.95-0.01-25.72-0.01c0-8.57,0-16.51,0-24.32
		c0.8-0.29,1.18-0.55,1.56-0.55c7.69-0.05,15.38-0.1,23.07-0.11c14.91-0.01,22.18-5.19,22.08-15.76
		c-0.09-10.49-7.29-15.46-22.38-15.46c-12.06,0-24.12-0.01-36.18,0c-14.55,0.01-19.79,5.28-19.8,20.02
		c-0.03,34.51-0.01,69.02,0,103.54c0,1.87,0.01,3.75,0.19,5.6c0.81,8.16,6.46,14.15,14.59,14.3c16.42,0.31,32.85,0.39,49.27-0.04
		c9.01-0.24,15.04-8.13,14.19-17.09c-0.77-8.19-7.18-13.77-16.31-13.9c-10.11-0.13-20.23-0.03-30.37-0.03
		C239.58,522.03,239.58,514.21,239.58,505.75z"/>
	<path class="st5" d="M641.87,302.2c-53.18,0-106.36,0-158.41,0c-4.44-37.83-8.79-74.89-13.22-112.66c0.71-0.04,2.87-0.26,5.03-0.26
		c44.09-0.02,88.17,0.06,132.26-0.12c4.65-0.02,6.82,1.43,8.65,5.78c13.6,32.24,21.93,65.72,24.57,100.61
		c0.14,1.82,0.74,3.6,1.12,5.4C641.87,301.37,641.87,301.79,641.87,302.2z"/>
	<path class="st5" d="M342.16,1.25c12.12,1.65,24.33,2.79,36.34,5.04c90.78,17.02,161.2,64.77,212.37,141.36
		c0.46,0.69,0.91,1.4,1.28,2.14c0.16,0.33,0.12,0.76,0.24,1.69c-2.04,0.11-4.04,0.31-6.03,0.31c-40.56,0.02-81.13-0.07-121.69,0.12
		c-4.81,0.02-6.69-1.53-8.13-6.1c-7.99-25.44-18.24-49.93-32.14-72.78c-21.19-34.8-48.06-62.54-89.72-71.79
		C337.17,1.25,339.67,1.25,342.16,1.25z"/>
	<path class="st5" d="M309.7,1.25c-49.89,11.42-78.02,47.33-99.49,89.87c-9.04,17.9-15.23,37.23-22.97,55.8
		c-0.83,1.98-3.3,4.67-5.03,4.68c-42.85,0.24-85.7,0.17-128.56,0.12c-0.55,0-1.1-0.41-3.33-1.3c11.68-14.78,22.2-29.74,34.38-43.2
		C136.88,49.52,201.74,15.24,278.77,4.11c7.79-1.12,15.62-1.92,23.43-2.86C304.7,1.25,307.2,1.25,309.7,1.25z"/>
	<path class="st5" d="M3.21,301.84C5.34,263.6,14.1,227.48,29.26,192.9c0.71-1.61,3.22-3.47,4.89-3.47
		c46.58-0.14,93.17-0.06,139.75,0c0.38,0,0.76,0.27,0.22,0.07c-4.41,37.45-8.78,74.65-13.22,112.34
		C109.41,301.84,56.68,301.84,3.21,301.84z"/>
	<path class="st3" d="M303.14,189.97c0,37.15,0,74.28,0,111.82c-34.22,0-68.36,0-103.27,0c0.94-13.94,1.12-27.66,2.93-41.16
		c2.97-22.2,7.03-44.26,10.56-66.39c0.47-2.94,1.14-5.03,4.87-5.01c27.65,0.12,55.29,0.1,82.94,0.15
		C301.73,189.38,302.29,189.71,303.14,189.97z"/>
	<path class="st3" d="M341.18,301.79c0-37.41,0-74.53,0-112.08c2-0.16,3.79-0.42,5.58-0.42c25.78-0.03,51.55,0.1,77.33-0.12
		c4.72-0.04,6.25,1.55,7.26,6.08c7.62,34.18,11.41,68.81,12.88,103.75c0.03,0.8-0.11,1.6-0.2,2.8
		C409.88,301.79,375.88,301.79,341.18,301.79z"/>
	<path class="st3" d="M303.25,43.3c0,36.23,0,71.95,0,108.09c-25.69,0-51.18,0-76.67,0C226.17,120.7,275.57,50.72,303.25,43.3z"/>
	<path class="st3" d="M418.46,151.54c-26.04,0-51.36,0-77.12,0c0-36.12,0-71.99,0-108.85c2.29,1.05,4.46,1.91,6.5,3.01
		c14.03,7.58,24.8,18.77,34.2,31.36c16.19,21.7,27.12,46.1,36.06,71.48C418.35,149.27,418.3,150.1,418.46,151.54z"/>
</g>
</svg>
