<svg xmlns="http://www.w3.org/2000/svg" width="324" height="5420" viewBox="0 0 324 5420">
  <g id="Group_4829" data-name="Group 4829" transform="translate(-26 -736)">
    <g id="Component_407_1" data-name="Component 407 – 1" transform="translate(26 736)">
      <g id="Ellipse_122" data-name="Ellipse 122" transform="translate(0 3584)" fill="none" stroke="#baa6e2" stroke-width="6">
        <circle cx="162" cy="162" r="162" stroke="none"/>
        <circle cx="162" cy="162" r="159" fill="none"/>
      </g>
      <g id="Ellipse_120" data-name="Ellipse 120" transform="translate(142 3566)" fill="#fff" stroke="#baa6e2" stroke-width="6">
        <circle cx="20" cy="20" r="20" stroke="none"/>
        <circle cx="20" cy="20" r="17" fill="none"/>
      </g>
      <g id="Ellipse_121" data-name="Ellipse 121" transform="translate(142 3888)" fill="#fff" stroke="#baa6e2" stroke-width="6">
        <circle cx="20" cy="20" r="20" stroke="none"/>
        <circle cx="20" cy="20" r="17" fill="none"/>
      </g>
      <g id="Ellipse_123" data-name="Ellipse 123" transform="translate(7 4121.5)" fill="#fff" stroke="#baa6e2" stroke-width="6">
        <circle cx="20" cy="20" r="20" stroke="none"/>
        <circle cx="20" cy="20" r="17" fill="none"/>
      </g>
      <path id="Path_6115" data-name="Path 6115" d="M0,114.743V33" transform="translate(30 3584) rotate(-90)" fill="none" stroke="#baa6e2" stroke-width="6"/>
      <path id="Path_6128" data-name="Path 6128" d="M0,114.743V33" transform="translate(30 3908) rotate(-90)" fill="none" stroke="#baa6e2" stroke-width="6"/>
      <path id="Path_6129" data-name="Path 6129" d="M0,213.5V33" transform="translate(27 4157.5) rotate(180)" fill="none" stroke="#baa6e2" stroke-width="6"/>
      <path id="Path_6133" data-name="Path 6133" d="M0,501V33" transform="translate(27 4658.5) rotate(180)" fill="none" stroke="#baa6e2" stroke-width="6"/>
      <g id="Ellipse_119" data-name="Ellipse 119" transform="translate(7 3040)" fill="#fff" stroke="#baa6e2" stroke-width="6">
        <circle cx="20" cy="20" r="20" stroke="none"/>
        <circle cx="20" cy="20" r="17" fill="none"/>
      </g>
      <path id="Path_6117" data-name="Path 6117" d="M0,507.113V33" transform="translate(27 3581) rotate(180)" fill="none" stroke="#baa6e2" stroke-width="6"/>
      <path id="Path_6084" data-name="Path 6084" d="M36,36A36,36,0,0,0,0,0" transform="translate(243 2752)" fill="none" stroke="#baa6e2" stroke-width="6"/>
      <path id="Path_6095" data-name="Path 6095" d="M36,36A36,36,0,0,0,0,0" transform="translate(279 2860) rotate(90)" fill="none" stroke="#baa6e2" stroke-width="6"/>
      <path id="Path_6106" data-name="Path 6106" d="M36,36A36,36,0,0,0,0,0" transform="translate(99 2752) rotate(90)" fill="none" stroke="#baa6e2" stroke-width="6"/>
      <g id="Ellipse_116" data-name="Ellipse 116" transform="translate(7 1990)" fill="#fff" stroke="#baa6e2" stroke-width="6">
        <circle cx="20" cy="20" r="20" stroke="none"/>
        <circle cx="20" cy="20" r="17" fill="none"/>
      </g>
      <g id="Ellipse_117" data-name="Ellipse 117" transform="translate(7 2288)" fill="#fff" stroke="#baa6e2" stroke-width="6">
        <circle cx="20" cy="20" r="20" stroke="none"/>
        <circle cx="20" cy="20" r="17" fill="none"/>
      </g>
      <g id="Ellipse_118" data-name="Ellipse 118" transform="translate(7 2500)" fill="#fff" stroke="#baa6e2" stroke-width="6">
        <circle cx="20" cy="20" r="20" stroke="none"/>
        <circle cx="20" cy="20" r="17" fill="none"/>
      </g>
      <line id="Line_170" data-name="Line 170" y1="262" transform="translate(27 2026)" fill="none" stroke="#baa6e2" stroke-width="6"/>
      <path id="Path_6135" data-name="Path 6135" d="M0,178V-2" transform="translate(27 2326)" fill="none" stroke="#baa6e2" stroke-width="6"/>
      <line id="Line_172" data-name="Line 172" y1="140" transform="translate(27 2540)" fill="none" stroke="#baa6e2" stroke-width="6"/>
      <g id="Ellipse_115" data-name="Ellipse 115" transform="translate(132 1370)" fill="#fff" stroke="#baa6e2" stroke-width="6">
        <circle cx="20" cy="20" r="20" stroke="none"/>
        <circle cx="20" cy="20" r="17" fill="none"/>
      </g>
      <line id="Line_110" data-name="Line 110" y1="569" transform="translate(27 1424)" fill="none" stroke="#baa6e2" stroke-width="6"/>
      <line id="Line_109" data-name="Line 109" x1="180" transform="translate(63 1244)" fill="none" stroke="#baa6e2" stroke-width="6"/>
      <line id="Line_167" data-name="Line 167" x1="72" transform="translate(171 1388)" fill="none" stroke="#baa6e2" stroke-width="6"/>
      <line id="Line_168" data-name="Line 168" x1="72" transform="translate(63 1388)" fill="none" stroke="#baa6e2" stroke-width="6"/>
      <path id="Path_6035" data-name="Path 6035" d="M36,72A36,36,0,0,1,72,36" transform="translate(315 1136) rotate(90)" fill="none" stroke="#baa6e2" stroke-width="6"/>
      <path id="Path_6040" data-name="Path 6040" d="M36,72A36,36,0,0,1,72,36" transform="translate(315 1280) rotate(90)" fill="none" stroke="#baa6e2" stroke-width="6"/>
      <path id="Path_6038" data-name="Path 6038" d="M0,0A36,36,0,0,0,36,36" transform="translate(63 1244) rotate(90)" fill="none" stroke="#baa6e2" stroke-width="6"/>
      <path id="Path_6036" data-name="Path 6036" d="M0,0A36,36,0,0,0,36,36" transform="translate(243 1244) rotate(-90)" fill="none" stroke="#baa6e2" stroke-width="6"/>
      <path id="Path_6041" data-name="Path 6041" d="M0,0A36,36,0,0,0,36,36" transform="translate(243 1388) rotate(-90)" fill="none" stroke="#baa6e2" stroke-width="6"/>
      <path id="Path_6042" data-name="Path 6042" d="M0,0A36,36,0,0,0,36,36" transform="translate(63 1388) rotate(90)" fill="none" stroke="#baa6e2" stroke-width="6"/>
      <path id="Path_6039" data-name="Path 6039" d="M0,36A36,36,0,0,1,36,0" transform="translate(27 1316) rotate(-90)" fill="none" stroke="#baa6e2" stroke-width="6"/>
      <g id="Ellipse_52" data-name="Ellipse 52" transform="translate(135)" fill="#fff" stroke="#baa6e2" stroke-width="6">
        <circle cx="20" cy="20" r="20" stroke="none"/>
        <circle cx="20" cy="20" r="17" fill="none"/>
      </g>
      <g id="Ellipse_114" data-name="Ellipse 114" transform="translate(7 591)" fill="#fff" stroke="#baa6e2" stroke-width="6">
        <circle cx="20" cy="20" r="20" stroke="none"/>
        <circle cx="20" cy="20" r="17" fill="none"/>
      </g>
      <line id="Line_109-2" data-name="Line 109" x1="78" transform="translate(63 20)" fill="none" stroke="#baa6e2" stroke-width="6"/>
      <path id="Path_4035" data-name="Path 4035" d="M36,72A36,36,0,0,1,72,36" transform="translate(-9 -16)" fill="none" stroke="#baa6e2" stroke-width="6"/>
      <line id="Line_166" data-name="Line 166" y1="313" transform="translate(27 628)" fill="none" stroke="#baa6e2" stroke-width="6"/>
      <line id="Line_169" data-name="Line 169" y1="539" transform="translate(27 56)" fill="none" stroke="#baa6e2" stroke-width="6"/>
      <path id="Path_4035-2" data-name="Path 4035" d="M36,72A36,36,0,0,1,72,36" transform="translate(-9 1208) rotate(-90)" fill="none" stroke="#baa6e2" stroke-width="6"/>
      <line id="Line_109-3" data-name="Line 109" y1="196" transform="translate(27 940)" fill="none" stroke="#baa6e2" stroke-width="6"/>
      <path id="Path_4037" data-name="Path 4037" d="M0,0V180" transform="translate(63 1172) rotate(-90)" fill="none" stroke="#baa6e2" stroke-width="6"/>
      <path id="Path_6037" data-name="Path 6037" d="M0,0V180" transform="translate(63 1316) rotate(-90)" fill="none" stroke="#baa6e2" stroke-width="6"/>
      <path id="Path_6110" data-name="Path 6110" d="M72,36A36,36,0,0,1,36,72" transform="translate(99 2716) rotate(90)" fill="none" stroke="#baa6e2" stroke-width="6"/>
      <line id="Line_177" data-name="Line 177" x1="72" transform="translate(27 2680) rotate(90)" fill="none" stroke="#baa6e2" stroke-width="6"/>
      <path id="Path_6096" data-name="Path 6096" d="M0,70V33" transform="translate(171 2822) rotate(180)" fill="none" stroke="#baa6e2" stroke-width="6"/>
      <path id="Path_6085" data-name="Path 6085" d="M0,70V33" transform="translate(243 2785) rotate(180)" fill="none" stroke="#baa6e2" stroke-width="6"/>
      <path id="Path_6097" data-name="Path 6097" d="M0,70V33" transform="translate(101.5 2788) rotate(-90)" fill="none" stroke="#baa6e2" stroke-width="6"/>
      <path id="Path_6090" data-name="Path 6090" d="M0,70V33" transform="translate(138 2788) rotate(-90)" fill="none" stroke="#baa6e2" stroke-width="6"/>
      <path id="Path_6134" data-name="Path 6134" d="M0,105.5V33" transform="translate(101.5 2968) rotate(-90)" fill="none" stroke="#baa6e2" stroke-width="6"/>
      <path id="Path_6107" data-name="Path 6107" d="M0,70V33" transform="translate(174 2896) rotate(-90)" fill="none" stroke="#baa6e2" stroke-width="6"/>
      <path id="Path_6086" data-name="Path 6086" d="M0,70V33" transform="translate(174 2752) rotate(-90)" fill="none" stroke="#baa6e2" stroke-width="6"/>
      <path id="Path_6098" data-name="Path 6098" d="M0,70V33" transform="translate(171 2857) rotate(180)" fill="none" stroke="#baa6e2" stroke-width="6"/>
      <path id="Path_6089" data-name="Path 6089" d="M0,108V33" transform="translate(279 2895) rotate(180)" fill="none" stroke="#baa6e2" stroke-width="6"/>
      <path id="Path_6099" data-name="Path 6099" d="M0,70V33" transform="translate(243 2929) rotate(180)" fill="none" stroke="#baa6e2" stroke-width="6"/>
      <path id="Path_6114" data-name="Path 6114" d="M0,70V33" transform="translate(27 3001) rotate(180)" fill="none" stroke="#baa6e2" stroke-width="6"/>
      <path id="Path_6108" data-name="Path 6108" d="M0,70V33" transform="translate(243 2965) rotate(180)" fill="none" stroke="#baa6e2" stroke-width="6"/>
      <path id="Path_6116" data-name="Path 6116" d="M0,105V30.379" transform="translate(27 3073) rotate(180)" fill="none" stroke="#baa6e2" stroke-width="6"/>
      <path id="Path_6100" data-name="Path 6100" d="M36,36A36,36,0,0,0,0,0" transform="translate(99 2824) rotate(-90)" fill="none" stroke="#baa6e2" stroke-width="6"/>
      <path id="Path_6101" data-name="Path 6101" d="M36,36A36,36,0,0,0,0,0" transform="translate(99 2752) rotate(-90)" fill="none" stroke="#baa6e2" stroke-width="6"/>
      <path id="Path_6102" data-name="Path 6102" d="M36,0A36,36,0,0,1,0,36" transform="translate(135 2752) rotate(-90)" fill="none" stroke="#baa6e2" stroke-width="6"/>
      <path id="Path_6103" data-name="Path 6103" d="M36,36A36,36,0,0,0,0,0" transform="translate(171 2824) rotate(90)" fill="none" stroke="#baa6e2" stroke-width="6"/>
      <path id="Path_6087" data-name="Path 6087" d="M36,36A36,36,0,0,0,0,0" transform="translate(243 2752) rotate(90)" fill="none" stroke="#baa6e2" stroke-width="6"/>
      <path id="Path_6111" data-name="Path 6111" d="M36,36A36,36,0,0,0,0,0" transform="translate(243 2932) rotate(90)" fill="none" stroke="#baa6e2" stroke-width="6"/>
      <path id="Path_6112" data-name="Path 6112" d="M36,36A36,36,0,0,0,0,0" transform="translate(135 2968) rotate(180)" fill="none" stroke="#baa6e2" stroke-width="6"/>
      <path id="Path_6088" data-name="Path 6088" d="M36,36A36,36,0,0,0,0,0" transform="translate(207 2680)" fill="none" stroke="#baa6e2" stroke-width="6"/>
      <path id="Path_6091" data-name="Path 6091" d="M36,36A36,36,0,0,0,0,0" transform="translate(171 2716) rotate(-90)" fill="none" stroke="#baa6e2" stroke-width="6"/>
      <path id="Path_6092" data-name="Path 6092" d="M36,36A36,36,0,0,0,0,0" transform="translate(207 2752) rotate(180)" fill="none" stroke="#baa6e2" stroke-width="6"/>
      <path id="Path_6104" data-name="Path 6104" d="M36,0A36,36,0,0,1,0,36" transform="translate(135 2824) rotate(90)" fill="none" stroke="#baa6e2" stroke-width="6"/>
      <path id="Path_6093" data-name="Path 6093" d="M36,0A36,36,0,0,1,0,36" transform="translate(207 2860) rotate(-90)" fill="none" stroke="#baa6e2" stroke-width="6"/>
      <path id="Path_6109" data-name="Path 6109" d="M36,0A36,36,0,0,1,0,36" transform="translate(63 2932) rotate(-90)" fill="none" stroke="#baa6e2" stroke-width="6"/>
      <path id="Path_6094" data-name="Path 6094" d="M36,36A36,36,0,0,0,0,0" transform="translate(171 2860) rotate(-90)" fill="none" stroke="#baa6e2" stroke-width="6"/>
      <path id="Path_6113" data-name="Path 6113" d="M36,36A36,36,0,0,0,0,0" transform="translate(27 2932) rotate(-90)" fill="none" stroke="#baa6e2" stroke-width="6"/>
      <path id="Path_6105" data-name="Path 6105" d="M36,0A36,36,0,0,1,0,36" transform="translate(207 2860) rotate(90)" fill="none" stroke="#baa6e2" stroke-width="6"/>
      <path id="Path_6118" data-name="Path 6118" d="M36,0A36,36,0,0,1,0,36" transform="translate(63 3548) rotate(90)" fill="none" stroke="#baa6e2" stroke-width="6"/>
      <path id="Path_6126" data-name="Path 6126" d="M36,36A36,36,0,0,0,0,0" transform="translate(27 3944) rotate(-90)" fill="none" stroke="#baa6e2" stroke-width="6"/>
      <g id="Ellipse_124" data-name="Ellipse 124" transform="translate(132 5380)" fill="#fff" stroke="#baa6e2" stroke-width="6">
        <circle cx="20" cy="20" r="20" stroke="none"/>
        <circle cx="20" cy="20" r="17" fill="none"/>
      </g>
      <path id="Path_6132" data-name="Path 6132" d="M0,105V33" transform="translate(30 5400) rotate(-90)" fill="none" stroke="#baa6e2" stroke-width="6"/>
      <path id="Path_6130" data-name="Path 6130" d="M0,807.5V33" transform="translate(27 5397) rotate(180)" fill="none" stroke="#baa6e2" stroke-width="6"/>
      <path id="Path_6131" data-name="Path 6131" d="M36,0A36,36,0,0,1,0,36" transform="translate(63 5364) rotate(90)" fill="none" stroke="#baa6e2" stroke-width="6"/>
    </g>
  </g>
</svg>
