<?xml version="1.0" encoding="utf-8"?>
<!-- Generator: Adobe Illustrator 26.2.1, SVG Export Plug-In . SVG Version: 6.00 Build 0)  -->
<svg version="1.1" id="report" xmlns="http://www.w3.org/2000/svg" xmlns:xlink="http://www.w3.org/1999/xlink" x="0px" y="0px"
	 viewBox="0 0 640.62 640.62" style="enable-background:new 0 0 640.62 640.62;" xml:space="preserve">
<style type="text/css">
	.st0{fill:#360061;}
	.st1{fill:#5800B2;}
	.st2{fill:url(#SVGID_1_);}
	.st3{fill:url(#SVGID_00000097461777469191674120000017227470477855176889_);}
	.st4{fill:url(#SVGID_00000073693181903220356030000013716707734202189221_);}
	.st5{fill:url(#SVGID_00000106114751125225772380000007545222343333703082_);}
	.st6{fill:url(#SVGID_00000118395088496636886400000011562728748953705383_);}
	.st7{fill:url(#SVGID_00000044893315129455067170000000430267290842643096_);}
	.st8{fill:url(#SVGID_00000165944290101534459790000013320151014221141145_);}
</style>
<g>
	<path class="st0" d="M457.54,231.55c19.88,24.7,32.22,50.88,37.12,80.22c15.97,95.61-43.11,182.43-137.7,202.87
		c-95.09,20.55-192.2-45.92-207.52-142.03c-15.24-95.61,44.42-182.27,139.11-201.9c19.16-3.97,38.54-4.53,57.85-1.46
		c3.84,0.61,8.1,3.04,10.75,5.93c21.92,23.87,43.49,48.05,65.2,72.12c7.39,8.19,12.8,8.38,20.65,0.38
		C447.93,242.64,452.45,237.22,457.54,231.55z M368.9,197.28c-52.08-19.79-133.03-4.73-176.2,63.4
		c-41.93,66.18-27.17,153.3,34.12,202.06c60.81,48.37,149.06,43.37,203.6-11.28c55.31-55.43,53.93-134.97,26.99-179.12
		c-5.95,3.12-11.93,6.26-18.36,9.63c14.66,30.02,18.73,60.86,10.52,92.87c-8.28,32.27-26.31,57.92-53.88,76.62
		c-47.47,32.19-110.62,29.63-155.21-6.05c-45.31-36.26-61.71-96.8-40.68-150.5c10.39-26.54,27.51-47.76,51.61-62.98
		c34.58-21.83,71.78-26.12,111.19-14.73c1.7-5.09,3.24-9.59,4.7-14.11C367.91,201.18,368.37,199.21,368.9,197.28z M358.99,320.77
		c6.51,0,11.07,0.05,15.62-0.01c9.56-0.13,13.81-4.42,13.19-14.08c-1.35-21.04-10.46-38.04-27.71-50.27
		c-3.76-2.67-5.29-5.32-5.17-9.93c0.24-9.43-3.82-13.31-13.19-13.36c-12.77-0.08-25.55-0.05-38.32-0.01
		c-10.36,0.03-14.17,3.63-14.02,13.93c0.06,4.04-1.04,6.47-4.51,8.88c-35.54,24.69-38.28,74.85-5.83,103.46
		c1.62,1.43,3.27,2.82,6.08,5.24c-6.3,0-11.02-0.06-15.73,0.01c-9.15,0.15-13.41,4.41-12.89,13.68
		c1.19,21.06,10.23,38.11,27.41,50.42c3.95,2.83,5.67,5.54,5.5,10.47c-0.3,8.99,3.89,13,12.78,13.07c13.23,0.1,26.46,0.09,39.69,0
		c9.01-0.06,13.35-4.01,12.99-12.85c-0.22-5.28,1.93-7.88,5.91-10.93c20.88-16.05,29.99-37.26,26.09-63.57
		C384.22,346.88,374.6,332.93,358.99,320.77z"/>
	<path class="st1" d="M17.87,217.15c-3.41-5.13-6.41-9.63-9.73-14.62C90.62,137.23,172.83,72.15,255.31,6.85
		c16.77,17.79,33.2,35.19,49.61,52.62c38.79,41.22,77.56,82.45,116.35,123.67c7.69,8.17,12.85,8.3,20.74,0.43
		c34.72-34.67,69.42-69.38,104.1-104.09c8.5-8.5,8.47-13.18-0.31-21.78c-2.09-2.04-4.77-3.48-7.17-5.2
		c0.37-0.75,0.75-1.51,1.12-2.26c29.49-12.29,58.99-24.59,88.48-36.88c0.48,0.34,0.96,0.67,1.44,1.01
		c-12.24,29.46-24.49,58.92-37.25,89.62c-2.84-2.75-5.2-4.99-7.51-7.27c-8.4-8.3-13.02-8.34-21.33-0.06
		c-41.71,41.57-83.4,83.15-125.11,124.72c-1.58,1.58-3.25,3.08-5.33,5.05c-12.42-13.74-24.65-27.23-36.83-40.75
		c-43.09-47.8-86.16-95.62-129.25-143.43c-7.28-8.08-11.74-8.45-20.43-1.73C172.8,97.55,98.96,154.61,25.12,211.67
		C22.97,213.33,20.78,214.95,17.87,217.15z"/>
	<path class="st1" d="M596.17,507.47c-0.05,45.74-36.13,84.21-81.72,87.12c-46.23,2.95-86.79-30.4-92.8-76.05
		c-0.53-4.05,0.41-6.13,3.82-8.23c33.94-20.96,59.29-49.63,76-85.84c1.84-4,4.14-5.12,8.32-5.12
		C557.09,419.37,596.22,459.2,596.17,507.47z M541.38,484.89c-0.79-11.16-4.59-20.42-13.51-25.66c-6.84-4.02-9.88-8.45-8.57-16.05
		c0.06-0.36-0.3-0.79-0.58-1.47c-6.85,0-13.78,0-21.49,0c2.27,8.86-1.86,13.32-8.82,18.03c-10.85,7.35-14.77,18.96-12.03,31.97
		c2.78,13.21,11.03,21.73,24.17,25.18c2.83,0.74,5.85,0.77,8.77,1.21c5.96,0.89,9.61,4.35,9.97,10.36
		c0.34,5.74-2.83,9.71-8.28,11.07c-5.52,1.37-9.82-0.91-12.4-6.07c-0.69-1.38-1.2-2.84-1.66-3.95c-7.25,0-14.17,0-21.29,0
		c0.51,10.44,4.13,19.27,12.33,24.6c7.04,4.57,12.07,9.01,9.25,18.32c7.83,0,14.77,0,22.47,0c-2.26-8.87,1.82-13.37,8.82-18.05
		c10.68-7.14,14.59-18.58,12.16-31.32c-2.52-13.23-10.61-21.96-23.67-25.68c-3.03-0.86-6.29-0.88-9.44-1.36
		c-5.96-0.91-9.6-4.37-9.95-10.38c-0.34-5.75,2.85-9.7,8.3-11.06c5.52-1.37,9.81,0.94,12.39,6.09c0.69,1.38,1.2,2.84,1.77,4.2
		C527.11,484.89,533.91,484.89,541.38,484.89z"/>
	<path class="st1" d="M135.91,593.43c-47.96,0.05-87.64-39.1-87.73-86.57c-0.09-47.09,39.02-87,85.57-87.5
		c4.57-0.05,7.19,0.97,9.35,5.62c16.65,35.89,41.86,64.38,75.55,85.22c3.25,2.01,4.6,3.85,4,8.1
		C216.61,561.13,179.53,593.39,135.91,593.43z M146.24,572.49c1.26-11,1.37-10.87,9.81-17.8c10.19-8.37,14.61-19.22,11.88-32.23
		c-2.77-13.21-11.02-21.73-24.14-25.21c-2.83-0.75-5.85-0.77-8.77-1.2c-5.96-0.88-9.61-4.33-10-10.34
		c-0.37-5.75,2.81-9.71,8.25-11.1c5.51-1.4,9.82,0.89,12.41,6.04c0.69,1.38,1.2,2.86,1.67,4.02c7.22,0,14.16,0,21.41,0
		c-0.82-11.16-4.84-20.47-14.02-25.82c-6.43-3.75-9.2-7.85-7.99-14.94c0.1-0.59-0.25-1.27-0.46-2.2c-7,0-13.94,0-21.14,0
		c-0.1,1.46-0.4,2.6-0.21,3.65c1.13,6.18-1.53,9.38-6.96,12.7c-11.5,7.03-16.54,18.27-14.59,31.63
		c2.02,13.86,10.21,23.13,23.85,27.06c3.03,0.87,6.29,0.91,9.44,1.38c5.97,0.88,9.62,4.32,10,10.33c0.37,5.74-2.79,9.72-8.24,11.1
		c-5.51,1.4-9.82-0.87-12.42-6.03c-0.69-1.38-1.19-2.85-1.67-4.01c-7.23,0-14.16,0-21.34,0c0.67,11.2,4.8,20.46,13.97,25.81
		c6.43,3.75,9.19,7.87,7.98,14.95c-0.1,0.59,0.25,1.27,0.47,2.22C132.24,572.49,139,572.49,146.24,572.49z"/>
	<path class="st1" d="M379.86,531.45c6.61-2.42,13-4.75,20.15-7.37c7.58,38.07,28.14,66.39,63.51,82.77
		c23.13,10.71,47.39,12.72,72.17,6.31c50.83-13.15,84.9-59.24,82.22-111.97c-2.57-50.63-41.57-99.59-105.89-104.07
		c1.23-5.97,2.14-11.97,3.88-17.73c0.42-1.38,3.67-2.89,5.47-2.71c37.38,3.64,68.16,20.2,90.78,49.97
		c30.27,39.84,36.8,84.22,17.7,130.45c-19.18,46.42-55.03,73.47-105.02,80.38c-67.2,9.29-131.65-36.89-144.95-103.24
		C379.75,533.6,379.86,532.9,379.86,531.45z"/>
	<path class="st1" d="M244.18,524.01c7.17,2.64,13.71,5.06,20.16,7.44C256.9,583.47,205.88,642,128.51,638.37
		C57.95,635.06,2.97,574.96,4.43,503.06c1.35-66.6,58.55-125.61,123.33-126.53c1.54,6.64,3.11,13.44,4.83,20.84
		c-34.1,2.23-62.23,15.9-83.25,42.81c-16.19,20.73-23.64,44.51-22.91,70.77c1.41,51.1,40.03,95.46,90.49,104.11
		c19.55,3.35,38.66,1.57,57.22-5.38c18.34-6.86,33.74-17.96,46.22-33.05C232.96,561.38,240.53,543.76,244.18,524.01z"/>
	<path class="st1" d="M332.81,430.12c-7.32,0-14.1,0-21.45,0c0.98-8.74-3.77-13.08-10.93-16.82c-10.45-5.47-17.24-14.44-20.45-26.76
		c7.18,0,13.76-0.25,20.3,0.16c1.88,0.12,3.94,1.8,5.4,3.28c7.69,7.83,17.65,9.72,26.8,4.84c8.52-4.54,13.2-14.44,11.17-23.65
		c-2.21-10.05-10.32-16.82-20.94-17.49c-22.51-1.41-38.76-14.32-43.08-34.21c-4.47-20.56,4.19-38.54,24.22-49.29
		c6.14-3.3,7.81-8.34,7.48-14.81c7.43,0,14.41,0,21.95,0c-1.5,8.85,3.48,12.91,10.37,16.53c10.52,5.52,17.26,14.47,20.78,26.96
		c-7.29,0-14.03,0.2-20.73-0.14c-1.67-0.09-3.51-1.69-4.82-3.04c-7.76-7.98-17.52-9.98-26.71-5.26
		c-8.6,4.42-13.44,14.23-11.57,23.47c2.07,10.25,10.4,17.2,21.37,17.84c21.91,1.28,38.29,14.26,42.7,33.85
		c4.6,20.47-4.27,38.94-23.81,49.59C334.4,418.65,333.56,420.17,332.81,430.12z"/>
	<g>
		<linearGradient id="SVGID_1_" gradientUnits="userSpaceOnUse" x1="147.0622" y1="342.8293" x2="497.2539" y2="342.8293">
			<stop  offset="0" style="stop-color:#FFFFFF;stop-opacity:0.4"/>
			<stop  offset="0.0691" style="stop-color:#FFFFFF;stop-opacity:0.3435"/>
			<stop  offset="0.4892" style="stop-color:#FFFFFF;stop-opacity:0"/>
			<stop  offset="0.7527" style="stop-color:#FAFAFA;stop-opacity:0.1032"/>
			<stop  offset="1" style="stop-color:#EFEFEF;stop-opacity:0.2"/>
		</linearGradient>
		<path class="st2" d="M457.54,231.55c19.88,24.7,32.22,50.88,37.12,80.22c15.97,95.61-43.11,182.43-137.7,202.87
			c-95.09,20.55-192.2-45.92-207.52-142.03c-15.24-95.61,44.42-182.27,139.11-201.9c19.16-3.97,38.54-4.53,57.85-1.46
			c3.84,0.61,8.1,3.04,10.75,5.93c21.92,23.87,43.49,48.05,65.2,72.12c7.39,8.19,12.8,8.38,20.65,0.38
			C447.93,242.64,452.45,237.22,457.54,231.55z M368.9,197.28c-52.08-19.79-133.03-4.73-176.2,63.4
			c-41.93,66.18-27.17,153.3,34.12,202.06c60.81,48.37,149.06,43.37,203.6-11.28c55.31-55.43,53.93-134.97,26.99-179.12
			c-5.95,3.12-11.93,6.26-18.36,9.63c14.66,30.02,18.73,60.86,10.52,92.87c-8.28,32.27-26.31,57.92-53.88,76.62
			c-47.47,32.19-110.62,29.63-155.21-6.05c-45.31-36.26-61.71-96.8-40.68-150.5c10.39-26.54,27.51-47.76,51.61-62.98
			c34.58-21.83,71.78-26.12,111.19-14.73c1.7-5.09,3.24-9.59,4.7-14.11C367.91,201.18,368.37,199.21,368.9,197.28z M358.99,320.77
			c6.51,0,11.07,0.05,15.62-0.01c9.56-0.13,13.81-4.42,13.19-14.08c-1.35-21.04-10.46-38.04-27.71-50.27
			c-3.76-2.67-5.29-5.32-5.17-9.93c0.24-9.43-3.82-13.31-13.19-13.36c-12.77-0.08-25.55-0.05-38.32-0.01
			c-10.36,0.03-14.17,3.63-14.02,13.93c0.06,4.04-1.04,6.47-4.51,8.88c-35.54,24.69-38.28,74.85-5.83,103.46
			c1.62,1.43,3.27,2.82,6.08,5.24c-6.3,0-11.02-0.06-15.73,0.01c-9.15,0.15-13.41,4.41-12.89,13.68
			c1.19,21.06,10.23,38.11,27.41,50.42c3.95,2.83,5.67,5.54,5.5,10.47c-0.3,8.99,3.89,13,12.78,13.07c13.23,0.1,26.46,0.09,39.69,0
			c9.01-0.06,13.35-4.01,12.99-12.85c-0.22-5.28,1.93-7.88,5.91-10.93c20.88-16.05,29.99-37.26,26.09-63.57
			C384.22,346.88,374.6,332.93,358.99,320.77z"/>
		
			<linearGradient id="SVGID_00000102515280134651400800000012751286209553560201_" gradientUnits="userSpaceOnUse" x1="8.1354" y1="116.6286" x2="629.6746" y2="116.6286">
			<stop  offset="0" style="stop-color:#FFFFFF;stop-opacity:0.4"/>
			<stop  offset="0.0691" style="stop-color:#FFFFFF;stop-opacity:0.3435"/>
			<stop  offset="0.4892" style="stop-color:#FFFFFF;stop-opacity:0"/>
			<stop  offset="0.7527" style="stop-color:#FAFAFA;stop-opacity:0.1032"/>
			<stop  offset="1" style="stop-color:#EFEFEF;stop-opacity:0.2"/>
		</linearGradient>
		<path style="fill:url(#SVGID_00000102515280134651400800000012751286209553560201_);" d="M17.87,217.15
			c-3.41-5.13-6.41-9.63-9.73-14.62C90.62,137.23,172.83,72.15,255.31,6.85c16.77,17.79,33.2,35.19,49.61,52.62
			c38.79,41.22,77.56,82.45,116.35,123.67c7.69,8.17,12.85,8.3,20.74,0.43c34.72-34.67,69.42-69.38,104.1-104.09
			c8.5-8.5,8.47-13.18-0.31-21.78c-2.09-2.04-4.77-3.48-7.17-5.2c0.37-0.75,0.75-1.51,1.12-2.26
			c29.49-12.29,58.99-24.59,88.48-36.88c0.48,0.34,0.96,0.67,1.44,1.01c-12.24,29.46-24.49,58.92-37.25,89.62
			c-2.84-2.75-5.2-4.99-7.51-7.27c-8.4-8.3-13.02-8.34-21.33-0.06c-41.71,41.57-83.4,83.15-125.11,124.72
			c-1.58,1.58-3.25,3.08-5.33,5.05c-12.42-13.74-24.65-27.23-36.83-40.75c-43.09-47.8-86.16-95.62-129.25-143.43
			c-7.28-8.08-11.74-8.45-20.43-1.73C172.8,97.55,98.96,154.61,25.12,211.67C22.97,213.33,20.78,214.95,17.87,217.15z"/>
		
			<linearGradient id="SVGID_00000076595686195585183250000007498727432211727538_" gradientUnits="userSpaceOnUse" x1="421.5176" y1="507.059" x2="596.1699" y2="507.059">
			<stop  offset="0" style="stop-color:#FFFFFF;stop-opacity:0.4"/>
			<stop  offset="0.0691" style="stop-color:#FFFFFF;stop-opacity:0.3435"/>
			<stop  offset="0.4892" style="stop-color:#FFFFFF;stop-opacity:0"/>
			<stop  offset="0.7527" style="stop-color:#FAFAFA;stop-opacity:0.1032"/>
			<stop  offset="1" style="stop-color:#EFEFEF;stop-opacity:0.2"/>
		</linearGradient>
		<path style="fill:url(#SVGID_00000076595686195585183250000007498727432211727538_);" d="M596.17,507.47
			c-0.05,45.74-36.13,84.21-81.72,87.12c-46.23,2.95-86.79-30.4-92.8-76.05c-0.53-4.05,0.41-6.13,3.82-8.23
			c33.94-20.96,59.29-49.63,76-85.84c1.84-4,4.14-5.12,8.32-5.12C557.09,419.37,596.22,459.2,596.17,507.47z M541.38,484.89
			c-0.79-11.16-4.59-20.42-13.51-25.66c-6.84-4.02-9.88-8.45-8.57-16.05c0.06-0.36-0.3-0.79-0.58-1.47c-6.85,0-13.78,0-21.49,0
			c2.27,8.86-1.86,13.32-8.82,18.03c-10.85,7.35-14.77,18.96-12.03,31.97c2.78,13.21,11.03,21.73,24.17,25.18
			c2.83,0.74,5.85,0.77,8.77,1.21c5.96,0.89,9.61,4.35,9.97,10.36c0.34,5.74-2.83,9.71-8.28,11.07c-5.52,1.37-9.82-0.91-12.4-6.07
			c-0.69-1.38-1.2-2.84-1.66-3.95c-7.25,0-14.17,0-21.29,0c0.51,10.44,4.13,19.27,12.33,24.6c7.04,4.57,12.07,9.01,9.25,18.32
			c7.83,0,14.77,0,22.47,0c-2.26-8.87,1.82-13.37,8.82-18.05c10.68-7.14,14.59-18.58,12.16-31.32
			c-2.52-13.23-10.61-21.96-23.67-25.68c-3.03-0.86-6.29-0.88-9.44-1.36c-5.96-0.91-9.6-4.37-9.95-10.38
			c-0.34-5.75,2.85-9.7,8.3-11.06c5.52-1.37,9.81,0.94,12.39,6.09c0.69,1.38,1.2,2.84,1.77,4.2
			C527.11,484.89,533.91,484.89,541.38,484.89z"/>
		
			<linearGradient id="SVGID_00000112634431215949217960000018129409361297654166_" gradientUnits="userSpaceOnUse" x1="48.1823" y1="506.3991" x2="222.7853" y2="506.3991">
			<stop  offset="0" style="stop-color:#FFFFFF;stop-opacity:0.4"/>
			<stop  offset="0.0691" style="stop-color:#FFFFFF;stop-opacity:0.3435"/>
			<stop  offset="0.4892" style="stop-color:#FFFFFF;stop-opacity:0"/>
			<stop  offset="0.7527" style="stop-color:#FAFAFA;stop-opacity:0.1032"/>
			<stop  offset="1" style="stop-color:#EFEFEF;stop-opacity:0.2"/>
		</linearGradient>
		<path style="fill:url(#SVGID_00000112634431215949217960000018129409361297654166_);" d="M135.91,593.43
			c-47.96,0.05-87.64-39.1-87.73-86.57c-0.09-47.09,39.02-87,85.57-87.5c4.57-0.05,7.19,0.97,9.35,5.62
			c16.65,35.89,41.86,64.38,75.55,85.22c3.25,2.01,4.6,3.85,4,8.1C216.61,561.13,179.53,593.39,135.91,593.43z M146.24,572.49
			c1.26-11,1.37-10.87,9.81-17.8c10.19-8.37,14.61-19.22,11.88-32.23c-2.77-13.21-11.02-21.73-24.14-25.21
			c-2.83-0.75-5.85-0.77-8.77-1.2c-5.96-0.88-9.61-4.33-10-10.34c-0.37-5.75,2.81-9.71,8.25-11.1c5.51-1.4,9.82,0.89,12.41,6.04
			c0.69,1.38,1.2,2.86,1.67,4.02c7.22,0,14.16,0,21.41,0c-0.82-11.16-4.84-20.47-14.02-25.82c-6.43-3.75-9.2-7.85-7.99-14.94
			c0.1-0.59-0.25-1.27-0.46-2.2c-7,0-13.94,0-21.14,0c-0.1,1.46-0.4,2.6-0.21,3.65c1.13,6.18-1.53,9.38-6.96,12.7
			c-11.5,7.03-16.54,18.27-14.59,31.63c2.02,13.86,10.21,23.13,23.85,27.06c3.03,0.87,6.29,0.91,9.44,1.38
			c5.97,0.88,9.62,4.32,10,10.33c0.37,5.74-2.79,9.72-8.24,11.1c-5.51,1.4-9.82-0.87-12.42-6.03c-0.69-1.38-1.19-2.85-1.67-4.01
			c-7.23,0-14.16,0-21.34,0c0.67,11.2,4.8,20.46,13.97,25.81c6.43,3.75,9.19,7.87,7.98,14.95c-0.1,0.59,0.25,1.27,0.47,2.22
			C132.24,572.49,139,572.49,146.24,572.49z"/>
		
			<linearGradient id="SVGID_00000017497969500097822210000002424010912332286114_" gradientUnits="userSpaceOnUse" x1="379.8161" y1="507.6682" x2="640.6213" y2="507.6682">
			<stop  offset="0" style="stop-color:#FFFFFF;stop-opacity:0.4"/>
			<stop  offset="0.0691" style="stop-color:#FFFFFF;stop-opacity:0.3435"/>
			<stop  offset="0.4892" style="stop-color:#FFFFFF;stop-opacity:0"/>
			<stop  offset="0.7527" style="stop-color:#FAFAFA;stop-opacity:0.1032"/>
			<stop  offset="1" style="stop-color:#EFEFEF;stop-opacity:0.2"/>
		</linearGradient>
		<path style="fill:url(#SVGID_00000017497969500097822210000002424010912332286114_);" d="M379.86,531.45
			c6.61-2.42,13-4.75,20.15-7.37c7.58,38.07,28.14,66.39,63.51,82.77c23.13,10.71,47.39,12.72,72.17,6.31
			c50.83-13.15,84.9-59.24,82.22-111.97c-2.57-50.63-41.57-99.59-105.89-104.07c1.23-5.97,2.14-11.97,3.88-17.73
			c0.42-1.38,3.67-2.89,5.47-2.71c37.38,3.64,68.16,20.2,90.78,49.97c30.27,39.84,36.8,84.22,17.7,130.45
			c-19.18,46.42-55.03,73.47-105.02,80.38c-67.2,9.29-131.65-36.89-144.95-103.24C379.75,533.6,379.86,532.9,379.86,531.45z"/>
		
			<linearGradient id="SVGID_00000035514753821994919290000013250554574957182081_" gradientUnits="userSpaceOnUse" x1="4.402" y1="507.5311" x2="264.3457" y2="507.5311">
			<stop  offset="0" style="stop-color:#FFFFFF;stop-opacity:0.4"/>
			<stop  offset="0.0691" style="stop-color:#FFFFFF;stop-opacity:0.3435"/>
			<stop  offset="0.4892" style="stop-color:#FFFFFF;stop-opacity:0"/>
			<stop  offset="0.7527" style="stop-color:#FAFAFA;stop-opacity:0.1032"/>
			<stop  offset="1" style="stop-color:#EFEFEF;stop-opacity:0.2"/>
		</linearGradient>
		<path style="fill:url(#SVGID_00000035514753821994919290000013250554574957182081_);" d="M244.18,524.01
			c7.17,2.64,13.71,5.06,20.16,7.44C256.9,583.47,205.88,642,128.51,638.37C57.95,635.06,2.97,574.96,4.43,503.06
			c1.35-66.6,58.55-125.61,123.33-126.53c1.54,6.64,3.11,13.44,4.83,20.84c-34.1,2.23-62.23,15.9-83.25,42.81
			c-16.19,20.73-23.64,44.51-22.91,70.77c1.41,51.1,40.03,95.46,90.49,104.11c19.55,3.35,38.66,1.57,57.22-5.38
			c18.34-6.86,33.74-17.96,46.22-33.05C232.96,561.38,240.53,543.76,244.18,524.01z"/>
		
			<linearGradient id="SVGID_00000064341546341252870730000006744082835674379395_" gradientUnits="userSpaceOnUse" x1="278.4656" y1="342.7342" x2="365.8429" y2="342.7342">
			<stop  offset="0" style="stop-color:#FFFFFF;stop-opacity:0.4"/>
			<stop  offset="0.0691" style="stop-color:#FFFFFF;stop-opacity:0.3435"/>
			<stop  offset="0.4892" style="stop-color:#FFFFFF;stop-opacity:0"/>
			<stop  offset="0.7527" style="stop-color:#FAFAFA;stop-opacity:0.1032"/>
			<stop  offset="1" style="stop-color:#EFEFEF;stop-opacity:0.2"/>
		</linearGradient>
		<path style="fill:url(#SVGID_00000064341546341252870730000006744082835674379395_);" d="M332.81,430.12c-7.32,0-14.1,0-21.45,0
			c0.98-8.74-3.77-13.08-10.93-16.82c-10.45-5.47-17.24-14.44-20.45-26.76c7.18,0,13.76-0.25,20.3,0.16c1.88,0.12,3.94,1.8,5.4,3.28
			c7.69,7.83,17.65,9.72,26.8,4.84c8.52-4.54,13.2-14.44,11.17-23.65c-2.21-10.05-10.32-16.82-20.94-17.49
			c-22.51-1.41-38.76-14.32-43.08-34.21c-4.47-20.56,4.19-38.54,24.22-49.29c6.14-3.3,7.81-8.34,7.48-14.81c7.43,0,14.41,0,21.95,0
			c-1.5,8.85,3.48,12.91,10.37,16.53c10.52,5.52,17.26,14.47,20.78,26.96c-7.29,0-14.03,0.2-20.73-0.14
			c-1.67-0.09-3.51-1.69-4.82-3.04c-7.76-7.98-17.52-9.98-26.71-5.26c-8.6,4.42-13.44,14.23-11.57,23.47
			c2.07,10.25,10.4,17.2,21.37,17.84c21.91,1.28,38.29,14.26,42.7,33.85c4.6,20.47-4.27,38.94-23.81,49.59
			C334.4,418.65,333.56,420.17,332.81,430.12z"/>
	</g>
</g>
</svg>
