<?xml version="1.0" encoding="UTF-8"?>
<svg id="report" xmlns="http://www.w3.org/2000/svg" version="1.1" xmlns:xlink="http://www.w3.org/1999/xlink" viewBox="0 0 640.62 640.62">
  <defs>
    <style>
      .cls-1 {
        fill: #360061;
      }

      .cls-1, .cls-2, .cls-3, .cls-4 {
        stroke-width: 0px;
      }

      .cls-2 {
        fill: url(#linear-gradient);
      }

      .cls-3 {
        fill: #5800b2;
      }

      .cls-4 {
        fill: url(#linear-gradient-2);
      }
    </style>
    <linearGradient id="linear-gradient" x1="299.61" y1="368.52" x2="601.09" y2="368.52" gradientTransform="translate(0 642) scale(1 -1)" gradientUnits="userSpaceOnUse">
      <stop offset="0" stop-color="#fff" stop-opacity=".4"/>
      <stop offset=".07" stop-color="#fff" stop-opacity=".34"/>
      <stop offset=".49" stop-color="#fff" stop-opacity="0"/>
      <stop offset=".75" stop-color="#fafafa" stop-opacity=".1"/>
      <stop offset="1" stop-color="#efefef" stop-opacity=".2"/>
    </linearGradient>
    <linearGradient id="linear-gradient-2" x1="43.29" y1="279.75" x2="402.84" y2="279.75" xlink:href="#linear-gradient"/>
  </defs>
  <path class="cls-3" d="M601.08,293.65c-1.74,9.79-2.8,19.75-5.35,29.33-19,71.39-64.33,117.24-135.08,138.04-10.33,3.04-20.07,1.57-32.12-4,9.32-36.35,9.7-72.98.8-110.16,12.34-3.97,24.46-4.19,36.66-1.53,12.49,2.73,23.33,8.69,32.87,17.24,2.88,2.58,6.4,5.01,10.04,6.04,7.28,2.06,14.57-1.59,18.02-7.93,3.66-6.72,2.51-14.58-3.45-20.47-13.6-13.44-29.76-22.46-48.36-26.93-17.45-4.2-34.88-4.07-52.22.75-1.21.34-2.47.51-4.13.83-11.76-25.1-23.49-50.15-35.31-75.41,5.83-.89,11.24-1.38,16.48-2.6,9.39-2.19,17.48-6.98,24.37-13.7,6.98-6.8,7.44-16.57,1.25-23.48-5.91-6.59-16.1-7.77-22.97-1.33-9.45,8.86-23.04,8.66-33.49.25-6.03-4.85-9.65-10.17-12.67-16.66-5.51-11.83-11.25-23.56-16.58-35.47-3.49-7.81-9.09-12-17.67-12.02-7.39-.03-14.78,0-22.37,0,0-5.46-.52-10.37.12-15.14,1.04-7.73,6.01-12.52,13.26-15.1,24.4-8.68,49.62-13.64,75.29-16.44,40.93-4.48,81.88-4.5,122.83-.08,24.58,2.65,48.71,7.36,72.28,15.1,8.31,2.73,14.55,7.01,17.49,15.45,0,58.47,0,116.94,0,175.4ZM522.61,238.75c14.98-.24,28-5.33,38.73-15.84,6.72-6.59,6.94-16.88.74-23.48-6.09-6.48-15.96-6.95-23.09-1.1-11.73,9.62-20.92,9.65-32.5.1-7.3-6.03-17.38-5.47-23.47,1.31-6.04,6.71-5.52,16.88,1.33,23.45,10.68,10.25,23.52,15.3,38.26,15.56Z"/>
  <path class="cls-2" d="M601.08,293.65c-1.74,9.79-2.8,19.75-5.35,29.33-19,71.39-64.33,117.24-135.08,138.04-10.33,3.04-20.07,1.57-32.12-4,9.32-36.35,9.7-72.98.8-110.16,12.34-3.97,24.46-4.19,36.66-1.53,12.49,2.73,23.33,8.69,32.87,17.24,2.88,2.58,6.4,5.01,10.04,6.04,7.28,2.06,14.57-1.59,18.02-7.93,3.66-6.72,2.51-14.58-3.45-20.47-13.6-13.44-29.76-22.46-48.36-26.93-17.45-4.2-34.88-4.07-52.22.75-1.21.34-2.47.51-4.13.83-11.76-25.1-23.49-50.15-35.31-75.41,5.83-.89,11.24-1.38,16.48-2.6,9.39-2.19,17.48-6.98,24.37-13.7,6.98-6.8,7.44-16.57,1.25-23.48-5.91-6.59-16.1-7.77-22.97-1.33-9.45,8.86-23.04,8.66-33.49.25-6.03-4.85-9.65-10.17-12.67-16.66-5.51-11.83-11.25-23.56-16.58-35.47-3.49-7.81-9.09-12-17.67-12.02-7.39-.03-14.78,0-22.37,0,0-5.46-.52-10.37.12-15.14,1.04-7.73,6.01-12.52,13.26-15.1,24.4-8.68,49.62-13.64,75.29-16.44,40.93-4.48,81.88-4.5,122.83-.08,24.58,2.65,48.71,7.36,72.28,15.1,8.31,2.73,14.55,7.01,17.49,15.45,0,58.47,0,116.94,0,175.4ZM522.61,238.75c14.98-.24,28-5.33,38.73-15.84,6.72-6.59,6.94-16.88.74-23.48-6.09-6.48-15.96-6.95-23.09-1.1-11.73,9.62-20.92,9.65-32.5.1-7.3-6.03-17.38-5.47-23.47,1.31-6.04,6.71-5.52,16.88,1.33,23.45,10.68,10.25,23.52,15.3,38.26,15.56Z"/>
  <path class="cls-1" d="M402.84,397.47c-1.71,60.75-23.57,108.67-67.1,146.66-11.03,9.62-24.37,10.81-37.66,11.84-80.44,6.23-152.34-35.52-186.86-108.41-21.8-46.04-43.29-92.23-64.89-138.36-5.12-10.95-3.92-17.47,4.69-25.92,26.7-26.19,57.89-46,90.83-63.17,39.03-20.34,79.44-37.24,122.62-46.67,10.96-2.39,22.14-3.83,33.29-5.22,10.97-1.37,16.37,1.95,21.13,12.09,20.03,42.67,39.89,85.42,60.12,127.99,9.46,19.91,17.9,40.09,21.02,62.06,1.4,10.04,2.1,20.19,2.81,27.11ZM240.62,476.4c.1-.44.19-.87.29-1.32,43.96,0,84.08-27.59,98.56-67.81,3.49-9.68-.44-19-9.45-22.39-8.73-3.28-18.08.82-21.54,10.29-13.02,35.69-53.79,55.71-90.69,42.52-9.4-3.36-18.76,1.32-21.73,9.97-3.11,9.05,1.43,18.62,11.3,21.38,10.91,3.06,22.17,4.95,33.26,7.35ZM178.8,330.93c-23.25.58-44.06,14.65-52.04,36.05-1.04,2.78-1.62,6.05-1.29,8.96.89,7.69,6.63,13.16,14.22,14.34,7.03,1.1,14.27-2.86,17.42-10.22,2.97-6.92,7.4-12.48,14.76-14,4.73-.98,10.02-.25,14.89.64,9.42,1.73,17.95-2.85,20.5-11.69,2.44-8.47-2.19-17.36-11.1-20.17-5.64-1.77-11.57-2.63-17.37-3.91ZM302.33,272.99c-23.21.6-43.86,14.73-51.94,36.13-3.37,8.91.38,18.25,8.75,21.79,8.51,3.6,17.58-.03,21.79-8.73,6.55-13.53,14.8-17.38,29.47-13.73,9.21,2.29,18.05-2.55,20.61-11.3,2.57-8.79-2.09-17.81-11.23-20.56-5.66-1.7-11.62-2.43-17.45-3.59Z"/>
  <path class="cls-4" d="M402.84,397.47c-1.71,60.75-23.57,108.67-67.1,146.66-11.03,9.62-24.37,10.81-37.66,11.84-80.44,6.23-152.34-35.52-186.86-108.41-21.8-46.04-43.29-92.23-64.89-138.36-5.12-10.95-3.92-17.47,4.69-25.92,26.7-26.19,57.89-46,90.83-63.17,39.03-20.34,79.44-37.24,122.62-46.67,10.96-2.39,22.14-3.83,33.29-5.22,10.97-1.37,16.37,1.95,21.13,12.09,20.03,42.67,39.89,85.42,60.12,127.99,9.46,19.91,17.9,40.09,21.02,62.06,1.4,10.04,2.1,20.19,2.81,27.11ZM240.62,476.4c.1-.44.19-.87.29-1.32,43.96,0,84.08-27.59,98.56-67.81,3.49-9.68-.44-19-9.45-22.39-8.73-3.28-18.08.82-21.54,10.29-13.02,35.69-53.79,55.71-90.69,42.52-9.4-3.36-18.76,1.32-21.73,9.97-3.11,9.05,1.43,18.62,11.3,21.38,10.91,3.06,22.17,4.95,33.26,7.35ZM178.8,330.93c-23.25.58-44.06,14.65-52.04,36.05-1.04,2.78-1.62,6.05-1.29,8.96.89,7.69,6.63,13.16,14.22,14.34,7.03,1.1,14.27-2.86,17.42-10.22,2.97-6.92,7.4-12.48,14.76-14,4.73-.98,10.02-.25,14.89.64,9.42,1.73,17.95-2.85,20.5-11.69,2.44-8.47-2.19-17.36-11.1-20.17-5.64-1.77-11.57-2.63-17.37-3.91ZM302.33,272.99c-23.21.6-43.86,14.73-51.94,36.13-3.37,8.91.38,18.25,8.75,21.79,8.51,3.6,17.58-.03,21.79-8.73,6.55-13.53,14.8-17.38,29.47-13.73,9.21,2.29,18.05-2.55,20.61-11.3,2.57-8.79-2.09-17.81-11.23-20.56-5.66-1.7-11.62-2.43-17.45-3.59Z"/>
</svg>