<?xml version="1.0" encoding="UTF-8"?>
<svg id="report" xmlns="http://www.w3.org/2000/svg" version="1.1" xmlns:xlink="http://www.w3.org/1999/xlink" viewBox="0 0 640.6 640.6">
  <defs>
    <style>
      .cls-1 {
        fill: #360061;
      }

      .cls-1, .cls-2, .cls-3, .cls-4, .cls-5, .cls-6, .cls-7 {
        stroke-width: 0px;
      }

      .cls-2 {
        fill: url(#linear-gradient);
      }

      .cls-3 {
        fill: url(#linear-gradient-5);
      }

      .cls-4 {
        fill: #5800b2;
      }

      .cls-5 {
        fill: url(#linear-gradient-2);
      }

      .cls-6 {
        fill: url(#linear-gradient-3);
      }

      .cls-7 {
        fill: url(#linear-gradient-4);
      }
    </style>
    <linearGradient id="linear-gradient" x1="-51.6" y1="161.2" x2="312.8" y2="597.6" gradientUnits="userSpaceOnUse">
      <stop offset="0" stop-color="#fff" stop-opacity=".4"/>
      <stop offset="0" stop-color="#fff" stop-opacity=".3"/>
      <stop offset=".5" stop-color="#fff" stop-opacity="0"/>
      <stop offset=".8" stop-color="#fafafa" stop-opacity=".1"/>
      <stop offset="1" stop-color="#efefef" stop-opacity=".2"/>
    </linearGradient>
    <linearGradient id="linear-gradient-2" x1="-41.3" y1="152.5" x2="323.1" y2="588.9" xlink:href="#linear-gradient"/>
    <linearGradient id="linear-gradient-3" x1="169.9" y1="-23.8" x2="534.3" y2="412.6" xlink:href="#linear-gradient"/>
    <linearGradient id="linear-gradient-4" x1="89.5" y1="43.4" x2="453.9" y2="479.7" xlink:href="#linear-gradient"/>
    <linearGradient id="linear-gradient-5" x1="87.7" y1="44.9" x2="452.1" y2="481.3" xlink:href="#linear-gradient"/>
  </defs>
  <g>
    <path class="cls-1" d="M304.2,579.6c-9.3-1.3-18.7-2.4-27.9-4-46.5-7.9-87.5-27.5-123.4-57.9-5-4.2-9.8-8.7-14.5-13.3-14.2-13.9-14.8-35-1.5-49,13.2-14,34.7-14.7,49-1,22,21.1,47,37.1,76,46.7,19.7,6.5,40,9.1,60.7,9.6,14.6.4,27.2,10.5,31.3,24.5,5.3,18.3-4.9,37.3-23.1,42.9-1.4.4-2.8,1-4.2,1.5h-22.3Z"/>
    <path class="cls-1" d="M61.1,310.1c1-9.3,2-18.7,3.1-28,2.2-17.9,16-31,33.3-31.6,16.8-.6,32,10.9,34.9,27.7,1.2,7-.6,14.4-.5,21.6.1,16.1-.4,32.4,1.1,48.4,1.8,18.7-7,34.9-24,40.2-16.3,5.1-34.3-2.3-41.1-17.9-2.8-6.3-3.5-13.6-4.7-20.5-1.1-6.4-1.4-13-2.1-19.5,0-6.8,0-13.5,0-20.3Z"/>
    <path class="cls-1" d="M579.5,332.5c-1.8,76.9-36.6,145.5-105.1,196.6-13.4,10-29,10.2-41.4,1.1-12.3-9.1-17.7-24.8-13.3-38.6,3-9.1,9.6-15.1,17-20.8,34.8-26.7,58.1-61.1,68.5-103.9,23-94.7-30.8-195.4-121-226.4-21-7.2-42.6-10-64.6-10.7-14.4-.5-25.1-7.3-30.7-21-9.4-23.3,6.5-47.9,31.6-47.8,73.9.3,137.3,26,187.8,80.5,46.3,50,70.8,114.6,71.1,190.9Z"/>
    <path class="cls-4" d="M355.3,285.7c17.9,0,34.9-.1,52,0,17.5.2,31.2,12.1,34,29.4,3.3,19.9-12.2,39-32.4,39.5-15.7.4-31.4.1-47.1.1-1.8,0-3.7,0-6.1,0-.1,2-.3,3.8-.3,5.5,0,15,.2,30.1,0,45.1-.5,27.1-25.2,43.4-49.3,32.5-13.9-6.3-19.6-18-19.8-32.6-.2-16.5,0-33.1,0-50.4-2,0-3.8,0-5.6,0-15.5,0-31.1.2-46.6,0-24.3-.5-39.8-23-32.1-46.1,4.6-13.7,16.7-22.5,32-22.8,15.4-.2,30.7,0,46.1,0,1.8,0,3.6,0,6.1,0,0-2.6,0-4.7,0-6.8.2-16.9-.6-33.8,1-50.6,1.8-18.4,16.9-29.5,36-28.7,17.2.7,30.9,13.7,31.8,31.4.8,16,.3,32.1.4,48.1,0,2,0,4,0,6.6Z"/>
    <path class="cls-1" d="M223.3,137.4c-.2,12.4-4.9,20.9-12.8,27.7-8.7,7.5-17.4,14.9-26.1,22.3-14.7,12.3-34.3,11.3-47.4-2.4-13-13.5-13.7-33.4-.4-46.9,10.1-10.3,21.3-19.6,33-28.2,10.6-7.8,22.9-8.7,34.9-2.2,12.2,6.7,18.2,17.5,18.9,29.6Z"/>
  </g>
  <g>
    <path class="cls-2" d="M304.2,579.6c-9.3-1.3-18.7-2.4-27.9-4-46.5-7.9-87.5-27.5-123.4-57.9-5-4.2-9.8-8.7-14.5-13.3-14.2-13.9-14.8-35-1.5-49,13.2-14,34.7-14.7,49-1,22,21.1,47,37.1,76,46.7,19.7,6.5,40,9.1,60.7,9.6,14.6.4,27.2,10.5,31.3,24.5,5.3,18.3-4.9,37.3-23.1,42.9-1.4.4-2.8,1-4.2,1.5h-22.3Z"/>
    <path class="cls-5" d="M61.1,310.1c1-9.3,2-18.7,3.1-28,2.2-17.9,16-31,33.3-31.6,16.8-.6,32,10.9,34.9,27.7,1.2,7-.6,14.4-.5,21.6.1,16.1-.4,32.4,1.1,48.4,1.8,18.7-7,34.9-24,40.2-16.3,5.1-34.3-2.3-41.1-17.9-2.8-6.3-3.5-13.6-4.7-20.5-1.1-6.4-1.4-13-2.1-19.5,0-6.8,0-13.5,0-20.3Z"/>
    <path class="cls-6" d="M579.5,332.5c-1.8,76.9-36.6,145.5-105.1,196.6-13.4,10-29,10.2-41.4,1.1-12.3-9.1-17.7-24.8-13.3-38.6,3-9.1,9.6-15.1,17-20.8,34.8-26.7,58.1-61.1,68.5-103.9,23-94.7-30.8-195.4-121-226.4-21-7.2-42.6-10-64.6-10.7-14.4-.5-25.1-7.3-30.7-21-9.4-23.3,6.5-47.9,31.6-47.8,73.9.3,137.3,26,187.8,80.5,46.3,50,70.8,114.6,71.1,190.9Z"/>
    <path class="cls-7" d="M355.3,285.7c17.9,0,34.9-.1,52,0,17.5.2,31.2,12.1,34,29.4,3.3,19.9-12.2,39-32.4,39.5-15.7.4-31.4.1-47.1.1-1.8,0-3.7,0-6.1,0-.1,2-.3,3.8-.3,5.5,0,15,.2,30.1,0,45.1-.5,27.1-25.2,43.4-49.3,32.5-13.9-6.3-19.6-18-19.8-32.6-.2-16.5,0-33.1,0-50.4-2,0-3.8,0-5.6,0-15.5,0-31.1.2-46.6,0-24.3-.5-39.8-23-32.1-46.1,4.6-13.7,16.7-22.5,32-22.8,15.4-.2,30.7,0,46.1,0,1.8,0,3.6,0,6.1,0,0-2.6,0-4.7,0-6.8.2-16.9-.6-33.8,1-50.6,1.8-18.4,16.9-29.5,36-28.7,17.2.7,30.9,13.7,31.8,31.4.8,16,.3,32.1.4,48.1,0,2,0,4,0,6.6Z"/>
    <path class="cls-3" d="M223.3,137.4c-.2,12.4-4.9,20.9-12.8,27.7-8.7,7.5-17.4,14.9-26.1,22.3-14.7,12.3-34.3,11.3-47.4-2.4-13-13.5-13.7-33.4-.4-46.9,10.1-10.3,21.3-19.6,33-28.2,10.6-7.8,22.9-8.7,34.9-2.2,12.2,6.7,18.2,17.5,18.9,29.6Z"/>
  </g>
</svg>