<?xml version="1.0" encoding="UTF-8"?>
<svg id="report" xmlns="http://www.w3.org/2000/svg" version="1.1" xmlns:xlink="http://www.w3.org/1999/xlink" viewBox="0 0 640.6 640.6">
  <defs>
    <style>
      .cls-1 {
        fill: #360061;
      }

      .cls-1, .cls-2, .cls-3, .cls-4, .cls-5 {
        stroke-width: 0px;
      }

      .cls-2 {
        fill: url(#linear-gradient);
      }

      .cls-3 {
        fill: #5800b2;
      }

      .cls-4 {
        fill: url(#linear-gradient-2);
      }

      .cls-5 {
        fill: url(#linear-gradient-3);
      }
    </style>
    <linearGradient id="linear-gradient" x1="81.2" y1="96.9" x2="360.1" y2="358.1" gradientUnits="userSpaceOnUse">
      <stop offset="0" stop-color="#fff" stop-opacity=".4"/>
      <stop offset="0" stop-color="#fff" stop-opacity=".3"/>
      <stop offset=".5" stop-color="#fff" stop-opacity="0"/>
      <stop offset=".8" stop-color="#fafafa" stop-opacity=".1"/>
      <stop offset="1" stop-color="#efefef" stop-opacity=".2"/>
    </linearGradient>
    <linearGradient id="linear-gradient-2" x1="-19.4" y1="204.3" x2="259.5" y2="465.5" xlink:href="#linear-gradient"/>
    <linearGradient id="linear-gradient-3" x1="177.1" y1="-5.5" x2="456" y2="255.7" xlink:href="#linear-gradient"/>
  </defs>
  <g>
    <path class="cls-3" d="M49.4,294.9c24.7-45.9,49.3-91.8,74-137.7,5.8-10.7,11.4-21.5,17.2-32.1,5.4-10,14.2-12.5,24-6.9,12.4,7.1,24.7,14.2,37.5,21.6-9.8,8.2-17.3,17.6-22,29.1-11.4,27.8-4.4,59.9,17.7,80,22.3,20.4,55.2,25,81.6,10.3,31-17.2,61.5-35.2,92.1-53,3.2-1.9,5.6-2.2,9-.2,61,35.4,122,70.6,183.1,105.9,13.7,7.9,20.4,19.8,19,35.6-1.3,14.5-11.6,26.8-25.8,30.2-6.5,1.6-13.4,1-19.4,1.4,2.9,1.7,7,4.1,11.1,6.7,13,8.3,19.1,22.5,16.3,37.4-2.6,13.9-13.9,25.1-28.4,28-8.8,1.8-17.2.1-25-4.4-3.3-1.9-6.7-3.8-10.6-5.2.8.9,1.5,1.9,2.3,2.8,11.1,13.5,11.1,32.4.1,45.8-10.7,13.1-29.3,16.7-44.6,8.5-7.1-3.8-14-7.9-21.2-11.6,8.2,9.5,12.4,20,10.2,32.5-4.1,23.4-29.3,36.3-50.8,25.9-2.1-1-4-2.2-6-3.3-12.7-7.3-25.3-14.6-38.4-22.2.9-1.7,1.6-3.2,2.5-4.7,5.5-9.6,11.1-19.2,16.6-28.9,22.2-39.3,3.7-85.8-39.2-99.4-1.8-.6-3.9-2.9-4.4-4.8-6.6-24.7-22-40.9-46.2-48.8-3.3-1.1-4.7-2.6-5.5-5.9-9.5-37.6-47.2-59.1-84.5-48.2-3,.9-4.7.4-6.9-1.7-31.8-29.9-81.8-23-104.4,14.4-5,8.3-9.7,16.7-14.7,25.4-7.2-2.7-13-6.8-16.4-13.8,0-2.8,0-5.6,0-8.5Z"/>
    <path class="cls-1" d="M190,451.2c-16.9,17-34.6,14.6-45.8,8.2-14.9-8.6-20.2-23.2-15.8-44.6-7.7,8.6-16.7,13.5-28,13.6-26.5.2-44.6-27.7-32.2-51.1,12.8-24.1,26.7-47.6,40.9-71,8.7-14.4,27.4-19.5,42.9-13.1,15.6,6.4,24.5,22.6,21.6,39.4-.2,1-.2,2,.4,3.4,1.8-3.1,3.7-6.2,5.5-9.3,10.8-18.1,31.8-24,49.3-13.9,17.4,10.1,22.8,31.3,12.6,49.7-1.9,3.3-3.8,6.6-5.3,10.2,7.1-6.3,15.2-10.2,24.6-10.6,9.4-.4,18.2,2,24.7,8.7,4.6,4.8,8.3,10.9,11,17,2.9,6.6,2.6,13.9-.2,20.7-2.6,6.3-5.9,12.3-9.4,19.2,6.8-6.2,13.9-10.4,22.6-11.3,13.6-1.3,24.7,3.3,32.8,14.2,8.1,10.9,10,23.5,3.8,35.5-9.8,18.7-20.3,37.1-31.7,54.9-9,14.1-28.1,18.4-43.4,11.4-15.4-7.1-23.6-23.7-20-40.3.3-1.3.5-2.6,1-4.9-14.6,13.7-30.1,17-46.9,7.1-14.1-8.3-18.7-22.2-14.9-43.1Z"/>
    <path class="cls-1" d="M341.5,103.5c6.8,1.6,13.9,2.5,20.5,4.8,15.5,5.3,30.8,11.1,46.1,16.9,3.8,1.5,6.7,1.3,10.3-.8,16.8-10,33.8-19.7,50.8-29.4,10.4-6,18.8-3.8,24.9,6.7,31.2,53.2,62.5,106.4,93.7,159.6,5,8.5,4.6,15.3-.8,21.4-2.6,3-4.8,3.4-8.5,1.3-39.3-22.9-78.7-45.6-118-68.3-22-12.7-44-25.3-65.9-38.1-12.3-7.2-24.2-7.2-36.5,0-30.3,17.6-60.7,35.2-91.1,52.6-16.4,9.4-35.1,7.3-48-4.9-19.6-18.6-15.8-49.6,7.9-63.5,28.1-16.5,56.3-32.9,84.8-48.8,6.5-3.6,14-5.3,21.2-7.6,2.6-.8,5.6-.7,8.4-1,0-.2.2-.5.2-.7Z"/>
  </g>
  <g>
    <path class="cls-2" d="M49.4,294.9c24.7-45.9,49.3-91.8,74-137.7,5.8-10.7,11.4-21.5,17.2-32.1,5.4-10,14.2-12.5,24-6.9,12.4,7.1,24.7,14.2,37.5,21.6-9.8,8.2-17.3,17.6-22,29.1-11.4,27.8-4.4,59.9,17.7,80,22.3,20.4,55.2,25,81.6,10.3,31-17.2,61.5-35.2,92.1-53,3.2-1.9,5.6-2.2,9-.2,61,35.4,122,70.6,183.1,105.9,13.7,7.9,20.4,19.8,19,35.6-1.3,14.5-11.6,26.8-25.8,30.2-6.5,1.6-13.4,1-19.4,1.4,2.9,1.7,7,4.1,11.1,6.7,13,8.3,19.1,22.5,16.3,37.4-2.6,13.9-13.9,25.1-28.4,28-8.8,1.8-17.2.1-25-4.4-3.3-1.9-6.7-3.8-10.6-5.2.8.9,1.5,1.9,2.3,2.8,11.1,13.5,11.1,32.4.1,45.8-10.7,13.1-29.3,16.7-44.6,8.5-7.1-3.8-14-7.9-21.2-11.6,8.2,9.5,12.4,20,10.2,32.5-4.1,23.4-29.3,36.3-50.8,25.9-2.1-1-4-2.2-6-3.3-12.7-7.3-25.3-14.6-38.4-22.2.9-1.7,1.6-3.2,2.5-4.7,5.5-9.6,11.1-19.2,16.6-28.9,22.2-39.3,3.7-85.8-39.2-99.4-1.8-.6-3.9-2.9-4.4-4.8-6.6-24.7-22-40.9-46.2-48.8-3.3-1.1-4.7-2.6-5.5-5.9-9.5-37.6-47.2-59.1-84.5-48.2-3,.9-4.7.4-6.9-1.7-31.8-29.9-81.8-23-104.4,14.4-5,8.3-9.7,16.7-14.7,25.4-7.2-2.7-13-6.8-16.4-13.8,0-2.8,0-5.6,0-8.5Z"/>
    <path class="cls-4" d="M190,451.2c-16.9,17-34.6,14.6-45.8,8.2-14.9-8.6-20.2-23.2-15.8-44.6-7.7,8.6-16.7,13.5-28,13.6-26.5.2-44.6-27.7-32.2-51.1,12.8-24.1,26.7-47.6,40.9-71,8.7-14.4,27.4-19.5,42.9-13.1,15.6,6.4,24.5,22.6,21.6,39.4-.2,1-.2,2,.4,3.4,1.8-3.1,3.7-6.2,5.5-9.3,10.8-18.1,31.8-24,49.3-13.9,17.4,10.1,22.8,31.3,12.6,49.7-1.9,3.3-3.8,6.6-5.3,10.2,7.1-6.3,15.2-10.2,24.6-10.6,9.4-.4,18.2,2,24.7,8.7,4.6,4.8,8.3,10.9,11,17,2.9,6.6,2.6,13.9-.2,20.7-2.6,6.3-5.9,12.3-9.4,19.2,6.8-6.2,13.9-10.4,22.6-11.3,13.6-1.3,24.7,3.3,32.8,14.2,8.1,10.9,10,23.5,3.8,35.5-9.8,18.7-20.3,37.1-31.7,54.9-9,14.1-28.1,18.4-43.4,11.4-15.4-7.1-23.6-23.7-20-40.3.3-1.3.5-2.6,1-4.9-14.6,13.7-30.1,17-46.9,7.1-14.1-8.3-18.7-22.2-14.9-43.1Z"/>
    <path class="cls-5" d="M341.5,103.5c6.8,1.6,13.9,2.5,20.5,4.8,15.5,5.3,30.8,11.1,46.1,16.9,3.8,1.5,6.7,1.3,10.3-.8,16.8-10,33.8-19.7,50.8-29.4,10.4-6,18.8-3.8,24.9,6.7,31.2,53.2,62.5,106.4,93.7,159.6,5,8.5,4.6,15.3-.8,21.4-2.6,3-4.8,3.4-8.5,1.3-39.3-22.9-78.7-45.6-118-68.3-22-12.7-44-25.3-65.9-38.1-12.3-7.2-24.2-7.2-36.5,0-30.3,17.6-60.7,35.2-91.1,52.6-16.4,9.4-35.1,7.3-48-4.9-19.6-18.6-15.8-49.6,7.9-63.5,28.1-16.5,56.3-32.9,84.8-48.8,6.5-3.6,14-5.3,21.2-7.6,2.6-.8,5.6-.7,8.4-1,0-.2.2-.5.2-.7Z"/>
  </g>
</svg>