<?xml version="1.0" encoding="UTF-8"?>
<svg id="Layer_1" data-name="Layer 1" xmlns="http://www.w3.org/2000/svg" version="1.1" viewBox="0 0 45 45">
  <defs>
    <style>
      .cls-1 {
        fill: #11ab44;
      }

      .cls-1, .cls-2, .cls-3, .cls-4, .cls-5, .cls-6 {
        stroke-width: 0px;
      }

      .cls-2 {
        fill: #000;
      }

      .cls-3 {
        fill: #ef1b41;
      }

      .cls-4 {
        fill: #675fcd;
      }

      .cls-5 {
        fill: #face00;
      }

      .cls-6 {
        fill: #f6761e;
      }
    </style>
  </defs>
  <path class="cls-2" d="M27.7,14.86c-.08-1.11-.35-2.18-.78-3.2-.61-1.44-1.47-2.69-2.65-3.72-1.24-1.06-2.67-1.72-4.29-1.98-1.22-.2-2.45-.16-3.66.08-.96.2-1.86.54-2.69,1.05-1.51.94-2.57,2.27-3.34,3.85-.45.92-.77,1.9-.99,2.9-.11.52-.22,1.03-.22,1.56,0,1.86.02,3.72.02,5.57,0,2.58,0,5.15,0,7.73s.01,5,.01,7.5v.45h4.33v-11.96c.55.54,1.08,1.04,1.6,1.55.05-.01.09-.03.13-.04.52-.19,1.04-.38,1.56-.57,1.52-.56,3.04-1.12,4.55-1.68.41-.15.83-.28,1.22-.47,1.15-.54,2.15-1.28,3.01-2.22,1.66-1.81,2.36-3.96,2.18-6.4ZM22.96,17.09c-.48,1.33-1.41,2.26-2.72,2.78-1.66.67-3.32,1.31-4.98,1.97-.54.21-1.09.42-1.63.64-.04.01-.08.02-.13.04-.01-.08-.01-.13-.01-.19,0-2.56,0-5.11,0-7.67,0-.24.07-.48.13-.72.2-.77.53-1.48,1.03-2.1.69-.87,1.58-1.4,2.68-1.58.9-.15,1.79-.1,2.65.2,1.13.4,1.98,1.13,2.56,2.16.79,1.43.97,2.93.42,4.47Z"/>
  <path class="cls-6" d="M35.91,18.49c.01,1.29-1.03,2.33-2.29,2.33s-2.28-1.05-2.27-2.35c0-1.31,1.08-2.32,2.29-2.29,1.2-.01,2.26.98,2.27,2.31Z"/>
  <path class="cls-3" d="M35.91,24.07c.01,1.29-1.03,2.33-2.29,2.33s-2.28-1.05-2.27-2.35c0-1.31,1.08-2.32,2.29-2.29,1.2-.01,2.26.98,2.27,2.31Z"/>
  <path class="cls-4" d="M35.91,29.65c.01,1.29-1.03,2.33-2.29,2.33s-2.28-1.05-2.27-2.35c0-1.31,1.08-2.32,2.29-2.29,1.2-.01,2.26.98,2.27,2.31Z"/>
  <path class="cls-5" d="M35.03,14.26c-.34.27-.73.43-1.16.48-1.27.14-2.31-.8-2.48-1.93-.02-.12-.02-.25-.03-.37,0-1.04.72-2,1.76-2.25.99-.23,2.04.26,2.51,1.16.49.95.3,2.2-.6,2.91Z"/>
  <path class="cls-1" d="M35.89,36.84c0,1.14-.8,2.1-1.92,2.29-.59.1-1.12-.05-1.61-.37-.75-.5-1.15-1.5-.95-2.38.22-.92.78-1.53,1.71-1.77.88-.24,1.81.16,2.33.88.29.4.44.85.44,1.35Z"/>
</svg>