<?xml version="1.0" encoding="UTF-8"?>
<svg id="report" xmlns="http://www.w3.org/2000/svg" version="1.1" xmlns:xlink="http://www.w3.org/1999/xlink" viewBox="0 0 640.62 640.62">
  <defs>
    <style>
      .cls-1 {
        fill: #360061;
      }

      .cls-1, .cls-2, .cls-3, .cls-4, .cls-5, .cls-6, .cls-7, .cls-8 {
        stroke-width: 0px;
      }

      .cls-2 {
        fill: url(#linear-gradient);
      }

      .cls-3 {
        fill: url(#linear-gradient-6);
      }

      .cls-4 {
        fill: url(#linear-gradient-5);
      }

      .cls-5 {
        fill: #5800b2;
      }

      .cls-6 {
        fill: url(#linear-gradient-2);
      }

      .cls-7 {
        fill: url(#linear-gradient-3);
      }

      .cls-8 {
        fill: url(#linear-gradient-4);
      }
    </style>
    <linearGradient id="linear-gradient" x1="-2.07" y1="514.9" x2="709.86" y2="98.69" gradientUnits="userSpaceOnUse">
      <stop offset="0" stop-color="#fff" stop-opacity=".4"/>
      <stop offset=".07" stop-color="#fff" stop-opacity=".34"/>
      <stop offset=".49" stop-color="#fff" stop-opacity="0"/>
      <stop offset=".75" stop-color="#fafafa" stop-opacity=".1"/>
      <stop offset="1" stop-color="#efefef" stop-opacity=".2"/>
    </linearGradient>
    <linearGradient id="linear-gradient-2" x1="82.23" y1="659.09" x2="794.16" y2="242.89" xlink:href="#linear-gradient"/>
    <linearGradient id="linear-gradient-3" x1="-.64" y1="517.33" x2="711.28" y2="101.13" xlink:href="#linear-gradient"/>
    <linearGradient id="linear-gradient-4" x1="-25.85" y1="474.22" x2="686.08" y2="58.02" xlink:href="#linear-gradient"/>
    <linearGradient id="linear-gradient-5" x1="31.69" y1="572.65" x2="743.62" y2="156.44" xlink:href="#linear-gradient"/>
    <linearGradient id="linear-gradient-6" x1="71.93" y1="641.46" x2="783.85" y2="225.26" xlink:href="#linear-gradient"/>
  </defs>
  <g>
    <path class="cls-1" d="M403.03,310.71v-5.02c0-38.39-.09-76.79.02-115.18.14-49.09,36.31-88.58,85.27-93.31,46.7-4.51,89.87,28.23,99.27,75.43.98,4.92,1.56,10,1.58,15,.14,39.94.09,79.89.09,119.83,0,.95-.1,1.9-.17,3.24h-186.05Z"/>
    <path class="cls-5" d="M403.03,329.99h185.89c.11,1.66.33,3.32.33,4.98.02,38.58.23,77.16-.04,115.73-.37,52.91-42.82,94.42-95.57,92.99-29.83-.81-53.96-13.75-72.23-37.5-2.14-2.79-2.49-4.97-1.04-8.34,18.05-41.97,13.07-81.16-14.58-117.53-1.31-1.73-2.6-4.04-2.63-6.1-.23-14.53-.12-29.06-.12-44.24Z"/>
    <path class="cls-1" d="M161.5,298.26c25.8,25.75,50.88,50.77,75.14,74.99-6.65,11.25-14.5,21.98-19.72,33.87-13.52,30.78-12.45,61.82,1.91,92.22,1.8,3.82,1.34,5.86-1.47,8.9-16.04,17.37-35.07,28.86-58.74,32.67-49.21,7.93-98.28-27.24-105.99-76.51-5.05-32.29,3.9-60.18,27.07-83.37,26.18-26.21,52.42-52.36,78.59-78.57,1.36-1.37,2.37-3.09,3.2-4.2Z"/>
    <path class="cls-5" d="M252.46,360.98c-25.38-25.46-50.57-50.73-76.04-76.27.47-.55,1.12-1.43,1.88-2.2,27.75-27.93,55.38-56,83.31-83.75,32.24-32.03,80.82-36.87,117.91-12.27,3.63,2.41,5.01,4.96,5,9.4-.18,46.55-.11,93.11-.11,139.66,0,4.47-7.02,14.9-11.19,16.3-.92.31-2.27-.04-3.22-.49-40.93-19.54-79.93-15.44-117.53,9.62Z"/>
    <path class="cls-1" d="M376.93,378.42c-43.28,43.28-86.58,86.58-129.88,129.88-22.77-22.68-33.55-78.2,2.32-118.82,37.55-42.53,97.44-38.36,127.56-11.05Z"/>
    <path class="cls-5" d="M261.17,523.21c43.55-43.54,86.85-86.84,130.15-130.14,22.96,23.58,33.07,77.5-1.18,117.82-34.53,40.66-93.13,42.37-128.98,12.32Z"/>
  </g>
  <g>
    <path class="cls-2" d="M403.03,310.71v-5.02c0-38.39-.09-76.79.02-115.18.14-49.09,36.31-88.58,85.27-93.31,46.7-4.51,89.87,28.23,99.27,75.43.98,4.92,1.56,10,1.58,15,.14,39.94.09,79.89.09,119.83,0,.95-.1,1.9-.17,3.24h-186.05Z"/>
    <path class="cls-6" d="M403.03,329.99h185.89c.11,1.66.33,3.32.33,4.98.02,38.58.23,77.16-.04,115.73-.37,52.91-42.82,94.42-95.57,92.99-29.83-.81-53.96-13.75-72.23-37.5-2.14-2.79-2.49-4.97-1.04-8.34,18.05-41.97,13.07-81.16-14.58-117.53-1.31-1.73-2.6-4.04-2.63-6.1-.23-14.53-.12-29.06-.12-44.24Z"/>
    <path class="cls-7" d="M161.5,298.26c25.8,25.75,50.88,50.77,75.14,74.99-6.65,11.25-14.5,21.98-19.72,33.87-13.52,30.78-12.45,61.82,1.91,92.22,1.8,3.82,1.34,5.86-1.47,8.9-16.04,17.37-35.07,28.86-58.74,32.67-49.21,7.93-98.28-27.24-105.99-76.51-5.05-32.29,3.9-60.18,27.07-83.37,26.18-26.21,52.42-52.36,78.59-78.57,1.36-1.37,2.37-3.09,3.2-4.2Z"/>
    <path class="cls-8" d="M252.46,360.98c-25.38-25.46-50.57-50.73-76.04-76.27.47-.55,1.12-1.43,1.88-2.2,27.75-27.93,55.38-56,83.31-83.75,32.24-32.03,80.82-36.87,117.91-12.27,3.63,2.41,5.01,4.96,5,9.4-.18,46.55-.11,93.11-.11,139.66,0,4.47-7.02,14.9-11.19,16.3-.92.31-2.27-.04-3.22-.49-40.93-19.54-79.93-15.44-117.53,9.62Z"/>
    <path class="cls-4" d="M376.93,378.42c-43.28,43.28-86.58,86.58-129.88,129.88-22.77-22.68-33.55-78.2,2.32-118.82,37.55-42.53,97.44-38.36,127.56-11.05Z"/>
    <path class="cls-3" d="M261.17,523.21c43.55-43.54,86.85-86.84,130.15-130.14,22.96,23.58,33.07,77.5-1.18,117.82-34.53,40.66-93.13,42.37-128.98,12.32Z"/>
  </g>
</svg>