<svg xmlns="http://www.w3.org/2000/svg" data-name="Layer 1" viewBox="0 0 24 24"><path fill="#fff" d="M9.879 21.364a2.98 2.98 0 0 1-2.121-.879h-.001l-4.242-4.243a2.999 2.999 0 0 1 0-4.242L12 3.515a3.074 3.074 0 0 1 4.243 0l4.242 4.243a2.999 2.999 0 0 1 0 4.242L12 20.485a2.982 2.982 0 0 1-2.121.88Z" class="colorb2b1ff svgShape"/><path fill="#b1b1b1" d="M3.515 8.758a1 1 0 0 1-.707-1.707L7.05 2.808a1 1 0 0 1 1.414 1.414L4.222 8.465a.997.997 0 0 1-.707.293zm12.727 12.727a1 1 0 0 1-.707-1.707l4.243-4.243a1 1 0 0 1 1.414 1.414l-4.243 4.243a.997.997 0 0 1-.707.293z" class="color6563ff svgShape"/><circle cx="9.172" cy="14.828" r="1" fill="#b1b1b1" class="color6563ff svgShape"/></svg>