<?xml version="1.0" encoding="UTF-8"?>
<svg id="report" xmlns="http://www.w3.org/2000/svg" version="1.1" xmlns:xlink="http://www.w3.org/1999/xlink" viewBox="0 0 640.62 640.62">
  <defs>
    <style>
      .cls-1 {
        fill: #360061;
      }

      .cls-1, .cls-2, .cls-3, .cls-4, .cls-5, .cls-6, .cls-7, .cls-8 {
        stroke-width: 0px;
      }

      .cls-2 {
        fill: url(#linear-gradient-6);
      }

      .cls-3 {
        fill: url(#linear-gradient-2);
      }

      .cls-3, .cls-6, .cls-7 {
        display: none;
      }

      .cls-4 {
        fill: url(#linear-gradient-5);
      }

      .cls-5 {
        fill: #5800b2;
      }

      .cls-6 {
        fill: url(#linear-gradient-3);
      }

      .cls-7 {
        fill: url(#linear-gradient);
      }

      .cls-8 {
        fill: url(#linear-gradient-4);
      }
    </style>
    <linearGradient id="linear-gradient" x1="290.95" y1="321.69" x2="360.95" y2="321.69" gradientTransform="translate(0 642) scale(1 -1)" gradientUnits="userSpaceOnUse">
      <stop offset="0" stop-color="#fff" stop-opacity=".4"/>
      <stop offset=".07" stop-color="#fff" stop-opacity=".34"/>
      <stop offset=".49" stop-color="#fff" stop-opacity="0"/>
      <stop offset=".75" stop-color="#fafafa" stop-opacity=".1"/>
      <stop offset="1" stop-color="#efefef" stop-opacity=".2"/>
    </linearGradient>
    <linearGradient id="linear-gradient-2" x1="234.72" y1="321.72" x2="275.41" y2="321.72" gradientTransform="translate(0 642) scale(1 -1)" gradientUnits="userSpaceOnUse">
      <stop offset="0" stop-color="#fff" stop-opacity=".4"/>
      <stop offset=".07" stop-color="#fff" stop-opacity=".34"/>
      <stop offset=".49" stop-color="#fff" stop-opacity="0"/>
      <stop offset=".75" stop-color="#fafafa" stop-opacity=".1"/>
      <stop offset="1" stop-color="#efefef" stop-opacity=".2"/>
    </linearGradient>
    <linearGradient id="linear-gradient-3" x1="377.1" y1="321.82" x2="405.98" y2="321.82" gradientTransform="translate(0 642) scale(1 -1)" gradientUnits="userSpaceOnUse">
      <stop offset="0" stop-color="#fff" stop-opacity=".4"/>
      <stop offset=".07" stop-color="#fff" stop-opacity=".34"/>
      <stop offset=".49" stop-color="#fff" stop-opacity="0"/>
      <stop offset=".75" stop-color="#fafafa" stop-opacity=".1"/>
      <stop offset="1" stop-color="#efefef" stop-opacity=".2"/>
    </linearGradient>
    <linearGradient id="linear-gradient-4" x1="55.41" y1="64.82" x2="484.8" y2="600.67" gradientUnits="userSpaceOnUse">
      <stop offset="0" stop-color="#fff" stop-opacity=".4"/>
      <stop offset=".07" stop-color="#fff" stop-opacity=".34"/>
      <stop offset=".49" stop-color="#fff" stop-opacity="0"/>
      <stop offset=".75" stop-color="#fafafa" stop-opacity=".1"/>
      <stop offset="1" stop-color="#efefef" stop-opacity=".2"/>
    </linearGradient>
    <linearGradient id="linear-gradient-5" x1="277.96" y1="-113.51" x2="707.34" y2="422.34" xlink:href="#linear-gradient-4"/>
    <linearGradient id="linear-gradient-6" x1="34.97" y1="81.2" x2="464.35" y2="617.05" xlink:href="#linear-gradient-4"/>
  </defs>
  <path class="cls-7" d="M360.94,408.89c-23.09-16.59-45.06-32.27-66.81-48.25-1.83-1.34-2.98-4.76-3.01-7.23-.23-22.1-.21-44.2-.02-66.3.02-2.29.86-5.51,2.5-6.71,21.96-16.13,44.13-31.97,67.35-48.68-.01,59.41-.01,117.56-.01,177.17Z"/>
  <path class="cls-3" d="M275.41,285.55v69.35c-11.46,0-22.58.48-33.59-.36-2.51-.19-6.61-4.84-6.7-7.55-.6-17.88-.4-35.78-.22-53.68.05-4.85,2.99-7.68,7.96-7.73,10.6-.1,21.19-.03,32.55-.03Z"/>
  <path class="cls-6" d="M377.1,355.13c0-23.33,0-46.62.01-69.9,15.57,1.63,28.5,17.01,28.86,34.31.35,17.34-12.3,33.13-28.87,35.59Z"/>
  <g>
    <g>
      <path class="cls-1" d="M563.58,203.67v-6.91h-142.03c-13.74-.01-19.97-6.29-19.98-20.09V35.34H97.38c-14.18,0-20.36,6.1-20.36,20.28-.01,176.43.03,352.86-.1,529.3-.01,9.96,3.73,16.65,12.91,20.37h460.93c9.74-3.91,12.95-11.23,12.94-21.49-.19-126.71-.12-253.42-.12-380.13ZM140.03,102.72c1.93-.51,4.03-.56,6.05-.56,62.15-.03,124.3-.04,186.45-.01,10.79,0,18.51,6.84,18.7,16.4.19,9.72-7.7,16.97-18.7,16.97-31.18.04-62.34.01-93.51.01s-62.72.04-94.07-.03c-9.11-.01-16.13-5.93-17.28-14.18-1.19-8.52,3.97-16.4,12.36-18.59ZM140.01,169.51c1.93-.51,4.03-.57,6.05-.57,62.15-.03,124.3-.04,186.47-.01,10.79,0,18.5,6.82,18.7,16.39.21,9.72-7.7,16.98-18.7,16.98-30.99.04-61.96.01-92.94.01s-63.09.04-94.62-.03c-9.13-.01-16.15-5.92-17.29-14.17-1.19-8.52,3.96-16.4,12.34-18.6ZM320.06,567.56c-71.64-.13-130.21-58.84-130.16-130.47.06-71.64,58.7-130.25,130.35-130.26,71.67-.03,130.34,58.52,130.44,130.18.09,71.86-58.78,130.7-130.64,130.56ZM479.24,253.22c-.58,8.67-7.55,15.55-16.44,15.82-7.6.22-15.21.06-22.82.06h-136.36c-52.69,0-105.39-.01-158.08.03-7.12,0-12.67-2.71-16.06-9.01-2.94-5.47-2.8-11.08.52-16.4,3.05-4.89,7.54-7.55,13.29-7.97,1.67-.12,3.35-.04,5.01-.04,103.34,0,206.69,0,310.04.01,2.39,0,4.86-.13,7.2.31,8.16,1.55,14.24,9.32,13.71,17.19Z"/>
      <path class="cls-5" d="M560.69,163.34c-38.6,0-77.88.03-117.17-.03-5.41-.01-8.48-2.93-8.49-8.19-.09-39.45-.04-78.89-.04-117.45,41.75,41.75,83.81,83.8,125.7,125.67Z"/>
      <path class="cls-5" d="M320.41,344.03c-50.84-.15-92.93,41.75-93.29,92.84-.36,50.91,42.15,93.55,93.21,93.49,50.73-.06,93.11-42.45,93.12-93.14.01-50.72-42.26-93.06-93.05-93.2ZM362.42,430.12c-12.43,12.49-24.88,24.98-37.39,37.38-8.65,8.56-17.57,8.49-26.24-.09-6.99-6.93-13.95-13.86-20.86-20.86-7.23-7.32-7.63-17.69-1.06-24.31,6.75-6.82,16.79-6.54,24.25.85,3.55,3.52,6.81,7.33,10.47,11.29,9.53-9.58,18.39-18.54,27.33-27.43,7.81-7.79,17.74-8.39,24.67-1.56,6.78,6.68,6.33,17.19-1.16,24.74Z"/>
    </g>
    <g>
      <path class="cls-8" d="M563.58,203.67v-6.91h-142.03c-13.74-.01-19.97-6.29-19.98-20.09V35.34H97.38c-14.18,0-20.36,6.1-20.36,20.28-.01,176.43.03,352.86-.1,529.3-.01,9.96,3.73,16.65,12.91,20.37h460.93c9.74-3.91,12.95-11.23,12.94-21.49-.19-126.71-.12-253.42-.12-380.13ZM140.03,102.72c1.93-.51,4.03-.56,6.05-.56,62.15-.03,124.3-.04,186.45-.01,10.79,0,18.51,6.84,18.7,16.4.19,9.72-7.7,16.97-18.7,16.97-31.18.04-62.34.01-93.51.01s-62.72.04-94.07-.03c-9.11-.01-16.13-5.93-17.28-14.18-1.19-8.52,3.97-16.4,12.36-18.59ZM140.01,169.51c1.93-.51,4.03-.57,6.05-.57,62.15-.03,124.3-.04,186.47-.01,10.79,0,18.5,6.82,18.7,16.39.21,9.72-7.7,16.98-18.7,16.98-30.99.04-61.96.01-92.94.01s-63.09.04-94.62-.03c-9.13-.01-16.15-5.92-17.29-14.17-1.19-8.52,3.96-16.4,12.34-18.6ZM320.06,567.56c-71.64-.13-130.21-58.84-130.16-130.47.06-71.64,58.7-130.25,130.35-130.26,71.67-.03,130.34,58.52,130.44,130.18.09,71.86-58.78,130.7-130.64,130.56ZM479.24,253.22c-.58,8.67-7.55,15.55-16.44,15.82-7.6.22-15.21.06-22.82.06h-136.36c-52.69,0-105.39-.01-158.08.03-7.12,0-12.67-2.71-16.06-9.01-2.94-5.47-2.8-11.08.52-16.4,3.05-4.89,7.54-7.55,13.29-7.97,1.67-.12,3.35-.04,5.01-.04,103.34,0,206.69,0,310.04.01,2.39,0,4.86-.13,7.2.31,8.16,1.55,14.24,9.32,13.71,17.19Z"/>
      <path class="cls-4" d="M560.69,163.34c-38.6,0-77.88.03-117.17-.03-5.41-.01-8.48-2.93-8.49-8.19-.09-39.45-.04-78.89-.04-117.45,41.75,41.75,83.81,83.8,125.7,125.67Z"/>
      <path class="cls-2" d="M320.41,344.03c-50.84-.15-92.93,41.75-93.29,92.84-.36,50.91,42.15,93.55,93.21,93.49,50.73-.06,93.11-42.45,93.12-93.14.01-50.72-42.26-93.06-93.05-93.2ZM362.42,430.12c-12.43,12.49-24.88,24.98-37.39,37.38-8.65,8.56-17.57,8.49-26.24-.09-6.99-6.93-13.95-13.86-20.86-20.86-7.23-7.32-7.63-17.69-1.06-24.31,6.75-6.82,16.79-6.54,24.25.85,3.55,3.52,6.81,7.33,10.47,11.29,9.53-9.58,18.39-18.54,27.33-27.43,7.81-7.79,17.74-8.39,24.67-1.56,6.78,6.68,6.33,17.19-1.16,24.74Z"/>
    </g>
  </g>
</svg>