<?xml version="1.0" encoding="utf-8"?>
<!-- Generator: Adobe Illustrator 27.7.0, SVG Export Plug-In . SVG Version: 6.00 Build 0)  -->
<svg version="1.1" id="report" xmlns="http://www.w3.org/2000/svg" xmlns:xlink="http://www.w3.org/1999/xlink" x="0px" y="0px"
	 viewBox="0 0 640.6 640.6" style="enable-background:new 0 0 640.6 640.6;" xml:space="preserve">
<style type="text/css">
	.st0{fill:#F2EFF4;}
	.st1{fill:url(#SVGID_1_);}
	.st2{fill:url(#SVGID_00000015347767033812068760000011523606170003495062_);}
	.st3{fill:#FFFFFF;}
	.st4{fill:url(#SVGID_00000039850468955696112770000016427398756633520311_);}
	.st5{fill:url(#SVGID_00000175309731639507311430000007481055947041628034_);}
	.st6{fill:url(#SVGID_00000153695543258601948090000014993219257665798841_);}
</style>
<g>
	<path class="st0" d="M499.9,70.3c17-20.6,27.3-43.9,32.4-70.3c7.2,0.9,14.2,1.8,21.8,2.8c-2.6,19.3-8.8,36.8-17.6,53.5
		c-12.6,24-29.7,43.6-53.9,56.5c-3.5,1.9-6.1,2.3-9.9-0.4c-10.3-7.4-24.1-4.3-30.8,6.1c-6.6,10.3-3.7,23.7,6.5,30.3
		c10.4,6.8,23.7,3.6,30.9-6.9c1.8-2.6,4.5-5.1,7.4-6.5c16.5-8.1,31-18.8,43.5-31.9c0.8,0.2,1.4,0.2,1.7,0.5
		c21.7,22.5,43.9,44.6,64.9,67.7c16.1,17.6,23.7,39.3,23.7,63.1c0.2,116.9,0.1,233.7,0,350.6c0,32.3-24,56.2-56.4,56.2
		c-69.2,0.1-138.5,0.1-207.7,0c-31.9-0.1-56-24-56-55.9c-0.1-117.1-0.1-234.2,0-351.2c0-24.9,8.6-47,25.7-65.2
		c31-33,62.7-65.4,93.9-98.3C437,53.3,470.3,44,499.9,70.3z M455.1,487.6c0,9,0,17.5,0,26.1c7.6,0,14.4,0,22.1,0c0-9,0-17.6,0-26.1
		c28.2-1.9,46.2-18.5,46.9-42.6c0.8-26.1-15.6-42.5-46.8-46.6c0-14.3,0-28.7,0-43c13.4-1.3,20.6,4.7,25.8,21.2c6.8,0,13.6,0,20.9,0
		c0.3-10.4-3.1-19.2-9.2-27c-9.4-12-22.3-17-38.1-17.1c0-9,0-17.6,0-26.1c-7.6,0-14.4,0-22.1,0c0,9,0,17.6,0,26.1
		c-26.8,1.8-44.7,17.1-46.8,39.2c-1,11.2,1.2,21.5,7.7,30.7c9.5,13.4,23.1,18.8,38.9,19.1c0,14.9,0,29.1,0,43.2
		c-13.4,1.3-20.7-4.7-25.8-21.2c-6.8,0-13.6,0-20.4,0C406,466.6,425.8,485.6,455.1,487.6z"/>
	
		<linearGradient id="SVGID_1_" gradientUnits="userSpaceOnUse" x1="368.364" y1="-4.412" x2="588.1256" y2="564.6548" gradientTransform="matrix(1 0 0 -1 0 640.62)">
		<stop  offset="0" style="stop-color:#FFFFFF;stop-opacity:0.4"/>
		<stop  offset="6.910000e-02" style="stop-color:#FFFFFF;stop-opacity:0.3435"/>
		<stop  offset="0.4892" style="stop-color:#FFFFFF;stop-opacity:0"/>
		<stop  offset="0.7527" style="stop-color:#FAFAFA;stop-opacity:0.1032"/>
		<stop  offset="1" style="stop-color:#EFEFEF;stop-opacity:0.2"/>
	</linearGradient>
	<path class="st1" d="M499.9,70.3c17-20.6,27.3-43.9,32.4-70.3c7.2,0.9,14.2,1.8,21.8,2.8c-2.6,19.3-8.8,36.8-17.6,53.5
		c-12.6,24-29.7,43.6-53.9,56.5c-3.5,1.9-6.1,2.3-9.9-0.4c-10.3-7.4-24.1-4.3-30.8,6.1c-6.6,10.3-3.7,23.7,6.5,30.3
		c10.4,6.8,23.7,3.6,30.9-6.9c1.8-2.6,4.5-5.1,7.4-6.5c16.5-8.1,31-18.8,43.5-31.9c0.8,0.2,1.4,0.2,1.7,0.5
		c21.7,22.5,43.9,44.6,64.9,67.7c16.1,17.6,23.7,39.3,23.7,63.1c0.2,116.9,0.1,233.7,0,350.6c0,32.3-24,56.2-56.4,56.2
		c-69.2,0.1-138.5,0.1-207.7,0c-31.9-0.1-56-24-56-55.9c-0.1-117.1-0.1-234.2,0-351.2c0-24.9,8.6-47,25.7-65.2
		c31-33,62.7-65.4,93.9-98.3C437,53.3,470.3,44,499.9,70.3z M455.1,487.6c0,9,0,17.5,0,26.1c7.6,0,14.4,0,22.1,0c0-9,0-17.6,0-26.1
		c28.2-1.9,46.2-18.5,46.9-42.6c0.8-26.1-15.6-42.5-46.8-46.6c0-14.3,0-28.7,0-43c13.4-1.3,20.6,4.7,25.8,21.2c6.8,0,13.6,0,20.9,0
		c0.3-10.4-3.1-19.2-9.2-27c-9.4-12-22.3-17-38.1-17.1c0-9,0-17.6,0-26.1c-7.6,0-14.4,0-22.1,0c0,9,0,17.6,0,26.1
		c-26.8,1.8-44.7,17.1-46.8,39.2c-1,11.2,1.2,21.5,7.7,30.7c9.5,13.4,23.1,18.8,38.9,19.1c0,14.9,0,29.1,0,43.2
		c-13.4,1.3-20.7-4.7-25.8-21.2c-6.8,0-13.6,0-20.4,0C406,466.6,425.8,485.6,455.1,487.6z"/>
	<path class="st0" d="M381.8,82.8c-5.8,4.9-11.9,9.4-17.2,14.8c-17.1,17.3-34,35-51,52.5c-23.5,24.3-35.4,53.3-35.4,87.1
		c0,115.7-0.1,231.4,0.1,347.1c0,9.7,2.1,19.5,3.3,29.4c-1.2-0.6-3-1.3-4.6-2.3c-52.5-30.3-105.1-60.6-157.6-91
		c-30.8-17.8-39.4-49.5-21.6-80.2c57.6-99.9,115.4-199.7,173.1-299.6c13.8-23.8,33.8-39.6,60.3-47.2c16.1-4.6,32.2-9,48.3-13.5
		C380.3,80.7,381,81.8,381.8,82.8z"/>
	
		<linearGradient id="SVGID_00000020388677879036412830000010375555082535917443_" gradientUnits="userSpaceOnUse" x1="88.7747" y1="293.955" x2="381.8" y2="293.955" gradientTransform="matrix(1 0 0 -1 0 640.62)">
		<stop  offset="0" style="stop-color:#FFFFFF;stop-opacity:0.4"/>
		<stop  offset="6.910000e-02" style="stop-color:#FFFFFF;stop-opacity:0.3435"/>
		<stop  offset="0.4892" style="stop-color:#FFFFFF;stop-opacity:0"/>
		<stop  offset="0.7527" style="stop-color:#FAFAFA;stop-opacity:0.1032"/>
		<stop  offset="1" style="stop-color:#EFEFEF;stop-opacity:0.2"/>
	</linearGradient>
	<path style="fill:url(#SVGID_00000020388677879036412830000010375555082535917443_);" d="M381.8,82.8c-5.8,4.9-11.9,9.4-17.2,14.8
		c-17.1,17.3-34,35-51,52.5c-23.5,24.3-35.4,53.3-35.4,87.1c0,115.7-0.1,231.4,0.1,347.1c0,9.7,2.1,19.5,3.3,29.4
		c-1.2-0.6-3-1.3-4.6-2.3c-52.5-30.3-105.1-60.6-157.6-91c-30.8-17.8-39.4-49.5-21.6-80.2c57.6-99.9,115.4-199.7,173.1-299.6
		c13.8-23.8,33.8-39.6,60.3-47.2c16.1-4.6,32.2-9,48.3-13.5C380.3,80.7,381,81.8,381.8,82.8z"/>
	<path class="st3" d="M276.4,87.8c-16.7,28.8-33.3,57.5-50,86.3C177.2,259,128,343.9,79.1,428.9c-5.5,9.6-9.2,20.3-13.7,30.6
		c-0.2-0.1-1.2-0.9-2.2-1.9c-13.3-13.3-26.8-26.5-40-40c-22.5-23-22.6-56.3,0.1-79.1C105.7,256,188.2,173.6,270.8,91.2
		c1.4-1.4,3-2.8,4.5-4.1C275.6,87.3,276,87.5,276.4,87.8z"/>
	
		<linearGradient id="SVGID_00000130638765467024407760000017268626665034461365_" gradientUnits="userSpaceOnUse" x1="6.2763" y1="367.345" x2="276.38" y2="367.345" gradientTransform="matrix(1 0 0 -1 0 640.62)">
		<stop  offset="0" style="stop-color:#FFFFFF;stop-opacity:0.4"/>
		<stop  offset="6.910000e-02" style="stop-color:#FFFFFF;stop-opacity:0.3435"/>
		<stop  offset="0.4892" style="stop-color:#FFFFFF;stop-opacity:0"/>
		<stop  offset="0.7527" style="stop-color:#FAFAFA;stop-opacity:0.1032"/>
		<stop  offset="1" style="stop-color:#EFEFEF;stop-opacity:0.2"/>
	</linearGradient>
	<path style="fill:url(#SVGID_00000130638765467024407760000017268626665034461365_);" d="M276.4,87.8c-16.7,28.8-33.3,57.5-50,86.3
		C177.2,259,128,343.9,79.1,428.9c-5.5,9.6-9.2,20.3-13.7,30.6c-0.2-0.1-1.2-0.9-2.2-1.9c-13.3-13.3-26.8-26.5-40-40
		c-22.5-23-22.6-56.3,0.1-79.1C105.7,256,188.2,173.6,270.8,91.2c1.4-1.4,3-2.8,4.5-4.1C275.6,87.3,276,87.5,276.4,87.8z"/>
	<path class="st3" d="M454.5,355c0,14.8,0,29.1,0,43.4c-13.8,1-24.4-8-24.8-20.8C429.4,364,439.5,354.5,454.5,355z"/>
	<path class="st3" d="M477.3,421.3c14.9-0.5,25.1,9.1,24.8,22.6c-0.4,12.8-10.9,21.9-24.8,20.8C477.3,450.4,477.3,436.1,477.3,421.3
		z"/>
	
		<linearGradient id="SVGID_00000163757439423674248010000012458195271552738746_" gradientUnits="userSpaceOnUse" x1="429.7791" y1="263.8484" x2="454.55" y2="263.8484" gradientTransform="matrix(1 0 0 -1 0 640.62)">
		<stop  offset="0" style="stop-color:#FFFFFF;stop-opacity:0.4"/>
		<stop  offset="6.910000e-02" style="stop-color:#FFFFFF;stop-opacity:0.3435"/>
		<stop  offset="0.4892" style="stop-color:#FFFFFF;stop-opacity:0"/>
		<stop  offset="0.7527" style="stop-color:#FAFAFA;stop-opacity:0.1032"/>
		<stop  offset="1" style="stop-color:#EFEFEF;stop-opacity:0.2"/>
	</linearGradient>
	<path style="fill:url(#SVGID_00000163757439423674248010000012458195271552738746_);" d="M454.5,355c0,14.8,0,29.1,0,43.4
		c-13.8,1-24.4-8-24.8-20.8C429.4,364,439.5,354.5,454.5,355z"/>
	
		<linearGradient id="SVGID_00000178902673721690246680000006194111434963684755_" gradientUnits="userSpaceOnUse" x1="477.34" y1="197.5986" x2="502.1008" y2="197.5986" gradientTransform="matrix(1 0 0 -1 0 640.62)">
		<stop  offset="0" style="stop-color:#FFFFFF;stop-opacity:0.4"/>
		<stop  offset="6.910000e-02" style="stop-color:#FFFFFF;stop-opacity:0.3435"/>
		<stop  offset="0.4892" style="stop-color:#FFFFFF;stop-opacity:0"/>
		<stop  offset="0.7527" style="stop-color:#FAFAFA;stop-opacity:0.1032"/>
		<stop  offset="1" style="stop-color:#EFEFEF;stop-opacity:0.2"/>
	</linearGradient>
	<path style="fill:url(#SVGID_00000178902673721690246680000006194111434963684755_);" d="M477.3,421.3c14.9-0.5,25.1,9.1,24.8,22.6
		c-0.4,12.8-10.9,21.9-24.8,20.8C477.3,450.4,477.3,436.1,477.3,421.3z"/>
</g>
</svg>
