<?xml version="1.0" encoding="utf-8"?>
<!-- Generator: Adobe Illustrator 26.2.1, SVG Export Plug-In . SVG Version: 6.00 Build 0)  -->
<svg version="1.1" id="report" xmlns="http://www.w3.org/2000/svg" xmlns:xlink="http://www.w3.org/1999/xlink" x="0px" y="0px"
	 viewBox="0 0 640.62 640.62" style="enable-background:new 0 0 640.62 640.62;" xml:space="preserve">
<style type="text/css">
	.st0{fill:#360061;}
	.st1{fill:url(#SVGID_1_);}
	.st2{fill:#5800B2;}
	.st3{fill:url(#SVGID_00000150102559346205201910000016293452100665194167_);}
	.st4{fill:url(#SVGID_00000129916203566402410840000016101526039238594232_);}
	.st5{fill:url(#SVGID_00000069364449842275225890000000266064089304484019_);}
	.st6{fill:url(#SVGID_00000034088105330930767220000017995783282629490327_);}
</style>
<g>
	<path class="st0" d="M481.36,281.33c9.53,4.1,18.53,8.17,27.73,11.72c1.5,0.58,4.39-0.64,5.8-1.94
		c5.57-5.13,10.75-10.68,16.18-15.96c10.91-10.61,23.8-10.72,34.51-0.2c10.14,9.96,20.2,19.99,30.14,30.14
		c10.27,10.48,10.24,23.4,0.02,34.02c-5.42,5.63-11.2,10.92-16.42,16.72c-1.32,1.46-2.02,4.58-1.43,6.45
		c1.4,4.48,3.85,8.62,5.63,12.99c1.78,4.37,3.26,8.87,5.09,13.89c9.05,0,18.25-0.06,27.45,0.01c15.01,0.11,24.38,9.4,24.48,24.36
		c0.1,14.21,0.12,28.42-0.01,42.63c-0.13,14.52-9.55,23.8-24.18,23.95c-9.21,0.09-18.43,0.02-27.2,0.02
		c-4.03,9.44-7.99,18.26-11.46,27.26c-0.61,1.59,0.19,4.54,1.41,5.87c5.44,5.93,11.37,11.4,16.93,17.22
		c9.87,10.34,9.87,23.29-0.1,33.5c-10.09,10.33-20.31,20.55-30.64,30.64c-10.24,10.01-23.16,10.05-33.5,0.19
		c-5.82-5.56-11.29-11.49-17.21-16.93c-1.34-1.23-4.28-2.06-5.86-1.45c-9.01,3.47-17.84,7.42-27.35,11.48
		c0,8.46,0.04,17.44-0.01,26.41c-0.09,15.6-9.2,24.89-24.58,24.98c-13.97,0.08-27.94,0.09-41.92,0
		c-14.99-0.09-24.32-9.44-24.44-24.41c-0.07-8.99-0.01-17.98-0.01-26.92c-9.5-4.14-18.68-8.3-28.05-12.01
		c-1.31-0.52-3.94,0.78-5.25,2c-5.53,5.17-10.75,10.68-16.17,15.97c-11.18,10.91-24.01,10.97-35.03,0.1
		c-9.95-9.81-19.83-19.69-29.64-29.64c-10.57-10.73-10.52-23.67,0.05-34.52c5.45-5.6,11.18-10.93,16.45-16.7
		c1.2-1.32,1.83-4.22,1.27-5.9c-1.57-4.68-4.03-9.06-5.91-13.65c-1.78-4.34-3.27-8.79-5.01-13.51c-9.37,0-18.59,0.08-27.8-0.02
		c-14.52-0.15-23.97-9.56-24.08-24.05c-0.11-14.21-0.1-28.42,0-42.63c0.1-14.98,9.42-24.14,24.55-24.26
		c7.81-0.06,15.64,0.24,23.43-0.19c1.89-0.1,4.5-2.05,5.33-3.83c3.39-7.27,6.47-14.71,9.08-22.29c0.7-2.03,0.14-5.49-1.24-7.05
		c-5.16-5.85-10.97-11.11-16.4-16.74c-10.2-10.58-10.17-23.54,0.12-34.01c9.96-10.13,20.01-20.18,30.14-30.14
		c10.49-10.31,23.42-10.38,34.01-0.22c5.3,5.08,10.59,10.19,15.53,15.61c2.99,3.28,5.46,4.14,9.66,1.83
		c5.35-2.95,11.05-5.7,16.94-7.12c6.95-1.68,8.74-5.26,8.15-11.91c-0.61-6.81-0.29-13.73-0.09-20.59
		c0.38-12.87,9.77-22.29,22.7-22.48c15.15-0.22,30.31-0.22,45.47,0c12.85,0.19,22.37,9.7,22.68,22.52
		C481.55,262.23,481.36,271.93,481.36,281.33z M447.25,558.89c1.85-0.53,3.18-0.93,4.53-1.3c34.18-9.41,56.09-40.25,52.01-73.2
		c-4.37-35.27-31.81-59.93-68.04-61.11c-25.63-0.84-45.22-20.39-45.33-45.23c-0.11-24.32,19.32-44.77,43.4-45.68
		c25.37-0.96,45.78,17.82,47.5,43.69c0.56,8.4,5,13.3,11.82,13.05c6.87-0.26,11.34-5.58,10.85-13.86
		c-1.51-25.35-13.36-44.56-35.5-56.96c-6.47-3.62-13.84-5.65-21.24-8.58c0-6.54,0.05-13.39-0.01-20.24
		c-0.08-8.85-4.47-14.09-11.57-13.96c-6.87,0.13-11.06,5.2-11.15,13.65c-0.07,7.08-0.01,14.16-0.01,21.24
		c-1.83,0.52-3.18,0.91-4.52,1.28c-34.17,9.37-56.03,40.12-52.03,73.19c4.26,35.13,31.91,59.98,68.03,61.14
		c25.67,0.82,45.23,20.32,45.35,45.21c0.12,24.31-19.31,44.77-43.39,45.7c-25.31,0.98-45.81-17.87-47.51-43.69
		c-0.55-8.41-4.98-13.3-11.82-13.05c-6.89,0.26-11.31,5.54-10.86,13.84c1.27,23.33,11.55,41.85,31.3,54.34
		c7.63,4.83,16.51,7.68,25.45,11.72c0,6.26-0.08,13.35,0.02,20.44c0.11,8.25,4.65,13.38,11.55,13.25
		c6.64-0.12,11.01-5.08,11.14-12.95C447.35,573.51,447.25,566.2,447.25,558.89z"/>
	<linearGradient id="SVGID_1_" gradientUnits="userSpaceOnUse" x1="231.1589" y1="434.6096" x2="640.6213" y2="434.6096">
		<stop  offset="0" style="stop-color:#FFFFFF;stop-opacity:0.4"/>
		<stop  offset="0.0691" style="stop-color:#FFFFFF;stop-opacity:0.3435"/>
		<stop  offset="0.4892" style="stop-color:#FFFFFF;stop-opacity:0"/>
		<stop  offset="0.7527" style="stop-color:#FAFAFA;stop-opacity:0.1032"/>
		<stop  offset="1" style="stop-color:#EFEFEF;stop-opacity:0.2"/>
	</linearGradient>
	<path class="st1" d="M481.36,281.33c9.53,4.1,18.53,8.17,27.73,11.72c1.5,0.58,4.39-0.64,5.8-1.94
		c5.57-5.13,10.75-10.68,16.18-15.96c10.91-10.61,23.8-10.72,34.51-0.2c10.14,9.96,20.2,19.99,30.14,30.14
		c10.27,10.48,10.24,23.4,0.02,34.02c-5.42,5.63-11.2,10.92-16.42,16.72c-1.32,1.46-2.02,4.58-1.43,6.45
		c1.4,4.48,3.85,8.62,5.63,12.99c1.78,4.37,3.26,8.87,5.09,13.89c9.05,0,18.25-0.06,27.45,0.01c15.01,0.11,24.38,9.4,24.48,24.36
		c0.1,14.21,0.12,28.42-0.01,42.63c-0.13,14.52-9.55,23.8-24.18,23.95c-9.21,0.09-18.43,0.02-27.2,0.02
		c-4.03,9.44-7.99,18.26-11.46,27.26c-0.61,1.59,0.19,4.54,1.41,5.87c5.44,5.93,11.37,11.4,16.93,17.22
		c9.87,10.34,9.87,23.29-0.1,33.5c-10.09,10.33-20.31,20.55-30.64,30.64c-10.24,10.01-23.16,10.05-33.5,0.19
		c-5.82-5.56-11.29-11.49-17.21-16.93c-1.34-1.23-4.28-2.06-5.86-1.45c-9.01,3.47-17.84,7.42-27.35,11.48
		c0,8.46,0.04,17.44-0.01,26.41c-0.09,15.6-9.2,24.89-24.58,24.98c-13.97,0.08-27.94,0.09-41.92,0
		c-14.99-0.09-24.32-9.44-24.44-24.41c-0.07-8.99-0.01-17.98-0.01-26.92c-9.5-4.14-18.68-8.3-28.05-12.01
		c-1.31-0.52-3.94,0.78-5.25,2c-5.53,5.17-10.75,10.68-16.17,15.97c-11.18,10.91-24.01,10.97-35.03,0.1
		c-9.95-9.81-19.83-19.69-29.64-29.64c-10.57-10.73-10.52-23.67,0.05-34.52c5.45-5.6,11.18-10.93,16.45-16.7
		c1.2-1.32,1.83-4.22,1.27-5.9c-1.57-4.68-4.03-9.06-5.91-13.65c-1.78-4.34-3.27-8.79-5.01-13.51c-9.37,0-18.59,0.08-27.8-0.02
		c-14.52-0.15-23.97-9.56-24.08-24.05c-0.11-14.21-0.1-28.42,0-42.63c0.1-14.98,9.42-24.14,24.55-24.26
		c7.81-0.06,15.64,0.24,23.43-0.19c1.89-0.1,4.5-2.05,5.33-3.83c3.39-7.27,6.47-14.71,9.08-22.29c0.7-2.03,0.14-5.49-1.24-7.05
		c-5.16-5.85-10.97-11.11-16.4-16.74c-10.2-10.58-10.17-23.54,0.12-34.01c9.96-10.13,20.01-20.18,30.14-30.14
		c10.49-10.31,23.42-10.38,34.01-0.22c5.3,5.08,10.59,10.19,15.53,15.61c2.99,3.28,5.46,4.14,9.66,1.83
		c5.35-2.95,11.05-5.7,16.94-7.12c6.95-1.68,8.74-5.26,8.15-11.91c-0.61-6.81-0.29-13.73-0.09-20.59
		c0.38-12.87,9.77-22.29,22.7-22.48c15.15-0.22,30.31-0.22,45.47,0c12.85,0.19,22.37,9.7,22.68,22.52
		C481.55,262.23,481.36,271.93,481.36,281.33z M447.25,558.89c1.85-0.53,3.18-0.93,4.53-1.3c34.18-9.41,56.09-40.25,52.01-73.2
		c-4.37-35.27-31.81-59.93-68.04-61.11c-25.63-0.84-45.22-20.39-45.33-45.23c-0.11-24.32,19.32-44.77,43.4-45.68
		c25.37-0.96,45.78,17.82,47.5,43.69c0.56,8.4,5,13.3,11.82,13.05c6.87-0.26,11.34-5.58,10.85-13.86
		c-1.51-25.35-13.36-44.56-35.5-56.96c-6.47-3.62-13.84-5.65-21.24-8.58c0-6.54,0.05-13.39-0.01-20.24
		c-0.08-8.85-4.47-14.09-11.57-13.96c-6.87,0.13-11.06,5.2-11.15,13.65c-0.07,7.08-0.01,14.16-0.01,21.24
		c-1.83,0.52-3.18,0.91-4.52,1.28c-34.17,9.37-56.03,40.12-52.03,73.19c4.26,35.13,31.91,59.98,68.03,61.14
		c25.67,0.82,45.23,20.32,45.35,45.21c0.12,24.31-19.31,44.77-43.39,45.7c-25.31,0.98-45.81-17.87-47.51-43.69
		c-0.55-8.41-4.98-13.3-11.82-13.05c-6.89,0.26-11.31,5.54-10.86,13.84c1.27,23.33,11.55,41.85,31.3,54.34
		c7.63,4.83,16.51,7.68,25.45,11.72c0,6.26-0.08,13.35,0.02,20.44c0.11,8.25,4.65,13.38,11.55,13.25
		c6.64-0.12,11.01-5.08,11.14-12.95C447.35,573.51,447.25,566.2,447.25,558.89z"/>
	<path class="st2" d="M371.59,229.97c-1.84,12.64-3.58,24.55-5.49,37.71c-2.8-2.55-5.2-4.57-7.42-6.77
		c-22.35-22.19-48.98-22.82-70.31,0.12c-10.19,10.96-20.6,17.05-35.58,14.52c-3.45-0.58-7.1-0.27-10.64,0.01
		c-6.35,0.5-10.73,5.07-10.88,10.98c-0.16,6.19,4.37,11.05,11.03,11.58c3.02,0.24,6.08,0.04,9.14,0.04
		c-2.27,7.69-4.39,14.88-6.63,22.47c-19.14,0-38.7,0-59.08,0c0-2.75,0-5.27,0-7.79c0-94.48,0-188.96,0-283.44
		c0-18.4,8.49-26.83,26.97-26.84c56.59-0.01,113.19,0,169.78,0c2.33,0,4.66,0,7.92,0c0,2.95,0,5.46,0,7.96
		c0,19.65-0.08,39.31,0.03,58.96c0.08,14.48,9.57,23.94,24.1,24.01c21.98,0.11,43.96,0.03,66.39,0.03c0,39.92,0,79.35,0,119.73
		c-13.67-8-28.5-5.97-43.04-5.99c-63.22-0.09-126.45-0.04-189.67-0.03c-2.37,0-4.79-0.24-7.09,0.19c-6.12,1.13-9.79,4.93-9.77,11.22
		c0.03,6.29,3.74,10.05,9.86,11.15c2.3,0.41,4.72,0.18,7.09,0.18C289.73,229.97,331.16,229.97,371.59,229.97z M334.26,139
		c-11.84,0-23.69,0-35.53,0c-18.48,0-36.95-0.01-55.43,0.02c-5.57,0.01-10.41,2.47-11.13,7.9c-0.51,3.83,1.03,8.94,3.54,11.85
		c1.97,2.28,6.83,2.84,10.42,2.85c50.22,0.17,100.44,0.12,150.65,0.12c9,0,18.01,0.15,27-0.06c7.46-0.18,12.46-5.39,12.03-12.01
		c-0.43-6.6-5.34-10.62-13.43-10.64C393.01,138.96,363.64,139,334.26,139z"/>
	
		<linearGradient id="SVGID_00000008107735706909265330000014206882864773344910_" gradientUnits="userSpaceOnUse" x1="185.7263" y1="161.5836" x2="480.9238" y2="161.5836">
		<stop  offset="0" style="stop-color:#FFFFFF;stop-opacity:0.4"/>
		<stop  offset="0.0691" style="stop-color:#FFFFFF;stop-opacity:0.3435"/>
		<stop  offset="0.4892" style="stop-color:#FFFFFF;stop-opacity:0"/>
		<stop  offset="0.7527" style="stop-color:#FAFAFA;stop-opacity:0.1032"/>
		<stop  offset="1" style="stop-color:#EFEFEF;stop-opacity:0.2"/>
	</linearGradient>
	<path style="fill:url(#SVGID_00000008107735706909265330000014206882864773344910_);" d="M371.59,229.97
		c-1.84,12.64-3.58,24.55-5.49,37.71c-2.8-2.55-5.2-4.57-7.42-6.77c-22.35-22.19-48.98-22.82-70.31,0.12
		c-10.19,10.96-20.6,17.05-35.58,14.52c-3.45-0.58-7.1-0.27-10.64,0.01c-6.35,0.5-10.73,5.07-10.88,10.98
		c-0.16,6.19,4.37,11.05,11.03,11.58c3.02,0.24,6.08,0.04,9.14,0.04c-2.27,7.69-4.39,14.88-6.63,22.47c-19.14,0-38.7,0-59.08,0
		c0-2.75,0-5.27,0-7.79c0-94.48,0-188.96,0-283.44c0-18.4,8.49-26.83,26.97-26.84c56.59-0.01,113.19,0,169.78,0
		c2.33,0,4.66,0,7.92,0c0,2.95,0,5.46,0,7.96c0,19.65-0.08,39.31,0.03,58.96c0.08,14.48,9.57,23.94,24.1,24.01
		c21.98,0.11,43.96,0.03,66.39,0.03c0,39.92,0,79.35,0,119.73c-13.67-8-28.5-5.97-43.04-5.99c-63.22-0.09-126.45-0.04-189.67-0.03
		c-2.37,0-4.79-0.24-7.09,0.19c-6.12,1.13-9.79,4.93-9.77,11.22c0.03,6.29,3.74,10.05,9.86,11.15c2.3,0.41,4.72,0.18,7.09,0.18
		C289.73,229.97,331.16,229.97,371.59,229.97z M334.26,139c-11.84,0-23.69,0-35.53,0c-18.48,0-36.95-0.01-55.43,0.02
		c-5.57,0.01-10.41,2.47-11.13,7.9c-0.51,3.83,1.03,8.94,3.54,11.85c1.97,2.28,6.83,2.84,10.42,2.85
		c50.22,0.17,100.44,0.12,150.65,0.12c9,0,18.01,0.15,27-0.06c7.46-0.18,12.46-5.39,12.03-12.01c-0.43-6.6-5.34-10.62-13.43-10.64
		C393.01,138.96,363.64,139,334.26,139z"/>
	<path class="st2" d="M230.86,343.67c0,15.63,0,30.22,0,45.27c-23.95,0-47.57,0.42-71.15-0.35c-4.76-0.15-10.11-4-13.9-7.53
		c-11.6-10.8-22.56-22.3-33.8-33.49c-6.39-6.36-21.72-5.54-27.31,1.42c-16.95,21.12-46.99,23.36-66.59,4.97
		c-19.18-18-19.01-48.57,0.37-66.39c19.55-17.98,49.46-15.83,65.92,5.27c3.41,4.37,6.77,5.44,11.8,5.45
		c34.81,0.05,27.4-3.17,52.39,21.58c7.9,7.83,14.55,18.74,24.06,22.62c9.78,3.98,22.36,1.12,33.71,1.19
		C214.36,343.72,222.36,343.67,230.86,343.67z"/>
	<path class="st2" d="M230.88,480.14c0,15.29,0,29.88,0,45.47c-10.1,0-20.18-0.05-30.26,0.01c-9.46,0.06-19.93-2.26-28.09,1.05
		c-7.89,3.21-13.42,12.27-19.96,18.77c-6.04,6.01-12.09,12.01-18.08,18.08c-5.1,5.16-11.17,7.79-18.46,7.57
		c-2.84-0.08-5.69,0.1-8.52-0.03c-10.86-0.5-19.52,0.62-28.3,10.3c-16.94,18.67-46.97,16.12-63.77-2.74
		c-17.03-19.12-15.1-48.22,4.3-64.79c19.33-16.51,47.65-14.12,64.08,5.41c7.38,8.77,21.45,9.2,29.74,0.92
		c10.71-10.72,21.04-21.86,32.34-31.92c4.44-3.96,10.98-7.52,16.7-7.75C185.05,479.62,207.56,480.14,230.88,480.14z"/>
	<path class="st0" d="M208.13,411.9c0,15.3,0,29.89,0,45.48c-2.53,0-5.02,0-7.52,0c-35.05,0-70.1,0.07-105.14-0.08
		c-4.56-0.02-7.58,0.94-10.63,4.91c-16.56,21.55-46.6,23.96-66.39,5.76c-19.38-17.82-19.52-48.38-0.3-66.4
		c19.59-18.37,49.78-16.2,66.46,5.16c3.16,4.04,6.23,5.31,11.16,5.28C132.94,411.81,170.11,411.9,208.13,411.9z"/>
	
		<linearGradient id="SVGID_00000057862758164907549200000016387978274174478464_" gradientUnits="userSpaceOnUse" x1="3.8321" y1="332.2343" x2="230.8604" y2="332.2343">
		<stop  offset="0" style="stop-color:#FFFFFF;stop-opacity:0.4"/>
		<stop  offset="0.0691" style="stop-color:#FFFFFF;stop-opacity:0.3435"/>
		<stop  offset="0.4892" style="stop-color:#FFFFFF;stop-opacity:0"/>
		<stop  offset="0.7527" style="stop-color:#FAFAFA;stop-opacity:0.1032"/>
		<stop  offset="1" style="stop-color:#EFEFEF;stop-opacity:0.2"/>
	</linearGradient>
	<path style="fill:url(#SVGID_00000057862758164907549200000016387978274174478464_);" d="M230.86,343.67c0,15.63,0,30.22,0,45.27
		c-23.95,0-47.57,0.42-71.15-0.35c-4.76-0.15-10.11-4-13.9-7.53c-11.6-10.8-22.56-22.3-33.8-33.49c-6.39-6.36-21.72-5.54-27.31,1.42
		c-16.95,21.12-46.99,23.36-66.59,4.97c-19.18-18-19.01-48.57,0.37-66.39c19.55-17.98,49.46-15.83,65.92,5.27
		c3.41,4.37,6.77,5.44,11.8,5.45c34.81,0.05,27.4-3.17,52.39,21.58c7.9,7.83,14.55,18.74,24.06,22.62
		c9.78,3.98,22.36,1.12,33.71,1.19C214.36,343.72,222.36,343.67,230.86,343.67z"/>
	
		<linearGradient id="SVGID_00000176035393749748279220000012462044424371447738_" gradientUnits="userSpaceOnUse" x1="3.8262" y1="537.0701" x2="230.8796" y2="537.0701">
		<stop  offset="0" style="stop-color:#FFFFFF;stop-opacity:0.4"/>
		<stop  offset="0.0691" style="stop-color:#FFFFFF;stop-opacity:0.3435"/>
		<stop  offset="0.4892" style="stop-color:#FFFFFF;stop-opacity:0"/>
		<stop  offset="0.7527" style="stop-color:#FAFAFA;stop-opacity:0.1032"/>
		<stop  offset="1" style="stop-color:#EFEFEF;stop-opacity:0.2"/>
	</linearGradient>
	<path style="fill:url(#SVGID_00000176035393749748279220000012462044424371447738_);" d="M230.88,480.14c0,15.29,0,29.88,0,45.47
		c-10.1,0-20.18-0.05-30.26,0.01c-9.46,0.06-19.93-2.26-28.09,1.05c-7.89,3.21-13.42,12.27-19.96,18.77
		c-6.04,6.01-12.09,12.01-18.08,18.08c-5.1,5.16-11.17,7.79-18.46,7.57c-2.84-0.08-5.69,0.1-8.52-0.03
		c-10.86-0.5-19.52,0.62-28.3,10.3c-16.94,18.67-46.97,16.12-63.77-2.74c-17.03-19.12-15.1-48.22,4.3-64.79
		c19.33-16.51,47.65-14.12,64.08,5.41c7.38,8.77,21.45,9.2,29.74,0.92c10.71-10.72,21.04-21.86,32.34-31.92
		c4.44-3.96,10.98-7.52,16.7-7.75C185.05,479.62,207.56,480.14,230.88,480.14z"/>
	
		<linearGradient id="SVGID_00000000207607124386122160000004031342316908667538_" gradientUnits="userSpaceOnUse" x1="3.8239" y1="434.6425" x2="208.1315" y2="434.6425">
		<stop  offset="0" style="stop-color:#FFFFFF;stop-opacity:0.4"/>
		<stop  offset="0.0691" style="stop-color:#FFFFFF;stop-opacity:0.3435"/>
		<stop  offset="0.4892" style="stop-color:#FFFFFF;stop-opacity:0"/>
		<stop  offset="0.7527" style="stop-color:#FAFAFA;stop-opacity:0.1032"/>
		<stop  offset="1" style="stop-color:#EFEFEF;stop-opacity:0.2"/>
	</linearGradient>
	<path style="fill:url(#SVGID_00000000207607124386122160000004031342316908667538_);" d="M208.13,411.9c0,15.3,0,29.89,0,45.48
		c-2.53,0-5.02,0-7.52,0c-35.05,0-70.1,0.07-105.14-0.08c-4.56-0.02-7.58,0.94-10.63,4.91c-16.56,21.55-46.6,23.96-66.39,5.76
		c-19.38-17.82-19.52-48.38-0.3-66.4c19.59-18.37,49.78-16.2,66.46,5.16c3.16,4.04,6.23,5.31,11.16,5.28
		C132.94,411.81,170.11,411.9,208.13,411.9z"/>
	<path class="st0" d="M480.06,70.42c-22.45,0-44.35,0-66.58,0c0-22.24,0-44.13,0-66.03c0.52-0.5,1.05-0.99,1.57-1.49
		C436.56,25.24,458.07,47.58,480.06,70.42z"/>
</g>
</svg>
