<?xml version="1.0" encoding="utf-8"?>
<!-- Generator: Adobe Illustrator 26.2.1, SVG Export Plug-In . SVG Version: 6.00 Build 0)  -->
<svg version="1.1" id="report" xmlns="http://www.w3.org/2000/svg" xmlns:xlink="http://www.w3.org/1999/xlink" x="0px" y="0px"
	 viewBox="0 0 640.62 640.62" style="enable-background:new 0 0 640.62 640.62;" xml:space="preserve">
<style type="text/css">
	.st0{fill:#360061;}
	.st1{fill:#5800B2;}
	.st2{fill:url(#SVGID_1_);}
	.st3{fill:url(#SVGID_00000012472307591680390570000005360007436056951187_);}
</style>
<g>
	<path class="st0" d="M421.28,364.47c-12.57-43.77,14.5-83.83,58.27-92.08c0.1-1.79,0.3-3.68,0.3-5.58
		c0.02-29.34-0.1-58.68,0.13-88.01c0.04-4.69-1.56-6.72-5.81-8.4c-37.45-14.78-74.83-29.74-112.17-44.81
		c-3.68-1.48-5.91-1.17-8.97,1.64c-4.05,3.72-8.84,6.97-13.84,9.23c-3.9,1.76-5.42,3.39-5.42,7.85
		c0.14,122.53,0.11,245.05,0.12,367.58c0,1.91,0,3.81,0,6.53c12.3,0,24.11-0.01,35.93,0c17.34,0.02,17.34,0.02,23.85,16.2
		c4.17,10.39,8.33,20.78,12.47,31.19c0.14,0.36,0.02,0.83,0.02,1.8c-55.4,0-110.83,0-166.93,0c6.27-15.73,12.35-31.32,18.85-46.74
		c0.59-1.4,3.87-2.31,5.92-2.34c13.37-0.2,26.75-0.1,40.12-0.09c2.34,0,4.68,0,7.95,0c0-2.85,0-5.12,0-7.39
		c0-121.88-0.03-243.76,0.12-365.63c0.01-5.08-1.5-7.24-6.19-9.37c-18.37-8.33-26.29-23.29-25.33-43.89
		c-38.32-15.96-76.78-31.97-116.42-48.48c1.24,15.89-1.73,30.71,4.43,45.69c20.09,48.78,39.12,97.99,58.76,146.96
		c1.14,2.84,3.63,5.94,6.31,7.25c29.85,14.57,43.63,43.38,35.83,75.66c-0.19,0.79-0.2,1.62-0.33,2.72c1.49,0.11,2.77,0.38,4.02,0.27
		c6.22-0.56,8.46,2.56,8.58,8.42c0.61,32.36-8.62,61.55-30.06,85.84c-35.3,39.99-79.98,54.66-131.35,40.82
		c-51.09-13.76-82.1-48.59-92.74-100.69c-1.66-8.15-1.57-16.71-1.8-25.1c-0.21-7.55,0.63-8.22,6.96-9.62
		c0-11.07-1.84-22.3,0.35-32.67c5.87-27.8,24.21-44.37,51.64-50.76c3.75-0.87,5.47-2.23,6.61-5.69
		c16.54-50.1,33.3-100.12,49.62-150.29c1.74-5.34,1.28-11.47,1.43-17.25c0.22-8.41-0.18-16.83,0.16-25.23
		c0.17-4.18-1.38-6.24-5.16-7.57c-4.87-1.71-9.66-3.7-14.34-5.88c-5.89-2.74-8.28-8.35-6.23-13.84c2.14-5.72,8.04-8.36,14.36-6.21
		c3.44,1.17,6.77,2.69,10.45,4.18c0.57-1.13,1.13-2.01,1.48-2.96c2.06-5.62,6.1-8.3,12-7.59c5.52,0.66,9.56,5.21,8.95,11.53
		c-0.66,6.88,2.21,9.57,8.21,12.01c37.09,15.1,74.03,30.57,110.95,46.11c4.15,1.75,6.59,1.36,10.01-1.89c4.11-3.92,9.29-7,14.5-9.38
		c3.44-1.57,4.38-3.27,4.29-6.71c-0.2-7.54-0.17-15.1-0.03-22.65c0.14-7.86,4.31-12.51,10.93-12.53
		c6.71-0.02,10.77,4.56,10.85,12.48c0.09,9.05,0.02,18.1,0.02,27.32c1.75,0.72,3.31,1.37,4.88,2.02
		c16.88,6.99,26.91,22.07,26.6,40.54c-0.05,3.27,0.56,4.98,3.81,6.26c36.06,14.23,72.04,28.62,108.06,42.94
		c0.55,0.22,1.22,0.16,2.65,0.31c0-4.85-0.14-9.5,0.03-14.14c0.23-6.16,4.17-10,10.18-10.24c6.35-0.25,10.92,3.47,11.31,9.83
		c0.36,6.02,0.41,12.09,0.06,18.11c-0.25,4.34,1.05,6.92,5.33,8.11c2.68,0.75,5.28,1.88,7.82,3.05c6.24,2.88,8.75,8.52,6.52,14.29
		c-2.07,5.35-7.52,7.74-13.98,6.08c-1.44-0.37-2.84-0.87-4.96-1.52c0,30.23,0,60.02,0,90.48c20.79,4.05,38.16,14.33,49.9,32.8
		c11.69,18.37,13.68,38.2,7.52,59.6c14.53,0,28.5-0.02,42.47,0.01c12.25,0.02,16.7,4.62,16.5,16.94
		c-0.97,60.37-50.56,114.05-110.23,121.88c-60,7.87-111.79-30.18-134.19-81.61c-6.96-15.97-10.75-32.71-11.57-50.1
		c-0.4-8.51,0.22-8.11,8.49-7.78C387.65,364.93,404.25,364.47,421.28,364.47z M154.42,111.9c-14.29,42.99-28.14,84.67-41.7,125.46
		c8.22,4.04,15.98,6.91,22.65,11.41c6.62,4.46,12.13,10.56,18.24,16.05c12.51-16.66,29.65-25.23,50.78-27.01
		C187.73,195.83,171.33,154.5,154.42,111.9z M496.07,334.09c0-5.05,0-10.06,0-15.07c0.5-0.22,1-0.44,1.49-0.67
		c1.94,3,3.88,6,6.04,9.35c3.57,0,7.79,0,11.98,0c0.53-9.84-4.17-16.27-13.54-19.83c-3.02-1.14-5.62-3.37-8.41-5.1
		c0.23-0.43,0.47-0.87,0.7-1.3c-2.76,0-5.52,0-8.28,0c0.23,0.58,0.45,1.16,0.68,1.73c-2.46,1.5-4.76,3.44-7.41,4.41
		c-9,3.29-14.3,9.46-14.51,17.83c-0.22,8.41,4.09,14.73,11.71,16.68c8.67,2.22,9.72,7.31,8.85,14.52c-0.25,2.07-0.04,4.19-0.04,6.66
		c-7.63-1.29-7.22-7.38-8.19-12.23c-4.72,0-8.96,0-13.15,0c-1.59,11.78,0.09,13.87,10.84,13.88c10.78,0.01,21.57,0,32.35,0
		c8.57,0,10.77-2.3,10.34-11.04c-0.33-6.51-3.17-11.67-9.03-14.67C504.67,337.29,500.56,335.93,496.07,334.09z M231.16,288.3
		c0.66-9.48-4.18-15.67-14.07-18.99c-2.04-0.69-3.47-3.38-5.5-3.92c-3.07-0.81-6.57-1.19-9.61-0.51c-2.37,0.53-4.09,3.59-6.48,4.44
		c-8.45,3.01-13.77,8.98-14.13,16.65c-0.35,7.52,3.98,13.11,12.9,16.56c1.6,0.62,3.36,0.89,4.87,1.67c0.98,0.51,2.3,1.61,2.34,2.5
		c0.23,4.77,0.11,9.55,0.11,14.32c-0.93,0.3-1.85,0.6-2.78,0.91c-2.09-3.71-4.17-7.42-6.56-11.66c-3.29,0-7.65,0-12.58,0
		c1.34,4.68-1.83,11.13,5.28,11.77c8.68,0.79,17.48,0.19,26.52,0.19c0.24-5.17,0.44-9.7,0.65-14.24c0.56-0.23,1.13-0.46,1.69-0.69
		c1.58,1.74,4.4,3.44,4.48,5.24c0.14,3.17-1.41,6.4-2.27,9.69c1.55,0,3.91,0,6.27,0c10.07,0,13.76-5.05,9.62-14.51
		c-1.58-3.6-5.17-6.72-8.55-9.02c-3.25-2.21-7.42-3.06-11.13-4.49c0-4.78,0-9.36,0-13.93c0.5-0.22,0.99-0.44,1.49-0.66
		c1.89,2.81,3.77,5.62,5.83,8.67C223.09,288.3,227.14,288.3,231.16,288.3z M107.11,322.23c4.39,0,8.06-0.21,11.69,0.06
		c3.56,0.26,5.62-1.27,5.38-4.62c-0.3-4.37,0.06-9.85-2.37-12.76c-3.32-3.98-9-5.99-13.67-8.86c-1.68-1.04-4.6-1.93-4.79-3.19
		c-0.61-4.23-0.23-8.6-0.23-12.92c0.67-0.17,1.35-0.34,2.02-0.51c1.88,2.88,3.76,5.76,5.76,8.81c3.63,0,7.67,0,11.68,0
		c0.88-9.5-3.88-15.73-13.74-19.14c-2.75-0.95-5.07-3.13-7.58-4.74c0.22-0.46,0.45-0.92,0.67-1.37c-2.76,0-5.53,0-8.29,0
		c0.22,0.54,0.44,1.08,0.66,1.62c-2.73,1.54-5.33,3.4-8.22,4.54c-7.26,2.86-12.82,7.07-13.76,15.44
		c-0.81,7.22,1.82,13.98,8.53,15.71c11.69,3.01,13.29,10.45,12.1,20.33c-0.04,0.33,0.36,0.72,0.68,1.3c2.82,0,5.73,0,9.03,0
		c0.27-4.77,0.53-9.28,0.8-14.08C111.23,311.33,111.98,314.51,107.11,322.23z M83.9,310.84c-4.22,0-8.55,0-12.87,0
		c-0.08,12.59-0.96,12.17,17.04,10.86C86.79,318.37,85.45,314.89,83.9,310.84z"/>
	<path class="st1" d="M509.91,641.69c-124.96,0-248.65,0-372.99,0c0.8-1.41,1.34-2.66,2.14-3.7c11.33-14.67,22.57-29.42,34.19-43.86
		c1.7-2.11,5.19-3.93,7.86-3.93c94.66-0.2,189.33-0.19,283.99-0.06c2.25,0,5.31,0.99,6.61,2.61
		C484.34,608.58,496.68,624.64,509.91,641.69z"/>
	<path d="M495.97,363.06c0-4.81,0-9.61,0-14.42c0.59-0.33,1.17-0.66,1.76-0.99c1.79,2.7,4.92,5.36,4.99,8.1
		c0.07,2.76-2.9,5.59-4.54,8.39C497.44,363.78,496.71,363.42,495.97,363.06z"/>
	<path d="M483.01,331.79c-1.27-2.32-3.56-4.66-3.52-6.96c0.04-2.3,2.41-4.57,3.76-6.85c0.53,0.24,1.06,0.47,1.6,0.71
		c0,4.06,0,8.12,0,12.17C484.24,331.17,483.63,331.48,483.01,331.79z"/>
	<path d="M201.36,280.1c0,3.58,0,7.17,0,10.75c-0.43,0.37-0.85,0.73-1.28,1.1c-1.51-1.76-4.28-3.54-4.25-5.27
		c0.05-2.55,2.09-5.05,3.29-7.58C199.86,279.43,200.61,279.76,201.36,280.1z"/>
	<path d="M92.23,279.92c0,3.67,0,7.34,0,11.01c-0.52,0.33-1.05,0.66-1.57,0.99c-1.36-1.92-3.82-3.84-3.8-5.75
		c0.01-2.41,2.04-4.81,3.2-7.21C90.78,279.28,91.5,279.6,92.23,279.92z"/>
	<path class="st1" d="M158.09,461.82h-9.02c-68.07,0-123.25-55.18-123.25-123.25v-16.13h255.52v16.13
		C281.34,406.64,226.16,461.82,158.09,461.82z"/>
	<path class="st1" d="M495.03,504.33h-9.02c-68.07,0-123.25-55.18-123.25-123.25v-16.13h255.52v16.13
		C618.28,449.15,563.1,504.33,495.03,504.33z"/>
	<linearGradient id="SVGID_1_" gradientUnits="userSpaceOnUse" x1="25.8252" y1="392.1324" x2="281.3439" y2="392.1324">
		<stop  offset="0" style="stop-color:#FFFFFF;stop-opacity:0.4"/>
		<stop  offset="0.0691" style="stop-color:#FFFFFF;stop-opacity:0.3435"/>
		<stop  offset="0.4892" style="stop-color:#FFFFFF;stop-opacity:0"/>
		<stop  offset="0.7527" style="stop-color:#FAFAFA;stop-opacity:0.1032"/>
		<stop  offset="1" style="stop-color:#EFEFEF;stop-opacity:0.2"/>
	</linearGradient>
	<path class="st2" d="M158.09,461.82h-9.02c-68.07,0-123.25-55.18-123.25-123.25v-16.13h255.52v16.13
		C281.34,406.64,226.16,461.82,158.09,461.82z"/>
	
		<linearGradient id="SVGID_00000039098014715093188350000012808515088534492072_" gradientUnits="userSpaceOnUse" x1="362.7575" y1="434.6397" x2="618.2762" y2="434.6397">
		<stop  offset="0" style="stop-color:#FFFFFF;stop-opacity:0.4"/>
		<stop  offset="0.0691" style="stop-color:#FFFFFF;stop-opacity:0.3435"/>
		<stop  offset="0.4892" style="stop-color:#FFFFFF;stop-opacity:0"/>
		<stop  offset="0.7527" style="stop-color:#FAFAFA;stop-opacity:0.1032"/>
		<stop  offset="1" style="stop-color:#EFEFEF;stop-opacity:0.2"/>
	</linearGradient>
	<path style="fill:url(#SVGID_00000039098014715093188350000012808515088534492072_);" d="M495.03,504.33h-9.02
		c-68.07,0-123.25-55.18-123.25-123.25v-16.13h255.52v16.13C618.28,449.15,563.1,504.33,495.03,504.33z"/>
</g>
</svg>
