<?xml version="1.0" encoding="utf-8"?>
<!-- Generator: Adobe Illustrator 27.3.1, SVG Export Plug-In . SVG Version: 6.00 Build 0)  -->
<svg version="1.1" id="report" xmlns="http://www.w3.org/2000/svg" xmlns:xlink="http://www.w3.org/1999/xlink" x="0px" y="0px"
	 viewBox="0 0 640.62 640.62" style="enable-background:new 0 0 640.62 640.62;" xml:space="preserve">
<style type="text/css">
	.st0{fill:#5800B2;}
	.st1{fill:#360061;}
	.st2{fill:url(#SVGID_1_);}
	.st3{fill:url(#SVGID_00000010993623589980818910000004082647709544676286_);}
	.st4{fill:url(#SVGID_00000165945568187282358070000008293248413972831418_);}
	.st5{fill:url(#SVGID_00000080886888224740495640000017009893936446980507_);}
	.st6{fill:url(#SVGID_00000072974277635739826680000007055786906244622494_);}
	.st7{fill:url(#SVGID_00000182505308555293874640000007186762247460730035_);}
	.st8{fill:url(#SVGID_00000130629064971735068460000002829384845608888248_);}
	.st9{fill:url(#SVGID_00000021112659958426129280000006475471848279215031_);}
	.st10{fill:url(#SVGID_00000146498553630861989100000003682021449230523805_);}
	.st11{fill:url(#SVGID_00000024681084128196354920000016999933286101727872_);}
</style>
<g>
	<path class="st0" d="M271.55,16.45c0.7,0.35,1.36,0.81,2.1,1.03c15.86,4.74,24.9,16.24,24.94,32.79
		c0.14,49.95,0.16,99.91-0.01,149.86c-0.07,20.13-14.14,33.8-34.32,33.87c-23.79,0.09-47.57,0-71.36,0.03
		c-11.03,0.01-15.13,4.93-13.12,15.66c1.44,7.71,2.93,15.41,4.65,24.49c-12.4-8.83-24.29-16.07-34.72-25.02
		c-14.05-12.06-29.28-16.95-47.82-15.43c-17.13,1.4-34.47,0.36-51.71,0.28c-20.48-0.09-34.32-13.93-34.34-34.39
		c-0.05-49.36-0.03-98.72-0.01-148.07c0.01-17.58,7.91-28.36,24.8-34.07c0.51-0.17,0.91-0.67,1.35-1.02
		C118.51,16.45,195.03,16.45,271.55,16.45z M158.05,110.94c1.71,1.92,2.91,3.2,4.03,4.55c12.83,15.36,25.64,30.74,38.46,46.1
		c8.61,10.31,15.97,9.68,22.44-1.94c16.56-29.75,33.1-59.51,49.63-89.27c0.91-1.65,1.64-3.4,2.56-5.3
		c-6.42-3.54-12.41-6.84-18.73-10.32c-15.64,28.1-30.99,55.66-46.63,83.76c-2.02-2.33-3.46-3.93-4.83-5.58
		c-12.56-15.07-25.05-30.19-37.68-45.2c-7.18-8.54-14.45-8.11-20.66,1.13c-9.94,14.79-19.78,29.66-29.68,44.48
		c-1.16,1.74-2.42,3.41-3.89,5.48c-7.36-9.79-14.24-18.98-21.16-28.14c-7.01-9.28-14.59-9.31-21.58-0.12
		c-3.24,4.26-6.51,8.5-9.77,12.74c-0.5-0.19-0.99-0.38-1.49-0.57c0-24.43,0-48.86,0-73.15c-7.62,0-14.44,0-21.59,0
		c0,2.7,0,4.86,0,7.03c0,46.57,0,93.14,0,139.71c0,12.66,3.24,15.96,15.75,15.96c72.13,0.01,144.27,0,216.4,0c2.13,0,4.26,0,6.75,0
		c0-7.53,0-14.36,0-21.92c-72.34,0-144.35,0-216.99,0c0-7.61-0.05-14.5,0.03-21.38c0.03-2.75-0.63-6.17,0.72-8.13
		c6.55-9.51,13.67-18.63,20.94-28.36c7.59,10.08,14.61,19.4,21.63,28.72c7.75,10.29,15.1,10.07,22.3-0.71
		C135.88,144.23,146.74,127.92,158.05,110.94z"/>
	<path class="st1" d="M624.81,353.06c-2.43,4.87-5.29,9.27-11.06,10.71c-8.75,2.19-17.16-2.92-18.6-11.9
		c-3.22-20.09-6.13-40.23-9.05-60.36c-0.2-1.37,0.1-3.34,0.98-4.25c6.37-6.68,12.95-13.17,20.31-20.56
		c3.2,14.92,6.07,28.73,9.13,42.5c2.64,11.87,5.51,23.7,8.28,35.54C624.81,347.51,624.81,350.29,624.81,353.06z"/>
	<path class="st1" d="M141.31,484.83c5.19,5.33,9.86,10.12,15.19,15.59c18.64-19,37.14-37.87,56.2-57.29
		c2.6,10.36,5.01,19.29,6.95,28.33c0.29,1.35-1.38,3.46-2.64,4.74c-12.54,12.69-25.18,25.27-37.79,37.88
		c-1.39,1.39-2.72,2.83-4.24,4.42c5.31,4.92,10.47,9.69,16.26,15.04c12.17-12.19,25-25.04,37.98-38.04
		c4.37,7.45,8.64,14.74,12.8,21.84c-11.34,11.24-22.68,22.48-33.75,33.45c5.95,5.84,10.95,10.75,16.14,15.85
		c9.97-10.03,20.69-20.81,31.28-31.46c9.44,8.51,18.22,16.43,26.39,23.78c-19.93,19.93-40.16,40.15-60,59.99
		C155.81,552.69,88.64,485.51,21.72,418.57c44.98-44.98,90.5-90.49,136.41-136.39c11,7.86,22.44,15.93,33.76,24.16
		c4.65,3.38,9.3,5.44,14.7,1.84c5.1-3.4,5.36-8.34,4.27-13.73c-2.55-12.58-5.04-25.17-7.71-38.52c2.67-0.12,4.73-0.28,6.79-0.29
		c16.84-0.02,33.7-0.39,50.53,0.09c18.31,0.52,33.86-5.03,45.84-18.36c6.08,6.24,12.08,12.4,18.1,18.58
		c-1.19,0.53-3.65,1.59-6.08,2.71c-65,29.83-100.49,80.34-106.46,151.66c-0.2,2.44-1.67,5.23-3.42,7
		c-20.75,21-41.68,41.84-62.55,62.73C144.4,481.55,142.94,483.13,141.31,484.83z M144.5,347.91
		c-23.43,23.42-46.74,46.73-69.71,69.69c4.61,4.65,9.55,9.64,13.66,13.78c23.1-23.1,46.42-46.42,69.55-69.55
		C153.69,357.38,148.91,352.45,144.5,347.91z M178.41,381.73c-23.46,23.5-46.77,46.84-69.73,69.84c4.23,4.32,9.14,9.34,13.58,13.87
		c23.23-23.23,46.52-46.52,69.53-69.53C187.45,391.31,182.74,386.32,178.41,381.73z"/>
	<path class="st1" d="M581.57,261.7c-7.02-47.24-13.79-92.8-20.59-138.56c1.87-1.12,3.55-2.09,5.19-3.14
		c12.56-8.01,18.04-23.24,13.47-37.38c-4.56-14.12-17.48-22.88-32.84-22.27c-14.27,0.57-26.52,11.11-29.74,25.57
		c-3.12,14.02,3.74,28.88,16.92,35.34c3.84,1.88,5.5,4.13,6.09,8.25c5.04,34.88,10.27,69.72,15.42,104.58
		c0.05,0.32-0.19,0.69-0.44,1.52c-1.72-1.63-3.29-3.07-4.8-4.57c-47.51-47.5-95.02-95-142.53-142.5c-9.36-9.36-13.24-9.34-22.68,0.1
		c-19.9,19.9-39.79,39.81-59.69,59.7c-1.33,1.33-2.77,2.56-5.02,4.63c0-11.54-0.11-21.96,0.12-32.38c0.03-1.48,1.42-3.18,2.59-4.36
		c32.05-32.13,64.12-64.24,96.35-96.18c1.64-1.62,4.9-2.58,7.25-2.35c26.79,2.7,53.56,5.65,80.33,8.62
		c30.51,3.39,60.99,6.98,91.52,10.17c4.55,0.48,5.78,1.99,6.26,6.39c5.23,48.43,10.72,96.84,16.11,145.26
		c1.01,9.05,2.02,18.11,2.79,27.18c0.15,1.78-0.14,4.25-1.26,5.39C609.26,234.13,595.92,247.36,581.57,261.7z"/>
	<path class="st0" d="M385.26,570.94c-84.39-0.24-152.12-68.33-151.86-152.68c0.26-83.89,68.66-151.99,152.39-151.72
		c84.05,0.27,152.43,69.03,152.05,152.88C537.45,503.34,469.14,571.17,385.26,570.94z M516.03,418.8
		c0.14-71.66-57.96-129.96-129.91-130.36c-72-0.4-130.81,57.81-131.12,129.78c-0.31,71.95,58.07,130.85,129.92,131.09
		C457.18,549.55,515.89,491.11,516.03,418.8z"/>
	<path class="st1" d="M395.71,108.61c45.77,45.78,91.09,91.11,136.04,136.07c-12.3,12.25-25,24.91-36.91,36.78
		c-14.27-7.74-28.5-16.81-43.79-23.46c-30.92-13.44-63.38-16.16-96.61-10.49c-2.23,0.38-5.47-0.59-7.11-2.13
		c-8.91-8.44-17.6-17.14-26.04-26.06c-1.53-1.61-2.21-4.65-2.17-7.01c0.13-8.09,0.61-16.19,1.28-24.26c0.18-2.16,0.9-4.79,2.34-6.24
		C346.98,157.32,371.37,132.98,395.71,108.61z"/>
	<path class="st0" d="M505.39,545.02c5.59-6.07,10.79-11.72,16.32-17.72c1.01,0.86,2.06,1.62,2.97,2.53
		c24.25,24.22,48.53,48.41,72.63,72.77c2.39,2.41,5.18,5.93,5.13,8.88c-0.07,3.85-1.79,8.99-4.64,11.11
		c-2.84,2.13-7.95,1.46-12.06,1.5c-1.27,0.01-2.73-1.52-3.82-2.62C556.53,596.16,531.18,570.81,505.39,545.02z"/>
	<path class="st1" d="M558.2,252.47c1.19,8.16,2.57,16.88,3.65,25.64c0.19,1.52-0.43,3.65-1.47,4.72
		c-11.06,11.31-22.28,22.45-33.78,33.96c-5.26-6.3-10.28-12.31-14.92-17.86C527.29,283.33,542.74,267.91,558.2,252.47z"/>
	<path d="M549.15,81.85c5.99,0.25,10.59,5.37,10.25,11.4c-0.34,6-5.46,10.48-11.54,10.08c-5.77-0.38-10.11-5.21-9.95-11.07
		C538.09,86.22,543.09,81.59,549.15,81.85z"/>
	<path class="st0" d="M276.77,418.51c0.26-60.21,49.12-108.61,109.37-108.35c60.12,0.26,108.41,49.27,108,109.61
		c-0.4,59.63-49.09,107.97-108.65,107.88C325.48,527.57,276.51,478.41,276.77,418.51z M396.46,484.33
		c21.55-2.76,32.4-14.97,32.5-35.91c0.02-3.37,0.05-6.75-0.17-10.1c-0.94-14.71-11.2-26.84-25.72-29.44
		c-6.37-1.14-13.04-1.26-19.52-0.92c-21.71,1.14-19.84-6.95-19.66-21.31c0.01-0.4,0.04-0.79,0.09-1.19
		c0.69-6.07,4.36-9.69,10.53-9.93c5.54-0.22,11.12,0.22,16.64-0.15c8.42-0.57,14.95,1.42,16.5,10.59c7.27,0,13.96,0,20.61,0
		c1.54-15.97-8.35-26.29-31.93-33.23c0-6.69,0-13.55,0-20.65c-7.34,0-14.16,0-21.6,0c0,7.17,0,14.01,0,20.98
		c-1.9,0.4-3.23,0.73-4.57,0.94c-15.18,2.44-25.91,12.94-27.7,28.33c-0.79,6.8-0.62,13.91,0.39,20.69
		c2.17,14.51,14.23,25.23,28.84,26.36c5.13,0.4,10.3,0.3,15.45,0.31c18.72,0.03,20.77,2.15,20.07,20.92
		c-0.28,7.52-4.3,11.56-12.01,11.74c-6.34,0.15-12.69,0.03-19.03,0.03c-5.73,0-9.84-2.32-11.95-7.93c-0.44-1.16-1.91-2.7-2.95-2.74
		c-6.28-0.26-12.58-0.13-20.89-0.13c2.97,7.17,4.65,13.53,8.01,18.81c5.88,9.23,15.42,13.05,26.63,14.01c0,7.35,0,14.19,0,20.9
		c7.47,0,14.27,0,21.43,0C396.46,498.11,396.46,491.42,396.46,484.33z"/>
</g>
<g>
	<linearGradient id="SVGID_1_" gradientUnits="userSpaceOnUse" x1="14.1159" y1="-20.2738" x2="649.981" y2="626.5128">
		<stop  offset="0" style="stop-color:#FFFFFF;stop-opacity:0.4"/>
		<stop  offset="0.0691" style="stop-color:#FFFFFF;stop-opacity:0.3435"/>
		<stop  offset="0.4892" style="stop-color:#FFFFFF;stop-opacity:0"/>
		<stop  offset="0.7527" style="stop-color:#FAFAFA;stop-opacity:0.1032"/>
		<stop  offset="1" style="stop-color:#EFEFEF;stop-opacity:0.2"/>
	</linearGradient>
	<path class="st2" d="M271.55,16.45c0.7,0.35,1.36,0.81,2.1,1.03c15.86,4.74,24.9,16.24,24.94,32.79
		c0.14,49.95,0.16,99.91-0.01,149.86c-0.07,20.13-14.14,33.8-34.32,33.87c-23.79,0.09-47.57,0-71.36,0.03
		c-11.03,0.01-15.13,4.93-13.12,15.66c1.44,7.71,2.93,15.41,4.65,24.49c-12.4-8.83-24.29-16.07-34.72-25.02
		c-14.05-12.06-29.28-16.95-47.82-15.43c-17.13,1.4-34.47,0.36-51.71,0.28c-20.48-0.09-34.32-13.93-34.34-34.39
		c-0.05-49.36-0.03-98.72-0.01-148.07c0.01-17.58,7.91-28.36,24.8-34.07c0.51-0.17,0.91-0.67,1.35-1.02
		C118.51,16.45,195.03,16.45,271.55,16.45z M158.05,110.94c1.71,1.92,2.91,3.2,4.03,4.55c12.83,15.36,25.64,30.74,38.46,46.1
		c8.61,10.31,15.97,9.68,22.44-1.94c16.56-29.75,33.1-59.51,49.63-89.27c0.91-1.65,1.64-3.4,2.56-5.3
		c-6.42-3.54-12.41-6.84-18.73-10.32c-15.64,28.1-30.99,55.66-46.63,83.76c-2.02-2.33-3.46-3.93-4.83-5.58
		c-12.56-15.07-25.05-30.19-37.68-45.2c-7.18-8.54-14.45-8.11-20.66,1.13c-9.94,14.79-19.78,29.66-29.68,44.48
		c-1.16,1.74-2.42,3.41-3.89,5.48c-7.36-9.79-14.24-18.98-21.16-28.14c-7.01-9.28-14.59-9.31-21.58-0.12
		c-3.24,4.26-6.51,8.5-9.77,12.74c-0.5-0.19-0.99-0.38-1.49-0.57c0-24.43,0-48.86,0-73.15c-7.62,0-14.44,0-21.59,0
		c0,2.7,0,4.86,0,7.03c0,46.57,0,93.14,0,139.71c0,12.66,3.24,15.96,15.75,15.96c72.13,0.01,144.27,0,216.4,0c2.13,0,4.26,0,6.75,0
		c0-7.53,0-14.36,0-21.92c-72.34,0-144.35,0-216.99,0c0-7.61-0.05-14.5,0.03-21.38c0.03-2.75-0.63-6.17,0.72-8.13
		c6.55-9.51,13.67-18.63,20.94-28.36c7.59,10.08,14.61,19.4,21.63,28.72c7.75,10.29,15.1,10.07,22.3-0.71
		C135.88,144.23,146.74,127.92,158.05,110.94z"/>
	
		<linearGradient id="SVGID_00000103975777252359293140000006854913477988361900_" gradientUnits="userSpaceOnUse" x1="146.937" y1="-150.8521" x2="782.8021" y2="495.9344">
		<stop  offset="0" style="stop-color:#FFFFFF;stop-opacity:0.4"/>
		<stop  offset="0.0691" style="stop-color:#FFFFFF;stop-opacity:0.3435"/>
		<stop  offset="0.4892" style="stop-color:#FFFFFF;stop-opacity:0"/>
		<stop  offset="0.7527" style="stop-color:#FAFAFA;stop-opacity:0.1032"/>
		<stop  offset="1" style="stop-color:#EFEFEF;stop-opacity:0.2"/>
	</linearGradient>
	<path style="fill:url(#SVGID_00000103975777252359293140000006854913477988361900_);" d="M624.81,353.06
		c-2.43,4.87-5.29,9.27-11.06,10.71c-8.75,2.19-17.16-2.92-18.6-11.9c-3.22-20.09-6.13-40.23-9.05-60.36
		c-0.2-1.37,0.1-3.34,0.98-4.25c6.37-6.68,12.95-13.17,20.31-20.56c3.2,14.92,6.07,28.73,9.13,42.5c2.64,11.87,5.51,23.7,8.28,35.54
		C624.81,347.51,624.81,350.29,624.81,353.06z"/>
	
		<linearGradient id="SVGID_00000007427052100234328790000015242280647335931789_" gradientUnits="userSpaceOnUse" x1="-83.7504" y1="75.9399" x2="552.1148" y2="722.7264">
		<stop  offset="0" style="stop-color:#FFFFFF;stop-opacity:0.4"/>
		<stop  offset="0.0691" style="stop-color:#FFFFFF;stop-opacity:0.3435"/>
		<stop  offset="0.4892" style="stop-color:#FFFFFF;stop-opacity:0"/>
		<stop  offset="0.7527" style="stop-color:#FAFAFA;stop-opacity:0.1032"/>
		<stop  offset="1" style="stop-color:#EFEFEF;stop-opacity:0.2"/>
	</linearGradient>
	<path style="fill:url(#SVGID_00000007427052100234328790000015242280647335931789_);" d="M141.31,484.83
		c5.19,5.33,9.86,10.12,15.19,15.59c18.64-19,37.14-37.87,56.2-57.29c2.6,10.36,5.01,19.29,6.95,28.33
		c0.29,1.35-1.38,3.46-2.64,4.74c-12.54,12.69-25.18,25.27-37.79,37.88c-1.39,1.39-2.72,2.83-4.24,4.42
		c5.31,4.92,10.47,9.69,16.26,15.04c12.17-12.19,25-25.04,37.98-38.04c4.37,7.45,8.64,14.74,12.8,21.84
		c-11.34,11.24-22.68,22.48-33.75,33.45c5.95,5.84,10.95,10.75,16.14,15.85c9.97-10.03,20.69-20.81,31.28-31.46
		c9.44,8.51,18.22,16.43,26.39,23.78c-19.93,19.93-40.16,40.15-60,59.99C155.81,552.69,88.64,485.51,21.72,418.57
		c44.98-44.98,90.5-90.49,136.41-136.39c11,7.86,22.44,15.93,33.76,24.16c4.65,3.38,9.3,5.44,14.7,1.84
		c5.1-3.4,5.36-8.34,4.27-13.73c-2.55-12.58-5.04-25.17-7.71-38.52c2.67-0.12,4.73-0.28,6.79-0.29c16.84-0.02,33.7-0.39,50.53,0.09
		c18.31,0.52,33.86-5.03,45.84-18.36c6.08,6.24,12.08,12.4,18.1,18.58c-1.19,0.53-3.65,1.59-6.08,2.71
		c-65,29.83-100.49,80.34-106.46,151.66c-0.2,2.44-1.67,5.23-3.42,7c-20.75,21-41.68,41.84-62.55,62.73
		C144.4,481.55,142.94,483.13,141.31,484.83z M144.5,347.91c-23.43,23.42-46.74,46.73-69.71,69.69c4.61,4.65,9.55,9.64,13.66,13.78
		c23.1-23.1,46.42-46.42,69.55-69.55C153.69,357.38,148.91,352.45,144.5,347.91z M178.41,381.73
		c-23.46,23.5-46.77,46.84-69.73,69.84c4.23,4.32,9.14,9.34,13.58,13.87c23.23-23.23,46.52-46.52,69.53-69.53
		C187.45,391.31,182.74,386.32,178.41,381.73z"/>
	
		<linearGradient id="SVGID_00000078018185376429018030000016008805188075911041_" gradientUnits="userSpaceOnUse" x1="183.8196" y1="-187.112" x2="819.6848" y2="459.6745">
		<stop  offset="0" style="stop-color:#FFFFFF;stop-opacity:0.4"/>
		<stop  offset="0.0691" style="stop-color:#FFFFFF;stop-opacity:0.3435"/>
		<stop  offset="0.4892" style="stop-color:#FFFFFF;stop-opacity:0"/>
		<stop  offset="0.7527" style="stop-color:#FAFAFA;stop-opacity:0.1032"/>
		<stop  offset="1" style="stop-color:#EFEFEF;stop-opacity:0.2"/>
	</linearGradient>
	<path style="fill:url(#SVGID_00000078018185376429018030000016008805188075911041_);" d="M581.57,261.7
		c-7.02-47.24-13.79-92.8-20.59-138.56c1.87-1.12,3.55-2.09,5.19-3.14c12.56-8.01,18.04-23.24,13.47-37.38
		c-4.56-14.12-17.48-22.88-32.84-22.27c-14.27,0.57-26.52,11.11-29.74,25.57c-3.12,14.02,3.74,28.88,16.92,35.34
		c3.84,1.88,5.5,4.13,6.09,8.25c5.04,34.88,10.27,69.72,15.42,104.58c0.05,0.32-0.19,0.69-0.44,1.52c-1.72-1.63-3.29-3.07-4.8-4.57
		c-47.51-47.5-95.02-95-142.53-142.5c-9.36-9.36-13.24-9.34-22.68,0.1c-19.9,19.9-39.79,39.81-59.69,59.7
		c-1.33,1.33-2.77,2.56-5.02,4.63c0-11.54-0.11-21.96,0.12-32.38c0.03-1.48,1.42-3.18,2.59-4.36
		c32.05-32.13,64.12-64.24,96.35-96.18c1.64-1.62,4.9-2.58,7.25-2.35c26.79,2.7,53.56,5.65,80.33,8.62
		c30.51,3.39,60.99,6.98,91.52,10.17c4.55,0.48,5.78,1.99,6.26,6.39c5.23,48.43,10.72,96.84,16.11,145.26
		c1.01,9.05,2.02,18.11,2.79,27.18c0.15,1.78-0.14,4.25-1.26,5.39C609.26,234.13,595.92,247.36,581.57,261.7z"/>
	
		<linearGradient id="SVGID_00000113325164745226527340000009533262977933024696_" gradientUnits="userSpaceOnUse" x1="-16.5628" y1="9.8868" x2="619.3024" y2="656.6733">
		<stop  offset="0" style="stop-color:#FFFFFF;stop-opacity:0.4"/>
		<stop  offset="0.0691" style="stop-color:#FFFFFF;stop-opacity:0.3435"/>
		<stop  offset="0.4892" style="stop-color:#FFFFFF;stop-opacity:0"/>
		<stop  offset="0.7527" style="stop-color:#FAFAFA;stop-opacity:0.1032"/>
		<stop  offset="1" style="stop-color:#EFEFEF;stop-opacity:0.2"/>
	</linearGradient>
	<path style="fill:url(#SVGID_00000113325164745226527340000009533262977933024696_);" d="M385.26,570.94
		c-84.39-0.24-152.12-68.33-151.86-152.68c0.26-83.89,68.66-151.99,152.39-151.72c84.05,0.27,152.43,69.03,152.05,152.88
		C537.45,503.34,469.14,571.17,385.26,570.94z M516.03,418.8c0.14-71.66-57.96-129.96-129.91-130.36
		c-72-0.4-130.81,57.81-131.12,129.78c-0.31,71.95,58.07,130.85,129.92,131.09C457.18,549.55,515.89,491.11,516.03,418.8z"/>
	
		<linearGradient id="SVGID_00000110454507613576948620000011189463851911826355_" gradientUnits="userSpaceOnUse" x1="97.6681" y1="-102.4152" x2="733.5333" y2="544.3713">
		<stop  offset="0" style="stop-color:#FFFFFF;stop-opacity:0.4"/>
		<stop  offset="0.0691" style="stop-color:#FFFFFF;stop-opacity:0.3435"/>
		<stop  offset="0.4892" style="stop-color:#FFFFFF;stop-opacity:0"/>
		<stop  offset="0.7527" style="stop-color:#FAFAFA;stop-opacity:0.1032"/>
		<stop  offset="1" style="stop-color:#EFEFEF;stop-opacity:0.2"/>
	</linearGradient>
	<path style="fill:url(#SVGID_00000110454507613576948620000011189463851911826355_);" d="M395.71,108.61
		c45.77,45.78,91.09,91.11,136.04,136.07c-12.3,12.25-25,24.91-36.91,36.78c-14.27-7.74-28.5-16.81-43.79-23.46
		c-30.92-13.44-63.38-16.16-96.61-10.49c-2.23,0.38-5.47-0.59-7.11-2.13c-8.91-8.44-17.6-17.14-26.04-26.06
		c-1.53-1.61-2.21-4.65-2.17-7.01c0.13-8.09,0.61-16.19,1.28-24.26c0.18-2.16,0.9-4.79,2.34-6.24
		C346.98,157.32,371.37,132.98,395.71,108.61z"/>
	
		<linearGradient id="SVGID_00000062175166676167541720000010291036199018493839_" gradientUnits="userSpaceOnUse" x1="-9.6915" y1="3.1316" x2="626.1736" y2="649.9182">
		<stop  offset="0" style="stop-color:#FFFFFF;stop-opacity:0.4"/>
		<stop  offset="0.0691" style="stop-color:#FFFFFF;stop-opacity:0.3435"/>
		<stop  offset="0.4892" style="stop-color:#FFFFFF;stop-opacity:0"/>
		<stop  offset="0.7527" style="stop-color:#FAFAFA;stop-opacity:0.1032"/>
		<stop  offset="1" style="stop-color:#EFEFEF;stop-opacity:0.2"/>
	</linearGradient>
	<path style="fill:url(#SVGID_00000062175166676167541720000010291036199018493839_);" d="M505.39,545.02
		c5.59-6.07,10.79-11.72,16.32-17.72c1.01,0.86,2.06,1.62,2.97,2.53c24.25,24.22,48.53,48.41,72.63,72.77
		c2.39,2.41,5.18,5.93,5.13,8.88c-0.07,3.85-1.79,8.99-4.64,11.11c-2.84,2.13-7.95,1.46-12.06,1.5c-1.27,0.01-2.73-1.52-3.82-2.62
		C556.53,596.16,531.18,570.81,505.39,545.02z"/>
	
		<linearGradient id="SVGID_00000045585606985744335260000004039050705974497439_" gradientUnits="userSpaceOnUse" x1="130.3295" y1="-134.5251" x2="766.1946" y2="512.2615">
		<stop  offset="0" style="stop-color:#FFFFFF;stop-opacity:0.4"/>
		<stop  offset="0.0691" style="stop-color:#FFFFFF;stop-opacity:0.3435"/>
		<stop  offset="0.4892" style="stop-color:#FFFFFF;stop-opacity:0"/>
		<stop  offset="0.7527" style="stop-color:#FAFAFA;stop-opacity:0.1032"/>
		<stop  offset="1" style="stop-color:#EFEFEF;stop-opacity:0.2"/>
	</linearGradient>
	<path style="fill:url(#SVGID_00000045585606985744335260000004039050705974497439_);" d="M558.2,252.47
		c1.19,8.16,2.57,16.88,3.65,25.64c0.19,1.52-0.43,3.65-1.47,4.72c-11.06,11.31-22.28,22.45-33.78,33.96
		c-5.26-6.3-10.28-12.31-14.92-17.86C527.29,283.33,542.74,267.91,558.2,252.47z"/>
	
		<linearGradient id="SVGID_00000026875335124670108340000014516443997157921427_" gradientUnits="userSpaceOnUse" x1="229.5037" y1="-232.0247" x2="865.3689" y2="414.7618">
		<stop  offset="0" style="stop-color:#FFFFFF;stop-opacity:0.4"/>
		<stop  offset="0.0691" style="stop-color:#FFFFFF;stop-opacity:0.3435"/>
		<stop  offset="0.4892" style="stop-color:#FFFFFF;stop-opacity:0"/>
		<stop  offset="0.7527" style="stop-color:#FAFAFA;stop-opacity:0.1032"/>
		<stop  offset="1" style="stop-color:#EFEFEF;stop-opacity:0.2"/>
	</linearGradient>
	<path style="fill:url(#SVGID_00000026875335124670108340000014516443997157921427_);" d="M549.15,81.85
		c5.99,0.25,10.59,5.37,10.25,11.4c-0.34,6-5.46,10.48-11.54,10.08c-5.77-0.38-10.11-5.21-9.95-11.07
		C538.09,86.22,543.09,81.59,549.15,81.85z"/>
	
		<linearGradient id="SVGID_00000106105288178886709970000017016961670567490468_" gradientUnits="userSpaceOnUse" x1="-16.5267" y1="9.8513" x2="619.3385" y2="656.6379">
		<stop  offset="0" style="stop-color:#FFFFFF;stop-opacity:0.4"/>
		<stop  offset="0.0691" style="stop-color:#FFFFFF;stop-opacity:0.3435"/>
		<stop  offset="0.4892" style="stop-color:#FFFFFF;stop-opacity:0"/>
		<stop  offset="0.7527" style="stop-color:#FAFAFA;stop-opacity:0.1032"/>
		<stop  offset="1" style="stop-color:#EFEFEF;stop-opacity:0.2"/>
	</linearGradient>
	<path style="fill:url(#SVGID_00000106105288178886709970000017016961670567490468_);" d="M276.77,418.51
		c0.26-60.21,49.12-108.61,109.37-108.35c60.12,0.26,108.41,49.27,108,109.61c-0.4,59.63-49.09,107.97-108.65,107.88
		C325.48,527.57,276.51,478.41,276.77,418.51z M396.46,484.33c21.55-2.76,32.4-14.97,32.5-35.91c0.02-3.37,0.05-6.75-0.17-10.1
		c-0.94-14.71-11.2-26.84-25.72-29.44c-6.37-1.14-13.04-1.26-19.52-0.92c-21.71,1.14-19.84-6.95-19.66-21.31
		c0.01-0.4,0.04-0.79,0.09-1.19c0.69-6.07,4.36-9.69,10.53-9.93c5.54-0.22,11.12,0.22,16.64-0.15c8.42-0.57,14.95,1.42,16.5,10.59
		c7.27,0,13.96,0,20.61,0c1.54-15.97-8.35-26.29-31.93-33.23c0-6.69,0-13.55,0-20.65c-7.34,0-14.16,0-21.6,0c0,7.17,0,14.01,0,20.98
		c-1.9,0.4-3.23,0.73-4.57,0.94c-15.18,2.44-25.91,12.94-27.7,28.33c-0.79,6.8-0.62,13.91,0.39,20.69
		c2.17,14.51,14.23,25.23,28.84,26.36c5.13,0.4,10.3,0.3,15.45,0.31c18.72,0.03,20.77,2.15,20.07,20.92
		c-0.28,7.52-4.3,11.56-12.01,11.74c-6.34,0.15-12.69,0.03-19.03,0.03c-5.73,0-9.84-2.32-11.95-7.93c-0.44-1.16-1.91-2.7-2.95-2.74
		c-6.28-0.26-12.58-0.13-20.89-0.13c2.97,7.17,4.65,13.53,8.01,18.81c5.88,9.23,15.42,13.05,26.63,14.01c0,7.35,0,14.19,0,20.9
		c7.47,0,14.27,0,21.43,0C396.46,498.11,396.46,491.42,396.46,484.33z"/>
</g>
</svg>
