<?xml version="1.0" encoding="utf-8"?>
<!-- Generator: Adobe Illustrator 26.2.1, SVG Export Plug-In . SVG Version: 6.00 Build 0)  -->
<svg version="1.1" id="report" xmlns="http://www.w3.org/2000/svg" xmlns:xlink="http://www.w3.org/1999/xlink" x="0px" y="0px"
	 viewBox="0 0 640.62 640.62" style="enable-background:new 0 0 640.62 640.62;" xml:space="preserve">
<style type="text/css">
	.st0{fill:#360061;}
	.st1{fill:#5800B2;}
	.st2{fill:url(#SVGID_1_);}
	.st3{fill:url(#SVGID_00000009583780754236305230000006750004911953670038_);}
</style>
<g>
	<path class="st0" d="M329.93,605.56c-94.47,0-188.93,0-283.4,0c-29.68,0-46.46-16.72-46.46-46.35
		c-0.01-166.34-0.01-332.68,0-499.01c0-15.06,4.9-22.36,16.45-24.65c13.36-2.65,24.03,5.62,24.77,19.25c0.15,2.79,0.1,5.59,0.1,8.39
		c0,157.95,0,315.89,0.01,473.84c0,3.01-0.06,6.04,0.29,9.02c1.27,10.68,7.82,17.03,18.57,18.06c2.56,0.24,5.16,0.13,7.74,0.13
		c183.77,0.01,367.54,0,551.3,0.01c14.49,0,22.16,8.23,21.16,22.68c-0.66,9.57-6.13,16.03-15.59,17.94
		c-3.13,0.63-6.4,0.68-9.61,0.68C520.16,605.57,425.04,605.56,329.93,605.56z"/>
	<path class="st1" d="M202.56,320.54c-13.81,23.44-27.12,45.51-39.89,67.9c-5.81,10.18-13.36,15.51-25.52,14.68
		c-10.71-0.73-21.51-0.08-32.27-0.17c-12.08-0.11-22.19-10.03-22.07-21.48c0.12-11.88,8.55-19.67,21.55-19.8
		c7.75-0.08,15.51,0.29,23.23-0.19c2.48-0.15,5.8-1.73,7.08-3.73c18.1-27.98,36.2-55.98,53.58-84.41
		c3.66-5.99,6.91-10.59,14.01-12.57c11.25-3.15,16.49-0.83,21.15,10.01c17.23,40.06,34.62,80.06,51.96,120.07
		c0.33,0.77,0.81,1.48,1.77,3.2c3.46-11.26,6.69-21.66,9.86-32.08c25.32-83.23,50.64-166.46,75.91-249.71
		c4.05-13.35,13.64-19.07,26.27-15.2c5.6,1.72,9.92,4.98,11.68,10.98c14.11,48.24,28.24,96.47,42.41,144.69
		c10.6,36.07,21.26,72.11,32,108.52c30.28,0,60.53,0,90.8,0c9.42-17.2,24.25-23.51,44.6-18.97c17.12,3.82,28.63,17.78,29.72,36.02
		c1.35,22.73-12.09,40.46-34.17,44.63c-15.56,2.94-27.15-4.24-36.52-15.67c-2.62-3.19-5.09-4.4-9.13-4.38
		c-32.06,0.16-64.13,0.13-96.19,0.07c-13.08-0.02-18.79-4.99-22.41-17.49c-18.64-64.38-37.48-128.7-56.26-193.03
		c-0.17-0.57-0.56-1.07-1.43-2.67c-1,2.88-1.79,4.93-2.42,7.02c-26.25,86.54-52.38,173.11-78.95,259.55
		c-1.63,5.29-5.97,10.45-10.38,14.02c-7.53,6.11-13.66,5.32-20.11-2.01c-4.58-5.21-9.03-10.95-11.85-17.22
		c-18.35-40.74-36.24-81.69-54.29-122.57C205.26,326.26,204.16,323.99,202.56,320.54z"/>
	<linearGradient id="SVGID_1_" gradientUnits="userSpaceOnUse" x1="0.0644" y1="320.3107" x2="640.557" y2="320.3107">
		<stop  offset="0" style="stop-color:#FFFFFF;stop-opacity:0.4"/>
		<stop  offset="0.0691" style="stop-color:#FFFFFF;stop-opacity:0.3435"/>
		<stop  offset="0.4892" style="stop-color:#FFFFFF;stop-opacity:0"/>
		<stop  offset="0.7527" style="stop-color:#FAFAFA;stop-opacity:0.1032"/>
		<stop  offset="1" style="stop-color:#EFEFEF;stop-opacity:0.2"/>
	</linearGradient>
	<path class="st2" d="M329.93,605.56c-94.47,0-188.93,0-283.4,0c-29.68,0-46.46-16.72-46.46-46.35
		c-0.01-166.34-0.01-332.68,0-499.01c0-15.06,4.9-22.36,16.45-24.65c13.36-2.65,24.03,5.62,24.77,19.25c0.15,2.79,0.1,5.59,0.1,8.39
		c0,157.95,0,315.89,0.01,473.84c0,3.01-0.06,6.04,0.29,9.02c1.27,10.68,7.82,17.03,18.57,18.06c2.56,0.24,5.16,0.13,7.74,0.13
		c183.77,0.01,367.54,0,551.3,0.01c14.49,0,22.16,8.23,21.16,22.68c-0.66,9.57-6.13,16.03-15.59,17.94
		c-3.13,0.63-6.4,0.68-9.61,0.68C520.16,605.57,425.04,605.56,329.93,605.56z"/>
	
		<linearGradient id="SVGID_00000033369906499778739020000003803872442699647411_" gradientUnits="userSpaceOnUse" x1="82.8099" y1="285.1535" x2="640.4987" y2="285.1535">
		<stop  offset="0" style="stop-color:#FFFFFF;stop-opacity:0.4"/>
		<stop  offset="0.0691" style="stop-color:#FFFFFF;stop-opacity:0.3435"/>
		<stop  offset="0.4892" style="stop-color:#FFFFFF;stop-opacity:0"/>
		<stop  offset="0.7527" style="stop-color:#FAFAFA;stop-opacity:0.1032"/>
		<stop  offset="1" style="stop-color:#EFEFEF;stop-opacity:0.2"/>
	</linearGradient>
	<path style="fill:url(#SVGID_00000033369906499778739020000003803872442699647411_);" d="M202.56,320.54
		c-13.81,23.44-27.12,45.51-39.89,67.9c-5.81,10.18-13.36,15.51-25.52,14.68c-10.71-0.73-21.51-0.08-32.27-0.17
		c-12.08-0.11-22.19-10.03-22.07-21.48c0.12-11.88,8.55-19.67,21.55-19.8c7.75-0.08,15.51,0.29,23.23-0.19
		c2.48-0.15,5.8-1.73,7.08-3.73c18.1-27.98,36.2-55.98,53.58-84.41c3.66-5.99,6.91-10.59,14.01-12.57
		c11.25-3.15,16.49-0.83,21.15,10.01c17.23,40.06,34.62,80.06,51.96,120.07c0.33,0.77,0.81,1.48,1.77,3.2
		c3.46-11.26,6.69-21.66,9.86-32.08c25.32-83.23,50.64-166.46,75.91-249.71c4.05-13.35,13.64-19.07,26.27-15.2
		c5.6,1.72,9.92,4.98,11.68,10.98c14.11,48.24,28.24,96.47,42.41,144.69c10.6,36.07,21.26,72.11,32,108.52c30.28,0,60.53,0,90.8,0
		c9.42-17.2,24.25-23.51,44.6-18.97c17.12,3.82,28.63,17.78,29.72,36.02c1.35,22.73-12.09,40.46-34.17,44.63
		c-15.56,2.94-27.15-4.24-36.52-15.67c-2.62-3.19-5.09-4.4-9.13-4.38c-32.06,0.16-64.13,0.13-96.19,0.07
		c-13.08-0.02-18.79-4.99-22.41-17.49c-18.64-64.38-37.48-128.7-56.26-193.03c-0.17-0.57-0.56-1.07-1.43-2.67
		c-1,2.88-1.79,4.93-2.42,7.02c-26.25,86.54-52.38,173.11-78.95,259.55c-1.63,5.29-5.97,10.45-10.38,14.02
		c-7.53,6.11-13.66,5.32-20.11-2.01c-4.58-5.21-9.03-10.95-11.85-17.22c-18.35-40.74-36.24-81.69-54.29-122.57
		C205.26,326.26,204.16,323.99,202.56,320.54z"/>
</g>
</svg>
