<svg width="625" height="322" viewBox="0 0 625 322" fill="none" xmlns="http://www.w3.org/2000/svg">
<mask id="mask0_20_282" style="mask-type:alpha" maskUnits="userSpaceOnUse" x="0" y="0" width="625" height="322">
<rect width="625" height="322" fill="url(#paint0_linear_20_282)"/>
</mask>
<g mask="url(#mask0_20_282)">
<rect width="625" height="322" fill="url(#paint1_linear_20_282)"/>
<g clip-path="url(#clip0_20_282)">
<path d="M392.529 149.978H639.798C644.255 149.978 647.869 153.597 647.869 158.058V318.092H384.459V158.058C384.459 153.597 388.073 149.978 392.529 149.978Z" fill="url(#paint2_linear_20_282)"/>
<path d="M398.143 156.419H634.173C637.483 156.419 640.173 159.112 640.173 162.426V311.64H392.143V162.426C392.143 159.112 394.833 156.419 398.143 156.419Z" fill="url(#paint3_linear_20_282)"/>
<path d="M659.939 318.092H372.388V325.785H659.939V318.092Z" fill="url(#paint4_linear_20_282)"/>
<path d="M516.158 293.783C530.343 293.783 541.843 282.271 541.843 268.069C541.843 253.868 530.343 242.355 516.158 242.355C501.972 242.355 490.473 253.868 490.473 268.069C490.473 282.271 501.972 293.783 516.158 293.783Z" fill="url(#paint5_linear_20_282)"/>
<path d="M539.039 273.45C541.994 260.806 534.151 248.158 521.521 245.199C508.892 242.24 496.257 250.092 493.302 262.736C490.347 275.38 498.189 288.029 510.819 290.988C523.449 293.946 536.083 286.095 539.039 273.45Z" fill="url(#paint6_linear_20_282)"/>
<path d="M516.158 268.139C520.156 268.139 523.398 264.894 523.398 260.891C523.398 256.888 520.156 253.643 516.158 253.643C512.159 253.643 508.918 256.888 508.918 260.891C508.918 264.894 512.159 268.139 516.158 268.139Z" fill="white"/>
<path d="M527.363 282.507H504.953V279.989C504.953 273.795 509.971 268.772 516.158 268.772C522.345 268.772 527.363 273.795 527.363 279.989V282.507Z" fill="white"/>
<path d="M459.443 205.517H408.249C407.112 205.517 406.19 206.439 406.19 207.578C406.19 208.716 407.112 209.638 408.249 209.638H459.443C460.58 209.638 461.501 208.716 461.501 207.578C461.501 206.439 460.58 205.517 459.443 205.517Z" fill="#3580C4"/>
<path d="M422.986 218.046H408.249C407.114 218.046 406.19 217.121 406.19 215.985C406.19 214.849 407.114 213.924 408.249 213.924H422.986C424.12 213.924 425.044 214.849 425.044 215.985C425.044 217.121 424.12 218.046 422.986 218.046Z" fill="#3580C4"/>
<path d="M459.525 218.046H431.372C430.237 218.046 429.313 217.121 429.313 215.985C429.313 214.849 430.237 213.924 431.372 213.924H459.525C460.659 213.924 461.583 214.849 461.583 215.985C461.583 217.121 460.659 218.046 459.525 218.046Z" fill="#3580C4"/>
<path d="M459.443 226.617H424.378C423.243 226.617 422.319 225.692 422.319 224.556C422.319 223.421 423.243 222.496 424.378 222.496H459.443C460.577 222.496 461.501 223.421 461.501 224.556C461.501 225.692 460.577 226.617 459.443 226.617Z" fill="#3580C4"/>
<path d="M416.354 226.617H408.249C407.114 226.617 406.19 225.692 406.19 224.556C406.19 223.421 407.114 222.496 408.249 222.496H416.354C417.489 222.496 418.413 223.421 418.413 224.556C418.413 225.692 417.489 226.617 416.354 226.617Z" fill="#3580C4"/>
<path d="M444.799 230.903H459.536C460.671 230.903 461.595 231.828 461.595 232.964C461.595 234.1 460.671 235.025 459.536 235.025H444.799C443.665 235.025 442.741 234.1 442.741 232.964C442.741 231.828 443.665 230.903 444.799 230.903Z" fill="#3580C4"/>
<path d="M408.249 230.903H436.401C437.536 230.903 438.46 231.828 438.46 232.964C438.46 234.1 437.536 235.025 436.401 235.025H408.249C407.114 235.025 406.19 234.1 406.19 232.964C406.19 231.828 407.114 230.903 408.249 230.903Z" fill="#3580C4"/>
<path d="M572.873 209.638H624.067C625.202 209.638 626.126 208.713 626.126 207.578C626.126 206.442 625.202 205.517 624.067 205.517H572.873C571.738 205.517 570.814 206.442 570.814 207.578C570.814 208.713 571.738 209.638 572.873 209.638Z" fill="#3580C4"/>
<path d="M609.342 218.046H624.079C625.213 218.046 626.137 217.121 626.137 215.985C626.137 214.849 625.213 213.924 624.079 213.924H609.342C608.207 213.924 607.283 214.849 607.283 215.985C607.283 217.121 608.207 218.046 609.342 218.046Z" fill="#3580C4"/>
<path d="M572.791 218.046H600.944C602.078 218.046 603.002 217.121 603.002 215.985C603.002 214.849 602.078 213.924 600.944 213.924H572.791C571.656 213.924 570.732 214.849 570.732 215.985C570.732 217.121 571.656 218.046 572.791 218.046Z" fill="#3580C4"/>
<path d="M572.873 226.617H607.938C609.072 226.617 609.997 225.692 609.997 224.556C609.997 223.421 609.072 222.496 607.938 222.496H572.873C571.738 222.496 570.814 223.421 570.814 224.556C570.814 225.692 571.738 226.617 572.873 226.617Z" fill="#3580C4"/>
<path d="M615.962 226.617H624.067C625.202 226.617 626.126 225.692 626.126 224.556C626.126 223.421 625.202 222.496 624.067 222.496H615.962C614.827 222.496 613.903 223.421 613.903 224.556C613.903 225.692 614.827 226.617 615.962 226.617Z" fill="#3580C4"/>
<path d="M587.528 230.903H572.791C571.656 230.903 570.732 231.828 570.732 232.964C570.732 234.1 571.656 235.025 572.791 235.025H587.528C588.663 235.025 589.587 234.1 589.587 232.964C589.587 231.828 588.663 230.903 587.528 230.903Z" fill="#3580C4"/>
<path d="M624.079 230.903H595.926C594.791 230.903 593.867 231.828 593.867 232.964C593.867 234.1 594.791 235.025 595.926 235.025H624.079C625.213 235.025 626.137 234.1 626.137 232.964C626.137 231.828 625.213 230.903 624.079 230.903Z" fill="#3580C4"/>
<path d="M459.443 255.809H408.249C407.114 255.809 406.19 254.884 406.19 253.748C406.19 252.612 407.114 251.687 408.249 251.687H459.443C460.577 251.687 461.501 252.612 461.501 253.748C461.501 254.884 460.577 255.809 459.443 255.809Z" fill="#3580C4"/>
<path d="M422.986 264.217H408.249C407.114 264.217 406.19 263.292 406.19 262.156C406.19 261.02 407.114 260.095 408.249 260.095H422.986C424.12 260.095 425.044 261.02 425.044 262.156C425.044 263.292 424.12 264.217 422.986 264.217Z" fill="#3580C4"/>
<path d="M459.525 264.217H431.372C430.237 264.217 429.313 263.292 429.313 262.156C429.313 261.02 430.237 260.095 431.372 260.095H459.525C460.659 260.095 461.583 261.02 461.583 262.156C461.583 263.292 460.659 264.217 459.525 264.217Z" fill="#3580C4"/>
<path d="M459.443 272.788H424.378C423.243 272.788 422.319 271.863 422.319 270.727C422.319 269.591 423.243 268.666 424.378 268.666H459.443C460.577 268.666 461.501 269.591 461.501 270.727C461.501 271.863 460.577 272.788 459.443 272.788Z" fill="#3580C4"/>
<path d="M416.354 272.788H408.249C407.114 272.788 406.19 271.863 406.19 270.727C406.19 269.591 407.114 268.666 408.249 268.666H416.354C417.489 268.666 418.413 269.591 418.413 270.727C418.413 271.863 417.489 272.788 416.354 272.788Z" fill="#3580C4"/>
<path d="M444.799 277.074H459.536C460.671 277.074 461.595 277.999 461.595 279.135C461.595 280.27 460.671 281.195 459.536 281.195H444.799C443.665 281.195 442.741 280.27 442.741 279.135C442.741 277.999 443.665 277.074 444.799 277.074Z" fill="#3580C4"/>
<path d="M408.249 277.074H436.401C437.536 277.074 438.46 277.999 438.46 279.135C438.46 280.27 437.536 281.195 436.401 281.195H408.249C407.114 281.195 406.19 280.27 406.19 279.135C406.19 277.999 407.114 277.074 408.249 277.074Z" fill="#3580C4"/>
<path d="M572.873 255.809H624.067C625.202 255.809 626.126 254.884 626.126 253.748C626.126 252.612 625.202 251.687 624.067 251.687H572.873C571.738 251.687 570.814 252.612 570.814 253.748C570.814 254.884 571.738 255.809 572.873 255.809Z" fill="#3580C4"/>
<path d="M609.342 264.217H624.079C625.213 264.217 626.137 263.292 626.137 262.156C626.137 261.02 625.213 260.095 624.079 260.095H609.342C608.207 260.095 607.283 261.02 607.283 262.156C607.283 263.292 608.207 264.217 609.342 264.217Z" fill="#3580C4"/>
<path d="M572.791 264.217H600.944C602.078 264.217 603.002 263.292 603.002 262.156C603.002 261.02 602.078 260.095 600.944 260.095H572.791C571.656 260.095 570.732 261.02 570.732 262.156C570.732 263.292 571.656 264.217 572.791 264.217Z" fill="#3580C4"/>
<path d="M572.873 272.788H607.938C609.072 272.788 609.997 271.863 609.997 270.727C609.997 269.591 609.072 268.666 607.938 268.666H572.873C571.738 268.666 570.814 269.591 570.814 270.727C570.814 271.863 571.738 272.788 572.873 272.788Z" fill="#3580C4"/>
<path d="M615.962 272.788H624.067C625.202 272.788 626.126 271.863 626.126 270.727C626.126 269.591 625.202 268.666 624.067 268.666H615.962C614.827 268.666 613.903 269.591 613.903 270.727C613.903 271.863 614.827 272.788 615.962 272.788Z" fill="#3580C4"/>
<path d="M587.528 277.074H572.791C571.656 277.074 570.732 277.999 570.732 279.135C570.732 280.27 571.656 281.195 572.791 281.195H587.528C588.663 281.195 589.587 280.27 589.587 279.135C589.587 277.999 588.663 277.074 587.528 277.074Z" fill="#3580C4"/>
<path d="M624.079 277.074H595.926C594.791 277.074 593.867 277.999 593.867 279.135C593.867 280.27 594.791 281.195 595.926 281.195H624.079C625.213 281.195 626.137 280.27 626.137 279.135C626.137 277.999 625.213 277.074 624.079 277.074Z" fill="#3580C4"/>
<path d="M516.158 189.006C524.207 189.006 530.731 182.474 530.731 174.416C530.731 166.358 524.207 159.826 516.158 159.826C508.109 159.826 501.584 166.358 501.584 174.416C501.584 182.474 508.109 189.006 516.158 189.006Z" stroke="white" stroke-width="0.49" stroke-miterlimit="10"/>
<path opacity="0.95" d="M516.158 196.196C528.173 196.196 537.913 186.445 537.913 174.416C537.913 162.388 528.173 152.636 516.158 152.636C504.143 152.636 494.403 162.388 494.403 174.416C494.403 186.445 504.143 196.196 516.158 196.196Z" stroke="white" stroke-width="0.49" stroke-miterlimit="10"/>
<path opacity="0.89" d="M516.158 203.386C532.139 203.386 545.094 190.416 545.094 174.416C545.094 158.417 532.139 145.447 516.158 145.447C500.177 145.447 487.221 158.417 487.221 174.416C487.221 190.416 500.177 203.386 516.158 203.386Z" stroke="white" stroke-width="0.49" stroke-miterlimit="10"/>
<path opacity="0.84" d="M551.44 182.063C555.664 162.552 543.29 143.307 523.802 139.078C504.313 134.849 485.091 147.238 480.866 166.748C476.642 186.259 489.016 205.503 508.505 209.732C527.993 213.961 547.216 201.573 551.44 182.063Z" stroke="white" stroke-width="0.49" stroke-miterlimit="10"/>
<path opacity="0.79" d="M558.444 183.662C563.55 160.28 548.755 137.182 525.399 132.071C502.043 126.96 478.971 141.772 473.866 165.154C468.761 188.536 483.556 211.635 506.911 216.746C530.267 221.857 553.339 207.045 558.444 183.662Z" stroke="white" stroke-width="0.49" stroke-miterlimit="10"/>
<path opacity="0.74" d="M565.448 185.256C571.428 158.001 554.207 131.052 526.983 125.065C499.759 119.077 472.841 136.318 466.86 163.574C460.88 190.829 478.101 217.777 505.325 223.765C532.549 229.752 559.467 212.511 565.448 185.256Z" stroke="white" stroke-width="0.49" stroke-miterlimit="10"/>
<path opacity="0.68" d="M572.445 186.832C579.296 155.71 559.65 124.919 528.563 118.059C497.476 111.2 466.721 130.868 459.869 161.991C453.017 193.113 472.663 223.904 503.75 230.764C534.837 237.623 565.593 217.955 572.445 186.832Z" stroke="white" stroke-width="0.49" stroke-miterlimit="10"/>
<path opacity="0.63" d="M579.455 188.411C587.179 153.415 565.103 118.776 530.147 111.043C495.191 103.31 460.592 125.412 452.868 160.408C445.144 195.404 467.22 230.042 502.176 237.775C537.132 245.508 571.731 223.407 579.455 188.411Z" stroke="white" stroke-width="0.49" stroke-miterlimit="10"/>
<path opacity="0.58" d="M567.073 225.387C595.192 197.236 595.192 151.595 567.073 123.445C538.955 95.2944 493.366 95.2944 465.247 123.445C437.129 151.595 437.129 197.236 465.247 225.387C493.366 253.538 538.955 253.538 567.073 225.387Z" stroke="white" stroke-width="0.49" stroke-miterlimit="10"/>
<path opacity="0.53" d="M572.151 230.471C603.074 199.513 603.074 149.319 572.151 118.361C541.228 87.4028 491.092 87.4028 460.169 118.361C429.246 149.319 429.246 199.513 460.169 230.471C491.092 261.429 541.228 261.429 572.151 230.471Z" stroke="white" stroke-width="0.49" stroke-miterlimit="10"/>
<path opacity="0.47" d="M577.221 235.546C610.944 201.785 610.944 147.047 577.221 113.285C543.498 79.524 488.822 79.524 455.099 113.285C421.377 147.047 421.377 201.785 455.099 235.546C488.822 269.308 543.498 269.308 577.221 235.546Z" stroke="white" stroke-width="0.49" stroke-miterlimit="10"/>
<path opacity="0.42" d="M582.299 240.63C618.827 204.061 618.827 144.771 582.299 108.202C545.772 71.6324 486.549 71.6324 450.021 108.202C413.494 144.771 413.494 204.061 450.021 240.63C486.549 277.199 545.772 277.199 582.299 240.63Z" stroke="white" stroke-width="0.49" stroke-miterlimit="10"/>
<path opacity="0.37" d="M587.377 245.714C626.709 206.337 626.709 142.495 587.377 103.118C548.045 63.7408 484.275 63.7408 444.943 103.118C405.611 142.495 405.611 206.337 444.943 245.714C484.275 285.091 548.045 285.091 587.377 245.714Z" stroke="white" stroke-width="0.49" stroke-miterlimit="10"/>
<path opacity="0.32" d="M592.447 250.79C634.579 208.61 634.579 140.222 592.447 98.0421C550.315 55.8621 482.006 55.8621 439.874 98.0422C397.742 140.222 397.742 208.61 439.874 250.79C482.006 292.97 550.315 292.97 592.447 250.79Z" stroke="white" stroke-width="0.49" stroke-miterlimit="10"/>
<path opacity="0.26" d="M597.525 255.874C642.462 210.886 642.462 137.946 597.525 92.9583C552.589 47.9705 479.732 47.9705 434.796 92.9583C389.859 137.946 389.859 210.886 434.796 255.874C479.732 300.861 552.589 300.861 597.525 255.874Z" stroke="white" stroke-width="0.49" stroke-miterlimit="10"/>
<path opacity="0.21" d="M602.603 260.957C650.344 213.162 650.344 135.67 602.603 87.8744C554.862 40.0789 477.459 40.0789 429.717 87.8744C381.976 135.67 381.976 213.162 429.717 260.957C477.459 308.753 554.862 308.753 602.603 260.957Z" stroke="white" stroke-width="0.49" stroke-miterlimit="10"/>
<path opacity="0.16" d="M607.673 266.033C658.214 215.434 658.214 133.398 607.673 82.7988C557.132 32.2001 475.189 32.2001 424.648 82.7989C374.107 133.398 374.107 215.434 424.648 266.033C475.189 316.632 557.132 316.632 607.673 266.033Z" stroke="white" stroke-width="0.49" stroke-miterlimit="10"/>
<path opacity="0.11" d="M612.751 271.117C666.097 217.71 666.097 131.121 612.751 77.715C559.405 24.3086 472.915 24.3086 419.57 77.715C366.224 131.121 366.224 217.71 419.57 271.117C472.915 324.523 559.406 324.523 612.751 271.117Z" stroke="white" stroke-width="0.49" stroke-miterlimit="10"/>
<path opacity="0.05" d="M617.829 276.201C673.979 219.987 673.979 128.845 617.829 72.6311C561.679 16.4169 470.642 16.417 414.491 72.6312C358.341 128.845 358.341 219.987 414.491 276.201C470.642 332.415 561.679 332.415 617.829 276.201Z" stroke="white" stroke-width="0.49" stroke-miterlimit="10"/>
<path d="M574.803 140.271C533.69 134.533 516.17 106.77 516.17 106.77C516.17 106.77 498.637 134.522 457.536 140.271C457.536 140.271 441.922 213.971 516.17 234.065C590.417 213.959 574.803 140.271 574.803 140.271Z" fill="url(#paint7_linear_20_282)"/>
<path d="M571.504 141.957C532.708 136.536 516.17 110.342 516.17 110.342C516.17 110.342 499.631 136.536 460.835 141.957C460.835 141.957 446.098 211.512 516.17 230.482C586.242 211.512 571.504 141.957 571.504 141.957Z" fill="url(#paint8_linear_20_282)"/>
<path d="M567.177 144.182C531.41 139.182 516.158 115.037 516.158 115.037C516.158 115.037 500.906 139.182 465.139 144.182C465.139 144.182 451.548 208.304 516.158 225.786C580.756 208.304 567.177 144.182 567.177 144.182Z" fill="url(#paint9_linear_20_282)"/>
<path d="M537.819 162.297H534.474V158.924C534.474 148.819 526.263 140.587 516.17 140.587C506.076 140.587 497.853 148.807 497.853 158.924V162.297H494.508C492.227 162.297 490.379 164.147 490.379 166.43V196.102C490.379 198.386 492.227 200.236 494.508 200.236H537.831C540.112 200.236 541.96 198.386 541.96 196.102V166.43C541.96 164.147 540.112 162.297 537.831 162.297H537.819ZM501.327 158.924C501.327 150.739 507.982 144.077 516.158 144.077C524.333 144.077 530.989 150.739 530.989 158.924V162.297H501.315V158.924H501.327ZM518.462 178.702V187.636C518.462 188.913 517.433 189.943 516.158 189.943C514.883 189.943 513.854 188.913 513.854 187.636V178.702C512.696 177.941 511.877 176.676 511.877 175.189C511.877 172.824 513.795 170.903 516.158 170.903C518.52 170.903 520.439 172.824 520.439 175.189C520.439 176.688 519.62 177.941 518.462 178.702Z" fill="url(#paint10_linear_20_282)"/>
<path d="M556.358 43.2224C536.03 40.377 527.363 26.6534 527.363 26.6534C527.363 26.6534 518.696 40.377 498.368 43.2224C498.368 43.2224 490.648 79.6625 527.363 89.6039C564.077 79.6625 556.358 43.2224 556.358 43.2224Z" fill="url(#paint11_linear_20_282)" stroke="white" stroke-width="0.76" stroke-miterlimit="10"/>
<path d="M535.737 56.1849H534.439V54.8851C534.439 50.9741 531.269 47.8008 527.363 47.8008C523.456 47.8008 520.287 50.9741 520.287 54.8851V56.1849H518.988C518.111 56.1849 517.386 56.8992 517.386 57.7891V69.2527C517.386 70.1309 518.099 70.8569 518.988 70.8569H535.726C536.603 70.8569 537.328 70.1427 537.328 69.2527V57.7891C537.328 56.9109 536.614 56.1849 535.726 56.1849H535.737ZM521.632 54.8734C521.632 51.7118 524.205 49.1357 527.363 49.1357C530.521 49.1357 533.094 51.7118 533.094 54.8734V56.1732H521.632V54.8734ZM528.252 62.5197V65.9741C528.252 66.4659 527.854 66.864 527.363 66.864C526.872 66.864 526.474 66.4659 526.474 65.9741V62.5197C526.029 62.227 525.714 61.7352 525.714 61.1614C525.714 60.2481 526.45 59.5104 527.363 59.5104C528.275 59.5104 529.012 60.2481 529.012 61.1614C529.012 61.7352 528.696 62.227 528.252 62.5197Z" fill="white"/>
<path d="M333.629 201.417C335.43 193.206 330.242 185.087 322.04 183.283C313.838 181.479 305.729 186.674 303.927 194.885C302.125 203.096 307.313 211.215 315.515 213.019C323.717 214.823 331.827 209.629 333.629 201.417Z" fill="url(#paint12_linear_20_282)" stroke="white" stroke-width="0.76" stroke-miterlimit="10"/>
<path d="M321.276 198.222C322.352 197.437 323.065 196.184 323.065 194.744C323.065 192.379 321.147 190.447 318.773 190.447C316.398 190.447 314.48 192.367 314.48 194.744C314.48 196.172 315.194 197.437 316.27 198.222C313.849 199.217 312.141 201.582 312.141 204.369V205.856H325.404V204.369C325.404 201.594 323.697 199.217 321.276 198.222Z" fill="white"/>
<path d="M719.707 201.793H600.16C593.571 201.793 588.23 207.14 588.23 213.737V278.701C588.23 285.298 593.571 290.645 600.16 290.645H719.707C726.296 290.645 731.637 285.298 731.637 278.701V213.737C731.637 207.14 726.296 201.793 719.707 201.793Z" fill="url(#paint13_linear_20_282)" stroke="white" stroke-width="0.76" stroke-miterlimit="10"/>
<path d="M626.289 244.322H603.774C603.166 244.322 602.663 243.819 602.663 243.21C602.663 242.601 603.166 242.097 603.774 242.097H626.289C626.898 242.097 627.4 242.601 627.4 243.21C627.4 243.819 626.898 244.322 626.289 244.322Z" fill="white"/>
<path d="M620.09 248.151H609.973C609.365 248.151 608.862 247.648 608.862 247.039C608.862 246.43 609.365 245.926 609.973 245.926H620.09C620.699 245.926 621.202 246.43 621.202 247.039C621.202 247.648 620.699 248.151 620.09 248.151Z" fill="white"/>
<path d="M627.758 230.187C629.408 223.154 625.052 216.114 618.028 214.462C611.003 212.81 603.972 217.172 602.321 224.204C600.671 231.236 605.028 238.276 612.052 239.928C619.076 241.58 626.108 237.219 627.758 230.187Z" fill="url(#paint14_linear_20_282)"/>
<path d="M626.653 229.909C628.163 223.475 624.177 217.033 617.75 215.522C611.323 214.01 604.889 218.001 603.38 224.435C601.87 230.869 605.856 237.311 612.283 238.822C618.71 240.333 625.143 236.343 626.653 229.909Z" fill="url(#paint15_linear_20_282)"/>
<path d="M615.038 227.226C617.072 227.226 618.722 225.575 618.722 223.538C618.722 221.501 617.072 219.849 615.038 219.849C613.003 219.849 611.353 221.501 611.353 223.538C611.353 225.575 613.003 227.226 615.038 227.226Z" fill="white"/>
<path d="M620.734 234.545H609.33V233.268C609.33 230.118 611.88 227.566 615.026 227.566C618.172 227.566 620.722 230.118 620.722 233.268V234.545H620.734Z" fill="white"/>
<path d="M667.051 99.0418H547.504C540.915 99.0418 535.574 104.389 535.574 110.986V154.323C535.574 160.919 540.915 166.266 547.504 166.266H667.051C673.64 166.266 678.981 160.919 678.981 154.323V110.986C678.981 104.389 673.64 99.0418 667.051 99.0418Z" fill="url(#paint16_linear_20_282)" stroke="white" stroke-width="0.76" stroke-miterlimit="10"/>
<path d="M639.997 125.377H584.756C584.148 125.377 583.645 124.873 583.645 124.264C583.645 123.655 584.148 123.152 584.756 123.152H639.997C640.606 123.152 641.108 123.655 641.108 124.264C641.108 124.873 640.606 125.377 639.997 125.377Z" fill="white"/>
<path d="M592.733 131.29H584.756C584.148 131.29 583.645 130.786 583.645 130.178C583.645 129.569 584.148 129.065 584.756 129.065H592.733C593.341 129.065 593.844 129.569 593.844 130.178C593.844 130.786 593.341 131.29 592.733 131.29Z" fill="white"/>
<path d="M640.032 131.29H597.271C596.663 131.29 596.16 130.786 596.16 130.178C596.16 129.569 596.663 129.065 597.271 129.065H640.032C640.641 129.065 641.144 129.569 641.144 130.178C641.144 130.786 640.641 131.29 640.032 131.29Z" fill="white"/>
<path d="M639.997 137.203H593.493C592.885 137.203 592.382 136.7 592.382 136.091C592.382 135.482 592.885 134.978 593.493 134.978H639.997C640.606 134.978 641.108 135.482 641.108 136.091C641.108 136.7 640.606 137.203 639.997 137.203Z" fill="white"/>
<path d="M589.142 137.203H584.756C584.148 137.203 583.645 136.7 583.645 136.091C583.645 135.482 584.148 134.978 584.756 134.978H589.142C589.75 134.978 590.253 135.482 590.253 136.091C590.253 136.7 589.75 137.203 589.142 137.203Z" fill="white"/>
<path d="M604.546 140.892H640.044C640.652 140.892 641.155 141.395 641.155 142.004C641.155 142.613 640.652 143.117 640.044 143.117H604.546C603.938 143.117 603.435 142.613 603.435 142.004C603.435 141.395 603.938 140.892 604.546 140.892Z" fill="white"/>
<path d="M584.756 140.892H599.996C600.605 140.892 601.107 141.395 601.107 142.004C601.107 142.613 600.605 143.117 599.996 143.117H584.756C584.148 143.117 583.645 142.613 583.645 142.004C583.645 141.395 584.148 140.892 584.756 140.892Z" fill="white"/>
<path d="M607.271 114.171H584.756C584.148 114.171 583.645 113.667 583.645 113.058C583.645 112.449 584.148 111.946 584.756 111.946H607.271C607.88 111.946 608.382 112.449 608.382 113.058C608.382 113.667 607.88 114.171 607.271 114.171Z" fill="white"/>
<path d="M594.873 118H584.756C584.148 118 583.645 117.496 583.645 116.887C583.645 116.278 584.148 115.775 584.756 115.775H594.873C595.482 115.775 595.985 116.278 595.985 116.887C595.985 117.496 595.482 118 594.873 118Z" fill="white"/>
<path d="M568.467 136.606C574.854 133.245 577.31 125.337 573.952 118.943C570.595 112.549 562.696 110.09 556.309 113.451C549.922 116.812 547.467 124.721 550.824 131.115C554.181 137.509 562.08 139.967 568.467 136.606Z" fill="url(#paint17_linear_20_282)"/>
<path d="M570.835 133.486C575.503 128.813 575.503 121.236 570.835 116.562C566.167 111.889 558.598 111.889 553.93 116.562C549.262 121.236 549.262 128.813 553.93 133.486C558.598 138.16 566.167 138.16 570.835 133.486Z" fill="url(#paint18_linear_20_282)"/>
<path d="M562.381 125.06C564.416 125.06 566.066 123.409 566.066 121.372C566.066 119.335 564.416 117.683 562.381 117.683C560.346 117.683 558.697 119.335 558.697 121.372C558.697 123.409 560.346 125.06 562.381 125.06Z" fill="white"/>
<path d="M568.077 132.367H556.674V131.091C556.674 127.941 559.223 125.388 562.37 125.388C565.516 125.388 568.066 127.941 568.066 131.091V132.367H568.077Z" fill="white"/>
<path d="M569.083 149.533H552.054C551.156 149.533 550.428 150.262 550.428 151.161V153.48C550.428 154.378 551.156 155.107 552.054 155.107H569.083C569.981 155.107 570.709 154.378 570.709 153.48V151.161C570.709 150.262 569.981 149.533 569.083 149.533Z" fill="white"/>
<path d="M594.569 149.533H577.54C576.642 149.533 575.914 150.262 575.914 151.161V153.48C575.914 154.378 576.642 155.107 577.54 155.107H594.569C595.467 155.107 596.195 154.378 596.195 153.48V151.161C596.195 150.262 595.467 149.533 594.569 149.533Z" fill="white"/>
<path d="M620.055 149.533H603.026C602.128 149.533 601.4 150.262 601.4 151.161V153.48C601.4 154.378 602.128 155.107 603.026 155.107H620.055C620.953 155.107 621.681 154.378 621.681 153.48V151.161C621.681 150.262 620.953 149.533 620.055 149.533Z" fill="white"/>
<path d="M421.922 232.812H302.375C295.786 232.812 290.444 238.159 290.444 244.755V309.72C290.444 316.316 295.786 321.664 302.375 321.664H421.922C428.51 321.664 433.852 316.316 433.852 309.72V244.755C433.852 238.159 428.51 232.812 421.922 232.812Z" fill="url(#paint19_linear_20_282)" stroke="white" stroke-width="0.76" stroke-miterlimit="10"/>
<path d="M394.856 249.439H339.627C339.019 249.439 338.516 248.936 338.516 248.327C338.516 247.718 339.019 247.214 339.627 247.214H394.856C395.465 247.214 395.968 247.718 395.968 248.327C395.968 248.936 395.465 249.439 394.856 249.439Z" fill="white"/>
<path d="M347.592 255.364H339.615C339.007 255.364 338.504 254.861 338.504 254.252C338.504 253.643 339.007 253.139 339.615 253.139H347.592C348.2 253.139 348.703 253.643 348.703 254.252C348.703 254.861 348.2 255.364 347.592 255.364Z" fill="white"/>
<path d="M394.903 255.364H352.142C351.534 255.364 351.031 254.861 351.031 254.252C351.031 253.643 351.534 253.139 352.142 253.139H394.903C395.511 253.139 396.014 253.643 396.014 254.252C396.014 254.861 395.511 255.364 394.903 255.364Z" fill="white"/>
<path d="M394.856 261.278H348.352C347.744 261.278 347.241 260.774 347.241 260.165C347.241 259.556 347.744 259.053 348.352 259.053H394.856C395.465 259.053 395.968 259.556 395.968 260.165C395.968 260.774 395.465 261.278 394.856 261.278Z" fill="white"/>
<path d="M344.013 261.278H339.627C339.019 261.278 338.516 260.774 338.516 260.165C338.516 259.556 339.019 259.053 339.627 259.053H344.013C344.621 259.053 345.124 259.556 345.124 260.165C345.124 260.774 344.621 261.278 344.013 261.278Z" fill="white"/>
<path d="M328.504 275.341H305.989C305.381 275.341 304.878 274.837 304.878 274.228C304.878 273.619 305.381 273.116 305.989 273.116H328.504C329.112 273.116 329.615 273.619 329.615 274.228C329.615 274.837 329.112 275.341 328.504 275.341Z" fill="white"/>
<path d="M322.305 279.17H312.188C311.579 279.17 311.077 278.666 311.077 278.057C311.077 277.448 311.579 276.945 312.188 276.945H322.305C322.913 276.945 323.416 277.448 323.416 278.057C323.416 278.666 322.913 279.17 322.305 279.17Z" fill="white"/>
<path d="M394.856 284.943H348.352C347.744 284.943 347.241 284.439 347.241 283.83C347.241 283.221 347.744 282.718 348.352 282.718H394.856C395.465 282.718 395.968 283.221 395.968 283.83C395.968 284.439 395.465 284.943 394.856 284.943Z" fill="white"/>
<path d="M344.013 284.943H339.627C339.019 284.943 338.516 284.439 338.516 283.83C338.516 283.221 339.019 282.718 339.627 282.718H344.013C344.621 282.718 345.124 283.221 345.124 283.83C345.124 284.439 344.621 284.943 344.013 284.943Z" fill="white"/>
<path d="M359.405 288.631H394.903C395.511 288.631 396.014 289.135 396.014 289.743C396.014 290.352 395.511 290.856 394.903 290.856H359.405C358.797 290.856 358.294 290.352 358.294 289.743C358.294 289.135 358.797 288.631 359.405 288.631Z" fill="white"/>
<path d="M339.615 288.631H354.855C355.464 288.631 355.967 289.135 355.967 289.743C355.967 290.352 355.464 290.856 354.855 290.856H339.615C339.007 290.856 338.504 290.352 338.504 289.743C338.504 289.135 339.007 288.631 339.615 288.631Z" fill="white"/>
<path d="M423.454 247.214H409.453C407.212 247.214 405.395 249.034 405.395 251.278V271.523C405.395 273.767 407.212 275.587 409.453 275.587H423.454C425.695 275.587 427.512 273.767 427.512 271.523V251.278C427.512 249.034 425.695 247.214 423.454 247.214Z" stroke="white" stroke-width="0.76" stroke-miterlimit="10"/>
<path d="M340.89 294.814H393.242C394.564 294.814 395.628 295.879 395.628 297.202V302.87C395.628 304.193 394.564 305.259 393.242 305.259H340.89C339.569 305.259 338.504 304.193 338.504 302.87V297.202C338.504 295.879 339.569 294.814 340.89 294.814Z" stroke="white" stroke-width="0.76" stroke-miterlimit="10"/>
<path d="M340.89 266.078H393.242C394.564 266.078 395.628 267.144 395.628 268.467V274.135C395.628 275.458 394.564 276.523 393.242 276.523H340.89C339.569 276.523 338.504 275.458 338.504 274.135V268.467C338.504 267.144 339.569 266.078 340.89 266.078Z" stroke="white" stroke-width="0.76" stroke-miterlimit="10"/>
<path d="M414.927 283.854C414.927 286.488 412.798 288.631 410.155 288.631C407.512 288.631 405.395 286.5 405.395 283.854C405.395 281.207 407.523 279.088 410.155 279.088C412.787 279.088 414.927 281.219 414.927 283.854Z" stroke="white" stroke-width="0.69" stroke-miterlimit="10"/>
<path d="M427.512 283.854C427.512 286.488 425.384 288.631 422.752 288.631C420.12 288.631 417.98 286.5 417.98 283.854C417.98 281.207 420.109 279.088 422.752 279.088C425.395 279.088 427.512 281.219 427.512 283.854Z" stroke="white" stroke-width="0.69" stroke-miterlimit="10"/>
<path d="M414.927 299.591C414.927 302.226 412.798 304.369 410.155 304.369C407.512 304.369 405.395 302.238 405.395 299.591C405.395 296.945 407.523 294.825 410.155 294.825C412.787 294.825 414.927 296.957 414.927 299.591Z" stroke="white" stroke-width="0.69" stroke-miterlimit="10"/>
<path d="M427.512 299.591C427.512 302.226 425.384 304.369 422.752 304.369C420.12 304.369 417.98 302.238 417.98 299.591C417.98 296.945 420.109 294.825 422.752 294.825C425.395 294.825 427.512 296.957 427.512 299.591Z" stroke="white" stroke-width="0.69" stroke-miterlimit="10"/>
<path d="M315.72 289.743C315.72 292.378 313.591 294.521 310.948 294.521C308.305 294.521 306.188 292.39 306.188 289.743C306.188 287.097 308.316 284.978 310.948 284.978C313.58 284.978 315.72 287.109 315.72 289.743Z" stroke="white" stroke-width="0.69" stroke-miterlimit="10"/>
<path d="M328.305 289.743C328.305 292.378 326.176 294.521 323.533 294.521C320.89 294.521 318.773 292.39 318.773 289.743C318.773 287.097 320.901 284.978 323.533 284.978C326.165 284.978 328.305 287.109 328.305 289.743Z" stroke="white" stroke-width="0.69" stroke-miterlimit="10"/>
<path d="M329.962 261.22C331.612 254.188 327.256 247.148 320.231 245.496C313.207 243.844 306.175 248.206 304.525 255.238C302.875 262.27 307.232 269.31 314.256 270.962C321.28 272.614 328.312 268.252 329.962 261.22Z" fill="url(#paint20_linear_20_282)"/>
<path d="M328.892 260.942C330.402 254.508 326.416 248.067 319.989 246.556C313.562 245.044 307.128 249.035 305.619 255.469C304.109 261.903 308.095 268.344 314.522 269.856C320.948 271.367 327.382 267.377 328.892 260.942Z" fill="url(#paint21_linear_20_282)"/>
<path d="M320.925 254.556C320.925 256.594 319.276 258.245 317.24 258.245C315.205 258.245 313.556 256.594 313.556 254.556C313.556 252.519 315.205 250.868 317.24 250.868C319.276 250.868 320.925 252.519 320.925 254.556Z" fill="white"/>
<path d="M322.948 265.563H311.544V264.287C311.544 261.137 314.094 258.584 317.24 258.584C320.387 258.584 322.936 261.137 322.936 264.287V265.563H322.948Z" fill="white"/>
<path d="M428.659 166.079H355.616C353.704 166.079 352.154 167.631 352.154 169.545V202.742C352.154 204.656 353.704 206.208 355.616 206.208H428.659C430.571 206.208 432.121 204.656 432.121 202.742V169.545C432.121 167.631 430.571 166.079 428.659 166.079Z" fill="url(#paint22_linear_20_282)" stroke="white" stroke-width="0.76" stroke-miterlimit="10"/>
<path d="M432.121 194.861H352.154V201.465H432.121V194.861Z" fill="white"/>
<path d="M360.481 187.191C360.481 188.245 359.627 189.1 358.575 189.1C357.522 189.1 356.668 188.245 356.668 187.191C356.668 186.137 357.522 185.283 358.575 185.283C359.627 185.283 360.481 186.137 360.481 187.191Z" fill="white"/>
<path d="M367.101 187.191C367.101 188.245 366.248 189.1 365.195 189.1C364.142 189.1 363.288 188.245 363.288 187.191C363.288 186.137 364.142 185.283 365.195 185.283C366.248 185.283 367.101 186.137 367.101 187.191Z" fill="white"/>
<path d="M373.71 187.191C373.71 188.245 372.856 189.1 371.803 189.1C370.751 189.1 369.897 188.245 369.897 187.191C369.897 186.137 370.751 185.283 371.803 185.283C372.856 185.283 373.71 186.137 373.71 187.191Z" fill="white"/>
<path d="M380.33 187.191C380.33 188.245 379.476 189.1 378.423 189.1C377.371 189.1 376.517 188.245 376.517 187.191C376.517 186.137 377.371 185.283 378.423 185.283C379.476 185.283 380.33 186.137 380.33 187.191Z" fill="white"/>
<path d="M391.359 187.191C391.359 188.245 390.506 189.1 389.453 189.1C388.4 189.1 387.546 188.245 387.546 187.191C387.546 186.137 388.4 185.283 389.453 185.283C390.506 185.283 391.359 186.137 391.359 187.191Z" fill="white"/>
<path d="M396.073 189.1C397.126 189.1 397.979 188.245 397.979 187.191C397.979 186.137 397.126 185.283 396.073 185.283C395.02 185.283 394.166 186.137 394.166 187.191C394.166 188.245 395.02 189.1 396.073 189.1Z" fill="white"/>
<path d="M402.693 189.1C403.746 189.1 404.599 188.245 404.599 187.191C404.599 186.137 403.746 185.283 402.693 185.283C401.64 185.283 400.786 186.137 400.786 187.191C400.786 188.245 401.64 189.1 402.693 189.1Z" fill="white"/>
<path d="M409.313 189.1C410.366 189.1 411.22 188.245 411.22 187.191C411.22 186.137 410.366 185.283 409.313 185.283C408.26 185.283 407.407 186.137 407.407 187.191C407.407 188.245 408.26 189.1 409.313 189.1Z" fill="white"/>
<path d="M377.71 174.451H358.259C357.382 174.451 356.668 173.737 356.668 172.859C356.668 171.981 357.382 171.266 358.259 171.266H377.71C378.587 171.266 379.3 171.981 379.3 172.859C379.3 173.737 378.587 174.451 377.71 174.451Z" fill="white"/>
<path d="M404.787 174.451H385.336C384.459 174.451 383.745 173.737 383.745 172.859C383.745 171.981 384.459 171.266 385.336 171.266H404.787C405.664 171.266 406.377 171.981 406.377 172.859C406.377 173.737 405.664 174.451 404.787 174.451Z" fill="white"/>
<path d="M425.84 169.088H417.418C416.198 169.088 415.208 170.079 415.208 171.301V174.428C415.208 175.65 416.198 176.641 417.418 176.641H425.84C427.061 176.641 428.05 175.65 428.05 174.428V171.301C428.05 170.079 427.061 169.088 425.84 169.088Z" fill="white"/>
<path d="M453.688 61.9459H382.26C377.447 61.9459 373.546 65.8516 373.546 70.6695V122.976C373.546 127.794 377.447 131.7 382.26 131.7H453.688C458.501 131.7 462.402 127.794 462.402 122.976V70.6695C462.402 65.8516 458.501 61.9459 453.688 61.9459Z" fill="url(#paint23_linear_20_282)" stroke="white" stroke-width="0.76" stroke-miterlimit="10"/>
<path d="M411.196 109.065H391.161V111.794H411.196V109.065Z" fill="white"/>
<path d="M411.196 103.409H391.161V106.138H411.196V103.409Z" fill="white"/>
<path d="M411.196 97.7537H391.161V100.482H411.196V97.7537Z" fill="white"/>
<path d="M411.196 92.0863H391.161V94.8146H411.196V92.0863Z" fill="white"/>
<path d="M411.196 86.4306H391.161V89.1589H411.196V86.4306Z" fill="white"/>
<path d="M411.196 80.7749H391.161V83.5032H411.196V80.7749Z" fill="white"/>
<path d="M413.418 74.0887H388.915C388.307 74.0887 387.804 74.5923 387.804 75.2012V118.445C387.804 119.053 388.307 119.557 388.915 119.557H413.418C414.027 119.557 414.53 119.053 414.53 118.445V75.2012C414.53 74.5923 414.027 74.0887 413.418 74.0887ZM413.301 114.534H389.044V75.4236H413.301V114.534Z" fill="white"/>
<path d="M444.799 109.065H424.764V111.794H444.799V109.065Z" fill="white"/>
<path d="M444.799 103.409H424.764V106.138H444.799V103.409Z" fill="white"/>
<path d="M444.799 97.7537H424.764V100.482H444.799V97.7537Z" fill="white"/>
<path d="M444.799 92.0863H424.764V94.8146H444.799V92.0863Z" fill="white"/>
<path d="M444.799 86.4306H424.764V89.1589H444.799V86.4306Z" fill="white"/>
<path d="M444.799 80.7749H424.764V83.5032H444.799V80.7749Z" fill="white"/>
<path d="M447.033 74.0887H422.53C421.922 74.0887 421.419 74.5923 421.419 75.2012V118.445C421.419 119.053 421.922 119.557 422.53 119.557H447.033C447.641 119.557 448.144 119.053 448.144 118.445V75.2012C448.144 74.5923 447.641 74.0887 447.033 74.0887ZM446.916 114.534H422.658V75.4236H446.916V114.534Z" fill="white"/>
<path d="M346.785 74.4868V67.1918L341.767 66.6414C341.569 66.0443 341.335 65.4588 341.054 64.9084L344.212 60.974L339.066 55.8218L335.136 58.9834C334.574 58.7024 334.001 58.4682 333.405 58.2691L332.855 53.2457H325.568L325.018 58.2691C324.422 58.4682 323.837 58.7024 323.287 58.9834L319.357 55.8218L314.211 60.974L317.369 64.9201C317.088 65.4822 316.855 66.056 316.656 66.6532L311.638 67.2035V74.4986L316.656 75.0489C316.855 75.6461 317.088 76.2316 317.369 76.7819L314.211 80.7163L319.357 85.8685L323.287 82.7069C323.849 82.988 324.422 83.2222 325.018 83.4212L325.568 88.4446H332.855L333.405 83.4212C334.001 83.2222 334.586 82.988 335.136 82.7069L339.066 85.8685L344.212 80.7163L341.054 76.7819C341.335 76.2199 341.569 75.6461 341.767 75.0489L346.785 74.4986V74.4868Z" stroke="white" stroke-width="0.48" stroke-miterlimit="10"/>
<path d="M329.194 78.8077C333.587 78.8077 337.147 75.2427 337.147 70.8452C337.147 66.4476 333.587 62.8827 329.194 62.8827C324.801 62.8827 321.241 66.4476 321.241 70.8452C321.241 75.2427 324.801 78.8077 329.194 78.8077Z" stroke="white" stroke-width="0.48" stroke-miterlimit="10"/>
<path d="M585.961 303.69V296.395L580.943 295.844C580.744 295.247 580.51 294.662 580.23 294.111L583.388 290.177L578.241 285.025L574.311 288.186C573.75 287.905 573.177 287.671 572.58 287.472L572.031 282.448H564.744L564.194 287.472C563.598 287.671 563.013 287.905 562.463 288.186L558.533 285.025L553.387 290.177L556.545 294.111C556.264 294.673 556.03 295.247 555.831 295.844L550.814 296.395V303.69L555.831 304.24C556.03 304.837 556.264 305.423 556.545 305.973L553.387 309.907L558.533 315.06L562.463 311.898C563.025 312.179 563.598 312.413 564.194 312.612L564.744 317.636H572.031L572.58 312.612C573.177 312.413 573.762 312.179 574.311 311.898L578.241 315.06L583.388 309.907L580.23 305.973C580.51 305.411 580.744 304.837 580.943 304.24L585.961 303.69Z" stroke="white" stroke-width="0.48" stroke-miterlimit="10"/>
<path d="M568.37 308.01C572.762 308.01 576.323 304.445 576.323 300.048C576.323 295.65 572.762 292.085 568.37 292.085C563.977 292.085 560.416 295.65 560.416 300.048C560.416 304.445 563.977 308.01 568.37 308.01Z" stroke="white" stroke-width="0.48" stroke-miterlimit="10"/>
</g>
</g>
<defs>
<linearGradient id="paint0_linear_20_282" x1="312.5" y1="0" x2="312.5" y2="322" gradientUnits="userSpaceOnUse">
<stop stop-color="#36A9FF"/>
<stop offset="1" stop-color="#296BD6"/>
</linearGradient>
<linearGradient id="paint1_linear_20_282" x1="312.5" y1="0" x2="312.5" y2="322" gradientUnits="userSpaceOnUse">
<stop stop-color="#36A9FF"/>
<stop offset="1" stop-color="#296BD6"/>
</linearGradient>
<linearGradient id="paint2_linear_20_282" x1="384.459" y1="234.029" x2="647.857" y2="234.029" gradientUnits="userSpaceOnUse">
<stop stop-color="#EBF7FF"/>
<stop offset="1" stop-color="#CAE0FF"/>
</linearGradient>
<linearGradient id="paint3_linear_20_282" x1="392.143" y1="234.029" x2="640.184" y2="234.029" gradientUnits="userSpaceOnUse">
<stop stop-color="#6EE4FF"/>
<stop offset="1" stop-color="#36A0FF"/>
</linearGradient>
<linearGradient id="paint4_linear_20_282" x1="372.388" y1="321.933" x2="659.939" y2="321.933" gradientUnits="userSpaceOnUse">
<stop stop-color="#EBF7FF"/>
<stop offset="1" stop-color="#CAE0FF"/>
</linearGradient>
<linearGradient id="paint5_linear_20_282" x1="490.485" y1="268.069" x2="541.843" y2="268.069" gradientUnits="userSpaceOnUse">
<stop stop-color="#EBF7FF"/>
<stop offset="1" stop-color="#CAE0FF"/>
</linearGradient>
<linearGradient id="paint6_linear_20_282" x1="492.7" y1="268.073" x2="539.672" y2="268.073" gradientUnits="userSpaceOnUse">
<stop stop-color="#36A9FF"/>
<stop offset="1" stop-color="#296BD6"/>
</linearGradient>
<linearGradient id="paint7_linear_20_282" x1="456.156" y1="170.412" x2="576.171" y2="170.412" gradientUnits="userSpaceOnUse">
<stop stop-color="#EBF7FF"/>
<stop offset="1" stop-color="#CAE0FF"/>
</linearGradient>
<linearGradient id="paint8_linear_20_282" x1="459.525" y1="170.412" x2="572.791" y2="170.412" gradientUnits="userSpaceOnUse">
<stop stop-color="#6EE4FF"/>
<stop offset="1" stop-color="#36A0FF"/>
</linearGradient>
<linearGradient id="paint9_linear_20_282" x1="463.958" y1="170.412" x2="568.37" y2="170.412" gradientUnits="userSpaceOnUse">
<stop stop-color="#36A9FF"/>
<stop offset="1" stop-color="#296BD6"/>
</linearGradient>
<linearGradient id="paint10_linear_20_282" x1="490.368" y1="170.411" x2="541.948" y2="170.411" gradientUnits="userSpaceOnUse">
<stop stop-color="#EBF7FF"/>
<stop offset="1" stop-color="#CAE0FF"/>
</linearGradient>
<linearGradient id="paint11_linear_20_282" x1="497.69" y1="58.1286" x2="557.036" y2="58.1286" gradientUnits="userSpaceOnUse">
<stop stop-color="#EBF7FF" stop-opacity="0.1"/>
<stop offset="1" stop-color="white" stop-opacity="0.4"/>
</linearGradient>
<linearGradient id="paint12_linear_20_282" x1="303.564" y1="198.158" x2="333.974" y2="198.158" gradientUnits="userSpaceOnUse">
<stop stop-color="#EBF7FF" stop-opacity="0.1"/>
<stop offset="1" stop-color="white" stop-opacity="0.4"/>
</linearGradient>
<linearGradient id="paint13_linear_20_282" x1="588.23" y1="246.219" x2="731.637" y2="246.219" gradientUnits="userSpaceOnUse">
<stop stop-color="#EBF7FF" stop-opacity="0.1"/>
<stop offset="1" stop-color="white" stop-opacity="0.4"/>
</linearGradient>
<linearGradient id="paint14_linear_20_282" x1="601.972" y1="227.18" x2="628.114" y2="227.18" gradientUnits="userSpaceOnUse">
<stop stop-color="#EBF7FF"/>
<stop offset="1" stop-color="#CAE0FF"/>
</linearGradient>
<linearGradient id="paint15_linear_20_282" x1="603.052" y1="227.188" x2="626.948" y2="227.188" gradientUnits="userSpaceOnUse">
<stop stop-color="#36A9FF"/>
<stop offset="1" stop-color="#296BD6"/>
</linearGradient>
<linearGradient id="paint16_linear_20_282" x1="535.574" y1="132.66" x2="678.981" y2="132.66" gradientUnits="userSpaceOnUse">
<stop stop-color="#EBF7FF" stop-opacity="0.1"/>
<stop offset="1" stop-color="white" stop-opacity="0.4"/>
</linearGradient>
<linearGradient id="paint17_linear_20_282" x1="549.322" y1="125.021" x2="575.451" y2="125.021" gradientUnits="userSpaceOnUse">
<stop stop-color="#EBF7FF"/>
<stop offset="1" stop-color="#CAE0FF"/>
</linearGradient>
<linearGradient id="paint18_linear_20_282" x1="550.431" y1="125.025" x2="574.338" y2="125.025" gradientUnits="userSpaceOnUse">
<stop stop-color="#36A9FF"/>
<stop offset="1" stop-color="#296BD6"/>
</linearGradient>
<linearGradient id="paint19_linear_20_282" x1="290.444" y1="277.238" x2="433.852" y2="277.238" gradientUnits="userSpaceOnUse">
<stop stop-color="#EBF7FF" stop-opacity="0.1"/>
<stop offset="1" stop-color="white" stop-opacity="0.4"/>
</linearGradient>
<linearGradient id="paint20_linear_20_282" x1="304.181" y1="258.23" x2="330.322" y2="258.23" gradientUnits="userSpaceOnUse">
<stop stop-color="#EBF7FF"/>
<stop offset="1" stop-color="#CAE0FF"/>
</linearGradient>
<linearGradient id="paint21_linear_20_282" x1="305.29" y1="258.213" x2="329.186" y2="258.213" gradientUnits="userSpaceOnUse">
<stop stop-color="#36A9FF"/>
<stop offset="1" stop-color="#296BD6"/>
</linearGradient>
<linearGradient id="paint22_linear_20_282" x1="352.154" y1="186.137" x2="432.132" y2="186.137" gradientUnits="userSpaceOnUse">
<stop stop-color="#EBF7FF" stop-opacity="0.1"/>
<stop offset="1" stop-color="white" stop-opacity="0.4"/>
</linearGradient>
<linearGradient id="paint23_linear_20_282" x1="373.546" y1="96.8287" x2="462.402" y2="96.8287" gradientUnits="userSpaceOnUse">
<stop stop-color="#EBF7FF" stop-opacity="0.1"/>
<stop offset="1" stop-color="white" stop-opacity="0.4"/>
</linearGradient>
<clipPath id="clip0_20_282">
<rect width="454" height="309.811" fill="white" transform="translate(290 23)"/>
</clipPath>
</defs>
</svg>
