<?xml version="1.0" encoding="utf-8"?>
<!-- Generator: Adobe Illustrator 26.2.1, SVG Export Plug-In . SVG Version: 6.00 Build 0)  -->
<svg version="1.1" id="report" xmlns="http://www.w3.org/2000/svg" xmlns:xlink="http://www.w3.org/1999/xlink" x="0px" y="0px"
	 viewBox="0 0 640.62 640.62" style="enable-background:new 0 0 640.62 640.62;" xml:space="preserve">
<style type="text/css">
	.st0{fill:#5800B2;}
	.st1{fill:#360061;}
	.st2{fill:url(#SVGID_1_);}
	.st3{fill:url(#SVGID_00000011731913582391884760000003657952809241533352_);}
	.st4{fill:url(#SVGID_00000049201930628918659330000018417267481888353457_);}
	.st5{fill:url(#SVGID_00000116234089763547518290000011360129083883464125_);}
	.st6{fill:url(#SVGID_00000166671829243782046970000000746929599295833476_);}
	.st7{fill:url(#SVGID_00000093894628741180726370000012316139880564157354_);}
	.st8{fill:url(#SVGID_00000051349814027377736930000013996214402610737835_);}
	.st9{fill:url(#SVGID_00000010294155413087477910000012725447151026456466_);}
	.st10{fill:url(#SVGID_00000052084591220749139560000008475648539951161789_);}
	.st11{fill:url(#SVGID_00000088849641939047846130000006903843765893361798_);}
	.st12{fill:url(#SVGID_00000176743741800882395530000004831405503744644249_);}
	.st13{fill:url(#SVGID_00000145043375719859958010000012486804222692637586_);}
	.st14{fill:url(#SVGID_00000006701978009302415760000008514012879517282454_);}
	.st15{fill:url(#SVGID_00000142898026588260196170000009383691372455555740_);}
	.st16{fill:url(#SVGID_00000166635750281937448090000017952608397622471824_);}
	.st17{fill:url(#SVGID_00000046309441160609468470000014272531579775546240_);}
</style>
<g>
	<path class="st0" d="M628.5,518.15c-0.04,60.16-48.58,108.74-108.65,108.71c-59.91-0.02-108.81-48.92-108.78-108.77
		c0.04-59.97,48.77-108.6,108.84-108.59C580.11,409.51,628.54,457.97,628.5,518.15z M504.68,527.21
		c-7.64-7.79-15.19-15.82-23.12-23.45c-7-6.73-16.56-6.65-22.93-0.33c-6.39,6.35-6.62,15.96,0.11,22.92
		c11.56,11.95,23.33,23.71,35.27,35.28c7.09,6.86,15.97,7.12,22.87,0.27c21.69-21.52,43.17-43.25,64.5-65.13
		c6.4-6.57,5.94-16.37-0.21-22.47c-6.27-6.23-15.53-6.37-22.43-0.07c-4.14,3.78-7.91,7.96-11.92,11.88
		C533.04,499.6,519.21,513.05,504.68,527.21z"/>
	<path class="st1" d="M278.1,374.22c-0.15-2.56-0.32-4.18-0.32-5.8c-0.01-53.66,0.01-107.32-0.06-160.99c0-3.58,0.58-6.02,4.14-8.06
		c46.87-26.86,93.62-53.92,140.41-80.91c1.38-0.8,2.85-1.46,4.88-2.49c0.12,2.67,0.29,4.67,0.29,6.66
		c0.01,53.25-0.01,106.49,0.06,159.74c0.01,3.77-0.53,6.42-4.32,8.59c-47.05,26.96-93.98,54.12-140.94,81.22
		C281.18,372.79,280.04,373.27,278.1,374.22z"/>
	<path class="st1" d="M129.44,331.82c11.44,6.59,22.46,12.8,33.29,19.32c1.41,0.85,2.64,3.28,2.64,4.99
		c0.11,55.57,0.05,111.13,0,166.7c0,0.37-0.28,0.74-0.74,1.91c-2.12-1.12-4.24-2.14-6.27-3.31
		c-45.92-26.49-91.82-53.01-137.75-79.48c-2.79-1.61-4.9-2.98-4.89-6.99c0.16-54.73,0.11-109.47,0.13-164.21
		c0-1.02,0.2-2.04,0.39-3.85c1.96,0.95,3.58,1.63,5.1,2.5c11.72,6.72,23.28,13.75,35.2,20.1c4.76,2.54,6.12,5.55,6.03,10.75
		c-0.33,18.93,0,37.88-0.2,56.81c-0.07,6.12,2.26,10.05,7.62,13.04c13.98,7.79,27.72,16.02,41.61,23.97
		c9.63,5.51,17.01,1.28,17.06-9.73c0.08-16.86,0.05-33.71,0.08-50.57C128.74,333.42,128.99,333.06,129.44,331.82z"/>
	<path class="st1" d="M221.05,180.59c12.11,6.98,23.43,13.39,34.57,20.08c1.22,0.73,2.07,3.08,2.07,4.68
		c0.08,55.54,0.03,111.08-0.02,166.62c0,0.38-0.26,0.77-0.64,1.82c-1.62-0.78-3.24-1.43-4.73-2.29
		c-46.44-26.79-92.89-53.56-139.22-80.54c-2.22-1.29-4.72-4.49-4.73-6.81c-0.25-55.12-0.19-110.25-0.16-165.38
		c0-0.61,0.21-1.21,0.44-2.48c1.56,0.68,3,1.15,4.3,1.89c12.62,7.23,25.15,14.63,37.86,21.68c3.24,1.8,4.12,3.94,4.1,7.43
		c-0.14,19.76,0.06,39.53-0.14,59.29c-0.06,5.91,2.25,9.75,7.3,12.61c13.93,7.87,27.71,16,41.59,23.95
		c10.27,5.88,17.37,1.6,17.39-10.45C221.07,215.69,221.05,198.7,221.05,180.59z"/>
	<path class="st1" d="M313.9,436.42c11.9,6.85,23.22,13.27,34.39,19.94c1.07,0.64,1.73,2.8,1.73,4.26
		c0.06,55.55,0.03,111.1-0.01,166.64c0,0.56-0.32,1.12-0.7,2.35c-2.33-1.31-4.45-2.46-6.54-3.67
		c-45.9-26.48-91.83-52.92-137.61-79.6c-2.18-1.27-4.49-4.58-4.5-6.96c-0.25-54.3-0.2-108.6-0.17-162.9c0-1.38,0.31-2.77,0.54-4.7
		c1.89,0.84,3.41,1.37,4.78,2.16c12.43,7.15,24.77,14.46,37.28,21.46c3.15,1.76,4.22,3.79,4.2,7.34
		c-0.16,19.56,0.08,39.11-0.17,58.67c-0.08,6.36,2.17,10.46,7.78,13.56c13.82,7.64,27.39,15.74,41.07,23.63
		c9.92,5.72,17.41,1.55,17.45-9.79c0.07-16.64,0.04-33.29,0.06-49.93C313.48,438.47,313.61,438.06,313.9,436.42z"/>
	<path class="st0" d="M314.27,38.45c-2.4,1.56-3.88,2.62-5.45,3.52c-46.4,26.8-92.84,53.54-139.18,80.45
		c-3.5,2.03-5.99,2.17-9.53,0.04c-13.67-8.22-27.56-16.05-41.97-24.38c17.94-10.37,35.19-20.34,52.44-30.31
		c30.94-17.87,61.91-35.67,92.77-53.66c3.3-1.92,5.73-1.97,9.02,0C285.93,22.2,299.65,29.99,314.27,38.45z"/>
	<path class="st0" d="M417.56,98.07c-11.92,6.91-23.21,13.47-34.52,20c-36.7,21.19-73.42,42.33-110.05,63.63
		c-3.62,2.1-6.33,2.45-10.08,0.13c-10.17-6.3-20.65-12.11-31.74-18.53c18.21-10.53,35.45-20.5,52.7-30.46
		c30.77-17.76,61.58-35.43,92.25-53.34c3.56-2.08,6.07-2.1,9.57,0.04C395.96,85.82,406.48,91.67,417.56,98.07z"/>
	<path class="st0" d="M323.48,418.86c12.12-7.03,23.41-13.6,34.72-20.13c36.7-21.18,73.44-42.3,110.08-63.6
		c3.45-2.01,6.01-2.41,9.57-0.22c10.22,6.27,20.7,12.13,31.78,18.56c-2.18,1.43-3.61,2.47-5.13,3.35
		c-46.42,26.78-92.87,53.51-139.23,80.41c-3.68,2.14-6.34,2.41-10.1,0.08C345.12,431.08,334.75,425.37,323.48,418.86z"/>
	<path class="st1" d="M435.64,420.07c-55.29,49.63-57.01,129.46-14.76,180.87c-16.56,9.57-33.01,19.08-50.47,29.17
		c-0.14-3.07-0.31-5.23-0.31-7.39c-0.02-53.04,0.04-106.07-0.11-159.11c-0.01-4.5,1.25-7.07,5.26-9.33
		c18.3-10.26,36.4-20.89,54.58-31.36C431.17,422.14,432.61,421.54,435.64,420.07z"/>
	<path class="st0" d="M360.81,65.36c-9.88,5.73-18.97,11.03-28.09,16.29c-38.66,22.32-77.36,44.56-115.92,67.04
		c-4.14,2.42-7.19,2.7-11.25,0.03c-6.4-4.21-13.21-7.79-20.63-12.09c6.03-3.53,11.48-6.76,16.96-9.92
		c42.61-24.61,85.24-49.17,127.78-73.9c3.47-2.02,6.07-2.35,9.56-0.12C346.01,57.01,353.09,60.86,360.81,65.36z"/>
	<path class="st0" d="M282.44,395.16c11.78-6.8,22.73-13.13,33.68-19.46c37.09-21.41,74.2-42.77,111.22-64.32
		c3.49-2.03,6.12-2.41,9.58-0.07c4.8,3.24,10,5.91,15.72,9.22c-1.66,1.23-2.79,2.26-4.09,3.01c-46.98,27.15-94,54.23-140.91,81.48
		c-3.19,1.85-5.43,1.8-8.41-0.1C294.03,401.62,288.58,398.7,282.44,395.16z"/>
	<path class="st0" d="M25.78,248.89c20.86-12.04,40.97-23.66,62.06-35.84c0.13,2.75,0.3,4.69,0.31,6.64
		c0.02,13.73-0.13,27.46,0.1,41.19c0.07,4.21-1.42,6.43-4.86,8.99c-7.51,5.57-13.71,5.52-21.59,0.14
		C50.68,262.41,38.56,256.28,25.78,248.89z"/>
	<path class="st1" d="M174.81,153.91c8.88,5.09,16.63,9.41,24.2,14c1.1,0.67,1.99,2.64,2,4.02c0.14,15.14,0.09,30.29,0.09,46.66
		c-8.72-5.01-16.75-9.52-24.64-14.27c-0.95-0.57-1.58-2.41-1.59-3.66C174.77,185.54,174.81,170.41,174.81,153.91z"/>
	<path class="st1" d="M82.45,304.74c8.78,5.03,16.67,9.48,24.47,14.1c0.88,0.52,1.72,1.96,1.72,2.98c0.11,15.5,0.08,31,0.08,47.63
		c-8.8-5.09-16.67-9.58-24.45-14.23c-0.87-0.52-1.73-1.91-1.74-2.91C82.41,336.81,82.45,321.32,82.45,304.74z"/>
	<path class="st1" d="M267.19,409.47c8.73,5.01,16.61,9.44,24.37,14.1c0.99,0.59,1.83,2.31,1.84,3.52
		c0.12,15.28,0.08,30.56,0.08,47.08c-8.83-5.09-16.69-9.54-24.43-14.2c-0.97-0.59-1.77-2.3-1.78-3.5
		C267.15,441.17,267.19,425.87,267.19,409.47z"/>
	<path class="st1" d="M519.58,371.08c0,6.81,0,12.18,0,17.2c-13.67,2.25-27.09,4.45-41.49,6.81
		C491.99,387.05,505.3,379.34,519.58,371.08z"/>
	<linearGradient id="SVGID_1_" gradientUnits="userSpaceOnUse" x1="411.0797" y1="518.1851" x2="628.5031" y2="518.1851">
		<stop  offset="0" style="stop-color:#FFFFFF;stop-opacity:0.4"/>
		<stop  offset="0.0691" style="stop-color:#FFFFFF;stop-opacity:0.3435"/>
		<stop  offset="0.4892" style="stop-color:#FFFFFF;stop-opacity:0"/>
		<stop  offset="0.7527" style="stop-color:#FAFAFA;stop-opacity:0.1032"/>
		<stop  offset="1" style="stop-color:#EFEFEF;stop-opacity:0.2"/>
	</linearGradient>
	<path class="st2" d="M628.5,518.15c-0.04,60.16-48.58,108.74-108.65,108.71c-59.91-0.02-108.81-48.92-108.78-108.77
		c0.04-59.97,48.77-108.6,108.84-108.59C580.11,409.51,628.54,457.97,628.5,518.15z M504.68,527.21
		c-7.64-7.79-15.19-15.82-23.12-23.45c-7-6.73-16.56-6.65-22.93-0.33c-6.39,6.35-6.62,15.96,0.11,22.92
		c11.56,11.95,23.33,23.71,35.27,35.28c7.09,6.86,15.97,7.12,22.87,0.27c21.69-21.52,43.17-43.25,64.5-65.13
		c6.4-6.57,5.94-16.37-0.21-22.47c-6.27-6.23-15.53-6.37-22.43-0.07c-4.14,3.78-7.91,7.96-11.92,11.88
		C533.04,499.6,519.21,513.05,504.68,527.21z"/>
	
		<linearGradient id="SVGID_00000075146293874859018490000009948102446899521953_" gradientUnits="userSpaceOnUse" x1="277.7219" y1="245.092" x2="427.5026" y2="245.092">
		<stop  offset="0" style="stop-color:#FFFFFF;stop-opacity:0.4"/>
		<stop  offset="0.0691" style="stop-color:#FFFFFF;stop-opacity:0.3435"/>
		<stop  offset="0.4892" style="stop-color:#FFFFFF;stop-opacity:0"/>
		<stop  offset="0.7527" style="stop-color:#FAFAFA;stop-opacity:0.1032"/>
		<stop  offset="1" style="stop-color:#EFEFEF;stop-opacity:0.2"/>
	</linearGradient>
	<path style="fill:url(#SVGID_00000075146293874859018490000009948102446899521953_);" d="M278.1,374.22
		c-0.15-2.56-0.32-4.18-0.32-5.8c-0.01-53.66,0.01-107.32-0.06-160.99c0-3.58,0.58-6.02,4.14-8.06
		c46.87-26.86,93.62-53.92,140.41-80.91c1.38-0.8,2.85-1.46,4.88-2.49c0.12,2.67,0.29,4.67,0.29,6.66
		c0.01,53.25-0.01,106.49,0.06,159.74c0.01,3.77-0.53,6.42-4.32,8.59c-47.05,26.96-93.98,54.12-140.94,81.22
		C281.18,372.79,280.04,373.27,278.1,374.22z"/>
	
		<linearGradient id="SVGID_00000160897207190845666500000000340844770359085984_" gradientUnits="userSpaceOnUse" x1="15.7262" y1="395.8225" x2="165.4301" y2="395.8225">
		<stop  offset="0" style="stop-color:#FFFFFF;stop-opacity:0.4"/>
		<stop  offset="0.0691" style="stop-color:#FFFFFF;stop-opacity:0.3435"/>
		<stop  offset="0.4892" style="stop-color:#FFFFFF;stop-opacity:0"/>
		<stop  offset="0.7527" style="stop-color:#FAFAFA;stop-opacity:0.1032"/>
		<stop  offset="1" style="stop-color:#EFEFEF;stop-opacity:0.2"/>
	</linearGradient>
	<path style="fill:url(#SVGID_00000160897207190845666500000000340844770359085984_);" d="M129.44,331.82
		c11.44,6.59,22.46,12.8,33.29,19.32c1.41,0.85,2.64,3.28,2.64,4.99c0.11,55.57,0.05,111.13,0,166.7c0,0.37-0.28,0.74-0.74,1.91
		c-2.12-1.12-4.24-2.14-6.27-3.31c-45.92-26.49-91.82-53.01-137.75-79.48c-2.79-1.61-4.9-2.98-4.89-6.99
		c0.16-54.73,0.11-109.47,0.13-164.21c0-1.02,0.2-2.04,0.39-3.85c1.96,0.95,3.58,1.63,5.1,2.5c11.72,6.72,23.28,13.75,35.2,20.1
		c4.76,2.54,6.12,5.55,6.03,10.75c-0.33,18.93,0,37.88-0.2,56.81c-0.07,6.12,2.26,10.05,7.62,13.04
		c13.98,7.79,27.72,16.02,41.61,23.97c9.63,5.51,17.01,1.28,17.06-9.73c0.08-16.86,0.05-33.71,0.08-50.57
		C128.74,333.42,128.99,333.06,129.44,331.82z"/>
	
		<linearGradient id="SVGID_00000159428593985909794060000003717193952627052693_" gradientUnits="userSpaceOnUse" x1="108.1691" y1="245.0288" x2="257.7349" y2="245.0288">
		<stop  offset="0" style="stop-color:#FFFFFF;stop-opacity:0.4"/>
		<stop  offset="0.0691" style="stop-color:#FFFFFF;stop-opacity:0.3435"/>
		<stop  offset="0.4892" style="stop-color:#FFFFFF;stop-opacity:0"/>
		<stop  offset="0.7527" style="stop-color:#FAFAFA;stop-opacity:0.1032"/>
		<stop  offset="1" style="stop-color:#EFEFEF;stop-opacity:0.2"/>
	</linearGradient>
	<path style="fill:url(#SVGID_00000159428593985909794060000003717193952627052693_);" d="M221.05,180.59
		c12.11,6.98,23.43,13.39,34.57,20.08c1.22,0.73,2.07,3.08,2.07,4.68c0.08,55.54,0.03,111.08-0.02,166.62
		c0,0.38-0.26,0.77-0.64,1.82c-1.62-0.78-3.24-1.43-4.73-2.29c-46.44-26.79-92.89-53.56-139.22-80.54
		c-2.22-1.29-4.72-4.49-4.73-6.81c-0.25-55.12-0.19-110.25-0.16-165.38c0-0.61,0.21-1.21,0.44-2.48c1.56,0.68,3,1.15,4.3,1.89
		c12.62,7.23,25.15,14.63,37.86,21.68c3.24,1.8,4.12,3.94,4.1,7.43c-0.14,19.76,0.06,39.53-0.14,59.29
		c-0.06,5.91,2.25,9.75,7.3,12.61c13.93,7.87,27.71,16,41.59,23.95c10.27,5.88,17.37,1.6,17.39-10.45
		C221.07,215.69,221.05,198.7,221.05,180.59z"/>
	
		<linearGradient id="SVGID_00000021809632397843600670000004337109013425335172_" gradientUnits="userSpaceOnUse" x1="200.4585" y1="500.693" x2="350.0618" y2="500.693">
		<stop  offset="0" style="stop-color:#FFFFFF;stop-opacity:0.4"/>
		<stop  offset="0.0691" style="stop-color:#FFFFFF;stop-opacity:0.3435"/>
		<stop  offset="0.4892" style="stop-color:#FFFFFF;stop-opacity:0"/>
		<stop  offset="0.7527" style="stop-color:#FAFAFA;stop-opacity:0.1032"/>
		<stop  offset="1" style="stop-color:#EFEFEF;stop-opacity:0.2"/>
	</linearGradient>
	<path style="fill:url(#SVGID_00000021809632397843600670000004337109013425335172_);" d="M313.9,436.42
		c11.9,6.85,23.22,13.27,34.39,19.94c1.07,0.64,1.73,2.8,1.73,4.26c0.06,55.55,0.03,111.1-0.01,166.64c0,0.56-0.32,1.12-0.7,2.35
		c-2.33-1.31-4.45-2.46-6.54-3.67c-45.9-26.48-91.83-52.92-137.61-79.6c-2.18-1.27-4.49-4.58-4.5-6.96
		c-0.25-54.3-0.2-108.6-0.17-162.9c0-1.38,0.31-2.77,0.54-4.7c1.89,0.84,3.41,1.37,4.78,2.16c12.43,7.15,24.77,14.46,37.28,21.46
		c3.15,1.76,4.22,3.79,4.2,7.34c-0.16,19.56,0.08,39.11-0.17,58.67c-0.08,6.36,2.17,10.46,7.78,13.56
		c13.82,7.64,27.39,15.74,41.07,23.63c9.92,5.72,17.41,1.55,17.45-9.79c0.07-16.64,0.04-33.29,0.06-49.93
		C313.48,438.47,313.61,438.06,313.9,436.42z"/>
	
		<linearGradient id="SVGID_00000023983715254283218790000003850146513210655391_" gradientUnits="userSpaceOnUse" x1="118.1521" y1="68.3249" x2="314.2708" y2="68.3249">
		<stop  offset="0" style="stop-color:#FFFFFF;stop-opacity:0.4"/>
		<stop  offset="0.0691" style="stop-color:#FFFFFF;stop-opacity:0.3435"/>
		<stop  offset="0.4892" style="stop-color:#FFFFFF;stop-opacity:0"/>
		<stop  offset="0.7527" style="stop-color:#FAFAFA;stop-opacity:0.1032"/>
		<stop  offset="1" style="stop-color:#EFEFEF;stop-opacity:0.2"/>
	</linearGradient>
	<path style="fill:url(#SVGID_00000023983715254283218790000003850146513210655391_);" d="M314.27,38.45
		c-2.4,1.56-3.88,2.62-5.45,3.52c-46.4,26.8-92.84,53.54-139.18,80.45c-3.5,2.03-5.99,2.17-9.53,0.04
		c-13.67-8.22-27.56-16.05-41.97-24.38c17.94-10.37,35.19-20.34,52.44-30.31c30.94-17.87,61.91-35.67,92.77-53.66
		c3.3-1.92,5.73-1.97,9.02,0C285.93,22.2,299.65,29.99,314.27,38.45z"/>
	
		<linearGradient id="SVGID_00000167388626370158335770000014397161803736377770_" gradientUnits="userSpaceOnUse" x1="231.1705" y1="130.6896" x2="417.5639" y2="130.6896">
		<stop  offset="0" style="stop-color:#FFFFFF;stop-opacity:0.4"/>
		<stop  offset="0.0691" style="stop-color:#FFFFFF;stop-opacity:0.3435"/>
		<stop  offset="0.4892" style="stop-color:#FFFFFF;stop-opacity:0"/>
		<stop  offset="0.7527" style="stop-color:#FAFAFA;stop-opacity:0.1032"/>
		<stop  offset="1" style="stop-color:#EFEFEF;stop-opacity:0.2"/>
	</linearGradient>
	<path style="fill:url(#SVGID_00000167388626370158335770000014397161803736377770_);" d="M417.56,98.07
		c-11.92,6.91-23.21,13.47-34.52,20c-36.7,21.19-73.42,42.33-110.05,63.63c-3.62,2.1-6.33,2.45-10.08,0.13
		c-10.17-6.3-20.65-12.11-31.74-18.53c18.21-10.53,35.45-20.5,52.7-30.46c30.77-17.76,61.58-35.43,92.25-53.34
		c3.56-2.08,6.07-2.1,9.57,0.04C395.96,85.82,406.48,91.67,417.56,98.07z"/>
	
		<linearGradient id="SVGID_00000084493906079719506020000012334054768683728040_" gradientUnits="userSpaceOnUse" x1="323.4828" y1="386.1855" x2="509.6261" y2="386.1855">
		<stop  offset="0" style="stop-color:#FFFFFF;stop-opacity:0.4"/>
		<stop  offset="0.0691" style="stop-color:#FFFFFF;stop-opacity:0.3435"/>
		<stop  offset="0.4892" style="stop-color:#FFFFFF;stop-opacity:0"/>
		<stop  offset="0.7527" style="stop-color:#FAFAFA;stop-opacity:0.1032"/>
		<stop  offset="1" style="stop-color:#EFEFEF;stop-opacity:0.2"/>
	</linearGradient>
	<path style="fill:url(#SVGID_00000084493906079719506020000012334054768683728040_);" d="M323.48,418.86
		c12.12-7.03,23.41-13.6,34.72-20.13c36.7-21.18,73.44-42.3,110.08-63.6c3.45-2.01,6.01-2.41,9.57-0.22
		c10.22,6.27,20.7,12.13,31.78,18.56c-2.18,1.43-3.61,2.47-5.13,3.35c-46.42,26.78-92.87,53.51-139.23,80.41
		c-3.68,2.14-6.34,2.41-10.1,0.08C345.12,431.08,334.75,425.37,323.48,418.86z"/>
	
		<linearGradient id="SVGID_00000139993792481153242680000016455930404184662691_" gradientUnits="userSpaceOnUse" x1="369.9864" y1="525.085" x2="435.6437" y2="525.085">
		<stop  offset="0" style="stop-color:#FFFFFF;stop-opacity:0.4"/>
		<stop  offset="0.0691" style="stop-color:#FFFFFF;stop-opacity:0.3435"/>
		<stop  offset="0.4892" style="stop-color:#FFFFFF;stop-opacity:0"/>
		<stop  offset="0.7527" style="stop-color:#FAFAFA;stop-opacity:0.1032"/>
		<stop  offset="1" style="stop-color:#EFEFEF;stop-opacity:0.2"/>
	</linearGradient>
	<path style="fill:url(#SVGID_00000139993792481153242680000016455930404184662691_);" d="M435.64,420.07
		c-55.29,49.63-57.01,129.46-14.76,180.87c-16.56,9.57-33.01,19.08-50.47,29.17c-0.14-3.07-0.31-5.23-0.31-7.39
		c-0.02-53.04,0.04-106.07-0.11-159.11c-0.01-4.5,1.25-7.07,5.26-9.33c18.3-10.26,36.4-20.89,54.58-31.36
		C431.17,422.14,432.61,421.54,435.64,420.07z"/>
	
		<linearGradient id="SVGID_00000109017649179993113330000004989296573448321156_" gradientUnits="userSpaceOnUse" x1="184.9265" y1="100.8791" x2="360.8113" y2="100.8791">
		<stop  offset="0" style="stop-color:#FFFFFF;stop-opacity:0.4"/>
		<stop  offset="0.0691" style="stop-color:#FFFFFF;stop-opacity:0.3435"/>
		<stop  offset="0.4892" style="stop-color:#FFFFFF;stop-opacity:0"/>
		<stop  offset="0.7527" style="stop-color:#FAFAFA;stop-opacity:0.1032"/>
		<stop  offset="1" style="stop-color:#EFEFEF;stop-opacity:0.2"/>
	</linearGradient>
	<path style="fill:url(#SVGID_00000109017649179993113330000004989296573448321156_);" d="M360.81,65.36
		c-9.88,5.73-18.97,11.03-28.09,16.29c-38.66,22.32-77.36,44.56-115.92,67.04c-4.14,2.42-7.19,2.7-11.25,0.03
		c-6.4-4.21-13.21-7.79-20.63-12.09c6.03-3.53,11.48-6.76,16.96-9.92c42.61-24.61,85.24-49.17,127.78-73.9
		c3.47-2.02,6.07-2.35,9.56-0.12C346.01,57.01,353.09,60.86,360.81,65.36z"/>
	
		<linearGradient id="SVGID_00000132071901108341948750000010581825490140030370_" gradientUnits="userSpaceOnUse" x1="282.4433" y1="358.0529" x2="452.6433" y2="358.0529">
		<stop  offset="0" style="stop-color:#FFFFFF;stop-opacity:0.4"/>
		<stop  offset="0.0691" style="stop-color:#FFFFFF;stop-opacity:0.3435"/>
		<stop  offset="0.4892" style="stop-color:#FFFFFF;stop-opacity:0"/>
		<stop  offset="0.7527" style="stop-color:#FAFAFA;stop-opacity:0.1032"/>
		<stop  offset="1" style="stop-color:#EFEFEF;stop-opacity:0.2"/>
	</linearGradient>
	<path style="fill:url(#SVGID_00000132071901108341948750000010581825490140030370_);" d="M282.44,395.16
		c11.78-6.8,22.73-13.13,33.68-19.46c37.09-21.41,74.2-42.77,111.22-64.32c3.49-2.03,6.12-2.41,9.58-0.07
		c4.8,3.24,10,5.91,15.72,9.22c-1.66,1.23-2.79,2.26-4.09,3.01c-46.98,27.15-94,54.23-140.91,81.48c-3.19,1.85-5.43,1.8-8.41-0.1
		C294.03,401.62,288.58,398.7,282.44,395.16z"/>
	
		<linearGradient id="SVGID_00000158735975667603905930000016965328769993433756_" gradientUnits="userSpaceOnUse" x1="25.7846" y1="243.5452" x2="88.2555" y2="243.5452">
		<stop  offset="0" style="stop-color:#FFFFFF;stop-opacity:0.4"/>
		<stop  offset="0.0691" style="stop-color:#FFFFFF;stop-opacity:0.3435"/>
		<stop  offset="0.4892" style="stop-color:#FFFFFF;stop-opacity:0"/>
		<stop  offset="0.7527" style="stop-color:#FAFAFA;stop-opacity:0.1032"/>
		<stop  offset="1" style="stop-color:#EFEFEF;stop-opacity:0.2"/>
	</linearGradient>
	<path style="fill:url(#SVGID_00000158735975667603905930000016965328769993433756_);" d="M25.78,248.89
		c20.86-12.04,40.97-23.66,62.06-35.84c0.13,2.75,0.3,4.69,0.31,6.64c0.02,13.73-0.13,27.46,0.1,41.19
		c0.07,4.21-1.42,6.43-4.86,8.99c-7.51,5.57-13.71,5.52-21.59,0.14C50.68,262.41,38.56,256.28,25.78,248.89z"/>
	
		<linearGradient id="SVGID_00000024723503877993645210000000918791443629592451_" gradientUnits="userSpaceOnUse" x1="174.8051" y1="186.248" x2="201.1171" y2="186.248">
		<stop  offset="0" style="stop-color:#FFFFFF;stop-opacity:0.4"/>
		<stop  offset="0.0691" style="stop-color:#FFFFFF;stop-opacity:0.3435"/>
		<stop  offset="0.4892" style="stop-color:#FFFFFF;stop-opacity:0"/>
		<stop  offset="0.7527" style="stop-color:#FAFAFA;stop-opacity:0.1032"/>
		<stop  offset="1" style="stop-color:#EFEFEF;stop-opacity:0.2"/>
	</linearGradient>
	<path style="fill:url(#SVGID_00000024723503877993645210000000918791443629592451_);" d="M174.81,153.91
		c8.88,5.09,16.63,9.41,24.2,14c1.1,0.67,1.99,2.64,2,4.02c0.14,15.14,0.09,30.29,0.09,46.66c-8.72-5.01-16.75-9.52-24.64-14.27
		c-0.95-0.57-1.58-2.41-1.59-3.66C174.77,185.54,174.81,170.41,174.81,153.91z"/>
	
		<linearGradient id="SVGID_00000005240135255999568200000000582374813471018172_" gradientUnits="userSpaceOnUse" x1="82.4411" y1="337.0886" x2="108.7165" y2="337.0886">
		<stop  offset="0" style="stop-color:#FFFFFF;stop-opacity:0.4"/>
		<stop  offset="0.0691" style="stop-color:#FFFFFF;stop-opacity:0.3435"/>
		<stop  offset="0.4892" style="stop-color:#FFFFFF;stop-opacity:0"/>
		<stop  offset="0.7527" style="stop-color:#FAFAFA;stop-opacity:0.1032"/>
		<stop  offset="1" style="stop-color:#EFEFEF;stop-opacity:0.2"/>
	</linearGradient>
	<path style="fill:url(#SVGID_00000005240135255999568200000000582374813471018172_);" d="M82.45,304.74
		c8.78,5.03,16.67,9.48,24.47,14.1c0.88,0.52,1.72,1.96,1.72,2.98c0.11,15.5,0.08,31,0.08,47.63c-8.8-5.09-16.67-9.58-24.45-14.23
		c-0.87-0.52-1.73-1.91-1.74-2.91C82.41,336.81,82.45,321.32,82.45,304.74z"/>
	
		<linearGradient id="SVGID_00000152949393177824064130000016908250099001628350_" gradientUnits="userSpaceOnUse" x1="267.1857" y1="441.8256" x2="293.4875" y2="441.8256">
		<stop  offset="0" style="stop-color:#FFFFFF;stop-opacity:0.4"/>
		<stop  offset="0.0691" style="stop-color:#FFFFFF;stop-opacity:0.3435"/>
		<stop  offset="0.4892" style="stop-color:#FFFFFF;stop-opacity:0"/>
		<stop  offset="0.7527" style="stop-color:#FAFAFA;stop-opacity:0.1032"/>
		<stop  offset="1" style="stop-color:#EFEFEF;stop-opacity:0.2"/>
	</linearGradient>
	<path style="fill:url(#SVGID_00000152949393177824064130000016908250099001628350_);" d="M267.19,409.47
		c8.73,5.01,16.61,9.44,24.37,14.1c0.99,0.59,1.83,2.31,1.84,3.52c0.12,15.28,0.08,30.56,0.08,47.08
		c-8.83-5.09-16.69-9.54-24.43-14.2c-0.97-0.59-1.77-2.3-1.78-3.5C267.15,441.17,267.19,425.87,267.19,409.47z"/>
	
		<linearGradient id="SVGID_00000152256307786106782920000004960130107894962082_" gradientUnits="userSpaceOnUse" x1="478.0905" y1="383.088" x2="519.5758" y2="383.088">
		<stop  offset="0" style="stop-color:#FFFFFF;stop-opacity:0.4"/>
		<stop  offset="0.0691" style="stop-color:#FFFFFF;stop-opacity:0.3435"/>
		<stop  offset="0.4892" style="stop-color:#FFFFFF;stop-opacity:0"/>
		<stop  offset="0.7527" style="stop-color:#FAFAFA;stop-opacity:0.1032"/>
		<stop  offset="1" style="stop-color:#EFEFEF;stop-opacity:0.2"/>
	</linearGradient>
	<path style="fill:url(#SVGID_00000152256307786106782920000004960130107894962082_);" d="M519.58,371.08c0,6.81,0,12.18,0,17.2
		c-13.67,2.25-27.09,4.45-41.49,6.81C491.99,387.05,505.3,379.34,519.58,371.08z"/>
</g>
</svg>
