<?xml version="1.0" encoding="utf-8"?>
<!-- Generator: Adobe Illustrator 26.2.1, SVG Export Plug-In . SVG Version: 6.00 Build 0)  -->
<svg version="1.1" id="report" xmlns="http://www.w3.org/2000/svg" xmlns:xlink="http://www.w3.org/1999/xlink" x="0px" y="0px"
	 viewBox="0 0 640.62 640.62" style="enable-background:new 0 0 640.62 640.62;" xml:space="preserve">
<style type="text/css">
	.st0{fill:#5800B2;}
	.st1{fill:#360061;}
	.st2{fill:url(#SVGID_1_);}
	.st3{fill:url(#SVGID_00000043442616504015576530000016989352739659888817_);}
	.st4{fill:url(#SVGID_00000171719070112905105300000005713548703579822470_);}
	.st5{fill:url(#SVGID_00000136400008397149423320000001414413482620209831_);}
	.st6{fill:url(#SVGID_00000122703185932154627610000009393769731977237165_);}
	.st7{fill:url(#SVGID_00000120553479918455883930000011138341224378398593_);}
	.st8{fill:url(#SVGID_00000114773517708748533950000012450550179335778706_);}
	.st9{fill:url(#SVGID_00000142863444797702494220000018168147859070734501_);}
	.st10{fill:url(#SVGID_00000128481373386707803950000007213594947331565223_);}
	.st11{fill:url(#SVGID_00000032632611489915673840000015429616058761058192_);}
</style>
<g>
	<path class="st0" d="M364.63,87.79c28.72,0,56.49,0,84.91,0c0,6.21-0.08,12.13,0.02,18.04c0.14,9.06,3.48,16.45,11.93,20.6
		c8.43,4.14,16.27,2.48,23.52-3.16c5.73-4.46,11.54-8.82,17.59-13.42c5.97,4.55,11.7,9,17.51,13.35c7.23,5.4,15.07,7.48,23.55,3.24
		c8.64-4.32,12.19-11.69,12.01-21.16c-0.11-5.7-0.02-11.4-0.02-17.44c28.33,0,56.1,0,84.9,0c0,2.2,0,4.52,0,6.84
		c0,49.52,0.01,99.03-0.01,148.55c-0.01,22.47-12.88,35.26-35.44,35.27c-68.31,0.01-136.61,0.01-204.92,0
		c-22.87,0-35.55-12.78-35.55-35.82c-0.01-49.3,0-98.59,0-147.89C364.63,92.61,364.63,90.44,364.63,87.79z M439.39,193.59
		c-10.17,0-20.34-0.07-30.5,0.02c-7.73,0.07-12.48,4.31-12.36,10.77c0.12,6.21,4.73,10.36,12.07,10.4
		c20.11,0.09,40.23,0.08,60.35,0.01c7.7-0.03,12.49-4.35,12.37-10.78c-0.12-6.4-4.87-10.34-12.75-10.4
		C458.84,193.54,449.11,193.59,439.39,193.59z M438.97,246.65c9.95,0,19.89,0.07,29.84-0.02c7.76-0.07,12.54-4.23,12.5-10.65
		c-0.04-6.42-4.79-10.5-12.61-10.53c-19.89-0.06-39.79-0.07-59.68,0c-7.82,0.03-12.53,4.17-12.49,10.64
		c0.03,6.43,4.77,10.48,12.6,10.54C419.07,246.71,429.02,246.65,438.97,246.65z"/>
	<path class="st1" d="M88.72,448.77c0,6.43-0.12,12.38,0.03,18.32c0.23,8.79,3.55,15.96,11.72,20.05c8.4,4.21,16.25,2.7,23.53-2.93
		c5.76-4.45,11.57-8.83,17.76-13.55c5.64,4.31,11.22,8.58,16.8,12.84c7.56,5.78,15.68,8.22,24.66,3.54
		c8.6-4.48,11.87-11.98,11.62-21.39c-0.14-5.49-0.03-10.99-0.03-16.92c28.33,0,56.25,0,84.9,0c0,2.26,0,4.4,0,6.54
		c0,49.52,0.01,99.03-0.01,148.55c-0.01,22.63-12.76,35.48-35.22,35.49c-68.53,0.02-137.05,0.02-205.58,0
		c-22.11-0.01-35.09-12.93-35.1-34.94c-0.02-49.74-0.01-99.47-0.01-149.21c0-1.97,0-3.94,0-6.39
		C32.06,448.77,59.98,448.77,88.72,448.77z M77.68,575.63c10.17,0,20.34,0.08,30.5-0.02c7.67-0.08,12.47-4.41,12.31-10.84
		c-0.15-6.2-4.77-10.29-12.14-10.32c-20.11-0.08-40.23-0.08-60.35,0c-7.69,0.03-12.45,4.37-12.3,10.83
		c0.15,6.2,4.77,10.26,12.13,10.34C57.78,575.71,67.73,575.63,77.68,575.63z M78.1,586.25c-9.95,0-19.89-0.06-29.84,0.02
		c-7.85,0.06-12.55,4.11-12.55,10.58c-0.01,6.44,4.73,10.57,12.54,10.6c19.89,0.07,39.79,0.07,59.68,0
		c7.78-0.03,12.56-4.18,12.56-10.59c0-6.43-4.76-10.53-12.55-10.59C97.99,586.19,88.05,586.25,78.1,586.25z"/>
	<path class="st1" d="M438.91,562.82c0,7.17,0.01,14.21,0,21.25c-0.02,9.55-4.15,16.76-12.97,20.51
		c-8.81,3.74-16.94,1.85-23.73-4.92c-25.36-25.29-50.73-50.57-75.95-76c-9.17-9.24-9.25-21.53-0.13-30.74
		c25.2-25.45,50.58-50.72,75.95-76c6.72-6.7,14.74-8.92,23.67-5.15c8.85,3.74,13.07,10.85,13.14,20.4
		c0.06,7.05,0.01,14.1,0.01,22.91c7.43-1.27,14.46-1.65,20.96-3.72c23.21-7.4,41.43-22.45,57.62-39.98
		c20.01-21.66,36.34-45.6,42.76-75.08c0.56-2.58-0.02-5.84,1.36-7.72c2.27-3.09,5.34-6.37,8.78-7.62c4.47-1.62,8.95,0.54,10.82,5.31
		c17.38,44.48,25.97,89.73,8.57,136.2c-14.6,39-43.77,64.42-81.36,79.8c-19.68,8.05-40.77,12.66-61.24,18.76
		C444.67,561.77,442.05,562.15,438.91,562.82z"/>
	<path class="st0" d="M205.46,189.39c-9.57,2.24-18.73,2.72-26.31,6.42c-48.2,23.48-80.13,61.04-94.95,112.78
		c-0.78,2.73-0.07,6.26-1.56,8.34c-2.24,3.11-5.62,6.95-8.89,7.34c-3.23,0.39-9.02-2.28-10.12-5.03
		c-19.29-48.35-27.87-97.36-4.49-146.9c16.08-34.09,43.84-56.36,78.08-69.94c20.17-8,41.62-12.84,62.64-18.56
		c4.29-1.17,5.88-2.49,5.63-6.85c-0.32-5.5-0.12-11.04,0-16.57c0.21-9.26,4.38-16.12,12.96-19.81c8.34-3.59,16.36-2.23,22.71,4.03
		c26.1,25.76,52.07,51.67,77.8,77.81c8.32,8.45,8.18,20.72-0.23,29.26c-25.59,25.96-51.42,51.69-77.32,77.35
		c-6.61,6.55-14.82,7.81-23.29,4.12c-8.24-3.59-12.42-10.37-12.62-19.36C205.33,206.55,205.46,199.27,205.46,189.39z"/>
	<path class="st1" d="M470.96,107.29c0-35.53,0-69.68,0-104.28c21.02,0,41.85,0,63.09,0c0,34.35,0,68.64,0,104.08
		c-7.84-6-15.09-11.58-22.37-17.11c-7.44-5.64-10.74-5.63-18.23,0.06C486.28,95.5,479.16,101,470.96,107.29z"/>
	<path class="st0" d="M173.16,467.85c-6.81-5.2-12.92-9.83-19-14.51c-11.84-9.12-12.97-9.13-24.55-0.19
		c-6.1,4.71-12.22,9.4-19.09,14.67c0-34.99,0-69.2,0-103.93c20.5,0,41.32,0,62.64,0C173.16,398.06,173.16,432.38,173.16,467.85z"/>
	<path class="st1" d="M556,2.83c19.26,0,38.22-0.8,57.09,0.26c14.32,0.81,25.99,13.17,27.09,27.45c0.89,11.58,0.18,23.29,0.18,35.31
		c-28.22,0-56.11,0-84.35,0C556,44.98,556,24.31,556,2.83z"/>
	<path class="st0" d="M279.72,426.75c-28.4,0-56.13,0-84.38,0c0-20.78,0-41.61,0-63.36c3.06,0,6.27,0,9.49,0
		c14.13,0,28.25-0.1,42.38,0.03c18.6,0.17,32.22,13.64,32.49,32.11C279.85,405.67,279.72,415.82,279.72,426.75z"/>
	<path class="st1" d="M449.25,2.64c0,21.33,0,42,0,63.14c-27.97,0-55.86,0-84.04,0c0-12.44-1.17-25.05,0.3-37.35
		c1.73-14.48,14.48-25.27,28.73-25.67C412.32,2.26,430.42,2.64,449.25,2.64z"/>
	<path class="st0" d="M88.47,363.49c0,21.38,0,42.05,0,63.15c-28.09,0-55.98,0-84.2,0c0-12.35-1.05-24.74,0.27-36.86
		c1.58-14.42,14.14-25.65,28.34-26.14C51.16,363.02,69.47,363.49,88.47,363.49z"/>
	<linearGradient id="SVGID_1_" gradientUnits="userSpaceOnUse" x1="364.6289" y1="183.1408" x2="640.557" y2="183.1408">
		<stop  offset="0" style="stop-color:#FFFFFF;stop-opacity:0.4"/>
		<stop  offset="0.0691" style="stop-color:#FFFFFF;stop-opacity:0.3435"/>
		<stop  offset="0.4892" style="stop-color:#FFFFFF;stop-opacity:0"/>
		<stop  offset="0.7527" style="stop-color:#FAFAFA;stop-opacity:0.1032"/>
		<stop  offset="1" style="stop-color:#EFEFEF;stop-opacity:0.2"/>
	</linearGradient>
	<path class="st2" d="M364.63,87.79c28.72,0,56.49,0,84.91,0c0,6.21-0.08,12.13,0.02,18.04c0.14,9.06,3.48,16.45,11.93,20.6
		c8.43,4.14,16.27,2.48,23.52-3.16c5.73-4.46,11.54-8.82,17.59-13.42c5.97,4.55,11.7,9,17.51,13.35c7.23,5.4,15.07,7.48,23.55,3.24
		c8.64-4.32,12.19-11.69,12.01-21.16c-0.11-5.7-0.02-11.4-0.02-17.44c28.33,0,56.1,0,84.9,0c0,2.2,0,4.52,0,6.84
		c0,49.52,0.01,99.03-0.01,148.55c-0.01,22.47-12.88,35.26-35.44,35.27c-68.31,0.01-136.61,0.01-204.92,0
		c-22.87,0-35.55-12.78-35.55-35.82c-0.01-49.3,0-98.59,0-147.89C364.63,92.61,364.63,90.44,364.63,87.79z M439.39,193.59
		c-10.17,0-20.34-0.07-30.5,0.02c-7.73,0.07-12.48,4.31-12.36,10.77c0.12,6.21,4.73,10.36,12.07,10.4
		c20.11,0.09,40.23,0.08,60.35,0.01c7.7-0.03,12.49-4.35,12.37-10.78c-0.12-6.4-4.87-10.34-12.75-10.4
		C458.84,193.54,449.11,193.59,439.39,193.59z M438.97,246.65c9.95,0,19.89,0.07,29.84-0.02c7.76-0.07,12.54-4.23,12.5-10.65
		c-0.04-6.42-4.79-10.5-12.61-10.53c-19.89-0.06-39.79-0.07-59.68,0c-7.82,0.03-12.53,4.17-12.49,10.64
		c0.03,6.43,4.77,10.48,12.6,10.54C419.07,246.71,429.02,246.65,438.97,246.65z"/>
	
		<linearGradient id="SVGID_00000073685138689681735820000006124654808512930697_" gradientUnits="userSpaceOnUse" x1="3.8067" y1="544.0199" x2="279.7364" y2="544.0199">
		<stop  offset="0" style="stop-color:#FFFFFF;stop-opacity:0.4"/>
		<stop  offset="0.0691" style="stop-color:#FFFFFF;stop-opacity:0.3435"/>
		<stop  offset="0.4892" style="stop-color:#FFFFFF;stop-opacity:0"/>
		<stop  offset="0.7527" style="stop-color:#FAFAFA;stop-opacity:0.1032"/>
		<stop  offset="1" style="stop-color:#EFEFEF;stop-opacity:0.2"/>
	</linearGradient>
	<path style="fill:url(#SVGID_00000073685138689681735820000006124654808512930697_);" d="M88.72,448.77
		c0,6.43-0.12,12.38,0.03,18.32c0.23,8.79,3.55,15.96,11.72,20.05c8.4,4.21,16.25,2.7,23.53-2.93c5.76-4.45,11.57-8.83,17.76-13.55
		c5.64,4.31,11.22,8.58,16.8,12.84c7.56,5.78,15.68,8.22,24.66,3.54c8.6-4.48,11.87-11.98,11.62-21.39
		c-0.14-5.49-0.03-10.99-0.03-16.92c28.33,0,56.25,0,84.9,0c0,2.26,0,4.4,0,6.54c0,49.52,0.01,99.03-0.01,148.55
		c-0.01,22.63-12.76,35.48-35.22,35.49c-68.53,0.02-137.05,0.02-205.58,0c-22.11-0.01-35.09-12.93-35.1-34.94
		c-0.02-49.74-0.01-99.47-0.01-149.21c0-1.97,0-3.94,0-6.39C32.06,448.77,59.98,448.77,88.72,448.77z M77.68,575.63
		c10.17,0,20.34,0.08,30.5-0.02c7.67-0.08,12.47-4.41,12.31-10.84c-0.15-6.2-4.77-10.29-12.14-10.32c-20.11-0.08-40.23-0.08-60.35,0
		c-7.69,0.03-12.45,4.37-12.3,10.83c0.15,6.2,4.77,10.26,12.13,10.34C57.78,575.71,67.73,575.63,77.68,575.63z M78.1,586.25
		c-9.95,0-19.89-0.06-29.84,0.02c-7.85,0.06-12.55,4.11-12.55,10.58c-0.01,6.44,4.73,10.57,12.54,10.6
		c19.89,0.07,39.79,0.07,59.68,0c7.78-0.03,12.56-4.18,12.56-10.59c0-6.43-4.76-10.53-12.55-10.59
		C97.99,586.19,88.05,586.25,78.1,586.25z"/>
	
		<linearGradient id="SVGID_00000032632197493755522370000005191040812458278816_" gradientUnits="userSpaceOnUse" x1="319.3422" y1="463.4406" x2="599.2997" y2="463.4406">
		<stop  offset="0" style="stop-color:#FFFFFF;stop-opacity:0.4"/>
		<stop  offset="0.0691" style="stop-color:#FFFFFF;stop-opacity:0.3435"/>
		<stop  offset="0.4892" style="stop-color:#FFFFFF;stop-opacity:0"/>
		<stop  offset="0.7527" style="stop-color:#FAFAFA;stop-opacity:0.1032"/>
		<stop  offset="1" style="stop-color:#EFEFEF;stop-opacity:0.2"/>
	</linearGradient>
	<path style="fill:url(#SVGID_00000032632197493755522370000005191040812458278816_);" d="M438.91,562.82c0,7.17,0.01,14.21,0,21.25
		c-0.02,9.55-4.15,16.76-12.97,20.51c-8.81,3.74-16.94,1.85-23.73-4.92c-25.36-25.29-50.73-50.57-75.95-76
		c-9.17-9.24-9.25-21.53-0.13-30.74c25.2-25.45,50.58-50.72,75.95-76c6.72-6.7,14.74-8.92,23.67-5.15
		c8.85,3.74,13.07,10.85,13.14,20.4c0.06,7.05,0.01,14.1,0.01,22.91c7.43-1.27,14.46-1.65,20.96-3.72
		c23.21-7.4,41.43-22.45,57.62-39.98c20.01-21.66,36.34-45.6,42.76-75.08c0.56-2.58-0.02-5.84,1.36-7.72
		c2.27-3.09,5.34-6.37,8.78-7.62c4.47-1.62,8.95,0.54,10.82,5.31c17.38,44.48,25.97,89.73,8.57,136.2
		c-14.6,39-43.77,64.42-81.36,79.8c-19.68,8.05-40.77,12.66-61.24,18.76C444.67,561.77,442.05,562.15,438.91,562.82z"/>
	
		<linearGradient id="SVGID_00000063625479079317367670000017169430835324897953_" gradientUnits="userSpaceOnUse" x1="45.0067" y1="181.4857" x2="325.1056" y2="181.4857">
		<stop  offset="0" style="stop-color:#FFFFFF;stop-opacity:0.4"/>
		<stop  offset="0.0691" style="stop-color:#FFFFFF;stop-opacity:0.3435"/>
		<stop  offset="0.4892" style="stop-color:#FFFFFF;stop-opacity:0"/>
		<stop  offset="0.7527" style="stop-color:#FAFAFA;stop-opacity:0.1032"/>
		<stop  offset="1" style="stop-color:#EFEFEF;stop-opacity:0.2"/>
	</linearGradient>
	<path style="fill:url(#SVGID_00000063625479079317367670000017169430835324897953_);" d="M205.46,189.39
		c-9.57,2.24-18.73,2.72-26.31,6.42c-48.2,23.48-80.13,61.04-94.95,112.78c-0.78,2.73-0.07,6.26-1.56,8.34
		c-2.24,3.11-5.62,6.95-8.89,7.34c-3.23,0.39-9.02-2.28-10.12-5.03c-19.29-48.35-27.87-97.36-4.49-146.9
		c16.08-34.09,43.84-56.36,78.08-69.94c20.17-8,41.62-12.84,62.64-18.56c4.29-1.17,5.88-2.49,5.63-6.85
		c-0.32-5.5-0.12-11.04,0-16.57c0.21-9.26,4.38-16.12,12.96-19.81c8.34-3.59,16.36-2.23,22.71,4.03
		c26.1,25.76,52.07,51.67,77.8,77.81c8.32,8.45,8.18,20.72-0.23,29.26c-25.59,25.96-51.42,51.69-77.32,77.35
		c-6.61,6.55-14.82,7.81-23.29,4.12c-8.24-3.59-12.42-10.37-12.62-19.36C205.33,206.55,205.46,199.27,205.46,189.39z"/>
	
		<linearGradient id="SVGID_00000155842374381314325560000016675627901323194280_" gradientUnits="userSpaceOnUse" x1="470.9563" y1="55.1509" x2="534.05" y2="55.1509">
		<stop  offset="0" style="stop-color:#FFFFFF;stop-opacity:0.4"/>
		<stop  offset="0.0691" style="stop-color:#FFFFFF;stop-opacity:0.3435"/>
		<stop  offset="0.4892" style="stop-color:#FFFFFF;stop-opacity:0"/>
		<stop  offset="0.7527" style="stop-color:#FAFAFA;stop-opacity:0.1032"/>
		<stop  offset="1" style="stop-color:#EFEFEF;stop-opacity:0.2"/>
	</linearGradient>
	<path style="fill:url(#SVGID_00000155842374381314325560000016675627901323194280_);" d="M470.96,107.29c0-35.53,0-69.68,0-104.28
		c21.02,0,41.85,0,63.09,0c0,34.35,0,68.64,0,104.08c-7.84-6-15.09-11.58-22.37-17.11c-7.44-5.64-10.74-5.63-18.23,0.06
		C486.28,95.5,479.16,101,470.96,107.29z"/>
	
		<linearGradient id="SVGID_00000176021129688235949890000008511218751898980248_" gradientUnits="userSpaceOnUse" x1="110.5258" y1="415.8721" x2="173.1628" y2="415.8721">
		<stop  offset="0" style="stop-color:#FFFFFF;stop-opacity:0.4"/>
		<stop  offset="0.0691" style="stop-color:#FFFFFF;stop-opacity:0.3435"/>
		<stop  offset="0.4892" style="stop-color:#FFFFFF;stop-opacity:0"/>
		<stop  offset="0.7527" style="stop-color:#FAFAFA;stop-opacity:0.1032"/>
		<stop  offset="1" style="stop-color:#EFEFEF;stop-opacity:0.2"/>
	</linearGradient>
	<path style="fill:url(#SVGID_00000176021129688235949890000008511218751898980248_);" d="M173.16,467.85
		c-6.81-5.2-12.92-9.83-19-14.51c-11.84-9.12-12.97-9.13-24.55-0.19c-6.1,4.71-12.22,9.4-19.09,14.67c0-34.99,0-69.2,0-103.93
		c20.5,0,41.32,0,62.64,0C173.16,398.06,173.16,432.38,173.16,467.85z"/>
	
		<linearGradient id="SVGID_00000027577434819476145250000013791512636116229019_" gradientUnits="userSpaceOnUse" x1="556.004" y1="34.1989" x2="640.6213" y2="34.1989">
		<stop  offset="0" style="stop-color:#FFFFFF;stop-opacity:0.4"/>
		<stop  offset="0.0691" style="stop-color:#FFFFFF;stop-opacity:0.3435"/>
		<stop  offset="0.4892" style="stop-color:#FFFFFF;stop-opacity:0"/>
		<stop  offset="0.7527" style="stop-color:#FAFAFA;stop-opacity:0.1032"/>
		<stop  offset="1" style="stop-color:#EFEFEF;stop-opacity:0.2"/>
	</linearGradient>
	<path style="fill:url(#SVGID_00000027577434819476145250000013791512636116229019_);" d="M556,2.83c19.26,0,38.22-0.8,57.09,0.26
		c14.32,0.81,25.99,13.17,27.09,27.45c0.89,11.58,0.18,23.29,0.18,35.31c-28.22,0-56.11,0-84.35,0C556,44.98,556,24.31,556,2.83z"/>
	
		<linearGradient id="SVGID_00000020359830445898107200000001112149660516638379_" gradientUnits="userSpaceOnUse" x1="195.343" y1="395.0497" x2="279.7708" y2="395.0497">
		<stop  offset="0" style="stop-color:#FFFFFF;stop-opacity:0.4"/>
		<stop  offset="0.0691" style="stop-color:#FFFFFF;stop-opacity:0.3435"/>
		<stop  offset="0.4892" style="stop-color:#FFFFFF;stop-opacity:0"/>
		<stop  offset="0.7527" style="stop-color:#FAFAFA;stop-opacity:0.1032"/>
		<stop  offset="1" style="stop-color:#EFEFEF;stop-opacity:0.2"/>
	</linearGradient>
	<path style="fill:url(#SVGID_00000020359830445898107200000001112149660516638379_);" d="M279.72,426.75c-28.4,0-56.13,0-84.38,0
		c0-20.78,0-41.61,0-63.36c3.06,0,6.27,0,9.49,0c14.13,0,28.25-0.1,42.38,0.03c18.6,0.17,32.22,13.64,32.49,32.11
		C279.85,405.67,279.72,415.82,279.72,426.75z"/>
	
		<linearGradient id="SVGID_00000093860580142260139110000001928591708642201984_" gradientUnits="userSpaceOnUse" x1="364.7751" y1="34.1386" x2="449.2501" y2="34.1386">
		<stop  offset="0" style="stop-color:#FFFFFF;stop-opacity:0.4"/>
		<stop  offset="0.0691" style="stop-color:#FFFFFF;stop-opacity:0.3435"/>
		<stop  offset="0.4892" style="stop-color:#FFFFFF;stop-opacity:0"/>
		<stop  offset="0.7527" style="stop-color:#FAFAFA;stop-opacity:0.1032"/>
		<stop  offset="1" style="stop-color:#EFEFEF;stop-opacity:0.2"/>
	</linearGradient>
	<path style="fill:url(#SVGID_00000093860580142260139110000001928591708642201984_);" d="M449.25,2.64c0,21.33,0,42,0,63.14
		c-27.97,0-55.86,0-84.04,0c0-12.44-1.17-25.05,0.3-37.35c1.73-14.48,14.48-25.27,28.73-25.67C412.32,2.26,430.42,2.64,449.25,2.64z
		"/>
	
		<linearGradient id="SVGID_00000050647843121701437190000008427864515717578161_" gradientUnits="userSpaceOnUse" x1="3.872" y1="394.9756" x2="88.4706" y2="394.9756">
		<stop  offset="0" style="stop-color:#FFFFFF;stop-opacity:0.4"/>
		<stop  offset="0.0691" style="stop-color:#FFFFFF;stop-opacity:0.3435"/>
		<stop  offset="0.4892" style="stop-color:#FFFFFF;stop-opacity:0"/>
		<stop  offset="0.7527" style="stop-color:#FAFAFA;stop-opacity:0.1032"/>
		<stop  offset="1" style="stop-color:#EFEFEF;stop-opacity:0.2"/>
	</linearGradient>
	<path style="fill:url(#SVGID_00000050647843121701437190000008427864515717578161_);" d="M88.47,363.49c0,21.38,0,42.05,0,63.15
		c-28.09,0-55.98,0-84.2,0c0-12.35-1.05-24.74,0.27-36.86c1.58-14.42,14.14-25.65,28.34-26.14
		C51.16,363.02,69.47,363.49,88.47,363.49z"/>
</g>
</svg>
