<?xml version="1.0" encoding="utf-8"?>
<!-- Generator: Adobe Illustrator 26.2.1, SVG Export Plug-In . SVG Version: 6.00 Build 0)  -->
<svg version="1.1" id="Layer_1" xmlns="http://www.w3.org/2000/svg" xmlns:xlink="http://www.w3.org/1999/xlink" x="0px" y="0px"
	 viewBox="0 0 26.01 6.76" style="enable-background:new 0 0 26.01 6.76;" xml:space="preserve">
<image style="overflow:visible;" width="120" height="21" xlink:href="C:\Users\admin\Desktop\dmca_protected_sml_120d.png"  transform="matrix(2.4104 0 0 2.4104 -729.2136 -238.4393)">
</image>
<image style="overflow:visible;" width="854" height="107" xlink:href="C:\Users\admin\Desktop\copyscape-banner-black-200x25.png"  transform="matrix(0.6181 0 0 0.6181 28.6153 51.2189)">
</image>
<g>
	<path d="M5.03,0.43c0.5,0.29,0.89,0.69,1.17,1.2c0.28,0.51,0.42,1.1,0.42,1.75c0,0.65-0.14,1.24-0.42,1.75
		c-0.28,0.51-0.67,0.92-1.17,1.2c-0.5,0.29-1.08,0.43-1.72,0.43c-0.65,0-1.22-0.14-1.72-0.43c-0.5-0.29-0.89-0.69-1.17-1.2
		C0.14,4.61,0,4.03,0,3.38c0-0.65,0.14-1.24,0.42-1.75c0.28-0.51,0.67-0.91,1.17-1.2C2.09,0.14,2.66,0,3.31,0
		C3.96,0,4.53,0.14,5.03,0.43z M1.85,0.87C1.44,1.11,1.12,1.44,0.9,1.87C0.68,2.3,0.56,2.8,0.56,3.38c0,0.57,0.11,1.07,0.33,1.5
		c0.22,0.43,0.54,0.77,0.95,1c0.41,0.24,0.9,0.35,1.46,0.35c0.56,0,1.04-0.12,1.46-0.35c0.41-0.23,0.73-0.57,0.95-1
		c0.22-0.43,0.33-0.93,0.33-1.5c0-0.58-0.11-1.08-0.33-1.51C5.5,1.44,5.18,1.11,4.77,0.87c-0.41-0.23-0.9-0.35-1.46-0.35
		C2.75,0.53,2.27,0.64,1.85,0.87z M2.24,1.52C1.93,1.69,1.68,1.94,1.5,2.26S1.23,2.95,1.23,3.38c0,0.43,0.09,0.8,0.27,1.12
		c0.18,0.32,0.43,0.57,0.74,0.74c0.32,0.17,0.68,0.26,1.08,0.26c0.5,0,0.92-0.14,1.28-0.42c0.36-0.28,0.59-0.66,0.69-1.12H3.9
		C3.8,4.26,3.59,4.41,3.27,4.41c-0.23,0-0.41-0.09-0.55-0.26c-0.13-0.18-0.2-0.43-0.2-0.77c0-0.34,0.07-0.6,0.2-0.77
		c0.13-0.18,0.31-0.26,0.55-0.26c0.16,0,0.29,0.04,0.4,0.12C3.78,2.55,3.86,2.66,3.9,2.8h1.38C5.19,2.33,4.96,1.95,4.6,1.67
		C4.25,1.4,3.82,1.26,3.32,1.26C2.92,1.26,2.56,1.35,2.24,1.52z"/>
	<g>
		<g>
			<path d="M9.32,1.44c-0.05,0.08-0.12,0.15-0.21,0.2C9.01,1.69,8.9,1.72,8.76,1.72H8.49v0.62H8.07V0.61h0.68
				c0.14,0,0.25,0.02,0.35,0.07c0.1,0.05,0.17,0.11,0.21,0.2s0.07,0.18,0.07,0.29C9.39,1.26,9.37,1.36,9.32,1.44z M8.9,1.32
				c0.04-0.04,0.06-0.09,0.06-0.16C8.96,1.1,8.94,1.04,8.9,1C8.86,0.97,8.8,0.95,8.72,0.95H8.49v0.43h0.23
				C8.8,1.38,8.86,1.36,8.9,1.32z"/>
			<path d="M10.49,2.34l-0.36-0.65h-0.1v0.65H9.61V0.61h0.71c0.14,0,0.25,0.02,0.35,0.07c0.1,0.05,0.17,0.11,0.22,0.2
				c0.05,0.08,0.07,0.18,0.07,0.28c0,0.11-0.03,0.22-0.1,0.31c-0.06,0.09-0.16,0.15-0.29,0.19l0.4,0.68H10.49z M10.03,1.39h0.26
				c0.08,0,0.13-0.02,0.17-0.06c0.04-0.04,0.06-0.09,0.06-0.16c0-0.07-0.02-0.12-0.06-0.16c-0.04-0.04-0.1-0.06-0.17-0.06h-0.26
				V1.39z"/>
			<path d="M11.58,2.24c-0.14-0.08-0.24-0.18-0.32-0.32c-0.08-0.14-0.12-0.29-0.12-0.46c0-0.17,0.04-0.32,0.12-0.46
				c0.08-0.13,0.19-0.24,0.32-0.32c0.14-0.08,0.28-0.11,0.45-0.11c0.16,0,0.31,0.04,0.45,0.11c0.14,0.08,0.24,0.18,0.32,0.32
				c0.08,0.13,0.12,0.29,0.12,0.46c0,0.17-0.04,0.32-0.12,0.46c-0.08,0.14-0.19,0.24-0.32,0.32c-0.13,0.08-0.28,0.11-0.45,0.11
				C11.87,2.35,11.72,2.32,11.58,2.24z M12.36,1.83c0.08-0.09,0.12-0.21,0.12-0.36c0-0.15-0.04-0.27-0.12-0.37
				c-0.08-0.09-0.19-0.14-0.33-0.14c-0.14,0-0.25,0.05-0.33,0.14c-0.08,0.09-0.12,0.21-0.12,0.37c0,0.15,0.04,0.27,0.12,0.37
				c0.08,0.09,0.19,0.14,0.33,0.14C12.17,1.97,12.28,1.92,12.36,1.83z"/>
			<path d="M14.39,0.61v0.34h-0.46v1.39h-0.42V0.95h-0.46V0.61H14.39z"/>
			<path d="M15.02,0.95v0.35h0.56v0.32h-0.56V2h0.64v0.34H14.6V0.61h1.06v0.34H15.02z"/>
			<path d="M15.97,1.01c0.07-0.13,0.18-0.24,0.31-0.31c0.13-0.07,0.28-0.11,0.45-0.11c0.21,0,0.38,0.05,0.53,0.16
				c0.15,0.11,0.24,0.26,0.29,0.44h-0.46C17.05,1.12,17,1.07,16.94,1.03c-0.06-0.04-0.13-0.06-0.22-0.06
				c-0.13,0-0.23,0.05-0.31,0.14c-0.08,0.09-0.12,0.21-0.12,0.36s0.04,0.27,0.12,0.36c0.08,0.09,0.19,0.14,0.31,0.14
				c0.08,0,0.15-0.02,0.22-0.06c0.06-0.04,0.11-0.09,0.15-0.16h0.46c-0.05,0.19-0.15,0.33-0.29,0.44c-0.15,0.11-0.32,0.16-0.53,0.16
				c-0.17,0-0.32-0.04-0.45-0.11c-0.13-0.07-0.24-0.18-0.31-0.31c-0.07-0.13-0.11-0.28-0.11-0.46S15.9,1.15,15.97,1.01z"/>
			<path d="M19.05,0.61v0.34h-0.46v1.39h-0.42V0.95h-0.46V0.61H19.05z"/>
			<path d="M19.68,0.95v0.35h0.56v0.32h-0.56V2h0.64v0.34h-1.06V0.61h1.06v0.34H19.68z"/>
			<path d="M21.72,0.72c0.14,0.07,0.24,0.17,0.32,0.3c0.07,0.13,0.11,0.28,0.11,0.45c0,0.17-0.04,0.32-0.11,0.45
				c-0.07,0.13-0.18,0.23-0.32,0.31c-0.14,0.07-0.3,0.11-0.48,0.11h-0.65V0.61h0.65C21.42,0.61,21.58,0.64,21.72,0.72z M21.59,1.84
				c0.09-0.09,0.13-0.21,0.13-0.37c0-0.16-0.04-0.28-0.13-0.37c-0.09-0.09-0.21-0.13-0.37-0.13h-0.2v1h0.2
				C21.37,1.97,21.5,1.93,21.59,1.84z"/>
			<path d="M24.19,1.6c0.06,0.08,0.09,0.17,0.09,0.27c0,0.14-0.05,0.26-0.15,0.34c-0.1,0.08-0.24,0.13-0.42,0.13h-0.8V0.61h0.78
				c0.18,0,0.31,0.04,0.41,0.12c0.1,0.08,0.15,0.19,0.15,0.33c0,0.1-0.03,0.19-0.08,0.25c-0.05,0.07-0.12,0.11-0.21,0.14
				C24.05,1.47,24.13,1.52,24.19,1.6z M23.32,1.31h0.28c0.07,0,0.12-0.02,0.16-0.05c0.04-0.03,0.06-0.08,0.06-0.13
				c0-0.06-0.02-0.1-0.06-0.14c-0.04-0.03-0.09-0.05-0.16-0.05h-0.28V1.31z M23.8,1.95c0.04-0.03,0.06-0.08,0.06-0.14
				c0-0.06-0.02-0.11-0.06-0.14c-0.04-0.03-0.1-0.05-0.17-0.05h-0.31V2h0.31C23.71,2,23.76,1.98,23.8,1.95z"/>
			<path d="M26.01,0.61l-0.6,1.16v0.57h-0.42V1.76l-0.6-1.16h0.48l0.33,0.72l0.33-0.72H26.01z"/>
		</g>
		<g>
			<path d="M8.18,4.84C8.26,4.71,8.36,4.6,8.49,4.53c0.13-0.07,0.28-0.11,0.45-0.11c0.21,0,0.38,0.05,0.53,0.16
				c0.15,0.11,0.24,0.26,0.29,0.44H9.3C9.26,4.95,9.22,4.89,9.15,4.85C9.09,4.82,9.02,4.8,8.94,4.8c-0.13,0-0.23,0.05-0.32,0.14
				C8.54,5.02,8.5,5.14,8.5,5.3c0,0.15,0.04,0.27,0.12,0.36C8.7,5.75,8.81,5.79,8.94,5.79c0.08,0,0.15-0.02,0.22-0.06
				C9.22,5.7,9.26,5.64,9.3,5.57h0.46C9.71,5.76,9.62,5.91,9.47,6.01C9.32,6.12,9.15,6.17,8.94,6.17c-0.17,0-0.32-0.04-0.45-0.11
				C8.36,5.99,8.26,5.88,8.18,5.75C8.11,5.62,8.07,5.47,8.07,5.3C8.07,5.12,8.11,4.97,8.18,4.84z"/>
			<path d="M10.39,6.07c-0.14-0.08-0.24-0.18-0.32-0.32C9.99,5.61,9.95,5.46,9.95,5.29c0-0.17,0.04-0.32,0.12-0.46
				c0.08-0.13,0.19-0.24,0.32-0.32c0.14-0.08,0.28-0.11,0.45-0.11c0.16,0,0.31,0.04,0.45,0.11c0.14,0.08,0.24,0.18,0.32,0.32
				c0.08,0.13,0.12,0.29,0.12,0.46c0,0.17-0.04,0.32-0.12,0.46c-0.08,0.14-0.19,0.24-0.32,0.32S11,6.18,10.84,6.18
				C10.67,6.18,10.53,6.14,10.39,6.07z M11.17,5.66c0.08-0.09,0.12-0.21,0.12-0.36c0-0.15-0.04-0.27-0.12-0.37
				c-0.08-0.09-0.19-0.14-0.33-0.14c-0.14,0-0.25,0.05-0.33,0.14c-0.08,0.09-0.12,0.21-0.12,0.37c0,0.15,0.04,0.27,0.12,0.37
				c0.08,0.09,0.19,0.14,0.33,0.14C10.98,5.79,11.09,5.75,11.17,5.66z"/>
			<path d="M13.2,5.26c-0.05,0.08-0.12,0.15-0.21,0.2c-0.1,0.05-0.21,0.08-0.35,0.08h-0.26v0.62h-0.42V4.43h0.68
				c0.14,0,0.25,0.02,0.35,0.07c0.1,0.05,0.17,0.11,0.21,0.2c0.05,0.08,0.07,0.18,0.07,0.29C13.27,5.09,13.25,5.18,13.2,5.26z
				 M12.78,5.15c0.04-0.04,0.06-0.09,0.06-0.16c0-0.07-0.02-0.12-0.06-0.16c-0.04-0.04-0.1-0.06-0.18-0.06h-0.23v0.43h0.23
				C12.68,5.21,12.74,5.19,12.78,5.15z"/>
			<path d="M14.97,4.43l-0.6,1.16v0.57h-0.42V5.59l-0.6-1.16h0.48l0.33,0.72l0.33-0.72H14.97z"/>
			<path d="M15.43,6.12c-0.1-0.04-0.18-0.1-0.24-0.18c-0.06-0.08-0.09-0.18-0.09-0.29h0.45c0.01,0.06,0.03,0.11,0.07,0.15
				c0.04,0.03,0.09,0.05,0.15,0.05c0.06,0,0.11-0.01,0.15-0.04c0.04-0.03,0.05-0.07,0.05-0.12c0-0.04-0.01-0.08-0.04-0.11
				c-0.03-0.03-0.06-0.05-0.11-0.07c-0.04-0.02-0.1-0.04-0.18-0.06c-0.11-0.03-0.2-0.07-0.27-0.1c-0.07-0.03-0.13-0.09-0.18-0.15
				c-0.05-0.07-0.08-0.16-0.08-0.26c0-0.16,0.06-0.29,0.17-0.38c0.12-0.09,0.27-0.14,0.46-0.14c0.19,0,0.34,0.05,0.46,0.14
				c0.12,0.09,0.18,0.22,0.19,0.38h-0.46c0-0.06-0.02-0.1-0.06-0.13c-0.04-0.03-0.09-0.05-0.15-0.05c-0.05,0-0.09,0.01-0.12,0.04
				c-0.03,0.03-0.05,0.07-0.05,0.12c0,0.06,0.03,0.1,0.08,0.13c0.05,0.03,0.13,0.06,0.25,0.1c0.11,0.04,0.2,0.07,0.27,0.11
				c0.07,0.03,0.13,0.08,0.18,0.15c0.05,0.07,0.08,0.15,0.08,0.25c0,0.1-0.03,0.19-0.08,0.27C16.27,6,16.2,6.06,16.1,6.11
				s-0.21,0.07-0.34,0.07C15.64,6.18,15.53,6.16,15.43,6.12z"/>
			<path d="M16.69,4.84C16.77,4.71,16.87,4.6,17,4.53c0.13-0.07,0.28-0.11,0.45-0.11c0.21,0,0.38,0.05,0.53,0.16
				c0.15,0.11,0.24,0.26,0.29,0.44h-0.46c-0.03-0.07-0.08-0.13-0.15-0.16C17.6,4.82,17.53,4.8,17.45,4.8
				c-0.13,0-0.23,0.05-0.32,0.14c-0.08,0.09-0.12,0.21-0.12,0.36c0,0.15,0.04,0.27,0.12,0.36c0.08,0.09,0.19,0.14,0.32,0.14
				c0.08,0,0.15-0.02,0.22-0.06c0.06-0.04,0.11-0.09,0.15-0.16h0.46c-0.05,0.19-0.15,0.33-0.29,0.44c-0.15,0.11-0.32,0.16-0.53,0.16
				c-0.17,0-0.32-0.04-0.45-0.11c-0.13-0.07-0.23-0.18-0.31-0.31c-0.07-0.13-0.11-0.28-0.11-0.46C16.58,5.12,16.62,4.97,16.69,4.84z
				"/>
			<path d="M19.6,5.86h-0.64l-0.1,0.31h-0.44l0.63-1.73h0.49l0.63,1.73h-0.45L19.6,5.86z M19.5,5.53L19.28,4.9l-0.21,0.63H19.5z"/>
			<path d="M21.59,5.26c-0.05,0.08-0.12,0.15-0.21,0.2c-0.1,0.05-0.21,0.08-0.35,0.08h-0.26v0.62h-0.42V4.43h0.68
				c0.14,0,0.25,0.02,0.35,0.07c0.1,0.05,0.17,0.11,0.21,0.2c0.05,0.08,0.07,0.18,0.07,0.29C21.66,5.09,21.64,5.18,21.59,5.26z
				 M21.17,5.15c0.04-0.04,0.06-0.09,0.06-0.16c0-0.07-0.02-0.12-0.06-0.16c-0.04-0.04-0.1-0.06-0.18-0.06h-0.23v0.43h0.23
				C21.07,5.21,21.13,5.19,21.17,5.15z"/>
			<path d="M22.3,4.77v0.35h0.56v0.32H22.3v0.38h0.64v0.34h-1.06V4.43h1.06v0.34H22.3z"/>
		</g>
	</g>
</g>
</svg>
