<?xml version="1.0" encoding="UTF-8"?>
<svg id="report" xmlns="http://www.w3.org/2000/svg" version="1.1" xmlns:xlink="http://www.w3.org/1999/xlink" viewBox="0 0 640.62 640.62">
  <defs>
    <style>
      .cls-1 {
        fill: #360061;
      }

      .cls-1, .cls-2, .cls-3, .cls-4, .cls-5, .cls-6, .cls-7 {
        stroke-width: 0px;
      }

      .cls-2 {
        fill: url(#linear-gradient);
      }

      .cls-3 {
        fill: url(#linear-gradient-5);
      }

      .cls-4 {
        fill: #5800b2;
      }

      .cls-5 {
        fill: url(#linear-gradient-2);
      }

      .cls-6 {
        fill: url(#linear-gradient-3);
      }

      .cls-7 {
        fill: url(#linear-gradient-4);
      }
    </style>
    <linearGradient id="linear-gradient" x1="29.25" y1="191.82" x2="500.74" y2="556.93" gradientUnits="userSpaceOnUse">
      <stop offset="0" stop-color="#efefef" stop-opacity=".2"/>
      <stop offset=".25" stop-color="#fafafa" stop-opacity=".1"/>
      <stop offset=".51" stop-color="#fff" stop-opacity="0"/>
      <stop offset=".93" stop-color="#fff" stop-opacity=".34"/>
      <stop offset="1" stop-color="#fff" stop-opacity=".4"/>
    </linearGradient>
    <linearGradient id="linear-gradient-2" x1="90.71" y1="112.46" x2="562.19" y2="477.57" xlink:href="#linear-gradient"/>
    <linearGradient id="linear-gradient-3" x1="98.59" y1="102.28" x2="570.07" y2="467.4" xlink:href="#linear-gradient"/>
    <linearGradient id="linear-gradient-4" x1="-77.36" y1="329.49" x2="394.13" y2="694.61" xlink:href="#linear-gradient"/>
    <linearGradient id="linear-gradient-5" x1="46.71" y1="169.28" x2="518.19" y2="534.4" xlink:href="#linear-gradient"/>
  </defs>
  <g>
    <path class="cls-4" d="M395.5,468.18v28.69h-173.71c-.76-1.89-1.67-4.16-2.6-6.42-9.9-24.03-32.81-39.24-58.68-38.97-25.65.27-48.17,15.56-57.48,39.56-1.85,4.77-3.94,7.02-9.27,6.42-4.75-.53-9.61-.04-14.42-.13-7.41-.13-10.19-2.97-10.44-10.49-.04-1.14,0-2.29,0-3.44,0-89.82,0-179.65,0-269.47,0-11.99,1.82-13.77,13.98-13.78,14.37,0,28.74,0,42.58,0-3.11,13.86-6.87,27.07-8.96,40.53-9.54,61.64,31.62,120.97,91.65,132.79,62.59,12.32,121.35-24.96,136.95-86.72,7.04-27.89,4.72-54.9-6.67-81.22-.61-1.42-1.14-2.87-2.06-5.2,18.04,0,35.33-.23,52.6.28,2.22.07,4.67,3.73,6.36,6.18.89,1.29.44,3.56.44,5.38.02,77.68.01,155.36.01,233.04v5.62c-2.89.18-5.5.48-8.12.48-47.66.03-95.32.02-142.98.02-1.83,0-3.67-.04-5.5.01-7.29.21-11.07,3.16-10.96,8.52.11,5.3,3.99,8.29,11.24,8.29,49.04.04,98.07.02,147.11.02,2.73,0,5.46,0,8.92,0Z"/>
    <path class="cls-1" d="M240.64,358.22c0-5.19.04-9.96-.01-14.73-.05-5.34-2.61-8.8-8.03-9.34-4.83-.49-8.37,3.54-8.55,9.43-.14,4.76-.03,9.54-.03,14.29-34.82.66-86.44-31.69-91.55-90.78,4.75,0,9.43.15,14.09-.04,6.76-.27,10.49-3.39,10.17-8.58-.39-6.5-4.86-8.23-10.47-8.28-4.52-.04-9.04,0-13.99,0,1.17-17.71,5.6-33.66,12.37-48.98,2.08-4.71,5.24-4.38,8.5-.79,11.2,12.32,25.37,13.75,40.4,10.15,14.07-3.37,22.72-14.6,23.52-30.2.39-7.5-.26-15.08-.84-22.6-2.13-27.9,4.7-52.24,27.69-70.12,3.57-2.78,7.73-4.89,11.86-6.81,1.54-.72,4.43-.71,5.47.28,1.1,1.04,1.25,3.74.89,5.53-.97,4.91-2.71,9.68-3.65,14.59-4.47,23.37,4.12,41.98,20.83,57.93,10.58,10.1,21.22,20.29,30.5,31.55,13.86,16.81,21.22,36.55,22.1,59.48-4.87,0-9.38-.14-13.89.03-6.64.26-10.44,3.52-10.1,8.7.4,6.08,4.51,8.03,9.9,8.15,4.29.09,8.58.02,12.8.02,3.72,40.6-46.54,91.64-89.98,91.14ZM227.93,280.74c-8.18-8.39-15.76-16.29-23.49-24.03-5-5.02-10.13-5.58-13.64-1.51-4.2,4.88-2.38,9.16,1.69,13.19,9.27,9.16,18.41,18.46,27.67,27.63,6.26,6.21,9.8,6.17,16.18-.18,13.13-13.07,26.21-26.19,39.3-39.29,5.01-5.01,10.17-9.89,14.96-15.11,3.37-3.68,3.61-8.05-.07-11.66-3.64-3.57-7.83-3.28-11.69,0-1.57,1.33-2.96,2.85-4.42,4.31-15.18,15.22-30.35,30.44-46.51,46.66Z"/>
    <path class="cls-4" d="M571.72,417.62c-15.59,0-30.43.25-45.25-.12-5.87-.15-9.15-4.44-9.2-10.1-.05-5.7,3.31-9.51,9.1-10.29,3.61-.49,7.32-.11,10.98-.24,5.38-.19,8.85-2.84,8.83-8.39-.02-5.55-3.43-8.25-8.9-8.18-5.26.07-10.66-.38-15.75.62-12.94,2.55-21.93,15.07-21.05,28.34.87,13.22,11.5,24.32,24.86,24.94,12.35.58,24.74.25,37.11.31,2.71.01,5.43,0,8.61,0,.26,2.24.63,3.97.64,5.69.05,15.12.08,30.25,0,45.37-.04,10.01-9.15,15.82-18.06,11.49-1.03-.5-1.78-1.97-2.24-3.15-10.83-27.41-30.81-42.62-60.4-42.18-29.32.43-48.62,16.25-58.83,43.47-.24.63-.65,1.19-1.07,1.95h-18.18v-246.99c2.08,0,4.27,0,6.46,0,18.33,0,36.66-.04,54.99.01,14.29.04,21.02,5.14,24.85,18.74,6.39,22.65,12.73,45.32,19.29,68.66h-64.19c0-2.42,0-4.86,0-7.29,0-17.19.04-34.37-.02-51.56-.03-7.95-2.88-11.64-8.55-11.5-5.4.13-8.23,3.82-8.25,11.21-.06,19.02-.11,38.04,0,57.05.08,13.03,6.43,19.33,19.54,19.39,22.45.1,44.91,0,67.37.04,30.45.07,47.29,16.89,47.32,47.15,0,4.98,0,9.96,0,15.54Z"/>
    <path class="cls-1" d="M160.98,468.24c25.62-.07,46.45,20.65,46.31,46.09-.14,25.09-20.9,45.84-45.97,45.96-25.44.12-46.15-20.69-46.08-46.31.06-25.41,20.32-45.67,45.74-45.74ZM177.69,514.12c-.01-9.19-7.31-16.62-16.41-16.7-9.23-.08-17.08,7.87-16.87,17.08.21,9.09,7.73,16.31,16.9,16.23,9.27-.08,16.39-7.3,16.38-16.61Z"/>
    <path class="cls-1" d="M492.37,468.24c25.43.12,45.68,20.6,45.58,46.09-.1,25.37-20.67,45.96-45.92,45.96-25.11,0-45.94-20.77-46.09-45.96-.15-25.5,20.71-46.2,46.43-46.08ZM508.68,514.28c.06-9.08-7.3-16.66-16.34-16.85-9.32-.19-16.96,7.47-16.88,16.93.08,9.27,7.3,16.38,16.61,16.36,9.27-.02,16.55-7.22,16.6-16.43Z"/>
  </g>
  <g>
    <path class="cls-2" d="M395.5,468.18v28.69h-173.71c-.76-1.89-1.67-4.16-2.6-6.42-9.9-24.03-32.81-39.24-58.68-38.97-25.65.27-48.17,15.56-57.48,39.56-1.85,4.77-3.94,7.02-9.27,6.42-4.75-.53-9.61-.04-14.42-.13-7.41-.13-10.19-2.97-10.44-10.49-.04-1.14,0-2.29,0-3.44,0-89.82,0-179.65,0-269.47,0-11.99,1.82-13.77,13.98-13.78,14.37,0,28.74,0,42.58,0-3.11,13.86-6.87,27.07-8.96,40.53-9.54,61.64,31.62,120.97,91.65,132.79,62.59,12.32,121.35-24.96,136.95-86.72,7.04-27.89,4.72-54.9-6.67-81.22-.61-1.42-1.14-2.87-2.06-5.2,18.04,0,35.33-.23,52.6.28,2.22.07,4.67,3.73,6.36,6.18.89,1.29.44,3.56.44,5.38.02,77.68.01,155.36.01,233.04v5.62c-2.89.18-5.5.48-8.12.48-47.66.03-95.32.02-142.98.02-1.83,0-3.67-.04-5.5.01-7.29.21-11.07,3.16-10.96,8.52.11,5.3,3.99,8.29,11.24,8.29,49.04.04,98.07.02,147.11.02,2.73,0,5.46,0,8.92,0Z"/>
    <path class="cls-5" d="M240.64,358.22c0-5.19.04-9.96-.01-14.73-.05-5.34-2.61-8.8-8.03-9.34-4.83-.49-8.37,3.54-8.55,9.43-.14,4.76-.03,9.54-.03,14.29-34.82.66-86.44-31.69-91.55-90.78,4.75,0,9.43.15,14.09-.04,6.76-.27,10.49-3.39,10.17-8.58-.39-6.5-4.86-8.23-10.47-8.28-4.52-.04-9.04,0-13.99,0,1.17-17.71,5.6-33.66,12.37-48.98,2.08-4.71,5.24-4.38,8.5-.79,11.2,12.32,25.37,13.75,40.4,10.15,14.07-3.37,22.72-14.6,23.52-30.2.39-7.5-.26-15.08-.84-22.6-2.13-27.9,4.7-52.24,27.69-70.12,3.57-2.78,7.73-4.89,11.86-6.81,1.54-.72,4.43-.71,5.47.28,1.1,1.04,1.25,3.74.89,5.53-.97,4.91-2.71,9.68-3.65,14.59-4.47,23.37,4.12,41.98,20.83,57.93,10.58,10.1,21.22,20.29,30.5,31.55,13.86,16.81,21.22,36.55,22.1,59.48-4.87,0-9.38-.14-13.89.03-6.64.26-10.44,3.52-10.1,8.7.4,6.08,4.51,8.03,9.9,8.15,4.29.09,8.58.02,12.8.02,3.72,40.6-46.54,91.64-89.98,91.14ZM227.93,280.74c-8.18-8.39-15.76-16.29-23.49-24.03-5-5.02-10.13-5.58-13.64-1.51-4.2,4.88-2.38,9.16,1.69,13.19,9.27,9.16,18.41,18.46,27.67,27.63,6.26,6.21,9.8,6.17,16.18-.18,13.13-13.07,26.21-26.19,39.3-39.29,5.01-5.01,10.17-9.89,14.96-15.11,3.37-3.68,3.61-8.05-.07-11.66-3.64-3.57-7.83-3.28-11.69,0-1.57,1.33-2.96,2.85-4.42,4.31-15.18,15.22-30.35,30.44-46.51,46.66Z"/>
    <path class="cls-6" d="M571.72,417.62c-15.59,0-30.43.25-45.25-.12-5.87-.15-9.15-4.44-9.2-10.1-.05-5.7,3.31-9.51,9.1-10.29,3.61-.49,7.32-.11,10.98-.24,5.38-.19,8.85-2.84,8.83-8.39-.02-5.55-3.43-8.25-8.9-8.18-5.26.07-10.66-.38-15.75.62-12.94,2.55-21.93,15.07-21.05,28.34.87,13.22,11.5,24.32,24.86,24.94,12.35.58,24.74.25,37.11.31,2.71.01,5.43,0,8.61,0,.26,2.24.63,3.97.64,5.69.05,15.12.08,30.25,0,45.37-.04,10.01-9.15,15.82-18.06,11.49-1.03-.5-1.78-1.97-2.24-3.15-10.83-27.41-30.81-42.62-60.4-42.18-29.32.43-48.62,16.25-58.83,43.47-.24.63-.65,1.19-1.07,1.95h-18.18v-246.99c2.08,0,4.27,0,6.46,0,18.33,0,36.66-.04,54.99.01,14.29.04,21.02,5.14,24.85,18.74,6.39,22.65,12.73,45.32,19.29,68.66h-64.19c0-2.42,0-4.86,0-7.29,0-17.19.04-34.37-.02-51.56-.03-7.95-2.88-11.64-8.55-11.5-5.4.13-8.23,3.82-8.25,11.21-.06,19.02-.11,38.04,0,57.05.08,13.03,6.43,19.33,19.54,19.39,22.45.1,44.91,0,67.37.04,30.45.07,47.29,16.89,47.32,47.15,0,4.98,0,9.96,0,15.54Z"/>
    <path class="cls-7" d="M160.98,468.24c25.62-.07,46.45,20.65,46.31,46.09-.14,25.09-20.9,45.84-45.97,45.96-25.44.12-46.15-20.69-46.08-46.31.06-25.41,20.32-45.67,45.74-45.74ZM177.69,514.12c-.01-9.19-7.31-16.62-16.41-16.7-9.23-.08-17.08,7.87-16.87,17.08.21,9.09,7.73,16.31,16.9,16.23,9.27-.08,16.39-7.3,16.38-16.61Z"/>
    <path class="cls-3" d="M492.37,468.24c25.43.12,45.68,20.6,45.58,46.09-.1,25.37-20.67,45.96-45.92,45.96-25.11,0-45.94-20.77-46.09-45.96-.15-25.5,20.71-46.2,46.43-46.08ZM508.68,514.28c.06-9.08-7.3-16.66-16.34-16.85-9.32-.19-16.96,7.47-16.88,16.93.08,9.27,7.3,16.38,16.61,16.36,9.27-.02,16.55-7.22,16.6-16.43Z"/>
  </g>
</svg>