<?xml version="1.0" encoding="UTF-8"?>
<svg id="report" xmlns="http://www.w3.org/2000/svg" version="1.1" xmlns:xlink="http://www.w3.org/1999/xlink" viewBox="0 0 640.62 640.62">
  <defs>
    <style>
      .cls-1 {
        fill: #360061;
      }

      .cls-1, .cls-2, .cls-3, .cls-4, .cls-5 {
        stroke-width: 0px;
      }

      .cls-2 {
        fill: url(#linear-gradient);
      }

      .cls-3 {
        fill: #5800b2;
      }

      .cls-4 {
        fill: url(#linear-gradient-2);
      }

      .cls-5 {
        fill: url(#linear-gradient-3);
      }
    </style>
    <linearGradient id="linear-gradient" x1="100.16" y1="140.95" x2="588.51" y2="485.3" gradientUnits="userSpaceOnUse">
      <stop offset="0" stop-color="#fff" stop-opacity=".4"/>
      <stop offset=".07" stop-color="#fff" stop-opacity=".34"/>
      <stop offset=".49" stop-color="#fff" stop-opacity="0"/>
      <stop offset=".75" stop-color="#fafafa" stop-opacity=".1"/>
      <stop offset="1" stop-color="#efefef" stop-opacity=".2"/>
    </linearGradient>
    <linearGradient id="linear-gradient-2" x1="126.05" y1="104.24" x2="614.4" y2="448.59" xlink:href="#linear-gradient"/>
    <linearGradient id="linear-gradient-3" x1="142.84" y1="80.42" x2="631.19" y2="424.77" xlink:href="#linear-gradient"/>
  </defs>
  <g>
    <path class="cls-1" d="M119.51,434.55c12.07.84,23.38,1.99,34.71,2.35,22.92.73,40.96-16.06,41.76-38.39.76-21.29-16.01-39.54-38.23-40.48-46.74-1.99-88.75-16.43-125.26-46.04-3.14-2.55-6.1-5.32-10.06-8.78,8.86-1.35,16.46-2.31,23.98-3.7,20.97-3.87,40.49-11.43,58.28-23.31,5.03-3.36,10.41-6.25,15.29-9.82,26.93-19.66,56.41-20.99,87.33-12.5,2.8.77,5.65,1.37,8.52,1.85,19.17,3.18,34.65-12.56,30.72-31.66-3.72-18.02-14.55-31.5-29.25-41.88-8.64-6.1-17.87-11.38-27.76-17.61,17.8-7.83,35.51-11.64,54.12-9.21,12.21,1.59,24.42,3.75,36.37,6.7,23.8,5.88,46.31,3.61,68.57-6.9,66.73-31.51,131.95-28.4,191.65,15.5,63.64,46.8,89.79,111.6,72.93,189.11-16.54,76.03-65.9,123.64-141.62,141.75-40.26,9.63-80.24,5.07-117.56-13.56-25.82-12.89-51.79-16.22-79.47-7.8-38.51,11.71-74.81,5.39-108.92-14.92-14.14-8.42-27.72-17.77-41.51-26.76-1.53-1-2.8-2.39-4.59-3.93ZM432.98,156.6c-89.83-.37-163.57,72.71-164.06,162.6-.49,90.82,72.26,164.3,163.23,164.85,89.65.54,163.64-72.71,164.18-162.57.55-90.59-72.68-164.51-163.35-164.88Z"/>
    <path class="cls-3" d="M432.7,473.79c-84.74.15-153.58-68.65-153.57-153.49,0-84.72,69.11-153.75,153.65-153.5,84.44.24,153.19,68.94,153.35,153.22.16,84.68-68.63,153.62-153.44,153.77ZM432.37,342.42c7.39.05,12.96-2.05,17.6-8.46,19.9-27.47,39.57-55.09,59.06-82.85,1.24-1.77.2-5.14.23-7.77-2.62.2-5.71-.42-7.77.77-5.44,3.13-10.47,6.99-15.58,10.66-22.44,16.1-44.99,32.05-67.2,48.46-8.12,6-10.25,15.51-7,24.78,3.05,8.68,11.17,14.34,20.66,14.41ZM552.96,388.11c-.94-2.45-1.02-3.76-1.67-4.17-5.08-3.2-10.14-6.45-15.52-9.07-.97-.47-4.22,1.57-4.79,3.08-.58,1.52.21,4.68,1.5,5.61,4.09,2.96,8.48,5.77,13.18,7.46,1.83.66,4.79-1.83,7.3-2.91ZM547.06,248.25c-5.69,3.6-10.93,6.59-15.67,10.21-.95.72-.77,4.51.25,5.77.99,1.22,4.14,1.9,5.65,1.24,4.4-1.94,8.65-4.39,12.53-7.23,1.32-.97,2.18-3.88,1.77-5.53-.4-1.62-2.7-2.77-4.53-4.47ZM364.86,199.29c-1.17,3.6-3.27,6.6-2.59,8.7,1.38,4.26,3.88,8.34,6.7,11.87,1.22,1.52,4.38,1.5,6.65,2.18.67-2.31,2.47-5.05,1.79-6.85-1.6-4.23-4.23-8.1-6.76-11.91-.82-1.24-2.59-1.84-5.8-3.99ZM335.52,262.89c-.95-2.86-.98-4.22-1.6-4.6-5.12-3.11-10.24-6.28-15.66-8.8-.98-.45-4.2,1.67-4.75,3.19-.53,1.48.48,4.5,1.81,5.47,3.87,2.84,8.04,5.6,12.52,7.17,2,.7,5.02-1.51,7.68-2.43ZM379.21,423.42c-1.67-1.95-2.74-4.3-4.33-4.73-1.62-.45-4.57.4-5.53,1.71-2.83,3.85-5.27,8.08-7.2,12.46-.66,1.5.04,4.59,1.25,5.63,1.22,1.05,5,1.34,5.67.46,3.6-4.72,6.58-9.92,10.13-15.52ZM427.56,444.65c0,2.9-.65,5.36.17,7.16,1.01,2.23,3.24,3.9,4.94,5.81,1.68-1.98,3.87-3.72,4.88-6,.81-1.82.32-4.28.16-6.44-.31-4.28,1.73-10.77-4.87-10.92-7.47-.17-4.6,6.81-5.28,10.37ZM425.7,195.84c2.17,3.65,4.29,10.34,6.53,10.39,7.73.15,5.35-6.91,5.36-11.46,0-4.35,2.32-11.29-5.04-11.3-7.59,0-4.08,7.13-6.86,12.37ZM500.6,200.82c-6.69.43-15.66,16.04-12.72,19.25,1.32,1.44,6.47,1.82,7.49.63,3.23-3.77,5.9-8.3,7.59-12.97.7-1.94-1.63-4.98-2.36-6.92ZM318.12,392.5c5.55-3.46,10.81-6.4,15.59-9.99.95-.71.69-4.25-.21-5.81-.67-1.17-3.72-2.21-4.89-1.63-4.96,2.43-9.76,5.28-14.27,8.47-1,.71-1.24,3.67-.66,5.13.59,1.47,2.63,2.36,4.44,3.83ZM504.74,434.72c-3.61-5.52-6.81-10.8-10.52-15.7-.61-.81-4.1-.66-5.03.27-1.25,1.25-2.3,4.13-1.68,5.55,2.01,4.59,4.54,9.02,7.47,13.08.92,1.26,3.91,1.8,5.68,1.41,1.38-.3,2.34-2.53,4.07-4.61ZM306.81,325.56c4.17-1.36,11.76,2.65,11.62-5.45-.13-7.17-7.15-4.72-11.44-4.76-4.33-.04-11.23-2.26-11.39,4.87-.17,7.5,6.98,4.2,11.21,5.33ZM558.21,325.63c3.88-1.53,11.61,2.44,11.36-5.59-.22-6.86-7.24-4.73-11.64-4.71-4.35.02-11.3-2.22-11.36,4.97-.06,7.43,7.07,4.16,11.64,5.33Z"/>
    <path class="cls-1" d="M482.93,271.49c-13.22,18.23-26.46,36.43-39.63,54.7-3.48,4.83-8.26,7.73-13.7,5.47-3.52-1.47-8.06-5.6-8.23-8.74-.22-4.28,2.08-10.33,5.4-12.89,17.94-13.84,36.54-26.83,54.9-40.12.42.53.83,1.05,1.25,1.58Z"/>
  </g>
  <g>
    <path class="cls-2" d="M119.51,434.55c12.07.84,23.38,1.99,34.71,2.35,22.92.73,40.96-16.06,41.76-38.39.76-21.29-16.01-39.54-38.23-40.48-46.74-1.99-88.75-16.43-125.26-46.04-3.14-2.55-6.1-5.32-10.06-8.78,8.86-1.35,16.46-2.31,23.98-3.7,20.97-3.87,40.49-11.43,58.28-23.31,5.03-3.36,10.41-6.25,15.29-9.82,26.93-19.66,56.41-20.99,87.33-12.5,2.8.77,5.65,1.37,8.52,1.85,19.17,3.18,34.65-12.56,30.72-31.66-3.72-18.02-14.55-31.5-29.25-41.88-8.64-6.1-17.87-11.38-27.76-17.61,17.8-7.83,35.51-11.64,54.12-9.21,12.21,1.59,24.42,3.75,36.37,6.7,23.8,5.88,46.31,3.61,68.57-6.9,66.73-31.51,131.95-28.4,191.65,15.5,63.64,46.8,89.79,111.6,72.93,189.11-16.54,76.03-65.9,123.64-141.62,141.75-40.26,9.63-80.24,5.07-117.56-13.56-25.82-12.89-51.79-16.22-79.47-7.8-38.51,11.71-74.81,5.39-108.92-14.92-14.14-8.42-27.72-17.77-41.51-26.76-1.53-1-2.8-2.39-4.59-3.93ZM432.98,156.6c-89.83-.37-163.57,72.71-164.06,162.6-.49,90.82,72.26,164.3,163.23,164.85,89.65.54,163.64-72.71,164.18-162.57.55-90.59-72.68-164.51-163.35-164.88Z"/>
    <path class="cls-4" d="M432.7,473.79c-84.74.15-153.58-68.65-153.57-153.49,0-84.72,69.11-153.75,153.65-153.5,84.44.24,153.19,68.94,153.35,153.22.16,84.68-68.63,153.62-153.44,153.77ZM432.37,342.42c7.39.05,12.96-2.05,17.6-8.46,19.9-27.47,39.57-55.09,59.06-82.85,1.24-1.77.2-5.14.23-7.77-2.62.2-5.71-.42-7.77.77-5.44,3.13-10.47,6.99-15.58,10.66-22.44,16.1-44.99,32.05-67.2,48.46-8.12,6-10.25,15.51-7,24.78,3.05,8.68,11.17,14.34,20.66,14.41ZM552.96,388.11c-.94-2.45-1.02-3.76-1.67-4.17-5.08-3.2-10.14-6.45-15.52-9.07-.97-.47-4.22,1.57-4.79,3.08-.58,1.52.21,4.68,1.5,5.61,4.09,2.96,8.48,5.77,13.18,7.46,1.83.66,4.79-1.83,7.3-2.91ZM547.06,248.25c-5.69,3.6-10.93,6.59-15.67,10.21-.95.72-.77,4.51.25,5.77.99,1.22,4.14,1.9,5.65,1.24,4.4-1.94,8.65-4.39,12.53-7.23,1.32-.97,2.18-3.88,1.77-5.53-.4-1.62-2.7-2.77-4.53-4.47ZM364.86,199.29c-1.17,3.6-3.27,6.6-2.59,8.7,1.38,4.26,3.88,8.34,6.7,11.87,1.22,1.52,4.38,1.5,6.65,2.18.67-2.31,2.47-5.05,1.79-6.85-1.6-4.23-4.23-8.1-6.76-11.91-.82-1.24-2.59-1.84-5.8-3.99ZM335.52,262.89c-.95-2.86-.98-4.22-1.6-4.6-5.12-3.11-10.24-6.28-15.66-8.8-.98-.45-4.2,1.67-4.75,3.19-.53,1.48.48,4.5,1.81,5.47,3.87,2.84,8.04,5.6,12.52,7.17,2,.7,5.02-1.51,7.68-2.43ZM379.21,423.42c-1.67-1.95-2.74-4.3-4.33-4.73-1.62-.45-4.57.4-5.53,1.71-2.83,3.85-5.27,8.08-7.2,12.46-.66,1.5.04,4.59,1.25,5.63,1.22,1.05,5,1.34,5.67.46,3.6-4.72,6.58-9.92,10.13-15.52ZM427.56,444.65c0,2.9-.65,5.36.17,7.16,1.01,2.23,3.24,3.9,4.94,5.81,1.68-1.98,3.87-3.72,4.88-6,.81-1.82.32-4.28.16-6.44-.31-4.28,1.73-10.77-4.87-10.92-7.47-.17-4.6,6.81-5.28,10.37ZM425.7,195.84c2.17,3.65,4.29,10.34,6.53,10.39,7.73.15,5.35-6.91,5.36-11.46,0-4.35,2.32-11.29-5.04-11.3-7.59,0-4.08,7.13-6.86,12.37ZM500.6,200.82c-6.69.43-15.66,16.04-12.72,19.25,1.32,1.44,6.47,1.82,7.49.63,3.23-3.77,5.9-8.3,7.59-12.97.7-1.94-1.63-4.98-2.36-6.92ZM318.12,392.5c5.55-3.46,10.81-6.4,15.59-9.99.95-.71.69-4.25-.21-5.81-.67-1.17-3.72-2.21-4.89-1.63-4.96,2.43-9.76,5.28-14.27,8.47-1,.71-1.24,3.67-.66,5.13.59,1.47,2.63,2.36,4.44,3.83ZM504.74,434.72c-3.61-5.52-6.81-10.8-10.52-15.7-.61-.81-4.1-.66-5.03.27-1.25,1.25-2.3,4.13-1.68,5.55,2.01,4.59,4.54,9.02,7.47,13.08.92,1.26,3.91,1.8,5.68,1.41,1.38-.3,2.34-2.53,4.07-4.61ZM306.81,325.56c4.17-1.36,11.76,2.65,11.62-5.45-.13-7.17-7.15-4.72-11.44-4.76-4.33-.04-11.23-2.26-11.39,4.87-.17,7.5,6.98,4.2,11.21,5.33ZM558.21,325.63c3.88-1.53,11.61,2.44,11.36-5.59-.22-6.86-7.24-4.73-11.64-4.71-4.35.02-11.3-2.22-11.36,4.97-.06,7.43,7.07,4.16,11.64,5.33Z"/>
    <path class="cls-5" d="M482.93,271.49c-13.22,18.23-26.46,36.43-39.63,54.7-3.48,4.83-8.26,7.73-13.7,5.47-3.52-1.47-8.06-5.6-8.23-8.74-.22-4.28,2.08-10.33,5.4-12.89,17.94-13.84,36.54-26.83,54.9-40.12.42.53.83,1.05,1.25,1.58Z"/>
  </g>
</svg>