<?xml version="1.0" encoding="UTF-8"?>
<svg id="report" xmlns="http://www.w3.org/2000/svg" version="1.1" xmlns:xlink="http://www.w3.org/1999/xlink" viewBox="0 0 640.62 640.62">
  <defs>
    <style>
      .cls-1 {
        fill: #360061;
      }

      .cls-1, .cls-2, .cls-3, .cls-4, .cls-5, .cls-6, .cls-7, .cls-8 {
        stroke-width: 0px;
      }

      .cls-2 {
        fill: url(#linear-gradient);
      }

      .cls-3 {
        fill: url(#linear-gradient-6);
      }

      .cls-4 {
        fill: url(#linear-gradient-5);
      }

      .cls-5 {
        fill: #5800b2;
      }

      .cls-6 {
        fill: url(#linear-gradient-2);
      }

      .cls-7 {
        fill: url(#linear-gradient-3);
      }

      .cls-8 {
        fill: url(#linear-gradient-4);
      }
    </style>
    <linearGradient id="linear-gradient" x1="-120.18" y1="577.95" x2="443.01" y2="222.75" gradientUnits="userSpaceOnUse">
      <stop offset="0" stop-color="#fff" stop-opacity=".4"/>
      <stop offset=".07" stop-color="#fff" stop-opacity=".34"/>
      <stop offset=".49" stop-color="#fff" stop-opacity="0"/>
      <stop offset=".75" stop-color="#fafafa" stop-opacity=".1"/>
      <stop offset="1" stop-color="#efefef" stop-opacity=".2"/>
    </linearGradient>
    <linearGradient id="linear-gradient-2" x1="-51.33" y1="687.12" x2="511.86" y2="331.92" xlink:href="#linear-gradient"/>
    <linearGradient id="linear-gradient-3" x1="-149.7" y1="531.15" x2="413.49" y2="175.95" xlink:href="#linear-gradient"/>
    <linearGradient id="linear-gradient-4" x1="-107.33" y1="598.33" x2="455.87" y2="243.14" xlink:href="#linear-gradient"/>
    <linearGradient id="linear-gradient-5" x1="-163.83" y1="508.75" x2="399.37" y2="153.55" xlink:href="#linear-gradient"/>
    <linearGradient id="linear-gradient-6" x1="-101.46" y1="607.64" x2="461.74" y2="252.44" xlink:href="#linear-gradient"/>
  </defs>
  <g>
    <path class="cls-5" d="M41.75,315.97c4.42-9.28,11.76-12.69,21.92-12.08,11.2.67,22.55-.49,33.66.72,26.91,2.93,44.39,22.84,44.51,49.96.16,34.97.04,69.95.04,104.92,0,28.63-.5,57.27.14,85.89.63,27.98-17.45,49.56-42.76,52.99-.33.04-.62.35-.93.54h-44.62c-3.99-3.99-7.98-7.98-11.97-11.97,0-90.32,0-180.65,0-270.97Z"/>
    <path class="cls-5" d="M174.53,566.05c0-2.3,0-3.93,0-5.56,0-68.18.03-136.36-.08-204.55,0-3.69,1.07-5.74,4.31-7.71,45.16-27.42,97.62-23.37,137.55,11.49,7.95,6.94,16,9.99,26.48,9.76,25.19-.55,50.41-.37,75.61-.12,23.87.24,39.26,21.94,31.46,43.87-4.65,13.07-16.91,21.29-32.23,21.33-33,.07-66.01.02-99.01.02-9.97,0-19.95-.21-29.92.08-11.79.34-19.13,11.33-15.09,22.14,2.44,6.51,8.3,10.37,16.27,10.4,15.78.07,31.55.02,47.33.02,29.74,0,59.48,0,89.22,0,12.92,0,23.42-4.73,31.63-15.01,27.25-34.15,54.68-68.16,82.07-102.2,11.71-14.55,30.59-17.61,45.01-7.37,14.3,10.16,18.26,29.65,7.93,44.92-31.57,46.69-63.55,93.1-95.51,139.52-2.95,4.29-6.7,8.12-10.49,11.74-18.82,17.94-41.42,27.24-67.31,27.33-80.51.26-161.03.1-241.54.1-1.05,0-2.09-.11-3.69-.2Z"/>
    <path class="cls-1" d="M354.09,117.36c-28.41,26.22-56.26,51.91-84.1,77.6-24.25,22.38-48.46,44.79-72.74,67.14-13.84,12.74-33.65,12.23-46.32-1.07-12.58-13.2-12.15-33.42,1.71-46.2,43.44-40.07,87.12-79.89,130.71-119.8,15.64-14.32,31.3-28.64,46.94-42.97,15.02-13.77,32.65-13.73,47.64.03,56.35,51.75,112.78,103.42,169.03,155.27,5.8,5.34,11.91,11.01,15.66,17.76,7.49,13.46,2.99,30.72-8.79,39.49-12.9,9.6-30.92,8.94-42.55-1.81-48.07-44.42-96.07-88.91-144.1-133.37-4.23-3.92-8.48-7.82-13.08-12.07Z"/>
    <path class="cls-1" d="M478.87,374.11c-21.31-31.26-28.35-34.76-75.81-37.72,0-1.84,0-3.74,0-5.64,0-13.78.05-27.56-.02-41.35-.05-11.34-6.57-17.97-17.86-18.01-20.67-.09-41.35-.08-62.02,0-11.36.04-17.91,6.59-18.03,17.87-.08,7.71-.02,15.43-.02,23.8-31.59-15.25-63.78-19.37-97.36-11.29-.4-.39-.8-.78-1.2-1.17,1.22-2.01,2.06-4.44,3.72-5.98,37.37-34.64,74.83-69.18,112.28-103.74,10.37-9.57,20.74-19.14,31.33-28.9,1.65,1.39,3.04,2.49,4.34,3.69,46.33,42.85,92.62,85.73,139.01,128.51,2.77,2.56,3.89,5.12,3.82,8.9-.23,13.05.06,26.12-.22,39.17-.06,2.62-1.19,5.62-2.77,7.73-6.1,8.09-12.58,15.88-19.21,24.15Z"/>
    <path class="cls-1" d="M533.27,150.66c-28.71-26.48-56.66-52.26-84.61-78.04-2.8-2.58-5.58-5.17-8.39-7.73-5.27-4.82-5.93-8.98-2.2-15.09,3.17-5.18,7.94-7.95,13.97-7.98,21.73-.1,43.47-.18,65.2.02,9.62.09,16.3,7.01,16.34,16.69.12,29.7.05,59.4.04,89.11,0,.67-.15,1.34-.35,3.02Z"/>
    <path class="cls-1" d="M337.78,304.23h32.31v32.42c-9.68,0-19.21.14-28.73-.17-1.23-.04-3.38-2.31-3.42-3.6-.3-9.37-.16-18.74-.16-28.65Z"/>
  </g>
  <g>
    <path class="cls-2" d="M41.75,315.97c4.42-9.28,11.76-12.69,21.92-12.08,11.2.67,22.55-.49,33.66.72,26.91,2.93,44.39,22.84,44.51,49.96.16,34.97.04,69.95.04,104.92,0,28.63-.5,57.27.14,85.89.63,27.98-17.45,49.56-42.76,52.99-.33.04-.62.35-.93.54h-44.62c-3.99-3.99-7.98-7.98-11.97-11.97,0-90.32,0-180.65,0-270.97Z"/>
    <path class="cls-6" d="M174.53,566.05c0-2.3,0-3.93,0-5.56,0-68.18.03-136.36-.08-204.55,0-3.69,1.07-5.74,4.31-7.71,45.16-27.42,97.62-23.37,137.55,11.49,7.95,6.94,16,9.99,26.48,9.76,25.19-.55,50.41-.37,75.61-.12,23.87.24,39.26,21.94,31.46,43.87-4.65,13.07-16.91,21.29-32.23,21.33-33,.07-66.01.02-99.01.02-9.97,0-19.95-.21-29.92.08-11.79.34-19.13,11.33-15.09,22.14,2.44,6.51,8.3,10.37,16.27,10.4,15.78.07,31.55.02,47.33.02,29.74,0,59.48,0,89.22,0,12.92,0,23.42-4.73,31.63-15.01,27.25-34.15,54.68-68.16,82.07-102.2,11.71-14.55,30.59-17.61,45.01-7.37,14.3,10.16,18.26,29.65,7.93,44.92-31.57,46.69-63.55,93.1-95.51,139.52-2.95,4.29-6.7,8.12-10.49,11.74-18.82,17.94-41.42,27.24-67.31,27.33-80.51.26-161.03.1-241.54.1-1.05,0-2.09-.11-3.69-.2Z"/>
    <path class="cls-7" d="M354.09,117.36c-28.41,26.22-56.26,51.91-84.1,77.6-24.25,22.38-48.46,44.79-72.74,67.14-13.84,12.74-33.65,12.23-46.32-1.07-12.58-13.2-12.15-33.42,1.71-46.2,43.44-40.07,87.12-79.89,130.71-119.8,15.64-14.32,31.3-28.64,46.94-42.97,15.02-13.77,32.65-13.73,47.64.03,56.35,51.75,112.78,103.42,169.03,155.27,5.8,5.34,11.91,11.01,15.66,17.76,7.49,13.46,2.99,30.72-8.79,39.49-12.9,9.6-30.92,8.94-42.55-1.81-48.07-44.42-96.07-88.91-144.1-133.37-4.23-3.92-8.48-7.82-13.08-12.07Z"/>
    <path class="cls-8" d="M478.87,374.11c-21.31-31.26-28.35-34.76-75.81-37.72,0-1.84,0-3.74,0-5.64,0-13.78.05-27.56-.02-41.35-.05-11.34-6.57-17.97-17.86-18.01-20.67-.09-41.35-.08-62.02,0-11.36.04-17.91,6.59-18.03,17.87-.08,7.71-.02,15.43-.02,23.8-31.59-15.25-63.78-19.37-97.36-11.29-.4-.39-.8-.78-1.2-1.17,1.22-2.01,2.06-4.44,3.72-5.98,37.37-34.64,74.83-69.18,112.28-103.74,10.37-9.57,20.74-19.14,31.33-28.9,1.65,1.39,3.04,2.49,4.34,3.69,46.33,42.85,92.62,85.73,139.01,128.51,2.77,2.56,3.89,5.12,3.82,8.9-.23,13.05.06,26.12-.22,39.17-.06,2.62-1.19,5.62-2.77,7.73-6.1,8.09-12.58,15.88-19.21,24.15Z"/>
    <path class="cls-4" d="M533.27,150.66c-28.71-26.48-56.66-52.26-84.61-78.04-2.8-2.58-5.58-5.17-8.39-7.73-5.27-4.82-5.93-8.98-2.2-15.09,3.17-5.18,7.94-7.95,13.97-7.98,21.73-.1,43.47-.18,65.2.02,9.62.09,16.3,7.01,16.34,16.69.12,29.7.05,59.4.04,89.11,0,.67-.15,1.34-.35,3.02Z"/>
    <path class="cls-3" d="M337.78,304.23h32.31v32.42c-9.68,0-19.21.14-28.73-.17-1.23-.04-3.38-2.31-3.42-3.6-.3-9.37-.16-18.74-.16-28.65Z"/>
  </g>
</svg>