<?xml version="1.0" encoding="UTF-8"?>
<svg id="report" xmlns="http://www.w3.org/2000/svg" version="1.1" xmlns:xlink="http://www.w3.org/1999/xlink" viewBox="0 0 640.62 640.62">
  <defs>
    <style>
      .cls-1 {
        fill: url(#linear-gradient-12);
      }

      .cls-1, .cls-2, .cls-3, .cls-4, .cls-5, .cls-6, .cls-7, .cls-8, .cls-9, .cls-10, .cls-11, .cls-12, .cls-13, .cls-14 {
        stroke-width: 0px;
      }

      .cls-2 {
        fill: #360061;
      }

      .cls-3 {
        fill: url(#linear-gradient);
      }

      .cls-4 {
        fill: url(#linear-gradient-6);
      }

      .cls-5 {
        fill: url(#linear-gradient-11);
      }

      .cls-6 {
        fill: url(#linear-gradient-5);
      }

      .cls-7 {
        fill: #5800b2;
      }

      .cls-8 {
        fill: url(#linear-gradient-2);
      }

      .cls-9 {
        fill: url(#linear-gradient-7);
      }

      .cls-10 {
        fill: url(#linear-gradient-3);
      }

      .cls-11 {
        fill: url(#linear-gradient-9);
      }

      .cls-12 {
        fill: url(#linear-gradient-8);
      }

      .cls-13 {
        fill: url(#linear-gradient-10);
      }

      .cls-14 {
        fill: url(#linear-gradient-4);
      }
    </style>
    <linearGradient id="linear-gradient" x1="-46.81" y1="94.33" x2="407.68" y2="650.99" gradientUnits="userSpaceOnUse">
      <stop offset="0" stop-color="#fff" stop-opacity=".4"/>
      <stop offset="0" stop-color="#fff" stop-opacity=".3"/>
      <stop offset=".5" stop-color="#fff" stop-opacity="0"/>
      <stop offset=".8" stop-color="#fafafa" stop-opacity=".1"/>
      <stop offset="1" stop-color="#efefef" stop-opacity=".2"/>
    </linearGradient>
    <linearGradient id="linear-gradient-2" x1="209.26" y1="-114.74" x2="663.74" y2="441.93" xlink:href="#linear-gradient"/>
    <linearGradient id="linear-gradient-3" x1="133.25" y1="-52.68" x2="587.74" y2="503.98" xlink:href="#linear-gradient"/>
    <linearGradient id="linear-gradient-4" x1="96" y1="-22.27" x2="550.49" y2="534.39" xlink:href="#linear-gradient"/>
    <linearGradient id="linear-gradient-5" x1="66.18" y1="2.08" x2="520.67" y2="558.74" xlink:href="#linear-gradient"/>
    <linearGradient id="linear-gradient-6" x1="-113.57" y1="148.83" x2="340.92" y2="705.49" xlink:href="#linear-gradient"/>
    <linearGradient id="linear-gradient-7" x1="91.74" y1="-18.79" x2="546.23" y2="537.87" xlink:href="#linear-gradient"/>
    <linearGradient id="linear-gradient-8" x1="-120.37" y1="154.39" x2="334.11" y2="711.05" xlink:href="#linear-gradient"/>
    <linearGradient id="linear-gradient-9" x1="-106.99" y1="143.46" x2="347.5" y2="700.12" xlink:href="#linear-gradient"/>
    <linearGradient id="linear-gradient-10" x1="-144.31" y1="173.94" x2="310.18" y2="730.6" xlink:href="#linear-gradient"/>
    <linearGradient id="linear-gradient-11" x1="-94.43" y1="133.21" x2="360.05" y2="689.87" xlink:href="#linear-gradient"/>
    <linearGradient id="linear-gradient-12" x1="143.34" y1="-60.92" x2="597.83" y2="495.74" xlink:href="#linear-gradient"/>
  </defs>
  <g>
    <path class="cls-2" d="M322.43,608.43c-10.07-7.74-20.18-15.42-30.11-23.33-.79-.63-.85-3.01-.37-4.23,1.35-3.48,3.2-6.76,4.77-10.16,10.17-22.03-4.37-44.65-28.64-44.58-.93,0-1.85,0-3.27,0-2.2-9.34-6.78-17.26-14.78-22.89-8.06-5.68-17.08-7.25-27.21-6-2.98-14.25-10.6-24.72-24.55-29.54-13.91-4.8-26.1-1.25-37.21,8.66-9.29-9.63-20.49-14.08-33.83-10.55-13.18,3.49-20.31,13.27-24.69,26.24-5.88-2.76-11.2-5.26-17.09-8.03,24.43-48.76,48.71-97.21,73.46-146.62,28.45,14.98,57.87,16.97,88.23,6.02.15.57.3,1.14.45,1.71-.64,1.64-1.21,3.32-1.93,4.93-4.78,10.57-9.74,21.07-14.38,31.71-7.55,17.31-2.08,36.29,13.07,46.11,14.6,9.47,34.84,6.88,47.18-6.43,11.33-12.23,22.3-24.8,33.43-37.21,2.36-2.63,4.74-5.25,7.36-8.16,1.53,1.18,2.89,2.09,4.1,3.17,42.15,37.45,84.27,74.93,126.46,112.34,5.77,5.12,8.92,11.15,7.44,18.87-2.84,14.77-19.75,20.23-31.46,10.09-15.72-13.6-31.26-27.42-46.89-41.14-3.66-3.21-7.32-6.43-11-9.62-6.24-5.42-12.53-5.85-16.82-1.19-4.34,4.71-3.24,10.88,3.06,16.43,15.04,13.25,30.08,26.5,45.19,39.66,4.49,3.91,7.34,8.53,7.1,14.6-.29,7.22-3.82,12.49-10.44,15.36-7.37,3.19-13.97,1.44-19.54-4.08-12.9-12.8-25.69-25.71-38.54-38.56-1.32-1.32-2.62-2.71-4.1-3.83-4.43-3.37-10.05-2.96-13.73.88-3.71,3.87-3.96,9.45-.34,13.77,2.16,2.58,4.67,4.86,7.05,7.25,11.37,11.42,22.78,22.79,34.11,34.25,3.99,4.04,4.92,8.86,2.18,13.9-2.65,4.88-7.22,6.62-12.41,5.38-2.55-.61-5.08-2.35-7.04-4.2-6.12-5.8-11.9-11.95-17.91-17.85-5.23-5.13-11.58-5.42-15.86-.93-4.16,4.38-3.71,10.29,1.24,15.44,2.34,2.43,4.75,4.79,7.13,7.18,10.22,10.24,9.63,17.23-2.14,25.21h-6.74Z"/>
    <path class="cls-7" d="M607.74,494.76c-2.99,0-6.35.85-8.89-.24-3.33-1.43-7.15-3.76-8.79-6.77-34.62-63.62-68.96-127.38-103.33-191.13-4.03-7.48-2.44-11.75,5.56-14.84,36.59-14.14,73.2-28.22,109.8-42.33,1.91-.74,3.77-1.61,5.65-2.41v257.73Z"/>
    <path class="cls-2" d="M323.55,32.19c64.49,44.25,128.98,88.5,193.46,132.77,1.85,1.27,3.78,2.49,5.38,4.04,3.85,3.73,4.23,9.09,1.14,13.29-2.89,3.94-7.98,5.28-12.52,3.07-2-.97-3.84-2.31-5.69-3.57-58.69-40.2-117.36-80.41-176.04-120.62-8.02-5.5-10.12-5.5-18.12-.02-58.36,40.01-116.72,80.03-175.08,120.04-1.7,1.16-3.36,2.4-5.13,3.44-5.4,3.2-11.22,2.07-14.34-2.71-3.15-4.82-2.01-10.54,3.08-14.33,3.45-2.57,7.1-4.88,10.65-7.31,62.07-42.53,124.14-85.05,186.21-127.59.14-.09.18-.33.26-.49,2.25,0,4.49,0,6.74,0Z"/>
    <path class="cls-7" d="M168.05,319.66c2.04-4.38,3.77-7.89,5.33-11.48,5.22-11.97,3.42-22.94-4.5-33.21-1.45-1.87-2.55-4.58-2.57-6.9-.18-26.07-.2-52.13.04-78.2.02-2.28,1.61-5.39,3.47-6.68,48.82-33.72,97.78-67.23,146.65-100.87,2.73-1.88,4.6-2,7.41-.06,48.86,33.65,97.83,67.15,146.64,100.87,1.86,1.29,3.46,4.41,3.48,6.69.25,24.94.22,49.88.04,74.82-.02,2.3-1.14,5.06-2.66,6.82-8.15,9.39-9.93,21.19-4.29,32.4,3.28,6.51,6.82,12.89,11.04,20.85-12.95,3.9-25.35,8.29-38.08,11.2-7.34,1.68-14.24-2.04-20.29-6.52-14.89-11.04-29.86-21.97-44.58-33.22-1.84-1.4-3.37-4.46-3.42-6.77-.29-16.12-.13-32.25-.16-48.38-.04-15.57-7.96-23.46-23.57-23.48-18.9-.02-37.81-.04-56.71,0-14.41.04-22.54,8.22-22.59,22.75-.06,17.63-.29,35.26.11,52.88.17,7.75-1.55,14.25-5.52,21.07-3.53,6.06-7.38,8.65-14.12,9.31-8.52.84-17.09,2.32-25.35,4.57-19.79,5.37-37.54-.87-55.83-8.45ZM320.21,196.7c22.75,0,41.08-18.35,41.04-41.07-.04-22.64-18.54-41.18-41.1-41.16-22.54.02-41.06,18.62-41.04,41.22.02,22.72,18.36,41.02,41.1,41.01Z"/>
    <path class="cls-7" d="M317.86,360.84c-14.59,16.2-28.21,31.64-42.23,46.72-5.14,5.53-14.07,5.87-20.21,1.85-5.78-3.79-8.66-12.01-5.58-18.96,9.35-21.04,18.57-42.17,29.01-62.66,4.24-8.33,10.9-15.71,17.53-22.46,14.14-14.42,34.1-15.83,50.61-4.02,20.1,14.38,40.04,28.99,59.91,43.69,16.41,12.14,33.94,14.63,52.96,7.18,9.03-3.54,18.16-6.8,27.85-10.4,18.7,34.66,37.34,69.21,56.22,104.19-1.6.82-2.97,1.66-4.45,2.27-19.68,8.17-39.43,16.18-59.01,24.59-3.76,1.61-5.92.93-8.76-1.6-47.12-42.02-94.33-83.94-141.53-125.88-1.26-1.12-2.48-2.31-3.89-3.22-4.18-2.69-9.51-2.05-12.86,1.41-3.52,3.63-3.97,9.3-.71,13.33,1.25,1.55,3.22,2.53,5.15,3.99Z"/>
    <path class="cls-2" d="M32.88,515.61V238.14c12.47,5.02,24.72,9.93,36.95,14.9,24.92,10.12,49.83,20.26,74.74,30.4,1.04.42,2.07.85,3.1,1.3,8.18,3.61,10.12,8.62,6.14,16.64-9.07,18.27-18.25,36.48-27.38,54.72-24.94,49.86-49.88,99.73-74.81,149.59-4.86,9.72-6.87,10.83-18.74,9.92Z"/>
    <path class="cls-2" d="M350.64,238.51v40.71c-21.04-9.29-41.04-7.97-60.75,4.49v-45.2h60.75Z"/>
    <path class="cls-7" d="M154.88,536.94c.35-1.15.92-3.91,2.03-6.44,4.88-11.14,9.86-22.24,14.91-33.3,4.29-9.4,12.72-13.16,20.94-9.5,8.24,3.67,11.66,13.39,7.64,22.31-5.31,11.77-10.61,23.55-16.23,35.17-3.34,6.91-11.06,10.44-17.72,8.77-6.94-1.73-11.57-7.88-11.56-17.02Z"/>
    <path class="cls-7" d="M244.01,534.82c-.33,1.09-.8,3.5-1.77,5.68-3.8,8.54-7.66,17.05-11.7,25.48-4.38,9.15-13.09,12.58-21.27,8.61-7.95-3.87-10.76-12.6-6.73-21.59,4.05-9.04,8.14-18.08,12.55-26.94,3.51-7.06,10.94-10.26,17.8-8.24,6.91,2.03,11.36,8.29,11.11,17.01Z"/>
    <path class="cls-7" d="M147.5,498.92c-.33,1.11-.78,3.52-1.75,5.69-3.11,7-6.36,13.93-9.64,20.85-3.66,7.71-10.14,10.63-16.71,7.63-6.63-3.03-8.81-9.93-5.37-17.57,3.52-7.83,7.04-15.68,10.86-23.37,2.81-5.65,8.3-7.93,14.08-6.41,4.95,1.3,8.42,6.14,8.53,13.18Z"/>
    <path class="cls-7" d="M279.57,557.61c-.5,1.44-1.04,3.42-1.87,5.27-3.69,8.16-7.39,16.32-11.22,24.41-3.21,6.78-8.72,9.14-14.43,6.4-5.57-2.68-7.45-8.77-4.49-15.31,3.93-8.67,7.89-17.33,12.1-25.86,2.41-4.88,7.39-6.89,12.2-5.43,4.89,1.48,7.2,5,7.72,10.52Z"/>
    <path class="cls-2" d="M299.78,155.78c-.04-11.57,9.13-20.78,20.57-20.66,11.27.12,20.2,9.13,20.24,20.44.04,11.55-9.12,20.75-20.58,20.67-11.23-.08-20.19-9.15-20.23-20.45Z"/>
  </g>
  <g>
    <path class="cls-3" d="M322.43,608.43c-10.07-7.74-20.18-15.42-30.11-23.33-.79-.63-.85-3.01-.37-4.23,1.35-3.48,3.2-6.76,4.77-10.16,10.17-22.03-4.37-44.65-28.64-44.58-.93,0-1.85,0-3.27,0-2.2-9.34-6.78-17.26-14.78-22.89-8.06-5.68-17.08-7.25-27.21-6-2.98-14.25-10.6-24.72-24.55-29.54-13.91-4.8-26.1-1.25-37.21,8.66-9.29-9.63-20.49-14.08-33.83-10.55-13.18,3.49-20.31,13.27-24.69,26.24-5.88-2.76-11.2-5.26-17.09-8.03,24.43-48.76,48.71-97.21,73.46-146.62,28.45,14.98,57.87,16.97,88.23,6.02.15.57.3,1.14.45,1.71-.64,1.64-1.21,3.32-1.93,4.93-4.78,10.57-9.74,21.07-14.38,31.71-7.55,17.31-2.08,36.29,13.07,46.11,14.6,9.47,34.84,6.88,47.18-6.43,11.33-12.23,22.3-24.8,33.43-37.21,2.36-2.63,4.74-5.25,7.36-8.16,1.53,1.18,2.89,2.09,4.1,3.17,42.15,37.45,84.27,74.93,126.46,112.34,5.77,5.12,8.92,11.15,7.44,18.87-2.84,14.77-19.75,20.23-31.46,10.09-15.72-13.6-31.26-27.42-46.89-41.14-3.66-3.21-7.32-6.43-11-9.62-6.24-5.42-12.53-5.85-16.82-1.19-4.34,4.71-3.24,10.88,3.06,16.43,15.04,13.25,30.08,26.5,45.19,39.66,4.49,3.91,7.34,8.53,7.1,14.6-.29,7.22-3.82,12.49-10.44,15.36-7.37,3.19-13.97,1.44-19.54-4.08-12.9-12.8-25.69-25.71-38.54-38.56-1.32-1.32-2.62-2.71-4.1-3.83-4.43-3.37-10.05-2.96-13.73.88-3.71,3.87-3.96,9.45-.34,13.77,2.16,2.58,4.67,4.86,7.05,7.25,11.37,11.42,22.78,22.79,34.11,34.25,3.99,4.04,4.92,8.86,2.18,13.9-2.65,4.88-7.22,6.62-12.41,5.38-2.55-.61-5.08-2.35-7.04-4.2-6.12-5.8-11.9-11.95-17.91-17.85-5.23-5.13-11.58-5.42-15.86-.93-4.16,4.38-3.71,10.29,1.24,15.44,2.34,2.43,4.75,4.79,7.13,7.18,10.22,10.24,9.63,17.23-2.14,25.21h-6.74Z"/>
    <path class="cls-8" d="M607.74,494.76c-2.99,0-6.35.85-8.89-.24-3.33-1.43-7.15-3.76-8.79-6.77-34.62-63.62-68.96-127.38-103.33-191.13-4.03-7.48-2.44-11.75,5.56-14.84,36.59-14.14,73.2-28.22,109.8-42.33,1.91-.74,3.77-1.61,5.65-2.41v257.73Z"/>
    <path class="cls-10" d="M323.55,32.19c64.49,44.25,128.98,88.5,193.46,132.77,1.85,1.27,3.78,2.49,5.38,4.04,3.85,3.73,4.23,9.09,1.14,13.29-2.89,3.94-7.98,5.28-12.52,3.07-2-.97-3.84-2.31-5.69-3.57-58.69-40.2-117.36-80.41-176.04-120.62-8.02-5.5-10.12-5.5-18.12-.02-58.36,40.01-116.72,80.03-175.08,120.04-1.7,1.16-3.36,2.4-5.13,3.44-5.4,3.2-11.22,2.07-14.34-2.71-3.15-4.82-2.01-10.54,3.08-14.33,3.45-2.57,7.1-4.88,10.65-7.31,62.07-42.53,124.14-85.05,186.21-127.59.14-.09.18-.33.26-.49,2.25,0,4.49,0,6.74,0Z"/>
    <path class="cls-14" d="M168.05,319.66c2.04-4.38,3.77-7.89,5.33-11.48,5.22-11.97,3.42-22.94-4.5-33.21-1.45-1.87-2.55-4.58-2.57-6.9-.18-26.07-.2-52.13.04-78.2.02-2.28,1.61-5.39,3.47-6.68,48.82-33.72,97.78-67.23,146.65-100.87,2.73-1.88,4.6-2,7.41-.06,48.86,33.65,97.83,67.15,146.64,100.87,1.86,1.29,3.46,4.41,3.48,6.69.25,24.94.22,49.88.04,74.82-.02,2.3-1.14,5.06-2.66,6.82-8.15,9.39-9.93,21.19-4.29,32.4,3.28,6.51,6.82,12.89,11.04,20.85-12.95,3.9-25.35,8.29-38.08,11.2-7.34,1.68-14.24-2.04-20.29-6.52-14.89-11.04-29.86-21.97-44.58-33.22-1.84-1.4-3.37-4.46-3.42-6.77-.29-16.12-.13-32.25-.16-48.38-.04-15.57-7.96-23.46-23.57-23.48-18.9-.02-37.81-.04-56.71,0-14.41.04-22.54,8.22-22.59,22.75-.06,17.63-.29,35.26.11,52.88.17,7.75-1.55,14.25-5.52,21.07-3.53,6.06-7.38,8.65-14.12,9.31-8.52.84-17.09,2.32-25.35,4.57-19.79,5.37-37.54-.87-55.83-8.45ZM320.21,196.7c22.75,0,41.08-18.35,41.04-41.07-.04-22.64-18.54-41.18-41.1-41.16-22.54.02-41.06,18.62-41.04,41.22.02,22.72,18.36,41.02,41.1,41.01Z"/>
    <path class="cls-6" d="M317.86,360.84c-14.59,16.2-28.21,31.64-42.23,46.72-5.14,5.53-14.07,5.87-20.21,1.85-5.78-3.79-8.66-12.01-5.58-18.96,9.35-21.04,18.57-42.17,29.01-62.66,4.24-8.33,10.9-15.71,17.53-22.46,14.14-14.42,34.1-15.83,50.61-4.02,20.1,14.38,40.04,28.99,59.91,43.69,16.41,12.14,33.94,14.63,52.96,7.18,9.03-3.54,18.16-6.8,27.85-10.4,18.7,34.66,37.34,69.21,56.22,104.19-1.6.82-2.97,1.66-4.45,2.27-19.68,8.17-39.43,16.18-59.01,24.59-3.76,1.61-5.92.93-8.76-1.6-47.12-42.02-94.33-83.94-141.53-125.88-1.26-1.12-2.48-2.31-3.89-3.22-4.18-2.69-9.51-2.05-12.86,1.41-3.52,3.63-3.97,9.3-.71,13.33,1.25,1.55,3.22,2.53,5.15,3.99Z"/>
    <path class="cls-4" d="M32.88,515.61V238.14c12.47,5.02,24.72,9.93,36.95,14.9,24.92,10.12,49.83,20.26,74.74,30.4,1.04.42,2.07.85,3.1,1.3,8.18,3.61,10.12,8.62,6.14,16.64-9.07,18.27-18.25,36.48-27.38,54.72-24.94,49.86-49.88,99.73-74.81,149.59-4.86,9.72-6.87,10.83-18.74,9.92Z"/>
    <path class="cls-9" d="M350.64,238.51v40.71c-21.04-9.29-41.04-7.97-60.75,4.49v-45.2h60.75Z"/>
    <path class="cls-12" d="M154.88,536.94c.35-1.15.92-3.91,2.03-6.44,4.88-11.14,9.86-22.24,14.91-33.3,4.29-9.4,12.72-13.16,20.94-9.5,8.24,3.67,11.66,13.39,7.64,22.31-5.31,11.77-10.61,23.55-16.23,35.17-3.34,6.91-11.06,10.44-17.72,8.77-6.94-1.73-11.57-7.88-11.56-17.02Z"/>
    <path class="cls-11" d="M244.01,534.82c-.33,1.09-.8,3.5-1.77,5.68-3.8,8.54-7.66,17.05-11.7,25.48-4.38,9.15-13.09,12.58-21.27,8.61-7.95-3.87-10.76-12.6-6.73-21.59,4.05-9.04,8.14-18.08,12.55-26.94,3.51-7.06,10.94-10.26,17.8-8.24,6.91,2.03,11.36,8.29,11.11,17.01Z"/>
    <path class="cls-13" d="M147.5,498.92c-.33,1.11-.78,3.52-1.75,5.69-3.11,7-6.36,13.93-9.64,20.85-3.66,7.71-10.14,10.63-16.71,7.63-6.63-3.03-8.81-9.93-5.37-17.57,3.52-7.83,7.04-15.68,10.86-23.37,2.81-5.65,8.3-7.93,14.08-6.41,4.95,1.3,8.42,6.14,8.53,13.18Z"/>
    <path class="cls-5" d="M279.57,557.61c-.5,1.44-1.04,3.42-1.87,5.27-3.69,8.16-7.39,16.32-11.22,24.41-3.21,6.78-8.72,9.14-14.43,6.4-5.57-2.68-7.45-8.77-4.49-15.31,3.93-8.67,7.89-17.33,12.1-25.86,2.41-4.88,7.39-6.89,12.2-5.43,4.89,1.48,7.2,5,7.72,10.52Z"/>
    <path class="cls-1" d="M299.78,155.78c-.04-11.57,9.13-20.78,20.57-20.66,11.27.12,20.2,9.13,20.24,20.44.04,11.55-9.12,20.75-20.58,20.67-11.23-.08-20.19-9.15-20.23-20.45Z"/>
  </g>
</svg>