<?xml version="1.0" encoding="utf-8"?>
<!-- Generator: Adobe Illustrator 26.2.1, SVG Export Plug-In . SVG Version: 6.00 Build 0)  -->
<svg version="1.1" id="report" xmlns="http://www.w3.org/2000/svg" xmlns:xlink="http://www.w3.org/1999/xlink" x="0px" y="0px"
	 viewBox="0 0 640.62 640.62" style="enable-background:new 0 0 640.62 640.62;" xml:space="preserve">
<style type="text/css">
	.st0{display:none;fill:url(#SVGID_1_);}
	.st1{display:none;fill:url(#SVGID_00000022541545513244965550000004254530935657495739_);}
	.st2{display:none;fill:url(#SVGID_00000156565550504231653430000016415282013879773367_);}
	.st3{fill-rule:evenodd;clip-rule:evenodd;fill:#FFFFFF;fill-opacity:0;}
	.st4{fill-rule:evenodd;clip-rule:evenodd;}
</style>
<linearGradient id="SVGID_1_" gradientUnits="userSpaceOnUse" x1="290.9483" y1="320.3009" x2="360.9372" y2="320.3009">
	<stop  offset="0" style="stop-color:#FFFFFF;stop-opacity:0.4"/>
	<stop  offset="0.0691" style="stop-color:#FFFFFF;stop-opacity:0.3435"/>
	<stop  offset="0.4892" style="stop-color:#FFFFFF;stop-opacity:0"/>
	<stop  offset="0.7527" style="stop-color:#FAFAFA;stop-opacity:0.1032"/>
	<stop  offset="1" style="stop-color:#EFEFEF;stop-opacity:0.2"/>
</linearGradient>
<path class="st0" d="M360.94,408.89c-23.09-16.59-45.06-32.27-66.81-48.25c-1.83-1.34-2.98-4.76-3.01-7.23
	c-0.23-22.1-0.21-44.2-0.02-66.3c0.02-2.29,0.86-5.51,2.5-6.71c21.96-16.13,44.13-31.97,67.35-48.68
	C360.94,291.13,360.94,349.28,360.94,408.89z"/>
<linearGradient id="SVGID_00000080888670668612769730000003128973093383201672_" gradientUnits="userSpaceOnUse" x1="234.72" y1="320.2812" x2="275.4071" y2="320.2812">
	<stop  offset="0" style="stop-color:#FFFFFF;stop-opacity:0.4"/>
	<stop  offset="0.0691" style="stop-color:#FFFFFF;stop-opacity:0.3435"/>
	<stop  offset="0.4892" style="stop-color:#FFFFFF;stop-opacity:0"/>
	<stop  offset="0.7527" style="stop-color:#FAFAFA;stop-opacity:0.1032"/>
	<stop  offset="1" style="stop-color:#EFEFEF;stop-opacity:0.2"/>
</linearGradient>
<path style="display:none;fill:url(#SVGID_00000080888670668612769730000003128973093383201672_);" d="M275.41,285.55
	c0,23.61,0,46.09,0,69.35c-11.46,0-22.58,0.48-33.59-0.36c-2.51-0.19-6.61-4.84-6.7-7.55c-0.6-17.88-0.4-35.78-0.22-53.68
	c0.05-4.85,2.99-7.68,7.96-7.73C253.46,285.48,264.05,285.55,275.41,285.55z"/>
<linearGradient id="SVGID_00000070085471639267741740000008055229372140617088_" gradientUnits="userSpaceOnUse" x1="377.0954" y1="320.1778" x2="405.9691" y2="320.1778">
	<stop  offset="0" style="stop-color:#FFFFFF;stop-opacity:0.4"/>
	<stop  offset="0.0691" style="stop-color:#FFFFFF;stop-opacity:0.3435"/>
	<stop  offset="0.4892" style="stop-color:#FFFFFF;stop-opacity:0"/>
	<stop  offset="0.7527" style="stop-color:#FAFAFA;stop-opacity:0.1032"/>
	<stop  offset="1" style="stop-color:#EFEFEF;stop-opacity:0.2"/>
</linearGradient>
<path style="display:none;fill:url(#SVGID_00000070085471639267741740000008055229372140617088_);" d="M377.1,355.13
	c0-23.33,0-46.62,0.01-69.9c15.57,1.63,28.5,17.01,28.86,34.31C406.32,336.88,393.67,352.67,377.1,355.13z"/>
<g>
	<path class="st3" d="M0,0h640.62v640.62H0V0z"/>
	<path class="st4" d="M84.37,9.42v471.9h464.76V9.42H84.37z M332.9,69.1l42.74-0.01c23.26,0,45.13,9.06,61.57,25.5
		c16.44,16.44,25.5,38.31,25.5,61.56c0,48.01-39.06,87.07-87.07,87.07l-42.74,0.05V69.1z M280.65,418.04H151.22V69.13h129.43V418.04
		L280.65,418.04z M332.9,418.41V254.3l167.33,164.11H332.9L332.9,418.41z M147.68,598.22h34.25v-12.27h-34.25v-16.29h37.1V557.4
		h-51.82v71.54h53.49v-12.27h-38.77V598.22L147.68,598.22z M291.15,557.4h-14.72v71.54h48.97v-12.27h-34.25V557.4L291.15,557.4z
		 M333.43,569.67h21.69v59.28h14.72v-59.28h20.91V557.4h-57.32V569.67z M568.35,560.03c-7.57,0-13.67,6.1-13.67,13.6
		c-0.01,7.54,6.09,13.66,13.63,13.67c0.01,0,0.03,0,0.04,0c7.52-0.01,13.61-6.1,13.6-13.62c0-0.02,0-0.03,0-0.05
		C581.95,566.12,575.86,560.04,568.35,560.03C568.35,560.03,568.35,560.03,568.35,560.03z M568.35,585.66
		c-6.62,0.01-11.99-5.35-11.99-11.97c0-0.02,0-0.04,0-0.06c0-6.61,5.36-11.96,11.97-11.96c0.01,0,0.02,0,0.02,0
		c6.6,0,11.96,5.35,11.96,11.96l0,0c0.03,6.62-5.32,12-11.93,12.03C568.36,585.66,568.36,585.66,568.35,585.66z M114.52,620.4
		c-0.1-3.63-0.29-13.05-0.69-16c-0.78-6.48-5.5-8.24-7.95-9.91c4.81-2.84,7.95-5.1,9.71-11.29c1.76-6.18,0.29-11.29-0.69-14.43
		c-2.06-7.75-9.33-11.09-16.49-11.38H58.67v71.54H73.4v-28.27h17.27c5.1,0,8.64,2.36,8.83,7.17c-0.2,5.2-0.2,10.89,0,14.43
		c0.2,2.36,0.78,4.51,1.96,6.67h15.8v-2.65C115.7,625.31,114.52,624.43,114.52,620.4L114.52,620.4z M93.52,588.41H73.4v-18.74h19.92
		c6.58,0,8.93,2.94,8.93,8.05C103.14,584.78,96.95,588.41,93.52,588.41L93.52,588.41z M238.65,557.4h-16.98l-24.93,71.54h15.02
		l5.01-14.33h26.5l4.91,14.33h15.02L238.65,557.4L238.65,557.4z M220.79,602.34l9.43-27.77l9.52,27.77H220.79z M457.75,565.15
		c-5.99-6.18-14.72-8.93-23.85-8.93c-9.13,0-17.86,2.75-23.85,8.93c-6.67,6.97-10.6,17.76-10.6,28.56s3.93,21.59,10.6,28.56
		c5.99,6.18,14.72,8.93,23.85,8.93c9.13,0,17.86-2.75,23.85-8.93c6.67-6.97,10.6-17.77,10.6-28.56S464.42,572.12,457.75,565.15z
		 M447.06,613.53c-3.73,3.44-8.44,4.81-13.15,4.81c-4.71,0-9.43-1.37-13.15-4.81c-4.71-4.32-7.07-12.07-7.17-19.82
		c0.1-7.75,2.45-15.51,7.17-19.82c3.73-3.44,8.44-4.81,13.15-4.81c4.71,0,9.42,1.37,13.15,4.81c4.71,4.32,7.07,12.07,7.17,19.82
		C454.12,601.46,451.77,609.22,447.06,613.53z M539.09,620.4c-0.1-3.63-0.29-13.05-0.68-16c-0.78-6.48-5.5-8.24-7.95-9.91
		c4.81-2.84,7.95-5.1,9.72-11.29c1.76-6.18,0.29-11.29-0.69-14.43c-2.06-7.75-9.32-11.09-16.49-11.38h-39.75v71.54h14.72v-28.27
		h17.27c5.11,0,8.64,2.36,8.83,7.17c-0.2,5.2-0.2,10.89,0,14.43c0.2,2.36,0.78,4.51,1.96,6.67h15.81v-2.65
		C540.27,625.31,539.09,624.43,539.09,620.4L539.09,620.4z M518.09,588.41h-20.12v-18.74h19.93c6.58,0,8.93,2.94,8.93,8.05
		C527.71,584.78,521.52,588.41,518.09,588.41L518.09,588.41z"/>
	<path class="st4" d="M575.34,570.06c0-1.29-0.57-2.64-1.71-3.28c-1.14-0.68-2.42-0.75-3.71-0.75h-6.64v15.24h1.86v-7.03h3.43
		l4.36,7.03h2.21l-4.6-7.03C573.23,574.16,575.34,573.06,575.34,570.06L575.34,570.06z M567.99,572.78h-2.85v-5.39h4.36
		c1.89,0,3.96,0.29,3.96,2.64C573.45,573.13,570.13,572.78,567.99,572.78z"/>
</g>
</svg>
