<?xml version="1.0" encoding="utf-8"?>
<!-- Generator: Adobe Illustrator 26.2.1, SVG Export Plug-In . SVG Version: 6.00 Build 0)  -->
<svg version="1.1" id="report" xmlns="http://www.w3.org/2000/svg" xmlns:xlink="http://www.w3.org/1999/xlink" x="0px" y="0px"
	 viewBox="0 0 640.62 640.62" style="enable-background:new 0 0 640.62 640.62;" xml:space="preserve">
<style type="text/css">
	.st0{display:none;fill:url(#SVGID_1_);}
	.st1{display:none;fill:url(#SVGID_00000121273749677241280730000010241689822411144888_);}
	.st2{display:none;fill:url(#SVGID_00000082334730402064082370000009801419546918627987_);}
	.st3{fill:#FFFFFF;}
	.st4{fill:#222021;}
	.st5{fill:#241F21;}
	.st6{fill:#C91D25;}
</style>
<linearGradient id="SVGID_1_" gradientUnits="userSpaceOnUse" x1="290.9483" y1="320.3009" x2="360.9372" y2="320.3009">
	<stop  offset="0" style="stop-color:#FFFFFF;stop-opacity:0.4"/>
	<stop  offset="0.0691" style="stop-color:#FFFFFF;stop-opacity:0.3435"/>
	<stop  offset="0.4892" style="stop-color:#FFFFFF;stop-opacity:0"/>
	<stop  offset="0.7527" style="stop-color:#FAFAFA;stop-opacity:0.1032"/>
	<stop  offset="1" style="stop-color:#EFEFEF;stop-opacity:0.2"/>
</linearGradient>
<path class="st0" d="M360.94,408.89c-23.09-16.59-45.06-32.27-66.81-48.25c-1.83-1.34-2.98-4.76-3.01-7.23
	c-0.23-22.1-0.21-44.2-0.02-66.3c0.02-2.29,0.86-5.51,2.5-6.71c21.96-16.13,44.13-31.97,67.35-48.68
	C360.94,291.13,360.94,349.28,360.94,408.89z"/>
<linearGradient id="SVGID_00000100371757344032579500000011789057666945145499_" gradientUnits="userSpaceOnUse" x1="234.72" y1="320.2812" x2="275.4071" y2="320.2812">
	<stop  offset="0" style="stop-color:#FFFFFF;stop-opacity:0.4"/>
	<stop  offset="0.0691" style="stop-color:#FFFFFF;stop-opacity:0.3435"/>
	<stop  offset="0.4892" style="stop-color:#FFFFFF;stop-opacity:0"/>
	<stop  offset="0.7527" style="stop-color:#FAFAFA;stop-opacity:0.1032"/>
	<stop  offset="1" style="stop-color:#EFEFEF;stop-opacity:0.2"/>
</linearGradient>
<path style="display:none;fill:url(#SVGID_00000100371757344032579500000011789057666945145499_);" d="M275.41,285.55
	c0,23.61,0,46.09,0,69.35c-11.46,0-22.58,0.48-33.59-0.36c-2.51-0.19-6.61-4.84-6.7-7.55c-0.6-17.88-0.4-35.78-0.22-53.68
	c0.05-4.85,2.99-7.68,7.96-7.73C253.46,285.48,264.05,285.55,275.41,285.55z"/>
<linearGradient id="SVGID_00000096773769711241668920000004344580065818211735_" gradientUnits="userSpaceOnUse" x1="377.0954" y1="320.1778" x2="405.9691" y2="320.1778">
	<stop  offset="0" style="stop-color:#FFFFFF;stop-opacity:0.4"/>
	<stop  offset="0.0691" style="stop-color:#FFFFFF;stop-opacity:0.3435"/>
	<stop  offset="0.4892" style="stop-color:#FFFFFF;stop-opacity:0"/>
	<stop  offset="0.7527" style="stop-color:#FAFAFA;stop-opacity:0.1032"/>
	<stop  offset="1" style="stop-color:#EFEFEF;stop-opacity:0.2"/>
</linearGradient>
<path style="display:none;fill:url(#SVGID_00000096773769711241668920000004344580065818211735_);" d="M377.1,355.13
	c0-23.33,0-46.62,0.01-69.9c15.57,1.63,28.5,17.01,28.86,34.31C406.32,336.88,393.67,352.67,377.1,355.13z"/>
<g>
	<circle class="st3" cx="320.31" cy="320.31" r="305.94"/>
	<path class="st4" d="M334.49-0.71c16.37,2.31,32.88,3.94,49.1,7.05c130.29,24.94,234.13,133.53,253.4,264.61
		c24.86,169.13-80.33,323.68-246.62,362.33C215.51,673.92,37.06,556.26,5.5,379.47c-2.08-11.63-3.68-23.34-5.5-35.01
		c0-16.01,0-32.03,0-48.04c0.58-2.87,1.44-5.72,1.71-8.63C14.59,149.76,120.76,32.54,256.98,6.37c16.21-3.11,32.69-4.76,49.05-7.08
		C315.51-0.71,325-0.71,334.49-0.71z M616.7,320.48C615.84,153.92,481.67,23.39,319.17,24.21C150.01,25.06,17.71,166.1,24.54,332.85
		c6.31,154.11,133.08,284.43,297.21,283.78C485.25,615.99,616.06,483.84,616.7,320.48z"/>
	<path class="st5" d="M320.33,445.16c-14.04,0-26.37,0-39.32,0c0-80.32,0-160.14,0-239.9c1.37-0.48,2.18-1.03,2.99-1.02
		c41.46,0.45,82.99-0.33,124.36,1.92c25.97,1.41,48.74,12.75,63.28,36.01c25.16,40.23,9.99,94.32-32.19,115.75
		c-2.08,1.06-4.12,2.18-7.6,4.03c21.51,27.67,42.61,54.82,65.06,83.69c-16.55,0-30.93,0.32-45.28-0.28
		c-2.77-0.12-5.97-3.35-7.99-5.92c-16.65-21.2-33.2-42.49-49.45-63.99c-3.4-4.5-6.92-6.32-12.58-6.23
		c-20.07,0.33-40.16,0.13-61.28,0.13C320.33,395.04,320.33,419.77,320.33,445.16z M320.55,333.51c27.8,0,54.75,1.33,81.5-0.42
		c21.2-1.39,35.07-15.26,38.85-33.41c6.26-30.03-8.79-54.58-39.21-58.03c-26.28-2.98-53.08-1.42-79.65-1.81
		c-0.42-0.01-0.86,0.73-1.49,1.31C320.55,271.66,320.55,302.35,320.55,333.51z"/>
	<path class="st6" d="M102.92,472.33c145.97,0,288.82,0,431.67,0c0.58,0.65,1.17,1.3,1.75,1.95c-9.99,11.4-19.81,22.95-30.13,34.04
		c-1.6,1.72-5.46,1.86-8.27,1.86c-118.5,0.1-237.01,0.12-355.51,0.03c-2.77,0-6.52-0.45-8.15-2.22
		C124.13,497,114.45,485.57,102.92,472.33z"/>
</g>
</svg>
