<?xml version="1.0" encoding="utf-8"?>
<!-- Generator: Adobe Illustrator 26.2.1, SVG Export Plug-In . SVG Version: 6.00 Build 0)  -->
<svg version="1.1" id="report" xmlns="http://www.w3.org/2000/svg" xmlns:xlink="http://www.w3.org/1999/xlink" x="0px" y="0px"
	 viewBox="0 0 640.62 640.62" style="enable-background:new 0 0 640.62 640.62;" xml:space="preserve">
<style type="text/css">
	.st0{fill:#360061;}
	.st1{fill:url(#SVGID_1_);}
	.st2{fill:#5800B2;}
	.st3{fill:url(#SVGID_00000095300411311450813740000003043778298145779591_);}
	.st4{fill:url(#SVGID_00000062191515142228136970000003724408036458740923_);}
</style>
<g>
	<path class="st0" d="M557.81,288.11c-157.21,0-313.96,0-471.23,0c-1.17-18.06-0.06-35.87,4.28-53.17
		c20.79-82.88,72.69-135.23,155.63-156.08c12.44-3.13,25.6-4.5,38.45-4.67c29.69-0.4,59.53-1.23,89.07,1.09
		c86.06,6.76,159.93,71.98,178.67,156.29c2.46,11.07,3.85,22.43,5,33.74C558.41,272.59,557.81,280.01,557.81,288.11z"/>
	<linearGradient id="SVGID_1_" gradientUnits="userSpaceOnUse" x1="86.1422" y1="180.913" x2="558.0377" y2="180.913">
		<stop  offset="0" style="stop-color:#FFFFFF;stop-opacity:0.4"/>
		<stop  offset="0.0691" style="stop-color:#FFFFFF;stop-opacity:0.3435"/>
		<stop  offset="0.4892" style="stop-color:#FFFFFF;stop-opacity:0"/>
		<stop  offset="0.7527" style="stop-color:#FAFAFA;stop-opacity:0.1032"/>
		<stop  offset="1" style="stop-color:#EFEFEF;stop-opacity:0.2"/>
	</linearGradient>
	<path class="st1" d="M557.81,288.11c-157.21,0-313.96,0-471.23,0c-1.17-18.06-0.06-35.87,4.28-53.17
		c20.79-82.88,72.69-135.23,155.63-156.08c12.44-3.13,25.6-4.5,38.45-4.67c29.69-0.4,59.53-1.23,89.07,1.09
		c86.06,6.76,159.93,71.98,178.67,156.29c2.46,11.07,3.85,22.43,5,33.74C558.41,272.59,557.81,280.01,557.81,288.11z"/>
	<path class="st0" d="M440.15,588.65c-23.49,0-46.23,0.07-68.96-0.13c-1.91-0.02-4.07-1.6-5.66-2.98
		c-49.66-42.95-99.29-85.95-148.82-129.05c-2.42-2.1-4.42-5.02-5.77-7.94c-11.77-25.52-23.35-51.12-34.97-76.71
		c-4.15-9.13-3.09-14.72,3.31-17.89c8.28-4.1,18.32-1.09,22.33,6.87c11.14,22.11,22.41,44.16,33.14,66.47
		c3.16,6.57,7.59,10.28,14.26,12.89c32.81,12.83,65.41,26.19,98.22,39c3.84,1.5,8.74,1.75,12.81,0.91
		c12.22-2.5,24.23-6.01,36.4-8.76c5.7-1.29,9.32-4.33,12.09-9.45c17.92-33.17,36.21-66.14,54.01-99.38
		c3.73-6.97,8.34-10.62,16.36-9.84c3.76,0.37,7.59,0.02,11.39,0.07c11.19,0.17,15.73,7.16,11.1,17.44
		c-11.09,24.6-22.02,49.28-33.62,73.64c-4.45,9.34-6.58,18.59-6.29,28.92c0.52,18.08,0.11,36.18,0.16,54.27
		c0.02,9.15-2.46,17.72-9.52,23.45c-10.05,8.16-13.77,18.05-11.99,30.53C440.42,583.17,440.15,585.43,440.15,588.65z"/>
	<path class="st2" d="M33.02,310.06c192.89,0,385.33,0,578.59,0c0,4.02,0.42,7.99-0.1,11.84c-0.74,5.5-4.32,8.68-9.88,9.27
		c-2.43,0.26-4.91,0.1-7.36,0.1c-180.9,0-361.79,0-542.69,0C33.93,331.28,31.58,328.68,33.02,310.06z"/>
	
		<linearGradient id="SVGID_00000072252387424250979950000009217392355362812068_" gradientUnits="userSpaceOnUse" x1="32.662" y1="320.6924" x2="611.7681" y2="320.6924">
		<stop  offset="0" style="stop-color:#FFFFFF;stop-opacity:0.4"/>
		<stop  offset="0.0691" style="stop-color:#FFFFFF;stop-opacity:0.3435"/>
		<stop  offset="0.4892" style="stop-color:#FFFFFF;stop-opacity:0"/>
		<stop  offset="0.7527" style="stop-color:#FAFAFA;stop-opacity:0.1032"/>
		<stop  offset="1" style="stop-color:#EFEFEF;stop-opacity:0.2"/>
	</linearGradient>
	<path style="fill:url(#SVGID_00000072252387424250979950000009217392355362812068_);" d="M33.02,310.06c192.89,0,385.33,0,578.59,0
		c0,4.02,0.42,7.99-0.1,11.84c-0.74,5.5-4.32,8.68-9.88,9.27c-2.43,0.26-4.91,0.1-7.36,0.1c-180.9,0-361.79,0-542.69,0
		C33.93,331.28,31.58,328.68,33.02,310.06z"/>
	<path class="st2" d="M343.55,30.99c0,7.5,0,14.12,0,21.09c-14.24,0-27.99,0-42.48,0c0-6.61,0-13.4,0-21.09
		c-7.09,0-13.47,0.07-19.84-0.02c-7.87-0.11-12.65-4.24-12.62-10.76c0.03-6.53,4.77-10.63,12.7-10.65c27.22-0.06,54.45-0.06,81.67,0
		c7.9,0.02,12.7,4.13,12.75,10.61c0.06,6.49-4.77,10.69-12.58,10.8C356.94,31.06,350.73,30.99,343.55,30.99z"/>
	
		<linearGradient id="SVGID_00000042713297795810442700000012669212032849924250_" gradientUnits="userSpaceOnUse" x1="268.6147" y1="30.8049" x2="375.7451" y2="30.8049">
		<stop  offset="0" style="stop-color:#FFFFFF;stop-opacity:0.4"/>
		<stop  offset="0.0691" style="stop-color:#FFFFFF;stop-opacity:0.3435"/>
		<stop  offset="0.4892" style="stop-color:#FFFFFF;stop-opacity:0"/>
		<stop  offset="0.7527" style="stop-color:#FAFAFA;stop-opacity:0.1032"/>
		<stop  offset="1" style="stop-color:#EFEFEF;stop-opacity:0.2"/>
	</linearGradient>
	<path style="fill:url(#SVGID_00000042713297795810442700000012669212032849924250_);" d="M343.55,30.99c0,7.5,0,14.12,0,21.09
		c-14.24,0-27.99,0-42.48,0c0-6.61,0-13.4,0-21.09c-7.09,0-13.47,0.07-19.84-0.02c-7.87-0.11-12.65-4.24-12.62-10.76
		c0.03-6.53,4.77-10.63,12.7-10.65c27.22-0.06,54.45-0.06,81.67,0c7.9,0.02,12.7,4.13,12.75,10.61c0.06,6.49-4.77,10.69-12.58,10.8
		C356.94,31.06,350.73,30.99,343.55,30.99z"/>
	<path class="st2" d="M343.93,631.09c0-7.07,0-13.68,0-20.63c35.48,0,70.66,0,106.39,0c0,6.61,0,13.38,0,20.63
		C415.17,631.09,379.83,631.09,343.93,631.09z"/>
	<path class="st2" d="M170.32,414.27c-6.99-6.39-13.99-12.77-20.98-19.17c-8.4-7.69-16.82-15.35-25.18-23.09
		c-3.51-3.25-5.38-7.13-3.54-12c1.89-4.99,5.64-7.12,10.87-7.3c10.21-0.36,12.62,1.04,16.94,10.52
		c7.63,16.77,15.25,33.55,22.87,50.32C170.98,413.78,170.65,414.03,170.32,414.27z"/>
</g>
</svg>
