<?xml version="1.0" encoding="utf-8"?>
<!-- Generator: Adobe Illustrator 27.7.0, SVG Export Plug-In . SVG Version: 6.00 Build 0)  -->
<svg version="1.1" id="report" xmlns="http://www.w3.org/2000/svg" xmlns:xlink="http://www.w3.org/1999/xlink" x="0px" y="0px"
	 viewBox="0 0 640.6 640.6" style="enable-background:new 0 0 640.6 640.6;" xml:space="preserve">
<style type="text/css">
	.st0{fill:#F2EFF4;}
	.st1{fill:url(#SVGID_1_);}
	.st2{fill:url(#SVGID_00000034082906488117149930000014180139912257657986_);}
	.st3{opacity:0.8;fill:#FFFFFF;enable-background:new    ;}
	.st4{opacity:0.7;fill:#FFFFFF;enable-background:new    ;}
	.st5{fill:#FFFFFF;}
	.st6{opacity:0.9;fill:#FFFFFF;enable-background:new    ;}
</style>
<g>
	<path class="st0" d="M195.9,640.5c-1.7,0.3-2.6,0.5-3.5,0.5c-26.4,0-52.9,0.5-79.3-0.2c-28.5-0.8-46.1-15.7-52.5-43.4
		c-1.3-5.5-2-11.3-2-17c-0.1-104.4-0.1-208.7-0.1-313.1c0-2.1,0-4.2,0-7c20.7,4,40.3,3.3,59.3-5c18.6-8.2,33.2-21.1,43.6-38.8
		c38.2,61.8,123.2,61.3,160.6,0.2c19,29.1,45.2,46,80.4,45.9c35-0.1,61.1-16.8,80-45.9c24.5,37,58.5,51.6,102.8,44
		c0.2,2.8,0.4,5.3,0.4,7.7c0,103.9-0.3,207.8,0.2,311.7c0.2,46.4-30.4,60.1-60.9,60.9c-24.8,0.6-49.5,0.1-74.3,0
		c-0.4,0-0.9-0.3-2.1-0.7c-0.1-2.4-0.4-5.2-0.4-7.9c0-49.6,0-99.1,0-148.7c0-23.8-5.4-45.4-23.9-62c-16-14.3-35.2-20.8-56.3-21.1
		c-31.2-0.5-62.4-0.3-93.6,0c-57.1,0.6-77.9,44.6-78.2,82.1c-0.5,49.8-0.1,99.6-0.1,149.4C195.9,634.8,195.9,637.6,195.9,640.5z"/>
	
		<linearGradient id="SVGID_1_" gradientUnits="userSpaceOnUse" x1="68.4492" y1="-31.8509" x2="627.6725" y2="491.0229" gradientTransform="matrix(1 0 0 -1 0 640.62)">
		<stop  offset="0" style="stop-color:#FFFFFF;stop-opacity:0.4"/>
		<stop  offset="6.910000e-02" style="stop-color:#FFFFFF;stop-opacity:0.3435"/>
		<stop  offset="0.4892" style="stop-color:#FFFFFF;stop-opacity:0"/>
		<stop  offset="0.7527" style="stop-color:#FAFAFA;stop-opacity:0.1032"/>
		<stop  offset="1" style="stop-color:#EFEFEF;stop-opacity:0.2"/>
	</linearGradient>
	<path class="st1" d="M195.9,640.5c-1.7,0.3-2.6,0.5-3.5,0.5c-26.4,0-52.9,0.5-79.3-0.2c-28.5-0.8-46.1-15.7-52.5-43.4
		c-1.3-5.5-2-11.3-2-17c-0.1-104.4-0.1-208.7-0.1-313.1c0-2.1,0-4.2,0-7c20.7,4,40.3,3.3,59.3-5c18.6-8.2,33.2-21.1,43.6-38.8
		c38.2,61.8,123.2,61.3,160.6,0.2c19,29.1,45.2,46,80.4,45.9c35-0.1,61.1-16.8,80-45.9c24.5,37,58.5,51.6,102.8,44
		c0.2,2.8,0.4,5.3,0.4,7.7c0,103.9-0.3,207.8,0.2,311.7c0.2,46.4-30.4,60.1-60.9,60.9c-24.8,0.6-49.5,0.1-74.3,0
		c-0.4,0-0.9-0.3-2.1-0.7c-0.1-2.4-0.4-5.2-0.4-7.9c0-49.6,0-99.1,0-148.7c0-23.8-5.4-45.4-23.9-62c-16-14.3-35.2-20.8-56.3-21.1
		c-31.2-0.5-62.4-0.3-93.6,0c-57.1,0.6-77.9,44.6-78.2,82.1c-0.5,49.8-0.1,99.6-0.1,149.4C195.9,634.8,195.9,637.6,195.9,640.5z"/>
	<path class="st0" d="M424.6,640.7c-68.5,0-136.7,0-205.8,0c0-3,0-5.5,0-8.1c0-49.1-0.2-98.1,0.2-147.2c0.1-8,1.3-16.2,3.5-23.9
		c7-23.9,23-37.1,47.8-37.8c33.1-0.9,66.2-1,99.3-0.1c26.9,0.7,46.4,14.9,52.6,36.4c2,7,2.8,14.5,2.9,21.8
		c0.2,51,0.1,101.9,0.1,152.9C425.1,636.7,424.8,638.6,424.6,640.7z"/>
	
		<linearGradient id="SVGID_00000077299066040054744980000008481071783757860756_" gradientUnits="userSpaceOnUse" x1="172.0419" y1="-64.3678" x2="560.003" y2="342.4671" gradientTransform="matrix(1 0 0 -1 0 640.62)">
		<stop  offset="0" style="stop-color:#FFFFFF;stop-opacity:0.4"/>
		<stop  offset="6.910000e-02" style="stop-color:#FFFFFF;stop-opacity:0.3435"/>
		<stop  offset="0.4892" style="stop-color:#FFFFFF;stop-opacity:0"/>
		<stop  offset="0.7527" style="stop-color:#FAFAFA;stop-opacity:0.1032"/>
		<stop  offset="1" style="stop-color:#EFEFEF;stop-opacity:0.2"/>
	</linearGradient>
	<path style="fill:url(#SVGID_00000077299066040054744980000008481071783757860756_);" d="M424.6,640.7c-68.5,0-136.7,0-205.8,0
		c0-3,0-5.5,0-8.1c0-49.1-0.2-98.1,0.2-147.2c0.1-8,1.3-16.2,3.5-23.9c7-23.9,23-37.1,47.8-37.8c33.1-0.9,66.2-1,99.3-0.1
		c26.9,0.7,46.4,14.9,52.6,36.4c2,7,2.8,14.5,2.9,21.8c0.2,51,0.1,101.9,0.1,152.9C425.1,636.7,424.8,638.6,424.6,640.7z"/>
	<path class="st3" d="M333.9-0.2c38.3,0,76.4,0,115.3,0c1,7.8,2.2,15.7,3.2,23.6c6,47.9,12.2,95.9,17.8,143.8
		c4.1,35.9-25.4,70.1-61.5,72.4c-42.1,2.7-74.3-26.1-75-68.9c-0.9-55.7-0.2-111.5-0.2-167.2C333.4,2.4,333.7,1.2,333.9-0.2z"/>
	<path class="st4" d="M473.2-0.2c2.1-0.1,4-0.3,5.8-0.3c34.3,0,68.6,0.1,102.9-0.1c4.6,0,6.5,1.2,7.7,5.8
		c13.4,54.2,27.3,108.3,40.3,162.7c1.8,7.4,0.2,16.2-2.1,23.7c-9.5,32.3-40.7,52.1-74.4,47.8C521,235.3,497,208.2,494,175
		c-2.9-32.4-7.7-64.7-11.7-97.1c-3-24.1-6.1-48.2-9.1-72.2C473,3.9,473.2,2,473.2-0.2z"/>
	<path class="st5" d="M56.3-0.2c38.7,0,76.7,0,115.2,0c-2.2,17.7-4.3,34.9-6.4,52.1c-5.1,42.3-10.6,84.5-15.1,126.9
		c-3.6,33.5-32.2,60.2-66.6,61c-34.7,0.8-64.9-24-69.2-57.5c-0.9-6.6-0.2-13.8,1.4-20.3C28.4,109.8,41.5,57.7,54.5,5.6
		C55,3.7,55.6,2,56.3-0.2z"/>
	<path class="st6" d="M194.6-0.2c38.7,0,76.7,0,115.2,0c0.2,1.9,0.6,3.7,0.6,5.5c0,55.2,0.2,110.5-0.1,165.7
		c-0.1,28.3-13.1,49.6-38.5,61.9c-24.7,12-49.3,9.6-71.3-7c-20-15.1-29.6-35.6-26.4-61.1C180.9,110.1,187.7,55.3,194.6-0.2z"/>
</g>
</svg>
