<?xml version="1.0" encoding="utf-8"?>
<!-- Generator: Adobe Illustrator 26.2.1, SVG Export Plug-In . SVG Version: 6.00 Build 0)  -->
<svg version="1.1" id="report" xmlns="http://www.w3.org/2000/svg" xmlns:xlink="http://www.w3.org/1999/xlink" x="0px" y="0px"
	 viewBox="0 0 640.62 640.62" style="enable-background:new 0 0 640.62 640.62;" xml:space="preserve">
<style type="text/css">
	.st0{fill:#360061;}
	.st1{fill:url(#SVGID_1_);}
	.st2{fill:#5800B2;}
	.st3{opacity:0.8;fill:#5800B2;}
	.st4{opacity:0.9;fill:#5800B2;}
</style>
<g>
	<path class="st0" d="M641.96,239.74c-2.91,13.42-6.3,26.67-14.12,38.28c-17.42,25.88-41.52,41.1-72.84,41.46
		c-64.93,0.75-129.86,0.3-194.8,0.32c-58.9,0.02-117.8,0.06-176.7-0.1c-4.44-0.01-7.25,1.3-9.85,4.84
		c-4.92,6.71-10.26,13.1-15.52,19.55c-16.47,20.2-41.47,19.89-57.33-0.7c-5.2-6.76-10.07-13.78-15.48-20.37
		c-1.66-2.02-4.45-3.88-6.98-4.3c-43.43-7.26-75.16-43.66-75.87-87.71c-0.31-19.35-0.09-38.71-0.07-58.06
		c0.04-55,38.89-94.05,93.87-94.08c141.73-0.06,283.46-0.04,425.19,0.01c13.1,0,26.27-0.31,39.3,0.8
		c40.64,3.46,73.87,35.14,80.01,75.46c0.18,1.17,0.78,2.28,1.18,3.41C641.96,185.61,641.96,212.68,641.96,239.74z M321.54,179.74
		c68.68,0,137.37,0,206.05,0c2.29,0,4.6,0.1,6.86-0.14c12.48-1.33,20.18-13.39,16.04-25.02c-2.89-8.12-9.96-12.3-20.98-12.3
		c-138.2-0.01-276.4-0.01-414.6,0c-1.87,0-3.76-0.07-5.61,0.16c-12.51,1.53-20.08,14.66-14.87,26.07
		c3.97,8.69,11.34,11.3,20.43,11.29C183.75,179.7,252.64,179.74,321.54,179.74z M196.67,254.92c28.28,0,56.55,0.1,84.83-0.05
		c11-0.06,18.89-7.73,19.25-18.03c0.35-9.99-7.45-18.28-18.21-19.25c-2.06-0.19-4.15-0.11-6.23-0.11c-36.59-0.01-73.19,0-109.78,0
		c-17.67,0-35.35-0.07-53.02,0.03c-9.88,0.06-16.92,4.66-19.67,12.48c-4.37,12.41,4.32,24.77,17.99,24.87
		C140.12,255.06,168.39,254.91,196.67,254.92z"/>
	<linearGradient id="SVGID_1_" gradientUnits="userSpaceOnUse" x1="2.3218" y1="218.935" x2="641.9613" y2="218.935">
		<stop  offset="0" style="stop-color:#FFFFFF;stop-opacity:0.4"/>
		<stop  offset="0.0691" style="stop-color:#FFFFFF;stop-opacity:0.3435"/>
		<stop  offset="0.4892" style="stop-color:#FFFFFF;stop-opacity:0"/>
		<stop  offset="0.7527" style="stop-color:#FAFAFA;stop-opacity:0.1032"/>
		<stop  offset="1" style="stop-color:#EFEFEF;stop-opacity:0.2"/>
	</linearGradient>
	<path class="st1" d="M641.96,239.74c-2.91,13.42-6.3,26.67-14.12,38.28c-17.42,25.88-41.52,41.1-72.84,41.46
		c-64.93,0.75-129.86,0.3-194.8,0.32c-58.9,0.02-117.8,0.06-176.7-0.1c-4.44-0.01-7.25,1.3-9.85,4.84
		c-4.92,6.71-10.26,13.1-15.52,19.55c-16.47,20.2-41.47,19.89-57.33-0.7c-5.2-6.76-10.07-13.78-15.48-20.37
		c-1.66-2.02-4.45-3.88-6.98-4.3c-43.43-7.26-75.16-43.66-75.87-87.71c-0.31-19.35-0.09-38.71-0.07-58.06
		c0.04-55,38.89-94.05,93.87-94.08c141.73-0.06,283.46-0.04,425.19,0.01c13.1,0,26.27-0.31,39.3,0.8
		c40.64,3.46,73.87,35.14,80.01,75.46c0.18,1.17,0.78,2.28,1.18,3.41C641.96,185.61,641.96,212.68,641.96,239.74z M321.54,179.74
		c68.68,0,137.37,0,206.05,0c2.29,0,4.6,0.1,6.86-0.14c12.48-1.33,20.18-13.39,16.04-25.02c-2.89-8.12-9.96-12.3-20.98-12.3
		c-138.2-0.01-276.4-0.01-414.6,0c-1.87,0-3.76-0.07-5.61,0.16c-12.51,1.53-20.08,14.66-14.87,26.07
		c3.97,8.69,11.34,11.3,20.43,11.29C183.75,179.7,252.64,179.74,321.54,179.74z M196.67,254.92c28.28,0,56.55,0.1,84.83-0.05
		c11-0.06,18.89-7.73,19.25-18.03c0.35-9.99-7.45-18.28-18.21-19.25c-2.06-0.19-4.15-0.11-6.23-0.11c-36.59-0.01-73.19,0-109.78,0
		c-17.67,0-35.35-0.07-53.02,0.03c-9.88,0.06-16.92,4.66-19.67,12.48c-4.37,12.41,4.32,24.77,17.99,24.87
		C140.12,255.06,168.39,254.91,196.67,254.92z"/>
	<path class="st2" d="M45.33,547.97c2.51-14.62,5.03-30,7.87-45.32c0.76-4.08,0.09-6.92-3.06-9.87
		c-10.47-9.82-20.55-20.05-30.92-29.97c-4.57-4.37-7.25-9.3-5.21-15.57c1.96-6.03,6.81-8.39,12.87-9.2
		c13.59-1.83,27.12-4.15,40.73-5.84c5.38-0.67,8.85-2.35,11.23-7.73c5.38-12.14,11.7-23.87,17.45-35.85
		c2.85-5.93,6.32-11.07,13.6-11.14c7.61-0.08,11.09,5.24,14.02,11.41c5.7,12.01,12.02,23.73,17.46,35.85
		c2.31,5.14,5.63,6.8,10.83,7.44c13.81,1.7,27.55,4.02,41.35,5.92c6.07,0.83,10.68,3.33,12.64,9.45c1.99,6.2-0.75,10.84-5.05,15
		c-10.46,10.13-20.81,20.38-31.35,30.42c-2.61,2.49-3.79,4.66-3.01,8.59c2.85,14.47,5.11,29.05,7.64,43.59
		c1.03,5.93,0.28,11.35-4.9,15.1c-5.11,3.7-10.45,3.07-15.85,0.18c-12.82-6.86-25.8-13.44-38.53-20.46
		c-3.76-2.07-6.62-1.92-10.31,0.1c-13.13,7.17-26.35,14.18-39.73,20.86C54.98,565.97,44.69,559.43,45.33,547.97z"/>
	<path class="st3" d="M469.61,547.9c2.51-14.86,5.36-30.81,7.76-46.83c0.35-2.34-0.72-5.71-2.38-7.39
		c-10.35-10.54-21.01-20.76-31.63-31.02c-4.28-4.14-7.16-8.7-5.25-14.94c1.98-6.44,6.85-8.85,13.13-9.7
		c14-1.9,27.96-4.13,41.96-6.01c4.43-0.6,7.33-2.09,9.38-6.58c5.85-12.85,12.44-25.36,18.58-38.08c2.72-5.64,6.49-9.9,13.12-9.89
		c6.61,0.01,10.39,4.19,13.11,9.88c6.11,12.73,12.72,25.23,18.58,38.08c2.04,4.47,4.95,5.98,9.36,6.58
		c14.41,1.95,28.79,4.17,43.2,6.2c5.61,0.79,9.92,3.39,11.76,8.85c1.91,5.68,0.12,10.59-4.13,14.72
		c-10.45,10.14-20.72,20.47-31.36,30.41c-3.44,3.22-4.45,6.25-3.56,10.89c2.74,14.28,4.88,28.67,7.45,42.99
		c1.01,5.63-0.15,10.43-4.65,13.96c-4.76,3.73-9.99,3.53-15.22,0.78c-13.24-6.96-26.54-13.8-39.68-20.96
		c-3.52-1.92-6.26-1.87-9.76,0.04c-13.13,7.16-26.35,14.16-39.7,20.91C479.42,565.98,469.4,559.95,469.61,547.9z"/>
	<path class="st4" d="M257.39,548.43c2.53-14.93,4.96-30.54,7.94-46.04c0.82-4.27-0.18-6.89-3.2-9.75
		c-10.43-9.86-20.56-20.03-30.93-29.95c-4.58-4.38-7.11-9.34-5-15.61c2.04-6.06,6.97-8.25,12.98-9.06c14-1.88,27.96-4.12,41.96-6
		c4.44-0.6,7.32-2.15,9.36-6.6c5.87-12.84,12.47-25.34,18.59-38.07c2.73-5.67,6.49-9.87,13.12-9.87c6.63,0.01,10.37,4.24,13.1,9.9
		c6.12,12.73,12.72,25.23,18.59,38.07c2.04,4.48,4.96,5.97,9.38,6.57c14.21,1.91,28.37,4.14,42.58,6.1
		c5.82,0.8,10.41,3.22,12.33,8.99c1.99,5.99-0.19,10.9-4.61,15.16c-10.64,10.24-21.11,20.66-31.81,30.84
		c-2.69,2.56-3.56,4.94-2.84,8.72c2.84,14.9,5.27,29.87,7.83,44.82c0.91,5.34-0.47,10.06-4.8,13.36c-4.5,3.43-9.54,3.77-14.65,1.09
		c-13.42-7.05-26.91-13.99-40.23-21.23c-3.51-1.91-6.3-1.88-9.79,0.02c-13.14,7.14-26.35,14.17-39.7,20.9
		C267.36,565.94,257.13,559.83,257.39,548.43z"/>
</g>
</svg>
