<?xml version="1.0" encoding="UTF-8"?>
<svg id="Layer_1" data-name="Layer 1" xmlns="http://www.w3.org/2000/svg" version="1.1" viewBox="0 0 45 45">
  <defs>
    <style>
      .cls-1 {
        fill: #00deb6;
        fill-rule: evenodd;
        stroke-width: 0px;
      }
    </style>
  </defs>
  <path class="cls-1" d="M31.49,36.97h5.15v-15.71l-14.15-11.86-14.15,11.86v15.71h5.14l9.04-7.62s8.97,7.62,8.97,7.62ZM37.23,41.46h-7.4l-7.35-6.21-7.4,6.21h-7.4c-2.12.01-3.85-1.69-3.86-3.81,0-.03,0-.05,0-.08l.04-16.59c0-1.04.4-2.01,1.12-2.73l.16-.16L22.48,3.54l17.53,14.71c.72.72,1.12,1.68,1.12,2.73l.04,16.59c0,1.04-.4,2.01-1.12,2.77-.73.76-1.77,1.12-2.81,1.12Z"/>
</svg>