<?xml version="1.0" encoding="utf-8"?>
<!-- Generator: Adobe Illustrator 26.2.1, SVG Export Plug-In . SVG Version: 6.00 Build 0)  -->
<svg version="1.1" id="report" xmlns="http://www.w3.org/2000/svg" xmlns:xlink="http://www.w3.org/1999/xlink" x="0px" y="0px"
	 viewBox="0 0 640.62 640.62" style="enable-background:new 0 0 640.62 640.62;" xml:space="preserve">
<style type="text/css">
	.st0{fill:#5800B2;}
	.st1{fill:#360061;}
	.st2{fill:url(#SVGID_1_);}
	.st3{fill:url(#SVGID_00000122716823458831843350000016826306945255416760_);}
	.st4{fill:url(#SVGID_00000125600999286449068520000003968058516500311977_);}
	.st5{fill:url(#SVGID_00000044175182199192511080000014293546117872510895_);}
	.st6{fill:url(#SVGID_00000122688959582127677110000008198408439836513439_);}
	.st7{fill:url(#SVGID_00000145040808440761716320000002386803016219676815_);}
</style>
<g>
	<path class="st0" d="M235.78,413.25c-19.16,18.6-38.07,36.95-57.25,55.58c0.99,1.31,1.73,2.3,2.46,3.29
		c5.85,7.82,5.7,16.57-1.33,23.44c-34.03,33.26-68.17,66.4-102.42,99.44c-7.72,7.45-17.29,7.2-24.87-0.4
		c-12.22-12.25-24.29-24.65-36.19-37.21c-7.69-8.12-7.61-17.54,0.35-25.31c33.89-33.09,67.87-66.09,101.95-98.99
		c8.13-7.85,16.17-7.21,26.97,1.73c19.44-18.85,38.93-37.76,57.95-56.2c-45.34-75.93-47.57-151.22,6.07-222.27
		c47.89-63.44,114.35-83.55,192.13-68.63c-15.06,6.18-25.53,16.45-29.95,31.99c-79.79-6.35-143.24,48.24-159.55,113.26
		c-16.13,64.3,10.74,130.25,67.25,165.59c54.48,34.07,137.3,31.71,191.85-28.36c9.23,11.34,22.01,13.36,35.99,12.63
		C456.92,456.68,331.14,492.33,235.78,413.25z"/>
	<path class="st0" d="M633.69,245.01c0,33.51,0.01,67.02-0.01,100.54c-0.01,11.87-4.55,16.39-16.52,16.47
		c-6.92,0.05-13.84,0.13-20.76-0.03c-10-0.22-14.79-4.94-14.8-14.81c-0.05-68.54-0.05-137.08,0-205.61
		c0.01-9.61,4.61-14.47,14.14-14.81c7.77-0.28,15.57-0.26,23.35-0.02c9.84,0.3,14.56,5.26,14.57,15.14
		C633.72,176.26,633.69,210.64,633.69,245.01z"/>
	<path class="st1" d="M531.41,149.45c1.5,11.58-5.18,20.28-15.34,22.95c-9.56,2.51-20.11-1.77-24.8-10.84
		c-1.91-3.7-4.12-5.33-8.11-6.1c-15.89-3.09-31.69-6.67-47.59-9.72c-2.29-0.44-5.5,0.32-7.35,1.74c-6.14,4.71-12.78,5.68-20.2,4.69
		c-2.38-0.32-5.54,0.2-7.38,1.61c-19.42,14.82-38.7,29.81-57.81,45.02c-1.97,1.57-3.47,4.81-3.63,7.37
		c-0.86,13.37-11.79,23.32-24.64,21.91c-13.25-1.46-21.9-12.9-19.8-26.19c1.97-12.45,14.19-20.34,27.03-17.93
		c2.55,0.48,6.09-0.15,8.11-1.68c19.44-14.79,38.7-29.81,57.83-45c1.82-1.45,3.17-4.47,3.35-6.86c0.82-11.04,7.64-19.75,17.85-21.99
		c9.88-2.17,19.46,2.68,24.96,12.17c1.11,1.91,3.39,3.89,5.47,4.36c16.43,3.71,32.91,7.18,49.44,10.37
		c2.26,0.44,4.93-1.04,7.38-1.74c5.65-1.61,11.24-4.34,16.94-4.61c4.43-0.21,7.55-0.96,10.82-3.93
		c18.89-17.14,37.94-34.13,57.05-51.03c3.08-2.73,4.77-5.22,4.54-9.79c-0.58-11.53,8.09-21.2,19.09-22.38
		c11.8-1.27,22.21,5.91,24.83,17.12c2.6,11.14-3.83,22.62-14.92,26.14c-2.61,0.83-5.76,1.59-8.23,0.88
		c-6.05-1.76-9.55,1.45-13.5,5.02c-18.44,16.68-37.1,33.11-55.5,49.84C534.79,143.12,533.34,146.55,531.41,149.45z"/>
	<path class="st0" d="M387.45,278.75c0-22.27-0.03-44.53,0.01-66.8c0.03-12.13,4.73-16.71,16.98-16.75c6.7-0.02,13.4-0.08,20.1,0.02
		c10.16,0.14,15.22,4.96,15.25,15.17c0.11,45.4,0.1,90.8,0.01,136.2c-0.02,10.56-4.99,15.28-15.64,15.43
		c-6.7,0.1-13.4,0.06-20.1,0.01c-11.84-0.08-16.56-4.71-16.59-16.47C387.41,323.29,387.45,301.02,387.45,278.75z"/>
	<path class="st1" d="M536.62,296.61c0,16.65,0.06,33.29-0.02,49.94c-0.05,10.74-4.66,15.31-15.46,15.46
		c-7.13,0.1-14.27,0.12-21.4-0.01c-10.28-0.18-15.22-5.03-15.23-15.14c-0.06-33.73-0.07-67.45,0.01-101.18
		c0.02-9.61,4.82-14.44,14.27-14.6c7.78-0.13,15.57-0.11,23.35-0.01c9.73,0.13,14.39,4.65,14.46,14.29
		C536.7,262.45,536.61,279.53,536.62,296.61z"/>
	<path class="st1" d="M342.87,322.9c0,7.98,0.07,15.97-0.02,23.95c-0.11,9.83-4.91,14.89-14.56,15.13c-7.76,0.2-15.54,0.2-23.3-0.01
		c-9.5-0.26-14.18-5.05-14.26-14.63c-0.12-16.4-0.12-32.79,0-49.19c0.07-9.92,4.88-14.67,14.72-14.8c7.55-0.1,15.1-0.11,22.65,0
		c9.67,0.15,14.61,5.16,14.74,14.94C342.95,306.5,342.87,314.7,342.87,322.9z"/>
	<linearGradient id="SVGID_1_" gradientUnits="userSpaceOnUse" x1="10.5036" y1="341.7286" x2="507.1967" y2="341.7286">
		<stop  offset="0" style="stop-color:#FFFFFF;stop-opacity:0.4"/>
		<stop  offset="0.0691" style="stop-color:#FFFFFF;stop-opacity:0.3435"/>
		<stop  offset="0.4892" style="stop-color:#FFFFFF;stop-opacity:0"/>
		<stop  offset="0.7527" style="stop-color:#FAFAFA;stop-opacity:0.1032"/>
		<stop  offset="1" style="stop-color:#EFEFEF;stop-opacity:0.2"/>
	</linearGradient>
	<path class="st2" d="M235.78,413.25c-19.16,18.6-38.07,36.95-57.25,55.58c0.99,1.31,1.73,2.3,2.46,3.29
		c5.85,7.82,5.7,16.57-1.33,23.44c-34.03,33.26-68.17,66.4-102.42,99.44c-7.72,7.45-17.29,7.2-24.87-0.4
		c-12.22-12.25-24.29-24.65-36.19-37.21c-7.69-8.12-7.61-17.54,0.35-25.31c33.89-33.09,67.87-66.09,101.95-98.99
		c8.13-7.85,16.17-7.21,26.97,1.73c19.44-18.85,38.93-37.76,57.95-56.2c-45.34-75.93-47.57-151.22,6.07-222.27
		c47.89-63.44,114.35-83.55,192.13-68.63c-15.06,6.18-25.53,16.45-29.95,31.99c-79.79-6.35-143.24,48.24-159.55,113.26
		c-16.13,64.3,10.74,130.25,67.25,165.59c54.48,34.07,137.3,31.71,191.85-28.36c9.23,11.34,22.01,13.36,35.99,12.63
		C456.92,456.68,331.14,492.33,235.78,413.25z"/>
	
		<linearGradient id="SVGID_00000000213090742331209270000000268235904384655284_" gradientUnits="userSpaceOnUse" x1="581.5718" y1="244.3187" x2="633.699" y2="244.3187">
		<stop  offset="0" style="stop-color:#FFFFFF;stop-opacity:0.4"/>
		<stop  offset="0.0691" style="stop-color:#FFFFFF;stop-opacity:0.3435"/>
		<stop  offset="0.4892" style="stop-color:#FFFFFF;stop-opacity:0"/>
		<stop  offset="0.7527" style="stop-color:#FAFAFA;stop-opacity:0.1032"/>
		<stop  offset="1" style="stop-color:#EFEFEF;stop-opacity:0.2"/>
	</linearGradient>
	<path style="fill:url(#SVGID_00000000213090742331209270000000268235904384655284_);" d="M633.69,245.01
		c0,33.51,0.01,67.02-0.01,100.54c-0.01,11.87-4.55,16.39-16.52,16.47c-6.92,0.05-13.84,0.13-20.76-0.03
		c-10-0.22-14.79-4.94-14.8-14.81c-0.05-68.54-0.05-137.08,0-205.61c0.01-9.61,4.61-14.47,14.14-14.81
		c7.77-0.28,15.57-0.26,23.35-0.02c9.84,0.3,14.56,5.26,14.57,15.14C633.72,176.26,633.69,210.64,633.69,245.01z"/>
	
		<linearGradient id="SVGID_00000088826904100883232720000018393573743512687003_" gradientUnits="userSpaceOnUse" x1="294.453" y1="134.9547" x2="630.0177" y2="134.9547">
		<stop  offset="0" style="stop-color:#FFFFFF;stop-opacity:0.4"/>
		<stop  offset="0.0691" style="stop-color:#FFFFFF;stop-opacity:0.3435"/>
		<stop  offset="0.4892" style="stop-color:#FFFFFF;stop-opacity:0"/>
		<stop  offset="0.7527" style="stop-color:#FAFAFA;stop-opacity:0.1032"/>
		<stop  offset="1" style="stop-color:#EFEFEF;stop-opacity:0.2"/>
	</linearGradient>
	<path style="fill:url(#SVGID_00000088826904100883232720000018393573743512687003_);" d="M531.41,149.45
		c1.5,11.58-5.18,20.28-15.34,22.95c-9.56,2.51-20.11-1.77-24.8-10.84c-1.91-3.7-4.12-5.33-8.11-6.1
		c-15.89-3.09-31.69-6.67-47.59-9.72c-2.29-0.44-5.5,0.32-7.35,1.74c-6.14,4.71-12.78,5.68-20.2,4.69c-2.38-0.32-5.54,0.2-7.38,1.61
		c-19.42,14.82-38.7,29.81-57.81,45.02c-1.97,1.57-3.47,4.81-3.63,7.37c-0.86,13.37-11.79,23.32-24.64,21.91
		c-13.25-1.46-21.9-12.9-19.8-26.19c1.97-12.45,14.19-20.34,27.03-17.93c2.55,0.48,6.09-0.15,8.11-1.68
		c19.44-14.79,38.7-29.81,57.83-45c1.82-1.45,3.17-4.47,3.35-6.86c0.82-11.04,7.64-19.75,17.85-21.99
		c9.88-2.17,19.46,2.68,24.96,12.17c1.11,1.91,3.39,3.89,5.47,4.36c16.43,3.71,32.91,7.18,49.44,10.37
		c2.26,0.44,4.93-1.04,7.38-1.74c5.65-1.61,11.24-4.34,16.94-4.61c4.43-0.21,7.55-0.96,10.82-3.93
		c18.89-17.14,37.94-34.13,57.05-51.03c3.08-2.73,4.77-5.22,4.54-9.79c-0.58-11.53,8.09-21.2,19.09-22.38
		c11.8-1.27,22.21,5.91,24.83,17.12c2.6,11.14-3.83,22.62-14.92,26.14c-2.61,0.83-5.76,1.59-8.23,0.88
		c-6.05-1.76-9.55,1.45-13.5,5.02c-18.44,16.68-37.1,33.11-55.5,49.84C534.79,143.12,533.34,146.55,531.41,149.45z"/>
	
		<linearGradient id="SVGID_00000007413707444168066480000001315494307836666032_" gradientUnits="userSpaceOnUse" x1="387.4365" y1="278.6155" x2="439.8709" y2="278.6155">
		<stop  offset="0" style="stop-color:#FFFFFF;stop-opacity:0.4"/>
		<stop  offset="0.0691" style="stop-color:#FFFFFF;stop-opacity:0.3435"/>
		<stop  offset="0.4892" style="stop-color:#FFFFFF;stop-opacity:0"/>
		<stop  offset="0.7527" style="stop-color:#FAFAFA;stop-opacity:0.1032"/>
		<stop  offset="1" style="stop-color:#EFEFEF;stop-opacity:0.2"/>
	</linearGradient>
	<path style="fill:url(#SVGID_00000007413707444168066480000001315494307836666032_);" d="M387.45,278.75
		c0-22.27-0.03-44.53,0.01-66.8c0.03-12.13,4.73-16.71,16.98-16.75c6.7-0.02,13.4-0.08,20.1,0.02c10.16,0.14,15.22,4.96,15.25,15.17
		c0.11,45.4,0.1,90.8,0.01,136.2c-0.02,10.56-4.99,15.28-15.64,15.43c-6.7,0.1-13.4,0.06-20.1,0.01
		c-11.84-0.08-16.56-4.71-16.59-16.47C387.41,323.29,387.45,301.02,387.45,278.75z"/>
	
		<linearGradient id="SVGID_00000150786111660258843090000000644506026258044606_" gradientUnits="userSpaceOnUse" x1="484.4494" y1="296.5408" x2="536.6442" y2="296.5408">
		<stop  offset="0" style="stop-color:#FFFFFF;stop-opacity:0.4"/>
		<stop  offset="0.0691" style="stop-color:#FFFFFF;stop-opacity:0.3435"/>
		<stop  offset="0.4892" style="stop-color:#FFFFFF;stop-opacity:0"/>
		<stop  offset="0.7527" style="stop-color:#FAFAFA;stop-opacity:0.1032"/>
		<stop  offset="1" style="stop-color:#EFEFEF;stop-opacity:0.2"/>
	</linearGradient>
	<path style="fill:url(#SVGID_00000150786111660258843090000000644506026258044606_);" d="M536.62,296.61
		c0,16.65,0.06,33.29-0.02,49.94c-0.05,10.74-4.66,15.31-15.46,15.46c-7.13,0.1-14.27,0.12-21.4-0.01
		c-10.28-0.18-15.22-5.03-15.23-15.14c-0.06-33.73-0.07-67.45,0.01-101.18c0.02-9.61,4.82-14.44,14.27-14.6
		c7.78-0.13,15.57-0.11,23.35-0.01c9.73,0.13,14.39,4.65,14.46,14.29C536.7,262.45,536.61,279.53,536.62,296.61z"/>
	
		<linearGradient id="SVGID_00000031180663509829927520000009279305048999524769_" gradientUnits="userSpaceOnUse" x1="290.6399" y1="322.7049" x2="342.8999" y2="322.7049">
		<stop  offset="0" style="stop-color:#FFFFFF;stop-opacity:0.4"/>
		<stop  offset="0.0691" style="stop-color:#FFFFFF;stop-opacity:0.3435"/>
		<stop  offset="0.4892" style="stop-color:#FFFFFF;stop-opacity:0"/>
		<stop  offset="0.7527" style="stop-color:#FAFAFA;stop-opacity:0.1032"/>
		<stop  offset="1" style="stop-color:#EFEFEF;stop-opacity:0.2"/>
	</linearGradient>
	<path style="fill:url(#SVGID_00000031180663509829927520000009279305048999524769_);" d="M342.87,322.9
		c0,7.98,0.07,15.97-0.02,23.95c-0.11,9.83-4.91,14.89-14.56,15.13c-7.76,0.2-15.54,0.2-23.3-0.01c-9.5-0.26-14.18-5.05-14.26-14.63
		c-0.12-16.4-0.12-32.79,0-49.19c0.07-9.92,4.88-14.67,14.72-14.8c7.55-0.1,15.1-0.11,22.65,0c9.67,0.15,14.61,5.16,14.74,14.94
		C342.95,306.5,342.87,314.7,342.87,322.9z"/>
</g>
</svg>
