<?xml version="1.0" encoding="UTF-8"?>
<svg id="report" xmlns="http://www.w3.org/2000/svg" version="1.1" xmlns:xlink="http://www.w3.org/1999/xlink" viewBox="0 0 640.62 640.62">
  <defs>
    <style>
      .cls-1 {
        fill: #360061;
      }

      .cls-1, .cls-2, .cls-3, .cls-4, .cls-5, .cls-6 {
        stroke-width: 0px;
      }

      .cls-2 {
        fill: url(#linear-gradient);
      }

      .cls-3 {
        fill: #5800b2;
      }

      .cls-4 {
        fill: url(#linear-gradient-2);
      }

      .cls-5 {
        fill: url(#linear-gradient-3);
      }

      .cls-6 {
        fill: url(#linear-gradient-4);
      }
    </style>
    <linearGradient id="linear-gradient" x1="79.81" y1="256.38" x2="560.81" y2="256.38" gradientUnits="userSpaceOnUse">
      <stop offset="0" stop-color="#fff" stop-opacity=".4"/>
      <stop offset=".07" stop-color="#fff" stop-opacity=".34"/>
      <stop offset=".49" stop-color="#fff" stop-opacity="0"/>
      <stop offset=".75" stop-color="#fafafa" stop-opacity=".1"/>
      <stop offset="1" stop-color="#efefef" stop-opacity=".2"/>
    </linearGradient>
    <linearGradient id="linear-gradient-2" x1="188.21" y1="546.4" x2="452.66" y2="546.4" xlink:href="#linear-gradient"/>
    <linearGradient id="linear-gradient-3" x1="159.79" y1="256.94" x2="480.92" y2="256.94" xlink:href="#linear-gradient"/>
    <linearGradient id="linear-gradient-4" x1="390.58" y1="256.94" x2="430.79" y2="256.94" xlink:href="#linear-gradient"/>
  </defs>
  <g>
    <path class="cls-1" d="M395.91,441.55c-14.56,34.78-39.32,55.54-77.22,55.26-37.32-.28-61.61-21.09-75.9-55.22-34.03,14.84-66.12,11.77-92.83-15.01-26.55-26.62-29.61-58.58-14.91-92.9-36.45-15.1-57.22-41.63-55.08-81.75,1.89-35.5,22.53-58.74,55.15-72.53-15.03-34.28-12.65-66.59,15.05-93.3,27.05-26.09,59.05-29.71,93.66-14.8,13.9-34.55,38.67-55.29,76.45-55.34,37.84-.06,62.6,20.69,76.54,55.14,70.64-31.19,138.94,32.55,107.88,109.17,33.1,15.13,56.28,38.74,56.11,77.12-.17,38.28-22.92,61.68-57.12,75.24,14.82,35.14,11.67,67.88-15.92,94.9-26.45,25.9-58.06,28.74-91.86,14.05ZM500.99,257.11c.1-99.54-81.27-181.14-180.63-181.15-99.09,0-180.37,81.21-180.64,180.49-.27,99.5,80.99,181.29,180.3,181.48,99.31.19,180.87-81.31,180.97-180.82Z"/>
    <path class="cls-3" d="M452.66,624.67c-3.11-1.22-5.19-2-7.23-2.85-39.86-16.62-79.74-33.2-119.56-49.93-3.69-1.55-6.73-1.79-10.6-.16-39.79,16.79-79.67,33.34-119.53,49.96-2.08.87-4.2,1.66-7.54,2.98.74-7.44,1.29-13.94,2.04-20.42,4.92-42.18,9.97-84.35,14.74-126.54.58-5.16,2.27-7.69,7.66-7,1.22.16,2.63.17,3.72-.3,12.17-5.16,18.82.13,26.73,10.02,42.08,52.56,123.35,48.39,160.81-7.58,2.7-4.04,4.72-5.76,9.84-4.06,4.85,1.61,10.26,1.73,15.45,2.01,3.32.18,4.79,1.23,5.21,4.66,4.98,41.12,10.09,82.22,15.15,123.33,1.02,8.26,1.98,16.52,3.09,25.9Z"/>
    <path class="cls-3" d="M480.92,257.04c-.05,88.34-72.35,160.75-160.52,160.78-88.41.02-160.83-72.71-160.61-161.31.22-88.33,72.64-160.58,160.83-160.45,88.18.13,160.35,72.61,160.3,160.98ZM370.55,256.58c0,10.26-.14,20.53.03,30.79.35,22.23,18.17,39.92,40.05,39.94,21.92.02,39.86-17.6,40.13-39.85.24-20.32.24-40.64,0-60.96-.26-22.29-18.11-39.91-40.04-39.93-21.93-.02-39.77,17.61-40.14,39.84-.17,10.05-.03,20.11-.03,30.16ZM190.18,287.31c-.18,17.19,10.93,32.42,27.28,37.9,16.61,5.57,34.64-.28,45.05-14.61,10.19-14.02,10.27-32.93,0-46.91-8.08-11.01-19.1-16.37-32.72-16.85-10.89-.38-19.22-8.57-19.79-18.91-.55-10.11,6.87-19.37,16.88-21.04,10.09-1.69,19.79,4.88,22.68,15.39.38,1.37.62,2.77.92,4.15h19.74c-1.01-16.04-7.94-28.04-21.91-35.25-14.47-7.47-28.84-6.29-41.92,3.33-12.85,9.45-18.42,22.66-15.93,38.48,3.15,20,18.57,32.83,39.78,34.03,10.87.61,19.22,8.6,19.8,18.95.57,10.11-6.83,19.34-16.87,21.04-10.11,1.72-19.75-4.8-22.69-15.37-.38-1.36-.62-2.77-.95-4.31h-19.37ZM290.7,186.85v140.18h59.38v-20.03h-39.45v-40.08h39.37v-20.19h-39.29v-40.3h39.43v-19.58h-59.44Z"/>
    <path class="cls-3" d="M390.61,256.67c0-9.63-.08-19.26.02-28.88.12-12.15,8.82-21.17,20.17-21.1,11.34.07,19.87,9.07,19.93,21.33.09,19.26.09,38.51,0,57.77-.05,12.29-8.52,21.3-19.85,21.41-11.58.11-20.17-9.02-20.26-21.64-.07-9.63-.01-19.26-.01-28.88Z"/>
  </g>
  <g>
    <path class="cls-2" d="M395.91,441.55c-14.56,34.78-39.32,55.54-77.22,55.26-37.32-.28-61.61-21.09-75.9-55.22-34.03,14.84-66.12,11.77-92.83-15.01-26.55-26.62-29.61-58.58-14.91-92.9-36.45-15.1-57.22-41.63-55.08-81.75,1.89-35.5,22.53-58.74,55.15-72.53-15.03-34.28-12.65-66.59,15.05-93.3,27.05-26.09,59.05-29.71,93.66-14.8,13.9-34.55,38.67-55.29,76.45-55.34,37.84-.06,62.6,20.69,76.54,55.14,70.64-31.19,138.94,32.55,107.88,109.17,33.1,15.13,56.28,38.74,56.11,77.12-.17,38.28-22.92,61.68-57.12,75.24,14.82,35.14,11.67,67.88-15.92,94.9-26.45,25.9-58.06,28.74-91.86,14.05ZM500.99,257.11c.1-99.54-81.27-181.14-180.63-181.15-99.09,0-180.37,81.21-180.64,180.49-.27,99.5,80.99,181.29,180.3,181.48,99.31.19,180.87-81.31,180.97-180.82Z"/>
    <path class="cls-4" d="M452.66,624.67c-3.11-1.22-5.19-2-7.23-2.85-39.86-16.62-79.74-33.2-119.56-49.93-3.69-1.55-6.73-1.79-10.6-.16-39.79,16.79-79.67,33.34-119.53,49.96-2.08.87-4.2,1.66-7.54,2.98.74-7.44,1.29-13.94,2.04-20.42,4.92-42.18,9.97-84.35,14.74-126.54.58-5.16,2.27-7.69,7.66-7,1.22.16,2.63.17,3.72-.3,12.17-5.16,18.82.13,26.73,10.02,42.08,52.56,123.35,48.39,160.81-7.58,2.7-4.04,4.72-5.76,9.84-4.06,4.85,1.61,10.26,1.73,15.45,2.01,3.32.18,4.79,1.23,5.21,4.66,4.98,41.12,10.09,82.22,15.15,123.33,1.02,8.26,1.98,16.52,3.09,25.9Z"/>
    <path class="cls-5" d="M480.92,257.04c-.05,88.34-72.35,160.75-160.52,160.78-88.41.02-160.83-72.71-160.61-161.31.22-88.33,72.64-160.58,160.83-160.45,88.18.13,160.35,72.61,160.3,160.98ZM370.55,256.58c0,10.26-.14,20.53.03,30.79.35,22.23,18.17,39.92,40.05,39.94,21.92.02,39.86-17.6,40.13-39.85.24-20.32.24-40.64,0-60.96-.26-22.29-18.11-39.91-40.04-39.93-21.93-.02-39.77,17.61-40.14,39.84-.17,10.05-.03,20.11-.03,30.16ZM190.18,287.31c-.18,17.19,10.93,32.42,27.28,37.9,16.61,5.57,34.64-.28,45.05-14.61,10.19-14.02,10.27-32.93,0-46.91-8.08-11.01-19.1-16.37-32.72-16.85-10.89-.38-19.22-8.57-19.79-18.91-.55-10.11,6.87-19.37,16.88-21.04,10.09-1.69,19.79,4.88,22.68,15.39.38,1.37.62,2.77.92,4.15h19.74c-1.01-16.04-7.94-28.04-21.91-35.25-14.47-7.47-28.84-6.29-41.92,3.33-12.85,9.45-18.42,22.66-15.93,38.48,3.15,20,18.57,32.83,39.78,34.03,10.87.61,19.22,8.6,19.8,18.95.57,10.11-6.83,19.34-16.87,21.04-10.11,1.72-19.75-4.8-22.69-15.37-.38-1.36-.62-2.77-.95-4.31h-19.37ZM290.7,186.85v140.18h59.38v-20.03h-39.45v-40.08h39.37v-20.19h-39.29v-40.3h39.43v-19.58h-59.44Z"/>
    <path class="cls-6" d="M390.61,256.67c0-9.63-.08-19.26.02-28.88.12-12.15,8.82-21.17,20.17-21.1,11.34.07,19.87,9.07,19.93,21.33.09,19.26.09,38.51,0,57.77-.05,12.29-8.52,21.3-19.85,21.41-11.58.11-20.17-9.02-20.26-21.64-.07-9.63-.01-19.26-.01-28.88Z"/>
  </g>
</svg>