<?xml version="1.0" encoding="utf-8"?>
<!-- Generator: Adobe Illustrator 27.3.1, SVG Export Plug-In . SVG Version: 6.00 Build 0)  -->
<svg version="1.1" id="report" xmlns="http://www.w3.org/2000/svg" xmlns:xlink="http://www.w3.org/1999/xlink" x="0px" y="0px"
	 viewBox="0 0 640.62 640.62" style="enable-background:new 0 0 640.62 640.62;" xml:space="preserve">
<style type="text/css">
	.st0{fill:#360061;}
	.st1{fill:#5800B2;}
	.st2{fill:url(#SVGID_1_);}
	.st3{fill:url(#SVGID_00000143579628860325235910000007533139415091908224_);}
	.st4{fill:url(#SVGID_00000088817297716767423110000014244052888463099838_);}
</style>
<g>
	<path class="st0" d="M10.67,138.96c206.72,0,412.63,0,619.37,0c0,2.55,0,4.83,0,7.11c0,119.13,0.01,238.26-0.01,357.39
		c0,24.39-14.44,38.96-38.77,39.06c-19.78,0.08-39.57,0.2-59.35-0.16c-3.18-0.06-7.08-1.73-9.36-3.97
		c-21.79-21.39-43.39-42.97-64.86-64.68c-7.64-7.72-16.51-12.05-27.39-12.55c-1.93-0.09-4.15-0.95-5.65-2.17
		c-4.48-3.63-8.68-7.61-13-11.47c18.24-30.65,25.21-62.56,21.93-96.44c-3.26-33.7-16.8-63.17-40.44-89.73
		c10.05,0,18.54,0.02,27.03,0c13.23-0.04,17.35-4.15,17.37-17.35c0.02-10.32,0.08-20.64-0.02-30.96
		c-0.1-10.61-4.86-15.42-15.4-15.42c-105.37-0.03-210.73-0.03-316.1,0c-10.19,0-15.02,4.83-15.13,15.04
		c-0.12,11.18-0.11,22.36,0,33.54c0.1,10.28,4.77,15.04,15.02,15.12c17.42,0.13,34.84,0.03,52.25,0.05c2.06,0,4.12,0.17,7.4,0.32
		c-31.23,35.82-44.69,76.53-39.75,122.71c3.54,33.02,17.22,61.72,39.29,86.59c38.07,42.89,116.31,73.15,195.3,28.36
		c3.92,4.19,8.11,8.5,12.07,13.02c1.01,1.16,1.8,3,1.77,4.5c-0.2,9.27,3.11,17.2,9.39,25.13c-2.38,0.22-4.11,0.53-5.84,0.53
		c-109.67,0.02-219.34,0.06-329-0.02c-23.56-0.02-38.13-14.83-38.14-38.36c-0.02-119.56-0.01-239.12-0.01-358.68
		C10.67,143.53,10.67,141.61,10.67,138.96z M517.68,197.59c-5.81,0-11.61-0.08-17.42,0.02c-9.03,0.15-14.26,4.91-14.44,13.74
		c-0.25,12.04-0.23,24.09-0.01,36.13c0.16,8.69,5.06,13.63,13.69,13.79c12.25,0.22,24.52,0.22,36.77-0.01
		c8.08-0.15,13.17-4.81,13.4-12.69c0.37-12.68,0.36-25.38,0.01-38.06c-0.21-7.85-5.47-12.63-13.3-12.86
		C530.15,197.46,523.91,197.61,517.68,197.59z"/>
	<path class="st1" d="M10.79,120.09c0-26.06-0.59-51.64,0.21-77.17c0.55-17.49,16.08-31.46,33.61-32.28
		c1.5-0.07,3.01-0.06,4.51-0.06c180.83,0,361.65-0.01,542.48,0.01c19.89,0,34.13,11,37.75,29.18c0.54,2.71,0.65,5.55,0.66,8.33
		c0.05,23.84,0.03,47.67,0.03,71.99C423.57,120.09,217.52,120.09,10.79,120.09z M91.22,65.52c-0.06-6.81-5.46-12.26-12.26-12.37
		c-7.04-0.11-12.81,5.58-12.76,12.56c0.06,7.03,5.83,12.5,12.96,12.3C86.05,77.83,91.27,72.41,91.22,65.52z M178.38,53.15
		c-6.74,0.1-12.28,5.67-12.33,12.38c-0.05,7.05,5.65,12.63,12.79,12.5c6.83-0.12,12.29-5.58,12.35-12.33
		C191.25,58.75,185.42,53.04,178.38,53.15z M116.27,65.35c-0.12,6.96,4.95,12.39,11.83,12.67c7.22,0.29,12.89-5,13.01-12.14
		c0.12-7.14-5.4-12.77-12.48-12.74C121.78,53.17,116.39,58.5,116.27,65.35z"/>
	<path class="st1" d="M362.15,476.25c-66.85,47.91-149.82,28.31-191.58-26.98c-41.95-55.55-35.66-133.34,15-181.85
		c49.63-47.52,128.43-50,181.37-5.98c54.09,44.98,66.88,125.99,22.11,187.54c10.32,10.34,20.68,20.83,31.23,31.11
		c0.82,0.8,3.1,0.59,4.51,0.19c7.35-2.1,13.54-0.27,18.86,5.05c31.01,31.01,62.07,61.98,93.01,93.06c8.36,8.4,8.29,18.28,0.04,26.81
		c-6.13,6.33-12.35,12.58-18.7,18.69c-8.55,8.23-18.27,8.21-26.75-0.22c-30.92-30.8-61.72-61.72-92.64-92.52
		c-5.55-5.53-7.33-11.75-5.46-19.39c0.44-1.78-0.39-4.62-1.68-5.97C381.94,495.9,372.14,486.25,362.15,476.25z M280.48,267.9
		c-53.46-0.79-98.76,42.95-99.55,96.13c-0.84,56.1,42.37,100.79,98.1,101.46c53.38,0.64,98.49-43.17,99.34-96.46
		C379.25,313.51,335.89,268.72,280.48,267.9z"/>
</g>
<g>
	<linearGradient id="SVGID_1_" gradientUnits="userSpaceOnUse" x1="-6.8415" y1="39.8897" x2="580.4843" y2="562.4965">
		<stop  offset="0" style="stop-color:#FFFFFF;stop-opacity:0.4"/>
		<stop  offset="0.0691" style="stop-color:#FFFFFF;stop-opacity:0.3435"/>
		<stop  offset="0.4892" style="stop-color:#FFFFFF;stop-opacity:0"/>
		<stop  offset="0.7527" style="stop-color:#FAFAFA;stop-opacity:0.1032"/>
		<stop  offset="1" style="stop-color:#EFEFEF;stop-opacity:0.2"/>
	</linearGradient>
	<path class="st2" d="M10.67,138.96c206.72,0,412.63,0,619.37,0c0,2.55,0,4.83,0,7.11c0,119.13,0.01,238.26-0.01,357.39
		c0,24.39-14.44,38.96-38.77,39.06c-19.78,0.08-39.57,0.2-59.35-0.16c-3.18-0.06-7.08-1.73-9.36-3.97
		c-21.79-21.39-43.39-42.97-64.86-64.68c-7.64-7.72-16.51-12.05-27.39-12.55c-1.93-0.09-4.15-0.95-5.65-2.17
		c-4.48-3.63-8.68-7.61-13-11.47c18.24-30.65,25.21-62.56,21.93-96.44c-3.26-33.7-16.8-63.17-40.44-89.73
		c10.05,0,18.54,0.02,27.03,0c13.23-0.04,17.35-4.15,17.37-17.35c0.02-10.32,0.08-20.64-0.02-30.96
		c-0.1-10.61-4.86-15.42-15.4-15.42c-105.37-0.03-210.73-0.03-316.1,0c-10.19,0-15.02,4.83-15.13,15.04
		c-0.12,11.18-0.11,22.36,0,33.54c0.1,10.28,4.77,15.04,15.02,15.12c17.42,0.13,34.84,0.03,52.25,0.05c2.06,0,4.12,0.17,7.4,0.32
		c-31.23,35.82-44.69,76.53-39.75,122.71c3.54,33.02,17.22,61.72,39.29,86.59c38.07,42.89,116.31,73.15,195.3,28.36
		c3.92,4.19,8.11,8.5,12.07,13.02c1.01,1.16,1.8,3,1.77,4.5c-0.2,9.27,3.11,17.2,9.39,25.13c-2.38,0.22-4.11,0.53-5.84,0.53
		c-109.67,0.02-219.34,0.06-329-0.02c-23.56-0.02-38.13-14.83-38.14-38.36c-0.02-119.56-0.01-239.12-0.01-358.68
		C10.67,143.53,10.67,141.61,10.67,138.96z M517.68,197.59c-5.81,0-11.61-0.08-17.42,0.02c-9.03,0.15-14.26,4.91-14.44,13.74
		c-0.25,12.04-0.23,24.09-0.01,36.13c0.16,8.69,5.06,13.63,13.69,13.79c12.25,0.22,24.52,0.22,36.77-0.01
		c8.08-0.15,13.17-4.81,13.4-12.69c0.37-12.68,0.36-25.38,0.01-38.06c-0.21-7.85-5.47-12.63-13.3-12.86
		C530.15,197.46,523.91,197.61,517.68,197.59z"/>
	
		<linearGradient id="SVGID_00000139275448910224539570000005091878605097787560_" gradientUnits="userSpaceOnUse" x1="120.2502" y1="-102.941" x2="707.576" y2="419.6658">
		<stop  offset="0" style="stop-color:#FFFFFF;stop-opacity:0.4"/>
		<stop  offset="0.0691" style="stop-color:#FFFFFF;stop-opacity:0.3435"/>
		<stop  offset="0.4892" style="stop-color:#FFFFFF;stop-opacity:0"/>
		<stop  offset="0.7527" style="stop-color:#FAFAFA;stop-opacity:0.1032"/>
		<stop  offset="1" style="stop-color:#EFEFEF;stop-opacity:0.2"/>
	</linearGradient>
	<path style="fill:url(#SVGID_00000139275448910224539570000005091878605097787560_);" d="M10.79,120.09
		c0-26.06-0.59-51.64,0.21-77.17c0.55-17.49,16.08-31.46,33.61-32.28c1.5-0.07,3.01-0.06,4.51-0.06
		c180.83,0,361.65-0.01,542.48,0.01c19.89,0,34.13,11,37.75,29.18c0.54,2.71,0.65,5.55,0.66,8.33c0.05,23.84,0.03,47.67,0.03,71.99
		C423.57,120.09,217.52,120.09,10.79,120.09z M91.22,65.52c-0.06-6.81-5.46-12.26-12.26-12.37c-7.04-0.11-12.81,5.58-12.76,12.56
		c0.06,7.03,5.83,12.5,12.96,12.3C86.05,77.83,91.27,72.41,91.22,65.52z M178.38,53.15c-6.74,0.1-12.28,5.67-12.33,12.38
		c-0.05,7.05,5.65,12.63,12.79,12.5c6.83-0.12,12.29-5.58,12.35-12.33C191.25,58.75,185.42,53.04,178.38,53.15z M116.27,65.35
		c-0.12,6.96,4.95,12.39,11.83,12.67c7.22,0.29,12.89-5,13.01-12.14c0.12-7.14-5.4-12.77-12.48-12.74
		C121.78,53.17,116.39,58.5,116.27,65.35z"/>
	
		<linearGradient id="SVGID_00000067219108120559639960000007911528913840922541_" gradientUnits="userSpaceOnUse" x1="-42.5572" y1="80.0284" x2="544.7686" y2="602.6351">
		<stop  offset="0" style="stop-color:#FFFFFF;stop-opacity:0.4"/>
		<stop  offset="0.0691" style="stop-color:#FFFFFF;stop-opacity:0.3435"/>
		<stop  offset="0.4892" style="stop-color:#FFFFFF;stop-opacity:0"/>
		<stop  offset="0.7527" style="stop-color:#FAFAFA;stop-opacity:0.1032"/>
		<stop  offset="1" style="stop-color:#EFEFEF;stop-opacity:0.2"/>
	</linearGradient>
	<path style="fill:url(#SVGID_00000067219108120559639960000007911528913840922541_);" d="M362.15,476.25
		c-66.85,47.91-149.82,28.31-191.58-26.98c-41.95-55.55-35.66-133.34,15-181.85c49.63-47.52,128.43-50,181.37-5.98
		c54.09,44.98,66.88,125.99,22.11,187.54c10.32,10.34,20.68,20.83,31.23,31.11c0.82,0.8,3.1,0.59,4.51,0.19
		c7.35-2.1,13.54-0.27,18.86,5.05c31.01,31.01,62.07,61.98,93.01,93.06c8.36,8.4,8.29,18.28,0.04,26.81
		c-6.13,6.33-12.35,12.58-18.7,18.69c-8.55,8.23-18.27,8.21-26.75-0.22c-30.92-30.8-61.72-61.72-92.64-92.52
		c-5.55-5.53-7.33-11.75-5.46-19.39c0.44-1.78-0.39-4.62-1.68-5.97C381.94,495.9,372.14,486.25,362.15,476.25z M280.48,267.9
		c-53.46-0.79-98.76,42.95-99.55,96.13c-0.84,56.1,42.37,100.79,98.1,101.46c53.38,0.64,98.49-43.17,99.34-96.46
		C379.25,313.51,335.89,268.72,280.48,267.9z"/>
</g>
</svg>
