<?xml version="1.0" encoding="UTF-8"?>
<svg id="Layer_1" data-name="Layer 1" xmlns="http://www.w3.org/2000/svg" version="1.1" viewBox="0 0 45 45">
  <defs>
    <style>
      .cls-1 {
        fill: #5e8e3e;
      }

      .cls-1, .cls-2, .cls-3 {
        stroke-width: 0px;
      }

      .cls-2 {
        fill: #95bf47;
      }

      .cls-3 {
        fill: #fff;
      }
    </style>
  </defs>
  <path class="cls-2" d="M36.8,9.28c-.03-.23-.23-.33-.38-.33s-3.47-.25-3.47-.25c0,0-2.31-2.31-2.59-2.54-.25-.25-.74-.18-.94-.13-.03,0-.51.15-1.29.41-.79-2.26-2.13-4.31-4.54-4.31h-.23c-.66-.86-1.52-1.27-2.23-1.27-5.58,0-8.26,6.97-9.1,10.52-2.18.68-3.73,1.14-3.9,1.22-1.22.38-1.24.41-1.39,1.55-.13.86-3.3,25.38-3.3,25.38l24.67,4.61,13.39-2.89c.03-.05-4.66-31.74-4.69-31.97ZM26.76,6.79c-.61.18-1.34.41-2.08.66v-.46c0-1.37-.18-2.48-.51-3.37,1.27.15,2.05,1.55,2.59,3.17h0ZM22.63,3.9c.33.86.56,2.08.56,3.75v.25c-1.37.43-2.81.86-4.31,1.34.84-3.19,2.43-4.77,3.75-5.35h0ZM21,2.33c.25,0,.51.1.71.25-1.8.84-3.7,2.94-4.49,7.2-1.19.38-2.33.71-3.42,1.06.91-3.25,3.19-8.52,7.2-8.52Z"/>
  <path class="cls-1" d="M36.42,8.9c-.15,0-3.47-.25-3.47-.25,0,0-2.31-2.31-2.59-2.54-.1-.1-.23-.15-.33-.15l-1.85,38.18,13.39-2.89s-4.69-31.74-4.72-31.97c-.1-.23-.28-.33-.43-.38Z"/>
  <path class="cls-3" d="M23.59,16.3l-1.62,4.89s-1.47-.79-3.22-.79c-2.61,0-2.74,1.65-2.74,2.05,0,2.23,5.83,3.09,5.83,8.34,0,4.13-2.61,6.79-6.14,6.79-4.26,0-6.39-2.64-6.39-2.64l1.14-3.75s2.23,1.93,4.11,1.93c1.24,0,1.75-.96,1.75-1.67,0-2.92-4.77-3.04-4.77-7.86,0-4.03,2.89-7.94,8.75-7.94,2.18-.03,3.3.63,3.3.63Z"/>
</svg>