<?xml version="1.0" encoding="utf-8"?>
<!-- Generator: Adobe Illustrator 26.2.1, SVG Export Plug-In . SVG Version: 6.00 Build 0)  -->
<svg version="1.1" id="report" xmlns="http://www.w3.org/2000/svg" xmlns:xlink="http://www.w3.org/1999/xlink" x="0px" y="0px"
	 viewBox="0 0 640.62 640.62" style="enable-background:new 0 0 640.62 640.62;" xml:space="preserve">
<style type="text/css">
	.st0{fill:#5800B2;}
	.st1{fill:#360061;}
	.st2{fill:url(#Path_6793_00000047020347720427202130000015508461625755365504_);}
	.st3{fill:url(#Ellipse_257_00000046297394092099731550000004415915258120276629_);}
	.st4{fill:url(#Path_6794_00000065782583710958067650000016206495414760267199_);}
</style>
<g>
	<g id="Group_5057" transform="translate(101.421 136.539)">
		<g id="Group_5056" transform="translate(0 0)">
			<path id="Path_6793" class="st0" d="M409.46,392.55c-5.82-7.25-14.67-8.08-21.91-2.28c-9.91,7.92-20.41,15.07-31.41,21.4
				c-3.39-11.29-4.85-26.38-7.58-38.57l0.23-69.71c0,0,37.84-5,48.77-6.65c11.63-1.08,13.41-11.32,10.94-18.51
				c-0.6-1.75-15.8-45.27-18.45-53.68c-2.6-8.25-9.61-13.15-18.62-10.62c-8.34,2.34-10.86,10.39-8.31,18.66
				c3.55,11.56,13,39.48,13,39.48l-33.16,4.47l-53.6-11.53c-13.66-14.49-22.44-30.64-25.63-54.01c-1.17-8.58-6.59-14.58-16.38-13.41
				c-8.58,1.03-13.6,9.06-12.43,17.64c4.81,35.27,20.68,65.11,44.97,84.95v69.01c-16.66,42.61-16.86,86.58,7.71,125.61
				c4.94,7.85,15.31,10.21,23.16,5.27c7.85-4.94,10.21-15.31,5.27-23.16l0,0c-13.61-21.61-19.92-47.84-13.11-78.37
				c1.09-4.92,5.54-8.35,10.57-8.18h0.01c4.73,0.17,8.75,3.5,9.8,8.11c2.99,13.06,4.47,25.79,6.73,33.74
				c4.43,15.53,19.93,18.29,29.79,13.1c20.05-10.54,32.57-18.1,47.02-29.17c7.23-5.69,8.48-16.16,2.78-23.39
				C409.56,392.68,409.51,392.62,409.46,392.55z"/>
			<circle id="Ellipse_257" class="st0" cx="320.96" cy="237.36" r="25.75"/>
		</g>
	</g>
	<path id="Path_6794" class="st1" d="M482.09,1.43c-0.43,0-0.86,0.02-1.29,0.06c-2.54,0.21-59.4,5.43-80.77,46.89l-77.16-7.84
		c-18.6-1.93-37.08,4.65-50.27,17.91L139.46,191.13c-24.2,24.31-24.19,63.6,0.02,87.9l102.11,102.2
		c11.76,11.8,27.73,18.43,44.39,18.42c16.33,0.05,32-6.41,43.56-17.95c6.03-6.12,5.95-15.96-0.17-21.99
		c-6.05-5.95-15.75-5.96-21.81-0.01c-12.27,12-31.95,11.8-43.97-0.45L161.47,257.05c-12.1-12.14-12.11-31.77-0.04-43.92
		L294.57,80.44c6.6-6.64,15.84-9.93,25.15-8.97L438.03,83.5l1.54,15.12c-13.7,4.99-28,8.13-42.53,9.34
		c-8.57,0.48-15.14,7.82-14.66,16.39c0.46,8.22,7.25,14.66,15.48,14.68c0.28,0,0.55,0,0.83-0.02c14.99-1.14,29.79-4.04,44.11-8.62
		l7.23,71.08c0.96,9.29-2.32,18.52-8.92,25.11l-75.85,74.74c-6.12,6.03-6.19,15.87-0.16,21.99s15.87,6.19,21.99,0.16l0,0
		l75.89-74.78l0.07-0.08c13.26-13.2,19.85-31.69,17.92-50.3l-8.25-81.03c9.91-5.67,18.81-12.95,26.32-21.56
		c13.46-15.71,20.28-34.7,20.26-56.45v-0.62C519.29,18.1,502.64,1.45,482.09,1.43z M488.21,39.28c0.01,17.38-6.28,31.48-19.1,42.63
		l-1.44-14.18c-0.75-7.34-6.55-13.15-13.9-13.9l-18.04-1.83c15.91-15.19,42.21-18.91,46.91-19.46c3.15,0.3,5.56,2.94,5.56,6.1V39.28
		z M362.21,229.22c-6.18,5.96-16.02,5.79-21.98-0.38c-5.81-6.02-5.82-15.57-0.01-21.59c1.3-1.29,2-3.07,1.92-4.91
		c-0.1-2.2-1.03-4.27-2.61-5.8L330,187c-2.36-2.42-5.57-3.82-8.95-3.89c-3.25-0.05-6.37,1.25-8.62,3.59l-2.45,2.46
		c-5.07,4.97-5.25,13.08-0.41,18.28l10.08,10.07c8.2,8.12,12.86,19.14,12.99,30.68c0.15,11.63-4.43,22.82-12.69,31.01l-1.15,1.15
		c-7.96,8.05-18.8,12.59-30.12,12.59c-9.58-0.03-18.89-3.22-26.48-9.06l-6.51,6.28c-6.11,6.03-15.95,5.97-21.99-0.14
		c-6.03-6.11-5.97-15.95,0.14-21.99c0.08-0.08,0.17-0.17,0.26-0.25l5.83-5.62c-6.51-6.98-10.24-16.1-10.47-25.65
		c-0.24-10.31,3.79-20.26,11.12-27.52c6.07-6.07,15.92-6.07,21.99,0s6.07,15.92,0,21.99l0,0c-1.33,1.26-2.07,3.03-2.02,4.86
		c0.09,2.09,0.99,4.07,2.51,5.52l16.37,16.38c5.13,5.13,12.6,5.39,17.38,0.61l1.15-1.15c2.33-2.29,3.62-5.43,3.59-8.7
		c-0.06-3.39-1.45-6.63-3.88-9l-10.08-10.08c-17.05-17.32-16.87-45.17,0.41-62.26l2.46-2.45c8.05-8.13,19.02-12.71,30.47-12.69h0.48
		c7.86,0.09,15.55,2.31,22.25,6.42l6.68-6.9c5.86-6.28,15.7-6.62,21.97-0.76s6.62,15.7,0.76,21.97c-0.13,0.14-0.26,0.28-0.4,0.41
		l-6.59,6.81c4.43,6.29,6.92,13.75,7.15,21.44C373.58,211.82,369.59,221.89,362.21,229.22z"/>
	<g id="Group_5057_00000098217813640612652430000004325398634677427335_" transform="translate(101.421 136.539)">
		<g id="Group_5056_00000015343928896676673950000001563732014006974388_" transform="translate(0 0)">
			
				<linearGradient id="Path_6793_00000031207660641030595570000002103726013445130922_" gradientUnits="userSpaceOnUse" x1="234.7528" y1="350.0484" x2="413.1863" y2="350.0484">
				<stop  offset="0" style="stop-color:#FFFFFF;stop-opacity:0.4"/>
				<stop  offset="0.0691" style="stop-color:#FFFFFF;stop-opacity:0.3435"/>
				<stop  offset="0.4892" style="stop-color:#FFFFFF;stop-opacity:0"/>
				<stop  offset="0.7527" style="stop-color:#FAFAFA;stop-opacity:0.1032"/>
				<stop  offset="1" style="stop-color:#EFEFEF;stop-opacity:0.2"/>
			</linearGradient>
			
				<path id="Path_6793_00000109727007469496366810000010865563426381139332_" style="fill:url(#Path_6793_00000031207660641030595570000002103726013445130922_);" d="
				M409.46,392.55c-5.82-7.25-14.67-8.08-21.91-2.28c-9.91,7.92-20.41,15.07-31.41,21.4c-3.39-11.29-4.85-26.38-7.58-38.57
				l0.23-69.71c0,0,37.84-5,48.77-6.65c11.63-1.08,13.41-11.32,10.94-18.51c-0.6-1.75-15.8-45.27-18.45-53.68
				c-2.6-8.25-9.61-13.15-18.62-10.62c-8.34,2.34-10.86,10.39-8.31,18.66c3.55,11.56,13,39.48,13,39.48l-33.16,4.47l-53.6-11.53
				c-13.66-14.49-22.44-30.64-25.63-54.01c-1.17-8.58-6.59-14.58-16.38-13.41c-8.58,1.03-13.6,9.06-12.43,17.64
				c4.81,35.27,20.68,65.11,44.97,84.95v69.01c-16.66,42.61-16.86,86.58,7.71,125.61c4.94,7.85,15.31,10.21,23.16,5.27
				c7.85-4.94,10.21-15.31,5.27-23.16l0,0c-13.61-21.61-19.92-47.84-13.11-78.37c1.09-4.92,5.54-8.35,10.57-8.18h0.01
				c4.73,0.17,8.75,3.5,9.8,8.11c2.99,13.06,4.47,25.79,6.73,33.74c4.43,15.53,19.93,18.29,29.79,13.1
				c20.05-10.54,32.57-18.1,47.02-29.17c7.23-5.69,8.48-16.16,2.78-23.39C409.56,392.68,409.51,392.62,409.46,392.55z"/>
			
				<linearGradient id="Ellipse_257_00000111887903677762850310000016324717833203759534_" gradientUnits="userSpaceOnUse" x1="295.2177" y1="237.363" x2="346.7112" y2="237.363">
				<stop  offset="0" style="stop-color:#FFFFFF;stop-opacity:0.4"/>
				<stop  offset="0.0691" style="stop-color:#FFFFFF;stop-opacity:0.3435"/>
				<stop  offset="0.4892" style="stop-color:#FFFFFF;stop-opacity:0"/>
				<stop  offset="0.7527" style="stop-color:#FAFAFA;stop-opacity:0.1032"/>
				<stop  offset="1" style="stop-color:#EFEFEF;stop-opacity:0.2"/>
			</linearGradient>
			
				<circle id="Ellipse_257_00000016058200283289035230000016643167032177455249_" style="fill:url(#Ellipse_257_00000111887903677762850310000016324717833203759534_);" cx="320.96" cy="237.36" r="25.75"/>
		</g>
	</g>
	
		<linearGradient id="Path_6794_00000168838071575815977600000000334552050595887037_" gradientUnits="userSpaceOnUse" x1="121.3131" y1="200.5389" x2="519.3082" y2="200.5389">
		<stop  offset="0" style="stop-color:#FFFFFF;stop-opacity:0.4"/>
		<stop  offset="0.0691" style="stop-color:#FFFFFF;stop-opacity:0.3435"/>
		<stop  offset="0.4892" style="stop-color:#FFFFFF;stop-opacity:0"/>
		<stop  offset="0.7527" style="stop-color:#FAFAFA;stop-opacity:0.1032"/>
		<stop  offset="1" style="stop-color:#EFEFEF;stop-opacity:0.2"/>
	</linearGradient>
	
		<path id="Path_6794_00000019656249989393725320000002454369221254006657_" style="fill:url(#Path_6794_00000168838071575815977600000000334552050595887037_);" d="
		M482.09,1.43c-0.43,0-0.86,0.02-1.29,0.06c-2.54,0.21-59.4,5.43-80.77,46.89l-77.16-7.84c-18.6-1.93-37.08,4.65-50.27,17.91
		L139.46,191.13c-24.2,24.31-24.19,63.6,0.02,87.9l102.11,102.2c11.76,11.8,27.73,18.43,44.39,18.42c16.33,0.05,32-6.41,43.56-17.95
		c6.03-6.12,5.95-15.96-0.17-21.99c-6.05-5.95-15.75-5.96-21.81-0.01c-12.27,12-31.95,11.8-43.97-0.45L161.47,257.05
		c-12.1-12.14-12.11-31.77-0.04-43.92L294.57,80.44c6.6-6.64,15.84-9.93,25.15-8.97L438.03,83.5l1.54,15.12
		c-13.7,4.99-28,8.13-42.53,9.34c-8.57,0.48-15.14,7.82-14.66,16.39c0.46,8.22,7.25,14.66,15.48,14.68c0.28,0,0.55,0,0.83-0.02
		c14.99-1.14,29.79-4.04,44.11-8.62l7.23,71.08c0.96,9.29-2.32,18.52-8.92,25.11l-75.85,74.74c-6.12,6.03-6.19,15.87-0.16,21.99
		s15.87,6.19,21.99,0.16l0,0l75.89-74.78l0.07-0.08c13.26-13.2,19.85-31.69,17.92-50.3l-8.25-81.03
		c9.91-5.67,18.81-12.95,26.32-21.56c13.46-15.71,20.28-34.7,20.26-56.45v-0.62C519.29,18.1,502.64,1.45,482.09,1.43z M488.21,39.28
		c0.01,17.38-6.28,31.48-19.1,42.63l-1.44-14.18c-0.75-7.34-6.55-13.15-13.9-13.9l-18.04-1.83c15.91-15.19,42.21-18.91,46.91-19.46
		c3.15,0.3,5.56,2.94,5.56,6.1V39.28z M362.21,229.22c-6.18,5.96-16.02,5.79-21.98-0.38c-5.81-6.02-5.82-15.57-0.01-21.59
		c1.3-1.29,2-3.07,1.92-4.91c-0.1-2.2-1.03-4.27-2.61-5.8L330,187c-2.36-2.42-5.57-3.82-8.95-3.89c-3.25-0.05-6.37,1.25-8.62,3.59
		l-2.45,2.46c-5.07,4.97-5.25,13.08-0.41,18.28l10.08,10.07c8.2,8.12,12.86,19.14,12.99,30.68c0.15,11.63-4.43,22.82-12.69,31.01
		l-1.15,1.15c-7.96,8.05-18.8,12.59-30.12,12.59c-9.58-0.03-18.89-3.22-26.48-9.06l-6.51,6.28c-6.11,6.03-15.95,5.97-21.99-0.14
		c-6.03-6.11-5.97-15.95,0.14-21.99c0.08-0.08,0.17-0.17,0.26-0.25l5.83-5.62c-6.51-6.98-10.24-16.1-10.47-25.65
		c-0.24-10.31,3.79-20.26,11.12-27.52c6.07-6.07,15.92-6.07,21.99,0s6.07,15.92,0,21.99l0,0c-1.33,1.26-2.07,3.03-2.02,4.86
		c0.09,2.09,0.99,4.07,2.51,5.52l16.37,16.38c5.13,5.13,12.6,5.39,17.38,0.61l1.15-1.15c2.33-2.29,3.62-5.43,3.59-8.7
		c-0.06-3.39-1.45-6.63-3.88-9l-10.08-10.08c-17.05-17.32-16.87-45.17,0.41-62.26l2.46-2.45c8.05-8.13,19.02-12.71,30.47-12.69h0.48
		c7.86,0.09,15.55,2.31,22.25,6.42l6.68-6.9c5.86-6.28,15.7-6.62,21.97-0.76s6.62,15.7,0.76,21.97c-0.13,0.14-0.26,0.28-0.4,0.41
		l-6.59,6.81c4.43,6.29,6.92,13.75,7.15,21.44C373.58,211.82,369.59,221.89,362.21,229.22z"/>
</g>
</svg>
