<?xml version="1.0" encoding="UTF-8"?>
<svg id="report" xmlns="http://www.w3.org/2000/svg" version="1.1" xmlns:xlink="http://www.w3.org/1999/xlink" viewBox="0 0 640.62 640.62">
  <defs>
    <style>
      .cls-1 {
        fill: #360061;
      }

      .cls-1, .cls-2, .cls-3, .cls-4, .cls-5, .cls-6, .cls-7 {
        stroke-width: 0px;
      }

      .cls-2 {
        fill: url(#linear-gradient);
      }

      .cls-3 {
        fill: url(#linear-gradient-5);
      }

      .cls-4 {
        fill: #5800b2;
      }

      .cls-5 {
        fill: url(#linear-gradient-2);
      }

      .cls-6 {
        fill: url(#linear-gradient-3);
      }

      .cls-7 {
        fill: url(#linear-gradient-4);
      }
    </style>
    <linearGradient id="linear-gradient" x1="53.39" y1="22.54" x2="526.09" y2="550.02" gradientUnits="userSpaceOnUse">
      <stop offset="0" stop-color="#fff" stop-opacity=".4"/>
      <stop offset=".07" stop-color="#fff" stop-opacity=".34"/>
      <stop offset=".49" stop-color="#fff" stop-opacity="0"/>
      <stop offset=".75" stop-color="#fafafa" stop-opacity=".1"/>
      <stop offset="1" stop-color="#efefef" stop-opacity=".2"/>
    </linearGradient>
    <linearGradient id="linear-gradient-2" x1="-33.19" y1="100.13" x2="439.51" y2="627.6" xlink:href="#linear-gradient"/>
    <linearGradient id="linear-gradient-3" x1="193.83" y1="-103.32" x2="666.53" y2="424.16" xlink:href="#linear-gradient"/>
    <linearGradient id="linear-gradient-4" x1="78.51" y1=".03" x2="551.21" y2="527.51" xlink:href="#linear-gradient"/>
    <linearGradient id="linear-gradient-5" x1="79.67" y1="-1.01" x2="552.36" y2="526.47" xlink:href="#linear-gradient"/>
  </defs>
  <g>
    <path class="cls-1" d="M439.49,600.01h-237.72c-.81-.33-1.6-.8-2.44-.97-24.76-5.21-42.21-19.79-46.59-44.58-3.41-19.28-1.78-39.49-1.83-59.29,0-1.86,3.72-4.27,6.19-5.43,1.74-.83,4.27-.02,6.45.12,62.14,4.03,118.79-31.67,142.53-89.53,1.39-3.39,4.31-6.79,7.43-8.71,17.82-11.01,33.51-24.37,46.35-40.95,8.52-11.01,10.3-23.23,4.34-35.88-5.93-12.6-16.29-18.89-30.26-19.8-7.56-.49-15.06-2.01-22.59-3.11-4.76-.69-7.35-3.6-9.45-7.93-13.15-27.15-32.91-48.23-59.23-62.93-25.43-14.2-52.74-20.05-81.81-17.7-7.87.64-10.29-1.39-10.3-8.16-.04-32.23-.27-64.46.11-96.68.23-18.96,8.48-34.26,23.43-45.98,8.21-6.44,17.88-9.3,27.69-11.89,79.24,0,158.48,0,237.72,0,.82.32,1.62.79,2.47.95,26.63,4.99,45.57,25.52,48.47,52.56.67,6.25-1.2,8.68-7.29,9.87-4.45.87-8.93,1.69-13.26,2.98-51.91,15.55-84.56,63.99-79.11,118,.67,6.62-1.31,10.84-5.97,14.59-2.26,1.82-4.54,3.63-6.88,5.35-9.73,7.14-13.6,16.87-11.9,28.62,1.78,12.38,8.45,21.08,20.69,24.89,14.87,4.63,30.08,6.63,45.67,6.17,2.55-.07,5.51.64,7.64,2,13.2,8.42,27.47,13.92,42.85,16.66,6.64,1.18,7.86,2.74,7.88,9.42.03,14.2-.14,28.41.08,42.61.08,5.49-2.11,8.21-7.41,9.6-21.44,5.63-39.06,17.29-52.58,34.9-2.62,3.41-5.53,5.01-9.72,4.6-2.53-.25-5.09-.21-7.61-.54-12.13-1.6-21.93,2.47-28.74,12.59-6.85,10.18-7.22,21.32-.45,31.34,7.18,10.62,15.9,20.19,23.84,30.3,1.85,2.36,3.97,4.88,4.73,7.66,8.23,30.41,26.35,52.6,54.44,66.67,8.03,4.02,8.45,8.5,1.57,14.33-8.56,7.26-18.8,10.62-29.4,13.26ZM396.23,53.97h-151.19c5.05,8.74,9.22,17.22,14.58,24.85,4.72,6.71,12.16,9.77,20.39,9.81,27.07.12,54.15.13,81.22,0,8.42-.04,15.96-3.23,20.75-10.21,5.19-7.55,9.3-15.84,14.25-24.45ZM321.19,530.09c-14.71,0-29.42-.02-44.13.01-5.72.01-8.98,2.44-8.66,6.66.38,5.07,3.79,6.47,8.36,6.46,29.24-.05,58.48-.05,87.72,0,4.57,0,7.99-1.37,8.39-6.43.34-4.22-2.92-6.67-8.63-6.69-14.35-.04-28.7-.01-43.05-.01Z"/>
    <path class="cls-4" d="M42.14,346.74c.48-67.63,54.42-125.55,121.85-130.45,54.51-3.96,106,27.08,128.03,77.5,2.11,4.83,4.92,7.99,9.93,8.95,9.94,1.91,19.87,4.32,29.91,5.2,9.35.82,16.57,3.93,20.57,12.62,4.04,8.77,1.7,16.54-4.18,23.76-12.67,15.56-27.67,28.33-45.3,37.86-3.97,2.15-6.17,4.95-7.65,9.21-18.97,54.52-77.02,91.43-134.18,85.52-58.9-6.09-107.07-51.11-117.01-109.56-1.15-6.79-1.33-13.74-1.96-20.62ZM200.74,311.61c1.65-6.58,3.27-12.87,4.79-19.17,2.56-10.62-.96-19.42-8.69-26.54-5.09-4.69-10.58-3.69-14.18,2.15-1.51,2.46-2.56,5.2-3.76,7.85-6.44,14.2-11.88,28.95-22.77,40.67-.85.91-1.19,2.61-1.19,3.94-.07,24.19-.08,48.38.03,72.57,0,1.35.81,3.49,1.81,3.9,5.97,2.46,11.98,5.76,18.22,6.43,9.68,1.04,19.59.64,29.36.05,16.69-1.02,31.28-13.63,34.34-30.08,1.38-7.42,1.25-15.19,1.14-22.79-.24-17.69-12-32.48-29.11-37.06-3.1-.83-6.31-1.23-9.99-1.92ZM141.8,358.21c0-13.46-.14-26.92.09-40.37.06-3.83-1.46-5.41-4.93-5.45-6.89-.08-13.8-.35-20.67.08-6.61.41-11.41,5.54-11.46,12.34-.18,22.19-.18,44.37.01,66.56.06,6.55,4.64,11.62,11.07,12.12,7.03.54,14.12.21,21.19.13,3.54-.04,4.84-1.86,4.78-5.58-.22-13.27-.09-26.55-.09-39.83Z"/>
    <path class="cls-4" d="M496.74,311.62c-15.76-.22-34.49-6.03-51.62-17.48-2.88-1.93-6.99-3.16-10.42-2.93-14.52.95-28.63-.68-42.53-4.81-7.29-2.16-12.05-6.75-13.3-14.31-1.19-7.15,1.96-12.56,7.43-17.09,5.02-4.16,9.68-8.76,14.43-13.24,3.88-3.66,4.53-7.92,3.76-13.31-4.75-33.44,4.49-62.85,29.14-85.8,29.53-27.49,64.73-33.89,102.23-19.92,36.56,13.62,57.16,41.4,61.91,80.12,6.98,56.82-39.13,108.55-101.04,108.77ZM501.68,185.41c-1.17-1.09-1.93-1.84-2.75-2.54-7.65-6.57-16.32-8.69-25.85-5.15-9.44,3.51-15.41,10.49-16.46,20.56-.57,5.49-.26,11.39,1.13,16.71,5.64,21.48,21.65,33.78,40.23,43.23,2.5,1.27,7.3.65,9.7-1.02,9.04-6.3,18.2-12.7,26.04-20.38,9.43-9.23,13.68-21.32,13.47-34.66-.21-13.14-8.99-23.64-21.59-25.72-9.34-1.54-17.08,1.93-23.92,8.97Z"/>
    <path class="cls-4" d="M510.2,569.61c-38.87.03-76.38-30.07-84.81-68.36-1.11-5.02-3.58-8.43-7.07-12.15-8.03-8.55-15.32-17.86-22.39-27.24-4.3-5.71-4.46-12.28-.25-18.36,4.03-5.81,9.75-7.76,16.69-6.61,2.67.44,5.43.36,8.15.58,8.81.73,15.14-1.63,21.03-9.61,21.03-28.49,58.46-39.93,92.59-29.75,34.42,10.27,59.32,40.36,62.55,75.6,4.76,51.87-34.91,95.84-86.49,95.89ZM492.66,473.26c-1.67,6.27-3.11,11.67-4.67,17.53-4.31,0-8.47-.19-12.6.05-4.02.23-6.45,2.64-6.33,6.72.11,3.8,2.53,5.96,6.29,6.23,2.85.2,5.74.04,9.05.04-.99,3.92-1.66,7.3-2.7,10.55-1.44,4.48-.69,8.01,3.96,9.79,3.84,1.47,7.1-1.1,8.67-6.56,1.05-3.66,1.82-7.42,3.12-10.99.42-1.15,2.06-2.55,3.23-2.62,4.64-.3,9.31-.12,13.9-.12.12.93.27,1.32.19,1.65-.68,2.82-1.44,5.63-2.12,8.45-1.37,5.64.06,9.03,4.24,10.15,3.99,1.06,6.98-1.36,8.54-7,1.2-4.34,2.33-8.71,3.54-13.25,5.27,0,10.16-.01,15.05,0,4.45.01,7.64-1.85,7.65-6.55,0-4.7-3.18-6.58-7.63-6.56-3.7.02-7.39,0-11.57,0,1.67-6.27,3.11-11.67,4.67-17.52,4.32,0,8.47.19,12.6-.06,4.02-.24,6.45-2.66,6.31-6.74-.12-3.79-2.54-5.95-6.31-6.21-2.85-.19-5.72-.04-9.03-.04,1-3.94,1.67-7.31,2.71-10.57,1.43-4.48.68-8.01-3.98-9.79-3.84-1.46-7.09,1.11-8.65,6.58-1.05,3.67-1.82,7.42-3.12,11-.42,1.15-2.07,2.54-3.23,2.62-4.64.3-9.31.12-14.52.12.97-3.82,1.8-6.95,2.57-10.1,1.37-5.63-.08-9.04-4.25-10.15-3.99-1.06-6.97,1.36-8.54,7.01-1.2,4.34-2.33,8.71-3.55,13.25-5.45,0-10.52-.05-15.59.01-4.26.05-7.11,2.14-7.12,6.52,0,4.38,2.84,6.46,7.09,6.54,3.79.07,7.59.01,12.12.01Z"/>
    <path class="cls-4" d="M523.39,473.57c-1.52,5.72-2.99,11.28-4.51,16.97h-17.15c1.49-5.72,2.92-11.22,4.42-16.97h17.23Z"/>
  </g>
  <g>
    <path class="cls-2" d="M439.49,600.01h-237.72c-.81-.33-1.6-.8-2.44-.97-24.76-5.21-42.21-19.79-46.59-44.58-3.41-19.28-1.78-39.49-1.83-59.29,0-1.86,3.72-4.27,6.19-5.43,1.74-.83,4.27-.02,6.45.12,62.14,4.03,118.79-31.67,142.53-89.53,1.39-3.39,4.31-6.79,7.43-8.71,17.82-11.01,33.51-24.37,46.35-40.95,8.52-11.01,10.3-23.23,4.34-35.88-5.93-12.6-16.29-18.89-30.26-19.8-7.56-.49-15.06-2.01-22.59-3.11-4.76-.69-7.35-3.6-9.45-7.93-13.15-27.15-32.91-48.23-59.23-62.93-25.43-14.2-52.74-20.05-81.81-17.7-7.87.64-10.29-1.39-10.3-8.16-.04-32.23-.27-64.46.11-96.68.23-18.96,8.48-34.26,23.43-45.98,8.21-6.44,17.88-9.3,27.69-11.89,79.24,0,158.48,0,237.72,0,.82.32,1.62.79,2.47.95,26.63,4.99,45.57,25.52,48.47,52.56.67,6.25-1.2,8.68-7.29,9.87-4.45.87-8.93,1.69-13.26,2.98-51.91,15.55-84.56,63.99-79.11,118,.67,6.62-1.31,10.84-5.97,14.59-2.26,1.82-4.54,3.63-6.88,5.35-9.73,7.14-13.6,16.87-11.9,28.62,1.78,12.38,8.45,21.08,20.69,24.89,14.87,4.63,30.08,6.63,45.67,6.17,2.55-.07,5.51.64,7.64,2,13.2,8.42,27.47,13.92,42.85,16.66,6.64,1.18,7.86,2.74,7.88,9.42.03,14.2-.14,28.41.08,42.61.08,5.49-2.11,8.21-7.41,9.6-21.44,5.63-39.06,17.29-52.58,34.9-2.62,3.41-5.53,5.01-9.72,4.6-2.53-.25-5.09-.21-7.61-.54-12.13-1.6-21.93,2.47-28.74,12.59-6.85,10.18-7.22,21.32-.45,31.34,7.18,10.62,15.9,20.19,23.84,30.3,1.85,2.36,3.97,4.88,4.73,7.66,8.23,30.41,26.35,52.6,54.44,66.67,8.03,4.02,8.45,8.5,1.57,14.33-8.56,7.26-18.8,10.62-29.4,13.26ZM396.23,53.97h-151.19c5.05,8.74,9.22,17.22,14.58,24.85,4.72,6.71,12.16,9.77,20.39,9.81,27.07.12,54.15.13,81.22,0,8.42-.04,15.96-3.23,20.75-10.21,5.19-7.55,9.3-15.84,14.25-24.45ZM321.19,530.09c-14.71,0-29.42-.02-44.13.01-5.72.01-8.98,2.44-8.66,6.66.38,5.07,3.79,6.47,8.36,6.46,29.24-.05,58.48-.05,87.72,0,4.57,0,7.99-1.37,8.39-6.43.34-4.22-2.92-6.67-8.63-6.69-14.35-.04-28.7-.01-43.05-.01Z"/>
    <path class="cls-5" d="M42.14,346.74c.48-67.63,54.42-125.55,121.85-130.45,54.51-3.96,106,27.08,128.03,77.5,2.11,4.83,4.92,7.99,9.93,8.95,9.94,1.91,19.87,4.32,29.91,5.2,9.35.82,16.57,3.93,20.57,12.62,4.04,8.77,1.7,16.54-4.18,23.76-12.67,15.56-27.67,28.33-45.3,37.86-3.97,2.15-6.17,4.95-7.65,9.21-18.97,54.52-77.02,91.43-134.18,85.52-58.9-6.09-107.07-51.11-117.01-109.56-1.15-6.79-1.33-13.74-1.96-20.62ZM200.74,311.61c1.65-6.58,3.27-12.87,4.79-19.17,2.56-10.62-.96-19.42-8.69-26.54-5.09-4.69-10.58-3.69-14.18,2.15-1.51,2.46-2.56,5.2-3.76,7.85-6.44,14.2-11.88,28.95-22.77,40.67-.85.91-1.19,2.61-1.19,3.94-.07,24.19-.08,48.38.03,72.57,0,1.35.81,3.49,1.81,3.9,5.97,2.46,11.98,5.76,18.22,6.43,9.68,1.04,19.59.64,29.36.05,16.69-1.02,31.28-13.63,34.34-30.08,1.38-7.42,1.25-15.19,1.14-22.79-.24-17.69-12-32.48-29.11-37.06-3.1-.83-6.31-1.23-9.99-1.92ZM141.8,358.21c0-13.46-.14-26.92.09-40.37.06-3.83-1.46-5.41-4.93-5.45-6.89-.08-13.8-.35-20.67.08-6.61.41-11.41,5.54-11.46,12.34-.18,22.19-.18,44.37.01,66.56.06,6.55,4.64,11.62,11.07,12.12,7.03.54,14.12.21,21.19.13,3.54-.04,4.84-1.86,4.78-5.58-.22-13.27-.09-26.55-.09-39.83Z"/>
    <path class="cls-6" d="M496.74,311.62c-15.76-.22-34.49-6.03-51.62-17.48-2.88-1.93-6.99-3.16-10.42-2.93-14.52.95-28.63-.68-42.53-4.81-7.29-2.16-12.05-6.75-13.3-14.31-1.19-7.15,1.96-12.56,7.43-17.09,5.02-4.16,9.68-8.76,14.43-13.24,3.88-3.66,4.53-7.92,3.76-13.31-4.75-33.44,4.49-62.85,29.14-85.8,29.53-27.49,64.73-33.89,102.23-19.92,36.56,13.62,57.16,41.4,61.91,80.12,6.98,56.82-39.13,108.55-101.04,108.77ZM501.68,185.41c-1.17-1.09-1.93-1.84-2.75-2.54-7.65-6.57-16.32-8.69-25.85-5.15-9.44,3.51-15.41,10.49-16.46,20.56-.57,5.49-.26,11.39,1.13,16.71,5.64,21.48,21.65,33.78,40.23,43.23,2.5,1.27,7.3.65,9.7-1.02,9.04-6.3,18.2-12.7,26.04-20.38,9.43-9.23,13.68-21.32,13.47-34.66-.21-13.14-8.99-23.64-21.59-25.72-9.34-1.54-17.08,1.93-23.92,8.97Z"/>
    <path class="cls-7" d="M510.2,569.61c-38.87.03-76.38-30.07-84.81-68.36-1.11-5.02-3.58-8.43-7.07-12.15-8.03-8.55-15.32-17.86-22.39-27.24-4.3-5.71-4.46-12.28-.25-18.36,4.03-5.81,9.75-7.76,16.69-6.61,2.67.44,5.43.36,8.15.58,8.81.73,15.14-1.63,21.03-9.61,21.03-28.49,58.46-39.93,92.59-29.75,34.42,10.27,59.32,40.36,62.55,75.6,4.76,51.87-34.91,95.84-86.49,95.89ZM492.66,473.26c-1.67,6.27-3.11,11.67-4.67,17.53-4.31,0-8.47-.19-12.6.05-4.02.23-6.45,2.64-6.33,6.72.11,3.8,2.53,5.96,6.29,6.23,2.85.2,5.74.04,9.05.04-.99,3.92-1.66,7.3-2.7,10.55-1.44,4.48-.69,8.01,3.96,9.79,3.84,1.47,7.1-1.1,8.67-6.56,1.05-3.66,1.82-7.42,3.12-10.99.42-1.15,2.06-2.55,3.23-2.62,4.64-.3,9.31-.12,13.9-.12.12.93.27,1.32.19,1.65-.68,2.82-1.44,5.63-2.12,8.45-1.37,5.64.06,9.03,4.24,10.15,3.99,1.06,6.98-1.36,8.54-7,1.2-4.34,2.33-8.71,3.54-13.25,5.27,0,10.16-.01,15.05,0,4.45.01,7.64-1.85,7.65-6.55,0-4.7-3.18-6.58-7.63-6.56-3.7.02-7.39,0-11.57,0,1.67-6.27,3.11-11.67,4.67-17.52,4.32,0,8.47.19,12.6-.06,4.02-.24,6.45-2.66,6.31-6.74-.12-3.79-2.54-5.95-6.31-6.21-2.85-.19-5.72-.04-9.03-.04,1-3.94,1.67-7.31,2.71-10.57,1.43-4.48.68-8.01-3.98-9.79-3.84-1.46-7.09,1.11-8.65,6.58-1.05,3.67-1.82,7.42-3.12,11-.42,1.15-2.07,2.54-3.23,2.62-4.64.3-9.31.12-14.52.12.97-3.82,1.8-6.95,2.57-10.1,1.37-5.63-.08-9.04-4.25-10.15-3.99-1.06-6.97,1.36-8.54,7.01-1.2,4.34-2.33,8.71-3.55,13.25-5.45,0-10.52-.05-15.59.01-4.26.05-7.11,2.14-7.12,6.52,0,4.38,2.84,6.46,7.09,6.54,3.79.07,7.59.01,12.12.01Z"/>
    <path class="cls-3" d="M523.39,473.57c-1.52,5.72-2.99,11.28-4.51,16.97h-17.15c1.49-5.72,2.92-11.22,4.42-16.97h17.23Z"/>
  </g>
</svg>