<?xml version="1.0" encoding="UTF-8"?>
<svg id="report" xmlns="http://www.w3.org/2000/svg" version="1.1" xmlns:xlink="http://www.w3.org/1999/xlink" viewBox="0 0 640.62 640.62">
  <defs>
    <style>
      .cls-1 {
        fill: #360061;
      }

      .cls-1, .cls-2, .cls-3, .cls-4, .cls-5, .cls-6, .cls-7, .cls-8, .cls-9, .cls-10, .cls-11 {
        stroke-width: 0px;
      }

      .cls-2 {
        fill: url(#linear-gradient);
      }

      .cls-3 {
        fill: url(#linear-gradient-6);
      }

      .cls-4 {
        fill: url(#linear-gradient-5);
      }

      .cls-5 {
        fill: #5800b2;
      }

      .cls-6 {
        fill: url(#linear-gradient-2);
      }

      .cls-7 {
        fill: url(#linear-gradient-7);
      }

      .cls-8 {
        fill: url(#linear-gradient-3);
      }

      .cls-9 {
        fill: url(#linear-gradient-9);
      }

      .cls-10 {
        fill: url(#linear-gradient-8);
      }

      .cls-11 {
        fill: url(#linear-gradient-4);
      }
    </style>
    <linearGradient id="linear-gradient" x1="87.35" y1="613.03" x2="519.35" y2="26.03" gradientTransform="translate(0 642) scale(1 -1)" gradientUnits="userSpaceOnUse">
      <stop offset="0" stop-color="#fff" stop-opacity=".4"/>
      <stop offset="0" stop-color="#fff" stop-opacity=".3"/>
      <stop offset=".5" stop-color="#fff" stop-opacity="0"/>
      <stop offset=".8" stop-color="#fafafa" stop-opacity=".1"/>
      <stop offset="1" stop-color="#efefef" stop-opacity=".2"/>
    </linearGradient>
    <linearGradient id="linear-gradient-2" x1="-69.33" y1="497.68" x2="362.67" y2="-89.22" xlink:href="#linear-gradient"/>
    <linearGradient id="linear-gradient-3" x1="144.78" y1="655.29" x2="576.78" y2="68.39" xlink:href="#linear-gradient"/>
    <linearGradient id="linear-gradient-4" x1="-34.13" y1="523.68" x2="397.87" y2="-63.32" xlink:href="#linear-gradient"/>
    <linearGradient id="linear-gradient-5" x1="184.76" y1="684.7" x2="616.76" y2="97.7" xlink:href="#linear-gradient"/>
    <linearGradient id="linear-gradient-6" x1="18.19" y1="562.09" x2="450.19" y2="-24.81" xlink:href="#linear-gradient"/>
    <linearGradient id="linear-gradient-7" x1="-17.08" y1="536.14" x2="414.92" y2="-50.76" xlink:href="#linear-gradient"/>
    <linearGradient id="linear-gradient-8" x1="197.05" y1="693.76" x2="629.05" y2="106.76" xlink:href="#linear-gradient"/>
    <linearGradient id="linear-gradient-9" x1="237.11" y1="723.21" x2="669.11" y2="136.31" xlink:href="#linear-gradient"/>
  </defs>
  <g>
    <path class="cls-5" d="M19.3,518.8v-11.8c.3-.7.7-1.4.9-2.1,5.4-19.1,18.5-30.5,36.9-31.9,16.4-1.2,34.1,9.2,40.2,26.8.5,1.5,3.4,3.1,5.1,3.1,14.3.3,28.7,0,43,.2,4,0,5.4-1.2,5.9-5.2,1.4-13.2,5.6-25.7,12-37.3,38.4-68.9,129.5-78.4,181.3-18.8,4.4,5.1,8.2,10.8,12.4,16.4,12.3-9.2,24.3-18.4,36.6-27.3,3.2-2.3,3.5-4.3,2.5-7.8-13.5-46,3.3-94.4,42.9-121.2,11.2-7.6,24.1-12.5,36.7-18.9-2.3-4.3-5.1-9.8-8.2-15.3-11.5-20.2-23-40.4-34.5-60.7-.9-1.6-1.3-3.7-1.4-5.6-.2-3.3,0-6.7-.1-10-.8-15.7-11.8-29.1-26.5-29.7-22.5-.9-45.1-.8-67.7,0-13.6.5-24.9,12.6-25.9,26.2-.7,9.4-.4,18.8-.6,28.2,0,2-.2,4-.4,6.6-13.3-8.7-24-18.6-31.2-31.3-7.1-12.4-12.3-25.8-18.4-39-13.7,11.7-28.1,24.1-42.6,36.4-.9.8-2.1,1.2-3,1.7,1,1.7,1.4,2.4,1.8,3,13.4,17.4,21,37,22.9,58.9.2,2.3,2,5.1,3.9,6.6,16,12.7,32.2,25.1,48.2,37.8,3,2.4,5,2.8,8.6.6,24.8-15,57.2,1.3,60.1,30.1,1.7,16.5-6.5,31.7-21.1,39.6-13.9,7.5-31.4,5.9-43.6-4-13.1-10.6-18.2-26.6-13.4-42.8,1-3.4.6-5.3-2.3-7.4-7.1-5.2-14-10.8-20.9-16.2-6.7-5.3-13.5-10.5-20.7-16.2-6.5,31.1-21.9,55.2-48.5,73.2,0-11.7.2-22.1,0-32.4-.4-15.4-11.7-28.5-27-29.1-22.1-.9-44.3-.9-66.5,0-15.1.6-26.2,13.4-26.8,28.6-.4,9.2-.1,18.5-.2,27.7,0,1.4-.3,2.9-.5,5-20.4-13.8-34.9-31.5-42.7-54.1-3.3-9.5-4.8-19.7-7.1-29.5v-20c.4-.9.9-1.7,1-2.6,7.8-51.1,44-87.5,95.1-95.2,3.6-.5,4.4-2.1,4.4-5.4-.1-13.9-.2-27.9,0-41.8,0-4-.9-6-5-7.7-27.4-11.1-33.8-47.4-11.9-66.4,12.9-11.2,27.7-14,43.3-7,15.8,7.1,24.1,20.1,23.7,37.4-.4,17.6-9.7,29.9-26,36.4-3.1,1.2-4.1,2.8-4,6,.2,14.3.2,28.7,0,43,0,3.9,1.5,4.8,5,5.5,7.7,1.5,15.6,2.6,22.7,5.7,11.8,5.1,22.9,11.7,35,17.9,15.6-13.4,32.1-28,49.2-41.8,6.4-5.2,9.3-10.8,10.3-19,8.3-65.1,74.5-109.2,137.4-91,42.8,12.4,69.5,40.9,79.7,84.5.9,3.8,2.6,6,6.1,7.7,22.1,10.5,44.2,21.2,66.2,32,3.6,1.8,6.1,1.6,9.5-.7,17.5-11.8,41.1-7.2,53.9,10.1,12.5,16.9,9.3,41-7.2,54.5-16.4,13.4-40.7,11.7-54.8-3.9-10.6-11.9-12.9-25.6-8.3-41.1-21-10.1-41.8-20.2-63.1-30.4-1.8,24.1-9.6,44.9-24,63.2-1,1.3-1.2,4.1-.5,5.5,12.9,24.4,26,48.8,39.3,73.1.9,1.6,3.4,2.9,5.3,3.2,6.8.9,13.7.8,20.5,2,79.6,15,116.5,106.4,69.7,172.7-7.7,10.9-17.1,20.3-29.4,27.9v-29c-.2-18.9-11.1-31.7-29.9-32.7-20.4-1-40.9-1-61.2,0-18.6,1-29.3,13.6-29.6,32.3-.2,8,0,16.1,0,24.2,0,1.4-.3,2.9-.5,4.8-15.3-9.6-26-22.7-35.3-37.2-12.8,9.6-25.1,18.7-37.2,28.1-1.4,1.1-2.2,4.2-1.9,6.2,1.3,10.3,3.4,20.5,4.5,30.8.4,3.7,1.4,5.4,4.7,7,21.8,10.4,43.5,20.8,65.1,31.5,3.6,1.8,6,1.7,9.5-.7,15.1-10.3,34.9-8.4,48.8,4.3,13,11.8,16.3,31.7,8.2,47.5-6.3,12.3-16.9,18.6-29.7,21.9h-11.8c-8.9-2.6-17.4-6-23.7-13.2-10.4-12-12.9-25.6-8.1-40.9-21.9-10.6-43.6-21.1-65.7-31.7-7.4,28.2-22.3,50.8-47.4,67.6v-27.9c0-21.6-12.3-34.1-33.8-34.2h-53c-3.3,0-6.7,0-9.9.9-14.8,3.5-23.5,14.9-23.8,30.9-.2,9.7,0,19.5,0,30.1-2.2-1.4-3.6-2.1-4.8-3-24.8-18.5-39.6-43.1-44.1-73.7-.6-4.3-2.1-5.5-6.2-5.4-13.7.2-27.5.2-41.2,0-4,0-6.1.9-7.7,5-9,22.5-35.1,31.5-56.3,19.9-11.7-6.4-17.6-16.9-20.8-29.3l-.4.5ZM129.7,271.6c22.1.1,40.2-17.8,40.4-39.8.1-21.9-18-40.2-40-40.4-21.9-.2-40.1,18-40.2,40-.1,22.2,17.6,40.1,39.8,40.2h0ZM220.6,482.8c0,22,17.6,40,39.7,40.4,21.8.4,40.6-18.3,40.5-40.3-.1-21.9-18.3-40-40.2-40s-40,17.9-40.1,40l.1-.1ZM502.1,402.3c22-.1,40.1-18.3,40-40.1,0-21.8-18.3-40-40.2-40.1-22.1,0-40.5,18.5-40.2,40.6.4,22.2,18.3,39.8,40.3,39.7l.1-.1ZM371.3,140.9c22,0,40.1-18.1,40.1-40s-18.2-40.1-40-40.3c-22-.2-40.5,18.4-40.3,40.5s18.1,39.9,40.2,39.8h0Z"/>
    <path class="cls-1" d="M249,623.7c-8.1-2.1-16.2-4.2-24.3-6.1-3.1-.8-4.4-2.4-4.3-5.8.2-12.2,0-24.3.1-36.5,0-7.7,3.9-11.7,11.6-11.7,19-.2,38.1-.2,57.1,0,7.5,0,11.5,4.3,11.5,11.9.1,12.2,0,24.3.1,36.5,0,3.1-1,4.7-3.9,5.4-8.5,2.1-17,4.2-25.6,6.3h-22.4.1Z"/>
    <path class="cls-1" d="M502.3,442.7c8.6,0,17.3-.1,25.9,0,10.1.2,13.9,4,14,13.9,0,11.4-.1,22.7,0,34.1,0,3.6-1.1,5.1-4.5,6.2-23.9,8-47.6,8-71.5.1-3.7-1.2-4.8-2.9-4.7-6.7.2-11.2,0-22.3,0-33.5,0-10.4,3.7-14,14.3-14.2,8.8-.1,17.6,0,26.5,0v.1Z"/>
    <path class="cls-1" d="M130,312c8.8,0,17.7-.1,26.5,0,9.8.2,13.5,4,13.5,13.6v34.2c0,3.3-.7,5.2-4.3,6.4-23.9,8-47.7,8.1-71.6.1-3.3-1.1-4.6-2.6-4.6-6.2.2-11.8,0-23.6.1-35.3,0-8.7,3.7-12.5,12.5-12.7,9.2-.3,18.5,0,27.7,0l.2-.1Z"/>
    <path class="cls-1" d="M371.3,181.4c9,0,18-.1,27,0,9.3.2,13,4.1,13.1,13.5,0,11.6-.1,23.1,0,34.7,0,3.3-1,4.8-4.2,5.9-24,8.2-48,8.2-72,.2-3.5-1.2-4.5-2.9-4.4-6.3.2-11.6,0-23.1,0-34.7,0-9.4,3.7-13,13.3-13.2,9-.2,18,0,27,0l.2-.1Z"/>
    <path class="cls-1" d="M109.9,230.9c.3-10.8,9.6-19.7,20.3-19.4,11.1.3,20.1,9.8,19.7,20.8-.4,11.2-9.7,19.6-21,19.2-10.9-.4-19.3-9.5-19-20.6Z"/>
    <path class="cls-1" d="M240.6,482.9c0-11,8.8-19.8,19.7-19.9,11.1-.1,20.4,9,20.3,20.1,0,10.8-9,19.8-19.9,19.9-11.1.2-20.2-8.9-20.2-20.1h.1Z"/>
    <path class="cls-1" d="M501.7,382.3c-11,0-19.7-8.8-19.8-19.8,0-11.2,9-20.3,20.1-20.2,10.8.1,19.8,9.1,19.9,20,0,11.1-9,20.1-20.2,20.1v-.1Z"/>
    <path class="cls-1" d="M371.4,120.8c-11.4.1-20.2-8.7-20.2-20s8.8-19.9,19.7-20.1c10.9-.2,20.4,9.3,20.4,20.2s-9,19.8-19.9,19.9Z"/>
  </g>
  <g>
    <path class="cls-2" d="M19.3,518.8v-11.8c.3-.7.7-1.4.9-2.1,5.4-19.1,18.5-30.5,36.9-31.9,16.4-1.2,34.1,9.2,40.2,26.8.5,1.5,3.4,3.1,5.1,3.1,14.3.3,28.7,0,43,.2,4,0,5.4-1.2,5.9-5.2,1.4-13.2,5.6-25.7,12-37.3,38.4-68.9,129.5-78.4,181.3-18.8,4.4,5.1,8.2,10.8,12.4,16.4,12.3-9.2,24.3-18.4,36.6-27.3,3.2-2.3,3.5-4.3,2.5-7.8-13.5-46,3.3-94.4,42.9-121.2,11.2-7.6,24.1-12.5,36.7-18.9-2.3-4.3-5.1-9.8-8.2-15.3-11.5-20.2-23-40.4-34.5-60.7-.9-1.6-1.3-3.7-1.4-5.6-.2-3.3,0-6.7-.1-10-.8-15.7-11.8-29.1-26.5-29.7-22.5-.9-45.1-.8-67.7,0-13.6.5-24.9,12.6-25.9,26.2-.7,9.4-.4,18.8-.6,28.2,0,2-.2,4-.4,6.6-13.3-8.7-24-18.6-31.2-31.3-7.1-12.4-12.3-25.8-18.4-39-13.7,11.7-28.1,24.1-42.6,36.4-.9.8-2.1,1.2-3,1.7,1,1.7,1.4,2.4,1.8,3,13.4,17.4,21,37,22.9,58.9.2,2.3,2,5.1,3.9,6.6,16,12.7,32.2,25.1,48.2,37.8,3,2.4,5,2.8,8.6.6,24.8-15,57.2,1.3,60.1,30.1,1.7,16.5-6.5,31.7-21.1,39.6-13.9,7.5-31.4,5.9-43.6-4-13.1-10.6-18.2-26.6-13.4-42.8,1-3.4.6-5.3-2.3-7.4-7.1-5.2-14-10.8-20.9-16.2-6.7-5.3-13.5-10.5-20.7-16.2-6.5,31.1-21.9,55.2-48.5,73.2,0-11.7.2-22.1,0-32.4-.4-15.4-11.7-28.5-27-29.1-22.1-.9-44.3-.9-66.5,0-15.1.6-26.2,13.4-26.8,28.6-.4,9.2-.1,18.5-.2,27.7,0,1.4-.3,2.9-.5,5-20.4-13.8-34.9-31.5-42.7-54.1-3.3-9.5-4.8-19.7-7.1-29.5v-20c.4-.9.9-1.7,1-2.6,7.8-51.1,44-87.5,95.1-95.2,3.6-.5,4.4-2.1,4.4-5.4-.1-13.9-.2-27.9,0-41.8,0-4-.9-6-5-7.7-27.4-11.1-33.8-47.4-11.9-66.4,12.9-11.2,27.7-14,43.3-7,15.8,7.1,24.1,20.1,23.7,37.4-.4,17.6-9.7,29.9-26,36.4-3.1,1.2-4.1,2.8-4,6,.2,14.3.2,28.7,0,43,0,3.9,1.5,4.8,5,5.5,7.7,1.5,15.6,2.6,22.7,5.7,11.8,5.1,22.9,11.7,35,17.9,15.6-13.4,32.1-28,49.2-41.8,6.4-5.2,9.3-10.8,10.3-19,8.3-65.1,74.5-109.2,137.4-91,42.8,12.4,69.5,40.9,79.7,84.5.9,3.8,2.6,6,6.1,7.7,22.1,10.5,44.2,21.2,66.2,32,3.6,1.8,6.1,1.6,9.5-.7,17.5-11.8,41.1-7.2,53.9,10.1,12.5,16.9,9.3,41-7.2,54.5-16.4,13.4-40.7,11.7-54.8-3.9-10.6-11.9-12.9-25.6-8.3-41.1-21-10.1-41.8-20.2-63.1-30.4-1.8,24.1-9.6,44.9-24,63.2-1,1.3-1.2,4.1-.5,5.5,12.9,24.4,26,48.8,39.3,73.1.9,1.6,3.4,2.9,5.3,3.2,6.8.9,13.7.8,20.5,2,79.6,15,116.5,106.4,69.7,172.7-7.7,10.9-17.1,20.3-29.4,27.9v-29c-.2-18.9-11.1-31.7-29.9-32.7-20.4-1-40.9-1-61.2,0-18.6,1-29.3,13.6-29.6,32.3-.2,8,0,16.1,0,24.2,0,1.4-.3,2.9-.5,4.8-15.3-9.6-26-22.7-35.3-37.2-12.8,9.6-25.1,18.7-37.2,28.1-1.4,1.1-2.2,4.2-1.9,6.2,1.3,10.3,3.4,20.5,4.5,30.8.4,3.7,1.4,5.4,4.7,7,21.8,10.4,43.5,20.8,65.1,31.5,3.6,1.8,6,1.7,9.5-.7,15.1-10.3,34.9-8.4,48.8,4.3,13,11.8,16.3,31.7,8.2,47.5-6.3,12.3-16.9,18.6-29.7,21.9h-11.8c-8.9-2.6-17.4-6-23.7-13.2-10.4-12-12.9-25.6-8.1-40.9-21.9-10.6-43.6-21.1-65.7-31.7-7.4,28.2-22.3,50.8-47.4,67.6v-27.9c0-21.6-12.3-34.1-33.8-34.2h-53c-3.3,0-6.7,0-9.9.9-14.8,3.5-23.5,14.9-23.8,30.9-.2,9.7,0,19.5,0,30.1-2.2-1.4-3.6-2.1-4.8-3-24.8-18.5-39.6-43.1-44.1-73.7-.6-4.3-2.1-5.5-6.2-5.4-13.7.2-27.5.2-41.2,0-4,0-6.1.9-7.7,5-9,22.5-35.1,31.5-56.3,19.9-11.7-6.4-17.6-16.9-20.8-29.3l-.4.5ZM129.7,271.6c22.1.1,40.2-17.8,40.4-39.8.1-21.9-18-40.2-40-40.4-21.9-.2-40.1,18-40.2,40-.1,22.2,17.6,40.1,39.8,40.2h0ZM220.6,482.8c0,22,17.6,40,39.7,40.4,21.8.4,40.6-18.3,40.5-40.3-.1-21.9-18.3-40-40.2-40s-40,17.9-40.1,40l.1-.1ZM502.1,402.3c22-.1,40.1-18.3,40-40.1,0-21.8-18.3-40-40.2-40.1-22.1,0-40.5,18.5-40.2,40.6.4,22.2,18.3,39.8,40.3,39.7l.1-.1ZM371.3,140.9c22,0,40.1-18.1,40.1-40s-18.2-40.1-40-40.3c-22-.2-40.5,18.4-40.3,40.5s18.1,39.9,40.2,39.8h0Z"/>
    <path class="cls-6" d="M249,623.7c-8.1-2.1-16.2-4.2-24.3-6.1-3.1-.8-4.4-2.4-4.3-5.8.2-12.2,0-24.3.1-36.5,0-7.7,3.9-11.7,11.6-11.7,19-.2,38.1-.2,57.1,0,7.5,0,11.5,4.3,11.5,11.9.1,12.2,0,24.3.1,36.5,0,3.1-1,4.7-3.9,5.4-8.5,2.1-17,4.2-25.6,6.3h-22.4.1Z"/>
    <path class="cls-8" d="M502.3,442.7c8.6,0,17.3-.1,25.9,0,10.1.2,13.9,4,14,13.9,0,11.4-.1,22.7,0,34.1,0,3.6-1.1,5.1-4.5,6.2-23.9,8-47.6,8-71.5.1-3.7-1.2-4.8-2.9-4.7-6.7.2-11.2,0-22.3,0-33.5,0-10.4,3.7-14,14.3-14.2,8.8-.1,17.6,0,26.5,0v.1Z"/>
    <path class="cls-11" d="M130,312c8.8,0,17.7-.1,26.5,0,9.8.2,13.5,4,13.5,13.6v34.2c0,3.3-.7,5.2-4.3,6.4-23.9,8-47.7,8.1-71.6.1-3.3-1.1-4.6-2.6-4.6-6.2.2-11.8,0-23.6.1-35.3,0-8.7,3.7-12.5,12.5-12.7,9.2-.3,18.5,0,27.7,0l.2-.1Z"/>
    <path class="cls-4" d="M371.3,181.4c9,0,18-.1,27,0,9.3.2,13,4.1,13.1,13.5,0,11.6-.1,23.1,0,34.7,0,3.3-1,4.8-4.2,5.9-24,8.2-48,8.2-72,.2-3.5-1.2-4.5-2.9-4.4-6.3.2-11.6,0-23.1,0-34.7,0-9.4,3.7-13,13.3-13.2,9-.2,18,0,27,0l.2-.1Z"/>
    <path class="cls-3" d="M109.9,230.9c.3-10.8,9.6-19.7,20.3-19.4,11.1.3,20.1,9.8,19.7,20.8-.4,11.2-9.7,19.6-21,19.2-10.9-.4-19.3-9.5-19-20.6Z"/>
    <path class="cls-7" d="M240.6,482.9c0-11,8.8-19.8,19.7-19.9,11.1-.1,20.4,9,20.3,20.1,0,10.8-9,19.8-19.9,19.9-11.1.2-20.2-8.9-20.2-20.1h.1Z"/>
    <path class="cls-10" d="M501.7,382.3c-11,0-19.7-8.8-19.8-19.8,0-11.2,9-20.3,20.1-20.2,10.8.1,19.8,9.1,19.9,20,0,11.1-9,20.1-20.2,20.1v-.1Z"/>
    <path class="cls-9" d="M371.4,120.8c-11.4.1-20.2-8.7-20.2-20s8.8-19.9,19.7-20.1c10.9-.2,20.4,9.3,20.4,20.2s-9,19.8-19.9,19.9Z"/>
  </g>
</svg>