<?xml version="1.0" encoding="utf-8"?>
<!-- Generator: Adobe Illustrator 26.2.1, SVG Export Plug-In . SVG Version: 6.00 Build 0)  -->
<svg version="1.1" id="Layer_1" xmlns="http://www.w3.org/2000/svg" xmlns:xlink="http://www.w3.org/1999/xlink" x="0px" y="0px"
	 viewBox="0 0 120 50" style="enable-background:new 0 0 120 50;" xml:space="preserve">
<style type="text/css">
	.st0{fill:#FFFFFF;}
</style>
<g>
	<path id="path4" class="st0" d="M12.31,25.58c0-3.52-1.24-5.1-1.92-5.72c-0.12-0.12-0.34-0.02-0.32,0.16
		C10.19,22,7.69,22.5,7.69,25.6l0,0v0.02c0,1.9,1.44,3.44,3.2,3.44s3.2-1.54,3.2-3.44V25.6l0,0c0-0.88-0.34-1.72-0.66-2.36
		c-0.08-0.12-0.26-0.08-0.24,0.04C13.81,26,12.31,27.64,12.31,25.58z M8.49,33c-0.08,0-0.16-0.04-0.22-0.1l-8.18-8.18
		c-0.12-0.12-0.12-0.32,0-0.44l8.64-8.64c0.06-0.04,0.12-0.08,0.2-0.08h2.48c0.14,0,0.24,0.1,0.28,0.18
		c0.04,0.1,0.04,0.22-0.08,0.34l-8.1,8.12c-0.16,0.16-0.16,0.42,0,0.58l6.42,6.44c0.12,0.12,0.12,0.32,0,0.44L8.69,32.9
		C8.65,32.96,8.57,33,8.49,33L8.49,33z M10.13,34.42c-0.14,0-0.24-0.1-0.28-0.18c-0.04-0.1-0.04-0.22,0.08-0.34l8.12-8.12
		c0.08-0.08,0.12-0.18,0.12-0.3c0-0.12-0.04-0.22-0.12-0.3l-6.44-6.44c-0.12-0.12-0.12-0.32,0-0.44l1.24-1.24
		c0.06-0.06,0.12-0.1,0.22-0.1s0.14,0.06,0.2,0.12l8.16,8.18c0.06,0.06,0.1,0.12,0.1,0.22c0,0.1-0.04,0.16-0.1,0.22l-8.64,8.64
		c-0.06,0.06-0.12,0.1-0.22,0.1L10.13,34.42z"/>
	<path id="path6" class="st0" d="M30.73,21.46c-0.04,0.08-0.1,0.12-0.18,0.12c-0.06,0-0.12-0.04-0.22-0.12
		c-0.1-0.08-0.22-0.18-0.36-0.28c-0.16-0.12-0.34-0.2-0.58-0.28c-0.24-0.1-0.54-0.12-0.88-0.12s-0.64,0.06-0.92,0.14
		c-0.26,0.1-0.48,0.24-0.66,0.4s-0.32,0.36-0.4,0.58c-0.1,0.22-0.14,0.46-0.14,0.7c0,0.34,0.08,0.58,0.2,0.8
		c0.12,0.2,0.32,0.38,0.56,0.54c0.22,0.14,0.48,0.28,0.78,0.36c0.3,0.12,0.58,0.2,0.88,0.3c0.3,0.1,0.58,0.2,0.88,0.34
		c0.3,0.12,0.54,0.28,0.78,0.44s0.4,0.4,0.56,0.66c0.12,0.26,0.2,0.58,0.2,0.98c0,0.4-0.08,0.78-0.2,1.12
		c-0.12,0.34-0.34,0.66-0.58,0.92c-0.24,0.26-0.58,0.46-0.96,0.62c-0.38,0.14-0.8,0.22-1.28,0.22c-0.62,0-1.18-0.12-1.62-0.34
		c-0.46-0.22-0.84-0.54-1.2-0.92l0.12-0.3c0.06-0.08,0.12-0.1,0.18-0.1c0.04,0,0.1,0.02,0.14,0.08c0.06,0.06,0.14,0.12,0.22,0.2
		c0.1,0.08,0.2,0.16,0.34,0.26c0.14,0.1,0.28,0.18,0.44,0.26c0.16,0.08,0.34,0.14,0.56,0.2c0.22,0.06,0.46,0.08,0.74,0.08
		c0.38,0,0.72-0.06,1.02-0.16c0.3-0.12,0.56-0.28,0.76-0.46s0.36-0.44,0.48-0.7c0.12-0.28,0.16-0.56,0.16-0.86
		c0-0.34-0.08-0.6-0.2-0.82c-0.12-0.22-0.32-0.4-0.56-0.56c-0.22-0.14-0.48-0.28-0.78-0.36c-0.3-0.1-0.58-0.2-0.88-0.3
		c-0.3-0.1-0.58-0.2-0.88-0.32c-0.3-0.12-0.54-0.26-0.78-0.44c-0.22-0.18-0.4-0.4-0.56-0.68c-0.12-0.28-0.2-0.6-0.2-1.02
		c0-0.32,0.06-0.62,0.18-0.92c0.12-0.3,0.3-0.56,0.54-0.8c0.24-0.22,0.52-0.4,0.86-0.56c0.34-0.12,0.74-0.2,1.18-0.2
		c0.5,0,0.94,0.08,1.34,0.24c0.38,0.16,0.76,0.4,1.08,0.72L30.73,21.46z M28.11,30.06c-0.64,0-1.22-0.12-1.68-0.34
		s-0.88-0.56-1.24-0.94l-0.06-0.06l0.24-0.36c0.12-0.12,0.2-0.14,0.28-0.14c0.08,0,0.14,0.04,0.22,0.12
		c0.06,0.06,0.14,0.12,0.24,0.2c0.1,0.08,0.2,0.16,0.32,0.26c0.12,0.1,0.26,0.16,0.42,0.24c0.16,0.08,0.34,0.14,0.56,0.18
		c0.2,0.06,0.44,0.08,0.72,0.08c0.36,0,0.7-0.06,0.98-0.16c0.28-0.12,0.52-0.26,0.72-0.44c0.18-0.18,0.34-0.4,0.44-0.66
		c0.12-0.26,0.14-0.54,0.14-0.82c0-0.32-0.06-0.56-0.18-0.78c-0.12-0.22-0.3-0.36-0.52-0.52c-0.22-0.14-0.46-0.26-0.74-0.34
		c-0.28-0.1-0.56-0.2-0.88-0.3s-0.6-0.2-0.88-0.32c-0.3-0.12-0.56-0.28-0.8-0.46c-0.24-0.18-0.42-0.44-0.56-0.72
		c-0.14-0.3-0.22-0.64-0.22-1.06c0-0.34,0.06-0.66,0.18-0.98s0.32-0.58,0.56-0.82c0.24-0.24,0.56-0.42,0.9-0.56
		c0.34-0.14,0.78-0.22,1.22-0.22c0.52,0,0.98,0.08,1.38,0.24s0.78,0.42,1.12,0.76l0.06,0.06l-0.2,0.38
		c-0.12,0.2-0.32,0.26-0.56,0.02c-0.1-0.08-0.2-0.16-0.36-0.26c-0.14-0.1-0.34-0.18-0.56-0.28c-0.22-0.08-0.5-0.12-0.84-0.12
		c-0.34,0-0.62,0.06-0.88,0.14c-0.24,0.1-0.46,0.22-0.62,0.38s-0.3,0.34-0.38,0.56c-0.08,0.22-0.12,0.44-0.12,0.66
		c0,0.3,0.06,0.56,0.18,0.74c0.12,0.2,0.3,0.36,0.52,0.52c0.22,0.14,0.46,0.26,0.74,0.36c0.28,0.1,0.56,0.2,0.88,0.3
		c0.3,0.1,0.6,0.2,0.88,0.34c0.3,0.12,0.56,0.28,0.8,0.46c0.24,0.18,0.42,0.42,0.56,0.7c0.14,0.28,0.22,0.62,0.22,1.02
		c0,0.4-0.08,0.8-0.22,1.18c-0.14,0.36-0.34,0.68-0.62,0.96c-0.28,0.28-0.6,0.48-1,0.64C29.07,29.96,28.61,30.06,28.11,30.06z
		 M25.45,28.68c0.32,0.34,0.68,0.62,1.1,0.82c0.44,0.22,0.98,0.34,1.58,0.34c0.46,0,0.88-0.08,1.24-0.22
		c0.36-0.14,0.66-0.34,0.92-0.58c0.24-0.24,0.44-0.56,0.56-0.88c0.12-0.34,0.2-0.7,0.2-1.08c0-0.36-0.08-0.68-0.18-0.94
		c-0.12-0.24-0.3-0.46-0.52-0.62c-0.22-0.16-0.46-0.32-0.74-0.44c-0.28-0.12-0.56-0.22-0.86-0.34c-0.3-0.1-0.58-0.2-0.88-0.3
		c-0.3-0.12-0.56-0.24-0.8-0.38c-0.24-0.14-0.42-0.34-0.56-0.56c-0.14-0.22-0.22-0.52-0.22-0.86c0-0.26,0.06-0.52,0.14-0.76
		c0.08-0.24,0.24-0.46,0.42-0.62c0.18-0.18,0.42-0.34,0.7-0.42c0.28-0.12,0.6-0.14,0.96-0.14s0.66,0.04,0.92,0.12
		c0.24,0.1,0.46,0.18,0.6,0.3c0.16,0.12,0.3,0.2,0.38,0.3c0.12,0.1,0.14,0.1,0.14,0.1c0.02,0,0.06,0,0.08-0.06l0.12-0.24
		c-0.3-0.28-0.62-0.5-0.98-0.64c-0.38-0.14-0.8-0.22-1.28-0.22c-0.42,0-0.8,0.08-1.14,0.2s-0.6,0.32-0.82,0.52
		c-0.22,0.22-0.38,0.46-0.52,0.76c-0.12,0.28-0.16,0.56-0.16,0.88c0,0.38,0.08,0.72,0.2,0.98c0.12,0.26,0.3,0.48,0.52,0.64
		c0.22,0.16,0.46,0.32,0.74,0.42c0.28,0.12,0.56,0.22,0.86,0.32c0.3,0.1,0.58,0.18,0.88,0.3c0.3,0.12,0.56,0.22,0.8,0.38
		c0.24,0.14,0.44,0.34,0.56,0.58c0.14,0.24,0.22,0.54,0.22,0.9c0,0.34-0.06,0.62-0.16,0.92c-0.12,0.3-0.28,0.54-0.5,0.74
		s-0.48,0.36-0.8,0.5c-0.32,0.12-0.66,0.18-1.04,0.18c-0.28,0-0.54-0.04-0.78-0.1c-0.22-0.06-0.42-0.12-0.58-0.2
		c-0.16-0.08-0.34-0.16-0.46-0.28c-0.12-0.1-0.24-0.18-0.34-0.26c-0.1-0.08-0.16-0.14-0.22-0.2c-0.06-0.06-0.1-0.06-0.1-0.06
		c-0.02,0-0.06,0-0.1,0.06L25.45,28.68z M41.67,25.06c0,0.74-0.12,1.4-0.34,2s-0.54,1.12-0.94,1.54c-0.4,0.42-0.88,0.76-1.44,1
		c-0.56,0.24-1.18,0.34-1.86,0.34c-0.66,0-1.28-0.12-1.84-0.34c-0.56-0.24-1.02-0.56-1.44-1c-0.4-0.42-0.72-0.94-0.94-1.54
		c-0.22-0.6-0.34-1.26-0.34-2c0-0.74,0.12-1.4,0.34-2c0.22-0.6,0.54-1.12,0.94-1.54c0.4-0.42,0.88-0.76,1.44-1
		c0.56-0.24,1.18-0.34,1.84-0.34c0.68,0,1.3,0.12,1.86,0.34c0.56,0.24,1.02,0.56,1.44,1c0.4,0.42,0.72,0.94,0.94,1.54
		C41.55,23.66,41.67,24.32,41.67,25.06z M40.95,25.06c0-0.66-0.1-1.26-0.28-1.8c-0.18-0.54-0.44-0.98-0.78-1.34
		c-0.34-0.36-0.74-0.64-1.22-0.84s-1-0.3-1.56-0.3c-0.56,0-1.08,0.1-1.56,0.3s-0.88,0.48-1.22,0.84s-0.6,0.8-0.8,1.34
		c-0.2,0.54-0.28,1.12-0.28,1.8c0,0.66,0.1,1.26,0.28,1.8s0.44,0.98,0.8,1.34c0.34,0.36,0.74,0.64,1.22,0.84s1,0.3,1.56,0.3
		c0.56,0,1.1-0.1,1.56-0.3c0.48-0.18,0.88-0.48,1.22-0.84c0.34-0.36,0.58-0.8,0.78-1.34C40.87,26.32,40.95,25.74,40.95,25.06z
		 M37.13,30.04c-0.68,0-1.32-0.12-1.88-0.34c-0.56-0.24-1.06-0.56-1.48-1.02c-0.4-0.44-0.74-0.96-0.96-1.58
		c-0.22-0.6-0.34-1.3-0.34-2.04s0.12-1.44,0.34-2.04c0.22-0.6,0.56-1.14,0.96-1.58c0.4-0.44,0.9-0.78,1.48-1.02
		c0.56-0.24,1.2-0.36,1.88-0.36c0.7,0,1.32,0.12,1.9,0.34c0.56,0.24,1.06,0.56,1.48,1.02c0.42,0.46,0.74,0.98,0.96,1.58
		c0.22,0.6,0.34,1.28,0.34,2.04c0,0.76-0.12,1.44-0.34,2.04c-0.22,0.6-0.56,1.14-0.96,1.58c-0.4,0.44-0.9,0.78-1.48,1.02
		S37.81,30.04,37.13,30.04z M37.13,20.3c-0.64,0-1.24,0.12-1.8,0.34c-0.54,0.22-1.02,0.56-1.4,0.96c-0.38,0.4-0.7,0.92-0.9,1.5
		c-0.22,0.58-0.34,1.24-0.34,1.96s0.12,1.38,0.34,1.96c0.22,0.58,0.52,1.08,0.9,1.5c0.38,0.4,0.86,0.74,1.4,0.96s1.14,0.34,1.8,0.34
		c0.66,0,1.26-0.12,1.8-0.34s1.02-0.56,1.4-0.96c0.38-0.4,0.7-0.92,0.9-1.48c0.22-0.58,0.34-1.24,0.34-1.96s-0.12-1.38-0.34-1.96
		c-0.22-0.58-0.52-1.08-0.9-1.5c-0.38-0.4-0.86-0.74-1.4-0.96C38.39,20.4,37.79,20.3,37.13,20.3z M47.13,29.34
		c0.46,0,0.86-0.08,1.24-0.24c0.36-0.16,0.66-0.38,0.92-0.66c0.26-0.28,0.44-0.62,0.56-1c0.12-0.38,0.2-0.8,0.2-1.24v-5.9h0.68v5.9
		c0,0.54-0.1,1.02-0.26,1.48c-0.16,0.46-0.4,0.84-0.72,1.2c-0.32,0.34-0.7,0.6-1.14,0.8c-0.44,0.18-0.96,0.3-1.5,0.3
		c-0.56,0-1.06-0.1-1.5-0.3c-0.44-0.2-0.82-0.46-1.14-0.8s-0.56-0.74-0.72-1.2c-0.16-0.46-0.26-0.96-0.26-1.48v-5.9h0.7v5.88
		c0,0.44,0.08,0.86,0.2,1.24c0.12,0.38,0.34,0.72,0.56,1c0.26,0.28,0.56,0.5,0.92,0.66C46.25,29.26,46.67,29.34,47.13,29.34z
		 M47.13,30.06c-0.56,0-1.08-0.1-1.54-0.3c-0.46-0.2-0.86-0.48-1.18-0.82s-0.56-0.78-0.74-1.24c-0.16-0.46-0.26-0.98-0.26-1.5v-6
		h0.92v6c0,0.42,0.08,0.82,0.18,1.22c0.12,0.36,0.32,0.7,0.56,0.96c0.24,0.28,0.54,0.48,0.88,0.64c0.34,0.14,0.74,0.24,1.18,0.24
		s0.84-0.08,1.18-0.22c0.34-0.14,0.64-0.36,0.88-0.64c0.24-0.28,0.42-0.58,0.56-0.96c0.12-0.36,0.18-0.78,0.18-1.22V20.2h0.92v6
		c0,0.54-0.1,1.04-0.26,1.5c-0.16,0.46-0.42,0.88-0.74,1.24c-0.32,0.34-0.72,0.62-1.18,0.82C48.21,29.96,47.69,30.06,47.13,30.06
		L47.13,30.06z M43.61,20.4v5.78c0,0.52,0.08,1,0.24,1.44c0.16,0.44,0.38,0.82,0.7,1.16c0.3,0.34,0.66,0.58,1.1,0.78
		c0.42,0.18,0.92,0.28,1.48,0.28c0.54,0,1.02-0.1,1.48-0.28c0.42-0.18,0.8-0.44,1.1-0.78s0.54-0.72,0.7-1.16
		c0.16-0.44,0.24-0.92,0.24-1.44V20.4h-0.46v5.78c0,0.46-0.08,0.88-0.2,1.28c-0.12,0.4-0.34,0.76-0.6,1.04
		c-0.26,0.3-0.58,0.54-0.96,0.7c-0.38,0.16-0.8,0.26-1.26,0.26c-0.48,0-0.9-0.1-1.26-0.26s-0.7-0.4-0.96-0.7
		c-0.26-0.3-0.46-0.64-0.58-1.04c-0.12-0.38-0.2-0.82-0.2-1.28V20.4H43.61z M54.69,25c0.18,0,0.16,0,0.16,0h0.4
		c0.42,0,0.8-0.06,1.14-0.14c0.34-0.12,0.62-0.24,0.84-0.44c0.24-0.18,0.4-0.42,0.54-0.68c0.12-0.26,0.18-0.56,0.18-0.9
		c0-0.68-0.22-1.18-0.66-1.5c-0.44-0.34-1.08-0.5-1.94-0.5h-1.74v4.18v0.52v4.32h-0.7v-9.54h2.42c1.1,0,1.92,0.22,2.46,0.64
		c0.56,0.42,0.8,1.04,0.8,1.88c0,0.36-0.06,0.7-0.18,1c-0.12,0.3-0.32,0.56-0.56,0.8c-0.24,0.22-0.52,0.42-0.84,0.56
		c-0.34,0.14-0.72,0.24-1.12,0.3c0.12,0.08,0.2,0.16,0.3,0.28l3.28,4.12h-0.6c-0.08,0-0.12-0.02-0.18-0.04s-0.12-0.08-0.14-0.12
		l-3.04-3.94c-0.08-0.1-0.16-0.16-0.24-0.2c-0.1-0.04-0.62-0.06-0.8-0.06C54.47,25.06,54.53,25,54.69,25z M59.73,29.94h-0.82
		c-0.1,0-0.16-0.02-0.24-0.06c-0.08-0.04-0.12-0.1-0.18-0.16l-3.06-3.86c-0.08-0.1-0.12-0.14-0.2-0.18
		c-0.08-0.02-0.52-0.06-0.76-0.06h-0.12v-0.48c0-0.16,0.04-0.26,0.34-0.26c0.16,0,0.18,0,0.18,0h0.4c0.4,0,0.78-0.06,1.1-0.14
		c0.32-0.1,0.58-0.24,0.8-0.42c0.22-0.18,0.38-0.38,0.5-0.64c0.12-0.26,0.16-0.54,0.16-0.84c0-0.64-0.2-1.1-0.62-1.42
		s-1.04-0.48-1.88-0.48h-1.64v8.98h-0.92v-9.74h2.56c1.12,0,1.96,0.22,2.54,0.66c0.56,0.44,0.86,1.1,0.86,1.96
		c0,0.38-0.08,0.74-0.2,1.04c-0.12,0.3-0.34,0.58-0.56,0.82c-0.24,0.24-0.56,0.42-0.88,0.58c-0.28,0.12-0.56,0.2-0.9,0.26
		c0.04,0.04,0.08,0.08,0.12,0.12L59.73,29.94z M54.57,25.4c0.2,0,0.62,0.02,0.74,0.08c0.12,0.06,0.2,0.12,0.3,0.24l3.06,3.86
		c0.04,0.06,0.08,0.1,0.12,0.12c0.04,0.02,0.08,0.04,0.12,0.04h0.36l-3.16-3.94c-0.08-0.12-0.16-0.18-0.26-0.24l-0.28-0.16
		l0.34-0.04c0.4-0.04,0.78-0.12,1.08-0.28c0.32-0.14,0.58-0.32,0.82-0.54c0.22-0.22,0.4-0.46,0.52-0.76c0.12-0.3,0.18-0.6,0.18-0.96
		c0-0.8-0.26-1.38-0.78-1.78c-0.52-0.4-1.32-0.6-2.38-0.6h-2.32v9.28h0.46v-9h1.86c0.86,0,1.54,0.16,2,0.52
		c0.48,0.34,0.72,0.88,0.72,1.6c0,0.34-0.08,0.66-0.18,0.94c-0.12,0.28-0.32,0.52-0.56,0.72s-0.54,0.34-0.88,0.46
		c-0.34,0.12-0.74,0.16-1.18,0.16h-0.4c-0.02,0-0.04,0-0.16,0C54.65,25.12,54.59,25.12,54.57,25.4L54.57,25.4z M67.56,28.22
		c0.04,0,0.1,0.02,0.12,0.06l0.28,0.3c-0.2,0.2-0.4,0.4-0.64,0.56c-0.24,0.16-0.5,0.32-0.78,0.42c-0.28,0.12-0.58,0.2-0.9,0.28
		c-0.34,0.08-0.7,0.1-1.08,0.1c-0.66,0-1.26-0.12-1.82-0.34c-0.56-0.24-1.02-0.56-1.42-1c-0.38-0.42-0.7-0.94-0.92-1.54
		c-0.22-0.6-0.34-1.26-0.34-2c0-0.72,0.12-1.38,0.34-1.98c0.22-0.6,0.56-1.1,0.96-1.54c0.4-0.42,0.9-0.76,1.48-1
		c0.56-0.24,1.22-0.34,1.9-0.34c0.34,0,0.66,0.02,0.96,0.08c0.3,0.06,0.56,0.12,0.8,0.22c0.26,0.1,0.48,0.22,0.7,0.36
		c0.22,0.14,0.44,0.32,0.64,0.5l-0.2,0.3c-0.04,0.06-0.1,0.08-0.16,0.08c-0.04,0-0.1-0.02-0.14-0.08c-0.04-0.06-0.14-0.12-0.24-0.18
		c-0.1-0.08-0.22-0.14-0.34-0.22c-0.12-0.1-0.3-0.16-0.5-0.22c-0.18-0.08-0.4-0.12-0.66-0.18c-0.24-0.06-0.54-0.08-0.84-0.08
		c-0.58,0-1.12,0.1-1.6,0.3c-0.48,0.2-0.9,0.48-1.24,0.86c-0.34,0.36-0.62,0.82-0.82,1.34c-0.2,0.52-0.3,1.12-0.3,1.78
		c0,0.68,0.1,1.26,0.3,1.8c0.2,0.54,0.46,0.98,0.8,1.34c0.34,0.36,0.76,0.64,1.22,0.84c0.46,0.2,0.98,0.3,1.5,0.3
		c0.34,0,0.64-0.02,0.92-0.08c0.28-0.04,0.52-0.12,0.74-0.2c0.22-0.1,0.44-0.2,0.62-0.34c0.2-0.12,0.38-0.28,0.56-0.46
		c0.02-0.02,0.04-0.04,0.06-0.04C67.5,28.24,67.54,28.22,67.56,28.22L67.56,28.22z M64.52,30.06c-0.68,0-1.3-0.12-1.86-0.34
		c-0.56-0.24-1.04-0.56-1.46-1.02c-0.4-0.44-0.72-0.96-0.94-1.58c-0.22-0.6-0.34-1.3-0.34-2.04s0.12-1.42,0.34-2.02
		c0.24-0.6,0.56-1.14,0.98-1.58c0.42-0.44,0.94-0.8,1.5-1.02c0.58-0.24,1.24-0.36,1.94-0.36c0.34,0,0.68,0.02,0.98,0.08
		c0.3,0.06,0.56,0.12,0.82,0.22c0.26,0.1,0.5,0.22,0.72,0.36c0.22,0.14,0.44,0.32,0.66,0.52l0.08,0.08l-0.26,0.38
		c-0.04,0.06-0.12,0.12-0.26,0.12c-0.08,0-0.12-0.04-0.22-0.1c-0.06-0.06-0.14-0.12-0.24-0.16c-0.1-0.08-0.2-0.14-0.34-0.22
		c-0.12-0.08-0.3-0.14-0.48-0.22c-0.18-0.08-0.4-0.12-0.64-0.16c-0.24-0.04-0.52-0.08-0.82-0.08c-0.56,0-1.08,0.1-1.56,0.3
		c-0.46,0.2-0.88,0.48-1.22,0.82c-0.34,0.34-0.6,0.8-0.8,1.3c-0.18,0.52-0.3,1.1-0.3,1.72c0,0.66,0.1,1.24,0.28,1.76
		s0.44,0.96,0.78,1.3c0.34,0.34,0.72,0.62,1.18,0.8c0.44,0.18,0.94,0.28,1.48,0.28c0.34,0,0.64-0.02,0.9-0.08
		c0.26-0.04,0.5-0.12,0.72-0.2c0.22-0.1,0.42-0.2,0.6-0.32s0.36-0.28,0.56-0.44c0.04-0.04,0.06-0.04,0.1-0.06
		c0.1-0.06,0.24-0.04,0.32,0.06l0.34,0.36l-0.08,0.08c-0.2,0.22-0.42,0.4-0.66,0.58c-0.24,0.16-0.5,0.34-0.8,0.44
		c-0.28,0.12-0.58,0.22-0.94,0.28C65.3,30.02,64.92,30.06,64.52,30.06L64.52,30.06z M64.72,20.3c-0.68,0-1.3,0.12-1.86,0.34
		c-0.56,0.22-1.04,0.56-1.44,0.98s-0.72,0.92-0.94,1.5c-0.22,0.58-0.34,1.24-0.34,1.94s0.12,1.38,0.34,1.96
		c0.22,0.58,0.52,1.08,0.9,1.5c0.38,0.4,0.84,0.74,1.38,0.96c0.54,0.22,1.12,0.34,1.76,0.34c0.38,0,0.74-0.04,1.06-0.1
		c0.32-0.06,0.62-0.14,0.88-0.28c0.28-0.12,0.52-0.26,0.74-0.42c0.2-0.14,0.38-0.32,0.56-0.48l-0.2-0.22
		c-0.02-0.02-0.04-0.02-0.06,0c-0.02,0-0.04,0.02-0.06,0.04c-0.18,0.16-0.38,0.34-0.58,0.46c-0.2,0.12-0.42,0.26-0.64,0.34
		c-0.24,0.1-0.5,0.16-0.76,0.2c-0.28,0.04-0.58,0.08-0.94,0.08c-0.56,0-1.08-0.12-1.56-0.3c-0.48-0.2-0.9-0.5-1.24-0.86
		c-0.34-0.36-0.62-0.84-0.82-1.38s-0.3-1.16-0.3-1.84c0-0.66,0.1-1.26,0.3-1.82c0.2-0.54,0.48-1.02,0.84-1.38
		c0.36-0.38,0.8-0.68,1.28-0.88c0.48-0.2,1.04-0.32,1.64-0.32c0.32,0,0.6,0.02,0.86,0.08c0.26,0.06,0.48,0.12,0.68,0.18
		c0.2,0.08,0.36,0.14,0.52,0.24c0.14,0.1,0.26,0.16,0.34,0.24c0.1,0.08,0.18,0.12,0.24,0.18c0.06,0.06,0.1,0.06,0.1,0.06
		c0.06,0,0.08-0.02,0.08-0.04l0.14-0.22c-0.18-0.16-0.36-0.3-0.56-0.42c-0.22-0.14-0.44-0.26-0.68-0.34
		c-0.24-0.1-0.52-0.16-0.8-0.22C65.36,20.34,65.06,20.3,64.72,20.3L64.72,20.3z M75.4,20.3v0.56h-5.02v3.86h4.18v0.56h-4.18v3.96
		h5.02v0.56h-5.72v-9.52h5.72V20.3z M75.52,29.94h-5.94v-9.76h5.94v0.8H70.5v3.62h4.18v0.8H70.5v3.74h5.02V29.94z M69.8,29.72h5.5
		v-0.34h-5.02v-4.2h4.18v-0.34h-4.18v-4.08h5.02v-0.34h-5.5V29.72z"/>
	<path id="path8" class="st0" d="M83.94,20.18v1.46h-4.32v2.88h3.64v1.46h-3.64v3.96H77.8V20.2L83.94,20.18z M94.52,25.06
		c0,0.72-0.12,1.38-0.34,1.98c-0.24,0.6-0.56,1.14-1.02,1.58c-0.42,0.44-0.96,0.8-1.56,1.04c-0.6,0.26-1.28,0.36-2.02,0.36
		c-0.74,0-1.42-0.12-2.02-0.36c-0.6-0.26-1.12-0.58-1.56-1.04c-0.44-0.44-0.78-0.98-1.02-1.58s-0.34-1.26-0.34-1.98
		s0.12-1.38,0.34-1.98c0.24-0.6,0.56-1.14,1.02-1.58c0.44-0.44,0.96-0.8,1.56-1.04c0.6-0.26,1.28-0.36,2.02-0.36
		c0.74,0,1.42,0.12,2.02,0.38c0.6,0.26,1.12,0.6,1.56,1.04c0.42,0.44,0.78,0.98,1.02,1.58C94.38,23.68,94.52,24.34,94.52,25.06z
		 M92.66,25.06c0-0.54-0.08-1.02-0.22-1.44c-0.14-0.42-0.34-0.8-0.6-1.08c-0.26-0.3-0.58-0.52-0.98-0.68
		c-0.38-0.16-0.8-0.24-1.28-0.24s-0.9,0.08-1.28,0.24c-0.38,0.16-0.7,0.38-0.98,0.68c-0.28,0.3-0.48,0.66-0.62,1.08
		c-0.14,0.42-0.22,0.9-0.22,1.44s0.08,1.02,0.22,1.44c0.14,0.42,0.34,0.8,0.62,1.08c0.28,0.28,0.58,0.52,0.98,0.68
		c0.38,0.16,0.8,0.24,1.28,0.24s0.9-0.08,1.28-0.24s0.7-0.38,0.98-0.68c0.26-0.3,0.46-0.66,0.6-1.08S92.66,25.58,92.66,25.06z
		 M98.3,24.84h0.42c0.34,0,0.64-0.04,0.9-0.12c0.26-0.1,0.46-0.2,0.62-0.34s0.3-0.34,0.36-0.54c0.08-0.2,0.12-0.44,0.12-0.68
		c0-0.5-0.16-0.88-0.5-1.14c-0.34-0.26-0.82-0.4-1.48-0.4h-1.18v3.24v1.3v3.8h-1.82v-9.74h2.98c0.66,0,1.24,0.08,1.7,0.2
		c0.48,0.12,0.86,0.34,1.16,0.56c0.3,0.24,0.54,0.56,0.66,0.88c0.14,0.34,0.22,0.72,0.22,1.14c0,0.34-0.06,0.64-0.14,0.94
		c-0.08,0.3-0.24,0.56-0.42,0.8s-0.4,0.44-0.68,0.62s-0.56,0.34-0.92,0.42c0.22,0.12,0.42,0.32,0.58,0.56l2.44,3.6h-1.64
		c-0.16,0-0.3-0.04-0.4-0.1c-0.12-0.06-0.2-0.14-0.28-0.28l-2.04-3.12c-0.06-0.08-0.16-0.24-0.28-0.26c-0.22,0-0.44,0-0.64,0
		c0,0,0-1.1,0-1.18C98.1,24.84,98.3,24.84,98.3,24.84L98.3,24.84z M108.68,28.6c0.4,0,0.78-0.04,1.06-0.12
		c0.3-0.08,0.58-0.18,0.86-0.32v-2.2h-1.22c-0.12,0-0.2-0.04-0.28-0.1c-0.08-0.08-0.12-0.14-0.12-0.24V24.6h3.24v4.38
		c-0.24,0.18-0.5,0.34-0.78,0.46c-0.28,0.12-0.56,0.24-0.86,0.34c-0.32,0.1-0.62,0.14-0.98,0.18c-0.34,0.04-0.72,0.06-1.12,0.06
		c-0.72,0-1.36-0.12-1.96-0.36s-1.12-0.58-1.54-1.02c-0.44-0.44-0.78-0.98-1.02-1.58s-0.36-1.28-0.36-2c0-0.74,0.12-1.4,0.34-2.02
		c0.24-0.6,0.56-1.14,1.02-1.58c0.44-0.44,0.98-0.8,1.6-1.02c0.62-0.24,1.32-0.36,2.1-0.36c0.8,0,1.48,0.12,2.06,0.34
		c0.58,0.24,1.06,0.56,1.48,0.92l-0.54,0.82c-0.12,0.16-0.24,0.26-0.4,0.26c-0.12,0-0.22-0.04-0.34-0.12
		c-0.14-0.1-0.3-0.16-0.44-0.26c-0.14-0.1-0.32-0.16-0.5-0.22s-0.38-0.12-0.6-0.14c-0.22-0.04-0.5-0.06-0.8-0.06
		c-0.48,0-0.92,0.08-1.3,0.24s-0.72,0.38-1,0.7c-0.28,0.3-0.48,0.66-0.62,1.08c-0.14,0.42-0.22,0.9-0.22,1.42
		c0,0.56,0.08,1.06,0.24,1.5c0.16,0.44,0.38,0.8,0.66,1.1c0.28,0.3,0.62,0.54,1.02,0.7C107.74,28.52,108.22,28.6,108.68,28.6
		L108.68,28.6z M118.66,26.02h-2.96v2.46h4.3v1.46h-6.14V20.2H120v1.46h-4.32v3h3.4v1.06C119.08,25.7,119.06,26.02,118.66,26.02z"/>
</g>
</svg>
