<?xml version="1.0" encoding="UTF-8"?>
<svg id="report" xmlns="http://www.w3.org/2000/svg" version="1.1" xmlns:xlink="http://www.w3.org/1999/xlink" viewBox="0 0 640.62 640.62">
  <defs>
    <style>
      .cls-1 {
        fill: #360061;
      }

      .cls-1, .cls-2, .cls-3, .cls-4, .cls-5 {
        stroke-width: 0px;
      }

      .cls-2 {
        fill: url(#linear-gradient);
      }

      .cls-3 {
        opacity: .9;
      }

      .cls-3, .cls-4, .cls-5 {
        fill: #5800b2;
      }

      .cls-3, .cls-5 {
        isolation: isolate;
      }

      .cls-5 {
        opacity: .8;
      }
    </style>
    <linearGradient id="linear-gradient" x1="19.69" y1="366.6" x2="446" y2="366.6" gradientTransform="translate(0 642) scale(1 -1)" gradientUnits="userSpaceOnUse">
      <stop offset="0" stop-color="#fff" stop-opacity=".4"/>
      <stop offset=".07" stop-color="#fff" stop-opacity=".34"/>
      <stop offset=".49" stop-color="#fff" stop-opacity="0"/>
      <stop offset=".75" stop-color="#fafafa" stop-opacity=".1"/>
      <stop offset="1" stop-color="#efefef" stop-opacity=".2"/>
    </linearGradient>
  </defs>
  <path class="cls-1" d="M268.47,448.02c-4.87,28.07-1.56,56.03,9.45,83.93-2.49.15-4.36.37-6.24.37-64.55.02-129.11.08-193.66,0-35.21-.05-58.33-23.44-58.33-58.79,0-132.14,0-264.28,0-396.42,0-35.15,23.45-58.65,58.53-58.65,103.2-.02,206.41-.03,309.61,0,34.76,0,58.08,23.44,58.16,58.33.02,8.08,0,16.14,0,24.59-15.46,3.66-26.75,12.36-33.11,25.78-9.41-.78-18.18-1.52-27.74-2.31,0-3.69.08-8.49-.02-13.29-.17-8.58-4.96-13.49-13.49-13.95-1.41-.08-2.84-.02-4.25-.02H98.46c-13.98,0-17.94,4.01-17.94,18.1s-.03,27.52,0,41.29c.03,11.33,4.5,15.81,15.83,15.81,82.36.02,164.72.05,247.08-.08,4.96,0,7.34.74,8.12,6.52,1.46,10.85,7.97,19.23,15.93,26.5,2.99,2.72,5.92,5.5,8.35,7.77-5.65,6.54-10.74,12.66-16.14,18.49-.98,1.06-3.2,1.31-4.85,1.32-13.16.1-26.31.02-39.46.08-9.49.04-14.31,4.59-14.67,13.89-.18,4.65-.18,9.31,0,13.96.35,9.16,4.87,13.72,14.08,13.88,11.13.2,22.31.69,33.37-.13,9.19-.68,15.51,2.04,19.19,11.04-9.68,11.33-19.58,23.04-29.68,34.58-.97,1.11-3.2,1.51-4.87,1.55-6.07.18-12.15-.07-18.21.12-8.7.26-13.46,4.93-13.85,13.59-.22,4.84-.57,9.79.1,14.54.6,4.17,2.57,8.14,4.44,13.69-14.53,21.38-28.36,45.21-35.92,72.58,0-3.63.09-7.27-.02-10.88-.3-9.57-4.76-14.28-14.21-14.4-14.77-.2-29.54-.19-44.32,0-9.65.12-14.03,4.66-14.2,14.26-.09,5.26-.19,10.54.15,15.78.42,6.64,5.1,11.51,11.74,11.61,16.18.26,32.39.4,48.55-.14,3.79-.14,7.47-3.1,11.43-4.86ZM128.63,364.25c7.67,0,15.35.18,23.02-.05,8.18-.25,13.1-5.15,13.46-13.33.24-5.24.26-10.51-.04-15.75-.43-7.6-5.16-12.63-12.72-12.77-15.75-.3-31.5-.3-47.25,0-7.86.15-12.49,5.36-12.7,13.28-.13,4.84-.1,9.7-.02,14.54.16,8.97,4.88,13.85,13.83,14.06,7.47.17,14.95.03,22.42.03ZM232.96,364.24c7.67,0,15.35.19,23.01-.05,7.95-.25,12.78-4.92,13.26-12.84.32-5.43.33-10.91,0-16.34-.47-7.66-5.16-12.54-12.76-12.67-15.74-.28-31.49-.29-47.23,0-7.6.14-12.23,5.2-12.56,12.79-.22,5.04-.18,10.09-.05,15.13.24,9.02,4.94,13.77,13.95,13.96,7.44.16,14.92.04,22.39.02ZM128.91,275.14v-.08c7.87,0,15.76.25,23.62-.08,7.34-.29,12.02-4.91,12.5-12.23.37-5.63.37-11.32.02-16.94-.45-7.31-5.31-12.29-12.39-12.38-15.94-.22-31.9-.21-47.84,0-7.17.08-12.05,5.12-12.36,12.27-.23,5.24-.16,10.5-.06,15.75.18,8.75,4.66,13.38,13.5,13.65,7.67.24,15.35.06,23.02.06ZM128.39,453.14c7.67,0,15.34.1,23.01-.03,8.25-.14,13.28-4.88,13.69-13.01.27-5.24.25-10.51,0-15.74-.37-7.47-4.79-12.62-11.92-12.77-16.34-.34-32.7-.34-49.04,0-7.08.15-11.4,5.1-11.69,12.18-.22,5.24-.16,10.5-.05,15.75.18,8.61,4.98,13.46,13.58,13.61,7.47.12,14.95.02,22.42,0ZM232.91,233.35c-7.67,0-15.34-.1-23.01.03-8.05.14-12.89,4.74-13.24,12.66-.24,5.44-.23,10.9,0,16.34.32,7.79,4.71,12.48,12.59,12.62,15.74.28,31.48.27,47.22,0,7.72-.13,12.25-4.82,12.74-12.59.33-5.23.3-10.5.06-15.74-.41-8.62-5.31-13.21-13.96-13.32-7.46-.08-14.94,0-22.4,0Z"/>
  <path class="cls-2" d="M268.47,448.02c-4.87,28.07-1.56,56.03,9.45,83.93-2.49.15-4.36.37-6.24.37-64.55.02-129.11.08-193.66,0-35.21-.05-58.33-23.44-58.33-58.79,0-132.14,0-264.28,0-396.42,0-35.15,23.45-58.65,58.53-58.65,103.2-.02,206.41-.03,309.61,0,34.76,0,58.08,23.44,58.16,58.33.02,8.08,0,16.14,0,24.59-15.46,3.66-26.75,12.36-33.11,25.78-9.41-.78-18.18-1.52-27.74-2.31,0-3.69.08-8.49-.02-13.29-.17-8.58-4.96-13.49-13.49-13.95-1.41-.08-2.84-.02-4.25-.02H98.46c-13.98,0-17.94,4.01-17.94,18.1s-.03,27.52,0,41.29c.03,11.33,4.5,15.81,15.83,15.81,82.36.02,164.72.05,247.08-.08,4.96,0,7.34.74,8.12,6.52,1.46,10.85,7.97,19.23,15.93,26.5,2.99,2.72,5.92,5.5,8.35,7.77-5.65,6.54-10.74,12.66-16.14,18.49-.98,1.06-3.2,1.31-4.85,1.32-13.16.1-26.31.02-39.46.08-9.49.04-14.31,4.59-14.67,13.89-.18,4.65-.18,9.31,0,13.96.35,9.16,4.87,13.72,14.08,13.88,11.13.2,22.31.69,33.37-.13,9.19-.68,15.51,2.04,19.19,11.04-9.68,11.33-19.58,23.04-29.68,34.58-.97,1.11-3.2,1.51-4.87,1.55-6.07.18-12.15-.07-18.21.12-8.7.26-13.46,4.93-13.85,13.59-.22,4.84-.57,9.79.1,14.54.6,4.17,2.57,8.14,4.44,13.69-14.53,21.38-28.36,45.21-35.92,72.58,0-3.63.09-7.27-.02-10.88-.3-9.57-4.76-14.28-14.21-14.4-14.77-.2-29.54-.19-44.32,0-9.65.12-14.03,4.66-14.2,14.26-.09,5.26-.19,10.54.15,15.78.42,6.64,5.1,11.51,11.74,11.61,16.18.26,32.39.4,48.55-.14,3.79-.14,7.47-3.1,11.43-4.86ZM128.63,364.25c7.67,0,15.35.18,23.02-.05,8.18-.25,13.1-5.15,13.46-13.33.24-5.24.26-10.51-.04-15.75-.43-7.6-5.16-12.63-12.72-12.77-15.75-.3-31.5-.3-47.25,0-7.86.15-12.49,5.36-12.7,13.28-.13,4.84-.1,9.7-.02,14.54.16,8.97,4.88,13.85,13.83,14.06,7.47.17,14.95.03,22.42.03ZM232.96,364.24c7.67,0,15.35.19,23.01-.05,7.95-.25,12.78-4.92,13.26-12.84.32-5.43.33-10.91,0-16.34-.47-7.66-5.16-12.54-12.76-12.67-15.74-.28-31.49-.29-47.23,0-7.6.14-12.23,5.2-12.56,12.79-.22,5.04-.18,10.09-.05,15.13.24,9.02,4.94,13.77,13.95,13.96,7.44.16,14.92.04,22.39.02ZM128.91,275.14v-.08c7.87,0,15.76.25,23.62-.08,7.34-.29,12.02-4.91,12.5-12.23.37-5.63.37-11.32.02-16.94-.45-7.31-5.31-12.29-12.39-12.38-15.94-.22-31.9-.21-47.84,0-7.17.08-12.05,5.12-12.36,12.27-.23,5.24-.16,10.5-.06,15.75.18,8.75,4.66,13.38,13.5,13.65,7.67.24,15.35.06,23.02.06ZM128.39,453.14c7.67,0,15.34.1,23.01-.03,8.25-.14,13.28-4.88,13.69-13.01.27-5.24.25-10.51,0-15.74-.37-7.47-4.79-12.62-11.92-12.77-16.34-.34-32.7-.34-49.04,0-7.08.15-11.4,5.1-11.69,12.18-.22,5.24-.16,10.5-.05,15.75.18,8.61,4.98,13.46,13.58,13.61,7.47.12,14.95.02,22.42,0ZM232.91,233.35c-7.67,0-15.34-.1-23.01.03-8.05.14-12.89,4.74-13.24,12.66-.24,5.44-.23,10.9,0,16.34.32,7.79,4.71,12.48,12.59,12.62,15.74.28,31.48.27,47.22,0,7.72-.13,12.25-4.82,12.74-12.59.33-5.23.3-10.5.06-15.74-.41-8.62-5.31-13.21-13.96-13.32-7.46-.08-14.94,0-22.4,0Z"/>
  <path class="cls-4" d="M453.63,621.35c-47.47-.88-89.78-14.88-124.2-48.32-48.93-47.52-57.44-114.37-22.81-174.42,21.14-36.66,48.15-68.91,76.3-100.24,1.16-1.29,3.74-1.84,5.64-1.8,5.23.1,10.46,1.02,15.69,1.04,33.79.1,67.59.06,101.38.04,2.83,0,5.94.55,8.43-.41,7.09-2.7,10.88.93,15.16,5.83,25.81,29.62,51.03,59.7,70.73,93.87,25.63,44.45,30.63,90.47,7.03,137.22-19.9,39.43-52.8,64.14-94.29,77.79-8.22,2.7-16.75,4.81-25.29,6.09-11.19,1.68-22.52,2.25-33.78,3.31ZM507.68,483c-.39-2.12-.78-6.38-1.95-10.41-5.26-18.21-19.28-26.65-36.15-31.48-10.07-2.88-20.49-4.66-30.45-7.86-7.23-2.33-12.59-7.28-12.99-15.8-.41-8.99,4.12-14.93,11.69-18.9,16.29-8.57,35.42-2.68,44.13,13.51,3.84,7.12,9.84,9.64,15.85,6.65,5.92-2.94,7.64-9.53,4.27-16.69-6.19-13.12-16.18-22.23-29.99-26.49-5.65-1.74-8.23-3.8-7.8-10.22.48-7.28-4.36-11.8-10.86-11.86-6.7-.06-11.53,4.7-11.17,12.21.28,5.78-1.17,9.05-7.28,9.82-2.32.29-4.58,1.57-6.72,2.69-15.82,8.28-25.06,20.97-24.69,39.24.36,18.07,10.49,29.8,26.5,36.4,7.58,3.12,15.96,4.2,23.83,6.7,7.82,2.48,16.25,4.33,22.98,8.68,12.3,7.93,10.84,24.47-2.65,29.92-7.78,3.14-16.84,4.74-25.22,4.4-12.58-.51-22.87-6.36-27.42-19.34-2.86-8.17-8.28-11.47-14.99-9.21-6.49,2.19-8.87,8.45-6.15,16.61,5.31,15.97,16.47,26.39,32.19,31.23,6.95,2.14,10.6,4.28,9.76,12.32-.58,5.53,4.5,9.82,9.93,10.26,5.52.44,12.02-3.27,11.45-8.35-1.24-10.96,5.64-12.28,13.36-14.76,6-1.93,11.78-5.39,16.84-9.24,9.04-6.87,13.2-16.6,13.68-30.04Z"/>
  <path class="cls-5" d="M453.56,209.16c-16.59,0-33.17.21-49.75-.18-3.18-.08-6.86-1.82-9.32-3.95-5.8-5.02-11.04-10.68-16.41-16.18-9.78-10.04-10.98-23.65-3.1-34.16,7.65-10.21,21.01-12.84,33.18-6.56,10.19,5.27,17.48,2.2,20.96-8.81,3.67-11.61,13.16-18.9,24.61-18.92,11.47-.02,21.02,7.28,24.68,18.82,3.51,11.08,10.76,14.2,20.89,8.97,12.17-6.28,25.59-3.69,33.24,6.41,7.93,10.46,6.84,24.09-2.96,34.18-6.61,6.81-12.43,15.78-20.55,19.34-7.66,3.36-17.87.97-26.96,1.03-9.49.07-19,.02-28.51.02Z"/>
  <path class="cls-3" d="M453.76,278.23c-17.79,0-35.58.05-53.38,0-15.49-.05-26.45-10.32-26.51-24.69-.06-14.41,10.9-24.9,26.28-24.92,35.78-.06,71.57-.06,107.36,0,15.3.03,26.37,10.66,26.25,24.99-.1,14.11-11.04,24.54-26.02,24.61-18,.08-36,0-53.99,0Z"/>
</svg>