<?xml version="1.0" encoding="utf-8"?>
<!-- Generator: Adobe Illustrator 27.3.1, SVG Export Plug-In . SVG Version: 6.00 Build 0)  -->
<svg version="1.1" id="Layer_1" xmlns="http://www.w3.org/2000/svg" xmlns:xlink="http://www.w3.org/1999/xlink" x="0px" y="0px"
	 viewBox="0 0 210 110" style="enable-background:new 0 0 210 110;" xml:space="preserve">
<style type="text/css">
	.st0{fill:#F2B700;}
	.st1{fill:#008938;}
</style>
<g>
	<path class="st0" d="M34.3,62.09c0,5.16-2.98,8.31-7.7,9.27c-1.31,0.26-3.5,0.26-4.99,0.26l-11.46-0.09v4.38L0,67.6l10.15-8.31
		v4.38l12.86,0.09c1.23,0,1.75-0.7,1.75-1.4c0-1.31-1.22-1.75-4.9-3.5C14,56.05,9.45,54.04,9.45,47.65c0-4.99,3.59-8.4,8.84-9.1
		c1.05-0.17,3.06-0.17,4.29-0.17c2.62,0,9.97,0.17,9.97,0.17v7.96l-12.07-0.17c-1.05,0-1.58,0.7-1.58,1.4
		c0,1.05,0.88,1.49,4.29,3.06C30.36,54.12,34.3,55.96,34.3,62.09z M53.29,61.47c0,1.49-1.31,2.71-3.68,2.71
		c-2.54,0-3.67-1.23-3.67-2.71V38.46h-9.89v23.8c0,5.25,4.38,10.24,13.47,10.24C58.19,72.5,63,67.6,63,62.26v-23.8h-9.71V61.47z
		 M93.36,61.65c0,6.56-4.46,10.15-10.94,10.15H66.06V38.46h15.75c7.09,0,10.67,3.94,10.67,9.1c0,2.62-1.22,4.9-3.67,6.56
		C91.7,55.7,93.36,58.15,93.36,61.65z M75.78,51.67h4.55c1.75,0,2.54-1.22,2.54-2.97c0-1.84-0.79-2.97-2.54-2.97h-4.55V51.67z
		 M83.47,61.21c0-2.01-0.96-3.15-2.71-3.15h-4.99v6.3h4.99C82.6,64.36,83.47,63.14,83.47,61.21z"/>
	<g>
		<path class="st1" d="M126.09,38.46h9.71v23.45c0,5.43-3.85,10.32-11.99,10.32c-3.5,0-6.21-1.05-8.14-2.62
			c-1.92,1.58-4.55,2.62-7.79,2.62c-8.66,0-12.25-4.9-12.25-10.32V38.46h9.71v23.27c0,0.96,0.53,2.19,2.71,2.19s2.8-1.14,2.8-2.19
			V38.46h9.71v23.27c0,0.96,0.53,2.19,2.71,2.19s2.8-1.14,2.8-2.19V38.46z M177.62,51.59V38.46H168v14c0,4.64,3.15,8.14,8.49,9.62
			v9.62h9.89v-9.62c5.43-1.49,8.4-4.99,8.4-9.62V47.3c0-0.52,0.26-0.79,0.79-0.79h4.29v4.2L210,42.4l-10.15-8.31v4.2h-6.74
			c-5.69,0-8.05,3.32-8.05,8.05v5.25c0,1.22-0.88,2.71-3.76,2.71C178.5,54.3,177.62,52.81,177.62,51.59z M165.55,48v23.8h-9.71
			v-9.71h-7.35v9.62h-9.71V48c0-5.95,4.9-10.5,13.39-10.5C160.56,37.5,165.55,41.96,165.55,48z M155.84,54.47v-5.95
			c0-1.58-1.14-2.71-3.68-2.71c-2.62,0-3.67,1.14-3.67,2.71v5.95H155.84z"/>
	</g>
</g>
</svg>
