<?xml version="1.0" encoding="UTF-8"?>
<svg id="report" xmlns="http://www.w3.org/2000/svg" version="1.1" xmlns:xlink="http://www.w3.org/1999/xlink" viewBox="0 0 640.6 640.6">
  <defs>
    <style>
      .cls-1 {
        fill: url(#linear-gradient);
      }

      .cls-1, .cls-2 {
        stroke-width: 0px;
      }

      .cls-2 {
        fill: #fc8019;
      }
    </style>
    <linearGradient id="linear-gradient" x1="111.5" y1="320.3" x2="529.2" y2="320.3" gradientUnits="userSpaceOnUse">
      <stop offset="0" stop-color="#fff" stop-opacity=".4"/>
      <stop offset="0" stop-color="#fff" stop-opacity=".3"/>
      <stop offset=".5" stop-color="#fff" stop-opacity="0"/>
      <stop offset=".8" stop-color="#fafafa" stop-opacity=".1"/>
      <stop offset="1" stop-color="#efefef" stop-opacity=".2"/>
    </linearGradient>
  </defs>
  <path class="cls-2" d="M321.2,629.6c-.4-.3-.8-.7-1.3-1.1-7.5-9.2-53.6-67-100.5-141.1-14.1-23.6-23.2-42-21.5-46.8,4.6-12.4,86.5-19.2,111.7-7.9,7.7,3.4,7.5,7.9,7.5,10.5,0,11.3-.6,41.7-.6,41.7,0,6.3,5.1,11.4,11.4,11.4,6.3,0,11.4-5.1,11.4-11.4v-75.7h-.1c0-6.6-7.2-8.2-8.5-8.5-13.2,0-39.9-.2-68.6-.2-63.3,0-77.5,2.6-88.2-4.4-23.3-15.2-61.4-118-62.3-175.8-1.3-81.5,47-152.1,115.1-187.1,28.4-14.3,60.5-22.4,94.4-22.4,107.7,0,196.4,81.3,208.2,185.9,0,0,0,.2,0,.3,2.2,25.3-137.2,30.6-164.7,23.3-4.2-1.1-5.3-5.5-5.3-7.3,0-19.2-.2-73.3-.2-73.3,0-6.3-5.1-11.4-11.4-11.4s-11.4,5.1-11.4,11.4l.3,99.7c.2,6.3,5.5,8,6.9,8.3,15.7,0,52.3,0,86.5,0s65.5,5.3,78.4,15.2c8.6,6.5,11.9,19,9,35.3-25.9,144.7-189.8,324-196,331.5h0Z"/>
  <path class="cls-1" d="M321.2,629.6c-.4-.3-.8-.7-1.3-1.1-7.5-9.2-53.6-67-100.5-141.1-14.1-23.6-23.2-42-21.5-46.8,4.6-12.4,86.5-19.2,111.7-7.9,7.7,3.4,7.5,7.9,7.5,10.5,0,11.3-.6,41.7-.6,41.7,0,6.3,5.1,11.4,11.4,11.4,6.3,0,11.4-5.1,11.4-11.4v-75.7h-.1c0-6.6-7.2-8.2-8.5-8.5-13.2,0-39.9-.2-68.6-.2-63.3,0-77.5,2.6-88.2-4.4-23.3-15.2-61.4-118-62.3-175.8-1.3-81.5,47-152.1,115.1-187.1,28.4-14.3,60.5-22.4,94.4-22.4,107.7,0,196.4,81.3,208.2,185.9,0,0,0,.2,0,.3,2.2,25.3-137.2,30.6-164.7,23.3-4.2-1.1-5.3-5.5-5.3-7.3,0-19.2-.2-73.3-.2-73.3,0-6.3-5.1-11.4-11.4-11.4s-11.4,5.1-11.4,11.4l.3,99.7c.2,6.3,5.5,8,6.9,8.3,15.7,0,52.3,0,86.5,0s65.5,5.3,78.4,15.2c8.6,6.5,11.9,19,9,35.3-25.9,144.7-189.8,324-196,331.5h0Z"/>
</svg>