<?xml version="1.0" encoding="utf-8"?>
<!-- Generator: Adobe Illustrator 27.3.1, SVG Export Plug-In . SVG Version: 6.00 Build 0)  -->
<svg version="1.1" id="Layer_1" xmlns="http://www.w3.org/2000/svg" xmlns:xlink="http://www.w3.org/1999/xlink" x="0px" y="0px"
	 viewBox="0 0 210 110" style="enable-background:new 0 0 210 110;" xml:space="preserve">
<style type="text/css">
	.st0{fill:#1961AC;}
</style>
<g>
	<path class="st0" d="M50.49,21.45H76.5v7.92h-7.46v19.02H58.2V29.36h-7.71V21.45z M89.66,32.33L89.66,32.33l5.55,16.05h10.53
		L95.29,21.45h-11.3l-10.2,26.93h10.41L89.66,32.33z M103.26,21.45L103.26,21.45v7.92h7.71v19.02h10.83V29.36h7.46v-7.92H103.26z
		 M142.43,32.33L142.43,32.33l5.55,16.05h10.53l-10.45-26.93h-11.3l-10.2,26.93h10.4L142.43,32.33z"/>
	<path class="st0" d="M26.72,87.34c-1.13,0.59-3.63,1.21-6.8,1.21c-8.36,0-13.43-5.27-13.43-13.28c0-8.67,6.01-13.9,14.06-13.9
		c3.16,0,5.43,0.66,6.4,1.17l-1.05,3.83c-1.25-0.55-2.97-1.01-5.16-1.01c-5.35,0-9.22,3.36-9.22,9.69c0,5.78,3.4,9.49,9.18,9.49
		c1.95,0,3.98-0.39,5.23-0.98L26.72,87.34z"/>
	<path class="st0" d="M33.79,75.07c0,5.35,2.69,9.65,7.3,9.65c4.65,0,7.26-4.33,7.26-9.84c0-4.96-2.46-9.69-7.26-9.69
		C36.33,65.19,33.79,69.65,33.79,75.07 M53.44,74.68c0,8.83-5.35,13.87-12.62,13.87c-7.42,0-12.11-5.66-12.11-13.4
		c0-8.09,5.08-13.79,12.5-13.79C48.9,61.36,53.44,67.18,53.44,74.68"/>
	<path class="st0" d="M58.12,88.12V61.79h5.47l6.8,11.29c1.76,2.93,3.28,5.97,4.49,8.83h0.08c-0.31-3.52-0.43-6.91-0.43-10.94v-9.18
		h4.45v26.33h-4.96l-6.88-11.6c-1.68-2.85-3.44-6.09-4.72-9.06L62.3,67.5c0.19,3.4,0.23,6.87,0.23,11.21v9.41H58.12z"/>
	<path class="st0" d="M84.42,82.89c1.56,0.9,3.91,1.68,6.37,1.68c3.09,0,4.8-1.44,4.8-3.59c0-1.99-1.33-3.17-4.69-4.38
		c-4.33-1.56-7.11-3.87-7.11-7.66c0-4.3,3.59-7.58,9.29-7.58c2.85,0,4.96,0.63,6.33,1.33l-1.17,3.87c-0.94-0.51-2.77-1.25-5.23-1.25
		c-3.05,0-4.37,1.64-4.37,3.16c0,2.03,1.52,2.97,5.04,4.33c4.57,1.72,6.8,4.02,6.8,7.81c0,4.22-3.2,7.93-10,7.93
		c-2.77,0-5.66-0.82-7.11-1.68L84.42,82.89z"/>
	<path class="st0" d="M109.85,61.79v15.35c0,5.16,2.15,7.54,5.39,7.54c3.48,0,5.55-2.38,5.55-7.54V61.79h4.8v15.04
		c0,8.13-4.18,11.72-10.51,11.72c-6.09,0-10.04-3.4-10.04-11.68V61.79H109.85z"/>
	<path class="st0" d="M154.14,77.38c-0.15-3.4-0.35-7.5-0.31-11.1h-0.12c-0.86,3.24-1.95,6.8-3.12,10.12l-3.83,11.4h-3.71
		l-3.52-11.25c-1.01-3.36-1.95-6.95-2.66-10.27h-0.08c-0.12,3.48-0.27,7.66-0.47,11.25l-0.59,10.59h-4.49l1.76-26.33h6.33
		l3.44,10.59c0.94,3.08,1.76,6.21,2.42,9.14h0.12c0.71-2.85,1.6-6.09,2.62-9.18l3.63-10.54h6.25l1.52,26.33h-4.69L154.14,77.38z"/>
	<polygon class="st0" points="179.49,76.44 169.57,76.44 169.57,84.18 180.66,84.18 180.66,88.12 164.76,88.12 164.76,61.79 
		180.08,61.79 180.08,65.74 169.57,65.74 169.57,72.54 179.49,72.54 	"/>
	<path class="st0" d="M189.65,73.79h2.85c3.24,0,5.28-1.72,5.28-4.34c0-2.89-2.03-4.22-5.16-4.22c-1.52,0-2.5,0.12-2.97,0.23V73.79z
		 M184.88,62.15c1.8-0.31,4.49-0.55,7.27-0.55c3.79,0,6.37,0.62,8.13,2.11c1.45,1.21,2.26,3.05,2.26,5.27c0,3.4-2.31,5.7-4.76,6.6
		v0.12c1.87,0.71,3,2.54,3.67,5.08c0.82,3.28,1.52,6.33,2.07,7.34h-4.96c-0.39-0.78-1.02-2.93-1.76-6.21
		c-0.74-3.44-1.99-4.53-4.73-4.61h-2.42v10.82h-4.77V62.15z"/>
</g>
</svg>
