<?xml version="1.0" encoding="UTF-8"?>
<svg id="report" xmlns="http://www.w3.org/2000/svg" version="1.1" xmlns:xlink="http://www.w3.org/1999/xlink" viewBox="0 0 640.6 640.6">
  <defs>
    <style>
      .cls-1 {
        fill: #360061;
      }

      .cls-1, .cls-2, .cls-3, .cls-4, .cls-5, .cls-6, .cls-7, .cls-8, .cls-9, .cls-10, .cls-11, .cls-12, .cls-13 {
        stroke-width: 0px;
      }

      .cls-2 {
        fill: url(#linear-gradient-6);
      }

      .cls-3 {
        fill: url(#linear-gradient-2);
      }

      .cls-3, .cls-7, .cls-9 {
        display: none;
      }

      .cls-4 {
        fill: url(#linear-gradient-11);
      }

      .cls-5 {
        fill: url(#linear-gradient-5);
      }

      .cls-6 {
        fill: #5800b2;
      }

      .cls-7 {
        fill: url(#linear-gradient-3);
      }

      .cls-8 {
        fill: url(#linear-gradient-7);
      }

      .cls-9 {
        fill: url(#linear-gradient);
      }

      .cls-10 {
        fill: url(#linear-gradient-9);
      }

      .cls-11 {
        fill: url(#linear-gradient-8);
      }

      .cls-12 {
        fill: url(#linear-gradient-10);
      }

      .cls-13 {
        fill: url(#linear-gradient-4);
      }
    </style>
    <linearGradient id="linear-gradient" x1="291" y1="321.7" x2="361" y2="321.7" gradientTransform="translate(0 642) scale(1 -1)" gradientUnits="userSpaceOnUse">
      <stop offset="0" stop-color="#fff" stop-opacity=".4"/>
      <stop offset="0" stop-color="#fff" stop-opacity=".3"/>
      <stop offset=".5" stop-color="#fff" stop-opacity="0"/>
      <stop offset=".8" stop-color="#fafafa" stop-opacity=".1"/>
      <stop offset="1" stop-color="#efefef" stop-opacity=".2"/>
    </linearGradient>
    <linearGradient id="linear-gradient-2" x1="234.7" y1="321.7" x2="275.4" y2="321.7" gradientTransform="translate(0 642) scale(1 -1)" gradientUnits="userSpaceOnUse">
      <stop offset="0" stop-color="#fff" stop-opacity=".4"/>
      <stop offset="0" stop-color="#fff" stop-opacity=".3"/>
      <stop offset=".5" stop-color="#fff" stop-opacity="0"/>
      <stop offset=".8" stop-color="#fafafa" stop-opacity=".1"/>
      <stop offset="1" stop-color="#efefef" stop-opacity=".2"/>
    </linearGradient>
    <linearGradient id="linear-gradient-3" x1="377.1" y1="321.8" x2="406" y2="321.8" gradientTransform="translate(0 642) scale(1 -1)" gradientUnits="userSpaceOnUse">
      <stop offset="0" stop-color="#fff" stop-opacity=".4"/>
      <stop offset="0" stop-color="#fff" stop-opacity=".3"/>
      <stop offset=".5" stop-color="#fff" stop-opacity="0"/>
      <stop offset=".8" stop-color="#fafafa" stop-opacity=".1"/>
      <stop offset="1" stop-color="#efefef" stop-opacity=".2"/>
    </linearGradient>
    <linearGradient id="linear-gradient-4" x1="-106" y1="107.5" x2="442" y2="723.5" gradientUnits="userSpaceOnUse">
      <stop offset="0" stop-color="#fff" stop-opacity=".4"/>
      <stop offset="0" stop-color="#fff" stop-opacity=".3"/>
      <stop offset=".5" stop-color="#fff" stop-opacity="0"/>
      <stop offset=".8" stop-color="#fafafa" stop-opacity=".1"/>
      <stop offset="1" stop-color="#efefef" stop-opacity=".2"/>
    </linearGradient>
    <linearGradient id="linear-gradient-5" x1="47.4" y1="-28.9" x2="595.4" y2="587.1" xlink:href="#linear-gradient-4"/>
    <linearGradient id="linear-gradient-6" x1="160.3" y1="-129.4" x2="708.3" y2="486.6" xlink:href="#linear-gradient-4"/>
    <linearGradient id="linear-gradient-7" x1="235.7" y1="-196.4" x2="783.7" y2="419.6" xlink:href="#linear-gradient-4"/>
    <linearGradient id="linear-gradient-8" x1="-14.7" y1="26.3" x2="533.3" y2="642.3" xlink:href="#linear-gradient-4"/>
    <linearGradient id="linear-gradient-9" x1="-130.4" y1="129.2" x2="417.6" y2="745.2" xlink:href="#linear-gradient-4"/>
    <linearGradient id="linear-gradient-10" x1="80.4" y1="-58.3" x2="628.4" y2="557.7" xlink:href="#linear-gradient-4"/>
    <linearGradient id="linear-gradient-11" x1="-44.6" y1="52.9" x2="503.4" y2="668.9" xlink:href="#linear-gradient-4"/>
  </defs>
  <path class="cls-9" d="M360.9,408.9c-23.1-16.6-45.1-32.3-66.8-48.2-1.8-1.3-3-4.8-3-7.2-.2-22.1-.2-44.2,0-66.3,0-2.3.9-5.5,2.5-6.7,22-16.1,44.1-32,67.4-48.7,0,59.4,0,117.6,0,177.2Z"/>
  <path class="cls-3" d="M275.4,285.5v69.4c-11.5,0-22.6.5-33.6-.4-2.5-.2-6.6-4.8-6.7-7.5-.6-17.9-.4-35.8-.2-53.7,0-4.9,3-7.7,8-7.7,10.6-.1,21.2,0,32.5,0Z"/>
  <path class="cls-7" d="M377.1,355.1c0-23.3,0-46.6,0-69.9,15.6,1.6,28.5,17,28.9,34.3.3,17.3-12.3,33.1-28.9,35.6Z"/>
  <g>
    <g>
      <path class="cls-6" d="M217.2,301.7c-19.6,10.8-38.5,21.3-57.5,31.5-34.9,18.8-52.4,47.7-51.9,87.4.2,16.4,0,32.8,0,49.8H1.1v-7.3c0-68.8,0-137.5,0-206.2,0-29.6,14.7-50.8,42.4-61,14.7-5.4,29.4-10.9,44.2-16,2.3-.8,5.9-1,7.8.2,27.2,16.6,56.2,20.9,87,12.8.6-.2,1.4-.2,2.6-.3-5.1,40.7,5.6,76.8,32.1,109.2Z"/>
      <path class="cls-6" d="M226.9,107.9c-.9,3-2.8,5.9-4.7,8.5-7,9.8-14.1,19.6-21.4,29.2-2.6,3.5-5.4,7.3-9.1,9.5-27.1,16.8-61.7,14.2-86.5-6.1-24.8-20.3-34.3-54.2-23.5-84.4,10.8-30.3,39.2-50.3,71.6-50.4,49.3-.2,86.6,47.1,73.6,93.7Z"/>
    </g>
    <g>
      <path class="cls-6" d="M640.6,465.4c0,1.6-.2,3.2-.4,5.2h-106.3c0-9.4.2-18.4,0-27.3-.3-14.5.5-29.2-1.7-43.4-4.3-28.5-20.4-49.8-45.3-64-18.4-10.5-37-20.4-55.6-30.6-2-1.1-4-2.4-6.5-3.9,26-32.3,37-68,31.8-108.9,7.3,1.2,14.1,2.6,21,3.4,24,2.8,46.1-2.9,67-14.9,2.8-1.6,7.3-2,10.3-1,15.7,5.3,31.3,11.1,46.8,17.1,23.7,9.3,38.8,30.9,38.9,56.2.1,70.7,0,141.3,0,211.9Z"/>
      <path class="cls-6" d="M536.5,149.2c-24.7,20.1-59.1,22.8-86,6.4-3.8-2.3-6.9-6.2-9.7-9.9-5.6-7.4-9.6-16.2-16.2-22.4-12.1-11.4-13.4-25.2-12.1-39.9,3.6-39.4,36.5-69.1,75.9-69,32.3,0,60.7,20,71.5,50.5,10.8,30.1,1.3,64.3-23.5,84.4Z"/>
    </g>
    <g>
      <path class="cls-1" d="M503.5,635.5c0,.7-.2,1.4-.4,2.5h-166.9c24.6-102.8,49.2-205.5,74.1-309.5,23.5,13,46.2,24.5,67.7,38,16.4,10.3,25.2,27,25.3,46.4.4,74.2.2,148.5.2,222.7Z"/>
      <path class="cls-1" d="M138.2,630.3c0-70.4,0-140.9,0-211.3,0-26.6,11.4-46,34.7-58.5,19.2-10.3,38.4-20.8,58.7-31.8,24.8,103.5,49.3,206.1,74.1,309.4h-167.4v-7.8Z"/>
      <path class="cls-1" d="M427.5,212.1c0,58.8-48,106.6-106.7,106.5-58.7,0-106.6-48-106.6-106.7,0-58.8,47.8-106.4,106.7-106.4,59,0,106.7,47.7,106.6,106.5Z"/>
      <path class="cls-1" d="M324.4,558.9c-1.1,3.8-1.9,7.6-2.9,11.4-.5,0-1,0-1.5-.1-4.8-20-9.6-40-14.4-60-.3-1.4-.4-2.8-.4-4.2,0-41.6,0-83.2,0-124.8,0-10.5,6.6-17,16.1-16.8,9,.2,15,6.9,15,17.2,0,26.4-.9,52.8.3,79.1,1.6,33.6-3,66.1-12.3,98.2Z"/>
    </g>
  </g>
  <g>
    <g>
      <path class="cls-13" d="M217.2,301.7c-19.6,10.8-38.5,21.3-57.5,31.5-34.9,18.8-52.4,47.7-51.9,87.4.2,16.4,0,32.8,0,49.8H1.1v-7.3c0-68.8,0-137.5,0-206.2,0-29.6,14.7-50.8,42.4-61,14.7-5.4,29.4-10.9,44.2-16,2.3-.8,5.9-1,7.8.2,27.2,16.6,56.2,20.9,87,12.8.6-.2,1.4-.2,2.6-.3-5.1,40.7,5.6,76.8,32.1,109.2Z"/>
      <path class="cls-5" d="M226.9,107.9c-.9,3-2.8,5.9-4.7,8.5-7,9.8-14.1,19.6-21.4,29.2-2.6,3.5-5.4,7.3-9.1,9.5-27.1,16.8-61.7,14.2-86.5-6.1-24.8-20.3-34.3-54.2-23.5-84.4,10.8-30.3,39.2-50.3,71.6-50.4,49.3-.2,86.6,47.1,73.6,93.7Z"/>
    </g>
    <g>
      <path class="cls-2" d="M640.6,465.4c0,1.6-.2,3.2-.4,5.2h-106.3c0-9.4.2-18.4,0-27.3-.3-14.5.5-29.2-1.7-43.4-4.3-28.5-20.4-49.8-45.3-64-18.4-10.5-37-20.4-55.6-30.6-2-1.1-4-2.4-6.5-3.9,26-32.3,37-68,31.8-108.9,7.3,1.2,14.1,2.6,21,3.4,24,2.8,46.1-2.9,67-14.9,2.8-1.6,7.3-2,10.3-1,15.7,5.3,31.3,11.1,46.8,17.1,23.7,9.3,38.8,30.9,38.9,56.2.1,70.7,0,141.3,0,211.9Z"/>
      <path class="cls-8" d="M536.5,149.2c-24.7,20.1-59.1,22.8-86,6.4-3.8-2.3-6.9-6.2-9.7-9.9-5.6-7.4-9.6-16.2-16.2-22.4-12.1-11.4-13.4-25.2-12.1-39.9,3.6-39.4,36.5-69.1,75.9-69,32.3,0,60.7,20,71.5,50.5,10.8,30.1,1.3,64.3-23.5,84.4Z"/>
    </g>
    <g>
      <path class="cls-11" d="M503.5,635.5c0,.7-.2,1.4-.4,2.5h-166.9c24.6-102.8,49.2-205.5,74.1-309.5,23.5,13,46.2,24.5,67.7,38,16.4,10.3,25.2,27,25.3,46.4.4,74.2.2,148.5.2,222.7Z"/>
      <path class="cls-10" d="M138.2,630.3c0-70.4,0-140.9,0-211.3,0-26.6,11.4-46,34.7-58.5,19.2-10.3,38.4-20.8,58.7-31.8,24.8,103.5,49.3,206.1,74.1,309.4h-167.4v-7.8Z"/>
      <path class="cls-12" d="M427.5,212.1c0,58.8-48,106.6-106.7,106.5-58.7,0-106.6-48-106.6-106.7,0-58.8,47.8-106.4,106.7-106.4,59,0,106.7,47.7,106.6,106.5Z"/>
      <path class="cls-4" d="M324.4,558.9c-1.1,3.8-1.9,7.6-2.9,11.4-.5,0-1,0-1.5-.1-4.8-20-9.6-40-14.4-60-.3-1.4-.4-2.8-.4-4.2,0-41.6,0-83.2,0-124.8,0-10.5,6.6-17,16.1-16.8,9,.2,15,6.9,15,17.2,0,26.4-.9,52.8.3,79.1,1.6,33.6-3,66.1-12.3,98.2Z"/>
    </g>
  </g>
</svg>