<?xml version="1.0" encoding="utf-8"?>
<!-- Generator: Adobe Illustrator 27.3.1, SVG Export Plug-In . SVG Version: 6.00 Build 0)  -->
<svg version="1.1" id="Layer_1" xmlns="http://www.w3.org/2000/svg" xmlns:xlink="http://www.w3.org/1999/xlink" x="0px" y="0px"
	 viewBox="0 0 80.9 50" style="enable-background:new 0 0 80.9 50;" xml:space="preserve">
<style type="text/css">
	.st0{fill:#FFFFFF;}
</style>
<g>
	<path class="st0" d="M78.9,31.3c0,0-0.2,0.1-0.2,0.1c-0.4,0-0.8,0-1.2,0c-24.8,0-49.5,0-74.3,0c-0.4,0-0.8-0.1-1.2-0.1v-0.6
		c0.4,0,0.7,0,1.1,0c18,0,36,0,54,0c7.2,0,14.3,0,21.5,0c0.1,0,0.3,0,0.3,0.1C78.9,30.9,78.9,31.1,78.9,31.3z"/>
	<path class="st0" d="M29.6,21.3c-0.6,0-1.2,0.1-1.8,0.1c-0.7,0-1.4,0.1-2.1,0.1c-0.1,0-0.2,0-0.2-0.2c0-1-0.4-1.9-1.1-2.6
		c-0.5-0.5-1-1-1.6-1.5c-0.1-0.1-0.2-0.2-0.2-0.3c-0.1-0.3-0.3-0.2-0.5-0.1c-0.8,0.4-1.5,0.7-2.4,0.8c-1.1,0.1-2.1,0.1-3.2,0.1
		c0.1-0.2,0.2-0.4,0.3-0.5c0.4-0.7,0.6-1.4,0.8-2.1c0-0.1,0-0.1,0-0.2c-0.2-0.3-0.3-0.6-0.5-0.9c0,0-0.1,0-0.1,0
		c-0.1,0.2-0.2,0.5-0.2,0.7c-0.2,1-0.7,1.9-1.4,2.7c-0.1,0.1-0.1,0.3-0.1,0.5c0.3,0.7,0.6,1.3,0.9,2c0.1,0.3,0.3,0.7,0.4,1.1
		c0.1,0.4,0.2,0.7,0.5,0.9c0.2,0.2,0.3,0.4,0.4,0.6c0.1,0.3,0,0.5-0.3,0.6c-1.2,0.2-2.3,0.3-3.5,0.1c-0.1,0-0.2,0-0.3-0.1
		c-0.1-0.1-0.2-0.2-0.1-0.2c0.3-1.3-0.1-2.5-0.7-3.6c-0.3-0.6-0.6-1.1-0.9-1.7c-0.3-0.6-0.5-1.3-0.7-1.9c-0.1,0.7-0.4,1.4-1.3,1.6
		c0.1-0.3,0.2-0.5,0.2-0.8c0.1-0.9,0-1.9-0.2-2.8c-0.1-0.6-0.3-1.3-0.3-2c0.3-2.6,1.6-4.4,3.8-5.7c1.3-0.8,2.7-1.2,4.1-1.3
		c0.8-0.1,1.6-0.1,2.5-0.2c0.1,0,0.1,0,0.2,0c0,1.3,0.1,2.5,0.5,3.6c0.4,1.3,1.1,2.4,2.2,3.1c0.2,0.1,0.5,0.2,0.8,0.3
		c0.2,0,0.5-0.1,0.7-0.2c0.2-0.1,0.2-0.1,0.4,0.1c0.4,0.6,0.9,1.2,1.4,1.8c0.2,0.2,0.4,0.4,0.6,0.6c0.1,0.1,0.1,0.2,0.1,0.2
		c-0.1,0.6-0.3,1.1-0.4,1.6c-0.1,0.2-0.2,0.4-0.4,0.5c-0.9,0.8-0.8,2-0.4,2.6c0.5,0.7,1.2,1.1,2,1.1c0.2,0,0.4,0,0.6,0.1
		c0.1,0,0.2,0,0.2,0.1c0.4,0.4,0.8,0.7,1.1,1.1C29.6,21.2,29.6,21.2,29.6,21.3z"/>
	<path class="st0" d="M68.5,13.6c-0.3,0.9-0.4,1.7-0.4,2.6c0,0.3,0.1,0.7,0.1,1c-0.8-0.2-1.2-0.8-1.4-1.5c0,0.1-0.1,0.1-0.1,0.2
		c-0.1,1-0.6,1.8-1,2.7c-0.3,0.7-0.6,1.3-0.9,2c-0.3,0.7-0.2,1.3-0.1,2c0.1,0.4,0.1,0.4-0.3,0.5c-0.7,0.2-1.5,0.1-2.2,0.1
		c-0.4,0-0.9-0.1-1.3-0.2c-0.3,0-0.4-0.2-0.3-0.5c0.1-0.2,0.2-0.4,0.4-0.6c0.3-0.3,0.5-0.7,0.6-1.1c0.3-0.8,0.6-1.5,0.9-2.3
		c0.1-0.3,0.3-0.5,0.4-0.8c0-0.1,0-0.2,0-0.3c-0.7-0.8-1.2-1.8-1.4-2.8c0-0.2-0.1-0.4-0.2-0.7c-0.2,0.4-0.7,0.7-0.5,1.4
		c0.2,0.8,0.5,1.6,1,2.4c-0.1,0-0.1,0-0.2,0c-1.1,0-2.3,0.1-3.4-0.2c-0.7-0.2-1.4-0.5-2.1-0.8c-0.1-0.1-0.2-0.1-0.3,0.1
		c-0.4,0.5-0.9,0.9-1.3,1.3c-0.2,0.2-0.5,0.5-0.7,0.7c-0.6,0.7-0.9,1.5-1,2.4c0,0.2-0.1,0.3-0.3,0.3c-0.9-0.1-1.7-0.1-2.6-0.2
		c-0.4,0-0.8-0.1-1.3-0.1c0.1-0.1,0.1-0.2,0.2-0.3c0.3-0.3,0.7-0.7,1-1c0.1-0.1,0.2-0.1,0.4-0.1c0.7-0.1,1.3-0.1,1.9-0.5
		c0.9-0.6,1.2-1.5,0.8-2.4c-0.1-0.3-0.3-0.5-0.5-0.7c-0.3-0.3-0.5-0.6-0.6-1c-0.1-0.4-0.2-0.8-0.3-1.2c0-0.1,0-0.2,0.1-0.2
		c0.5-0.3,0.9-0.8,1.3-1.3c0.3-0.4,0.6-0.8,0.9-1.3c0.7,0.5,1.3,0.3,1.9-0.1c1.2-0.8,1.8-2,2.1-3.4c0.2-1,0.4-2.1,0.4-3.1
		c0,0,0-0.1,0-0.1c0.4,0,0.7,0.1,1.1,0.1c0.8,0.1,1.5,0.1,2.3,0.2c3,0.5,5.4,2,6.7,4.9C68.8,10.9,68.9,12.2,68.5,13.6z"/>
	<path class="st0" d="M44,13.8c0.1-0.2,0.3-0.2,0.5-0.2c0.7,0,1.4,0,2.1,0c0.2,0,0.2,0,0.2-0.2c0-1.5,0-3.1,0-4.6c0-0.1,0-0.1,0-0.2
		c-0.1,0-0.1,0-0.2,0c-0.6,0.1-1.2,0.3-1.8,0.4c-0.1,0-0.3,0-0.4-0.1c-0.4-0.2-0.8-0.4-1.3-0.5c-1.7-0.6-3.4-0.7-5.1-0.5
		c-1.3,0.1-2.5,0.4-3.6,1c-0.3,0.1-0.5,0.2-0.8,0.1c-0.6-0.1-1.2-0.3-1.9-0.4c-0.3-0.1-0.3-0.1-0.3,0.2c0,1.5,0,2.9,0,4.4
		c0,0.4,0,0.4,0.4,0.4h2.1c0.1,0,0.2,0,0.3,0.1c0.3,0.3,0.6,0.6,0.9,0.9c0,0,0,0,0,0.1h-3.6c0.2,0.8,0.4,1.5,0.6,2.2
		c1.3,3.7,3.8,6.3,7,8.4c0.1,0,0.2,0,0.3,0c1.1-0.8,2.1-1.6,3.1-2.4c2-1.8,3.4-4,4-6.6c0.1-0.5,0.1-0.9,0.2-1.5h-3.5
		C43.6,14.3,43.8,14.1,44,13.8z M43.1,13.5c0,0.3-0.2,0.5-0.5,0.6c-0.3,0.1-0.6,0.1-0.9,0.2c-0.5,0-0.9-0.1-1.3-0.4
		c-0.3-0.2-0.3-0.3,0-0.6c0.4-0.4,0.9-0.5,1.5-0.6c0.2,0,0.5,0,0.8,0.1C43,12.9,43.1,13.1,43.1,13.5z M40.7,10.2
		c0.1,0,0.2-0.1,0.2,0c0.1,0,0.1,0.1,0.1,0.2c0,0.4-0.2,0.8-0.6,0.9c-0.2,0.1-0.3,0-0.3-0.2C40.2,10.6,40.4,10.3,40.7,10.2z
		 M40.3,11.8c0.5-0.4,1-0.6,1.6-0.6c0.1,0,0.2,0,0.2,0.2c-0.3,0.8-1.4,1.5-2.3,1.4c0,0-0.1,0-0.1,0C39.8,12.3,40,12,40.3,11.8z
		 M39.9,15.4c-0.2-0.3-0.5-0.6-0.7-0.9c-0.2,0.3-0.4,0.6-0.6,0.9c0,0-0.1,0-0.1,0c0-0.3,0-0.6,0-1c0-0.4,0.2-0.9,0.5-1.2
		c0.2-0.2,0.3-0.2,0.5-0.1C39.9,13.5,40.2,14.7,39.9,15.4z M39.1,9.6c0.1-0.1,0.2-0.1,0.3,0c0.5,0.6,0.5,1.9,0,2.6
		c-0.1,0.2-0.2,0.2-0.3,0c-0.2-0.4-0.4-0.8-0.3-1.3C38.7,10.4,38.8,9.9,39.1,9.6z M37.5,10.1c0.4,0.1,0.9,0.6,0.8,1.1
		c0,0.1-0.1,0.1-0.2,0.1C37.6,11.1,37.4,10.6,37.5,10.1z M36.6,11.2c0.9,0.1,1.6,0.4,2.1,1.2c0.1,0.1,0.1,0.2,0.2,0.4
		c-0.3,0-0.5,0-0.7-0.1c-0.7-0.2-1.3-0.6-1.7-1.3C36.3,11.2,36.4,11.1,36.6,11.2z M35.8,12.8c0.7-0.3,1.9-0.1,2.4,0.5
		c0.1,0.2,0.1,0.3,0,0.4c-0.4,0.4-0.9,0.4-1.6,0.5c-0.2,0-0.5-0.1-0.7-0.2c-0.3-0.1-0.4-0.3-0.4-0.6C35.4,13.2,35.5,13,35.8,12.8z
		 M37.1,19.4c-0.7,0-1.4,0-2.1,0c-0.2,0-0.3-0.1-0.4-0.3c-0.3-0.5-0.3-0.8,0.1-1.2c0,0,0-0.1,0.1-0.1c0.6-0.6,0.7-1.3,0.6-2.1
		c0,0,0-0.1,0-0.1c0.2,0.2,0.5,0.4,0.7,0.7c-0.1,0-0.1,0.1-0.2,0c-0.2,0-0.3,0.1-0.3,0.3c0,0.2,0.1,0.2,0.3,0.2c0.5,0,0.5,0,0.5-0.5
		c0-0.2,0-0.5,0-0.7c0,0,0,0,0-0.1c0.2,0.2,0.4,0.5,0.7,0.7c-0.1,0-0.2,0-0.4,0.1c0,0.3,0,0.5,0.1,0.7c0.3,0.4,0.5,0.8,0.8,1.2
		C37.8,18.6,37.4,19.4,37.1,19.4z M40.8,22.4C40.8,22.4,40.8,22.4,40.8,22.4c-0.2,0.6-0.6,0.8-1.1,0.7c-0.5,0-1.1,0-1.6,0
		c-0.2,0-0.3-0.1-0.4-0.2c-0.4-0.8-0.4-0.5,0.1-1.3c0,0,0.1-0.1,0.1-0.1c0.6-0.6,0.7-1.3,0.6-2c0,0,0-0.1,0-0.2
		c0.3,0.3,0.5,0.5,0.7,0.7c-0.1,0-0.2,0-0.2,0c-0.3,0-0.3,0.2-0.3,0.3c0,0.2,0.1,0.2,0.3,0.2h0.5v-1.2c0,0,0,0,0.1,0
		c0.2,0.2,0.4,0.5,0.7,0.7c-0.1,0.1-0.1,0.1-0.1,0.1c-0.1,0-0.3,0-0.3,0.1c0,0.2,0,0.4,0.1,0.5c0.3,0.4,0.6,0.9,0.9,1.3
		C40.9,22.1,40.9,22.2,40.8,22.4z M43.4,16.4C43.4,16.4,43.3,16.4,43.4,16.4c-0.2,0.1-0.4,0.1-0.4,0.2c0,0.2,0,0.4,0.1,0.6
		c0.3,0.4,0.6,0.9,0.9,1.3c0.1,0.1,0.1,0.2,0,0.4c-0.2,0.6-0.6,0.8-1.2,0.7c-0.5-0.1-1,0-1.6,0c-0.2,0-0.3-0.1-0.4-0.2
		c-0.3-0.7-0.3-0.7,0.1-1.3c0,0,0,0,0,0c0.5-0.6,0.7-1.2,0.6-2c0-0.1,0-0.1,0-0.2c0,0,0,0,0.1,0c0.2,0.2,0.4,0.4,0.7,0.7
		c-0.1,0-0.1,0-0.2,0.1c-0.3,0-0.4,0.2-0.3,0.4c0,0,0.1,0.1,0.1,0.1c0,0,0,0,0,0c0.2,0,0.4,0,0.6-0.1c0.1-0.1,0.1-0.3,0.1-0.5
		c0-0.2,0-0.5,0-0.7c0,0,0,0,0.1-0.1C43,15.9,43.2,16.2,43.4,16.4z"/>
	<path class="st0" d="M73.5,24.3c-0.3-1.1-1-2.1-1.7-3c0,0-0.1-0.1-0.1-0.1c0,0.2,0.1,0.5,0,0.7c-0.1,0.5-0.5,0.7-0.9,0.9
		c-0.2,0.1-0.3,0.1-0.3-0.1c-0.1-0.5-0.3-0.9-0.3-1.4c-0.1-0.8,0-1.5,0.8-2c0.2-0.1,0.3-0.2,0.2-0.4c-0.1-0.2-0.3-0.2-0.4-0.1
		c-0.8,0.5-1.1,1.3-1,2.2c0.1,0.6,0.3,1.3,0.4,1.9c0,0.2,0,0.3-0.2,0.4c-0.2,0.1-0.4,0.2-0.6,0.3c-2.6,1-5.4,1.2-8.1,0.6
		c-3.9-0.8-7.8-1.5-11.8-1.8c-1.9-0.1-3.9,0-5.7,0.5c-0.1,0-0.3,0.1-0.4,0.2c-0.6,0.5-1.1,1-1.7,1.5c0.1,0.1,0.2,0.2,0.3,0.4
		c0.6,0.9,1.2,1.7,1.9,2.6c0.1,0.1,0.2,0.2,0.4,0.1c1.1-0.4,2.2-0.5,3.3-0.5c1.2,0,2.3,0.2,3.4,0.4c2.3,0.4,4.6,0.8,6.9,1.1
		c1.9,0.3,3.8,0.6,5.7,0.8c2.3,0.2,4.6,0,6.8-0.8c1-0.4,1.9-0.8,2.6-1.6C73.4,26.2,73.8,25.3,73.5,24.3z M51.4,25.4
		c-0.1,0-0.3,0-0.4,0c-0.1,0.1-0.1,0.3-0.1,0.4c0,0.2-0.1,0.2-0.3,0.2c-0.2,0-0.2-0.1-0.1-0.2c0.1-0.6,0.2-1.2,0.3-1.8
		c0-0.1,0.1-0.2,0.2-0.2c0.2,0,0.5,0.1,0.7,0.1c0.4,0.1,0.6,0.5,0.5,0.8C52.1,25.2,51.8,25.4,51.4,25.4z M54.2,26
		c0.1,0.2,0.2,0.4,0.3,0.6c-0.3,0.1-0.5,0-0.6-0.3c-0.1-0.2-0.1-0.3-0.2-0.5c-0.1-0.1-0.2-0.1-0.3-0.2c-0.1,0.1-0.1,0.2-0.1,0.2
		c0,0.1-0.1,0.2-0.1,0.4c0,0.1-0.1,0.2-0.2,0.2c-0.1,0-0.2-0.1-0.2-0.2c0.1-0.6,0.2-1.2,0.3-1.8c0-0.1,0.1-0.2,0.2-0.2
		c0.3,0.1,0.6,0.1,0.9,0.2c0.5,0.2,0.5,0.9,0,1.1C54.2,25.7,54.1,25.8,54.2,26z M57.2,25.1c0,0.1-0.2,0.1-0.2,0.1
		c-0.3,0-0.5-0.1-0.8-0.1c-0.1,0.6-0.1,0.5,0.4,0.6c0.4,0.1,0.4,0,0.3,0.4c-0.2,0-0.4-0.1-0.6-0.1c-0.1,0-0.3,0-0.3,0.1
		C56,26.2,56,26.4,56,26.5c0,0,0.1,0.1,0.1,0.1c0.2,0,0.4,0.1,0.6,0.1c0.1,0,0.2,0.1,0.2,0.2c0,0.2-0.1,0.2-0.3,0.2
		c-0.3-0.1-0.7-0.1-1-0.2c-0.1,0-0.1-0.1-0.1-0.2c0.1-0.6,0.2-1.3,0.3-1.9c0-0.1,0.1-0.1,0.2-0.1c0.3,0,0.7,0.1,1,0.2
		C57.1,24.8,57.2,24.9,57.2,25.1z M58.7,27.5c-0.2-0.9-0.5-1.7-0.7-2.5c0.3-0.1,0.5,0,0.5,0.3c0.1,0.4,0.2,0.8,0.3,1.3
		c0.2-0.4,0.5-0.8,0.7-1.1c0.2-0.3,0.2-0.3,0.6-0.1C59.7,26,59.2,26.7,58.7,27.5z M62.6,27.9c-0.3,0.1-0.4,0-0.5-0.2
		c0-0.3-0.2-0.4-0.4-0.4c-0.1,0-0.1,0-0.2,0c-0.2,0-0.4,0-0.5,0.2c-0.1,0.3-0.2,0.3-0.5,0.1c0.4-0.7,0.9-1.4,1.3-2.1
		c0.1,0.1,0.1,0.2,0.2,0.3C62.2,26.4,62.4,27.1,62.6,27.9C62.6,27.8,62.6,27.9,62.6,27.9z M64,27.8C64,28,64,28,63.8,28
		c-0.1,0-0.2,0-0.2-0.2c0-0.3,0-0.6,0-0.9h0.1c0-0.3,0-0.6,0-0.9c0-0.1,0-0.2,0.2-0.2c0.2,0,0.2,0.1,0.2,0.2
		C64.1,26.6,64,27.2,64,27.8z M66.5,27.9c-0.4,0-0.7,0.1-1.1,0.1c0,0-0.1-0.1-0.1-0.2c-0.1-0.6-0.1-1.3-0.2-1.9
		c0-0.1,0.1-0.1,0.2-0.2c0.1,0,0.2,0,0.2,0.2c0,0.5,0.1,0.9,0.1,1.4c0,0.3,0,0.3,0.3,0.3c0.2,0,0.3,0,0.5,0c0.1,0,0.2,0.1,0.2,0.1
		C66.8,27.8,66.7,27.9,66.5,27.9z"/>
	<path class="st0" d="M36.7,24.4c-0.5-0.4-0.9-0.8-1.4-1.3c-0.1-0.1-0.3-0.2-0.4-0.2c-1.4-0.4-2.9-0.6-4.4-0.5
		c-2.3,0.1-4.6,0.4-6.9,0.7c-2,0.3-4,0.7-6,1.1c-2.1,0.4-4.2,0.4-6.3,0c-0.9-0.2-1.9-0.5-2.7-0.9c-0.2-0.1-0.2-0.1-0.1-0.3
		c0.1-0.3,0.2-0.5,0.2-0.8c0.2-0.6,0.3-1.3,0.1-2c-0.1-0.6-0.5-1-1-1.4c-0.2-0.1-0.3,0-0.4,0.1c-0.1,0.1,0,0.2,0.1,0.3
		c0.1,0,0.1,0.1,0.2,0.1c0.4,0.3,0.6,0.6,0.7,1.1c0.1,0.6,0,1.1-0.1,1.6c-0.1,0.3-0.2,0.5-0.2,0.8c-0.9-0.4-1.2-0.9-1-1.7
		c-0.1,0.1-0.3,0.3-0.4,0.4C6,22.3,5.6,23,5.2,23.8c-0.6,1.2-0.3,2.3,0.6,3.2c0.6,0.6,1.4,1.1,2.2,1.4c1.3,0.5,2.7,0.9,4.1,1
		c1.3,0.1,2.7,0.1,4,0c2-0.3,4-0.6,5.9-0.9c1.9-0.3,3.7-0.6,5.6-0.9c1.5-0.3,2.9-0.5,4.4-0.4c0.8,0.1,1.6,0.2,2.4,0.5
		c0.2,0.1,0.3,0,0.3-0.1c0.6-0.9,1.3-1.9,1.9-2.8C36.8,24.5,36.8,24.5,36.7,24.4z M10.8,27.8c-0.4-0.1-0.8-0.2-1.1-0.3
		c0,0-0.1-0.1-0.1-0.2c0.1-0.6,0.3-1.3,0.4-1.9c0-0.1,0.1-0.1,0.2-0.1c0.2,0,0.2,0.1,0.2,0.3c-0.1,0.4-0.2,0.9-0.3,1.3
		c-0.1,0.3,0,0.4,0.2,0.4c0.2,0,0.3,0.1,0.5,0.1c0.1,0,0.1,0.1,0.1,0.2C10.9,27.8,10.8,27.8,10.8,27.8z M13.4,26.2
		c-0.2,0-0.4,0-0.6,0c-0.1,0-0.2,0-0.3,0c0,0,0,0.1,0,0.1c-0.1,0.4,0,0.5,0.4,0.5c0.1,0,0.2,0,0.3,0c0.1,0,0.2,0,0.2,0.2
		c0,0.2-0.1,0.2-0.3,0.2c-0.1,0-0.3,0-0.4,0c-0.2,0-0.3,0-0.3,0.3c0,0.1,0,0.2,0,0.3c0.3,0,0.5,0.1,0.7,0.1c0.1,0,0.2,0,0.2,0.2
		c0,0.2-0.1,0.2-0.2,0.2c-0.3,0-0.7-0.1-1-0.1c-0.1,0-0.2-0.1-0.1-0.2c0.1-0.7,0.1-1.4,0.2-2.1c0.4,0,0.9,0.1,1.3,0.1
		c0,0,0.1,0.1,0.1,0.2C13.5,26.2,13.5,26.2,13.4,26.2z M16,26.2c-0.5,0-0.5-0.1-0.4,0.5c0,0.4,0,0.8,0.1,1.2c0,0.2-0.1,0.2-0.2,0.2
		c-0.2,0-0.2-0.1-0.2-0.2c0-0.5,0-1.1-0.1-1.6h-0.5c-0.1,0-0.2-0.1-0.2-0.2c0-0.1,0.1-0.1,0.2-0.1c0.5,0,0.9-0.1,1.4-0.1
		c0.1,0,0.3,0,0.3,0.2C16.3,26.2,16.1,26.2,16,26.2z M19.9,25.6c-0.2,0.1-0.4,0.1-0.5,0.2c-0.1,0.1,0,0.3,0.1,0.5
		c0.1,0.3,0.1,0.7,0.2,1c0,0.1,0,0.3-0.1,0.3c-0.2,0-0.2-0.1-0.3-0.2c-0.1-0.4-0.2-0.9-0.2-1.3c-0.1-0.3,0-0.3-0.4-0.3
		c-0.1,0-0.2,0.1-0.3,0c-0.1,0-0.1-0.1-0.2-0.2c0,0,0.1-0.2,0.1-0.2c0.5-0.1,1-0.2,1.5-0.3c0.1,0,0.2,0.1,0.3,0.2
		C20.1,25.6,20,25.6,19.9,25.6z M22.4,26.9c-0.1-0.1-0.2-0.3-0.4-0.4c-0.1-0.1-0.2-0.1-0.3-0.1c0,0.1-0.1,0.2-0.1,0.3
		c0,0.1,0,0.2,0.1,0.3c0,0.1,0,0.2-0.2,0.2c-0.1,0-0.2,0-0.2-0.2c-0.1-0.6-0.3-1.2-0.4-1.9c0-0.1,0-0.2,0.1-0.2
		c0.3-0.1,0.7-0.1,1-0.1c0.5,0.1,0.7,0.7,0.4,1.1c-0.1,0.1-0.1,0.2,0,0.3c0.2,0.2,0.4,0.3,0.6,0.5C22.7,27.1,22.6,27.1,22.4,26.9z
		 M24.6,26.6c-0.4,0-0.7-0.2-0.8-0.6c-0.1-0.5-0.2-0.9-0.3-1.4c0-0.1,0.1-0.2,0.2-0.2c0.1-0.1,0.2,0,0.3,0.1c0.1,0.3,0.1,0.6,0.2,1
		c0,0.1,0.1,0.2,0.1,0.3c0.1,0.3,0.3,0.3,0.5,0.3c0.3-0.1,0.4-0.2,0.3-0.5C25,25.3,25,25,24.9,24.6c0-0.1,0-0.2,0-0.3
		c0-0.1,0.2-0.1,0.3-0.1c0.1,0,0.1,0.1,0.1,0.2c0.1,0.4,0.2,0.8,0.2,1.2C25.6,26.2,25.2,26.6,24.6,26.6z M28,24.1
		C28,24.1,27.9,24.1,28,24.1c-0.5,0.1-0.5,0.1-0.4,0.6c0.1,0.4,0.1,0.8,0.2,1.1c0,0.1,0,0.2-0.1,0.3c-0.2,0-0.3,0-0.3-0.2
		c-0.1-0.5-0.1-0.9-0.2-1.4c0-0.3,0-0.3-0.4-0.3c-0.1,0-0.1,0-0.2,0c-0.1,0-0.2,0-0.2-0.2c0-0.1,0.1-0.2,0.2-0.2
		c0.5-0.1,1-0.1,1.5-0.2c0,0,0.1,0.1,0.1,0.2C28.1,24,28,24,28,24.1z M31,25.8c-0.2,0-0.2-0.1-0.2-0.2c0-0.2,0-0.5,0-0.7
		c-0.3,0-0.6,0-0.9,0c-0.1,0-0.1,0.1-0.1,0.2c0,0.2,0,0.4,0,0.5c0,0.2-0.1,0.2-0.2,0.2c-0.2,0-0.2-0.1-0.2-0.2c0-0.6,0-1.2,0-1.8
		c0-0.1,0-0.2,0.2-0.2c0.2,0,0.2,0.1,0.2,0.2c0,0.2-0.1,0.5,0.1,0.6c0.1,0.1,0.4,0,0.6,0c0.3,0,0.3,0,0.3-0.3c0-0.1,0-0.3,0-0.4
		c0-0.2,0-0.2,0.2-0.2c0.2,0,0.2,0.1,0.2,0.2c0,0.6,0,1.2,0,1.8C31.2,25.8,31.1,25.8,31,25.8z"/>
	<path class="st0" d="M57,4.1c-0.3-0.6-0.9-0.9-1.5-0.5c-0.3,0.2-0.6,0.4-0.8,0.7c-0.2,0.2-0.4,0.5-0.6,0.7
		c-0.3-0.3-0.3-0.6-0.1-0.9c0.1-0.1,0.1-0.2,0.2-0.2c0.2-0.2,0.1-0.4-0.1-0.5c-0.3-0.1-0.5-0.2-0.8-0.3c-1.8-0.4-3.3,0.4-3.9,2.2
		c-0.1,0.4-0.3,0.8-0.4,1.1c-0.4,0.7-0.5,1.5-0.5,2.3c0,1,0,1.9,0,2.9c0,0.2,0,0.4,0,0.6c0.1,0,0.1,0,0.1,0c0.8-0.5,1.3-1.1,1.4-2
		c0-0.2,0.1-0.3,0.3-0.3c0.3,0,0.7,0,1-0.1c0.4-0.1,0.7-0.2,1.1-0.3c0.1,0,0.3-0.1,0.4,0.1c0,0.1-0.1,0.2-0.2,0.3
		c-0.2,0.2-0.4,0.3-0.6,0.4c-0.1,0.1-0.2,0.1-0.1,0.3c0.1,0.3,0.2,0.6,0.2,0.9c0,0.1,0,0.3,0.1,0.4c0.1,0,0.1,0,0.2-0.1
		c0.5-0.6,1.1-1.3,1.7-1.9c0,0,0.1,0.1,0.1,0.2c0.4,0.6,0.9,0.6,1.4,0.2c0.3-0.2,0.5-0.5,0.7-0.8c0.7-1.1,1.1-2.2,1.2-3.5
		C57.2,5.2,57.2,4.6,57,4.1z M51.8,7.2c-0.3,0.2-0.5,0.1-0.7-0.1c0,0.1,0,0.1-0.1,0.1c-0.1,0.1-0.2,0.2-0.3,0.2
		c-0.1,0-0.2-0.1-0.2-0.3c0.1-0.5,0.3-1,0.7-1.3c0.1-0.1,0.2-0.1,0.3-0.1c0,0,0.1,0.1,0.1,0.1c-0.1,0.2-0.2,0.4-0.4,0.6
		c0.3,0,0.7,0,0.7,0.4C52,6.9,51.9,7.1,51.8,7.2z"/>
	<path class="st0" d="M30.1,11.3c0-1,0-1.9,0-2.9c0-0.7-0.1-1.4-0.5-2.1c-0.2-0.3-0.3-0.7-0.4-1.1c-0.6-2.1-2.8-3.1-4.7-2.1
		c-0.3,0.2-0.3,0.3-0.1,0.6c0,0,0.1,0.1,0.1,0.1c0.2,0.3,0.2,0.6,0,1c-0.1-0.1-0.1-0.1-0.2-0.2c-0.3-0.3-0.6-0.6-0.9-0.9
		c-0.2-0.2-0.4-0.3-0.7-0.4c-0.4-0.1-0.8,0-1,0.3c-0.1,0.2-0.2,0.4-0.3,0.7c-0.1,0.5-0.1,1.1,0,1.6c0.2,1.3,0.6,2.5,1.4,3.6
		c0.2,0.2,0.4,0.4,0.6,0.6c0.5,0.3,0.9,0.3,1.3-0.2c0.1-0.1,0.1-0.2,0.2-0.3c0.6,0.7,1,1.5,1.8,2c0.1-0.5,0.2-0.9,0.4-1.3
		c0-0.2,0-0.2-0.1-0.3c-0.2-0.1-0.4-0.3-0.7-0.5c-0.1-0.1-0.2-0.2-0.1-0.3c0.1-0.1,0.2-0.1,0.3,0c0.6,0.3,1.3,0.4,2,0.4
		c0.3,0,0.3,0.1,0.4,0.3c0.1,0.8,0.6,1.4,1.2,1.9c0.1,0.1,0.2,0.1,0.3,0.1C30.1,11.8,30.1,11.6,30.1,11.3z M27.6,7.4
		c-0.1,0-0.2-0.1-0.3-0.1c0,0-0.1-0.1-0.1-0.2c-0.2,0.3-0.5,0.3-0.7,0.1c-0.2-0.1-0.2-0.3-0.2-0.5c0.1-0.4,0.4-0.4,0.7-0.4
		c-0.1-0.2-0.3-0.4-0.4-0.7c0,0,0-0.1,0.1-0.1c0.1,0,0.2,0.1,0.3,0.1c0.5,0.3,0.6,0.9,0.8,1.4C27.8,7.2,27.7,7.4,27.6,7.4z"/>
	<path class="st0" d="M60.4,40.1c0.1,0,0.1,0.1,0.1,0.1c-0.1,0-0.1,0.1-0.2,0.1c-1,0-1.9,0-2.9,0c-0.1,0-0.1-0.1-0.2-0.1
		c0-0.1,0.1-0.1,0.1-0.1c0,0,0.1,0,0.1,0c0.6-0.1,0.6-0.2,0.6-0.8v-4.7c0,0-0.1,0-0.1,0c0,0.1-0.1,0.2-0.1,0.2
		c-0.7,1.7-1.4,3.4-2.2,5.1c-0.1,0.1-0.1,0.2-0.2,0.4c-0.1-0.1-0.1-0.2-0.2-0.3c-0.7-1.7-1.5-3.4-2.2-5.2c0-0.1-0.1-0.2-0.1-0.2
		c0,0,0,0-0.1,0c0,0.1,0,0.2,0,0.3c0,1.4,0,2.7,0,4.1v0.2c0,0.6,0.2,0.7,0.7,0.8c0.1,0,0.2,0.1,0.2,0.1c-0.1,0-0.2,0.1-0.3,0.1
		c-0.6,0-1.1,0-1.7,0c-0.1,0-0.2-0.1-0.2-0.1c0.1,0,0.1-0.1,0.2-0.1c0.5-0.1,0.6-0.2,0.6-0.7c0-1.6,0-3.2,0-4.7
		c0-0.4-0.1-0.5-0.5-0.6c-0.1,0-0.1,0-0.2,0c-0.1,0-0.1-0.1-0.2-0.1c0.1,0,0.1-0.1,0.2-0.1c0.7,0,1.4,0,2.1,0c0.1,0,0.2,0.1,0.3,0.2
		c0.6,1.4,1.2,2.7,1.7,4.1c0,0.1,0.1,0.2,0.1,0.3c0.1-0.1,0.1-0.2,0.2-0.3c0.6-1.4,1.1-2.7,1.7-4.1c0.1-0.2,0.1-0.2,0.3-0.2
		c0.7,0,1.3,0,2,0c0.1,0,0.1,0.1,0.2,0.1c-0.1,0-0.1,0.1-0.2,0.1c-0.6,0.2-0.7,0.2-0.7,0.8c0,1.5,0,2.9,0,4.4
		C59.7,39.8,59.8,40,60.4,40.1z"/>
	<path class="st0" d="M18.2,36.4c0,0.9,0,1.9,0,2.8c0,0.5,0.1,0.8,0.7,0.8c0.1,0,0.1,0.1,0.2,0.2c-1.1,0.1-2.2,0-3.3,0.1
		c0,0,0-0.1,0-0.1c0.1,0,0.1-0.1,0.2-0.1c0.6-0.1,0.7-0.2,0.7-0.8c0-0.6,0-1.2,0-1.9c0-0.1,0-0.2,0-0.3c-0.8,0-1.5,0-2.2,0
		c-0.1,0-0.2,0.1-0.2,0.2c0,0.7,0,1.3,0,2c0,0.6,0.1,0.7,0.7,0.8c0.1,0,0.1,0.1,0.2,0.1c-0.1,0-0.1,0.1-0.2,0.1c-0.9,0-1.9,0-2.8,0
		c-0.1,0-0.2,0-0.3,0c0,0,0,0,0-0.1c0.1,0,0.2-0.1,0.3-0.1c0.5-0.1,0.6-0.2,0.6-0.7c0-1.6,0-3.1,0-4.7c0-0.5-0.1-0.6-0.6-0.7
		c-0.1,0-0.2-0.1-0.3-0.1v-0.1c0.1,0,0.2-0.1,0.3-0.1c0.9,0,1.9,0,2.8,0c0.1,0,0.2,0,0.2,0.1c0,0,0,0.1,0,0.1
		c-0.1,0-0.2,0.1-0.3,0.1c-0.4,0.1-0.6,0.2-0.6,0.7c0,0.6,0,1.2,0,1.9c0,0.1,0,0.2,0.2,0.2c0.7,0,1.3,0,2,0c0.2,0,0.2-0.1,0.2-0.2
		c0-0.6,0-1.2,0-1.9c0-0.4-0.2-0.6-0.6-0.6c-0.1,0-0.2-0.1-0.3-0.2c0.1,0,0.2-0.1,0.3-0.1c0.9,0,1.8,0,2.7,0c0.1,0,0.2,0,0.3,0.1
		v0.1c-0.1,0-0.2,0.1-0.4,0.1c-0.4,0.1-0.5,0.2-0.5,0.6C18.2,35.2,18.2,35.8,18.2,36.4z"/>
	<path class="st0" d="M34.5,49c-0.1-0.1-0.3-0.2-0.4-0.4c-0.6-0.7-1.1-1.5-1.7-2.2c-0.1-0.1-0.2-0.2-0.3-0.4c0.4-0.2,0.7-0.3,1-0.5
		c0.7-0.5,0.8-1.6,0.2-2.2c-0.4-0.4-0.9-0.6-1.5-0.6c-1.3,0-2.5,0-3.8-0.1c-0.1,0-0.2,0.1-0.2,0.1c0.1,0.1,0.2,0.1,0.2,0.1
		c0.5,0.1,0.6,0.2,0.6,0.8c0,1.5,0,3.1,0,4.6c0,0.4-0.2,0.6-0.6,0.7c-0.1,0-0.2,0.1-0.2,0.1c0.1,0,0.2,0.1,0.2,0.1
		c0.9,0,1.9,0,2.8,0c0.1,0,0.1,0,0.2,0c0,0,0-0.1,0-0.1c-0.1,0-0.1-0.1-0.2-0.1c-0.5-0.1-0.7-0.3-0.7-0.8c0-0.6,0-1.2,0-1.8
		c0,0,0-0.1,0-0.2c0.1,0.1,0.2,0.2,0.2,0.2c0.6,0.9,1.3,1.7,1.9,2.6c0.1,0.1,0.2,0.2,0.3,0.2c0.6,0,1.2,0,1.9,0
		C34.5,49.1,34.5,49.1,34.5,49z M32,45.2c0,0.2-0.2,0.4-0.4,0.5c-0.4,0.1-0.7,0.1-1.1,0.2c0,0-0.1-0.1-0.1-0.2c0-0.4,0-0.8,0-1.1
		v-1.1c0-0.2,0.1-0.4,0.4-0.4c0.7-0.1,1.3,0.1,1.4,0.9C32,44.4,32,44.8,32,45.2z"/>
	<path class="st0" d="M43.6,29.6c-2.8-0.4-5.6-0.5-8.4,0c1-1.4,1.9-2.8,2.8-4.2c0.4,0.2,0.8,0.5,1.1,0.7c0.2,0.1,0.3,0.1,0.5,0
		c0.2-0.2,0.5-0.3,0.8-0.5c0.2-0.2,0.3-0.1,0.4,0.1c0.7,1,1.5,2.1,2.2,3.1C43.1,29,43.3,29.3,43.6,29.6z"/>
	<path class="st0" d="M41.6,42.6c-2,0-3.5,1.4-3.5,3.4c0,1.8,1.1,3.4,3.4,3.5c2,0,3.5-1.5,3.4-3.4C45,44.1,43.5,42.6,41.6,42.6z
		 M43.1,47.7c-0.1,0.3-0.2,0.7-0.4,1c-0.7,0.8-1.9,0.6-2.4-0.3c-0.2-0.4-0.3-0.9-0.4-1.5c0-0.3,0-0.6-0.1-0.9c0,0,0,0-0.1,0
		c0.1-0.6,0.2-1.2,0.3-1.8c0-0.2,0.1-0.4,0.2-0.6c0.5-0.9,1.7-1,2.4-0.2c0.4,0.4,0.5,1,0.6,1.5C43.3,45.8,43.3,46.8,43.1,47.7z"/>
	<path class="st0" d="M64.2,44.2c-0.1-0.6-0.4-1.1-1-1.3c-0.2-0.1-0.5-0.2-0.7-0.2c-1.2,0-2.4,0-3.7-0.1c-0.1,0-0.2,0.1-0.2,0.1v0.1
		c0.1,0,0.2,0.1,0.3,0.1c0.4,0.1,0.5,0.2,0.6,0.7c0,0.1,0,0.2,0,0.2c0,1.4,0,2.9,0,4.3c0,0.5-0.1,0.8-0.6,0.8
		c-0.1,0-0.1,0.1-0.2,0.2c0,0,0,0,0,0.1h3c0,0,0,0,0,0c0,0,0.1-0.1,0.1-0.1c0,0,0-0.1-0.1-0.1c-0.1,0-0.1,0-0.2-0.1
		c-0.4-0.1-0.5-0.2-0.5-0.6c0-0.7,0-1.4,0-2.1c0.4,0,0.8-0.1,1.2-0.1c0.5,0,0.9-0.1,1.3-0.4C64.1,45.4,64.3,44.9,64.2,44.2z
		 M62.5,45.2c0,0.4-0.3,0.6-0.7,0.7c-0.2,0-0.5,0.1-0.7,0.1c-0.2,0-0.2-0.1-0.2-0.2c0-0.4,0-0.8,0-1.2c0,0,0,0,0,0v-1.2
		c0-0.2,0.1-0.3,0.3-0.4c0.8-0.1,1.2,0.1,1.3,0.9C62.6,44.4,62.5,44.8,62.5,45.2z"/>
	<path class="st0" d="M28.4,38.6c-0.1,0.5-0.2,0.9-0.3,1.4c0,0.2-0.1,0.3-0.3,0.3c-0.9,0-1.8,0-2.7,0c-0.8,0-1.6,0-2.4,0
		c-0.1,0-0.3,0-0.4,0c0,0,0-0.1,0-0.1c0.1,0,0.2-0.1,0.3-0.1c0.5-0.1,0.6-0.3,0.6-0.7c0-1.5,0-3.1,0-4.6c0-0.5-0.1-0.6-0.6-0.8
		c-0.1,0-0.2-0.1-0.3-0.1c0,0,0-0.1,0-0.1c0.1,0,0.2-0.1,0.2-0.1c1.7,0,3.4,0,5.2,0c0.1,0,0.2,0,0.2,0.2c0,0.6,0,1.1,0,1.7
		c0,0,0,0.1-0.1,0.1c-0.1,0-0.1-0.1-0.1-0.1s0-0.1-0.1-0.1c-0.3-1.1-0.8-1.4-1.8-1.4c-0.2,0-0.5,0-0.7,0c-0.2,0-0.4,0.1-0.4,0.4
		c0,0.7,0,1.4,0,2.2c0,0.2,0.1,0.2,0.2,0.2c0.7,0,1.1-0.3,1.3-1c0-0.2,0.1-0.3,0.1-0.5h0.1c0,0.1,0.1,0.2,0.1,0.3c0,0.9,0,1.8,0,2.7
		c0,0.1-0.1,0.2-0.1,0.3c-0.1-0.1-0.1-0.1-0.2-0.2c0-0.1,0-0.2,0-0.2c-0.1-0.8-0.6-1-1.3-1c-0.1,0-0.2,0-0.2,0.2c0,0.8,0,1.5,0,2.2
		c0,0.2,0.1,0.4,0.4,0.4c1.5,0.2,2.3-0.3,2.9-1.4c0.1-0.1,0.2-0.2,0.3-0.3C28.4,38.4,28.4,38.5,28.4,38.6z"/>
	<path class="st0" d="M70,38.5c-0.1,0.5-0.2,1-0.3,1.5c0,0.2-0.1,0.2-0.3,0.2c-1.7,0-3.5,0-5.2,0c-0.1,0-0.2,0-0.2,0l0-0.1
		c0.1,0,0.2-0.1,0.3-0.1c0.5-0.1,0.6-0.2,0.6-0.7v-4.6c0-0.6-0.1-0.7-0.7-0.8c-0.1,0-0.2-0.1-0.2-0.1v-0.1c0.1,0,0.3,0,0.4,0
		c1.6,0,3.1,0,4.7,0c0.5,0,0.5,0,0.5,0.5c0,0.4,0,0.8,0,1.2c0,0.1,0,0.2,0,0.2c0,0,0,0-0.1,0c-0.1-0.1-0.1-0.1-0.1-0.2
		c-0.1-0.1-0.1-0.3-0.1-0.4c-0.2-0.5-0.6-0.8-1.1-0.9c-0.4-0.1-0.8-0.1-1.3-0.1c-0.3,0-0.4,0.1-0.4,0.4c0,0.7,0,1.4,0,2.2
		c0,0.1,0.1,0.2,0.1,0.2c0.7,0,1.1,0,1.4-1c0-0.2,0.1-0.3,0.2-0.5c0,0,0.1,0,0.1,0c0,0.1,0.1,0.2,0.1,0.3c0,0.9,0,1.8,0,2.7
		c0,0.1,0,0.2,0,0.3c0,0-0.1,0-0.1,0c0-0.1-0.1-0.2-0.1-0.3c0-0.1-0.1-0.3-0.1-0.4c-0.2-0.5-0.8-0.9-1.3-0.8c-0.1,0-0.1,0.1-0.1,0.2
		c0,0.7,0,1.5,0,2.2c0,0.3,0.1,0.4,0.4,0.5c1.3,0.2,2.2-0.2,2.8-1.3c0.1-0.1,0.2-0.3,0.3-0.4c0,0,0.1,0,0.1,0
		C70,38.4,70,38.5,70,38.5z"/>
	<path class="st0" d="M24.4,46.6C24.4,46.6,24.4,46.6,24.4,46.6c-0.1,0.1-0.2,0.1-0.4,0.2c-0.3,0.1-0.5,0.2-0.5,0.5
		c0,0.4,0,0.9,0,1.3c0,0.2-0.1,0.3-0.2,0.4c-1.3,0.5-2.5,0.7-3.8,0.2c-1.2-0.4-1.8-1.4-2-2.6c-0.2-1.3,0.2-2.4,1.1-3.2
		c1-0.8,2.1-1,3.3-0.6c0.2,0.1,0.4,0.1,0.6,0.2c0.3,0.1,0.4,0,0.6-0.2c0-0.1,0.1-0.1,0.2-0.3c0,0.2,0.1,0.3,0.1,0.3
		c0,0.6,0,1.2,0,1.8c0,0.1-0.1,0.2-0.1,0.2c-0.1-0.1-0.1-0.1-0.2-0.2c-0.3-0.4-0.5-0.8-0.8-1.2c-0.4-0.5-1.1-0.7-1.7-0.6
		c-0.5,0.1-0.9,0.4-1.1,0.8c-0.2,0.4-0.3,0.9-0.4,1.4c-0.1,1.1-0.1,2.1,0.4,3.2c0.4,0.8,1.4,1.2,2.2,0.8c0.1-0.1,0.3-0.3,0.3-0.4
		c0-0.5,0-0.9,0-1.4c0-0.3-0.2-0.4-0.5-0.4c-0.2,0-0.3-0.1-0.5-0.1c0,0,0-0.1,0-0.1c0.1,0,0.2-0.1,0.3-0.1c0.6,0,1.3,0,1.9,0
		c0.3,0,0.6,0,0.9,0C24.2,46.5,24.3,46.5,24.4,46.6z"/>
	<path class="st0" d="M55.2,42.9c-0.1,0-0.2,0.1-0.4,0.1c-0.3,0.1-0.4,0.2-0.4,0.5c0,0.1,0,0.3,0,0.4c0,1,0,2.1,0,3.1
		c0,0.5-0.1,0.9-0.4,1.3c-0.2,0.4-0.5,0.7-0.9,0.8c-0.8,0.3-1.7,0.3-2.5,0c-0.8-0.3-1.2-0.9-1.2-1.8c0-1.2,0-2.3,0-3.5
		c0-0.1,0-0.2,0-0.3c0-0.5-0.1-0.6-0.6-0.7c-0.1,0-0.1-0.1-0.2-0.1c0,0,0,0,0-0.1c0.1,0,0.1-0.1,0.2-0.1c0.9,0,1.9,0,2.8,0
		c0.1,0,0.2,0.1,0.2,0.1c0,0,0,0.1,0,0.1c-0.1,0-0.3,0.1-0.5,0.1c-0.3,0-0.4,0.2-0.5,0.5c0,0.1,0,0.2,0,0.3c0,1.2,0,2.3,0,3.5
		c0,0.4,0,0.8,0.3,1.2c0.1,0.1,0.2,0.3,0.4,0.4c0.9,0.6,2.3,0,2.5-1.1c0-0.2,0.1-0.4,0.1-0.6c0-1.1,0-2.2,0-3.4
		c0-0.5-0.1-0.7-0.7-0.8c-0.1,0-0.2-0.1-0.3-0.1C53.2,42.7,55,42.7,55.2,42.9z"/>
	<path class="st0" d="M78.2,38.8c-0.1,0.7-0.7,1.5-1.7,1.6c-0.6,0.1-1.2,0.1-1.8-0.2c-0.3-0.1-0.6-0.2-0.8,0.2c0,0-0.1,0.1-0.2,0.1
		c0-0.2,0-0.4,0-0.5c0-0.5,0-1.1,0-1.6c0-0.1,0.1-0.2,0.1-0.2c0.1,0.1,0.2,0.1,0.2,0.2c0.1,0.5,0.3,1,0.6,1.3
		c0.5,0.5,1.1,0.6,1.7,0.5c0.4-0.1,0.7-0.4,0.8-0.8c0.1-0.4,0-0.8-0.4-1c-0.4-0.2-0.8-0.4-1.1-0.6c-0.4-0.2-0.7-0.4-1.1-0.7
		c-0.6-0.5-0.9-1.2-0.7-1.9c0.2-0.8,0.8-1.3,1.6-1.4c0.6-0.1,1.1,0,1.7,0.2c0.3,0.1,0.5,0.1,0.7-0.2c0,0,0.1-0.1,0.2-0.1
		c0,0.1,0.1,0.2,0.1,0.3c0,0.5,0,1.1,0,1.6c0,0.1-0.1,0.2-0.1,0.2c-0.1-0.1-0.1-0.1-0.2-0.2c-0.2-0.3-0.4-0.7-0.6-1
		c-0.4-0.5-1-0.7-1.7-0.5c-0.3,0.1-0.6,0.3-0.6,0.7c-0.1,0.4-0.1,0.7,0.3,0.9c0.4,0.3,0.8,0.5,1.3,0.7c0.3,0.1,0.5,0.3,0.8,0.4
		C78,37.1,78.4,37.9,78.2,38.8z"/>
	<path class="st0" d="M41.3,33.8v1.9c-0.2,0.1-0.2,0-0.2-0.2c-0.1-0.3-0.2-0.5-0.3-0.8c-0.4-0.6-0.9-0.7-1.6-0.6v4.8
		c0,0.2,0,0.4,0,0.5c0,0.4,0.2,0.5,0.5,0.6c0.1,0,0.2,0,0.3,0c0,0,0.1,0.1,0.1,0.1c0,0-0.1,0.1-0.1,0.1c-0.1,0-0.2,0-0.3,0
		c-0.9,0-1.8,0-2.7,0c-0.1,0-0.2,0-0.3,0c0,0,0-0.1,0-0.1c0.1,0,0.2-0.1,0.3-0.1c0.5-0.1,0.7-0.2,0.7-0.8c0-1.6,0-3.2,0-4.7v-0.4
		c-1-0.2-1.7,0.4-1.9,1.2c0,0.1,0,0.2-0.1,0.3c0,0-0.1,0.1-0.1,0.1c0,0-0.1-0.1-0.1-0.1c0-0.6,0-1.1,0-1.7c0,0,0.1-0.1,0.2-0.1
		c1.4,0,2.8,0,4.2,0C40.4,33.8,40.9,33.8,41.3,33.8z"/>
	<path class="st0" d="M8.3,34c0,0.5,0,1,0,1.5c0,0.1-0.1,0.1-0.1,0.2C8.1,35.6,8,35.6,8,35.5c0-0.1,0-0.2-0.1-0.2
		C7.7,34.4,7,34,6.1,34.1c0,0.2,0,0.4,0,0.5v4.5c0,0.1,0,0.2,0,0.3c0,0.5,0.2,0.6,0.7,0.7c0.1,0,0.2,0.1,0.3,0.1c0,0,0,0.1,0,0.1
		H3.6c0,0,0-0.1,0-0.1c0.1,0,0.2-0.1,0.3-0.1c0.5-0.1,0.7-0.2,0.7-0.7c0-1.7,0-3.4,0-5.1c0,0,0-0.1,0-0.1c-0.9-0.1-1.7,0.4-1.9,1.3
		c0,0.1,0,0.1,0,0.2c0,0.1-0.1,0.1-0.1,0.1c0-0.1-0.1-0.1-0.1-0.2c0-0.2,0-0.5,0-0.7c0-0.3,0-0.6,0-0.9c0-0.1,0-0.2,0.2-0.2
		c1.8,0,3.6,0,5.4,0C8.2,33.8,8.3,33.8,8.3,34z"/>
	<path class="st0" d="M45.1,7.9c-0.4,0.1-0.7,0.2-1.1,0c-1-0.5-2.1-0.7-3.2-0.9c-1.6-0.2-3.2-0.1-4.7,0.3C35.5,7.5,35,7.7,34.5,8
		c-0.4,0.2-0.8,0.1-1.2-0.1c0.2-0.1,0.4-0.3,0.6-0.4C34,7.5,34.1,7.4,34,7.3c0,0,0-0.1,0-0.1c-0.1-0.4,0-0.7,0.3-0.9
		c0.3-0.1,0.7,0,0.8,0.3c0.1,0.2,0.2,0.2,0.4,0.2c0.5-0.2,1-0.3,1.5-0.4c0-0.2,0-0.3,0-0.5c0.1-0.4,0.3-0.6,0.7-0.6
		c0.3,0,0.6,0.3,0.6,0.6c0,0.3,0.1,0.3,0.3,0.3c0.4,0,0.7,0,1.1,0c0.2,0,0.3,0,0.3-0.2c0-0.1,0.1-0.3,0.1-0.4
		c0.2-0.3,0.5-0.4,0.8-0.3c0.3,0.1,0.5,0.5,0.4,0.8c-0.1,0.2,0,0.3,0.2,0.3c0.5,0.1,0.9,0.2,1.4,0.4c0.2,0.1,0.3,0,0.3-0.2
		c0.1-0.3,0.3-0.4,0.6-0.4c0.3,0,0.4,0.1,0.6,0.3c0.1,0.2,0.1,0.5,0,0.7c-0.1,0.2,0,0.2,0.1,0.3C44.8,7.6,44.9,7.8,45.1,7.9z"/>
	<path class="st0" d="M48.3,40.2c0,0-0.1,0.1-0.1,0.1c-0.1,0-0.1,0-0.2,0c-0.9,0-1.9,0-2.8,0c-0.1,0-0.1,0-0.2,0
		c0,0-0.1-0.1-0.1-0.1c0,0,0-0.1,0.1-0.1c0,0,0,0,0.1,0c0.7-0.1,0.7-0.2,0.7-0.9v-4.5c0-0.5-0.1-0.6-0.6-0.7c-0.1,0-0.1,0-0.1,0
		c-0.1,0-0.1-0.1-0.1-0.1c0.1,0,0.1-0.1,0.2-0.1c0.5,0,0.9,0,1.4,0c0.5,0,1,0,1.5,0c0.1,0,0.2,0,0.3,0c0,0,0,0.1,0,0.1
		c-0.1,0-0.2,0.1-0.3,0.1c-0.6,0.1-0.7,0.3-0.7,0.8v4.5c0,0.5,0.1,0.7,0.7,0.8c0,0,0.1,0,0.1,0C48.2,40.1,48.3,40.2,48.3,40.2z"/>
	<path class="st0" d="M23.4,21.6c0,0,0,0.2-0.1,0.2c-0.2,0.1-0.4,0.2-0.6,0.3c-0.6,0.2-1.2,0.3-1.9,0.3c-0.3,0-0.6-0.1-0.9-0.1
		c-0.2,0-0.2-0.1-0.2-0.3c0.1-0.3,0.2-0.6,0.3-0.9c0.1-0.2,0.2-0.3,0.3-0.5c0.3-0.6,0.5-1.1,0.4-1.8c-0.1-0.2,0-0.3,0.2-0.4
		c0.3-0.1,0.5-0.2,0.8-0.4c0.1,0,0.2,0,0.3,0c0.5,0.5,0.9,1,1.3,1.5c0.1,0.1,0.1,0.2,0,0.4C23.2,20.5,23.1,21.1,23.4,21.6z"/>
	<path class="st0" d="M58.2,22.4c-0.3,0-0.6,0-0.9,0.1c-0.6,0-1.2-0.1-1.8-0.3c-0.2-0.1-0.4-0.1-0.5-0.2c-0.2-0.1-0.3-0.2-0.1-0.5
		c0.3-0.4,0.2-0.9,0-1.4c-0.1-0.2-0.1-0.3,0.1-0.5c0.4-0.5,0.8-0.9,1.3-1.4c0.1-0.1,0.2-0.1,0.3,0c0.3,0.1,0.5,0.3,0.8,0.4
		c0.2,0.1,0.2,0.2,0.2,0.4c0,0.1,0,0.2,0,0.2c-0.2,0.5,0,0.9,0.2,1.4c0.3,0.5,0.6,1,0.7,1.6C58.5,22.3,58.4,22.4,58.2,22.4z"/>
	<path class="st0" d="M69,22.3c-0.4,0.5-1.8,1-2.4,0.7c0-0.2,0.1-0.3,0.1-0.5c0.1-0.5-0.1-0.9-0.5-1.1c-0.1-0.1-0.2-0.1-0.1-0.3
		c0.5-1.1,0.9-2.2,1.4-3.4c0.6,0.6,1,1.3,1,2.1c0,0.6,0.1,1.2,0.1,1.8C68.7,21.9,68.9,22.1,69,22.3z"/>
	<path class="st0" d="M12,21.4c-0.6,0.3-0.6,0.9-0.5,1.4c0,0.1,0.1,0.2,0.1,0.2c-0.6,0.2-1.9-0.2-2.4-0.8c0.5-0.3,0.4-0.9,0.5-1.4
		c0.1-0.3,0-0.7,0-1c0-0.8,0.3-1.4,0.9-1.9c0,0,0,0,0.1,0c0,0,0,0,0.1,0c0.2,0.6,0.5,1.1,0.7,1.7c0.2,0.5,0.4,1.1,0.7,1.6
		C12.2,21.3,12.2,21.3,12,21.4z"/>
	<path class="st0" d="M51.7,18.5c-0.8,0.6-1.9,0.6-2.6-0.4c-0.4-0.7-0.6-1.4-0.7-2.2c0-0.3-0.1-0.6-0.1-0.9c0-0.1,0-0.2,0.1-0.2
		c0.3-0.2,0.7-0.4,1-0.6c0,0.4,0,0.7,0,1c0,0.6,0,1.1,0.1,1.7c0.1,0.4,0.3,0.7,0.7,0.9c0.2,0.1,0.3,0,0.4-0.1
		c0.1-0.2,0.2-0.4,0.4-0.6c0.2-0.2,0.4-0.3,0.6-0.1C52.3,17.3,52.3,18,51.7,18.5z"/>
	<path class="st0" d="M30,14.9c-0.1,0.8-0.2,1.7-0.5,2.4c-0.2,0.4-0.4,0.8-0.7,1.1c-0.5,0.6-1.3,0.6-2,0.2c-0.1,0-0.1-0.1-0.2-0.1
		c-0.7-0.5-0.6-1.3,0.2-1.7c0.2-0.1,0.3-0.1,0.5,0.1c0.2,0.2,0.3,0.5,0.4,0.7c0.1,0.3,0.2,0.3,0.5,0.2c0.4-0.2,0.7-0.6,0.7-1.1
		c0.1-0.8,0-1.6,0.1-2.4v-0.2c0.4,0.2,0.7,0.4,1,0.6C30,14.7,30,14.8,30,14.9z"/>
	<path class="st0" d="M39.2,0.6c-0.3,1.1-1,1.8-1.9,2.4c0.8,0.8,1.8,1.4,2,2.6c0.3-1.2,1.2-1.8,2-2.6C40.3,2.4,39.6,1.6,39.2,0.6z
		 M39.2,4.5c0-0.6-0.5-1-0.9-1.4c0.5-0.2,0.8-0.6,1-1.1c0.4,0.7,0.4,0.8,0.9,1.2C39.8,3.6,39.3,3.9,39.2,4.5z"/>
	<path class="st0" d="M37.1,3C37.1,3,37.1,3,37.1,3C37,3,37,3,37,3c-0.9-0.1-1.7-0.5-2.4-1.2c0,0-0.1-0.1-0.2-0.1
		c0.2,1.1-0.2,2-0.7,2.9c1,0.3,2.1,0.5,2.7,1.5C36.2,4.9,36.5,4.2,37.1,3z M35.9,5c-0.3-0.4-0.8-0.5-1.3-0.6
		c0.2-0.4,0.5-0.8,0.3-1.3c0.4,0.2,0.9,0.4,1.3,0.6C36.1,4.1,35.8,4.5,35.9,5z"/>
	<path class="st0" d="M44,1.7c-0.7,0.8-1.6,1.2-2.7,1.3c0.5,0.9,1,1.9,0.7,3c0.7-0.9,1.7-1.1,2.7-1.4C44.2,3.6,43.9,2.7,44,1.7z
		 M42.6,4.9c-0.1-0.5-0.2-0.9-0.3-1.3c0.4-0.2,0.8-0.4,1.2-0.6c-0.1,0.4,0.1,0.9,0.4,1.3C43.4,4.4,42.9,4.5,42.6,4.9z"/>
	<path class="st0" d="M33.5,4.6c-0.3-0.1-0.6-0.1-0.9-0.2c-0.3-0.1-0.6-0.2-0.9-0.4c-0.3-0.2-0.5-0.4-0.8-0.6c0,0.1,0,0.1,0,0.2
		c0.2,0.8-0.1,1.6-0.5,2.3c-0.1,0.3-0.1,0.3,0.1,0.3c0.9,0.2,1.8,0.4,2.4,1.2C32.7,6.5,33.1,5.6,33.5,4.6z M32.7,5.4
		c-0.1,0.4-0.3,0.7-0.2,1.1c-0.3-0.4-0.8-0.4-1.1-0.5c0.1-0.4,0.2-0.9,0.3-1.3c0.3,0.3,0.6,0.4,1,0.4C32.6,5.2,32.7,5.3,32.7,5.4z"
		/>
	<path class="st0" d="M47.6,4.9c-0.1-0.4-0.1-0.9-0.1-1.4c-0.7,0.8-1.6,1-2.6,1.1c0.4,0.9,0.8,1.8,0.6,2.8c0.4-0.4,0.8-0.6,1.2-0.8
		c0.5-0.2,0.9-0.3,1.3-0.4C47.9,5.7,47.7,5.3,47.6,4.9z M46,6.5c0-0.1,0-0.1,0-0.2c0-0.4-0.1-0.7-0.2-1c0-0.1,0-0.2,0-0.2
		c0.4,0,0.8-0.2,1.1-0.4C47,5.1,47.1,5.5,47.2,6C46.8,6.1,46.4,6.1,46,6.5z"/>
	<path class="st0" d="M74.6,16c-0.2,1.3-1.5,2.5-2.8,2.5c-0.4,0-0.4,0-0.3-0.4c0.3-1.1,1-1.9,2.1-2.3c0.2-0.1,0.5-0.1,0.8-0.1
		C74.6,15.8,74.7,15.9,74.6,16z"/>
	<path class="st0" d="M6.6,18.5c-0.8,0-1.5-0.4-2-0.9c-0.4-0.4-0.6-0.9-0.8-1.4c-0.1-0.4-0.1-0.4,0.3-0.4c1.2,0.1,2,0.8,2.5,1.8
		c0.1,0.2,0.1,0.4,0.2,0.6C6.9,18.5,6.8,18.6,6.6,18.5z"/>
	<path class="st0" d="M75.4,20.5c-0.5,0.3-1,0.4-1.6,0.3c-0.9-0.1-1.7-0.5-2.3-1.2c-0.1-0.1-0.2-0.2,0-0.3c1.2-0.6,3-0.1,3.8,1.1
		C75.4,20.4,75.4,20.4,75.4,20.5z"/>
	<path class="st0" d="M7.7,18.5c-0.8-0.8-0.6-3.2,0.6-4C9.2,15.5,8.8,17.7,7.7,18.5z"/>
	<path class="st0" d="M6.7,19.6c-0.6,0.7-1.4,1.1-2.4,1.2c-0.5,0-1-0.1-1.5-0.3C2.9,20.4,3,20.3,3,20.3c0.8-1,2.4-1.5,3.6-1
		C6.9,19.3,6.9,19.4,6.7,19.6z"/>
	<path class="st0" d="M70.9,18.2c0,0.1-0.1,0.2-0.2,0.3c-0.1,0-0.1,0-0.1-0.1c-0.8-0.7-1.5-2.4-0.7-3.8c0.1-0.2,0.2-0.2,0.3,0
		C71.1,15.5,71.4,17,70.9,18.2z"/>
	<path class="st0" d="M31,14.1C31,14.1,31,14.1,31,14.1c-0.3,0-0.6-0.1-0.8-0.3c-0.8-0.4-1.5-0.9-2.2-1.4c-0.4-0.3-0.7-0.7-0.6-1.2
		c0-0.1,0.1-0.3,0.2-0.4c0.1,0,0.3,0,0.4,0.1c0.1,0.1,0.2,0.2,0.3,0.3C28.9,12.2,30,13.4,31,14.1z"/>
	<path class="st0" d="M50.9,11.5c-0.1,0.3-0.3,0.6-0.5,0.8c-0.9,0.8-1.9,1.5-3,1.8c0,0,0,0-0.1,0c0.8-0.6,1.5-1.2,2.1-2
		c0.3-0.3,0.5-0.7,0.8-1c0.1-0.2,0.3-0.4,0.6-0.3C50.9,10.8,51,11.2,50.9,11.5z"/>
	<path class="st0" d="M4.7,18.7c-0.2,0.1-0.5,0.1-0.6,0.2c-0.6,0-0.9-0.2-1.2-0.5c-0.1-0.1-0.1-0.2,0-0.3c0.6-0.3,1.4-0.2,1.8,0.3
		C4.9,18.6,4.8,18.7,4.7,18.7z"/>
	<path class="st0" d="M75.4,18.4c-0.4,0.4-1,0.6-1.6,0.4c-0.1,0-0.2-0.1-0.4-0.2c0.6-0.7,1.2-0.8,1.9-0.5
		C75.6,18.2,75.6,18.2,75.4,18.4z"/>
	<path class="st0" d="M71.8,16.5c-0.2,0.1-0.2,0-0.3-0.1c-0.1-0.4-0.1-0.7,0.1-1.1c0.1-0.3,0.4-0.6,0.7-0.7
		C72.7,15.2,72.4,16.2,71.8,16.5z"/>
	<path class="st0" d="M6.9,15.9c-0.1,0.2-0.2,0.4-0.3,0.6c-0.2-0.1-0.4-0.2-0.5-0.4c-0.3-0.4-0.4-0.9-0.2-1.4
		c0.1-0.2,0.1-0.2,0.3-0.1C6.6,15,6.9,15.4,6.9,15.9z"/>
	<path class="st0" d="M39.5,20.9v1.2c0,0,0,0,0,0c-0.2,0.2-0.4,0.1-0.6,0.1c0,0-0.2-0.1-0.2-0.1c0-0.4,0-0.7,0-1.1H39.5z"/>
	<path class="st0" d="M38.5,21.1c0,0.3,0,0.6,0,0.9c0,0-0.1,0.1-0.1,0.1c-0.2,0-0.4,0-0.7,0C38,21.8,38.2,21.4,38.5,21.1
		C38.4,21.1,38.5,21.1,38.5,21.1z"/>
	<path class="st0" d="M40.6,22.1h-0.8v-1c0,0,0,0,0.1,0C40.1,21.4,40.4,21.8,40.6,22.1z"/>
	<path class="st0" d="M36.4,17.4c0,0.3,0,0.6,0,0.9c0,0.2,0,0.2-0.2,0.2c-0.2,0-0.4,0-0.6,0c0-0.4-0.1-0.8,0-1.1
		c0.1-0.3,0.4-0.1,0.6-0.1C36.4,17.2,36.4,17.3,36.4,17.4z"/>
	<path class="st0" d="M35.3,17.3v1.2h-0.8C34.8,18.1,35.1,17.7,35.3,17.3z"/>
	<path class="st0" d="M37.5,18.5h-0.8v-1c0,0,0,0,0,0C37,17.8,37.2,18.1,37.5,18.5z"/>
	<path class="st0" d="M42.7,17.4c0,0.2,0,0.3,0,0.5c0,0.1,0,0.2,0,0.2c0,0.1,0,0.4-0.1,0.4c-0.2,0-0.4,0-0.7,0c0,0-0.1-0.1-0.1-0.1
		c0-0.3-0.1-0.7,0-1c0.1-0.3,0.4-0.1,0.6-0.1C42.6,17.2,42.7,17.2,42.7,17.4z"/>
	<path class="st0" d="M43.8,18.5c-0.3,0-0.5,0-0.7,0c0,0-0.1-0.1-0.1-0.2c0-0.3,0-0.6,0-0.9c0,0,0,0,0.1,0
		C43.3,17.8,43.5,18.1,43.8,18.5z"/>
	<path class="st0" d="M41.6,17.5c0,0.3,0,0.6,0,0.9c0,0-0.1,0.1-0.1,0.1c-0.2,0-0.4,0-0.7,0C41.1,18.2,41.3,17.8,41.6,17.5
		C41.6,17.5,41.6,17.5,41.6,17.5z"/>
	<path class="st0" d="M54.2,25.2c-0.1,0.1-0.2,0.2-0.3,0.2c-0.3-0.1-0.4-0.1-0.3-0.4c0,0,0-0.1,0-0.1c0-0.1,0.1-0.3,0.1-0.3
		c0.2,0,0.4,0.1,0.5,0.2C54.2,24.9,54.2,25.1,54.2,25.2z"/>
	<path class="st0" d="M61.9,27c-0.2,0-0.3,0-0.6-0.1c0.1-0.2,0.2-0.4,0.4-0.6C61.8,26.5,61.8,26.7,61.9,27z"/>
	<path class="st0" d="M51.8,24.6c0,0.2-0.1,0.4-0.3,0.4c-0.1,0-0.1,0-0.2,0C51,25,51,25,51,24.7c0-0.1,0-0.1,0-0.2
		c0-0.1,0-0.3,0.2-0.3C51.5,24.2,51.7,24.4,51.8,24.6z"/>
	<path class="st0" d="M22.2,25.6c0,0.2-0.2,0.5-0.5,0.4c-0.3-0.1-0.2-0.4-0.2-0.6c-0.1-0.2,0.2-0.1,0.3-0.2
		C22,25.3,22.2,25.4,22.2,25.6z"/>
</g>
</svg>
