<?xml version="1.0" encoding="UTF-8"?>
<svg id="report" xmlns="http://www.w3.org/2000/svg" version="1.1" xmlns:xlink="http://www.w3.org/1999/xlink" viewBox="0 0 640.62 640.62">
  <defs>
    <style>
      .cls-1 {
        fill: #360061;
      }

      .cls-1, .cls-2, .cls-3, .cls-4, .cls-5 {
        stroke-width: 0px;
      }

      .cls-2 {
        fill: url(#linear-gradient);
      }

      .cls-3 {
        fill: #5800b2;
      }

      .cls-4 {
        fill: url(#linear-gradient-2);
      }

      .cls-5 {
        fill: url(#linear-gradient-3);
      }
    </style>
    <linearGradient id="linear-gradient" x1="106.8" y1="462.69" x2="691.41" y2="615.3" gradientUnits="userSpaceOnUse">
      <stop offset="0" stop-color="#fff" stop-opacity=".4"/>
      <stop offset=".07" stop-color="#fff" stop-opacity=".34"/>
      <stop offset=".49" stop-color="#fff" stop-opacity="0"/>
      <stop offset=".75" stop-color="#fafafa" stop-opacity=".1"/>
      <stop offset="1" stop-color="#efefef" stop-opacity=".2"/>
    </linearGradient>
    <linearGradient id="linear-gradient-2" x1="133.73" y1="359.54" x2="718.34" y2="512.14" xlink:href="#linear-gradient"/>
    <linearGradient id="linear-gradient-3" x1="168.26" y1="227.27" x2="752.87" y2="379.88" xlink:href="#linear-gradient"/>
  </defs>
  <g>
    <path class="cls-3" d="M18.19,486.73c3.06-6.69,7.2-12.11,15.19-13.13,7.09-.91,12.35,2.16,17.28,6.99,43.28,42.5,94.04,72.47,151.97,90.39,41.57,12.86,84.18,16.76,127.5,16.14,100.5-1.44,187.01-36.64,259.66-106.11,3.26-3.12,7.52-5.96,11.8-7.1,7.82-2.07,15.17,2,18.72,8.91,3.72,7.23,2.59,14.87-3.56,21.05-20.17,20.29-42.28,38.23-66.39,53.63-59.11,37.76-123.56,59.44-193.67,63.98-1.52.1-3.02.63-4.53.96h-63.73c-9.73-1.11-19.47-2.06-29.17-3.35-89.83-11.95-167.37-49.38-232.46-112.44-3.42-3.32-5.77-7.75-8.62-11.66,0-2.75,0-5.51,0-8.26Z"/>
    <path class="cls-3" d="M18.19,410.02c2.77-12.99,5.2-26.07,8.4-38.95,3.43-13.86,5.67-28.46,11.77-41.13,20.09-41.75,54.23-63.3,100.63-65.14,4.12-.16,8.26-.01,12.38,0,.38,0,.77.14,1.56.28-.22.69-.26,1.45-.66,1.92-20.22,23.97-30.87,52.04-36.19,82.6-3.47,19.91-7.75,39.69-11.88,59.48-.43,2.04-1.91,4.4-3.62,5.55-20.11,13.55-42.59,18.68-66.55,17.89-8.36-.28-12.59-6.25-15.84-13.08,0-3.15,0-6.29,0-9.44Z"/>
    <path class="cls-1" d="M320.31,245.87c0-19.77-.39-38.64.07-57.49,1.69-68.93,33.08-119.88,93.84-152.34,22.17-11.84,46.31-17.14,71.43-17.76,7.47-.19,14.94-.11,22.42-.07,12.23.07,19.54,7.13,19.62,19.35.14,20.45.14,40.9-.05,61.35-.04,4.08,1.21,6.91,4.11,9.75,12.93,12.65,25.87,25.3,38.36,38.39,15.5,16.24,20.55,35.69,14.08,57.16-6.47,21.45-21.3,35.12-43.27,39.88-20.29,4.4-38.11-1.38-53.05-15.72-2.38-2.28-4.09-5.25-6.11-7.9-.61.48-1.23.96-1.84,1.44,2.83,17.11,5.64,34.22,8.49,51.33,10.44,62.57,20.89,125.14,31.33,187.71,1.39,8.33,2.88,16.65,4.04,25.01.22,1.59-.33,4.15-1.45,4.94-30.14,21.16-62.85,36.99-98.6,47.32-13.74-55.61-47.03-89.52-106.02-87.95-55.61,1.48-86.68,35.67-101.42,88.17-10.6-3.82-21.66-6.81-31.81-11.69-19.25-9.25-37.97-19.62-56.94-29.45-3.22-1.67-4.15-3.58-3.37-7.44,10.1-49.64,19.54-99.42,29.99-148.99,11.44-54.26,60.94-94.24,116.52-94.98,16.28-.22,32.56-.03,49.63-.03Z"/>
  </g>
  <g>
    <path class="cls-2" d="M18.19,486.73c3.06-6.69,7.2-12.11,15.19-13.13,7.09-.91,12.35,2.16,17.28,6.99,43.28,42.5,94.04,72.47,151.97,90.39,41.57,12.86,84.18,16.76,127.5,16.14,100.5-1.44,187.01-36.64,259.66-106.11,3.26-3.12,7.52-5.96,11.8-7.1,7.82-2.07,15.17,2,18.72,8.91,3.72,7.23,2.59,14.87-3.56,21.05-20.17,20.29-42.28,38.23-66.39,53.63-59.11,37.76-123.56,59.44-193.67,63.98-1.52.1-3.02.63-4.53.96h-63.73c-9.73-1.11-19.47-2.06-29.17-3.35-89.83-11.95-167.37-49.38-232.46-112.44-3.42-3.32-5.77-7.75-8.62-11.66,0-2.75,0-5.51,0-8.26Z"/>
    <path class="cls-4" d="M18.19,410.02c2.77-12.99,5.2-26.07,8.4-38.95,3.43-13.86,5.67-28.46,11.77-41.13,20.09-41.75,54.23-63.3,100.63-65.14,4.12-.16,8.26-.01,12.38,0,.38,0,.77.14,1.56.28-.22.69-.26,1.45-.66,1.92-20.22,23.97-30.87,52.04-36.19,82.6-3.47,19.91-7.75,39.69-11.88,59.48-.43,2.04-1.91,4.4-3.62,5.55-20.11,13.55-42.59,18.68-66.55,17.89-8.36-.28-12.59-6.25-15.84-13.08,0-3.15,0-6.29,0-9.44Z"/>
    <path class="cls-5" d="M320.31,245.87c0-19.77-.39-38.64.07-57.49,1.69-68.93,33.08-119.88,93.84-152.34,22.17-11.84,46.31-17.14,71.43-17.76,7.47-.19,14.94-.11,22.42-.07,12.23.07,19.54,7.13,19.62,19.35.14,20.45.14,40.9-.05,61.35-.04,4.08,1.21,6.91,4.11,9.75,12.93,12.65,25.87,25.3,38.36,38.39,15.5,16.24,20.55,35.69,14.08,57.16-6.47,21.45-21.3,35.12-43.27,39.88-20.29,4.4-38.11-1.38-53.05-15.72-2.38-2.28-4.09-5.25-6.11-7.9-.61.48-1.23.96-1.84,1.44,2.83,17.11,5.64,34.22,8.49,51.33,10.44,62.57,20.89,125.14,31.33,187.71,1.39,8.33,2.88,16.65,4.04,25.01.22,1.59-.33,4.15-1.45,4.94-30.14,21.16-62.85,36.99-98.6,47.32-13.74-55.61-47.03-89.52-106.02-87.95-55.61,1.48-86.68,35.67-101.42,88.17-10.6-3.82-21.66-6.81-31.81-11.69-19.25-9.25-37.97-19.62-56.94-29.45-3.22-1.67-4.15-3.58-3.37-7.44,10.1-49.64,19.54-99.42,29.99-148.99,11.44-54.26,60.94-94.24,116.52-94.98,16.28-.22,32.56-.03,49.63-.03Z"/>
  </g>
</svg>