<?xml version="1.0" encoding="UTF-8"?>
<svg id="report" xmlns="http://www.w3.org/2000/svg" version="1.1" xmlns:xlink="http://www.w3.org/1999/xlink" viewBox="0 0 640.62 640.62">
  <defs>
    <style>
      .cls-1 {
        fill: #360061;
      }

      .cls-1, .cls-2, .cls-3, .cls-4, .cls-5 {
        stroke-width: 0px;
      }

      .cls-2 {
        fill: url(#linear-gradient);
      }

      .cls-3 {
        fill: #5800b2;
      }

      .cls-4 {
        fill: url(#linear-gradient-2);
      }

      .cls-5 {
        fill: url(#linear-gradient-3);
      }
    </style>
    <linearGradient id="linear-gradient" x1="6.67" y1="161.95" x2="444.91" y2="161.95" gradientTransform="translate(0 642) scale(1 -1)" gradientUnits="userSpaceOnUse">
      <stop offset="0" stop-color="#fff" stop-opacity=".4"/>
      <stop offset=".07" stop-color="#fff" stop-opacity=".34"/>
      <stop offset=".49" stop-color="#fff" stop-opacity="0"/>
      <stop offset=".75" stop-color="#fafafa" stop-opacity=".1"/>
      <stop offset="1" stop-color="#efefef" stop-opacity=".2"/>
    </linearGradient>
    <linearGradient id="linear-gradient-2" x1="57.53" y1="334.27" x2="633.96" y2="334.27" xlink:href="#linear-gradient"/>
    <linearGradient id="linear-gradient-3" x1="259.95" y1="75.72" x2="359.21" y2="75.72" xlink:href="#linear-gradient"/>
  </defs>
  <g>
    <path class="cls-3" d="M6.67,487.15c8.8-11.56,23.3-14.38,37.77-6.97,13.43,6.88,26.74,14,39.98,21.25,3.53,1.94,6.27,2.2,10,.09,16.49-9.37,33.19-18.36,49.82-27.5,1.58-.86,3.1-1.8,5.29-3.07-2.26-1.58-3.98-2.85-5.77-4.01-27.04-17.57-54.1-35.09-81.13-52.68-11.9-7.74-11.71-16.32.1-24.07,15.63-10.26,32.11-12.63,50.22-7.73,46.64,12.62,93.39,24.85,140.18,36.93,3.79.98,8.52.68,12.22-.68,28.16-10.29,56.2-21.13,85.85-26.25,13.11-2.26,26.61-2.25,39.94-3.28.16.74.3,1.49.46,2.23-7.82,3.58-15.66,7.16-23.48,10.74-2.78,1.27-5.57,2.53-8.36,3.79q-12.31,5.57-11.84,19.95c2.37-1.02,4.59-1.91,6.77-2.9,18.54-8.5,37.06-17.02,55.6-25.52,13.46-6.18,31.53,3.28,34.17,17.97,2.05,11.34-3.01,20.3-10.17,28.26-13.9,15.44-31.5,25.82-49.76,35.08-58.49,29.66-120.54,49.9-183.57,66.92-45.24,12.21-91.12,22.05-136.78,32.7-11.08,2.59-22.34,2.3-33.2-1.54-13.06-4.61-15.78-14.68-6.75-25.08,2.92-3.35,6.61-6.02,9.87-8.93-9.51-17.21-18.46-33.4-27.42-49.59v-6.13Z"/>
    <path class="cls-1" d="M340.2,361.73c-16.05,4.61-30.35,8.47-44.48,12.88-10.69,3.33-21.09,7.65-31.8,10.92-4.01,1.22-8.69,1.47-12.83.78-6.6-1.08-13-3.31-21.17-5.5,4.72-3.44,8.54-6.15,12.28-8.98,5.91-4.47,11.53-9.28,13.22-17,2.69-12.36-2.89-23.75-15.04-28.93-9.53-4.06-19.48-7.21-29.35-10.41-16.94-5.49-33.68-11.36-47.45-23.26-17.45-15.09-27.36-34.97-33.97-56.4-3.51-11.38-4.58-23.51-6.75-35.31-.31-1.72-.52-3.46-1.03-6.88-25.32,49.71-33.1,100.61-25.82,153.3-11.88,2.38-23.17,4.64-34.45,6.9C36.77,214.64,127.89,58.46,291.81,26.91c167.4-32.22,319.58,85.63,339.72,245.43,22.01,174.67-109.09,304.87-240.81,321.53-.54-11.52-1.07-23.05-1.64-35.18,48.36-8.87,90.99-29.63,127.77-63.28-10.98-9.32-11.33-20.43-6.5-32.46.38-.94.69-1.92.99-2.89,4.13-13.16,2.53-16.31-10.03-21.56-4.46-1.86-10.93-1.82-11.86-8.14-1.18-8.06-.53-16.23,6.09-22.09,4.39-3.89,9.52-6.96,14.42-10.23,9.83-6.56,11.28-12.67,4.72-22.54-6.1-9.17-14.14-14.88-25.9-14.53-11.72.35-22.55-3.08-32.29-9.7-8.25-5.61-12.77-13.46-11.73-23.4,1.54-14.84-4.58-24.79-17.78-30.86-6.11-2.81-12.25-5.54-18.44-8.18-15.35-6.52-19.96-13.19-18.15-29.82,1.96-18.06,11.12-31.57,27.89-39.57,12.29-5.87,25.33-10.71,36.44-18.34,22.65-15.56,32.17-36.66,24.27-64.72-6.37-22.67-16.16-42.83-34.98-57.4-5.43-4.2-12.58-6.52-19.27-8.72-23.17-7.62-46.84-13.23-71.4-11.74-10.03.61-20.23,2.88-29.75,6.15-11.07,3.8-13.22,13.42-4.61,21.4,6.9,6.39,15.49,11.12,23.74,15.86,7.4,4.26,15.45,7.37,23.06,11.3,4.15,2.13,8.25,4.55,11.9,7.44,9.09,7.19,9.31,15.76.28,23-7.3,5.87-15.39,10.74-22.83,16.46-6.29,4.83-12.63,9.75-18.09,15.46-8.33,8.72-5.91,18.63,5.06,23.58,8.19,3.68,9.59,6.28,8.08,15.29-2.1,12.57-6.79,23.95-16.03,32.99-9.33,9.13-17.08,9.16-26.58.24-6.7-6.29-12.97-13.03-19.83-19.14-10.96-9.76-23.73-15.62-38.54-16.86-19.82-1.66-40.61,21-36.85,40.38,2.86,14.74,12.92,21.5,27.45,18.29,5.57-1.23,11-3.07,16.58-4.24,9.39-1.96,15.24,1.49,17.18,10.89,1.85,8.97,2.9,18.11,3.93,27.23,2.48,21.92,12.39,37.96,34.18,45.51,9.22,3.15,18.02,7.51,28.53,11.99Z"/>
    <path class="cls-3" d="M359.19,580.69c.58,18.7-14.26,36.48-31.38,38.31-3.15.33-7.65-1.32-9.76-3.65-18.89-20.86-37.44-42.01-55.93-63.22-3.75-4.3-2.55-8.61,2.94-10.58,25.87-9.25,51.8-18.36,77.77-27.35,5.38-1.86,8.63.07,9.28,5.41,2.53,20.84,4.86,41.69,7.09,61.08Z"/>
  </g>
  <g>
    <path class="cls-2" d="M6.67,487.15c8.8-11.56,23.3-14.38,37.77-6.97,13.43,6.88,26.74,14,39.98,21.25,3.53,1.94,6.27,2.2,10,.09,16.49-9.37,33.19-18.36,49.82-27.5,1.58-.86,3.1-1.8,5.29-3.07-2.26-1.58-3.98-2.85-5.77-4.01-27.04-17.57-54.1-35.09-81.13-52.68-11.9-7.74-11.71-16.32.1-24.07,15.63-10.26,32.11-12.63,50.22-7.73,46.64,12.62,93.39,24.85,140.18,36.93,3.79.98,8.52.68,12.22-.68,28.16-10.29,56.2-21.13,85.85-26.25,13.11-2.26,26.61-2.25,39.94-3.28.16.74.3,1.49.46,2.23-7.82,3.58-15.66,7.16-23.48,10.74-2.78,1.27-5.57,2.53-8.36,3.79q-12.31,5.57-11.84,19.95c2.37-1.02,4.59-1.91,6.77-2.9,18.54-8.5,37.06-17.02,55.6-25.52,13.46-6.18,31.53,3.28,34.17,17.97,2.05,11.34-3.01,20.3-10.17,28.26-13.9,15.44-31.5,25.82-49.76,35.08-58.49,29.66-120.54,49.9-183.57,66.92-45.24,12.21-91.12,22.05-136.78,32.7-11.08,2.59-22.34,2.3-33.2-1.54-13.06-4.61-15.78-14.68-6.75-25.08,2.92-3.35,6.61-6.02,9.87-8.93-9.51-17.21-18.46-33.4-27.42-49.59v-6.13Z"/>
    <path class="cls-4" d="M340.2,361.73c-16.05,4.61-30.35,8.47-44.48,12.88-10.69,3.33-21.09,7.65-31.8,10.92-4.01,1.22-8.69,1.47-12.83.78-6.6-1.08-13-3.31-21.17-5.5,4.72-3.44,8.54-6.15,12.28-8.98,5.91-4.47,11.53-9.28,13.22-17,2.69-12.36-2.89-23.75-15.04-28.93-9.53-4.06-19.48-7.21-29.35-10.41-16.94-5.49-33.68-11.36-47.45-23.26-17.45-15.09-27.36-34.97-33.97-56.4-3.51-11.38-4.58-23.51-6.75-35.31-.31-1.72-.52-3.46-1.03-6.88-25.32,49.71-33.1,100.61-25.82,153.3-11.88,2.38-23.17,4.64-34.45,6.9C36.77,214.64,127.89,58.46,291.81,26.91c167.4-32.22,319.58,85.63,339.72,245.43,22.01,174.67-109.09,304.87-240.81,321.53-.54-11.52-1.07-23.05-1.64-35.18,48.36-8.87,90.99-29.63,127.77-63.28-10.98-9.32-11.33-20.43-6.5-32.46.38-.94.69-1.92.99-2.89,4.13-13.16,2.53-16.31-10.03-21.56-4.46-1.86-10.93-1.82-11.86-8.14-1.18-8.06-.53-16.23,6.09-22.09,4.39-3.89,9.52-6.96,14.42-10.23,9.83-6.56,11.28-12.67,4.72-22.54-6.1-9.17-14.14-14.88-25.9-14.53-11.72.35-22.55-3.08-32.29-9.7-8.25-5.61-12.77-13.46-11.73-23.4,1.54-14.84-4.58-24.79-17.78-30.86-6.11-2.81-12.25-5.54-18.44-8.18-15.35-6.52-19.96-13.19-18.15-29.82,1.96-18.06,11.12-31.57,27.89-39.57,12.29-5.87,25.33-10.71,36.44-18.34,22.65-15.56,32.17-36.66,24.27-64.72-6.37-22.67-16.16-42.83-34.98-57.4-5.43-4.2-12.58-6.52-19.27-8.72-23.17-7.62-46.84-13.23-71.4-11.74-10.03.61-20.23,2.88-29.75,6.15-11.07,3.8-13.22,13.42-4.61,21.4,6.9,6.39,15.49,11.12,23.74,15.86,7.4,4.26,15.45,7.37,23.06,11.3,4.15,2.13,8.25,4.55,11.9,7.44,9.09,7.19,9.31,15.76.28,23-7.3,5.87-15.39,10.74-22.83,16.46-6.29,4.83-12.63,9.75-18.09,15.46-8.33,8.72-5.91,18.63,5.06,23.58,8.19,3.68,9.59,6.28,8.08,15.29-2.1,12.57-6.79,23.95-16.03,32.99-9.33,9.13-17.08,9.16-26.58.24-6.7-6.29-12.97-13.03-19.83-19.14-10.96-9.76-23.73-15.62-38.54-16.86-19.82-1.66-40.61,21-36.85,40.38,2.86,14.74,12.92,21.5,27.45,18.29,5.57-1.23,11-3.07,16.58-4.24,9.39-1.96,15.24,1.49,17.18,10.89,1.85,8.97,2.9,18.11,3.93,27.23,2.48,21.92,12.39,37.96,34.18,45.51,9.22,3.15,18.02,7.51,28.53,11.99Z"/>
    <path class="cls-5" d="M359.19,580.69c.58,18.7-14.26,36.48-31.38,38.31-3.15.33-7.65-1.32-9.76-3.65-18.89-20.86-37.44-42.01-55.93-63.22-3.75-4.3-2.55-8.61,2.94-10.58,25.87-9.25,51.8-18.36,77.77-27.35,5.38-1.86,8.63.07,9.28,5.41,2.53,20.84,4.86,41.69,7.09,61.08Z"/>
  </g>
</svg>