<?xml version="1.0" encoding="utf-8"?>
<!-- Generator: Adobe Illustrator 27.3.1, SVG Export Plug-In . SVG Version: 6.00 Build 0)  -->
<svg version="1.1" id="report" xmlns="http://www.w3.org/2000/svg" xmlns:xlink="http://www.w3.org/1999/xlink" x="0px" y="0px"
	 viewBox="0 0 640.62 640.62" style="enable-background:new 0 0 640.62 640.62;" xml:space="preserve">
<style type="text/css">
	.st0{fill:#5800B2;}
	.st1{fill:#360061;}
	.st2{fill:url(#SVGID_1_);}
	.st3{fill:url(#SVGID_00000035528528994630071300000011559518060083041699_);}
	.st4{fill:url(#SVGID_00000129912274103379582760000014352470955560230786_);}
</style>
<g>
	<g>
		<path class="st0" d="M0,490.7c8.99-11.81,23.8-14.69,38.57-7.12c13.72,7.03,27.31,14.3,40.83,21.7c3.61,1.98,6.4,2.25,10.21,0.09
			c16.84-9.57,33.9-18.75,50.88-28.08c1.61-0.88,3.17-1.84,5.4-3.14c-2.31-1.61-4.06-2.91-5.89-4.1
			c-27.62-17.94-55.25-35.84-82.86-53.8c-12.15-7.9-11.96-16.67,0.1-24.58c15.96-10.48,32.79-12.9,51.29-7.89
			c47.63,12.89,95.38,25.38,143.16,37.72c3.87,1,8.7,0.69,12.48-0.69c28.76-10.51,57.39-21.58,87.68-26.81
			c13.39-2.31,27.18-2.3,40.79-3.35c0.16,0.76,0.31,1.52,0.47,2.28c-7.99,3.66-15.99,7.31-23.98,10.97
			c-2.84,1.3-5.69,2.58-8.54,3.87c-12.57,5.69-12.57,5.69-12.09,20.37c2.42-1.04,4.69-1.95,6.91-2.96
			c18.93-8.68,37.85-17.38,56.78-26.06c13.75-6.31,32.2,3.35,34.9,18.35c2.09,11.58-3.07,20.73-10.39,28.86
			c-14.2,15.77-32.17,26.37-50.82,35.83c-59.73,30.29-123.1,50.96-187.47,68.34c-46.2,12.47-93.06,22.52-139.69,33.4
			c-11.32,2.64-22.82,2.35-33.91-1.57c-13.34-4.71-16.12-14.99-6.89-25.61c2.98-3.42,6.75-6.15,10.08-9.12
			C18.29,530.02,9.15,513.49,0,496.96C0,494.87,0,492.79,0,490.7z"/>
		<path class="st1" d="M340.62,362.61c-16.39,4.71-31,8.65-45.43,13.15c-10.92,3.4-21.54,7.81-32.48,11.15
			c-4.1,1.25-8.87,1.5-13.1,0.8c-6.74-1.1-13.28-3.38-21.62-5.62c4.82-3.51,8.72-6.28,12.54-9.17c6.04-4.57,11.78-9.48,13.5-17.36
			c2.75-12.62-2.95-24.25-15.36-29.55c-9.73-4.15-19.89-7.36-29.97-10.63c-17.3-5.61-34.4-11.6-48.46-23.75
			c-17.82-15.41-27.94-35.71-34.69-57.6c-3.58-11.62-4.68-24.01-6.89-36.06c-0.32-1.76-0.53-3.53-1.05-7.03
			c-25.86,50.77-33.8,102.75-26.37,156.56c-12.13,2.43-23.66,4.74-35.18,7.05C30.74,212.39,123.8,52.89,291.2,20.67
			c170.96-32.9,326.37,87.45,346.94,250.65c22.48,178.38-111.41,311.35-245.93,328.37c-0.55-11.76-1.09-23.54-1.67-35.93
			c49.39-9.06,92.92-30.26,130.49-64.63c-11.21-9.52-11.57-20.86-6.64-33.15c0.39-0.96,0.7-1.96,1.01-2.95
			c4.22-13.44,2.58-16.66-10.24-22.02c-4.55-1.9-11.16-1.86-12.11-8.31c-1.21-8.23-0.54-16.57,6.22-22.56
			c4.48-3.97,9.72-7.11,14.73-10.45c10.04-6.7,11.52-12.94,4.82-23.02c-6.23-9.37-14.44-15.2-26.45-14.84
			c-11.97,0.36-23.03-3.15-32.98-9.91c-8.43-5.73-13.04-13.75-11.98-23.9c1.57-15.16-4.68-25.32-18.16-31.52
			c-6.24-2.87-12.51-5.66-18.83-8.35c-15.68-6.66-20.38-13.47-18.54-30.45c2-18.44,11.36-32.24,28.48-40.41
			c12.55-5.99,25.87-10.94,37.21-18.73c23.13-15.89,32.85-37.44,24.79-66.1c-6.51-23.15-16.5-43.74-35.72-58.62
			c-5.55-4.29-12.85-6.66-19.68-8.91c-23.66-7.78-47.84-13.51-72.92-11.99c-10.24,0.62-20.66,2.94-30.38,6.28
			c-11.31,3.88-13.5,13.71-4.71,21.85c7.05,6.53,15.82,11.36,24.24,16.2c7.56,4.35,15.78,7.53,23.55,11.54
			c4.24,2.18,8.43,4.65,12.15,7.6c9.28,7.34,9.51,16.1,0.29,23.49c-7.46,5.99-15.72,10.97-23.32,16.81
			c-6.42,4.93-12.9,9.96-18.47,15.79c-8.51,8.91-6.04,19.03,5.17,24.08c8.36,3.76,9.79,6.41,8.25,15.62
			c-2.14,12.84-6.93,24.46-16.37,33.69c-9.53,9.32-17.44,9.35-27.15,0.25c-6.84-6.42-13.25-13.31-20.25-19.55
			c-11.19-9.97-24.23-15.95-39.36-17.22c-20.24-1.7-41.47,21.45-37.63,41.24c2.92,15.05,13.19,21.96,28.03,18.68
			c5.69-1.26,11.23-3.14,16.93-4.33c9.59-2,15.56,1.52,17.55,11.12c1.89,9.16,2.96,18.5,4.01,27.81
			c2.53,22.39,12.65,38.77,34.91,46.48C320.9,353.59,329.88,358.04,340.62,362.61z"/>
		<path class="st0" d="M360.02,586.23c0.59,19.1-14.56,37.26-32.05,39.12c-3.22,0.34-7.81-1.35-9.97-3.73
			c-19.29-21.3-38.24-42.9-57.12-64.56c-3.83-4.39-2.6-8.79,3-10.8c26.42-9.45,52.9-18.75,79.42-27.93c5.49-1.9,8.81,0.07,9.48,5.52
			C355.36,545.13,357.74,566.43,360.02,586.23z"/>
	</g>
	<g>
		<linearGradient id="SVGID_1_" gradientUnits="userSpaceOnUse" x1="-1.818989e-12" y1="483.4414" x2="447.5599" y2="483.4414">
			<stop  offset="0" style="stop-color:#FFFFFF;stop-opacity:0.4"/>
			<stop  offset="0.0691" style="stop-color:#FFFFFF;stop-opacity:0.3435"/>
			<stop  offset="0.4892" style="stop-color:#FFFFFF;stop-opacity:0"/>
			<stop  offset="0.7527" style="stop-color:#FAFAFA;stop-opacity:0.1032"/>
			<stop  offset="1" style="stop-color:#EFEFEF;stop-opacity:0.2"/>
		</linearGradient>
		<path class="st2" d="M0,490.7c8.99-11.81,23.8-14.69,38.57-7.12c13.72,7.03,27.31,14.3,40.83,21.7c3.61,1.98,6.4,2.25,10.21,0.09
			c16.84-9.57,33.9-18.75,50.88-28.08c1.61-0.88,3.17-1.84,5.4-3.14c-2.31-1.61-4.06-2.91-5.89-4.1
			c-27.62-17.94-55.25-35.84-82.86-53.8c-12.15-7.9-11.96-16.67,0.1-24.58c15.96-10.48,32.79-12.9,51.29-7.89
			c47.63,12.89,95.38,25.38,143.16,37.72c3.87,1,8.7,0.69,12.48-0.69c28.76-10.51,57.39-21.58,87.68-26.81
			c13.39-2.31,27.18-2.3,40.79-3.35c0.16,0.76,0.31,1.52,0.47,2.28c-7.99,3.66-15.99,7.31-23.98,10.97
			c-2.84,1.3-5.69,2.58-8.54,3.87c-12.57,5.69-12.57,5.69-12.09,20.37c2.42-1.04,4.69-1.95,6.91-2.96
			c18.93-8.68,37.85-17.38,56.78-26.06c13.75-6.31,32.2,3.35,34.9,18.35c2.09,11.58-3.07,20.73-10.39,28.86
			c-14.2,15.77-32.17,26.37-50.82,35.83c-59.73,30.29-123.1,50.96-187.47,68.34c-46.2,12.47-93.06,22.52-139.69,33.4
			c-11.32,2.64-22.82,2.35-33.91-1.57c-13.34-4.71-16.12-14.99-6.89-25.61c2.98-3.42,6.75-6.15,10.08-9.12
			C18.29,530.02,9.15,513.49,0,496.96C0,494.87,0,492.79,0,490.7z"/>
		
			<linearGradient id="SVGID_00000162322434123427538210000001447417443626173319_" gradientUnits="userSpaceOnUse" x1="51.9394" y1="307.4651" x2="640.62" y2="307.4651">
			<stop  offset="0" style="stop-color:#FFFFFF;stop-opacity:0.4"/>
			<stop  offset="0.0691" style="stop-color:#FFFFFF;stop-opacity:0.3435"/>
			<stop  offset="0.4892" style="stop-color:#FFFFFF;stop-opacity:0"/>
			<stop  offset="0.7527" style="stop-color:#FAFAFA;stop-opacity:0.1032"/>
			<stop  offset="1" style="stop-color:#EFEFEF;stop-opacity:0.2"/>
		</linearGradient>
		<path style="fill:url(#SVGID_00000162322434123427538210000001447417443626173319_);" d="M340.62,362.61
			c-16.39,4.71-31,8.65-45.43,13.15c-10.92,3.4-21.54,7.81-32.48,11.15c-4.1,1.25-8.87,1.5-13.1,0.8
			c-6.74-1.1-13.28-3.38-21.62-5.62c4.82-3.51,8.72-6.28,12.54-9.17c6.04-4.57,11.78-9.48,13.5-17.36
			c2.75-12.62-2.95-24.25-15.36-29.55c-9.73-4.15-19.89-7.36-29.97-10.63c-17.3-5.61-34.4-11.6-48.46-23.75
			c-17.82-15.41-27.94-35.71-34.69-57.6c-3.58-11.62-4.68-24.01-6.89-36.06c-0.32-1.76-0.53-3.53-1.05-7.03
			c-25.86,50.77-33.8,102.75-26.37,156.56c-12.13,2.43-23.66,4.74-35.18,7.05C30.74,212.39,123.8,52.89,291.2,20.67
			c170.96-32.9,326.37,87.45,346.94,250.65c22.48,178.38-111.41,311.35-245.93,328.37c-0.55-11.76-1.09-23.54-1.67-35.93
			c49.39-9.06,92.92-30.26,130.49-64.63c-11.21-9.52-11.57-20.86-6.64-33.15c0.39-0.96,0.7-1.96,1.01-2.95
			c4.22-13.44,2.58-16.66-10.24-22.02c-4.55-1.9-11.16-1.86-12.11-8.31c-1.21-8.23-0.54-16.57,6.22-22.56
			c4.48-3.97,9.72-7.11,14.73-10.45c10.04-6.7,11.52-12.94,4.82-23.02c-6.23-9.37-14.44-15.2-26.45-14.84
			c-11.97,0.36-23.03-3.15-32.98-9.91c-8.43-5.73-13.04-13.75-11.98-23.9c1.57-15.16-4.68-25.32-18.16-31.52
			c-6.24-2.87-12.51-5.66-18.83-8.35c-15.68-6.66-20.38-13.47-18.54-30.45c2-18.44,11.36-32.24,28.48-40.41
			c12.55-5.99,25.87-10.94,37.21-18.73c23.13-15.89,32.85-37.44,24.79-66.1c-6.51-23.15-16.5-43.74-35.72-58.62
			c-5.55-4.29-12.85-6.66-19.68-8.91c-23.66-7.78-47.84-13.51-72.92-11.99c-10.24,0.62-20.66,2.94-30.38,6.28
			c-11.31,3.88-13.5,13.71-4.71,21.85c7.05,6.53,15.82,11.36,24.24,16.2c7.56,4.35,15.78,7.53,23.55,11.54
			c4.24,2.18,8.43,4.65,12.15,7.6c9.28,7.34,9.51,16.1,0.29,23.49c-7.46,5.99-15.72,10.97-23.32,16.81
			c-6.42,4.93-12.9,9.96-18.47,15.79c-8.51,8.91-6.04,19.03,5.17,24.08c8.36,3.76,9.79,6.41,8.25,15.62
			c-2.14,12.84-6.93,24.46-16.37,33.69c-9.53,9.32-17.44,9.35-27.15,0.25c-6.84-6.42-13.25-13.31-20.25-19.55
			c-11.19-9.97-24.23-15.95-39.36-17.22c-20.24-1.7-41.47,21.45-37.63,41.24c2.92,15.05,13.19,21.96,28.03,18.68
			c5.69-1.26,11.23-3.14,16.93-4.33c9.59-2,15.56,1.52,17.55,11.12c1.89,9.16,2.96,18.5,4.01,27.81
			c2.53,22.39,12.65,38.77,34.91,46.48C320.9,353.59,329.88,358.04,340.62,362.61z"/>
		
			<linearGradient id="SVGID_00000119837684277239056870000006791840827877661342_" gradientUnits="userSpaceOnUse" x1="258.6603" y1="571.5073" x2="360.0385" y2="571.5073">
			<stop  offset="0" style="stop-color:#FFFFFF;stop-opacity:0.4"/>
			<stop  offset="0.0691" style="stop-color:#FFFFFF;stop-opacity:0.3435"/>
			<stop  offset="0.4892" style="stop-color:#FFFFFF;stop-opacity:0"/>
			<stop  offset="0.7527" style="stop-color:#FAFAFA;stop-opacity:0.1032"/>
			<stop  offset="1" style="stop-color:#EFEFEF;stop-opacity:0.2"/>
		</linearGradient>
		<path style="fill:url(#SVGID_00000119837684277239056870000006791840827877661342_);" d="M360.02,586.23
			c0.59,19.1-14.56,37.26-32.05,39.12c-3.22,0.34-7.81-1.35-9.97-3.73c-19.29-21.3-38.24-42.9-57.12-64.56
			c-3.83-4.39-2.6-8.79,3-10.8c26.42-9.45,52.9-18.75,79.42-27.93c5.49-1.9,8.81,0.07,9.48,5.52
			C355.36,545.13,357.74,566.43,360.02,586.23z"/>
	</g>
</g>
</svg>
