<?xml version="1.0" encoding="utf-8"?>
<!-- Generator: Adobe Illustrator 26.2.1, SVG Export Plug-In . SVG Version: 6.00 Build 0)  -->
<svg version="1.1" id="report" xmlns="http://www.w3.org/2000/svg" xmlns:xlink="http://www.w3.org/1999/xlink" x="0px" y="0px"
	 viewBox="0 0 640.62 640.62" style="enable-background:new 0 0 640.62 640.62;" xml:space="preserve">
<style type="text/css">
	.st0{fill:#34E0A1;}
</style>
<g>
	<circle class="st0" cx="320.31" cy="320.31" r="320.31"/>
	<path d="M518.15,257.82l38.65-42.05h-85.71c-42.91-29.31-94.73-46.38-150.78-46.38c-55.97,0-107.65,17.11-150.49,46.38H83.89
		l38.65,42.05C98.85,279.44,84,310.58,84,345.15c0,65.24,52.9,118.14,118.14,118.14c30.99,0,59.23-11.95,80.31-31.49l37.86,41.23
		l37.86-41.19c21.08,19.54,49.28,31.46,80.27,31.46c65.24,0,118.21-52.9,118.21-118.14C556.7,310.54,541.84,279.4,518.15,257.82z
		 M202.17,425.1c-44.16,0-79.95-35.79-79.95-79.95s35.79-79.95,79.95-79.95s79.95,35.79,79.95,79.95S246.33,425.1,202.17,425.1z
		 M320.35,342.82c0-52.61-38.26-97.78-88.76-117.07C258.9,214.34,288.85,208,320.31,208s61.45,6.33,88.76,17.75
		C358.6,245.08,320.35,290.21,320.35,342.82z M438.49,425.1c-44.16,0-79.95-35.79-79.95-79.95s35.79-79.95,79.95-79.95
		s79.95,35.79,79.95,79.95S482.65,425.1,438.49,425.1z M438.49,303.2c-23.16,0-41.91,18.75-41.91,41.91
		c0,23.15,18.75,41.91,41.91,41.91c23.15,0,41.91-18.75,41.91-41.91C480.39,321.99,461.64,303.2,438.49,303.2z M244.08,345.15
		c0,23.15-18.75,41.91-41.91,41.91s-41.91-18.75-41.91-41.91c0-23.16,18.75-41.91,41.91-41.91
		C225.33,303.2,244.08,321.99,244.08,345.15z"/>
</g>
</svg>
