<?xml version="1.0" encoding="utf-8"?>
<!-- Generator: Adobe Illustrator 27.3.1, SVG Export Plug-In . SVG Version: 6.00 Build 0)  -->
<svg version="1.1" id="Layer_1" xmlns="http://www.w3.org/2000/svg" xmlns:xlink="http://www.w3.org/1999/xlink" x="0px" y="0px"
	 viewBox="0 0 120 33.11" style="enable-background:new 0 0 120 33.11;" xml:space="preserve">
<style type="text/css">
	.st0{fill:#FFFFFF;}
</style>
<g>
	<g>
		<path class="st0" d="M102.22,21.96c-0.03,0.05-0.09,0.1-0.14,0.14h-1.88c-0.05-0.03-0.09-0.09-0.14-0.14
			c-0.02-1.55,0.03-3.1-0.05-4.65c-0.03-0.56-0.24-1.15-0.56-1.6c-0.12-0.21-0.78-0.28-1.03-0.12c-0.58,0.37-1.15,0.8-1.13,1.62
			v4.88h-2.14c0-1.34,0.02-2.67-0.02-4.01c-0.02-0.64-0.12-1.31-0.28-1.93c-0.16-0.68-0.82-0.96-1.41-0.59
			c-0.51,0.31-1.03,0.7-1.05,1.39c-0.03,1.18-0.07,2.35-0.09,3.54c-0.02,0.51,0,1.01,0,1.59h-2.11V13.9
			c0.84,0.05,1.71-0.4,2.33,0.49c1.39-0.89,3.1-1.1,4.34,0.33c0.8-0.35,1.55-0.92,2.33-0.98c2-0.16,2.93,0.7,3.01,2.81
			C102.3,18.34,102.23,20.15,102.22,21.96z"/>
		<path class="st0" d="M70.08,12.62v2.77h4.53v1.95h-4.43c-0.05,0.03-0.09,0.09-0.14,0.14v4.6H67.8V10.83h7.67v1.79H70.08z"/>
		<path class="st0" d="M60.78,20.55c-0.66-0.3-1.13-1.17-1.03-2.02h5.4c-0.17-0.98-0.23-1.83-0.51-2.61
			c-0.8-2.3-4.22-2.98-5.98-1.31c-1.52,1.45-1.57,3.19-1.1,4.98c0.7,2.65,2.63,2.98,4.77,2.63c1.24-0.19,2.18-1.05,2.51-2.44
			c-0.7-0.12-1.36-0.24-2-0.37C62.07,20.5,61.46,20.83,60.78,20.55z M60.97,15.41c1.01-0.16,1.66,0.38,1.9,1.67h-3.12
			C59.68,16.27,60.2,15.53,60.97,15.41z"/>
		<path class="st0" d="M55.1,13.91v8.15h-1.95c-0.02-0.3-0.03-0.58-0.07-0.96c-0.91,0.73-1.81,1.31-3.01,1.22
			c-1.22-0.09-2.4-0.99-2.44-2.18c-0.07-2.06-0.02-4.13-0.02-6.24h2.23v4.9c0,1.2,0.38,1.76,1.24,1.78
			c1.01,0.02,1.66-0.66,1.69-1.78c0.07-1.62,0.17-3.24,0.26-4.9h2.07V13.91z"/>
		<path class="st0" d="M111.9,19.04c0.14,1.55-0.24,2.39-1.57,2.89c-1.59,0.63-3.22,0.71-4.7-0.31c-0.56-0.4-0.96-1.03-1.45-1.57
			c0.05-0.09,0.09-0.19,0.12-0.3c0.7-0.12,1.39-0.24,2.07-0.37c0.89,1.25,1.86,1.59,2.93,0.94c0.17-0.12,0.35-0.44,0.33-0.64
			c0-0.16-0.28-0.4-0.47-0.45c-0.92-0.28-1.86-0.42-2.77-0.73c-2.07-0.71-2.56-2.98-0.78-4.18c0.75-0.52,1.93-0.59,2.91-0.59
			c1.83,0.02,2.7,0.75,3.17,2.37c-0.56,0.12-1.1,0.24-1.64,0.33c-0.14,0.02-0.35-0.07-0.45-0.17c-1.13-1.1-1.69-1.15-3.19-0.07
			c0.49,0.23,0.87,0.47,1.29,0.59c0.78,0.23,1.6,0.33,2.39,0.59C110.93,17.64,111.82,17.94,111.9,19.04z"/>
		<path class="st0" d="M39.26,10.83v1.81H36v9.32c-0.05,0.05-0.09,0.1-0.14,0.14h-2.11v-9.43h-3.36v-1.85h8.87V10.83z"/>
		<path class="st0" d="M88.01,16.32c-1.62-0.64-2.4-0.14-2.49,1.38c-0.07,1.45-0.16,2.89-0.24,4.39h-1.92v-8.1
			c1.1-0.28,1.59-0.19,2.11,0.37c1.15-0.68,2.68-0.89,2.82-0.3C88.47,14.73,88.14,15.53,88.01,16.32z"/>
		<path class="st0" d="M45.46,16.27c-1.85-0.54-2.42-0.14-2.53,1.59c-0.09,1.39-0.17,2.79-0.26,4.27h-1.9V13.8
			c0.71,0.1,1.45,0.21,2.44,0.37c0.8-0.52,2.18-0.77,2.42-0.12C45.88,14.65,45.55,15.5,45.46,16.27z"/>
		<rect x="78.12" y="13.93" class="st0" width="2.07" height="8.14"/>
		<path class="st0" d="M118.44,14.02c0,0.16-0.3,0.28-0.45,0.42c-0.07-0.03-0.14-0.09-0.21-0.14v-1.76
			c-0.09-0.02-0.16-0.03-0.24-0.05c-0.17,0.61-0.37,1.22-0.61,2.07c-0.38-0.35-0.66-0.63-1.03-0.96c-0.3,0.16-0.1,1.22-0.99,0.66
			v-3.4c1.39-0.61,1.22,0.73,1.78,1.53c0.3-0.63,0.51-1.08,0.75-1.6h1.05C118.47,11.88,118.49,12.96,118.44,14.02z"/>
		<rect x="78.01" y="10.81" class="st0" width="2.13" height="1.79"/>
		<path class="st0" d="M114.55,11.18c-0.07,0.09-0.14,0.17-0.21,0.24c-0.31,0.02-0.63,0.03-1.05,0.05c0,0.82,0.02,1.6-0.02,2.4
			c-0.02,0.19-0.28,0.37-0.42,0.56c-0.09-0.05-0.17-0.1-0.24-0.16V11.5c-0.35-0.03-0.63-0.07-0.92-0.09
			c-0.23-0.44-0.17-0.68,0.4-0.66c0.63,0.02,1.25-0.03,1.88,0.02C114.19,10.79,114.36,11.04,114.55,11.18z"/>
		<path class="st0" d="M70.05,17.48c0.05-0.05,0.09-0.1,0.14-0.14C70.14,17.39,70.09,17.44,70.05,17.48z"/>
		<path class="st0" d="M35.87,22.11c0.05-0.05,0.09-0.1,0.14-0.14C35.96,22.01,35.91,22.06,35.87,22.11z"/>
		<path class="st0" d="M100.05,21.97c0.05,0.05,0.09,0.1,0.14,0.14C100.14,22.06,100.1,22.01,100.05,21.97z"/>
		<path class="st0" d="M102.08,22.11c0.05-0.05,0.09-0.1,0.14-0.15C102.18,22.01,102.13,22.06,102.08,22.11z"/>
	</g>
	<g>
		<path class="st0" d="M24.54,10.9c-0.05,1.23-0.23,2.45-0.29,3.67c-0.02,0.41-0.25,0.45-0.52,0.5c-0.2,0.03-0.42,0.01-0.6,0.01
			c0.11-2.1,0.22-4.16,0.31-6.22c-1.19-0.25-2.22-0.64-3.16-1.27c-0.06-0.02-0.12-0.05-0.18-0.09c-0.46-0.31-0.93-0.61-1.36-0.95
			c-0.41-0.31-0.8-0.66-1.2-0.99c-1.39-1.16-3.01-1.69-4.81-1.67c-0.28,0-0.55,0.08-0.83,0.11c-0.02-0.01-0.05-0.02-0.09-0.05
			c0.02,0.04,0.04,0.06,0.06,0.09c-0.04,0.05-0.09,0.15-0.12,0.15c-1.32-0.2-2.26,0.62-3.25,1.3c-1.19,0.8-2.34,1.68-3.56,2.45
			C4.41,8.28,3.79,8.47,3.18,8.63c-0.37,0.11-0.52,0.23-0.5,0.63c0.09,1.63,0.14,3.25,0.23,4.87c0.03,0.52,0.13,1.04,0.22,1.55
			C3.18,16,3.3,16.24,3.74,16.23c1.18-0.04,2.35-0.01,3.51-0.03c0.2,0,0.4-0.14,0.58-0.26c0.13-0.08,0.23-0.22,0.33-0.33
			c1.43-1.46,1.43-1.46,3.58-1.38c-0.98,0.92-1.92,1.79-2.87,2.66c0.53,0.68,0.91,1.19,1.3,1.69c0.11-0.06,0.2-0.09,0.26-0.14
			c0.91-0.93,2.03-1.04,3.22-0.92c0.15,0.01,0.33,0.05,0.42,0.15c1.36,1.4,2.71,2.8,4.08,4.22c-0.26,0.39-0.47,0.46-0.84,0.09
			c-1-1.02-2.06-1.99-3.13-3.03c-0.12,0.18-0.22,0.31-0.3,0.43c1.15,1.13,2.29,2.25,3.49,3.44c-0.3,0.2-0.52,0.35-0.72,0.47
			c-1.14-1.12-2.26-2.21-3.42-3.33c-0.1,0.09-0.2,0.18-0.34,0.29c0.05,0.09,0.09,0.15,0.13,0.19c0.99,0.99,1.98,1.98,3,2.96
			c0.19,0.19,0.23,0.36,0.08,0.57l-0.02,0.02c-0.17-0.02-0.41,0.01-0.52-0.09c-1.25-1.19-2.59-2.3-3.68-3.62
			c-0.8-0.96-1.71-0.56-2.6-0.6c-0.25-0.01-0.58,0.33-0.77,0.59c-0.69,0.94-1.57,1.25-2.72,1.11c-0.75-0.09-1.52-0.01-2.37-0.01
			c-0.36-1.21-0.78-2.38-1.07-3.6c-0.25-1.01-0.38-2.05-0.52-3.08c-0.1-0.73-0.14-1.47-0.22-2.2c0.05-0.03,0.11-0.06,0.15-0.1
			c-0.05-0.03-0.12-0.06-0.18-0.11c-0.02-0.68-0.04-1.36-0.06-2.03c0.04-0.04,0.1-0.08,0.15-0.11c-0.05-0.04-0.11-0.08-0.16-0.11
			V7.61C2.74,7.7,3.73,7.32,4.66,6.74c0.03,0.01,0.05,0.03,0.09,0.05C4.73,6.76,4.7,6.73,4.68,6.7c0.63-0.41,1.24-0.82,1.87-1.24
			C6.57,5.44,6.6,5.42,6.62,5.4c0.11-0.09,0.22-0.17,0.31-0.26c0.11-0.09,0.23-0.18,0.33-0.28c0.6-0.42,1.21-0.84,1.81-1.27
			C9.09,3.62,9.1,3.64,9.13,3.66c0.01-0.02,0.02-0.05,0.03-0.09c0.75-0.26,1.51-0.52,2.26-0.78c0.08-0.03,0.15-0.05,0.23-0.09
			c0.28,0,0.57-0.02,0.86-0.01c1.13,0.05,2.28,0.02,3.33,0.58c0.58,0.31,1.23,0.5,1.81,0.81c0.41,0.22,0.77,0.56,1.14,0.84
			c1.39,1.05,2.65,2.3,4.45,2.64c0.37,0.06,0.77,0.01,1.15,0.01c0.01-0.05,0.01-0.11,0.02-0.16c0.03,0.05,0.11,0.11,0.12,0.16
			C24.54,8.69,24.6,9.8,24.54,10.9z"/>
		<path class="st0" d="M24.14,16.21c-0.73,2.7-1.2,5.41-3,7.61c-0.06,0.06-0.13,0.14-0.18,0.2c-0.81,1.21-1.8,2.24-2.91,3.16
			c-0.56,0.46-1.14,0.91-1.71,1.35c-0.04,0.03-0.08,0.05-0.12,0.09c-0.36,0.22-0.7,0.44-1.06,0.67c-0.04,0.02-0.08,0.04-0.12,0.08
			c-0.28,0.14-0.56,0.27-0.84,0.41c-0.1,0.04-0.19,0.09-0.29,0.12c-0.54,0.58-0.8,0.64-1.46,0.31c-1.5-0.74-2.88-1.66-4.15-2.76
			c-0.05-0.05-0.12-0.11-0.18-0.16c-0.78-0.74-1.6-1.44-2.3-2.24C5.27,24.42,4.85,23.69,4.37,23c-0.06-0.1-0.1-0.22-0.15-0.36
			c0.13,0,0.22,0.01,0.3,0c0.77-0.12,1.13,0.23,1.55,0.89c0.58,0.91,1.43,1.65,2.22,2.4c0.66,0.61,1.37,1.19,2.11,1.68
			c0.78,0.52,1.62,0.94,2.45,1.38c0.12,0.06,0.36,0.08,0.45,0c0.52-0.42,1.27-0.43,1.69-1.06c0.17-0.26,0.63-0.3,0.91-0.51
			c0.55-0.39,1.1-0.78,1.58-1.23c0.42-0.39,0.72-0.93,1.15-1.32c0.57-0.52,1.06-1.11,1.53-1.7c0.36-0.45,0.5-1.07,0.73-1.62
			c0.1-0.02,0.2-0.04,0.31-0.08c-0.01-0.04-0.02-0.09-0.03-0.13c-0.19,0.01-0.4,0.02-0.6,0.03c-0.04,0-0.11-0.02-0.15-0.01
			c-1.68,0.36-2.79-0.47-3.81-1.68c-0.72-0.86-1.58-1.61-2.39-2.4c-0.05-0.05-0.11-0.14-0.15-0.14c-0.84,0.01-1.68-0.03-2.5,0.09
			c-0.36,0.04-0.68,0.41-1.01,0.63c-0.03,0.02-0.08,0.05-0.11,0.08c-0.12-0.02-0.27-0.01-0.33-0.09c-0.22-0.23-0.4-0.49-0.69-0.84
			c0.92-0.88,1.84-1.79,2.78-2.67c0.1-0.1,0.28-0.14,0.43-0.14c1.35-0.01,2.7-0.02,4.05,0c0.59,0.01,0.98,0.36,1.26,0.87
			c0.12,0.2,0.33,0.34,0.51,0.52c0.11,0.11,0.27,0.18,0.32,0.3c0.13,0.27,0.31,0.32,0.59,0.32c1.37-0.01,2.74-0.01,4.11-0.01h0.66
			V16.21z"/>
		<path class="st0" d="M16.71,8.2c-1.54,1.49-3.11,2.98-4.64,4.45c-0.82-0.83-1.7-1.71-2.62-2.64c0.09-0.09,0.23-0.24,0.43-0.46
			c0.65,0.67,1.28,1.32,1.89,1.97c0.27,0.28,0.44,0.23,0.7-0.02c1.27-1.23,2.58-2.44,3.9-3.69C16.4,7.85,16.52,7.99,16.71,8.2z"/>
		<path class="st0" d="M11.79,20.94c-0.78,0.75-1.55,1.49-2.3,2.24C9.21,23.46,9,23.35,8.78,23.14c-0.26-0.25-0.05-0.4,0.11-0.56
			l1.74-1.74C11.17,20.29,11.17,20.29,11.79,20.94z"/>
		<path class="st0" d="M13.54,22.72c-0.45,0.5-0.93,0.99-1.38,1.5c-0.33,0.39-0.91,0.49-1.38,0.24c0.72-0.71,1.44-1.43,2.2-2.2
			C13.15,22.4,13.38,22.6,13.54,22.72z"/>
		<path class="st0" d="M10.47,20.24c-0.74,0.74-1.42,1.51-2.2,2.17c-0.41,0.35-0.47-0.25-0.61-0.39c0.38-0.42,0.74-0.79,1.06-1.2
			C9.29,20.08,9.56,19.97,10.47,20.24z"/>
		<path class="st0" d="M12.48,21.71c-0.72,0.85-1.43,1.71-2.17,2.59c-0.35-0.29-0.49-0.41-0.67-0.56c0.8-0.8,1.51-1.55,2.27-2.25
			C12.33,21.11,12.4,21.66,12.48,21.71z"/>
		<path class="st0" d="M15.23,24.5c-0.83,0.17-1.48,0.05-1.95-0.65c0.12-0.12,0.25-0.25,0.37-0.39c0.22-0.25,0.41-0.24,0.63,0
			C14.56,23.8,14.87,24.13,15.23,24.5z"/>
		<path class="st0" d="M21.22,21.5c-0.11,0.03-0.22,0.05-0.31,0.08c-0.11-0.05-0.22-0.11-0.32-0.17c0.2-0.01,0.41-0.02,0.6-0.03
			C21.2,21.41,21.21,21.45,21.22,21.5z"/>
		<path class="st0" d="M7.27,4.86c-0.11,0.1-0.22,0.19-0.33,0.28C7.05,5.05,7.16,4.96,7.27,4.86z"/>
		<path class="st0" d="M8.12,27.28c0.06,0.05,0.12,0.11,0.19,0.16C8.25,27.39,8.18,27.34,8.12,27.28z"/>
		<path class="st0" d="M13.91,29.9c0.1-0.04,0.19-0.08,0.29-0.12C14.11,29.82,14.01,29.86,13.91,29.9z"/>
		<path class="st0" d="M20.96,24.03c0.06-0.07,0.12-0.14,0.19-0.21C21.08,23.89,21.02,23.96,20.96,24.03z"/>
		<path class="st0" d="M1.78,12.41c-0.04,0.03-0.1,0.06-0.15,0.1c-0.01-0.06-0.02-0.13-0.03-0.2C1.66,12.34,1.73,12.38,1.78,12.41z"
			/>
		<path class="st0" d="M1.69,10.17c-0.05,0.03-0.11,0.06-0.15,0.11c0-0.08-0.01-0.15-0.01-0.22C1.58,10.09,1.63,10.12,1.69,10.17z"
			/>
		<path class="st0" d="M20.1,7.49c0.06,0.03,0.13,0.06,0.19,0.09C20.23,7.55,20.16,7.52,20.1,7.49z"/>
		<path class="st0" d="M11.65,2.72c-0.07,0.03-0.15,0.05-0.22,0.08C11.5,2.77,11.57,2.74,11.65,2.72z"/>
		<path class="st0" d="M15.05,29.37c0.04-0.03,0.08-0.05,0.11-0.08C15.12,29.31,15.09,29.34,15.05,29.37z"/>
		<path class="st0" d="M16.22,28.62c0.04-0.03,0.08-0.05,0.11-0.08C16.3,28.57,16.26,28.59,16.22,28.62z"/>
		<path class="st0" d="M16.17,24.06c-0.03-0.02-0.06-0.03-0.09-0.05l0.02-0.02C16.12,24.01,16.14,24.03,16.17,24.06z"/>
		<path class="st0" d="M10.46,17.95c0.04-0.03,0.08-0.05,0.11-0.08C10.54,17.9,10.5,17.93,10.46,17.95z"/>
		<path class="st0" d="M6.63,5.39C6.6,5.42,6.57,5.44,6.54,5.47C6.57,5.44,6.6,5.42,6.63,5.39z"/>
		<path class="st0" d="M9.16,3.58C9.15,3.61,9.14,3.64,9.13,3.66C9.1,3.64,9.09,3.62,9.08,3.59C9.1,3.58,9.13,3.57,9.16,3.58z"/>
		<path class="st0" d="M4.75,6.79C4.72,6.77,4.69,6.75,4.66,6.74L4.68,6.7C4.7,6.73,4.73,6.76,4.75,6.79z"/>
		<path class="st0" d="M11.91,3.99l-0.02,0.03C11.86,4,11.84,3.98,11.82,3.93C11.85,3.97,11.89,3.98,11.91,3.99z"/>
	</g>
</g>
</svg>
