<?xml version="1.0" encoding="utf-8"?>
<!-- Generator: Adobe Illustrator 26.2.1, SVG Export Plug-In . SVG Version: 6.00 Build 0)  -->
<svg version="1.1" id="report" xmlns="http://www.w3.org/2000/svg" xmlns:xlink="http://www.w3.org/1999/xlink" x="0px" y="0px"
	 viewBox="0 0 640.62 640.62" style="enable-background:new 0 0 640.62 640.62;" xml:space="preserve">
<style type="text/css">
	.st0{display:none;fill:url(#SVGID_1_);}
	.st1{display:none;fill:url(#SVGID_00000057838699233137621250000015643056175442131854_);}
	.st2{display:none;fill:url(#SVGID_00000131339846635085391970000005241682991674551984_);}
	.st3{fill:#98C93C;}
</style>
<linearGradient id="SVGID_1_" gradientUnits="userSpaceOnUse" x1="290.9483" y1="320.3009" x2="360.9372" y2="320.3009">
	<stop  offset="0" style="stop-color:#FFFFFF;stop-opacity:0.4"/>
	<stop  offset="0.0691" style="stop-color:#FFFFFF;stop-opacity:0.3435"/>
	<stop  offset="0.4892" style="stop-color:#FFFFFF;stop-opacity:0"/>
	<stop  offset="0.7527" style="stop-color:#FAFAFA;stop-opacity:0.1032"/>
	<stop  offset="1" style="stop-color:#EFEFEF;stop-opacity:0.2"/>
</linearGradient>
<path class="st0" d="M360.94,408.89c-23.09-16.59-45.06-32.27-66.81-48.25c-1.83-1.34-2.98-4.76-3.01-7.23
	c-0.23-22.1-0.21-44.2-0.02-66.3c0.02-2.29,0.86-5.51,2.5-6.71c21.96-16.13,44.13-31.97,67.35-48.68
	C360.94,291.13,360.94,349.28,360.94,408.89z"/>
<linearGradient id="SVGID_00000076581428768227737050000010053568576907386277_" gradientUnits="userSpaceOnUse" x1="234.72" y1="320.2812" x2="275.4071" y2="320.2812">
	<stop  offset="0" style="stop-color:#FFFFFF;stop-opacity:0.4"/>
	<stop  offset="0.0691" style="stop-color:#FFFFFF;stop-opacity:0.3435"/>
	<stop  offset="0.4892" style="stop-color:#FFFFFF;stop-opacity:0"/>
	<stop  offset="0.7527" style="stop-color:#FAFAFA;stop-opacity:0.1032"/>
	<stop  offset="1" style="stop-color:#EFEFEF;stop-opacity:0.2"/>
</linearGradient>
<path style="display:none;fill:url(#SVGID_00000076581428768227737050000010053568576907386277_);" d="M275.41,285.55
	c0,23.61,0,46.09,0,69.35c-11.46,0-22.58,0.48-33.59-0.36c-2.51-0.19-6.61-4.84-6.7-7.55c-0.6-17.88-0.4-35.78-0.22-53.68
	c0.05-4.85,2.99-7.68,7.96-7.73C253.46,285.48,264.05,285.55,275.41,285.55z"/>
<linearGradient id="SVGID_00000170276626418833279010000013361380814530491320_" gradientUnits="userSpaceOnUse" x1="377.0954" y1="320.1778" x2="405.9691" y2="320.1778">
	<stop  offset="0" style="stop-color:#FFFFFF;stop-opacity:0.4"/>
	<stop  offset="0.0691" style="stop-color:#FFFFFF;stop-opacity:0.3435"/>
	<stop  offset="0.4892" style="stop-color:#FFFFFF;stop-opacity:0"/>
	<stop  offset="0.7527" style="stop-color:#FAFAFA;stop-opacity:0.1032"/>
	<stop  offset="1" style="stop-color:#EFEFEF;stop-opacity:0.2"/>
</linearGradient>
<path style="display:none;fill:url(#SVGID_00000170276626418833279010000013361380814530491320_);" d="M377.1,355.13
	c0-23.33,0-46.62,0.01-69.9c15.57,1.63,28.5,17.01,28.86,34.31C406.32,336.88,393.67,352.67,377.1,355.13z"/>
<path class="st3" d="M441.53,65.7C403.21,5.91,329.49-15.62,264.05,13.89c-61.51,27.73-99.76,108.43-82.35,171.44
	c19.13,69.33,53.79,133.14,72.79,202.31c19.91,72.61,29.34,147.27,30.79,222.4c0.78,39.84,27.53,26.8,48.24,29.38
	c27.51,3.43,27.11-14.02,27.26-32.95c0.89-104.98,22.25-205.5,63.69-302.34c20.33-47.55,39.44-96.24,38.63-142.54
	C463.27,119.96,455.29,87.15,441.53,65.7z M322.15,234.28c-51.41-0.2-93.81-41.53-94.35-91.98c-0.58-53.57,39.84-93.19,95.08-93.19
	c53.24,0.02,94.23,39.19,94.75,90.51C418.15,191.57,374.85,234.48,322.15,234.28z"/>
</svg>
