<?xml version="1.0" encoding="utf-8"?>
<!-- Generator: Adobe Illustrator 26.2.1, SVG Export Plug-In . SVG Version: 6.00 Build 0)  -->
<svg version="1.1" id="Layer_1" xmlns="http://www.w3.org/2000/svg" xmlns:xlink="http://www.w3.org/1999/xlink" x="0px" y="0px"
	 viewBox="0 0 120 50" style="enable-background:new 0 0 120 50;" xml:space="preserve">
<style type="text/css">
	.st0{fill:#FFFFFF;}
</style>
<g>
	<path class="st0" d="M31.53,20.71h12.15v2.27H38.9v12.74h-2.63V22.98h-4.76v-2.27H31.53z M43.16,24.85h2.25v2.1h0.04
		c0.07-0.3,0.21-0.58,0.41-0.86c0.2-0.28,0.44-0.54,0.73-0.76c0.29-0.23,0.6-0.41,0.95-0.56c0.35-0.14,0.71-0.21,1.07-0.21
		c0.28,0,0.48,0.01,0.58,0.02c0.11,0.01,0.21,0.03,0.33,0.04v2.31c-0.17-0.03-0.34-0.05-0.52-0.07c-0.18-0.02-0.35-0.03-0.52-0.03
		c-0.4,0-0.78,0.08-1.14,0.24s-0.67,0.4-0.93,0.71c-0.26,0.32-0.48,0.7-0.64,1.17c-0.16,0.47-0.23,1-0.23,1.6v5.17h-2.39V24.85
		H43.16z M60.53,35.72h-2.35V34.2h-0.04c-0.3,0.55-0.73,0.98-1.31,1.31s-1.18,0.5-1.78,0.5c-1.43,0-2.47-0.35-3.1-1.06
		c-0.64-0.71-0.95-1.78-0.95-3.21v-6.89h2.39v6.66c0,0.95,0.18,1.63,0.55,2.02c0.36,0.39,0.88,0.59,1.54,0.59
		c0.51,0,0.92-0.07,1.26-0.23s0.61-0.36,0.82-0.62c0.21-0.25,0.36-0.57,0.46-0.93c0.1-0.36,0.14-0.75,0.14-1.18v-6.3h2.39V35.72z
		 M64.61,32.23c0.07,0.7,0.34,1.19,0.79,1.47c0.47,0.28,1.02,0.42,1.66,0.42c0.22,0,0.48-0.02,0.76-0.05s0.56-0.11,0.8-0.2
		c0.25-0.1,0.46-0.24,0.62-0.43c0.16-0.19,0.23-0.43,0.22-0.74c-0.01-0.31-0.13-0.56-0.34-0.75c-0.21-0.2-0.48-0.35-0.8-0.48
		c-0.33-0.12-0.7-0.22-1.12-0.31c-0.42-0.08-0.85-0.18-1.28-0.28c-0.44-0.1-0.88-0.22-1.29-0.36c-0.41-0.14-0.78-0.33-1.11-0.57
		c-0.33-0.23-0.59-0.54-0.78-0.91c-0.2-0.37-0.3-0.83-0.3-1.38c0-0.59,0.15-1.08,0.43-1.48c0.29-0.4,0.66-0.72,1.09-0.96
		c0.44-0.24,0.93-0.41,1.47-0.52c0.54-0.1,1.06-0.15,1.55-0.15c0.56,0,1.1,0.06,1.61,0.18c0.51,0.12,0.97,0.31,1.39,0.58
		c0.41,0.26,0.75,0.61,1.03,1.04c0.28,0.42,0.44,0.94,0.52,1.55h-2.5c-0.12-0.57-0.37-0.96-0.78-1.15c-0.41-0.2-0.89-0.3-1.42-0.3
		c-0.17,0-0.37,0.01-0.6,0.04c-0.23,0.03-0.44,0.08-0.66,0.16c-0.2,0.07-0.37,0.19-0.52,0.34c-0.14,0.15-0.21,0.34-0.21,0.58
		c0,0.3,0.11,0.53,0.31,0.71c0.2,0.18,0.47,0.33,0.79,0.46c0.33,0.12,0.7,0.22,1.12,0.31c0.42,0.08,0.86,0.18,1.3,0.28
		c0.43,0.1,0.86,0.22,1.28,0.36c0.42,0.14,0.79,0.33,1.12,0.57c0.33,0.24,0.59,0.54,0.79,0.9c0.2,0.36,0.31,0.82,0.31,1.35
		c0,0.65-0.15,1.19-0.44,1.64c-0.3,0.44-0.68,0.82-1.14,1.09c-0.47,0.28-1,0.49-1.57,0.61c-0.57,0.13-1.14,0.19-1.71,0.19
		c-0.69,0-1.32-0.07-1.91-0.23s-1.09-0.39-1.51-0.7c-0.42-0.32-0.76-0.71-1.01-1.18c-0.24-0.47-0.37-1.03-0.39-1.67h2.41V32.23z
		 M72.51,24.85h1.81v-3.26h2.39v3.26h2.16v1.79h-2.16v5.8c0,0.25,0.01,0.47,0.03,0.66c0.02,0.18,0.07,0.34,0.15,0.47
		c0.07,0.13,0.19,0.22,0.35,0.29c0.16,0.06,0.36,0.1,0.64,0.1c0.17,0,0.34,0,0.51-0.01c0.17-0.01,0.34-0.03,0.51-0.07v1.85
		c-0.26,0.03-0.53,0.05-0.77,0.08c-0.25,0.03-0.51,0.04-0.77,0.04c-0.64,0-1.14-0.06-1.53-0.18c-0.38-0.12-0.69-0.3-0.9-0.53
		c-0.22-0.23-0.36-0.52-0.44-0.87c-0.07-0.35-0.13-0.75-0.14-1.2v-6.41h-1.81v-1.81L72.51,24.85z M80.57,24.85h2.27v1.47h0.04
		c0.34-0.64,0.8-1.08,1.41-1.36s1.25-0.41,1.96-0.41c0.86,0,1.6,0.15,2.23,0.46c0.64,0.3,1.17,0.71,1.59,1.24
		c0.42,0.53,0.73,1.14,0.94,1.84c0.21,0.7,0.32,1.45,0.32,2.25c0,0.73-0.1,1.44-0.29,2.12c-0.19,0.69-0.48,1.29-0.86,1.82
		c-0.38,0.53-0.87,0.94-1.46,1.26c-0.59,0.32-1.28,0.48-2.09,0.48c-0.35,0-0.7-0.03-1.05-0.1c-0.35-0.06-0.69-0.17-1.01-0.31
		s-0.62-0.32-0.89-0.54c-0.28-0.22-0.5-0.48-0.69-0.76h-0.04v5.42h-2.39V24.85z M88.94,30.3c0-0.49-0.06-0.96-0.19-1.43
		s-0.32-0.87-0.57-1.23c-0.25-0.36-0.57-0.65-0.94-0.86c-0.38-0.21-0.82-0.33-1.3-0.33c-1.01,0-1.77,0.35-2.28,1.05
		c-0.51,0.7-0.76,1.63-0.76,2.8c0,0.55,0.06,1.06,0.2,1.53s0.33,0.87,0.6,1.21c0.26,0.34,0.58,0.6,0.95,0.79
		c0.37,0.2,0.8,0.3,1.29,0.3c0.55,0,1.01-0.12,1.39-0.34c0.38-0.22,0.69-0.52,0.93-0.87c0.24-0.36,0.42-0.76,0.53-1.22
		C88.88,31.24,88.94,30.77,88.94,30.3L88.94,30.3z M93.16,20.71h2.39v2.27h-2.39C93.16,22.98,93.16,20.71,93.16,20.71z M93.16,24.85
		h2.39v10.87h-2.39V24.85L93.16,24.85z M97.69,20.71h2.39v15.01h-2.39L97.69,20.71L97.69,20.71z M107.43,36.02
		c-0.87,0-1.64-0.15-2.32-0.43c-0.68-0.29-1.25-0.69-1.73-1.19c-0.47-0.51-0.83-1.11-1.07-1.81c-0.24-0.7-0.37-1.47-0.37-2.31
		c0-0.83,0.13-1.59,0.37-2.29c0.24-0.7,0.6-1.3,1.07-1.81c0.47-0.51,1.05-0.9,1.73-1.19c0.68-0.29,1.45-0.43,2.32-0.43
		s1.64,0.15,2.32,0.43c0.68,0.29,1.25,0.69,1.73,1.19c0.47,0.51,0.83,1.11,1.07,1.81c0.24,0.7,0.37,1.46,0.37,2.29
		c0,0.84-0.13,1.61-0.37,2.31c-0.24,0.7-0.6,1.3-1.07,1.81c-0.47,0.51-1.05,0.9-1.73,1.19C109.07,35.87,108.3,36.02,107.43,36.02
		L107.43,36.02z M107.43,34.12c0.53,0,1-0.12,1.39-0.34c0.39-0.22,0.71-0.52,0.96-0.88s0.43-0.77,0.56-1.23
		c0.12-0.46,0.18-0.92,0.18-1.4c0-0.47-0.06-0.92-0.18-1.39s-0.31-0.87-0.56-1.23s-0.57-0.65-0.96-0.87
		c-0.39-0.22-0.86-0.34-1.39-0.34c-0.53,0-1,0.12-1.39,0.34c-0.39,0.22-0.71,0.52-0.96,0.87c-0.25,0.36-0.43,0.76-0.56,1.23
		c-0.12,0.47-0.18,0.92-0.18,1.39c0,0.48,0.06,0.94,0.18,1.4c0.12,0.46,0.31,0.87,0.56,1.23c0.25,0.36,0.57,0.66,0.96,0.88
		C106.43,34.01,106.9,34.12,107.43,34.12L107.43,34.12z M113.61,24.85h1.81v-3.26h2.39v3.26h2.16v1.79h-2.16v5.8
		c0,0.25,0.01,0.47,0.03,0.66c0.02,0.18,0.07,0.34,0.15,0.47c0.07,0.13,0.19,0.22,0.35,0.29c0.16,0.06,0.36,0.1,0.64,0.1
		c0.17,0,0.34,0,0.51-0.01c0.17-0.01,0.34-0.03,0.51-0.07v1.85c-0.26,0.03-0.53,0.05-0.77,0.08c-0.25,0.03-0.51,0.04-0.77,0.04
		c-0.64,0-1.14-0.06-1.53-0.18s-0.69-0.3-0.9-0.53c-0.22-0.23-0.36-0.52-0.44-0.87c-0.07-0.35-0.13-0.75-0.14-1.2v-6.41h-1.81v-1.81
		L113.61,24.85z"/>
	<path class="st0" d="M28.73,20.71H17.76l-3.39-10.44l-3.4,10.44L0,20.7l8.89,6.46l-3.4,10.43l8.89-6.45l8.88,6.45l-3.39-10.43
		L28.73,20.71z"/>
	<path class="st0" d="M20.62,29.52l-0.76-2.36l-5.49,3.98L20.62,29.52z"/>
</g>
</svg>
