<?xml version="1.0" encoding="UTF-8"?>
<svg id="report" xmlns="http://www.w3.org/2000/svg" version="1.1" xmlns:xlink="http://www.w3.org/1999/xlink" viewBox="0 0 640.62 640.62">
  <defs>
    <style>
      .cls-1 {
        fill: #360061;
      }

      .cls-1, .cls-2, .cls-3, .cls-4 {
        stroke-width: 0px;
      }

      .cls-2 {
        fill: url(#linear-gradient);
      }

      .cls-3 {
        fill: #5800b2;
      }

      .cls-4 {
        fill: url(#linear-gradient-2);
      }
    </style>
    <linearGradient id="linear-gradient" x1="74.91" y1="420.05" x2="565.78" y2="420.05" gradientTransform="translate(0 642) scale(1 -1)" gradientUnits="userSpaceOnUse">
      <stop offset="0" stop-color="#fff" stop-opacity=".4"/>
      <stop offset=".07" stop-color="#fff" stop-opacity=".34"/>
      <stop offset=".49" stop-color="#fff" stop-opacity="0"/>
      <stop offset=".75" stop-color="#fafafa" stop-opacity=".1"/>
      <stop offset="1" stop-color="#efefef" stop-opacity=".2"/>
    </linearGradient>
    <linearGradient id="linear-gradient-2" x1="193.59" y1="361.17" x2="447.13" y2="361.17" xlink:href="#linear-gradient"/>
  </defs>
  <path class="cls-1" d="M246.18,408.55c-45.03,0-88.63.02-132.24-.09-1.55,0-3.82-.86-4.52-2.05-4.32-7.36-8.29-14.92-12.6-22.85,12.5-5.21,24.13-10.05,36.33-15.15-2.48-6.05-4.78-11.66-7.41-18.07-12.03,4.91-23.81,9.72-36.09,14.73-8.9-24.04-13.5-48.38-14.63-74.27h38.61v-19.77h-38.72c1.07-26.27,5.94-50.93,15.07-75.54,11.95,4.93,23.58,9.73,35.99,14.85,2.49-5.9,4.91-11.63,7.61-18-11.99-5.05-23.78-10.02-35.92-15.13,10.81-23.19,24.62-43.77,41.71-62.37,9.1,9.19,18.08,18.25,26.91,27.16,5.56-5.4,10.06-9.78,14.71-14.29-9.03-8.91-17.9-17.66-27.39-27.02,19.27-18.02,40.31-31.99,64.16-43.02,5.01,12.01,9.86,23.62,14.99,35.92,6.11-2.52,11.88-4.91,18.04-7.46-4.97-12.17-9.74-23.85-14.71-36.01,24.04-9.04,48.51-13.67,74.32-14.8v38.64h19.73v-38.59c26.22,1.03,51.01,5.85,75.47,15.07-5.01,12.14-9.83,23.79-14.83,35.92,5.97,2.53,11.57,4.91,17.93,7.62,5.01-11.84,9.98-23.6,14.94-35.3,14.8,4.33,51.21,28.62,62.65,41.76-8.98,8.8-17.99,17.63-27.23,26.68,5.34,5.08,9.88,9.39,14.99,14.25,8.39-8.85,17.07-18.02,26.18-27.64,18.21,19.59,32.11,40.53,43.25,64.43-11.9,4.98-23.46,9.82-35.89,15.01,2.43,5.94,4.78,11.68,7.37,18.03,12.03-4.91,23.69-9.65,36.04-14.69,9.09,23.89,13.55,48.38,14.82,74.11h-38.56v19.77h38.32c-.83,26.3-5.78,51.07-14.82,75.64-12.07-4.99-23.73-9.8-36.05-14.89-2.51,5.98-4.92,11.73-7.55,17.99,11.97,5.03,23.6,9.93,36.27,15.26-4.24,7.74-8.2,15.22-12.48,22.51-.59,1.01-2.75,1.57-4.17,1.58-43.61.08-87.21.06-132.49.06,43.36-27.62,68.64-65.6,72.75-115.68,4.1-50.02-13.54-92.24-51.72-124.84-62.49-53.39-157.37-44.27-209.12,19.18-56.33,69.03-39.71,173.79,40,221.35Z"/>
  <path class="cls-2" d="M246.18,408.55c-45.03,0-88.63.02-132.24-.09-1.55,0-3.82-.86-4.52-2.05-4.32-7.36-8.29-14.92-12.6-22.85,12.5-5.21,24.13-10.05,36.33-15.15-2.48-6.05-4.78-11.66-7.41-18.07-12.03,4.91-23.81,9.72-36.09,14.73-8.9-24.04-13.5-48.38-14.63-74.27h38.61v-19.77h-38.72c1.07-26.27,5.94-50.93,15.07-75.54,11.95,4.93,23.58,9.73,35.99,14.85,2.49-5.9,4.91-11.63,7.61-18-11.99-5.05-23.78-10.02-35.92-15.13,10.81-23.19,24.62-43.77,41.71-62.37,9.1,9.19,18.08,18.25,26.91,27.16,5.56-5.4,10.06-9.78,14.71-14.29-9.03-8.91-17.9-17.66-27.39-27.02,19.27-18.02,40.31-31.99,64.16-43.02,5.01,12.01,9.86,23.62,14.99,35.92,6.11-2.52,11.88-4.91,18.04-7.46-4.97-12.17-9.74-23.85-14.71-36.01,24.04-9.04,48.51-13.67,74.32-14.8v38.64h19.73v-38.59c26.22,1.03,51.01,5.85,75.47,15.07-5.01,12.14-9.83,23.79-14.83,35.92,5.97,2.53,11.57,4.91,17.93,7.62,5.01-11.84,9.98-23.6,14.94-35.3,14.8,4.33,51.21,28.62,62.65,41.76-8.98,8.8-17.99,17.63-27.23,26.68,5.34,5.08,9.88,9.39,14.99,14.25,8.39-8.85,17.07-18.02,26.18-27.64,18.21,19.59,32.11,40.53,43.25,64.43-11.9,4.98-23.46,9.82-35.89,15.01,2.43,5.94,4.78,11.68,7.37,18.03,12.03-4.91,23.69-9.65,36.04-14.69,9.09,23.89,13.55,48.38,14.82,74.11h-38.56v19.77h38.32c-.83,26.3-5.78,51.07-14.82,75.64-12.07-4.99-23.73-9.8-36.05-14.89-2.51,5.98-4.92,11.73-7.55,17.99,11.97,5.03,23.6,9.93,36.27,15.26-4.24,7.74-8.2,15.22-12.48,22.51-.59,1.01-2.75,1.57-4.17,1.58-43.61.08-87.21.06-132.49.06,43.36-27.62,68.64-65.6,72.75-115.68,4.1-50.02-13.54-92.24-51.72-124.84-62.49-53.39-157.37-44.27-209.12,19.18-56.33,69.03-39.71,173.79,40,221.35Z"/>
  <path class="cls-1" d="M412.73,605.13c14.81-14.78,28.36-28.31,42.17-42.11-4.77-4.45-9.22-8.59-14.21-13.26-1.12,1.05-2.72,2.47-4.24,3.98-15.79,15.76-31.63,31.49-47.29,47.38-2.78,2.81-5.52,4.14-9.58,4.09-21.06-.21-42.12-.1-63.63-.1,13.98-13.92,27.61-27.48,41.52-41.33-5.61-5.25-10.04-9.41-15.02-14.06-1.15,1.08-2.77,2.52-4.29,4.04-15.79,15.76-31.63,31.49-47.29,47.38-2.78,2.82-5.54,4.12-9.59,4.07-21.06-.2-42.12-.09-64.31-.09,14.51-14.11,28.3-27.52,42.36-41.2-5.76-5.41-10.19-9.58-15.15-14.23-1.19,1.12-2.8,2.56-4.32,4.08-15.94,15.91-31.83,31.86-47.85,47.7-1.61,1.59-3.95,3.47-5.97,3.49-22.08.25-44.16.15-67.35.15,14.48-14.13,28.25-27.56,42.35-41.32-5.82-5.24-10.35-9.31-15.41-13.86-.94.89-2.55,2.33-4.07,3.85-15.94,15.91-31.78,31.91-47.9,47.63-2.05,2-5.49,3.32-8.39,3.54-6.92.5-13.91.3-20.87.13-16.14-.39-28.92-12.89-29-28.99-.2-39.72-.21-79.43.02-119.15.09-15.78,12.87-28.18,28.66-28.72.21,0,.41,0,.62,0,8.39.05,17.65-2.09,24.92.79,7.02,2.78,12.03,10.7,17.82,16.45,11.48,11.4,22.88,22.86,34.33,34.29,1.42,1.42,2.93,2.76,4.56,4.3,4.56-4.65,8.83-9.01,12.91-13.18-13.54-13.49-27.12-27.02-40.7-40.54.3-.54.59-1.08.89-1.62,1.43-.16,2.87-.46,4.31-.46,20.06-.03,40.13-.14,60.18.13,2.66.04,5.93,1.48,7.84,3.36,16.1,15.74,31.96,31.73,47.89,47.64,1.57,1.56,3.19,3.06,4.91,4.71,4.66-4.68,8.97-9.01,13.14-13.2-13.67-13.63-27.25-27.18-42.07-41.96,3.49-.38,4.96-.67,6.43-.68,20.06-.03,40.13-.15,60.18.13,2.66.04,5.91,1.51,7.82,3.4,17.47,17.24,34.7,34.72,52.13,52.27,4.57-5.12,8.73-9.78,12.82-14.37-12.6-12.6-26.17-26.16-40.74-40.72,2.95-.39,4.23-.71,5.52-.71,20.27-.04,40.53-.15,60.8.13,2.65.04,5.88,1.56,7.81,3.45,16.1,15.75,31.96,31.73,47.89,47.64,1.43,1.43,2.93,2.8,4.67,4.45,4.35-4.79,8.54-9.4,12.79-14.09-12.94-12.93-26.5-26.49-41.13-41.12,3.35-.25,5.05-.48,6.75-.48,19.65-.03,39.31-.16,58.96.14,2.85.04,6.35,1.51,8.39,3.5,15.98,15.58,31.7,31.41,47.43,47.24,1.57,1.58,2.64,3.65,4.18,5.84,5.38-5.77,9.63-10.32,14.06-15.07-13.18-13.17-26.74-26.7-41.23-41.18,2.93-.24,4.44-.47,5.95-.47,19.04-.03,38.08-.06,57.12,0,18.74.06,31.06,12.43,31.1,31.28.05,38.08.05,76.15,0,114.24-.03,19.13-12.37,31.34-31.62,31.39-20.25.04-40.5,0-61.04,0,13.88-13.82,27.49-27.39,41.45-41.3-5.81-5.16-10.36-9.19-15.49-13.74-.77.72-2.38,2.13-3.89,3.64-15.79,15.76-31.63,31.49-47.3,47.37-2.77,2.8-5.51,4.15-9.58,4.11-21.05-.22-42.12-.11-65.14-.11ZM55.24,526.08h529.97v-18.93H55.24c0,6.36,0,12.42,0,18.93Z"/>
  <path class="cls-3" d="M241.57,383.02c-8.07-8.08-15.55-15.56-23.54-23.57,10.86-8.7,20.31-16.17,29.63-23.79,8.13-6.64,11.81-15.07,9.11-25.55-3.19-12.35-14.41-19.62-27.05-17.63-11.11,1.75-22.19,3.64-33.29,5.45-.59.1-1.21,0-2.84,0v-34.81c12,1.95,23.2,3.82,34.42,5.57,12.74,1.99,22.78-2.96,27.42-13.37,4.74-10.63,2.01-21.39-7.86-29.56-9.13-7.56-18.48-14.86-29.33-23.56,8.07-7.74,15.77-15.13,23.94-22.96,8.19,10.2,15.74,19.83,23.54,29.25,7.29,8.79,17,11.65,26.87,8.31,10.89-3.68,17.78-14.57,16.08-25.96-1.78-11.92-3.86-23.79-5.99-36.77h35.27c-1.66,10.14-3.26,19.52-4.69,28.91-.67,4.43-1.79,8.99-1.35,13.35,1.04,10.26,6.66,17.47,16.68,20.61,9.75,3.05,18.39.56,25.05-7.01,6.88-7.82,13.16-16.19,19.71-24.31,1.53-1.89,3.11-3.74,5.81-7,7.83,7.89,15.28,15.39,23.36,23.54-10.6,8.5-20,15.93-29.29,23.51-9.07,7.4-12.18,16.7-9.15,26.61,3.54,11.57,14.58,18.65,26.59,16.81,11.85-1.81,23.68-3.84,36.46-5.94v35.23c-12.69-2.04-24.35-3.98-36.02-5.77-10.93-1.68-20.88,3.37-25.54,12.81-4.85,9.83-2.86,20.89,5.54,28.53,4.83,4.4,10.1,8.33,15.19,12.44,4.91,3.97,9.86,7.9,16.19,12.99-7.96,7.84-15.48,15.24-23.7,23.34-7.28-9.06-13.72-17.13-20.21-25.15-2.06-2.54-4.06-5.17-6.39-7.44-7.43-7.21-18.08-8.75-27.27-4.14-9.26,4.64-14.55,14.64-12.95,24.95,1.83,11.88,3.86,23.72,5.97,36.61h-35.28c2.01-12.4,3.92-23.83,5.7-35.28,1.87-12.03-3.32-22.13-13.62-26.78-10.12-4.57-21.01-2.06-28.69,7.11-7.86,9.39-15.39,19.08-24.48,30.39ZM320.32,231.63c-27.16.03-49.18,22.12-49.12,49.29.06,26.86,22.04,48.92,48.82,48.99,27.43.06,49.57-22.16,49.45-49.63-.13-26.74-22.27-48.67-49.15-48.64Z"/>
  <path class="cls-4" d="M241.57,383.02c-8.07-8.08-15.55-15.56-23.54-23.57,10.86-8.7,20.31-16.17,29.63-23.79,8.13-6.64,11.81-15.07,9.11-25.55-3.19-12.35-14.41-19.62-27.05-17.63-11.11,1.75-22.19,3.64-33.29,5.45-.59.1-1.21,0-2.84,0v-34.81c12,1.95,23.2,3.82,34.42,5.57,12.74,1.99,22.78-2.96,27.42-13.37,4.74-10.63,2.01-21.39-7.86-29.56-9.13-7.56-18.48-14.86-29.33-23.56,8.07-7.74,15.77-15.13,23.94-22.96,8.19,10.2,15.74,19.83,23.54,29.25,7.29,8.79,17,11.65,26.87,8.31,10.89-3.68,17.78-14.57,16.08-25.96-1.78-11.92-3.86-23.79-5.99-36.77h35.27c-1.66,10.14-3.26,19.52-4.69,28.91-.67,4.43-1.79,8.99-1.35,13.35,1.04,10.26,6.66,17.47,16.68,20.61,9.75,3.05,18.39.56,25.05-7.01,6.88-7.82,13.16-16.19,19.71-24.31,1.53-1.89,3.11-3.74,5.81-7,7.83,7.89,15.28,15.39,23.36,23.54-10.6,8.5-20,15.93-29.29,23.51-9.07,7.4-12.18,16.7-9.15,26.61,3.54,11.57,14.58,18.65,26.59,16.81,11.85-1.81,23.68-3.84,36.46-5.94v35.23c-12.69-2.04-24.35-3.98-36.02-5.77-10.93-1.68-20.88,3.37-25.54,12.81-4.85,9.83-2.86,20.89,5.54,28.53,4.83,4.4,10.1,8.33,15.19,12.44,4.91,3.97,9.86,7.9,16.19,12.99-7.96,7.84-15.48,15.24-23.7,23.34-7.28-9.06-13.72-17.13-20.21-25.15-2.06-2.54-4.06-5.17-6.39-7.44-7.43-7.21-18.08-8.75-27.27-4.14-9.26,4.64-14.55,14.64-12.95,24.95,1.83,11.88,3.86,23.72,5.97,36.61h-35.28c2.01-12.4,3.92-23.83,5.7-35.28,1.87-12.03-3.32-22.13-13.62-26.78-10.12-4.57-21.01-2.06-28.69,7.11-7.86,9.39-15.39,19.08-24.48,30.39ZM320.32,231.63c-27.16.03-49.18,22.12-49.12,49.29.06,26.86,22.04,48.92,48.82,48.99,27.43.06,49.57-22.16,49.45-49.63-.13-26.74-22.27-48.67-49.15-48.64Z"/>
  <path class="cls-1" d="M258.79,168.36c8.52-3.59,15.98-6.72,24.44-10.29,1.79,10.38,3.44,19.86,5.08,29.35.31,1.81,1.06,3.68.79,5.4-.28,1.8-1.15,4.27-2.49,4.91-1.29.62-4.23-.13-5.23-1.32-7.42-8.87-14.54-17.98-22.59-28.06Z"/>
  <path class="cls-1" d="M357.39,158.06c8.41,3.54,15.98,6.73,24.54,10.34-8.05,10.03-15.33,19.25-22.85,28.25-.9,1.08-3.7,1.84-4.74,1.24-1.41-.82-2.95-3.24-2.74-4.74,1.64-11.41,3.7-22.77,5.79-35.1Z"/>
  <path class="cls-1" d="M207.9,219.14c10.12,8.11,19.22,15.25,28.07,22.68,1.18.99,1.93,3.94,1.32,5.23-.64,1.33-3.32,2.67-4.88,2.43-11.24-1.64-22.42-3.67-34.7-5.76,3.43-8.26,6.57-15.85,10.19-24.59Z"/>
  <path class="cls-1" d="M443.1,243.73c-12.4,2.11-23.59,4.14-34.83,5.78-1.57.22-4.23-1.1-4.89-2.44-.63-1.29.11-4.25,1.28-5.24,8.86-7.43,17.98-14.56,28-22.56,3.54,8.29,6.75,15.82,10.44,24.46Z"/>
  <path class="cls-1" d="M197.63,317.79c12.44-2.1,23.83-4.16,35.27-5.79,1.45-.21,4.12,1.51,4.59,2.89.47,1.4-.57,4.1-1.84,5.17-8.73,7.29-17.69,14.3-27.63,22.24-3.57-8.41-6.82-16.09-10.39-24.5Z"/>
  <path class="cls-1" d="M283.3,403.42c-8.33-3.48-15.93-6.66-24.56-10.27,8.16-10.11,15.56-19.46,23.24-28.57.83-.98,3.63-1.35,4.82-.72,1.24.67,2.51,3.03,2.3,4.42-1.67,11.43-3.71,22.81-5.79,35.14Z"/>
  <path class="cls-1" d="M381.92,393.13c-8.54,3.6-16.11,6.79-24.54,10.34-2.09-12.31-4.16-23.66-5.81-35.07-.21-1.49,1.47-4.46,2.66-4.68,1.72-.32,4.43.7,5.6,2.09,7.22,8.56,14.11,17.38,22.08,27.33Z"/>
  <path class="cls-1" d="M443.07,317.78c-3.61,8.57-6.74,16.01-10.32,24.49-10.01-8.03-19.37-15.4-28.5-23.04-1.02-.85-1.49-3.58-.9-4.8.61-1.27,2.95-2.67,4.31-2.47,11.42,1.67,22.8,3.7,35.41,5.82Z"/>
</svg>