<?xml version="1.0" encoding="utf-8"?>
<!-- Generator: Adobe Illustrator 27.3.1, SVG Export Plug-In . SVG Version: 6.00 Build 0)  -->
<svg version="1.1" xmlns="http://www.w3.org/2000/svg" xmlns:xlink="http://www.w3.org/1999/xlink" x="0px" y="0px"
	 viewBox="0 0 640.62 640.62" style="enable-background:new 0 0 640.62 640.62;" xml:space="preserve">
<style type="text/css">
	.st0{display:none;}
	.st1{display:inline;}
	.st2{fill:url(#SVGID_1_);}
	.st3{fill-rule:evenodd;clip-rule:evenodd;fill:url(#SVGID_00000183220913011469312240000008179541823133114547_);}
	.st4{fill:url(#SVGID_00000115499479982854567520000014639546530898353797_);}
	.st5{fill-rule:evenodd;clip-rule:evenodd;fill:url(#SVGID_00000162310710524451121470000003638332108192199597_);}
	.st6{fill:url(#SVGID_00000156576861696014490340000005329580138077170088_);}
	.st7{fill:url(#SVGID_00000000188675591594583560000006282064841783783810_);}
	.st8{fill:url(#path2974_00000143589477778970968880000002552029370497997441_);}
	.st9{fill:url(#path2976_00000129921280680836672460000005831264383529097904_);}
	.st10{fill:url(#path2978_00000047743874679481758930000012935362323415749765_);}
	.st11{fill:url(#path2980_00000131331350306573134060000015070121197036319117_);}
	.st12{fill:url(#path2982_00000088848264374014134760000017962403598719694500_);}
	.st13{fill:url(#path2984_00000048464499992334417520000008493853360306335384_);}
	.st14{fill:url(#SVGID_00000127037967343941968410000014121480041255376786_);}
	.st15{fill:#FFFFFF;}
	.st16{fill:url(#SVGID_00000050623923867092518500000005720422322663002019_);}
	.st17{fill:url(#SVGID_00000078038701759399245010000016360816401120823174_);}
	.st18{fill:url(#SVGID_00000129180249303700061250000008352316128791567491_);}
	.st19{fill:url(#SVGID_00000041974377701447582320000005034305990231073466_);}
	.st20{fill:url(#SVGID_00000132804983015419410040000005288650829516904853_);}
	.st21{fill:url(#SVGID_00000024003185326142779450000009760729673923556009_);}
	.st22{fill:#5800B2;}
	.st23{fill:#423F3D;}
	.st24{fill:url(#SVGID_00000140701872919210454790000010094169431923943082_);}
	.st25{fill:url(#SVGID_00000096753550528047564580000004993056526270904227_);}
	.st26{fill:url(#SVGID_00000109027568605064747910000002734629100097565370_);}
	.st27{fill:url(#SVGID_00000052061717505543481630000016118377898403968933_);}
	.st28{fill:url(#SVGID_00000039112102308650313330000011705192132920907945_);}
	.st29{fill:url(#SVGID_00000172413017235538816010000009865601807742607025_);}
	.st30{fill:url(#SVGID_00000120553873275889953840000015375519398478235544_);}
	.st31{fill:url(#SVGID_00000013895136678515177890000002064033811109644694_);}
	.st32{fill:url(#SVGID_00000149357588222196092610000016083253000527264903_);}
	.st33{fill:url(#SVGID_00000178902832658900912010000012484577802073639345_);}
	.st34{fill:url(#SVGID_00000036247821615027932260000017816849927947352981_);}
</style>
<g id="_x30_1" class="st0">
	<g class="st1">
		<g>
			<linearGradient id="SVGID_1_" gradientUnits="userSpaceOnUse" x1="7.2616" y1="209.6858" x2="700.6529" y2="835.7727">
				<stop  offset="0" style="stop-color:#0298F7"/>
				<stop  offset="1" style="stop-color:#086DBD"/>
			</linearGradient>
			<path class="st2" d="M554.76,527.36C290.34,653.19,126.25,547.91,21.2,483.96c-6.5-4.03-17.55,0.94-7.96,11.95
				c35,42.43,149.68,144.71,299.38,144.71c149.8,0,238.92-81.74,250.07-96C573.77,530.48,565.94,522.68,554.76,527.36L554.76,527.36
				z M629.01,486.35c-7.1-9.25-43.18-10.97-65.88-8.18c-22.74,2.71-56.87,16.61-53.9,24.95c1.52,3.13,4.63,1.72,20.25,0.32
				c15.66-1.56,59.54-7.1,68.69,4.85c9.19,12.04-14,69.37-18.23,78.61c-4.09,9.25,1.56,11.63,9.25,5.47
				c7.58-6.16,21.3-22.1,30.5-44.66C628.83,525.03,634.41,493.39,629.01,486.35L629.01,486.35z"/>
			
				<linearGradient id="SVGID_00000021821435730289338020000004553332965149601204_" gradientUnits="userSpaceOnUse" x1="125.359" y1="78.8928" x2="818.7503" y2="704.9798">
				<stop  offset="0" style="stop-color:#0298F7"/>
				<stop  offset="1" style="stop-color:#086DBD"/>
			</linearGradient>
			<path style="fill-rule:evenodd;clip-rule:evenodd;fill:url(#SVGID_00000021821435730289338020000004553332965149601204_);" d="
				M376.97,270.58c0,33.02,0.83,60.55-15.85,89.87c-13.47,23.84-34.81,38.5-58.65,38.5c-32.54,0-51.5-24.79-51.5-61.39
				c0-72.24,64.72-85.35,126-85.35V270.58z M462.43,477.16c-5.6,5.01-13.71,5.36-20.03,2.03c-28.13-23.36-33.14-34.21-48.63-56.5
				c-46.49,47.44-79.39,61.63-139.7,61.63c-71.28,0-126.83-43.99-126.83-132.07c0-68.78,37.31-115.62,90.35-138.51
				c46.01-20.27,110.26-23.84,159.37-29.44v-10.97c0-20.15,1.55-43.99-10.25-61.39c-10.37-15.62-30.16-22.05-47.56-22.05
				c-32.3,0-61.15,16.57-68.18,50.9c-1.43,7.63-7.03,15.14-14.66,15.5l-82.25-8.82c-6.91-1.55-14.54-7.15-12.63-17.76
				C160.38,30.04,250.37,0,330.95,0c41.24,0,95.12,10.97,127.66,42.2c41.24,38.5,37.31,89.87,37.31,145.78v132.07
				c0,39.69,16.45,57.1,31.94,78.55c5.48,7.63,6.68,16.81-0.24,22.53c-17.28,14.42-48.04,41.24-64.96,56.26L462.43,477.16"/>
			
				<linearGradient id="SVGID_00000142174636018004629010000000889948367211603379_" gradientUnits="userSpaceOnUse" x1="7.2616" y1="209.6858" x2="700.6529" y2="835.7727">
				<stop  offset="0" style="stop-color:#0298F7"/>
				<stop  offset="1" style="stop-color:#086DBD"/>
			</linearGradient>
			<path style="fill:url(#SVGID_00000142174636018004629010000000889948367211603379_);" d="M554.76,527.36
				C290.34,653.19,126.25,547.91,21.2,483.96c-6.5-4.03-17.55,0.94-7.96,11.95c35,42.43,149.68,144.71,299.38,144.71
				c149.8,0,238.92-81.74,250.07-96C573.77,530.48,565.94,522.68,554.76,527.36L554.76,527.36z M629.01,486.35
				c-7.1-9.25-43.18-10.97-65.88-8.18c-22.74,2.71-56.87,16.61-53.9,24.95c1.52,3.13,4.63,1.72,20.25,0.32
				c15.66-1.56,59.54-7.1,68.69,4.85c9.19,12.04-14,69.37-18.23,78.61c-4.09,9.25,1.56,11.63,9.25,5.47
				c7.58-6.16,21.3-22.1,30.5-44.66C628.83,525.03,634.41,493.39,629.01,486.35L629.01,486.35z"/>
			
				<linearGradient id="SVGID_00000061463938634602653560000016605885429170950292_" gradientUnits="userSpaceOnUse" x1="125.359" y1="78.8928" x2="818.7503" y2="704.9798">
				<stop  offset="0" style="stop-color:#0298F7"/>
				<stop  offset="1" style="stop-color:#086DBD"/>
			</linearGradient>
			<path style="fill-rule:evenodd;clip-rule:evenodd;fill:url(#SVGID_00000061463938634602653560000016605885429170950292_);" d="
				M376.97,270.58c0,33.02,0.83,60.55-15.85,89.87c-13.47,23.84-34.81,38.5-58.65,38.5c-32.54,0-51.5-24.79-51.5-61.39
				c0-72.24,64.72-85.35,126-85.35V270.58z M462.43,477.16c-5.6,5.01-13.71,5.36-20.03,2.03c-28.13-23.36-33.14-34.21-48.63-56.5
				c-46.49,47.44-79.39,61.63-139.7,61.63c-71.28,0-126.83-43.99-126.83-132.07c0-68.78,37.31-115.62,90.35-138.51
				c46.01-20.27,110.26-23.84,159.37-29.44v-10.97c0-20.15,1.55-43.99-10.25-61.39c-10.37-15.62-30.16-22.05-47.56-22.05
				c-32.3,0-61.15,16.57-68.18,50.9c-1.43,7.63-7.03,15.14-14.66,15.5l-82.25-8.82c-6.91-1.55-14.54-7.15-12.63-17.76
				C160.38,30.04,250.37,0,330.95,0c41.24,0,95.12,10.97,127.66,42.2c41.24,38.5,37.31,89.87,37.31,145.78v132.07
				c0,39.69,16.45,57.1,31.94,78.55c5.48,7.63,6.68,16.81-0.24,22.53c-17.28,14.42-48.04,41.24-64.96,56.26L462.43,477.16"/>
		</g>
	</g>
</g>
<g id="_x30_2">
	<g>
		
			<linearGradient id="SVGID_00000036950835597345189970000006854939128915087253_" gradientUnits="userSpaceOnUse" x1="-90.7859" y1="201.9393" x2="522.4371" y2="620.046">
			<stop  offset="0" style="stop-color:#0298F7"/>
			<stop  offset="1" style="stop-color:#086DBD"/>
		</linearGradient>
		<path style="fill:url(#SVGID_00000036950835597345189970000006854939128915087253_);" d="M301.17,468.93
			c0-26.89-21.51-48.02-48.66-48.02c-26.76,0-48.66,21.13-48.66,48.02s21.9,48.02,48.66,48.02
			C279.66,516.94,301.17,495.82,301.17,468.93 M340.86,390.31v157.37H300.4v-14.21c-14.09,11.65-31.88,18.18-51.22,18.18
			c-47.89,0-85.28-36.75-85.28-82.72c0-45.84,37.52-82.72,85.28-82.72c19.34,0,37.13,6.53,51.22,18.18v-14.09
			C300.4,390.31,340.86,390.31,340.86,390.31z M475.31,511.95h-30.48c-9.22,0-15.24-3.97-15.24-12.42V425.9h45.58v-35.6H429.6
			v-44.82h-40.85v44.82h-30.73v35.73h30.73v83.61c0,21.13,15.24,37.9,42.64,37.9h43.79v-35.6L475.31,511.95z M567.51,551.65
			c46.74,0,73.11-21.9,73.11-52.12c0-21.51-15.62-37.52-48.27-44.43l-34.57-6.91c-19.98-3.59-26.38-7.3-26.38-14.6
			c0-9.48,9.6-15.24,27.4-15.24c19.34,0,33.42,5.12,37.52,22.54h40.46c-2.18-32.78-26.38-54.68-75.29-54.68
			c-42.26,0-71.96,17.16-71.96,50.32c0,22.92,16.39,37.9,51.6,45.2l38.54,8.71c15.24,2.95,19.34,6.91,19.34,13.06
			c0,9.86-11.52,16.01-30.09,16.01c-23.3,0-36.75-5.12-41.87-22.54H486.2C492.21,529.75,517.05,551.65,567.51,551.65 M0.64,334.48
			h152.5v36.37H41.87v52.12H150.2v35.34H41.87v52.76h111.27v36.37H0.64V334.48z"/>
		
			<linearGradient id="SVGID_00000021810781384973072940000010928937121601689237_" gradientUnits="userSpaceOnUse" x1="36.6334" y1="15.0576" x2="649.8565" y2="433.1642">
			<stop  offset="0" style="stop-color:#0298F7"/>
			<stop  offset="1" style="stop-color:#086DBD"/>
		</linearGradient>
		<path style="fill:url(#SVGID_00000021810781384973072940000010928937121601689237_);" d="M635.75,174.13v-28.55h-10.88
			c-17.29,0-30.09,7.94-37.77,20.36v-19.21h-30.99v155.07h31.24v-88.1c0-24.07,14.85-39.57,35.34-39.57H635.75z M410.9,209.98
			c5.63-23.69,25.1-39.57,48.27-39.57s42.77,15.75,48.02,39.57C507.19,209.98,410.9,209.98,410.9,209.98z M459.82,143.78
			c-46.1,0-81.18,36.75-81.18,80.54c0,46.23,36.49,80.93,84,80.93c28.81,0,52.37-12.42,68.12-33.16l-22.66-16.39
			c-11.78,15.49-27.27,22.79-45.58,22.79c-26.63,0-48.02-18.82-52.37-44.05h128.56v-9.99C538.82,178.1,505.4,143.78,459.82,143.78
			 M281.06,278.48c-30.35,0-54.55-24.07-54.55-53.78c0-30.09,24.46-53.78,54.55-53.78c29.71,0,54.16,23.69,54.16,53.78
			C335.36,254.41,310.9,278.48,281.06,278.48 M195.91,301.92h30.99v-19.46c14.21,14.34,34.44,23.05,56.34,23.05
			c46.48,0,82.97-36.24,82.97-80.93c0-44.94-36.49-81.18-82.97-81.18c-22.02,0-41.87,8.84-56.08,23.05V88.97h-31.24
			C195.91,88.97,195.91,301.92,195.91,301.92z M85.92,276.95c30.09,0,53.27-22.79,53.27-56.6V88.97h32.52v212.81h-32.27v-19.72
			c-14.6,14.85-34.7,23.43-57.37,23.43C35.6,305.5,0,272.34,0,222.14V88.97h32.65v131.38C32.65,254.8,55.57,276.95,85.92,276.95"/>
	</g>
</g>
<g id="_x30_3" class="st0">
	<g id="_x30_2_00000077297571607754010290000004614887756040126349_" class="st1">
		<g>
			<g id="layer1">
				
					<linearGradient id="path2974_00000157997785008713757620000007745308932353068936_" gradientUnits="userSpaceOnUse" x1="79.6273" y1="722.7228" x2="638.41" y2="289.1577" gradientTransform="matrix(1 0 0 -1 0 642)">
					<stop  offset="0" style="stop-color:#0298F7"/>
					<stop  offset="1" style="stop-color:#086DBD"/>
				</linearGradient>
				<path id="path2974" style="fill:url(#path2974_00000157997785008713757620000007745308932353068936_);" d="M320.25,216.04
					c14.96,0,27.27-7.78,28.93-17.83L363.95,31.2c0-16.51-19.32-30.06-43.65-30.06c-24.29,0-43.6,13.55-43.6,30.06l14.74,167.01
					c1.64,10.05,13.95,17.83,28.86,17.83H320.25"/>
				
					<linearGradient id="path2976_00000052791456392092240840000002606253277268924301_" gradientUnits="userSpaceOnUse" x1="-45.8133" y1="561.0539" x2="512.9694" y2="127.4887" gradientTransform="matrix(1 0 0 -1 0 642)">
					<stop  offset="0" style="stop-color:#0298F7"/>
					<stop  offset="1" style="stop-color:#086DBD"/>
				</linearGradient>
				<path id="path2976" style="fill:url(#path2976_00000052791456392092240840000002606253277268924301_);" d="M229.98,268.2
					c7.51-12.93,6.92-27.49-0.97-33.94L91.74,137.98c-14.27-8.26-35.67,1.7-47.82,22.76c-12.18,21.02-10.03,44.53,4.22,52.78
					l151.98,70.78c9.52,3.53,22.47-3.25,29.92-16.18L229.98,268.2"/>
				
					<linearGradient id="path2978_00000122717911806171381190000012216092363380304794_" gradientUnits="userSpaceOnUse" x1="96.4959" y1="744.4633" x2="655.2784" y2="310.8979" gradientTransform="matrix(1 0 0 -1 0 642)">
					<stop  offset="0" style="stop-color:#0298F7"/>
					<stop  offset="1" style="stop-color:#086DBD"/>
				</linearGradient>
				<path id="path2978" style="fill:url(#path2978_00000122717911806171381190000012216092363380304794_);" d="M410.58,268.11
					c7.49,12.93,20.38,19.71,29.9,16.18l152-70.78c14.32-8.26,16.37-31.76,4.27-52.78c-12.2-21.06-33.64-31.01-47.87-22.76
					l-137.27,96.3c-7.85,6.45-8.44,21-0.97,33.93L410.58,268.11"/>
				
					<linearGradient id="path2980_00000154387872203880950650000009771417739468452009_" gradientUnits="userSpaceOnUse" x1="-127.9496" y1="455.1959" x2="430.8331" y2="21.6308" gradientTransform="matrix(1 0 0 -1 0 642)">
					<stop  offset="0" style="stop-color:#0298F7"/>
					<stop  offset="1" style="stop-color:#086DBD"/>
				</linearGradient>
				<path id="path2980" style="fill:url(#path2980_00000154387872203880950650000009771417739468452009_);" d="M320.25,424.64
					c14.96,0,27.27,7.73,28.93,17.77l14.78,166.99c0,16.55-19.32,30.08-43.65,30.08c-24.29,0-43.6-13.53-43.6-30.08l14.74-166.99
					c1.64-10.05,13.95-17.77,28.86-17.77L320.25,424.64"/>
				
					<linearGradient id="path2982_00000064316315702153253700000004558491414347724962_" gradientUnits="userSpaceOnUse" x1="-2.5138" y1="616.8587" x2="556.2689" y2="183.2935" gradientTransform="matrix(1 0 0 -1 0 642)">
					<stop  offset="0" style="stop-color:#0298F7"/>
					<stop  offset="1" style="stop-color:#086DBD"/>
				</linearGradient>
				<path id="path2982" style="fill:url(#path2982_00000064316315702153253700000004558491414347724962_);" d="M410.58,372.47
					c7.49-12.95,20.38-19.69,29.9-16.11l152,70.7c14.32,8.27,16.37,31.8,4.27,52.86c-12.2,20.99-33.64,30.96-47.87,22.72
					l-137.28-96.2c-7.85-6.52-8.44-21.08-0.97-33.99L410.58,372.47"/>
				
					<linearGradient id="path2984_00000078750209230163741440000017392885695947150255_" gradientUnits="userSpaceOnUse" x1="-144.8042" y1="433.4737" x2="413.9784" y2="-0.0917" gradientTransform="matrix(1 0 0 -1 0 642)">
					<stop  offset="0" style="stop-color:#0298F7"/>
					<stop  offset="1" style="stop-color:#086DBD"/>
				</linearGradient>
				<path id="path2984" style="fill:url(#path2984_00000078750209230163741440000017392885695947150255_);" d="M229.98,372.46
					c7.51,12.91,6.92,27.47-0.97,33.99l-137.28,96.2c-14.26,8.24-35.67-1.73-47.82-22.72c-12.18-21.06-10.03-44.58,4.22-52.86
					l151.98-70.7c9.52-3.58,22.47,3.16,29.92,16.11L229.98,372.46"/>
			</g>
		</g>
	</g>
</g>
<g id="_x30_4" class="st0">
	<g class="st1">
		
			<linearGradient id="SVGID_00000013908999082809590150000008456758263231519909_" gradientUnits="userSpaceOnUse" x1="0" y1="320.31" x2="640.62" y2="320.31">
			<stop  offset="0" style="stop-color:#0298F7"/>
			<stop  offset="1" style="stop-color:#086DBD"/>
		</linearGradient>
		<path style="fill:url(#SVGID_00000013908999082809590150000008456758263231519909_);" d="M627.22,166.11
			c-7.38-27.58-29.06-49.25-56.64-56.64c-49.94-13.39-250.28-13.39-250.28-13.39s-200.34,0-250.28,13.39
			c-27.58,7.38-49.25,29.06-56.64,56.64C0,216.05,0,320.31,0,320.31s0,104.26,13.39,154.2c7.38,27.58,29.06,49.25,56.64,56.64
			c49.94,13.4,250.28,13.4,250.28,13.4s200.34,0,250.28-13.4c27.58-7.38,49.26-29.06,56.64-56.64c13.4-49.94,13.4-154.2,13.4-154.2
			S640.57,216.05,627.22,166.11z"/>
		<path class="st15" d="M256.19,416.4l166.43-96.08l-166.43-96.08V416.4z"/>
	</g>
</g>
<g id="_x30_5" class="st0">
	<g class="st1">
		
			<linearGradient id="SVGID_00000106105530100291469380000004609244935455468418_" gradientUnits="userSpaceOnUse" x1="33.6655" y1="472.6341" x2="440.9926" y2="472.6341">
			<stop  offset="0" style="stop-color:#0298F7"/>
			<stop  offset="1" style="stop-color:#086DBD"/>
		</linearGradient>
		<path style="fill:url(#SVGID_00000106105530100291469380000004609244935455468418_);" d="M301.23,306.03L33.67,586.35
			c10.88,38.58,50.98,61.02,89.55,50.14c5.85-1.65,11.46-4.03,16.71-7.07l301.06-171.46L301.23,306.03z"/>
		
			<linearGradient id="SVGID_00000166649078745948491070000013729352499466608055_" gradientUnits="userSpaceOnUse" x1="295.0486" y1="320.6838" x2="609.3478" y2="320.6838">
			<stop  offset="0" style="stop-color:#0298F7"/>
			<stop  offset="1" style="stop-color:#086DBD"/>
		</linearGradient>
		<path style="fill:url(#SVGID_00000166649078745948491070000013729352499466608055_);" d="M571.78,258.38l-130.19-74.57
			l-146.54,128.6l147.14,145.15l129.2-73.77c34.63-18.13,48.01-60.9,29.87-95.53c-6.68-12.77-17.11-23.19-29.87-29.87H571.78z"/>
		
			<linearGradient id="SVGID_00000051382633850994027870000000317719059709059259_" gradientUnits="userSpaceOnUse" x1="31.2722" y1="320.3847" x2="310.4007" y2="320.3847">
			<stop  offset="0" style="stop-color:#0298F7"/>
			<stop  offset="1" style="stop-color:#086DBD"/>
		</linearGradient>
		<path style="fill:url(#SVGID_00000051382633850994027870000000317719059709059259_);" d="M33.67,54.42
			c-1.62,5.98-2.42,12.15-2.39,18.34v495.25c0.02,6.19,0.82,12.35,2.39,18.34L310.4,313.21L33.67,54.42z"/>
		
			<linearGradient id="SVGID_00000064346909443920817620000012316450176878746813_" gradientUnits="userSpaceOnUse" x1="33.6655" y1="160.8831" x2="441.5907" y2="160.8831">
			<stop  offset="0" style="stop-color:#0298F7"/>
			<stop  offset="1" style="stop-color:#086DBD"/>
		</linearGradient>
		<path style="fill:url(#SVGID_00000064346909443920817620000012316450176878746813_);" d="M303.22,320.38l138.37-136.57
			L140.93,11.55c-11.31-6.62-24.18-10.13-37.28-10.17C71.11,1.32,42.51,22.91,33.67,54.22L303.22,320.38z"/>
	</g>
</g>
<g id="_x30_6" class="st0">
	<g class="st1">
		
			<linearGradient id="SVGID_00000150814443106217222270000000032627584742906502_" gradientUnits="userSpaceOnUse" x1="29.0996" y1="208.5061" x2="611.6957" y2="208.5061">
			<stop  offset="0" style="stop-color:#0298F7"/>
			<stop  offset="1" style="stop-color:#086DBD"/>
		</linearGradient>
		<path style="fill:url(#SVGID_00000150814443106217222270000000032627584742906502_);" d="M422.97,172.85
			c2.93-0.65,4.23,0.33,6.01,2.28c10.09,11.21,42.33,50.59,51.09,61.32c1.63,1.95,0.5,4.08-0.8,5.21
			c-65.08,50.76-137.49,122.67-177.84,174.08c-0.8,1.15-0.15,1.15,0.5,0.98c70.28-30.26,235.41-78.59,309.77-92.09v-94.19
			L320.65,0.22L29.1,230.26v102.97C119.38,279.57,328.28,196.42,422.97,172.85L422.97,172.85z"/>
		
			<linearGradient id="SVGID_00000156564421244593612210000016382311710488421052_" gradientUnits="userSpaceOnUse" x1="28.9243" y1="469.3487" x2="611.5455" y2="469.3487">
			<stop  offset="0" style="stop-color:#0298F7"/>
			<stop  offset="1" style="stop-color:#086DBD"/>
		</linearGradient>
		<path style="fill:url(#SVGID_00000156564421244593612210000016382311710488421052_);" d="M186.09,568.52
			c-2.43,1.3-4.41,0.98-6.36-0.98l-54.34-64.75c-1.45-1.8-1.63-2.78,0.33-5.53c42-61.5,127.73-157.34,182.39-197.84
			c0.98-0.65,0.65-1.48-0.5-0.98C250.66,316.99,88.8,386.63,28.92,420.47V640.4h582.62V428.6
			C532.15,442.09,294.29,512.88,186.09,568.52L186.09,568.52z"/>
	</g>
</g>
<g id="_x30_7" class="st0">
	<g class="st1">
		<g>
			<path class="st22" d="M607.03,335.26c-2.25,15.64-4.39,30.75-6.59,45.85c-8.14,56.02-16.3,112.03-24.46,168.04
				c-1.2,8.26-2.26,16.56-3.71,24.78c-4.97,28.09-24.77,44.64-53.41,44.65c-80.81,0.03-161.63,0.01-242.44,0.01
				c-51.55,0-103.12-0.67-154.65,0.28c-27.09,0.5-51.44-17.67-55.44-46.89c-6.77-49.41-14.17-98.74-21.34-148.1
				c-3.93-27.09-7.93-54.17-11.88-81.26c-0.33-2.25-0.48-4.53-0.77-7.36C223.84,335.26,414.82,335.26,607.03,335.26z M158.73,477.13
				c0-16.24,0.01-32.47,0-48.71c-0.01-11.6,0.25-23.2-0.14-34.79c-0.35-10.33-8.25-16.69-17.54-14.81
				c-7.45,1.51-11.37,7.4-11.37,17.48c-0.03,53.58-0.02,107.16-0.01,160.74c0,1.62,0,3.26,0.18,4.86
				c0.8,7.29,6.76,12.88,13.88,13.11c6.85,0.22,13.09-4.69,14.42-11.65c0.52-2.71,0.56-5.53,0.56-8.3
				C158.75,529.09,158.73,503.11,158.73,477.13z M508.04,476.96c-0.01,0-0.02,0-0.03,0c0-27.84,0.1-55.67-0.06-83.51
				c-0.05-8.66-5.59-14.4-13.43-14.83c-8.21-0.45-14.37,5-15.38,13.68c-0.21,1.84-0.18,3.7-0.18,5.56
				c-0.01,52.66-0.02,105.31,0.02,157.97c0,2.76,0.1,5.61,0.75,8.28c1.93,7.95,10.07,12.54,17.71,10.25
				c7.12-2.13,10.54-7.1,10.57-15.98C508.08,531.24,508.04,504.1,508.04,476.96z M333.46,476.27c0-27.38,0.09-54.75-0.05-82.13
				c-0.05-9.22-6.05-15.43-14.33-15.55c-8.34-0.12-14.73,6.05-14.74,15.08c-0.11,55.45-0.07,110.9-0.03,166.34
				c0.01,6.39,3.06,11.13,8.93,13.72c10.21,4.5,20.13-2.95,20.18-15.34C333.54,531.03,333.47,503.65,333.46,476.27z M420.89,476.72
				c0-26.21,0.03-52.42-0.04-78.64c-0.01-2.99-0.08-6.1-0.86-8.95c-1.78-6.51-6.31-10.13-13.1-10.48c-6.83-0.35-11.6,3-14.11,9.17
				c-0.92,2.26-0.97,4.99-0.97,7.51c-0.05,54.28-0.04,108.56-0.03,162.84c0,1.39,0,2.79,0.18,4.17c0.87,6.86,6.74,12.31,13.6,12.68
				c6.52,0.35,12.84-4.14,14.45-10.71c0.71-2.88,0.83-5.96,0.84-8.95C420.92,529.14,420.89,502.93,420.89,476.72z M245.92,476.54
				c0.01,0,0.02,0,0.02,0c0-7.42,0-14.85,0-22.27c-0.01-20.41,0.1-40.83-0.11-61.24c-0.08-8.15-5.64-13.84-13.17-14.38
				c-7.95-0.57-14.27,4.52-15.55,12.71c-0.36,2.27-0.3,4.62-0.3,6.94c-0.02,20.88-0.01,41.76-0.01,62.63c0,31.09,0,62.17,0.01,93.26
				c0,2.32-0.11,4.66,0.15,6.95c0.94,8.22,7.14,14.01,14.7,13.89c7.91-0.12,14.15-6.35,14.19-14.98
				C246.01,532.21,245.92,504.37,245.92,476.54z"/>
			<path class="st23" d="M371.47,262.22c-0.79,5.68-2.62,11.43-2.19,17c1.6,20.77,20.24,33.73,41.47,28.82
				c55.11-12.76,110.11-25.96,165.23-38.67c13.94-3.21,28.09-5.77,42.27-7.61c11.35-1.47,21.05,7.05,21.97,18.41
				c0.54,6.68,0.5,13.48,0.02,20.17c-0.73,10.01-8.4,17.56-18.41,18.73c-2.76,0.32-5.56,0.32-8.34,0.32
				c-195.51,0.01-391.02,0.01-586.53,0c-2.55,0-5.12,0.01-7.65-0.25C8.6,318.03,0.88,310.21,0.26,299.5
				c-0.35-6.02-0.34-12.08-0.02-18.1c0.61-11.34,8.77-19.39,20.2-19.93c6.95-0.33,13.93-0.15,20.89-0.15
				c50.39-0.01,100.77,0,151.16,0c2.71,0,5.42,0,8.77,0c-0.54,2.84-0.89,4.6-1.2,6.38c-2.77,15.51,4.61,32.58,25.01,37.97
				c16.38,4.33,32.89-4.89,38.12-22.35c2.05-6.85,3.6-13.86,5.46-21.09C303.18,262.22,337.46,262.22,371.47,262.22z"/>
			<path class="st23" d="M325.9,247.07c-9.57,0-18.73,0-28.33,0c-1.87-18.18,2.35-34.65,11.48-49.98
				c5.1-8.57,10.77-16.81,15.58-25.54c14.7-26.67,22.58-55.25,23.13-85.77c0.07-4.11,0.01-8.22,0.01-12.73c22.25,0,43.48,0,64.87,0
				c0.98,11.78,1.58,23.32,2.96,34.76c2.53,20.93,9.27,40.6,18.82,59.35c9.6,18.86,24.52,34.97,28.61,57.83
				c3.08-4.49,5.27-7.68,7.7-11.21c4.87,2.79,9.37,5.37,15.28,8.76c-14.41,3.49-27.21,6.52-39.96,9.71
				c-19.54,4.89-39.02,10.05-58.6,14.74c-3.97,0.95-8.31,0.44-12.47,0.46c-11.11,0.05-22.21,0.02-34.02,0.02
				c-0.38-10.71,2.33-20.07,6.63-29.08c1-2.09,2.36-4.01,3.31-6.11c1.84-4.07,1.61-7.92-2.74-10.15c-4.11-2.11-8.37-1.16-9.98,3.16
				c-4.24,11.41-7.87,23.06-11.56,34.67C325.94,242.07,326.13,244.46,325.9,247.07z"/>
			<path class="st23" d="M506.45,151.05c5.77-9.23,10.4-18.16,16.43-26.01c23.24-30.2,64.98-37.41,97.36-17.29
				c17.07,10.61,21.66,28.86,11.55,46.18c-7.24,12.41-14.43,24.86-22.04,37.05c-1.48,2.37-4.53,4.57-7.26,5.24
				c-27.67,6.79-55.44,13.16-83.13,19.9c-3.82,0.93-5.92-0.04-9.11-2.27c-9.26-6.49-19.21-11.99-29.65-18.33
				c4.75-8.32,9.39-16.44,14.41-25.22c9.78,5.7,19.02,11.33,28.48,16.55c7.91,4.37,16.06,0.09,16.83-8.54
				c0.47-5.31-2.36-8.67-6.7-11.21C524.85,161.99,516.12,156.77,506.45,151.05z"/>
			<path class="st23" d="M171.08,247.47c-2.38-13.91,0.89-26.21,4.06-38.58c5.24-20.43,10.27-40.92,15.37-61.39
				c0.43-1.74,0.69-3.53,1.16-6.01c-2.7-0.18-4.9-0.45-7.11-0.46c-32.74-0.03-65.48,0.12-98.21-0.16c-5.45-0.05-7.63,1.62-8.89,6.87
				c-6.12,25.46-12.93,50.77-18.83,76.28c-1.69,7.29-1.15,15.09-1.65,23.04c-4.48,0-8.78,0-14.56,0c0.61-9.13,0.1-18.29,2.02-26.91
				c5.49-24.65,12.07-49.06,17.92-73.64c0.66-2.79-0.74-6.01-0.84-9.05c-0.3-9.89-0.98-19.84-0.15-29.65
				c0.16-1.83,6.61-4.44,10.17-4.47c34.13-0.34,68.26-0.2,102.39-0.2c9.29,0,18.57,0.05,27.86-0.01c6.31-0.04,9.9,2.78,9.15,9.28
				c-2.71,23.29,3.13,45.37,9.04,67.49c0.79,2.97,0.73,6.51-0.03,9.51c-4.38,17.3-9.3,34.47-13.57,51.79
				c-1.25,5.08-3.55,6.6-8.59,6.37C189.04,247.18,180.24,247.47,171.08,247.47z"/>
			<path class="st23" d="M231.28,292.37c-13.3-0.04-21.1-11.71-17.24-26.06c13.11-48.81,26.3-97.59,39.44-146.4
				c5.42-20.15,10.69-40.34,16.22-60.45c2.71-9.87,10.38-15.72,19.08-15.14c8.88,0.59,16.55,7.51,17.33,16.21
				c0.28,3.14-0.26,6.5-1.08,9.58c-18.35,68.52-36.78,137.03-55.22,205.53C246.85,286.62,240.37,292.4,231.28,292.37z"/>
			<path class="st22" d="M612.47,208.58c10.11-0.08,18.09,6.38,19.42,14.86c1.55,9.92-4.25,18.61-14.71,21.23
				c-14.83,3.71-29.75,7.08-44.63,10.58c-54.79,12.91-109.57,25.85-164.37,38.72c-11.7,2.75-21.77-2.54-24.3-12.52
				c-2.64-10.44,3.88-19.97,15.87-22.82c69.41-16.49,138.84-32.93,208.27-49.37C609.81,208.85,611.67,208.7,612.47,208.58z"/>
			<path class="st22" d="M381.53,21.8c10.19,0,20.39,0.14,30.58-0.05c6.36-0.12,9.54,2.4,9.36,8.99
				c-0.18,6.48-0.05,12.97-0.05,19.46c0,5.12-2.7,7.85-7.67,7.88c-21.55,0.1-43.09,0.09-64.64,0c-4.59-0.02-7.43-2.43-7.48-7.29
				c-0.07-7.18-0.07-14.36-0.01-21.54c0.04-5.19,2.89-7.46,7.95-7.44C360.21,21.85,370.87,21.82,381.53,21.8z"/>
			<path class="st22" d="M113.46,247.47c-5.11,0-10.33,0.65-15.28-0.25c-2.87-0.52-6.48-2.97-7.68-5.53
				c-3.67-7.86-0.05-20.54,6.76-26.93c7.26-6.81,18.87-8.56,27.9-4.21c8.84,4.26,14.15,13.3,13.62,23.19
				c-0.56,10.56-3.83,13.73-14.18,13.73C120.89,247.47,117.17,247.47,113.46,247.47z"/>
		</g>
		<g>
			
				<linearGradient id="SVGID_00000161624212143271351050000016913948552632061324_" gradientUnits="userSpaceOnUse" x1="95.4896" y1="616.9568" x2="605.4426" y2="241.0485">
				<stop  offset="0" style="stop-color:#FFFFFF;stop-opacity:0.4"/>
				<stop  offset="0.0691" style="stop-color:#FFFFFF;stop-opacity:0.3435"/>
				<stop  offset="0.4892" style="stop-color:#FFFFFF;stop-opacity:0"/>
				<stop  offset="0.7527" style="stop-color:#FAFAFA;stop-opacity:0.1032"/>
				<stop  offset="1" style="stop-color:#EFEFEF;stop-opacity:0.2"/>
			</linearGradient>
			<path style="fill:url(#SVGID_00000161624212143271351050000016913948552632061324_);" d="M607.03,335.26
				c-2.25,15.64-4.39,30.75-6.59,45.85c-8.14,56.02-16.3,112.03-24.46,168.04c-1.2,8.26-2.26,16.56-3.71,24.78
				c-4.97,28.09-24.77,44.64-53.41,44.65c-80.81,0.03-161.63,0.01-242.44,0.01c-51.55,0-103.12-0.67-154.65,0.28
				c-27.09,0.5-51.44-17.67-55.44-46.89c-6.77-49.41-14.17-98.74-21.34-148.1c-3.93-27.09-7.93-54.17-11.88-81.26
				c-0.33-2.25-0.48-4.53-0.77-7.36C223.84,335.26,414.82,335.26,607.03,335.26z M158.73,477.13c0-16.24,0.01-32.47,0-48.71
				c-0.01-11.6,0.25-23.2-0.14-34.79c-0.35-10.33-8.25-16.69-17.54-14.81c-7.45,1.51-11.37,7.4-11.37,17.48
				c-0.03,53.58-0.02,107.16-0.01,160.74c0,1.62,0,3.26,0.18,4.86c0.8,7.29,6.76,12.88,13.88,13.11
				c6.85,0.22,13.09-4.69,14.42-11.65c0.52-2.71,0.56-5.53,0.56-8.3C158.75,529.09,158.73,503.11,158.73,477.13z M508.04,476.96
				c-0.01,0-0.02,0-0.03,0c0-27.84,0.1-55.67-0.06-83.51c-0.05-8.66-5.59-14.4-13.43-14.83c-8.21-0.45-14.37,5-15.38,13.68
				c-0.21,1.84-0.18,3.7-0.18,5.56c-0.01,52.66-0.02,105.31,0.02,157.97c0,2.76,0.1,5.61,0.75,8.28
				c1.93,7.95,10.07,12.54,17.71,10.25c7.12-2.13,10.54-7.1,10.57-15.98C508.08,531.24,508.04,504.1,508.04,476.96z M333.46,476.27
				c0-27.38,0.09-54.75-0.05-82.13c-0.05-9.22-6.05-15.43-14.33-15.55c-8.34-0.12-14.73,6.05-14.74,15.08
				c-0.11,55.45-0.07,110.9-0.03,166.34c0.01,6.39,3.06,11.13,8.93,13.72c10.21,4.5,20.13-2.95,20.18-15.34
				C333.54,531.03,333.47,503.65,333.46,476.27z M420.89,476.72c0-26.21,0.03-52.42-0.04-78.64c-0.01-2.99-0.08-6.1-0.86-8.95
				c-1.78-6.51-6.31-10.13-13.1-10.48c-6.83-0.35-11.6,3-14.11,9.17c-0.92,2.26-0.97,4.99-0.97,7.51
				c-0.05,54.28-0.04,108.56-0.03,162.84c0,1.39,0,2.79,0.18,4.17c0.87,6.86,6.74,12.31,13.6,12.68
				c6.52,0.35,12.84-4.14,14.45-10.71c0.71-2.88,0.83-5.96,0.84-8.95C420.92,529.14,420.89,502.93,420.89,476.72z M245.92,476.54
				c0.01,0,0.02,0,0.02,0c0-7.42,0-14.85,0-22.27c-0.01-20.41,0.1-40.83-0.11-61.24c-0.08-8.15-5.64-13.84-13.17-14.38
				c-7.95-0.57-14.27,4.52-15.55,12.71c-0.36,2.27-0.3,4.62-0.3,6.94c-0.02,20.88-0.01,41.76-0.01,62.63c0,31.09,0,62.17,0.01,93.26
				c0,2.32-0.11,4.66,0.15,6.95c0.94,8.22,7.14,14.01,14.7,13.89c7.91-0.12,14.15-6.35,14.19-14.98
				C246.01,532.21,245.92,504.37,245.92,476.54z"/>
			
				<linearGradient id="SVGID_00000173121400591526188210000010682884425312780700_" gradientUnits="userSpaceOnUse" x1="18.6245" y1="512.6825" x2="528.5776" y2="136.7742">
				<stop  offset="0" style="stop-color:#FFFFFF;stop-opacity:0.4"/>
				<stop  offset="0.0691" style="stop-color:#FFFFFF;stop-opacity:0.3435"/>
				<stop  offset="0.4892" style="stop-color:#FFFFFF;stop-opacity:0"/>
				<stop  offset="0.7527" style="stop-color:#FAFAFA;stop-opacity:0.1032"/>
				<stop  offset="1" style="stop-color:#EFEFEF;stop-opacity:0.2"/>
			</linearGradient>
			<path style="fill:url(#SVGID_00000173121400591526188210000010682884425312780700_);" d="M371.47,262.22
				c-0.79,5.68-2.62,11.43-2.19,17c1.6,20.77,20.24,33.73,41.47,28.82c55.11-12.76,110.11-25.96,165.23-38.67
				c13.94-3.21,28.09-5.77,42.27-7.61c11.35-1.47,21.05,7.05,21.97,18.41c0.54,6.68,0.5,13.48,0.02,20.17
				c-0.73,10.01-8.4,17.56-18.41,18.73c-2.76,0.32-5.56,0.32-8.34,0.32c-195.51,0.01-391.02,0.01-586.53,0
				c-2.55,0-5.12,0.01-7.65-0.25C8.6,318.03,0.88,310.21,0.26,299.5c-0.35-6.02-0.34-12.08-0.02-18.1
				c0.61-11.34,8.77-19.39,20.2-19.93c6.95-0.33,13.93-0.15,20.89-0.15c50.39-0.01,100.77,0,151.16,0c2.71,0,5.42,0,8.77,0
				c-0.54,2.84-0.89,4.6-1.2,6.38c-2.77,15.51,4.61,32.58,25.01,37.97c16.38,4.33,32.89-4.89,38.12-22.35
				c2.05-6.85,3.6-13.86,5.46-21.09C303.18,262.22,337.46,262.22,371.47,262.22z"/>
			
				<linearGradient id="SVGID_00000141425197299087255770000014265075482972716472_" gradientUnits="userSpaceOnUse" x1="-15.4353" y1="466.4774" x2="494.5178" y2="90.5691">
				<stop  offset="0" style="stop-color:#FFFFFF;stop-opacity:0.4"/>
				<stop  offset="0.0691" style="stop-color:#FFFFFF;stop-opacity:0.3435"/>
				<stop  offset="0.4892" style="stop-color:#FFFFFF;stop-opacity:0"/>
				<stop  offset="0.7527" style="stop-color:#FAFAFA;stop-opacity:0.1032"/>
				<stop  offset="1" style="stop-color:#EFEFEF;stop-opacity:0.2"/>
			</linearGradient>
			<path style="fill:url(#SVGID_00000141425197299087255770000014265075482972716472_);" d="M325.9,247.07c-9.57,0-18.73,0-28.33,0
				c-1.87-18.18,2.35-34.65,11.48-49.98c5.1-8.57,10.77-16.81,15.58-25.54c14.7-26.67,22.58-55.25,23.13-85.77
				c0.07-4.11,0.01-8.22,0.01-12.73c22.25,0,43.48,0,64.87,0c0.98,11.78,1.58,23.32,2.96,34.76c2.53,20.93,9.27,40.6,18.82,59.35
				c9.6,18.86,24.52,34.97,28.61,57.83c3.08-4.49,5.27-7.68,7.7-11.21c4.87,2.79,9.37,5.37,15.28,8.76
				c-14.41,3.49-27.21,6.52-39.96,9.71c-19.54,4.89-39.02,10.05-58.6,14.74c-3.97,0.95-8.31,0.44-12.47,0.46
				c-11.11,0.05-22.21,0.02-34.02,0.02c-0.38-10.71,2.33-20.07,6.63-29.08c1-2.09,2.36-4.01,3.31-6.11
				c1.84-4.07,1.61-7.92-2.74-10.15c-4.11-2.11-8.37-1.16-9.98,3.16c-4.24,11.41-7.87,23.06-11.56,34.67
				C325.94,242.07,326.13,244.46,325.9,247.07z"/>
			
				<linearGradient id="SVGID_00000023258085123196211720000007365919652835595407_" gradientUnits="userSpaceOnUse" x1="41.4191" y1="543.6053" x2="551.3721" y2="167.697">
				<stop  offset="0" style="stop-color:#FFFFFF;stop-opacity:0.4"/>
				<stop  offset="0.0691" style="stop-color:#FFFFFF;stop-opacity:0.3435"/>
				<stop  offset="0.4892" style="stop-color:#FFFFFF;stop-opacity:0"/>
				<stop  offset="0.7527" style="stop-color:#FAFAFA;stop-opacity:0.1032"/>
				<stop  offset="1" style="stop-color:#EFEFEF;stop-opacity:0.2"/>
			</linearGradient>
			<path style="fill:url(#SVGID_00000023258085123196211720000007365919652835595407_);" d="M506.45,151.05
				c5.77-9.23,10.4-18.16,16.43-26.01c23.24-30.2,64.98-37.41,97.36-17.29c17.07,10.61,21.66,28.86,11.55,46.18
				c-7.24,12.41-14.43,24.86-22.04,37.05c-1.48,2.37-4.53,4.57-7.26,5.24c-27.67,6.79-55.44,13.16-83.13,19.9
				c-3.82,0.93-5.92-0.04-9.11-2.27c-9.26-6.49-19.21-11.99-29.65-18.33c4.75-8.32,9.39-16.44,14.41-25.22
				c9.78,5.7,19.02,11.33,28.48,16.55c7.91,4.37,16.06,0.09,16.83-8.54c0.47-5.31-2.36-8.67-6.7-11.21
				C524.85,161.99,516.12,156.77,506.45,151.05z"/>
			
				<linearGradient id="SVGID_00000051373538418087767180000003961562483779954063_" gradientUnits="userSpaceOnUse" x1="-101.7235" y1="349.4197" x2="408.2296" y2="-26.4886">
				<stop  offset="0" style="stop-color:#FFFFFF;stop-opacity:0.4"/>
				<stop  offset="0.0691" style="stop-color:#FFFFFF;stop-opacity:0.3435"/>
				<stop  offset="0.4892" style="stop-color:#FFFFFF;stop-opacity:0"/>
				<stop  offset="0.7527" style="stop-color:#FAFAFA;stop-opacity:0.1032"/>
				<stop  offset="1" style="stop-color:#EFEFEF;stop-opacity:0.2"/>
			</linearGradient>
			<path style="fill:url(#SVGID_00000051373538418087767180000003961562483779954063_);" d="M171.08,247.47
				c-2.38-13.91,0.89-26.21,4.06-38.58c5.24-20.43,10.27-40.92,15.37-61.39c0.43-1.74,0.69-3.53,1.16-6.01
				c-2.7-0.18-4.9-0.45-7.11-0.46c-32.74-0.03-65.48,0.12-98.21-0.16c-5.45-0.05-7.63,1.62-8.89,6.87
				c-6.12,25.46-12.93,50.77-18.83,76.28c-1.69,7.29-1.15,15.09-1.65,23.04c-4.48,0-8.78,0-14.56,0c0.61-9.13,0.1-18.29,2.02-26.91
				c5.49-24.65,12.07-49.06,17.92-73.64c0.66-2.79-0.74-6.01-0.84-9.05c-0.3-9.89-0.98-19.84-0.15-29.65
				c0.16-1.83,6.61-4.44,10.17-4.47c34.13-0.34,68.26-0.2,102.39-0.2c9.29,0,18.57,0.05,27.86-0.01c6.31-0.04,9.9,2.78,9.15,9.28
				c-2.71,23.29,3.13,45.37,9.04,67.49c0.79,2.97,0.73,6.51-0.03,9.51c-4.38,17.3-9.3,34.47-13.57,51.79
				c-1.25,5.08-3.55,6.6-8.59,6.37C189.04,247.18,180.24,247.47,171.08,247.47z"/>
			
				<linearGradient id="SVGID_00000099624366141012178990000017084954515296403876_" gradientUnits="userSpaceOnUse" x1="-61.0026" y1="404.6612" x2="448.9505" y2="28.7529">
				<stop  offset="0" style="stop-color:#FFFFFF;stop-opacity:0.4"/>
				<stop  offset="0.0691" style="stop-color:#FFFFFF;stop-opacity:0.3435"/>
				<stop  offset="0.4892" style="stop-color:#FFFFFF;stop-opacity:0"/>
				<stop  offset="0.7527" style="stop-color:#FAFAFA;stop-opacity:0.1032"/>
				<stop  offset="1" style="stop-color:#EFEFEF;stop-opacity:0.2"/>
			</linearGradient>
			<path style="fill:url(#SVGID_00000099624366141012178990000017084954515296403876_);" d="M231.28,292.37
				c-13.3-0.04-21.1-11.71-17.24-26.06c13.11-48.81,26.3-97.59,39.44-146.4c5.42-20.15,10.69-40.34,16.22-60.45
				c2.71-9.87,10.38-15.72,19.08-15.14c8.88,0.59,16.55,7.51,17.33,16.21c0.28,3.14-0.26,6.5-1.08,9.58
				c-18.35,68.52-36.78,137.03-55.22,205.53C246.85,286.62,240.37,292.4,231.28,292.37z"/>
			
				<linearGradient id="SVGID_00000090981745985156046400000004687838054976637623_" gradientUnits="userSpaceOnUse" x1="66.2989" y1="577.357" x2="576.252" y2="201.4488">
				<stop  offset="0" style="stop-color:#FFFFFF;stop-opacity:0.4"/>
				<stop  offset="0.0691" style="stop-color:#FFFFFF;stop-opacity:0.3435"/>
				<stop  offset="0.4892" style="stop-color:#FFFFFF;stop-opacity:0"/>
				<stop  offset="0.7527" style="stop-color:#FAFAFA;stop-opacity:0.1032"/>
				<stop  offset="1" style="stop-color:#EFEFEF;stop-opacity:0.2"/>
			</linearGradient>
			<path style="fill:url(#SVGID_00000090981745985156046400000004687838054976637623_);" d="M612.47,208.58
				c10.11-0.08,18.09,6.38,19.42,14.86c1.55,9.92-4.25,18.61-14.71,21.23c-14.83,3.71-29.75,7.08-44.63,10.58
				c-54.79,12.91-109.57,25.85-164.37,38.72c-11.7,2.75-21.77-2.54-24.3-12.52c-2.64-10.44,3.88-19.97,15.87-22.82
				c69.41-16.49,138.84-32.93,208.27-49.37C609.81,208.85,611.67,208.7,612.47,208.58z"/>
			
				<linearGradient id="SVGID_00000069367617351872725770000012306136092726295201_" gradientUnits="userSpaceOnUse" x1="-79.43" y1="379.6628" x2="430.5231" y2="3.7546">
				<stop  offset="0" style="stop-color:#FFFFFF;stop-opacity:0.4"/>
				<stop  offset="0.0691" style="stop-color:#FFFFFF;stop-opacity:0.3435"/>
				<stop  offset="0.4892" style="stop-color:#FFFFFF;stop-opacity:0"/>
				<stop  offset="0.7527" style="stop-color:#FAFAFA;stop-opacity:0.1032"/>
				<stop  offset="1" style="stop-color:#EFEFEF;stop-opacity:0.2"/>
			</linearGradient>
			<path style="fill:url(#SVGID_00000069367617351872725770000012306136092726295201_);" d="M381.53,21.8
				c10.19,0,20.39,0.14,30.58-0.05c6.36-0.12,9.54,2.4,9.36,8.99c-0.18,6.48-0.05,12.97-0.05,19.46c0,5.12-2.7,7.85-7.67,7.88
				c-21.55,0.1-43.09,0.09-64.64,0c-4.59-0.02-7.43-2.43-7.48-7.29c-0.07-7.18-0.07-14.36-0.01-21.54c0.04-5.19,2.89-7.46,7.95-7.44
				C360.21,21.85,370.87,21.82,381.53,21.8z"/>
			
				<linearGradient id="SVGID_00000163067927749642491740000012628425818653153977_" gradientUnits="userSpaceOnUse" x1="-82.1824" y1="375.9289" x2="427.7707" y2="0.0206">
				<stop  offset="0" style="stop-color:#FFFFFF;stop-opacity:0.4"/>
				<stop  offset="0.0691" style="stop-color:#FFFFFF;stop-opacity:0.3435"/>
				<stop  offset="0.4892" style="stop-color:#FFFFFF;stop-opacity:0"/>
				<stop  offset="0.7527" style="stop-color:#FAFAFA;stop-opacity:0.1032"/>
				<stop  offset="1" style="stop-color:#EFEFEF;stop-opacity:0.2"/>
			</linearGradient>
			<path style="fill:url(#SVGID_00000163067927749642491740000012628425818653153977_);" d="M113.46,247.47
				c-5.11,0-10.33,0.65-15.28-0.25c-2.87-0.52-6.48-2.97-7.68-5.53c-3.67-7.86-0.05-20.54,6.76-26.93
				c7.26-6.81,18.87-8.56,27.9-4.21c8.84,4.26,14.15,13.3,13.62,23.19c-0.56,10.56-3.83,13.73-14.18,13.73
				C120.89,247.47,117.17,247.47,113.46,247.47z"/>
		</g>
	</g>
</g>
<g id="_x30_8" class="st0">
	<g class="st1">
		<g>
			<path class="st22" d="M564.82,254.66c-1.63-11.05-3.16-22.18-5.76-33.03C523.19,71.52,372.71-21.18,222.47,14.15
				c-145.08,34.11-238.68,177.73-211,323.8c21.21,111.96,107.75,200.06,219.06,222.67c12.16,2.47,24.55,3.68,36.84,5.48
				c-8.08-12.16-13.63-23.97-14.08-37.74c-0.71-20.76,9.65-35.94,23.68-50.14c20.08-20.33,42.56-27.49,69.87-17.37
				c1.83,0.67,5.07,0.69,6.23-0.45c6.1-5.95,11.73-12.36,17.71-18.79c-8.85-7.56-17-14.51-25.15-21.47
				c-8.15-6.98-16.42-13.82-24.42-20.96c-20.51-18.36-26.12-47.35-12.3-70.54c10.27-17.22,24.46-31.36,42.58-40.41
				c20.91-10.45,42.34-10.12,63.25,0.5c21.97,11.18,43.78,22.7,65.43,33.96c0.84-0.58,1.29-0.79,1.61-1.12
				c2.73-2.88,5.52-5.7,8.12-8.7c20.05-23.21,42.13-43.59,72.32-53.09C563.53,259.37,565.06,256.26,564.82,254.66z M195.26,417.11
				c-4.15,15.75-8.4,31.51-13.63,46.9c-2.99,8.83-8.06,16.92-12.62,26.2c-59.64-36.82-96.61-87.44-112.58-155.46
				c17.88-2.6,34.6-5.52,51.45-7.29c10.08-1.07,20.63-1.91,30.48-0.15C180.05,334.75,206.05,376.23,195.26,417.11z M405.82,90.61
				c-1.7,31.1-12.25,57.15-33.19,78.56c-13.37,13.65-29.47,17.19-47.48,10.58c-9.82-3.61-19.37-7.99-29.23-11.56
				c-24.18-8.77-49.05,3.8-56.66,28.44c-7.31,23.62-22.44,34.86-47.28,33.9c-42.1-1.61-78.19-17.41-108.37-46.9
				c-4.15-4.04-4.9-7.27-1.68-12.53C131.86,89.38,204.55,49.06,300.35,51.98C335.3,53.05,368.14,63.5,399,80.07
				C404.09,82.8,407.41,85.73,405.82,90.61z"/>
			<path class="st23" d="M601.7,534.36c7.48,14.4,5.93,24.57-5.37,36.04c-3.27,3.31-6.55,6.66-9.89,9.89
				c-7.61,7.33-14.62,7.14-21.52-0.9c-21.58-25.11-43.03-50.34-64.55-75.51c-1.81-2.11-3.68-4.19-6.23-7.09
				c-14.01,12.88-27.55,25.32-41.07,37.79c-10.29,9.48-20.4,19.17-30.87,28.42c-3.5,3.09-4.47,5.63-2.73,10.15
				c3.78,9.76,6.71,19.84,10.27,29.7c2.26,6.23,1.01,11.41-3.57,15.95c-3.65,3.63-7.14,7.39-10.94,10.83
				c-6.71,6.08-13.5,5.78-19.52-0.95c-5.44-6.08-10.87-12.19-15.84-18.66c-20.96-27.21-47.07-49.07-73.25-70.86
				c-11.43-9.52-10.85-14.57-1.31-25.94c9.71-11.58,19.79-14.79,33.51-7.93c6.6,3.31,13.93,5.31,21.11,7.22
				c2.3,0.62,6.13-0.07,7.67-1.7c22.03-23.45,43.82-47.14,65.64-70.8c0.45-0.5,0.75-1.16,1.59-2.45
				c-6.19-5.39-12.42-10.87-18.72-16.23c-20.57-17.58-41.18-35.1-61.75-52.66c-10.47-8.94-10.72-15.13-0.99-24.91
				c3.12-3.14,6.21-6.3,9.41-9.37c10.15-9.74,20.72-11.41,33.21-4.94c29.17,15.09,58.35,30.15,87.33,45.61
				c5.33,2.84,8.28,2.17,12.19-2.19c14.03-15.62,28.31-31.01,42.81-46.19c18.66-19.56,41.57-29.47,68.78-28.71
				c17.45,0.49,26.48,9.57,26.89,27.17c0.62,26.93-9.09,49.69-28.46,68.2c-15.33,14.66-30.93,29.08-46.68,43.31
				c-4.08,3.7-5.01,6.34-2.17,11.63C571.98,476.84,586.77,505.64,601.7,534.36z"/>
		</g>
		<g>
			
				<linearGradient id="SVGID_00000070077677765895876730000011256136360209683366_" gradientUnits="userSpaceOnUse" x1="6.62" y1="286.3685" x2="564.8431" y2="286.3685">
				<stop  offset="0" style="stop-color:#FFFFFF;stop-opacity:0.4"/>
				<stop  offset="0.0691" style="stop-color:#FFFFFF;stop-opacity:0.3435"/>
				<stop  offset="0.4892" style="stop-color:#FFFFFF;stop-opacity:0"/>
				<stop  offset="0.7527" style="stop-color:#FAFAFA;stop-opacity:0.1032"/>
				<stop  offset="1" style="stop-color:#EFEFEF;stop-opacity:0.2"/>
			</linearGradient>
			<path style="fill:url(#SVGID_00000070077677765895876730000011256136360209683366_);" d="M564.82,254.66
				c-1.63-11.05-3.16-22.18-5.76-33.03C523.19,71.52,372.71-21.18,222.47,14.15c-145.08,34.11-238.68,177.73-211,323.8
				c21.21,111.96,107.75,200.06,219.06,222.67c12.16,2.47,24.55,3.68,36.84,5.48c-8.08-12.16-13.63-23.97-14.08-37.74
				c-0.71-20.76,9.65-35.94,23.68-50.14c20.08-20.33,42.56-27.49,69.87-17.37c1.83,0.67,5.07,0.69,6.23-0.45
				c6.1-5.95,11.73-12.36,17.71-18.79c-8.85-7.56-17-14.51-25.15-21.47c-8.15-6.98-16.42-13.82-24.42-20.96
				c-20.51-18.36-26.12-47.35-12.3-70.54c10.27-17.22,24.46-31.36,42.58-40.41c20.91-10.45,42.34-10.12,63.25,0.5
				c21.97,11.18,43.78,22.7,65.43,33.96c0.84-0.58,1.29-0.79,1.61-1.12c2.73-2.88,5.52-5.7,8.12-8.7
				c20.05-23.21,42.13-43.59,72.32-53.09C563.53,259.37,565.06,256.26,564.82,254.66z M195.26,417.11
				c-4.15,15.75-8.4,31.51-13.63,46.9c-2.99,8.83-8.06,16.92-12.62,26.2c-59.64-36.82-96.61-87.44-112.58-155.46
				c17.88-2.6,34.6-5.52,51.45-7.29c10.08-1.07,20.63-1.91,30.48-0.15C180.05,334.75,206.05,376.23,195.26,417.11z M405.82,90.61
				c-1.7,31.1-12.25,57.15-33.19,78.56c-13.37,13.65-29.47,17.19-47.48,10.58c-9.82-3.61-19.37-7.99-29.23-11.56
				c-24.18-8.77-49.05,3.8-56.66,28.44c-7.31,23.62-22.44,34.86-47.28,33.9c-42.1-1.61-78.19-17.41-108.37-46.9
				c-4.15-4.04-4.9-7.27-1.68-12.53C131.86,89.38,204.55,49.06,300.35,51.98C335.3,53.05,368.14,63.5,399,80.07
				C404.09,82.8,407.41,85.73,405.82,90.61z"/>
			
				<linearGradient id="SVGID_00000158027702327799870910000016201607548040967579_" gradientUnits="userSpaceOnUse" x1="298.0813" y1="465.9619" x2="634" y2="465.9619">
				<stop  offset="0" style="stop-color:#FFFFFF;stop-opacity:0.4"/>
				<stop  offset="0.0691" style="stop-color:#FFFFFF;stop-opacity:0.3435"/>
				<stop  offset="0.4892" style="stop-color:#FFFFFF;stop-opacity:0"/>
				<stop  offset="0.7527" style="stop-color:#FAFAFA;stop-opacity:0.1032"/>
				<stop  offset="1" style="stop-color:#EFEFEF;stop-opacity:0.2"/>
			</linearGradient>
			<path style="fill:url(#SVGID_00000158027702327799870910000016201607548040967579_);" d="M601.7,534.36
				c7.48,14.4,5.93,24.57-5.37,36.04c-3.27,3.31-6.55,6.66-9.89,9.89c-7.61,7.33-14.62,7.14-21.52-0.9
				c-21.58-25.11-43.03-50.34-64.55-75.51c-1.81-2.11-3.68-4.19-6.23-7.09c-14.01,12.88-27.55,25.32-41.07,37.79
				c-10.29,9.48-20.4,19.17-30.87,28.42c-3.5,3.09-4.47,5.63-2.73,10.15c3.78,9.76,6.71,19.84,10.27,29.7
				c2.26,6.23,1.01,11.41-3.57,15.95c-3.65,3.63-7.14,7.39-10.94,10.83c-6.71,6.08-13.5,5.78-19.52-0.95
				c-5.44-6.08-10.87-12.19-15.84-18.66c-20.96-27.21-47.07-49.07-73.25-70.86c-11.43-9.52-10.85-14.57-1.31-25.94
				c9.71-11.58,19.79-14.79,33.51-7.93c6.6,3.31,13.93,5.31,21.11,7.22c2.3,0.62,6.13-0.07,7.67-1.7
				c22.03-23.45,43.82-47.14,65.64-70.8c0.45-0.5,0.75-1.16,1.59-2.45c-6.19-5.39-12.42-10.87-18.72-16.23
				c-20.57-17.58-41.18-35.1-61.75-52.66c-10.47-8.94-10.72-15.13-0.99-24.91c3.12-3.14,6.21-6.3,9.41-9.37
				c10.15-9.74,20.72-11.41,33.21-4.94c29.17,15.09,58.35,30.15,87.33,45.61c5.33,2.84,8.28,2.17,12.19-2.19
				c14.03-15.62,28.31-31.01,42.81-46.19c18.66-19.56,41.57-29.47,68.78-28.71c17.45,0.49,26.48,9.57,26.89,27.17
				c0.62,26.93-9.09,49.69-28.46,68.2c-15.33,14.66-30.93,29.08-46.68,43.31c-4.08,3.7-5.01,6.34-2.17,11.63
				C571.98,476.84,586.77,505.64,601.7,534.36z"/>
		</g>
	</g>
</g>
</svg>
