<?xml version="1.0" encoding="utf-8"?>
<!-- Generator: Adobe Illustrator 26.2.1, SVG Export Plug-In . SVG Version: 6.00 Build 0)  -->
<svg version="1.1" id="report" xmlns="http://www.w3.org/2000/svg" xmlns:xlink="http://www.w3.org/1999/xlink" x="0px" y="0px"
	 viewBox="0 0 640.62 640.62" style="enable-background:new 0 0 640.62 640.62;" xml:space="preserve">
<style type="text/css">
	.st0{display:none;fill:url(#SVGID_1_);}
	.st1{display:none;fill:url(#SVGID_00000093158503668366451900000012914910099753009073_);}
	.st2{display:none;fill:url(#SVGID_00000121970540495896535700000004165682140195368101_);}
	.st3{fill:#360061;}
	.st4{fill:url(#SVGID_00000078018668855283265950000000468015465265195142_);}
	.st5{fill:#5800B2;}
	.st6{fill:url(#SVGID_00000077324178615391064310000000941478642637750449_);}
</style>
<linearGradient id="SVGID_1_" gradientUnits="userSpaceOnUse" x1="290.9483" y1="320.3009" x2="360.9372" y2="320.3009">
	<stop  offset="0" style="stop-color:#FFFFFF;stop-opacity:0.4"/>
	<stop  offset="0.0691" style="stop-color:#FFFFFF;stop-opacity:0.3435"/>
	<stop  offset="0.4892" style="stop-color:#FFFFFF;stop-opacity:0"/>
	<stop  offset="0.7527" style="stop-color:#FAFAFA;stop-opacity:0.1032"/>
	<stop  offset="1" style="stop-color:#EFEFEF;stop-opacity:0.2"/>
</linearGradient>
<path class="st0" d="M360.94,408.89c-23.09-16.59-45.06-32.27-66.81-48.25c-1.83-1.34-2.98-4.76-3.01-7.23
	c-0.23-22.1-0.21-44.2-0.02-66.3c0.02-2.29,0.86-5.51,2.5-6.71c21.96-16.13,44.13-31.97,67.35-48.68
	C360.94,291.13,360.94,349.28,360.94,408.89z"/>
<linearGradient id="SVGID_00000112592809984145257030000009100852535600212373_" gradientUnits="userSpaceOnUse" x1="234.72" y1="320.2812" x2="275.4071" y2="320.2812">
	<stop  offset="0" style="stop-color:#FFFFFF;stop-opacity:0.4"/>
	<stop  offset="0.0691" style="stop-color:#FFFFFF;stop-opacity:0.3435"/>
	<stop  offset="0.4892" style="stop-color:#FFFFFF;stop-opacity:0"/>
	<stop  offset="0.7527" style="stop-color:#FAFAFA;stop-opacity:0.1032"/>
	<stop  offset="1" style="stop-color:#EFEFEF;stop-opacity:0.2"/>
</linearGradient>
<path style="display:none;fill:url(#SVGID_00000112592809984145257030000009100852535600212373_);" d="M275.41,285.55
	c0,23.61,0,46.09,0,69.35c-11.46,0-22.58,0.48-33.59-0.36c-2.51-0.19-6.61-4.84-6.7-7.55c-0.6-17.88-0.4-35.78-0.22-53.68
	c0.05-4.85,2.99-7.68,7.96-7.73C253.46,285.48,264.05,285.55,275.41,285.55z"/>
<linearGradient id="SVGID_00000134216042614889476410000016456018592589827240_" gradientUnits="userSpaceOnUse" x1="377.0954" y1="320.1778" x2="405.9691" y2="320.1778">
	<stop  offset="0" style="stop-color:#FFFFFF;stop-opacity:0.4"/>
	<stop  offset="0.0691" style="stop-color:#FFFFFF;stop-opacity:0.3435"/>
	<stop  offset="0.4892" style="stop-color:#FFFFFF;stop-opacity:0"/>
	<stop  offset="0.7527" style="stop-color:#FAFAFA;stop-opacity:0.1032"/>
	<stop  offset="1" style="stop-color:#EFEFEF;stop-opacity:0.2"/>
</linearGradient>
<path style="display:none;fill:url(#SVGID_00000134216042614889476410000016456018592589827240_);" d="M377.1,355.13
	c0-23.33,0-46.62,0.01-69.9c15.57,1.63,28.5,17.01,28.86,34.31C406.32,336.88,393.67,352.67,377.1,355.13z"/>
<g>
	<path class="st3" d="M342.15,241c-3.89,0-7.17,0.08-10.44-0.01c-16.01-0.47-29.27-13.03-29.35-29.01
		c-0.25-53.89-0.25-107.79-0.01-161.68c0.07-16.22,13.41-28.83,29.93-29c19.56-0.21,39.12-0.06,58.68-0.07
		c65.55,0,131.09-0.01,196.64,0c22.52,0,34.31,11.75,34.31,34.17c0.01,50.77,0.02,101.55,0,152.32
		c-0.01,21.11-12.21,33.28-33.33,33.29c-52.02,0.01-104.04,0.07-156.06-0.1c-4.96-0.02-8.52,1.47-12.2,4.68
		c-19.76,17.22-39.76,34.17-59.64,51.26c-3.66,3.15-7.44,5.44-12.42,3.23c-5.2-2.3-6.19-6.68-6.15-11.84
		C342.22,272.7,342.15,257.15,342.15,241z M412.1,130.95c0,15.79-0.32,31.6,0.23,47.37c0.13,3.81,2.28,8.39,5.02,11.06
		c3.52,3.44,8.09,1.42,12.03-1.05c25.16-15.77,50.39-31.42,75.53-47.22c9.56-6,9.64-13.87,0.17-19.85
		c-25.12-15.84-50.33-31.52-75.49-47.29c-3.87-2.42-7.78-3.97-12.26-1.54c-4.49,2.44-5.28,6.49-5.26,11.12
		C412.15,99.36,412.1,115.15,412.1,130.95z"/>
	
		<linearGradient id="SVGID_00000036963922883177399880000013880762635635820470_" gradientUnits="userSpaceOnUse" x1="302.1637" y1="161.0681" x2="621.9154" y2="161.0681">
		<stop  offset="0" style="stop-color:#FFFFFF;stop-opacity:0.4"/>
		<stop  offset="0.0691" style="stop-color:#FFFFFF;stop-opacity:0.3435"/>
		<stop  offset="0.4892" style="stop-color:#FFFFFF;stop-opacity:0"/>
		<stop  offset="0.7527" style="stop-color:#FAFAFA;stop-opacity:0.1032"/>
		<stop  offset="1" style="stop-color:#EFEFEF;stop-opacity:0.2"/>
	</linearGradient>
	<path style="fill:url(#SVGID_00000036963922883177399880000013880762635635820470_);" d="M342.15,241c-3.89,0-7.17,0.08-10.44-0.01
		c-16.01-0.47-29.27-13.03-29.35-29.01c-0.25-53.89-0.25-107.79-0.01-161.68c0.07-16.22,13.41-28.83,29.93-29
		c19.56-0.21,39.12-0.06,58.68-0.07c65.55,0,131.09-0.01,196.64,0c22.52,0,34.31,11.75,34.31,34.17c0.01,50.77,0.02,101.55,0,152.32
		c-0.01,21.11-12.21,33.28-33.33,33.29c-52.02,0.01-104.04,0.07-156.06-0.1c-4.96-0.02-8.52,1.47-12.2,4.68
		c-19.76,17.22-39.76,34.17-59.64,51.26c-3.66,3.15-7.44,5.44-12.42,3.23c-5.2-2.3-6.19-6.68-6.15-11.84
		C342.22,272.7,342.15,257.15,342.15,241z M412.1,130.95c0,15.79-0.32,31.6,0.23,47.37c0.13,3.81,2.28,8.39,5.02,11.06
		c3.52,3.44,8.09,1.42,12.03-1.05c25.16-15.77,50.39-31.42,75.53-47.22c9.56-6,9.64-13.87,0.17-19.85
		c-25.12-15.84-50.33-31.52-75.49-47.29c-3.87-2.42-7.78-3.97-12.26-1.54c-4.49,2.44-5.28,6.49-5.26,11.12
		C412.15,99.36,412.1,115.15,412.1,130.95z"/>
	<path class="st5" d="M282.62,41.3c0,13.43,0,26.26,0,39.88c-3.21,0-5.62,0-8.03,0c-65.96,0-131.92,0-197.88,0
		c-11.46,0-14.28,2.84-14.28,14.38c0,90.31,0,180.61,0,270.92c0,11.47,2.91,14.4,14.33,14.4c150.23,0,300.47,0,450.7,0
		c11.55,0,14.51-2.91,14.51-14.24c0.01-32.67,0-65.34,0-98.01c0-2.26,0-4.52,0-7.21c13.33,0,26.3,0,39.69,0
		c0.09,2.09,0.26,4.11,0.26,6.13c0.02,40.16,0.03,80.32,0,120.48c-0.01,20.33-12.31,32.79-32.56,32.8
		c-164.8,0.03-329.6,0.03-494.4,0c-19.92,0-32.45-12.5-32.46-32.27c-0.03-105.08-0.03-210.16,0-315.24
		c0.01-18.94,12.42-32.07,30.72-32.09c75.53-0.1,151.07-0.05,226.6-0.04C280.85,41.17,281.87,41.26,282.62,41.3z"/>
	
		<linearGradient id="SVGID_00000182502496003835278110000001740578909868312978_" gradientUnits="userSpaceOnUse" x1="22.491" y1="230.9982" x2="581.9385" y2="230.9982">
		<stop  offset="0" style="stop-color:#FFFFFF;stop-opacity:0.4"/>
		<stop  offset="0.0691" style="stop-color:#FFFFFF;stop-opacity:0.3435"/>
		<stop  offset="0.4892" style="stop-color:#FFFFFF;stop-opacity:0"/>
		<stop  offset="0.7527" style="stop-color:#FAFAFA;stop-opacity:0.1032"/>
		<stop  offset="1" style="stop-color:#EFEFEF;stop-opacity:0.2"/>
	</linearGradient>
	<path style="fill:url(#SVGID_00000182502496003835278110000001740578909868312978_);" d="M282.62,41.3c0,13.43,0,26.26,0,39.88
		c-3.21,0-5.62,0-8.03,0c-65.96,0-131.92,0-197.88,0c-11.46,0-14.28,2.84-14.28,14.38c0,90.31,0,180.61,0,270.92
		c0,11.47,2.91,14.4,14.33,14.4c150.23,0,300.47,0,450.7,0c11.55,0,14.51-2.91,14.51-14.24c0.01-32.67,0-65.34,0-98.01
		c0-2.26,0-4.52,0-7.21c13.33,0,26.3,0,39.69,0c0.09,2.09,0.26,4.11,0.26,6.13c0.02,40.16,0.03,80.32,0,120.48
		c-0.01,20.33-12.31,32.79-32.56,32.8c-164.8,0.03-329.6,0.03-494.4,0c-19.92,0-32.45-12.5-32.46-32.27
		c-0.03-105.08-0.03-210.16,0-315.24c0.01-18.94,12.42-32.07,30.72-32.09c75.53-0.1,151.07-0.05,226.6-0.04
		C280.85,41.17,281.87,41.26,282.62,41.3z"/>
	<path class="st5" d="M152.18,221.59c-8.45-3.24-9.93-5.14-9.79-13.83c0.21-12.46-0.51-25.09,1.28-37.34
		c4.02-27.54,28.59-48.53,56.37-49.14c10.78-0.24,21.75-0.54,32.35,1.06c28.55,4.31,49.26,28.86,49.78,57.81
		c0.17,9.15,0.06,18.31,0.04,27.47c-0.02,8.85-1.36,10.76-9.39,13.76c-0.66,7.5-0.75,15.02-2.11,22.31
		c-1.99,10.62-6.96,20.05-14.58,27.78c-2.87,2.91-4.16,5.77-3.97,9.82c0.3,6.22,0.08,12.46,0.08,19.7
		c24.24-1.53,44.81,5.55,59.27,25.91c7.15,10.06,10.98,22.94,10.18,33.6c-72.9,0-145.83,0-219.28,0
		c0.49-18.6,7.64-33.64,21.47-45.46c13.74-11.75,30.14-15.12,48.41-13.93c0-8.4,0.06-16.24-0.07-24.07
		c-0.02-1.08-0.76-2.4-1.57-3.19c-14.09-13.71-19.19-30.69-18.31-49.88C152.37,223.36,152.26,222.73,152.18,221.59z M172.45,220.93
		c0,4.99-0.24,9.12,0.04,13.22c1.34,19.14,16.25,34.44,35.52,36.63c18.85,2.14,36.66-9.48,42.32-27.63
		c5.61-18,2.65-29.67-9.95-38.99C219.43,215.41,197.34,222.38,172.45,220.93z M191.74,287.23c2.53,11.14-4.55,23.36,7.89,30.48
		c8.5,4.86,17.63,4.83,26-0.45c11.75-7.41,4.58-19.24,7.18-29.83C218.92,291.81,206.06,292.16,191.74,287.23z"/>
	<path class="st5" d="M322.32,620.64c-25.18,0-50.36,0-75.54,0c-11.8,0-14.81-2.77-14.42-14.8c0.34-10.55,0.07-21.41,2.55-31.53
		c6.18-25.27,29.87-43.19,55.92-43.51c20.81-0.26,41.62-0.27,62.43-0.01c32.06,0.4,58.07,26.44,58.79,58.54
		c0.14,6.24,0.08,12.49,0.04,18.73c-0.06,9.22-3.49,12.56-12.98,12.57C373.51,620.66,347.92,620.64,322.32,620.64z"/>
	<path class="st5" d="M112.1,620.64c-25.6,0-51.19,0.02-76.79-0.01c-9.39-0.01-13.07-3.4-12.73-12.77
		c0.41-11.17,0.01-22.67,2.56-33.4c6.02-25.28,29.79-43.31,55.8-43.64c21.01-0.27,42.04-0.31,63.05,0.01
		c31.68,0.48,57.58,26.59,58.28,58.37c0.14,6.45,0.1,12.9,0.04,19.35c-0.08,8.57-3.57,12.07-12.19,12.08
		C164.12,620.67,138.11,620.64,112.1,620.64z"/>
	<path class="st5" d="M531.34,620.64c-25.38,0-50.77,0.02-76.15-0.01c-9.76-0.01-13.35-3.33-13.01-13.13
		c0.39-10.96,0.01-22.24,2.51-32.78c6.09-25.63,29.81-43.62,56.2-43.93c20.8-0.24,41.61-0.27,62.41,0.01
		c31.74,0.42,57.75,26.38,58.53,58.1c0.16,6.65,0.13,13.32,0.05,19.97c-0.1,8.13-3.69,11.73-11.9,11.75
		C583.77,620.67,557.55,620.64,531.34,620.64z"/>
	<path class="st3" d="M579.85,511.58c-32.28,0-63.98,0-95.91,0c-6.22-20.73-1.05-45.12,15.39-58.89
		c16.96-14.21,41.23-15.9,59.69-3.68C577.78,461.42,586.19,483.13,579.85,511.58z"/>
	<path class="st3" d="M369.86,511.6c-31.99,0-63.87,0-95.92,0c-6.27-24.07,0.05-46.96,17.19-60.13
		c17.83-13.7,41.56-14.23,59.75-1.31C368.5,462.67,376.37,485.33,369.86,511.6z"/>
	<path class="st3" d="M160.63,510.75c-16.31,0-32.25,0-48.19,0c-15.94,0-31.87,0-48.19,0c-6.2-23.88,0.88-47.26,18.57-60.11
		c17.87-12.98,41.47-13.12,59.27-0.03C159.74,463.58,166.73,486.08,160.63,510.75z"/>
</g>
</svg>
