<?xml version="1.0" encoding="UTF-8"?>
<svg id="Layer_1" data-name="Layer 1" xmlns="http://www.w3.org/2000/svg" version="1.1" viewBox="0 0 45 45">
  <defs>
    <style>
      .cls-1 {
        fill: #ffc220;
        stroke-width: 0px;
      }
    </style>
  </defs>
  <path class="cls-1" d="M20.76,15.84c.95,0,1.75-.5,1.85-1.13l.94-10.66c0-1.06-1.24-1.92-2.79-1.92s-2.8.86-2.8,1.92l.95,10.66c.1.64.9,1.13,1.85,1.13"/>
  <path class="cls-1" d="M14.99,19.18c.47-.83.44-1.76-.06-2.17l-8.79-6.15c-.91-.53-2.28.1-3.07,1.45-.78,1.34-.62,2.85.27,3.37l9.73,4.51c.62.23,1.44-.2,1.92-1.02"/>
  <path class="cls-1" d="M26.54,19.17c.5.82,1.31,1.26,1.92,1.04l9.73-4.52c.9-.53,1.04-2.03.27-3.37-.78-1.35-2.16-1.98-3.07-1.45l-8.79,6.14c-.49.42-.52,1.35-.05,2.18"/>
  <path class="cls-1" d="M20.76,29.16c.95,0,1.75.5,1.85,1.13l.94,10.66c0,1.06-1.24,1.91-2.79,1.91s-2.8-.86-2.8-1.91l.95-10.66c.1-.64.9-1.13,1.85-1.13"/>
  <path class="cls-1" d="M26.54,25.84c.5-.83,1.31-1.27,1.92-1.03l9.73,4.52c.9.52,1.04,2.03.27,3.37-.78,1.33-2.16,1.97-3.07,1.45l-8.79-6.15c-.49-.41-.52-1.34-.05-2.16"/>
  <path class="cls-1" d="M14.99,25.83c.47.83.44,1.75-.06,2.17l-8.79,6.14c-.91.53-2.28-.1-3.07-1.44-.78-1.34-.62-2.85.27-3.37l9.73-4.52c.62-.24,1.44.2,1.92,1.02"/>
  <path class="cls-1" d="M41.03,33.21h.12c.16,0,.23.05.25.18.04.15.05.24.09.29h.31s-.06-.11-.08-.29c-.04-.16-.12-.25-.23-.28v-.03c.16-.04.25-.14.25-.27,0-.12-.05-.2-.11-.26-.1-.05-.2-.09-.42-.09-.2,0-.34.02-.45.04v1.18h.28v-.47ZM41.04,32.67l.14-.02c.17,0,.26.08.26.19,0,.12-.12.18-.27.18h-.12v-.34ZM41.22,31.87c-.68,0-1.22.53-1.22,1.19s.54,1.2,1.22,1.2,1.22-.53,1.22-1.2-.52-1.19-1.22-1.19M41.22,32.11c.52,0,.91.42.91.95s-.39.96-.91.96c-.52,0-.92-.43-.92-.96s.4-.95.91-.95"/>
</svg>