<?xml version="1.0" encoding="UTF-8"?>
<svg id="Layer_1" data-name="Layer 1" xmlns="http://www.w3.org/2000/svg" version="1.1" viewBox="0 0 100 100">
  <defs>
    <style>
      .cls-1 {
        fill: #000;
        stroke-width: 0px;
      }

      .cls-2 {
        fill: #e4f40b;
        stroke: #ef1b1b;
        stroke-miterlimit: 10;
      }
    </style>
  </defs>
  <path class="cls-2" d="M94.66,81.35c-13.23-22.95-26.48-45.9-39.73-68.85-1.38-2.4-3.19-3.38-5.61-3.05-1.81.24-3.05,1.29-3.94,2.84-2.19,3.83-4.41,7.65-6.62,11.47-11.25,19.49-22.51,38.98-33.75,58.47-.43.75-.75,1.55-1.13,2.33v1.98c.12.27.23.54.34.81.8,1.99,2.24,3.15,4.38,3.39.51.05,1.02.05,1.53.05,26.49.01,52.98-.02,79.47.04,3.32.01,5.66-1,6.7-4.29v-1.8c-.54-1.13-1.01-2.3-1.64-3.39ZM50.05,81.13c-2.05-.01-3.72-1.7-3.72-3.74s1.74-3.8,3.81-3.76c2.05.03,3.71,1.71,3.72,3.75,0,2.09-1.71,3.77-3.81,3.75ZM56.19,38.94c-.96,8.27-1.98,16.53-2.99,24.79-.22,1.76-1.5,2.93-3.11,2.93-1.61,0-2.88-1.17-3.1-2.93-.79-6.38-1.55-12.77-2.32-19.15-.25-2.12-.51-4.24-.72-5.98-.02-4.02,2.9-6.76,6.6-6.58,3.44.17,6.06,3.31,5.64,6.92Z"/>
  <path class="cls-1" d="M53.86,77.38c0,2.09-1.71,3.77-3.81,3.75-2.05-.01-3.72-1.7-3.72-3.74s1.74-3.8,3.81-3.76c2.05.03,3.71,1.71,3.72,3.75Z"/>
  <path class="cls-1" d="M56.19,38.94c-.96,8.27-1.98,16.53-2.99,24.79-.22,1.76-1.5,2.93-3.11,2.93-1.61,0-2.88-1.17-3.1-2.93-.79-6.38-1.55-12.77-2.32-19.15-.25-2.12-.51-4.24-.72-5.98-.02-4.02,2.9-6.76,6.6-6.58,3.44.17,6.06,3.31,5.64,6.92Z"/>
</svg>