<?xml version="1.0" encoding="utf-8"?>
<!-- Generator: Adobe Illustrator 26.2.1, SVG Export Plug-In . SVG Version: 6.00 Build 0)  -->
<svg version="1.1" id="report" xmlns="http://www.w3.org/2000/svg" xmlns:xlink="http://www.w3.org/1999/xlink" x="0px" y="0px"
	 viewBox="0 0 640.62 640.62" style="enable-background:new 0 0 640.62 640.62;" xml:space="preserve">
<style type="text/css">
	.st0{fill:#5800B2;}
	.st1{fill:url(#SVGID_1_);}
	.st2{fill:#360061;}
	.st3{fill:url(#SVGID_00000132070754325724071810000009029713525915379335_);}
	.st4{fill:url(#SVGID_00000097494176319794152370000009730790637692219800_);}
	.st5{fill:url(#SVGID_00000171700828515607572490000014727808594272762776_);}
	.st6{fill:url(#SVGID_00000159442234882667734330000014796847614871600819_);}
	.st7{fill:url(#SVGID_00000121245048255090014790000014669433139047954594_);}
	.st8{fill:url(#SVGID_00000037666891527790424630000018138120686482055307_);}
	.st9{fill:url(#SVGID_00000155113222749467680430000004730931435212712894_);}
</style>
<g>
	<path class="st0" d="M535.87,95.42c0,2.71,0,5.05,0,7.4c0,90.74,0.01,181.47-0.01,272.21c0,19.81-10.07,30.01-29.71,30.02
		c-122.66,0.02-245.32,0.02-367.98,0c-19.4,0-29.68-10.19-29.68-29.37c-0.02-91.17-0.01-182.35,0-273.52c0-2.13,0.18-4.26,0.29-6.73
		C251.2,95.42,393.18,95.42,535.87,95.42z M272.92,313.06c40.42,0,80.85,0,121.27,0c1.97,0,4.43,0.69,5.79-0.23
		c2.77-1.88,6.74-4.53,6.87-7.05c0.14-2.49-3.55-5.56-6.13-7.67c-1.23-1-3.79-0.45-5.75-0.45c-81.29-0.01-162.57-0.02-243.86,0.01
		c-2.17,0-4.89-0.42-6.38,0.68c-2.38,1.75-5.62,4.77-5.41,6.97c0.25,2.67,3.36,5.5,5.9,7.35c1.46,1.06,4.23,0.39,6.41,0.39
		C192.07,313.07,232.5,313.06,272.92,313.06z M274.33,201.88c40.62,0,81.24,0,121.87-0.01c2.4,0,5.43,0.71,7.05-0.45
		c2.47-1.78,5.34-4.85,5.46-7.49c0.1-2.2-3.14-5.16-5.59-6.66c-1.77-1.08-4.68-0.38-7.08-0.38c-81.24-0.01-162.49-0.01-243.73-0.01
		c-1.75,0-3.49,0.02-5.24,0.02c-5.04,0-8.06,2.73-8.03,7.53c0.04,4.83,3.23,7.39,8.19,7.41c1.97,0.01,3.93,0.03,5.9,0.03
		C193.52,201.88,233.93,201.88,274.33,201.88z M404.24,242.27c-30.8,0-61.61,0.02-92.41-0.02c-5.25-0.01-9.28,1.68-9.37,7.56
		c-0.1,5.96,4.12,7.61,9.23,7.81c1.09,0.04,2.18,0.02,3.28,0.02c59.2,0,118.4,0,177.61-0.01c1.96,0,4.47,0.61,5.77-0.35
		c2.71-1.99,6.23-4.57,6.77-7.41c0.81-4.26-2.56-7.12-7.16-7.54c-1.73-0.16-3.49-0.06-5.24-0.06
		C463.22,242.27,433.73,242.27,404.24,242.27z M412.82,146.45c26.45,0,52.9,0,79.35,0c9.57,0,13.43-2.28,13.28-7.81
		c-0.14-5.22-4.08-7.49-13.02-7.5c-53.12,0-106.24-0.01-159.36,0.01c-2.18,0-4.96-0.58-6.4,0.5c-2.47,1.87-5.7,4.9-5.62,7.35
		c0.08,2.49,3.48,5.25,5.99,7.13c1.28,0.96,3.81,0.3,5.78,0.3C359.49,146.45,386.15,146.45,412.82,146.45z M406.77,368.4
		c29.06,0,58.12,0.01,87.18,0c7.82,0,11.54-2.45,11.53-7.48c-0.02-5.02-3.76-7.45-11.57-7.51c-0.66,0-1.31,0-1.97,0
		c-56.37,0-112.74,0-169.12,0.01c-2.4,0-5.35-0.71-7.07,0.41c-2.59,1.68-5.97,4.69-5.96,7.13c0.01,2.44,3.47,5.25,5.99,7.14
		c1.28,0.96,3.81,0.3,5.77,0.3C349.96,368.4,378.37,368.4,406.77,368.4z M202.16,146.45c7.42,0,14.84,0,22.27,0
		c11.13,0,22.27,0.08,33.4-0.06c4.81-0.06,7.93-2.55,7.99-7.6c0.06-4.78-2.99-7-7.41-7.54c-1.72-0.21-3.49-0.1-5.23-0.1
		c-21.61-0.01-43.22,0-64.83,0c-12.88,0-25.76-0.11-38.64,0.09c-2.69,0.04-6.19,0.44-7.83,2.13c-1.72,1.77-3.05,6.11-2.04,7.84
		c1.45,2.46,5.17,4.95,7.97,5.01C165.92,146.66,184.05,146.45,202.16,146.45z M194.98,368.4c15.3,0,30.6-0.08,45.9,0.05
		c5.24,0.04,9.21-1.36,9.81-7.16c0.5-4.85-3.22-7.84-9.75-7.85c-30.6-0.05-61.19,0.02-91.79-0.07c-5.47-0.02-9.71,1.4-10.19,7.54
		c-0.37,4.73,3.5,7.46,10.13,7.48C164.39,368.43,179.68,368.4,194.98,368.4z M180.67,242.27c-10.49,0-20.99,0.11-31.48-0.04
		c-5.5-0.08-9.67,1.47-10.21,7.56c-0.42,4.69,3.61,7.79,10.04,7.81c21.21,0.08,42.41,0.09,63.62-0.01
		c6.51-0.03,10.23-3.09,9.81-7.96c-0.54-6.25-4.91-7.46-10.29-7.4C201.66,242.35,191.16,242.27,180.67,242.27z M476.92,186.9
		c-6.98,0-13.96-0.04-20.94,0.01c-4.9,0.04-8.01,2.41-8,7.47c0.01,5.08,3.21,7.42,8.06,7.44c13.74,0.06,27.48,0.03,41.22,0.01
		c4.98-0.01,8.1-2.72,8.07-7.51c-0.02-4.78-3.11-7.44-8.13-7.43C490.44,186.92,483.68,186.9,476.92,186.9z M480.56,313.05
		c5.44,0,10.88,0.02,16.32-0.01c4.84-0.03,8.17-2.44,8.45-7.23c0.29-4.88-2.93-7.87-7.66-7.99c-11.31-0.28-22.63-0.27-33.94,0
		c-4.66,0.11-7.94,2.74-7.73,7.84c0.21,5.02,3.48,7.26,8.24,7.36C469.67,313.13,475.12,313.04,480.56,313.05z"/>
	<linearGradient id="SVGID_1_" gradientUnits="userSpaceOnUse" x1="108.4911" y1="250.2439" x2="535.8765" y2="250.2439">
		<stop  offset="0" style="stop-color:#FFFFFF;stop-opacity:0.4"/>
		<stop  offset="0.0691" style="stop-color:#FFFFFF;stop-opacity:0.3435"/>
		<stop  offset="0.4892" style="stop-color:#FFFFFF;stop-opacity:0"/>
		<stop  offset="0.7527" style="stop-color:#FAFAFA;stop-opacity:0.1032"/>
		<stop  offset="1" style="stop-color:#EFEFEF;stop-opacity:0.2"/>
	</linearGradient>
	<path class="st1" d="M535.87,95.42c0,2.71,0,5.05,0,7.4c0,90.74,0.01,181.47-0.01,272.21c0,19.81-10.07,30.01-29.71,30.02
		c-122.66,0.02-245.32,0.02-367.98,0c-19.4,0-29.68-10.19-29.68-29.37c-0.02-91.17-0.01-182.35,0-273.52c0-2.13,0.18-4.26,0.29-6.73
		C251.2,95.42,393.18,95.42,535.87,95.42z M272.92,313.06c40.42,0,80.85,0,121.27,0c1.97,0,4.43,0.69,5.79-0.23
		c2.77-1.88,6.74-4.53,6.87-7.05c0.14-2.49-3.55-5.56-6.13-7.67c-1.23-1-3.79-0.45-5.75-0.45c-81.29-0.01-162.57-0.02-243.86,0.01
		c-2.17,0-4.89-0.42-6.38,0.68c-2.38,1.75-5.62,4.77-5.41,6.97c0.25,2.67,3.36,5.5,5.9,7.35c1.46,1.06,4.23,0.39,6.41,0.39
		C192.07,313.07,232.5,313.06,272.92,313.06z M274.33,201.88c40.62,0,81.24,0,121.87-0.01c2.4,0,5.43,0.71,7.05-0.45
		c2.47-1.78,5.34-4.85,5.46-7.49c0.1-2.2-3.14-5.16-5.59-6.66c-1.77-1.08-4.68-0.38-7.08-0.38c-81.24-0.01-162.49-0.01-243.73-0.01
		c-1.75,0-3.49,0.02-5.24,0.02c-5.04,0-8.06,2.73-8.03,7.53c0.04,4.83,3.23,7.39,8.19,7.41c1.97,0.01,3.93,0.03,5.9,0.03
		C193.52,201.88,233.93,201.88,274.33,201.88z M404.24,242.27c-30.8,0-61.61,0.02-92.41-0.02c-5.25-0.01-9.28,1.68-9.37,7.56
		c-0.1,5.96,4.12,7.61,9.23,7.81c1.09,0.04,2.18,0.02,3.28,0.02c59.2,0,118.4,0,177.61-0.01c1.96,0,4.47,0.61,5.77-0.35
		c2.71-1.99,6.23-4.57,6.77-7.41c0.81-4.26-2.56-7.12-7.16-7.54c-1.73-0.16-3.49-0.06-5.24-0.06
		C463.22,242.27,433.73,242.27,404.24,242.27z M412.82,146.45c26.45,0,52.9,0,79.35,0c9.57,0,13.43-2.28,13.28-7.81
		c-0.14-5.22-4.08-7.49-13.02-7.5c-53.12,0-106.24-0.01-159.36,0.01c-2.18,0-4.96-0.58-6.4,0.5c-2.47,1.87-5.7,4.9-5.62,7.35
		c0.08,2.49,3.48,5.25,5.99,7.13c1.28,0.96,3.81,0.3,5.78,0.3C359.49,146.45,386.15,146.45,412.82,146.45z M406.77,368.4
		c29.06,0,58.12,0.01,87.18,0c7.82,0,11.54-2.45,11.53-7.48c-0.02-5.02-3.76-7.45-11.57-7.51c-0.66,0-1.31,0-1.97,0
		c-56.37,0-112.74,0-169.12,0.01c-2.4,0-5.35-0.71-7.07,0.41c-2.59,1.68-5.97,4.69-5.96,7.13c0.01,2.44,3.47,5.25,5.99,7.14
		c1.28,0.96,3.81,0.3,5.77,0.3C349.96,368.4,378.37,368.4,406.77,368.4z M202.16,146.45c7.42,0,14.84,0,22.27,0
		c11.13,0,22.27,0.08,33.4-0.06c4.81-0.06,7.93-2.55,7.99-7.6c0.06-4.78-2.99-7-7.41-7.54c-1.72-0.21-3.49-0.1-5.23-0.1
		c-21.61-0.01-43.22,0-64.83,0c-12.88,0-25.76-0.11-38.64,0.09c-2.69,0.04-6.19,0.44-7.83,2.13c-1.72,1.77-3.05,6.11-2.04,7.84
		c1.45,2.46,5.17,4.95,7.97,5.01C165.92,146.66,184.05,146.45,202.16,146.45z M194.98,368.4c15.3,0,30.6-0.08,45.9,0.05
		c5.24,0.04,9.21-1.36,9.81-7.16c0.5-4.85-3.22-7.84-9.75-7.85c-30.6-0.05-61.19,0.02-91.79-0.07c-5.47-0.02-9.71,1.4-10.19,7.54
		c-0.37,4.73,3.5,7.46,10.13,7.48C164.39,368.43,179.68,368.4,194.98,368.4z M180.67,242.27c-10.49,0-20.99,0.11-31.48-0.04
		c-5.5-0.08-9.67,1.47-10.21,7.56c-0.42,4.69,3.61,7.79,10.04,7.81c21.21,0.08,42.41,0.09,63.62-0.01
		c6.51-0.03,10.23-3.09,9.81-7.96c-0.54-6.25-4.91-7.46-10.29-7.4C201.66,242.35,191.16,242.27,180.67,242.27z M476.92,186.9
		c-6.98,0-13.96-0.04-20.94,0.01c-4.9,0.04-8.01,2.41-8,7.47c0.01,5.08,3.21,7.42,8.06,7.44c13.74,0.06,27.48,0.03,41.22,0.01
		c4.98-0.01,8.1-2.72,8.07-7.51c-0.02-4.78-3.11-7.44-8.13-7.43C490.44,186.92,483.68,186.9,476.92,186.9z M480.56,313.05
		c5.44,0,10.88,0.02,16.32-0.01c4.84-0.03,8.17-2.44,8.45-7.23c0.29-4.88-2.93-7.87-7.66-7.99c-11.31-0.28-22.63-0.27-33.94,0
		c-4.66,0.11-7.94,2.74-7.73,7.84c0.21,5.02,3.48,7.26,8.24,7.36C469.67,313.13,475.12,313.04,480.56,313.05z"/>
	<path class="st2" d="M550.93,142.84c20.1,0,39.11-0.4,58.09,0.15c11.81,0.34,20.24,8.9,21.96,20.59c0.35,2.36,0.4,4.79,0.4,7.19
		c0.02,94.44,0.02,188.88,0.02,283.32c0,2.15,0,4.31,0,6.94c-206.15,0-411.74,0-618.13,0c-0.1-2.19-0.3-4.48-0.3-6.77
		c-0.02-94.66-0.03-189.32,0-283.98c0-18.14,9.3-27.29,27.57-27.33c14.87-0.02,29.73-0.01,44.6,0c8.29,0,8.29,0.01,8.29,8.68
		c0,73.67-0.02,147.35,0.04,221.02c0,5.22-0.03,10.59,1.09,15.64c4.04,18.17,19.16,30.47,38.5,31.89c1.96,0.14,3.93,0.12,5.9,0.12
		c122.21,0.01,244.41,0.01,366.62,0c22.91,0,39.17-11.54,44.03-31.6c1.16-4.81,1.26-9.96,1.27-14.95
		c0.08-73.89,0.05-147.78,0.05-221.67C550.93,149.28,550.93,146.48,550.93,142.84z"/>
	
		<linearGradient id="SVGID_00000087397715815392464670000010259770107166740663_" gradientUnits="userSpaceOnUse" x1="10.7927" y1="464.1559" x2="617.0336" y2="157.5026">
		<stop  offset="0" style="stop-color:#FFFFFF;stop-opacity:0.4"/>
		<stop  offset="0.0691" style="stop-color:#FFFFFF;stop-opacity:0.3435"/>
		<stop  offset="0.4892" style="stop-color:#FFFFFF;stop-opacity:0"/>
		<stop  offset="0.7527" style="stop-color:#FAFAFA;stop-opacity:0.1032"/>
		<stop  offset="1" style="stop-color:#EFEFEF;stop-opacity:0.2"/>
	</linearGradient>
	<path style="fill:url(#SVGID_00000087397715815392464670000010259770107166740663_);" d="M550.93,142.84
		c20.1,0,39.11-0.4,58.09,0.15c11.81,0.34,20.24,8.9,21.96,20.59c0.35,2.36,0.4,4.79,0.4,7.19c0.02,94.44,0.02,188.88,0.02,283.32
		c0,2.15,0,4.31,0,6.94c-206.15,0-411.74,0-618.13,0c-0.1-2.19-0.3-4.48-0.3-6.77c-0.02-94.66-0.03-189.32,0-283.98
		c0-18.14,9.3-27.29,27.57-27.33c14.87-0.02,29.73-0.01,44.6,0c8.29,0,8.29,0.01,8.29,8.68c0,73.67-0.02,147.35,0.04,221.02
		c0,5.22-0.03,10.59,1.09,15.64c4.04,18.17,19.16,30.47,38.5,31.89c1.96,0.14,3.93,0.12,5.9,0.12c122.21,0.01,244.41,0.01,366.62,0
		c22.91,0,39.17-11.54,44.03-31.6c1.16-4.81,1.26-9.96,1.27-14.95c0.08-73.89,0.05-147.78,0.05-221.67
		C550.93,149.28,550.93,146.48,550.93,142.84z"/>
	<path class="st0" d="M13.92,477.32c205.62,0,411.19,0,616.83,0c0,11.44,0.82,22.59-0.23,33.56c-1.04,10.79-10.22,18.13-21.12,18.94
		c-2.18,0.16-4.37,0.14-6.55,0.14c-187.1,0.01-374.21,0.04-561.31-0.14c-5.69-0.01-12.31-0.73-16.81-3.68
		c-4.67-3.06-9.61-8.93-10.32-14.13C12.85,500.7,13.92,489.04,13.92,477.32z"/>
	
		<linearGradient id="SVGID_00000085956602849596859110000010475269662064039328_" gradientUnits="userSpaceOnUse" x1="13.5583" y1="503.6396" x2="631.0541" y2="503.6396">
		<stop  offset="0" style="stop-color:#FFFFFF;stop-opacity:0.4"/>
		<stop  offset="0.0691" style="stop-color:#FFFFFF;stop-opacity:0.3435"/>
		<stop  offset="0.4892" style="stop-color:#FFFFFF;stop-opacity:0"/>
		<stop  offset="0.7527" style="stop-color:#FAFAFA;stop-opacity:0.1032"/>
		<stop  offset="1" style="stop-color:#EFEFEF;stop-opacity:0.2"/>
	</linearGradient>
	<path style="fill:url(#SVGID_00000085956602849596859110000010475269662064039328_);" d="M13.92,477.32c205.62,0,411.19,0,616.83,0
		c0,11.44,0.82,22.59-0.23,33.56c-1.04,10.79-10.22,18.13-21.12,18.94c-2.18,0.16-4.37,0.14-6.55,0.14
		c-187.1,0.01-374.21,0.04-561.31-0.14c-5.69-0.01-12.31-0.73-16.81-3.68c-4.67-3.06-9.61-8.93-10.32-14.13
		C12.85,500.7,13.92,489.04,13.92,477.32z"/>
	<path class="st2" d="M205.4,79.2c0-26.33,0-52.28,0-78.73c77.72,0,155.2,0,233.2,0c0,26.11,0,52.2,0,78.73
		C361.16,79.2,283.66,79.2,205.4,79.2z M289.63,39.74c-0.06-12.68-10.4-23-22.95-22.91c-12.5,0.09-22.98,10.67-22.92,23.14
		c0.06,12.58,10.44,22.77,23.15,22.73C279.73,62.67,289.69,52.61,289.63,39.74z M377.38,62.7c12.72,0.07,23.09-10.05,23.23-22.66
		c0.13-12.42-10.36-23.09-22.85-23.21c-12.56-0.13-22.94,10.17-23.02,22.84C354.65,52.55,364.57,62.63,377.38,62.7z M321.99,62.7
		c12.84,0.08,22.99-9.88,23.1-22.66c0.1-12.62-10.14-23.08-22.72-23.21c-12.52-0.13-22.97,10.2-23.1,22.84
		C299.14,52.4,309.21,62.62,321.99,62.7z"/>
	<path class="st2" d="M246.19,595.85c0-16.86,0-33.35,0-50.21c50.77,0,101.28,0,152.13,0c0,16.82,0,33.3,0,50.21
		C347.69,595.85,297.36,595.85,246.19,595.85z"/>
	
		<linearGradient id="SVGID_00000134938244510681358590000003010170499667938489_" gradientUnits="userSpaceOnUse" x1="246.1945" y1="570.7487" x2="398.3239" y2="570.7487">
		<stop  offset="0" style="stop-color:#FFFFFF;stop-opacity:0.4"/>
		<stop  offset="0.0691" style="stop-color:#FFFFFF;stop-opacity:0.3435"/>
		<stop  offset="0.4892" style="stop-color:#FFFFFF;stop-opacity:0"/>
		<stop  offset="0.7527" style="stop-color:#FAFAFA;stop-opacity:0.1032"/>
		<stop  offset="1" style="stop-color:#EFEFEF;stop-opacity:0.2"/>
	</linearGradient>
	<path style="fill:url(#SVGID_00000134938244510681358590000003010170499667938489_);" d="M246.19,595.85c0-16.86,0-33.35,0-50.21
		c50.77,0,101.28,0,152.13,0c0,16.82,0,33.3,0,50.21C347.69,595.85,297.36,595.85,246.19,595.85z"/>
	<path class="st0" d="M322.5,611.3c36.73,0,73.45,0.14,110.18-0.13c6.29-0.05,8.83,1.72,7.98,8.06c-0.4,3.01,0.02,6.13-0.29,9.16
		c-0.64,6.44-5.01,11.45-11.35,12.79c-2.96,0.63-6.07,0.7-9.11,0.7c-65.15,0.04-130.29,0.03-195.44,0.03
		c-17.11,0-25.67-11.5-20.34-27.84c0.47-1.45,4.07-2.64,6.22-2.65c22.73-0.19,45.47-0.12,68.2-0.12
		C293.2,611.3,307.85,611.3,322.5,611.3z"/>
	
		<linearGradient id="SVGID_00000166658349407871936210000014964767266118056118_" gradientUnits="userSpaceOnUse" x1="202.5569" y1="626.5394" x2="440.8109" y2="626.5394">
		<stop  offset="0" style="stop-color:#FFFFFF;stop-opacity:0.4"/>
		<stop  offset="0.0691" style="stop-color:#FFFFFF;stop-opacity:0.3435"/>
		<stop  offset="0.4892" style="stop-color:#FFFFFF;stop-opacity:0"/>
		<stop  offset="0.7527" style="stop-color:#FAFAFA;stop-opacity:0.1032"/>
		<stop  offset="1" style="stop-color:#EFEFEF;stop-opacity:0.2"/>
	</linearGradient>
	<path style="fill:url(#SVGID_00000166658349407871936210000014964767266118056118_);" d="M322.5,611.3
		c36.73,0,73.45,0.14,110.18-0.13c6.29-0.05,8.83,1.72,7.98,8.06c-0.4,3.01,0.02,6.13-0.29,9.16c-0.64,6.44-5.01,11.45-11.35,12.79
		c-2.96,0.63-6.07,0.7-9.11,0.7c-65.15,0.04-130.29,0.03-195.44,0.03c-17.11,0-25.67-11.5-20.34-27.84
		c0.47-1.45,4.07-2.64,6.22-2.65c22.73-0.19,45.47-0.12,68.2-0.12C293.2,611.3,307.85,611.3,322.5,611.3z"/>
	<path class="st0" d="M455,0.2c19.46,0,38.45-0.57,57.38,0.2c12.49,0.51,22.16,9.78,22.78,22.24c0.93,18.68,0.24,37.45,0.24,56.59
		c-26.85,0-53.39,0-80.41,0C455,53.12,455,27.03,455,0.2z M503.3,45.95c5.46-0.8,12.75,0.93,13.17-7.38
		c0.48-9.44-7.82-7.25-13.5-8.68c-0.64-5.52,0.78-12.78-7.31-13.27c-9.72-0.59-7.5,8.03-8.84,13.83
		c-5.94,0.14-13.08-0.74-13.34,7.21c-0.29,8.9,7.52,7.74,13.62,8.17c0.67,5.93-0.81,13.55,7.65,13.79
		C503.76,59.88,502.06,51.68,503.3,45.95z"/>
	<path class="st0" d="M189.24,79.28c-26.94,0-53.5,0-80.48,0c0-19.09-0.68-37.85,0.24-56.54c0.61-12.31,10.47-21.8,22.82-22.31
		c18.94-0.79,37.94-0.21,57.41-0.21C189.24,26.56,189.24,52.64,189.24,79.28z M141.08,45.83c0.7,6.04-0.47,13.32,7.47,13.76
		c9.4,0.53,7.81-7.85,8.79-13.8c5.91-0.31,13.06,0.72,13.39-7.26c0.38-9.06-7.67-7.55-13.49-8.42c-0.89-5.7,0.81-13.31-7.87-13.5
		c-9.16-0.2-7.16,8.02-8.56,13.62c-5.74,0.74-13.34-0.78-13.09,8.12C127.96,46.64,135.06,45.36,141.08,45.83z"/>
	
		<linearGradient id="SVGID_00000155833308105847112960000008012675250772449936_" gradientUnits="userSpaceOnUse" x1="205.3956" y1="39.8317" x2="438.5962" y2="39.8317">
		<stop  offset="0" style="stop-color:#FFFFFF;stop-opacity:0.4"/>
		<stop  offset="0.0691" style="stop-color:#FFFFFF;stop-opacity:0.3435"/>
		<stop  offset="0.4892" style="stop-color:#FFFFFF;stop-opacity:0"/>
		<stop  offset="0.7527" style="stop-color:#FAFAFA;stop-opacity:0.1032"/>
		<stop  offset="1" style="stop-color:#EFEFEF;stop-opacity:0.2"/>
	</linearGradient>
	<path style="fill:url(#SVGID_00000155833308105847112960000008012675250772449936_);" d="M205.4,79.2c0-26.33,0-52.28,0-78.73
		c77.72,0,155.2,0,233.2,0c0,26.11,0,52.2,0,78.73C361.16,79.2,283.66,79.2,205.4,79.2z M289.63,39.74
		c-0.06-12.68-10.4-23-22.95-22.91c-12.5,0.09-22.98,10.67-22.92,23.14c0.06,12.58,10.44,22.77,23.15,22.73
		C279.73,62.67,289.69,52.61,289.63,39.74z M377.38,62.7c12.72,0.07,23.09-10.05,23.23-22.66c0.13-12.42-10.36-23.09-22.85-23.21
		c-12.56-0.13-22.94,10.17-23.02,22.84C354.65,52.55,364.57,62.63,377.38,62.7z M321.99,62.7c12.84,0.08,22.99-9.88,23.1-22.66
		c0.1-12.62-10.14-23.08-22.72-23.21c-12.52-0.13-22.97,10.2-23.1,22.84C299.14,52.4,309.21,62.62,321.99,62.7z"/>
	
		<linearGradient id="SVGID_00000054987326240913384280000002331271091198165431_" gradientUnits="userSpaceOnUse" x1="454.9982" y1="39.6177" x2="535.6502" y2="39.6177">
		<stop  offset="0" style="stop-color:#FFFFFF;stop-opacity:0.4"/>
		<stop  offset="0.0691" style="stop-color:#FFFFFF;stop-opacity:0.3435"/>
		<stop  offset="0.4892" style="stop-color:#FFFFFF;stop-opacity:0"/>
		<stop  offset="0.7527" style="stop-color:#FAFAFA;stop-opacity:0.1032"/>
		<stop  offset="1" style="stop-color:#EFEFEF;stop-opacity:0.2"/>
	</linearGradient>
	<path style="fill:url(#SVGID_00000054987326240913384280000002331271091198165431_);" d="M455,0.2c19.46,0,38.45-0.57,57.38,0.2
		c12.49,0.51,22.16,9.78,22.78,22.24c0.93,18.68,0.24,37.45,0.24,56.59c-26.85,0-53.39,0-80.41,0C455,53.12,455,27.03,455,0.2z
		 M503.3,45.95c5.46-0.8,12.75,0.93,13.17-7.38c0.48-9.44-7.82-7.25-13.5-8.68c-0.64-5.52,0.78-12.78-7.31-13.27
		c-9.72-0.59-7.5,8.03-8.84,13.83c-5.94,0.14-13.08-0.74-13.34,7.21c-0.29,8.9,7.52,7.74,13.62,8.17
		c0.67,5.93-0.81,13.55,7.65,13.79C503.76,59.88,502.06,51.68,503.3,45.95z"/>
	
		<linearGradient id="SVGID_00000017484984702841488100000008445466458740061622_" gradientUnits="userSpaceOnUse" x1="108.5202" y1="39.6503" x2="189.2417" y2="39.6503">
		<stop  offset="0" style="stop-color:#FFFFFF;stop-opacity:0.4"/>
		<stop  offset="0.0691" style="stop-color:#FFFFFF;stop-opacity:0.3435"/>
		<stop  offset="0.4892" style="stop-color:#FFFFFF;stop-opacity:0"/>
		<stop  offset="0.7527" style="stop-color:#FAFAFA;stop-opacity:0.1032"/>
		<stop  offset="1" style="stop-color:#EFEFEF;stop-opacity:0.2"/>
	</linearGradient>
	<path style="fill:url(#SVGID_00000017484984702841488100000008445466458740061622_);" d="M189.24,79.28c-26.94,0-53.5,0-80.48,0
		c0-19.09-0.68-37.85,0.24-56.54c0.61-12.31,10.47-21.8,22.82-22.31c18.94-0.79,37.94-0.21,57.41-0.21
		C189.24,26.56,189.24,52.64,189.24,79.28z M141.08,45.83c0.7,6.04-0.47,13.32,7.47,13.76c9.4,0.53,7.81-7.85,8.79-13.8
		c5.91-0.31,13.06,0.72,13.39-7.26c0.38-9.06-7.67-7.55-13.49-8.42c-0.89-5.7,0.81-13.31-7.87-13.5c-9.16-0.2-7.16,8.02-8.56,13.62
		c-5.74,0.74-13.34-0.78-13.09,8.12C127.96,46.64,135.06,45.36,141.08,45.83z"/>
	<path class="st0" d="M258.05,38.31c2.82-2.02,5.41-5.2,8.5-5.79c4.81-0.91,7.85,2.64,7.87,7.37c0.02,4.82-3.29,8.21-7.92,7.42
		c-3.07-0.53-5.65-3.88-8.45-5.97C258.04,40.33,258.04,39.32,258.05,38.31z"/>
	<path class="st0" d="M386.3,41.44c-2.82,2.05-5.44,5.37-8.52,5.87c-4.65,0.75-7.91-2.68-7.85-7.51c0.07-4.75,3.11-8.27,7.94-7.28
		c3.09,0.63,5.65,3.83,8.45,5.87C386.32,39.41,386.31,40.43,386.3,41.44z"/>
	<path class="st0" d="M319.92,32.02c7.02,0.57,9.96,3.21,9.89,8.06c-0.07,4.54-3.05,7.38-7.52,7.4c-4.79,0.02-8.31-3.07-7.56-7.77
		C315.22,36.61,318.51,33.98,319.92,32.02z"/>
</g>
</svg>
