<?xml version="1.0" encoding="utf-8"?>
<!-- Generator: Adobe Illustrator 26.2.1, SVG Export Plug-In . SVG Version: 6.00 Build 0)  -->
<svg version="1.1" id="report" xmlns="http://www.w3.org/2000/svg" xmlns:xlink="http://www.w3.org/1999/xlink" x="0px" y="0px"
	 viewBox="0 0 640.62 640.62" style="enable-background:new 0 0 640.62 640.62;" xml:space="preserve">
<style type="text/css">
	.st0{fill:#5800B2;}
	.st1{fill:url(#SVGID_1_);}
	.st2{fill:#360061;}
	.st3{fill:url(#SVGID_00000121243073015253447230000000100027138974725525_);}
	.st4{fill:url(#SVGID_00000178911901494304952890000014569734601856681630_);}
	.st5{fill:url(#SVGID_00000054974384781414465880000010771769834550066862_);}
	.st6{fill:url(#SVGID_00000162329501974720344560000012306440531030590632_);}
</style>
<g>
	<path class="st0" d="M354.65,1.25c0,25.1,0,50.19,0,75.96c12.84,0,25.4,0,39.43,0c-27.03,35.15-53.19,69.17-79.87,103.85
		c-26.5-34.44-52.66-68.44-79.54-103.37c12.98,0,25.04,0,37.83,0c0.17-3.09,0.41-5.48,0.41-7.87c0.03-20.59,0-41.19,0.04-61.78
		c0-2.26,0.34-4.53,0.52-6.79C300.54,1.25,327.6,1.25,354.65,1.25z"/>
	<linearGradient id="SVGID_1_" gradientUnits="userSpaceOnUse" x1="234.676" y1="91.1532" x2="394.0817" y2="91.1532">
		<stop  offset="0" style="stop-color:#FFFFFF;stop-opacity:0.4"/>
		<stop  offset="0.0691" style="stop-color:#FFFFFF;stop-opacity:0.3435"/>
		<stop  offset="0.4892" style="stop-color:#FFFFFF;stop-opacity:0"/>
		<stop  offset="0.7527" style="stop-color:#FAFAFA;stop-opacity:0.1032"/>
		<stop  offset="1" style="stop-color:#EFEFEF;stop-opacity:0.2"/>
	</linearGradient>
	<path class="st1" d="M354.65,1.25c0,25.1,0,50.19,0,75.96c12.84,0,25.4,0,39.43,0c-27.03,35.15-53.19,69.17-79.87,103.85
		c-26.5-34.44-52.66-68.44-79.54-103.37c12.98,0,25.04,0,37.83,0c0.17-3.09,0.41-5.48,0.41-7.87c0.03-20.59,0-41.19,0.04-61.78
		c0-2.26,0.34-4.53,0.52-6.79C300.54,1.25,327.6,1.25,354.65,1.25z"/>
	<path class="st2" d="M385,303.45c-2.9-6.17-5.72-11.72-8.07-17.46c-0.68-1.65-0.47-3.98,0.1-5.76
		c5.48-17.35,2.07-32.83-11.13-45.13c-13.42-12.51-29.6-14.94-46.38-7.68c-16.71,7.23-25.65,20.81-24.83,38.92
		c0.43,9.67-2.59,16.7-7.62,24.4c-8.86,13.54-16.42,27.93-24.58,41.93c-2.08,3.57-4.38,7.01-6.72,10.72
		c-16.45-11.26-33.15-11.9-50.95-2.54c-2.48-3.78-4.91-7.59-7.44-11.34c-9.2-13.58-18.56-27.06-27.55-40.79
		c-1.55-2.37-2.11-5.73-2.22-8.67c-0.74-19.17-12.47-34.88-30.18-39.99c-18.22-5.26-37.68,1.54-47.8,16.97
		c-6.04,9.2-8.49,19.26-6.5,30.32c0.35,1.96-0.14,4.64-1.29,6.22c-14.82,20.3-29.82,40.47-44.78,60.68
		c-0.36,0.49-0.64,1.03-1.92,3.13c0-75.34,0-148.72,0-222.82c2.36,0,4.59,0,6.82,0c65.96,0,131.92,0.04,197.88-0.09
		c4.54-0.01,7.52,1.11,10.41,4.92c19.13,25.17,38.56,50.11,57.9,75.12c1.9,2.46,3.82,4.91,6.06,7.79
		c12.32-15.91,24.41-31.51,36.49-47.12c9.55-12.34,18.98-24.76,28.72-36.95c1.44-1.8,4.29-3.52,6.5-3.53
		c72.2-0.18,144.4-0.14,216.6-0.12c0.81,0,1.62,0.18,2.86,0.32c0,46.17,0,92.26,0,139.66c-1.88-2.25-3.25-3.82-4.54-5.45
		c-16.56-20.92-34.01-40.97-54.72-58c-1.6-1.31-2.65-4.1-2.77-6.27c-1.42-24.61-20.91-42.48-45.05-41.07
		c-24.01,1.4-41.29,20.87-39.98,45.25c0.17,3.08,0.4,6.5,1.83,9.08c3.48,6.28,1.48,11.18-1.45,17.13
		c-9.74,19.74-18.59,39.91-27.87,59.88c-1.72,3.71-3.88,7.22-5.99,11.11C411.8,299.06,398.88,297.27,385,303.45z"/>
	
		<linearGradient id="SVGID_00000024715162407978229160000013437042720807374981_" gradientUnits="userSpaceOnUse" x1="35.1326" y1="245.9235" x2="605.3632" y2="245.9235">
		<stop  offset="0" style="stop-color:#FFFFFF;stop-opacity:0.4"/>
		<stop  offset="0.0691" style="stop-color:#FFFFFF;stop-opacity:0.3435"/>
		<stop  offset="0.4892" style="stop-color:#FFFFFF;stop-opacity:0"/>
		<stop  offset="0.7527" style="stop-color:#FAFAFA;stop-opacity:0.1032"/>
		<stop  offset="1" style="stop-color:#EFEFEF;stop-opacity:0.2"/>
	</linearGradient>
	<path style="fill:url(#SVGID_00000024715162407978229160000013437042720807374981_);" d="M385,303.45
		c-2.9-6.17-5.72-11.72-8.07-17.46c-0.68-1.65-0.47-3.98,0.1-5.76c5.48-17.35,2.07-32.83-11.13-45.13
		c-13.42-12.51-29.6-14.94-46.38-7.68c-16.71,7.23-25.65,20.81-24.83,38.92c0.43,9.67-2.59,16.7-7.62,24.4
		c-8.86,13.54-16.42,27.93-24.58,41.93c-2.08,3.57-4.38,7.01-6.72,10.72c-16.45-11.26-33.15-11.9-50.95-2.54
		c-2.48-3.78-4.91-7.59-7.44-11.34c-9.2-13.58-18.56-27.06-27.55-40.79c-1.55-2.37-2.11-5.73-2.22-8.67
		c-0.74-19.17-12.47-34.88-30.18-39.99c-18.22-5.26-37.68,1.54-47.8,16.97c-6.04,9.2-8.49,19.26-6.5,30.32
		c0.35,1.96-0.14,4.64-1.29,6.22c-14.82,20.3-29.82,40.47-44.78,60.68c-0.36,0.49-0.64,1.03-1.92,3.13c0-75.34,0-148.72,0-222.82
		c2.36,0,4.59,0,6.82,0c65.96,0,131.92,0.04,197.88-0.09c4.54-0.01,7.52,1.11,10.41,4.92c19.13,25.17,38.56,50.11,57.9,75.12
		c1.9,2.46,3.82,4.91,6.06,7.79c12.32-15.91,24.41-31.51,36.49-47.12c9.55-12.34,18.98-24.76,28.72-36.95
		c1.44-1.8,4.29-3.52,6.5-3.53c72.2-0.18,144.4-0.14,216.6-0.12c0.81,0,1.62,0.18,2.86,0.32c0,46.17,0,92.26,0,139.66
		c-1.88-2.25-3.25-3.82-4.54-5.45c-16.56-20.92-34.01-40.97-54.72-58c-1.6-1.31-2.65-4.1-2.77-6.27
		c-1.42-24.61-20.91-42.48-45.05-41.07c-24.01,1.4-41.29,20.87-39.98,45.25c0.17,3.08,0.4,6.5,1.83,9.08
		c3.48,6.28,1.48,11.18-1.45,17.13c-9.74,19.74-18.59,39.91-27.87,59.88c-1.72,3.71-3.88,7.22-5.99,11.11
		C411.8,299.06,398.88,297.27,385,303.45z"/>
	<path class="st0" d="M37.66,429.74c-1-10.31-0.86-19.46,5.26-28.32c17.13-24.78,33.5-50.08,50.32-75.07
		c2.52-3.75,5.87-6.94,9.17-10.78c19.08,13.05,37.56,12.16,55.91-2.66c5.85,8.87,11.57,17.45,17.2,26.09
		c4.65,7.14,9.35,14.25,13.68,21.58c1.1,1.86,1.6,4.66,1.14,6.76c-3.77,17.09,0.86,31.55,14.22,42.51
		c13.58,11.15,29.25,12.81,45.14,5.62c15.59-7.06,24.79-20.07,23.94-36.98c-0.5-10.06,3.32-16.85,7.92-24.41
		c9.07-14.92,17.82-30.03,26.73-45.05c1.8-3.02,3.75-5.96,5.8-9.2c14.52,9.56,29.45,9.78,45,2.53c2.52,5.3,5.37,10.19,7.11,15.44
		c0.77,2.33-0.35,5.52-1.23,8.12c-8.76,25.84,5.03,51.08,31.07,56.66c29.67,6.36,56.76-20.57,50.26-50.22
		c-1.15-5.23-0.21-9.17,2.29-13.89c7.87-14.86,14.94-30.14,22.29-45.27c4.89-10.07,9.74-20.15,14.68-30.38
		c19.4,8.88,35.97,4.88,51.37-9.66c3.85,3.49,8.21,6.68,11.62,10.68c20.38,23.88,40.56,47.92,60.69,72.02
		c1.2,1.44,1.87,3.77,1.87,5.69c0.1,34.96,0.07,69.92,0.05,104.88c0,0.99-0.24,1.98-0.42,3.29
		C419.67,429.74,228.93,429.74,37.66,429.74z"/>
	
		<linearGradient id="SVGID_00000022539039812343646270000016078910514130669197_" gradientUnits="userSpaceOnUse" x1="37.1949" y1="331.4593" x2="611.1799" y2="331.4593">
		<stop  offset="0" style="stop-color:#FFFFFF;stop-opacity:0.4"/>
		<stop  offset="0.0691" style="stop-color:#FFFFFF;stop-opacity:0.3435"/>
		<stop  offset="0.4892" style="stop-color:#FFFFFF;stop-opacity:0"/>
		<stop  offset="0.7527" style="stop-color:#FAFAFA;stop-opacity:0.1032"/>
		<stop  offset="1" style="stop-color:#EFEFEF;stop-opacity:0.2"/>
	</linearGradient>
	<path style="fill:url(#SVGID_00000022539039812343646270000016078910514130669197_);" d="M37.66,429.74
		c-1-10.31-0.86-19.46,5.26-28.32c17.13-24.78,33.5-50.08,50.32-75.07c2.52-3.75,5.87-6.94,9.17-10.78
		c19.08,13.05,37.56,12.16,55.91-2.66c5.85,8.87,11.57,17.45,17.2,26.09c4.65,7.14,9.35,14.25,13.68,21.58
		c1.1,1.86,1.6,4.66,1.14,6.76c-3.77,17.09,0.86,31.55,14.22,42.51c13.58,11.15,29.25,12.81,45.14,5.62
		c15.59-7.06,24.79-20.07,23.94-36.98c-0.5-10.06,3.32-16.85,7.92-24.41c9.07-14.92,17.82-30.03,26.73-45.05
		c1.8-3.02,3.75-5.96,5.8-9.2c14.52,9.56,29.45,9.78,45,2.53c2.52,5.3,5.37,10.19,7.11,15.44c0.77,2.33-0.35,5.52-1.23,8.12
		c-8.76,25.84,5.03,51.08,31.07,56.66c29.67,6.36,56.76-20.57,50.26-50.22c-1.15-5.23-0.21-9.17,2.29-13.89
		c7.87-14.86,14.94-30.14,22.29-45.27c4.89-10.07,9.74-20.15,14.68-30.38c19.4,8.88,35.97,4.88,51.37-9.66
		c3.85,3.49,8.21,6.68,11.62,10.68c20.38,23.88,40.56,47.92,60.69,72.02c1.2,1.44,1.87,3.77,1.87,5.69
		c0.1,34.96,0.07,69.92,0.05,104.88c0,0.99-0.24,1.98-0.42,3.29C419.67,429.74,228.93,429.74,37.66,429.74z"/>
	<path class="st2" d="M608.12,455.93c0,23.39,0,46.37,0,69.69c-191.05,0-381.76,0-573.02,0c0-23.11,0-46.22,0-69.69
		C225.97,455.93,416.68,455.93,608.12,455.93z"/>
	
		<linearGradient id="SVGID_00000181782688395116702040000010758573403834602118_" gradientUnits="userSpaceOnUse" x1="35.1015" y1="490.7698" x2="608.1206" y2="490.7698">
		<stop  offset="0" style="stop-color:#FFFFFF;stop-opacity:0.4"/>
		<stop  offset="0.0691" style="stop-color:#FFFFFF;stop-opacity:0.3435"/>
		<stop  offset="0.4892" style="stop-color:#FFFFFF;stop-opacity:0"/>
		<stop  offset="0.7527" style="stop-color:#FAFAFA;stop-opacity:0.1032"/>
		<stop  offset="1" style="stop-color:#EFEFEF;stop-opacity:0.2"/>
	</linearGradient>
	<path style="fill:url(#SVGID_00000181782688395116702040000010758573403834602118_);" d="M608.12,455.93c0,23.39,0,46.37,0,69.69
		c-191.05,0-381.76,0-573.02,0c0-23.11,0-46.22,0-69.69C225.97,455.93,416.68,455.93,608.12,455.93z"/>
	<path class="st0" d="M434.16,613.92c18.28,0,35.88,0,53.94,0c0,9.01,0,17.42,0,26.27c-110.42,0-220.94,0-331.89,0
		c0-8.43,0-16.82,0-26.06c17.82,0,35.57,0,53.99,0c0-3.07,0-5.31,0-7.55c0-16.43,0.16-32.86-0.1-49.29
		c-0.08-4.71,1.4-6.09,6.02-5.98c11.85,0.29,23.71,0.09,35.56,0.09c58.44,0,116.88,0.08,175.32-0.12c5.71-0.02,7.43,1.48,7.29,7.27
		c-0.4,16-0.14,32.03-0.14,48.04C434.16,608.84,434.16,611.08,434.16,613.92z"/>
	
		<linearGradient id="SVGID_00000003803331072510148570000015009450682237899657_" gradientUnits="userSpaceOnUse" x1="156.2126" y1="595.7402" x2="488.1035" y2="595.7402">
		<stop  offset="0" style="stop-color:#FFFFFF;stop-opacity:0.4"/>
		<stop  offset="0.0691" style="stop-color:#FFFFFF;stop-opacity:0.3435"/>
		<stop  offset="0.4892" style="stop-color:#FFFFFF;stop-opacity:0"/>
		<stop  offset="0.7527" style="stop-color:#FAFAFA;stop-opacity:0.1032"/>
		<stop  offset="1" style="stop-color:#EFEFEF;stop-opacity:0.2"/>
	</linearGradient>
	<path style="fill:url(#SVGID_00000003803331072510148570000015009450682237899657_);" d="M434.16,613.92c18.28,0,35.88,0,53.94,0
		c0,9.01,0,17.42,0,26.27c-110.42,0-220.94,0-331.89,0c0-8.43,0-16.82,0-26.06c17.82,0,35.57,0,53.99,0c0-3.07,0-5.31,0-7.55
		c0-16.43,0.16-32.86-0.1-49.29c-0.08-4.71,1.4-6.09,6.02-5.98c11.85,0.29,23.71,0.09,35.56,0.09c58.44,0,116.88,0.08,175.32-0.12
		c5.71-0.02,7.43,1.48,7.29,7.27c-0.4,16-0.14,32.03-0.14,48.04C434.16,608.84,434.16,611.08,434.16,613.92z"/>
	<path class="st2" d="M420.73,340.62c0.18,9.26-8.04,17.62-17.32,17.61c-9-0.01-17.11-7.99-17.31-17.04
		c-0.2-9.21,8.09-17.63,17.35-17.6C412.52,323.62,420.55,331.53,420.73,340.62z"/>
	<path class="st2" d="M246.11,376.47c0.03,9.67-7.83,17.76-17.22,17.72c-9.14-0.04-17.07-8-17.14-17.21
		c-0.07-9.52,7.84-17.35,17.53-17.34C239.37,359.64,246.09,366.36,246.11,376.47z"/>
	<path class="st2" d="M520.63,204.73c0.19,9.03-7.57,17.2-16.67,17.54c-9.34,0.34-17.73-7.54-17.96-16.9
		c-0.23-9.17,8.09-17.63,17.33-17.62C512.4,187.75,520.44,195.65,520.63,204.73z"/>
	<path class="st2" d="M143.58,281.76c-0.09,8.54-8.33,16.49-17.13,16.53c-9.28,0.05-17.58-8.38-17.37-17.63
		c0.2-9.11,8.33-17.07,17.36-17.02C135.22,263.7,143.68,272.64,143.58,281.76z"/>
	<path class="st2" d="M338.07,282.22c-9.14-0.05-17.05-7.94-17.13-17.09c-0.09-9.39,8.15-17.63,17.45-17.45
		c8.79,0.17,17.28,9.29,17.01,18.25C355.13,274.61,346.97,282.28,338.07,282.22z"/>
</g>
</svg>
