<?xml version="1.0" encoding="utf-8"?>
<!-- Generator: Adobe Illustrator 26.2.1, SVG Export Plug-In . SVG Version: 6.00 Build 0)  -->
<svg version="1.1" id="report" xmlns="http://www.w3.org/2000/svg" xmlns:xlink="http://www.w3.org/1999/xlink" x="0px" y="0px"
	 viewBox="0 0 640.62 640.62" style="enable-background:new 0 0 640.62 640.62;" xml:space="preserve">
<style type="text/css">
	.st0{fill:#360061;}
	.st1{fill:url(#SVGID_1_);}
	.st2{fill:url(#SVGID_00000129164261766418674890000014463632965759422630_);}
	.st3{opacity:0.8;fill:#360061;}
	.st4{opacity:0.9;fill:#360061;}
	.st5{fill:#5800B2;}
	.st6{fill:url(#SVGID_00000104679906742395471470000018183836568283737993_);}
	.st7{fill:url(#SVGID_00000057120726961757257660000015033464429109677707_);}
	.st8{fill:url(#SVGID_00000031908044076202387580000017473604521251936177_);}
</style>
<g>
	<path class="st0" d="M211.78,79.95c4.62-13.03,10.87-23.8,19.08-33.36c1.34-1.56,4.59-2.07,6.96-2.08
		c26.44-0.14,52.89-0.09,79.34-0.09c1.73,0,3.47,0.01,5.2-0.02c5.22-0.08,9.17-2.03,8.9-7.88c-0.24-5.39-4-7.11-9-7.1
		c-21.46,0.05-42.92,0.02-64.38,0.02c-2.71,0-5.43,0-9.85,0c12.72-10.78,25.7-17.34,39.81-21.64
		C361-14.51,435.81,38.16,439.58,114.53c0.62,12.49,1.66,12.96,14.34,13.57c14.42,0.69,29.39,0.22,43.08,4
		c42.36,11.7,68.89,53.73,63.02,96.94c-5.93,43.7-42.89,76.82-87.81,77.01c-99.93,0.43-199.86,0.41-299.79,0.01
		c-46.08-0.18-84.91-36.09-88.26-80.13c-3.7-48.67,27.88-89.53,75.7-96.9c11.04-1.7,22.49-0.81,33.75-1.05
		c8.56-0.18,10.51-2.1,11.11-10.78c0.37-5.4,1.24-10.76,1.45-16.16c0.19-5.04,2.42-6.36,7.33-6.33c36.85,0.2,73.7,0.11,110.55,0.11
		c17.56,0,35.12,0,52.67-0.01c1.95,0,4.46,0.64,5.73-0.32c2.47-1.87,5.82-4.64,5.84-7.07c0.02-2.41-3.26-5.33-5.75-7.11
		c-1.46-1.05-4.2-0.36-6.37-0.36c-52.02-0.01-104.05-0.01-156.07-0.01C217.74,79.95,215.37,79.95,211.78,79.95z M267.55,238.01
		c0,12.44,0.03,24.14-0.01,35.83c-0.02,5.29,2.02,9.21,7.69,9.16c5.29-0.05,7.33-3.72,7.32-8.8c-0.06-23.19,0.03-46.39-0.1-69.58
		c-0.09-15.51-5.62-28.94-17.21-39.29c-16.74-14.93-36.13-18.64-56.76-9.92c-21.72,9.18-32.44,26.68-32.84,50.09
		c-0.38,22.32-0.09,44.65-0.09,66.98c0,1.08-0.04,2.18,0.11,3.25c0.62,4.4,2.98,7.4,7.6,7.32c4.56-0.07,7.04-2.95,7.43-7.46
		c0.18-2.15,0.07-4.33,0.07-6.5c0-10.32,0-20.63,0-31.08C216.71,238.01,241.77,238.01,267.55,238.01z M336.21,234.75
		c8.51,0,16.08,0.21,23.62-0.06c8.2-0.29,16.66,0.1,24.52-1.81c20.37-4.95,32.92-24.36,30.46-45.33
		c-2.44-20.78-19.52-36.15-41.34-36.71c-13.65-0.35-27.32-0.11-40.97-0.08c-9.24,0.02-11.53,2.3-11.53,11.48
		c-0.02,36.64-0.01,73.28,0.01,109.92c0,1.73-0.48,4,0.41,5.07c1.91,2.3,4.51,5.41,6.93,5.49c2.38,0.09,5.34-2.78,7.15-5.06
		c1.12-1.41,0.72-4.15,0.73-6.3C336.24,259.48,336.21,247.59,336.21,234.75z M468.6,216.8c0-17.54,0-35.08-0.01-52.62
		c0-1.95,0.04-3.91-0.14-5.84c-0.43-4.54-3.03-7.42-7.53-7.34c-4.43,0.07-7.09,2.84-7.37,7.47c-0.06,1.08-0.04,2.16-0.04,3.25
		c0,36.81,0,73.63,0.01,110.44c0,1.73-0.53,4,0.34,5.07c1.89,2.3,4.48,5.42,6.89,5.51c2.37,0.09,5.43-2.74,7.11-5.07
		c1.18-1.64,0.7-4.59,0.71-6.96C468.62,252.74,468.6,234.77,468.6,216.8z"/>
	<linearGradient id="SVGID_1_" gradientUnits="userSpaceOnUse" x1="83.8711" y1="154.5012" x2="560.8308" y2="154.5012">
		<stop  offset="0" style="stop-color:#FFFFFF;stop-opacity:0.4"/>
		<stop  offset="0.0691" style="stop-color:#FFFFFF;stop-opacity:0.3435"/>
		<stop  offset="0.4892" style="stop-color:#FFFFFF;stop-opacity:0"/>
		<stop  offset="0.7527" style="stop-color:#FAFAFA;stop-opacity:0.1032"/>
		<stop  offset="1" style="stop-color:#EFEFEF;stop-opacity:0.2"/>
	</linearGradient>
	<path class="st1" d="M211.78,79.95c4.62-13.03,10.87-23.8,19.08-33.36c1.34-1.56,4.59-2.07,6.96-2.08
		c26.44-0.14,52.89-0.09,79.34-0.09c1.73,0,3.47,0.01,5.2-0.02c5.22-0.08,9.17-2.03,8.9-7.88c-0.24-5.39-4-7.11-9-7.1
		c-21.46,0.05-42.92,0.02-64.38,0.02c-2.71,0-5.43,0-9.85,0c12.72-10.78,25.7-17.34,39.81-21.64
		C361-14.51,435.81,38.16,439.58,114.53c0.62,12.49,1.66,12.96,14.34,13.57c14.42,0.69,29.39,0.22,43.08,4
		c42.36,11.7,68.89,53.73,63.02,96.94c-5.93,43.7-42.89,76.82-87.81,77.01c-99.93,0.43-199.86,0.41-299.79,0.01
		c-46.08-0.18-84.91-36.09-88.26-80.13c-3.7-48.67,27.88-89.53,75.7-96.9c11.04-1.7,22.49-0.81,33.75-1.05
		c8.56-0.18,10.51-2.1,11.11-10.78c0.37-5.4,1.24-10.76,1.45-16.16c0.19-5.04,2.42-6.36,7.33-6.33c36.85,0.2,73.7,0.11,110.55,0.11
		c17.56,0,35.12,0,52.67-0.01c1.95,0,4.46,0.64,5.73-0.32c2.47-1.87,5.82-4.64,5.84-7.07c0.02-2.41-3.26-5.33-5.75-7.11
		c-1.46-1.05-4.2-0.36-6.37-0.36c-52.02-0.01-104.05-0.01-156.07-0.01C217.74,79.95,215.37,79.95,211.78,79.95z M267.55,238.01
		c0,12.44,0.03,24.14-0.01,35.83c-0.02,5.29,2.02,9.21,7.69,9.16c5.29-0.05,7.33-3.72,7.32-8.8c-0.06-23.19,0.03-46.39-0.1-69.58
		c-0.09-15.51-5.62-28.94-17.21-39.29c-16.74-14.93-36.13-18.64-56.76-9.92c-21.72,9.18-32.44,26.68-32.84,50.09
		c-0.38,22.32-0.09,44.65-0.09,66.98c0,1.08-0.04,2.18,0.11,3.25c0.62,4.4,2.98,7.4,7.6,7.32c4.56-0.07,7.04-2.95,7.43-7.46
		c0.18-2.15,0.07-4.33,0.07-6.5c0-10.32,0-20.63,0-31.08C216.71,238.01,241.77,238.01,267.55,238.01z M336.21,234.75
		c8.51,0,16.08,0.21,23.62-0.06c8.2-0.29,16.66,0.1,24.52-1.81c20.37-4.95,32.92-24.36,30.46-45.33
		c-2.44-20.78-19.52-36.15-41.34-36.71c-13.65-0.35-27.32-0.11-40.97-0.08c-9.24,0.02-11.53,2.3-11.53,11.48
		c-0.02,36.64-0.01,73.28,0.01,109.92c0,1.73-0.48,4,0.41,5.07c1.91,2.3,4.51,5.41,6.93,5.49c2.38,0.09,5.34-2.78,7.15-5.06
		c1.12-1.41,0.72-4.15,0.73-6.3C336.24,259.48,336.21,247.59,336.21,234.75z M468.6,216.8c0-17.54,0-35.08-0.01-52.62
		c0-1.95,0.04-3.91-0.14-5.84c-0.43-4.54-3.03-7.42-7.53-7.34c-4.43,0.07-7.09,2.84-7.37,7.47c-0.06,1.08-0.04,2.16-0.04,3.25
		c0,36.81,0,73.63,0.01,110.44c0,1.73-0.53,4,0.34,5.07c1.89,2.3,4.48,5.42,6.89,5.51c2.37,0.09,5.43-2.74,7.11-5.07
		c1.18-1.64,0.7-4.59,0.71-6.96C468.62,252.74,468.6,234.77,468.6,216.8z"/>
	<path class="st0" d="M391.56,321.45c25.33,0,50.17,0,74.98,0c0.73,9.43-3.8,14.7-12.93,14.88c-10.4,0.2-20.81,0.25-31.2-0.02
		c-5.84-0.15-9.38,2.01-11.16,7.65c-1.3,4.11-2.99,8.13-4.92,11.99c-2.51,5.03-1.55,8.95,2.45,12.78c7.2,6.89,14.19,14,21.17,21.11
		c7.39,7.53,7.32,13.69-0.12,21.33c-3.63,3.73-7.29,7.42-11.04,11.03c-6.9,6.65-13.48,6.68-20.43-0.07
		c-7.3-7.1-14.56-14.25-21.59-21.62c-3.85-4.04-7.79-5-12.75-2.34c-2.66,1.42-5.48,2.58-8.3,3.68
		c-11.31,4.44-11.31,4.42-11.32,16.34c0,9.1,0.1,18.2-0.04,27.3c-0.14,8.62-4.76,13.22-13.29,13.41c-5.85,0.13-11.7,0.08-17.55,0.02
		c-9.54-0.11-14.21-4.72-14.37-14.48c-0.16-9.75-0.37-19.52,0.07-29.25c0.32-7.05-2.36-11.11-9.2-12.63
		c-1.67-0.37-3.25-1.18-4.83-1.88c-12.43-5.56-11.62-7.07-22.69,4.27c-5.75,5.89-11.55,11.74-17.48,17.45
		c-6.65,6.42-13.23,6.36-19.91-0.09c-4.21-4.06-8.38-8.17-12.4-12.42c-5.72-6.04-5.77-13,0.03-19c7.38-7.63,14.86-15.17,22.51-22.53
		c3.85-3.7,4.52-7.49,2.26-12.25c-2.04-4.29-3.8-8.72-5.44-13.18c-1.73-4.7-4.86-6.7-9.9-6.61c-10.61,0.19-21.24,0.18-31.85,0.01
		c-9.11-0.15-13.69-5.2-13.47-14.81c25,0,50.02,0,75.69,0c3.56,21.3,13.88,38.66,32.38,50.6c12.17,7.85,25.63,11.51,40.09,10.9
		C353.2,381.85,384.56,362.58,391.56,321.45z"/>
	
		<linearGradient id="SVGID_00000059298031050080786180000002240585557959949498_" gradientUnits="userSpaceOnUse" x1="176.8896" y1="390.2161" x2="466.6222" y2="390.2161">
		<stop  offset="0" style="stop-color:#FFFFFF;stop-opacity:0.4"/>
		<stop  offset="0.0691" style="stop-color:#FFFFFF;stop-opacity:0.3435"/>
		<stop  offset="0.4892" style="stop-color:#FFFFFF;stop-opacity:0"/>
		<stop  offset="0.7527" style="stop-color:#FAFAFA;stop-opacity:0.1032"/>
		<stop  offset="1" style="stop-color:#EFEFEF;stop-opacity:0.2"/>
	</linearGradient>
	<path style="fill:url(#SVGID_00000059298031050080786180000002240585557959949498_);" d="M391.56,321.45c25.33,0,50.17,0,74.98,0
		c0.73,9.43-3.8,14.7-12.93,14.88c-10.4,0.2-20.81,0.25-31.2-0.02c-5.84-0.15-9.38,2.01-11.16,7.65c-1.3,4.11-2.99,8.13-4.92,11.99
		c-2.51,5.03-1.55,8.95,2.45,12.78c7.2,6.89,14.19,14,21.17,21.11c7.39,7.53,7.32,13.69-0.12,21.33
		c-3.63,3.73-7.29,7.42-11.04,11.03c-6.9,6.65-13.48,6.68-20.43-0.07c-7.3-7.1-14.56-14.25-21.59-21.62
		c-3.85-4.04-7.79-5-12.75-2.34c-2.66,1.42-5.48,2.58-8.3,3.68c-11.31,4.44-11.31,4.42-11.32,16.34c0,9.1,0.1,18.2-0.04,27.3
		c-0.14,8.62-4.76,13.22-13.29,13.41c-5.85,0.13-11.7,0.08-17.55,0.02c-9.54-0.11-14.21-4.72-14.37-14.48
		c-0.16-9.75-0.37-19.52,0.07-29.25c0.32-7.05-2.36-11.11-9.2-12.63c-1.67-0.37-3.25-1.18-4.83-1.88
		c-12.43-5.56-11.62-7.07-22.69,4.27c-5.75,5.89-11.55,11.74-17.48,17.45c-6.65,6.42-13.23,6.36-19.91-0.09
		c-4.21-4.06-8.38-8.17-12.4-12.42c-5.72-6.04-5.77-13,0.03-19c7.38-7.63,14.86-15.17,22.51-22.53c3.85-3.7,4.52-7.49,2.26-12.25
		c-2.04-4.29-3.8-8.72-5.44-13.18c-1.73-4.7-4.86-6.7-9.9-6.61c-10.61,0.19-21.24,0.18-31.85,0.01c-9.11-0.15-13.69-5.2-13.47-14.81
		c25,0,50.02,0,75.69,0c3.56,21.3,13.88,38.66,32.38,50.6c12.17,7.85,25.63,11.51,40.09,10.9
		C353.2,381.85,384.56,362.58,391.56,321.45z"/>
	<path class="st0" d="M119.57,555.14c-21.45,0.03-38.9-17.22-39.05-38.59c-0.15-21.18,17.42-39.05,38.57-39.22
		c21.63-0.18,39.27,17.38,39.23,39.07C158.29,537.88,141.05,555.11,119.57,555.14z"/>
	<path class="st3" d="M524.66,555.15c-21.44-0.03-38.64-17.32-38.65-38.84c-0.01-21.44,17.23-38.85,38.64-39
		c21.4-0.15,39.43,17.95,39.15,39.31C563.52,538.06,546.13,555.18,524.66,555.15z"/>
	<path class="st4" d="M322.37,561.45c21.45,0.07,38.76,17.41,38.76,38.81c-0.01,21.28-17.49,38.81-38.81,38.93
		c-21.46,0.12-39.27-17.79-39.07-39.32C283.43,578.5,300.87,561.38,322.37,561.45z"/>
	<path class="st5" d="M375.21,321.5c-1.14,24.91-26.16,46.48-53.35,46.37c-26.78-0.1-51.66-21.82-52.69-46.37
		C304.37,321.5,339.56,321.5,375.21,321.5z"/>
	
		<linearGradient id="SVGID_00000131369597511691627470000005055820189444032129_" gradientUnits="userSpaceOnUse" x1="269.1635" y1="344.6913" x2="375.2113" y2="344.6913">
		<stop  offset="0" style="stop-color:#FFFFFF;stop-opacity:0.4"/>
		<stop  offset="0.0691" style="stop-color:#FFFFFF;stop-opacity:0.3435"/>
		<stop  offset="0.4892" style="stop-color:#FFFFFF;stop-opacity:0"/>
		<stop  offset="0.7527" style="stop-color:#FAFAFA;stop-opacity:0.1032"/>
		<stop  offset="1" style="stop-color:#EFEFEF;stop-opacity:0.2"/>
	</linearGradient>
	<path style="fill:url(#SVGID_00000131369597511691627470000005055820189444032129_);" d="M375.21,321.5
		c-1.14,24.91-26.16,46.48-53.35,46.37c-26.78-0.1-51.66-21.82-52.69-46.37C304.37,321.5,339.56,321.5,375.21,321.5z"/>
	<path class="st5" d="M329.4,546.08c-4.78,0-9.26,0-14.3,0c0-23.68,0-47.33,0-71.48c4.61,0,9.24,0,14.3,0
		C329.4,498.4,329.4,522.1,329.4,546.08z"/>
	<path class="st5" d="M204.25,423.25c2.46,2.62,5.54,5.9,8.13,8.66c-16.41,16.38-33.33,33.27-50.03,49.94
		c-2.32-2.33-5.6-5.63-8.41-8.46C170.39,456.98,187.19,440.25,204.25,423.25z"/>
	<path class="st5" d="M431.14,431.24c2.63-2.42,5.95-5.49,8.55-7.89c16.72,16.7,33.61,33.57,50.75,50.68
		c-2.35,1.93-5.98,4.91-9.14,7.51C465.3,465.5,448.31,448.46,431.14,431.24z"/>
	<path class="st5" d="M267.45,222.39c-25.6,0-50.83,0-77.18,0c0.59-9.36,0.12-18.57,1.94-27.29c3.81-18.25,21.33-30.33,40.09-28.87
		c18.41,1.43,33.82,16.63,35.07,35.05C267.84,208.15,267.45,215.08,267.45,222.39z"/>
	<path class="st5" d="M336.53,166.24c13.92,0,27.35-0.67,40.69,0.19c12.77,0.82,22.72,12.85,22.96,25.81
		c0.24,13.26-9.39,25.72-22.59,26.77c-13.5,1.07-27.16,0.24-41.06,0.24C336.53,201.54,336.53,184.28,336.53,166.24z"/>
	
		<linearGradient id="SVGID_00000031888220801308702440000012540343729161073562_" gradientUnits="userSpaceOnUse" x1="190.2698" y1="194.2504" x2="267.6031" y2="194.2504">
		<stop  offset="0" style="stop-color:#FFFFFF;stop-opacity:0.4"/>
		<stop  offset="0.0691" style="stop-color:#FFFFFF;stop-opacity:0.3435"/>
		<stop  offset="0.4892" style="stop-color:#FFFFFF;stop-opacity:0"/>
		<stop  offset="0.7527" style="stop-color:#FAFAFA;stop-opacity:0.1032"/>
		<stop  offset="1" style="stop-color:#EFEFEF;stop-opacity:0.2"/>
	</linearGradient>
	<path style="fill:url(#SVGID_00000031888220801308702440000012540343729161073562_);" d="M267.45,222.39c-25.6,0-50.83,0-77.18,0
		c0.59-9.36,0.12-18.57,1.94-27.29c3.81-18.25,21.33-30.33,40.09-28.87c18.41,1.43,33.82,16.63,35.07,35.05
		C267.84,208.15,267.45,215.08,267.45,222.39z"/>
	
		<linearGradient id="SVGID_00000070804745969485517240000004149042359740246178_" gradientUnits="userSpaceOnUse" x1="336.53" y1="192.7718" x2="400.186" y2="192.7718">
		<stop  offset="0" style="stop-color:#FFFFFF;stop-opacity:0.4"/>
		<stop  offset="0.0691" style="stop-color:#FFFFFF;stop-opacity:0.3435"/>
		<stop  offset="0.4892" style="stop-color:#FFFFFF;stop-opacity:0"/>
		<stop  offset="0.7527" style="stop-color:#FAFAFA;stop-opacity:0.1032"/>
		<stop  offset="1" style="stop-color:#EFEFEF;stop-opacity:0.2"/>
	</linearGradient>
	<path style="fill:url(#SVGID_00000070804745969485517240000004149042359740246178_);" d="M336.53,166.24
		c13.92,0,27.35-0.67,40.69,0.19c12.77,0.82,22.72,12.85,22.96,25.81c0.24,13.26-9.39,25.72-22.59,26.77
		c-13.5,1.07-27.16,0.24-41.06,0.24C336.53,201.54,336.53,184.28,336.53,166.24z"/>
</g>
</svg>
