<?xml version="1.0" encoding="utf-8"?>
<!-- Generator: Adobe Illustrator 26.2.1, SVG Export Plug-In . SVG Version: 6.00 Build 0)  -->
<svg version="1.1" id="Layer_1" xmlns="http://www.w3.org/2000/svg" xmlns:xlink="http://www.w3.org/1999/xlink" x="0px" y="0px"
	 viewBox="0 0 120 50" style="enable-background:new 0 0 120 50;" xml:space="preserve">
<style type="text/css">
	.st0{fill:#FFFFFF;}
</style>
<g>
	<g>
		<path class="st0" d="M37.29,44.87h-17c-1.87,0-3.39-1.52-3.39-3.39v-3.29c0-1.87,1.52-3.39,3.39-3.39h17
			c1.87,0,3.39,1.52,3.39,3.39v3.29C40.67,43.35,39.16,44.87,37.29,44.87z"/>
		<ellipse class="st0" cx="28.79" cy="14" rx="7.88" ry="8.83"/>
		<path class="st0" d="M36.67,14c0.64,4.83-3.84-1.01-8.19-1.01s-8.41,5.82-7.57,1.01c0.82-4.71,4.55-9.36,7.88-8.83
			C32.13,5.71,36.01,9.01,36.67,14z"/>
		<path class="st0" d="M20.5,24.43L20.5,24.43l16.79,0c1.87,0,3.39,1.52,3.39,3.39v15.52H39.4C28.96,43.34,20.5,34.87,20.5,24.43z"
			/>
		<path class="st0" d="M18.17,43.34H16.9V27.82c0-1.87,1.52-3.39,3.39-3.39h16.79v0C37.08,34.87,28.61,43.34,18.17,43.34z"/>
		<path class="st0" d="M28.08,14.25c-0.57,0.84-2.43,3.35-5.36,3.66c-0.62,0.07-1.88,0.2-2.57-0.55c-0.92-1-0.24-2.96,0.22-4.21
			c0.6-1.65,1.98-4.51,5.47-7.33c-0.18,1.48,0.07,2.54,0.33,3.23c0.81,2.15,2.67,3.33,2.24,4.65
			C28.33,13.96,28.18,14.15,28.08,14.25z"/>
		<path class="st0" d="M29.18,14.25c0.57,0.84,2.43,3.35,5.36,3.66c0.62,0.07,1.88,0.2,2.57-0.55c0.92-1,0.24-2.96-0.22-4.21
			c-0.6-1.65-1.98-4.51-5.47-7.33c0.18,1.48-0.07,2.54-0.33,3.23c-0.81,2.15-2.67,3.33-2.24,4.65
			C28.93,13.96,29.08,14.15,29.18,14.25z"/>
	</g>
	<g>
		<path class="st0" d="M43.29,6.41h3.49l1.26,6.65l1.84-6.65h3.48l1.84,6.64l1.26-6.64h3.47l-2.62,11.88h-3.6l-2.08-7.48l-2.08,7.48
			h-3.6L43.29,6.41z"/>
		<path class="st0" d="M61.1,6.41h9.84v2.54h-6.16v1.89h5.71v2.42h-5.71v2.34h6.34v2.69H61.1V6.41z"/>
		<path class="st0" d="M73.11,6.41h6.87c1.15,0,2.03,0.28,2.64,0.85s0.92,1.27,0.92,2.11c0,0.7-0.22,1.31-0.66,1.81
			c-0.29,0.34-0.72,0.6-1.28,0.79c0.85,0.21,1.48,0.56,1.88,1.06c0.4,0.5,0.6,1.13,0.6,1.88c0,0.62-0.14,1.17-0.43,1.66
			c-0.29,0.49-0.68,0.88-1.18,1.17c-0.31,0.18-0.77,0.31-1.39,0.39c-0.83,0.11-1.38,0.16-1.65,0.16h-6.34V6.41z M76.81,11.07h1.6
			c0.57,0,0.97-0.1,1.2-0.3c0.22-0.2,0.34-0.48,0.34-0.86c0-0.35-0.11-0.62-0.34-0.81c-0.22-0.19-0.61-0.29-1.17-0.29h-1.62V11.07z
			 M76.81,15.74h1.87c0.63,0,1.08-0.11,1.34-0.34s0.39-0.53,0.39-0.9c0-0.35-0.13-0.63-0.39-0.85c-0.26-0.21-0.71-0.32-1.35-0.32
			h-1.86V15.74z"/>
		<path class="st0" d="M50.49,27.82v-2.47h5.67v5.07c-1.09,0.74-2.05,1.24-2.88,1.51c-0.83,0.27-1.83,0.4-2.97,0.4
			c-1.41,0-2.56-0.24-3.45-0.72c-0.89-0.48-1.58-1.2-2.07-2.15c-0.49-0.95-0.73-2.04-0.73-3.27c0-1.3,0.27-2.42,0.8-3.38
			c0.53-0.96,1.32-1.69,2.35-2.18c0.81-0.38,1.89-0.58,3.25-0.58c1.31,0,2.3,0.12,2.95,0.36c0.65,0.24,1.19,0.61,1.62,1.11
			s0.75,1.13,0.97,1.9l-3.54,0.63c-0.15-0.45-0.39-0.79-0.74-1.03s-0.79-0.36-1.33-0.36c-0.81,0-1.45,0.28-1.93,0.84
			s-0.72,1.44-0.72,2.65c0,1.29,0.24,2.2,0.73,2.76s1.16,0.83,2.02,0.83c0.41,0,0.8-0.06,1.18-0.18c0.37-0.12,0.8-0.32,1.28-0.61
			v-1.12H50.49z"/>
		<path class="st0" d="M66.07,20.24h3.66v7.08c0,0.7-0.11,1.37-0.33,1.99c-0.22,0.62-0.56,1.17-1.03,1.64
			c-0.47,0.47-0.96,0.79-1.47,0.98c-0.71,0.26-1.57,0.4-2.57,0.4c-0.58,0-1.21-0.04-1.89-0.12c-0.68-0.08-1.26-0.24-1.71-0.48
			c-0.46-0.24-0.88-0.58-1.26-1.02c-0.38-0.44-0.64-0.9-0.78-1.37c-0.23-0.76-0.34-1.43-0.34-2.01v-7.08h3.66v7.25
			c0,0.65,0.18,1.15,0.54,1.52c0.36,0.36,0.86,0.55,1.5,0.55c0.63,0,1.13-0.18,1.49-0.54s0.54-0.87,0.54-1.53V20.24z"/>
		<path class="st0" d="M72.22,32.12V20.24h6.12c1.13,0,2,0.1,2.6,0.29c0.6,0.19,1.08,0.56,1.45,1.08c0.37,0.53,0.55,1.17,0.55,1.93
			c0,0.66-0.14,1.23-0.42,1.71c-0.28,0.48-0.67,0.87-1.16,1.16c-0.31,0.19-0.74,0.35-1.29,0.47c0.44,0.15,0.76,0.29,0.96,0.44
			c0.14,0.1,0.33,0.31,0.59,0.63c0.26,0.32,0.43,0.56,0.51,0.74l1.78,3.44h-4.15l-1.96-3.63c-0.25-0.47-0.47-0.78-0.66-0.92
			c-0.26-0.18-0.56-0.28-0.9-0.28h-0.32v4.82H72.22z M75.91,25.06h1.55c0.17,0,0.49-0.05,0.97-0.16c0.24-0.05,0.44-0.17,0.6-0.37
			c0.15-0.2,0.23-0.43,0.23-0.69c0-0.38-0.12-0.68-0.36-0.88s-0.7-0.31-1.37-0.31h-1.61V25.06z"/>
		<path class="st0" d="M92.53,20.24h3.66v7.08c0,0.7-0.11,1.37-0.33,1.99c-0.22,0.62-0.56,1.17-1.03,1.64
			c-0.47,0.47-0.96,0.79-1.47,0.98c-0.71,0.26-1.57,0.4-2.57,0.4c-0.58,0-1.21-0.04-1.89-0.12c-0.68-0.08-1.26-0.24-1.71-0.48
			c-0.46-0.24-0.88-0.58-1.26-1.02c-0.38-0.44-0.64-0.9-0.78-1.37c-0.23-0.76-0.34-1.43-0.34-2.01v-7.08h3.66v7.25
			c0,0.65,0.18,1.15,0.54,1.52c0.36,0.36,0.86,0.55,1.5,0.55c0.63,0,1.13-0.18,1.49-0.54c0.36-0.36,0.54-0.87,0.54-1.53V20.24z"/>
		<path class="st0" d="M49.69,41.72h-3.13l-0.43,1.47h-2.81l3.35-8.91h3l3.35,8.91h-2.88L49.69,41.72z M49.12,39.79l-0.98-3.2
			l-0.97,3.2H49.12z"/>
		<path class="st0" d="M53.07,34.28h2.62l0.94,4.99l1.38-4.99h2.61L62,39.26l0.94-4.98h2.6l-1.96,8.91h-2.7l-1.56-5.61l-1.56,5.61
			h-2.7L53.07,34.28z"/>
		<path class="st0" d="M71.92,41.72h-3.13l-0.43,1.47h-2.81l3.35-8.91h3l3.35,8.91h-2.88L71.92,41.72z M71.35,39.79l-0.98-3.2
			l-0.97,3.2H71.35z"/>
		<path class="st0" d="M76.16,43.19v-8.91h4.59c0.85,0,1.5,0.07,1.95,0.22c0.45,0.15,0.81,0.42,1.09,0.81
			c0.27,0.39,0.41,0.88,0.41,1.44c0,0.5-0.11,0.92-0.32,1.28c-0.21,0.36-0.5,0.65-0.87,0.87c-0.24,0.14-0.56,0.26-0.97,0.35
			c0.33,0.11,0.57,0.22,0.72,0.33c0.1,0.07,0.25,0.23,0.44,0.47c0.19,0.24,0.32,0.42,0.39,0.55l1.33,2.58h-3.11l-1.47-2.72
			c-0.19-0.35-0.35-0.58-0.5-0.69c-0.2-0.14-0.42-0.21-0.67-0.21h-0.24v3.62H76.16z M78.93,37.89h1.16c0.13,0,0.37-0.04,0.73-0.12
			c0.18-0.04,0.33-0.13,0.45-0.28c0.11-0.15,0.17-0.32,0.17-0.52c0-0.29-0.09-0.51-0.27-0.66c-0.18-0.15-0.53-0.23-1.03-0.23h-1.21
			V37.89z"/>
		<path class="st0" d="M85.85,34.28h4.09c0.81,0,1.46,0.11,1.95,0.33c0.5,0.22,0.91,0.53,1.23,0.94s0.56,0.88,0.71,1.43
			c0.15,0.54,0.22,1.12,0.22,1.73c0,0.95-0.11,1.69-0.32,2.22c-0.22,0.53-0.52,0.96-0.9,1.32c-0.39,0.35-0.8,0.59-1.24,0.71
			c-0.61,0.16-1.15,0.24-1.64,0.24h-4.09V34.28z M88.6,36.3v4.87h0.68c0.58,0,0.98-0.06,1.23-0.19c0.24-0.13,0.43-0.35,0.57-0.67
			c0.14-0.32,0.21-0.83,0.21-1.55c0-0.94-0.15-1.59-0.46-1.94c-0.31-0.35-0.82-0.52-1.53-0.52H88.6z"/>
		<path class="st0" d="M95.01,40.24l2.62-0.16c0.06,0.43,0.17,0.75,0.35,0.97c0.28,0.36,0.69,0.54,1.22,0.54
			c0.39,0,0.7-0.09,0.91-0.28c0.21-0.19,0.32-0.4,0.32-0.64c0-0.23-0.1-0.44-0.3-0.62c-0.2-0.18-0.67-0.35-1.41-0.52
			c-1.21-0.27-2.07-0.63-2.58-1.08c-0.52-0.45-0.78-1.02-0.78-1.72c0-0.46,0.13-0.89,0.4-1.3c0.26-0.41,0.66-0.73,1.2-0.96
			c0.53-0.23,1.26-0.35,2.19-0.35c1.14,0,2.01,0.21,2.61,0.64c0.6,0.42,0.95,1.1,1.07,2.02l-2.6,0.15c-0.07-0.4-0.21-0.69-0.44-0.88
			c-0.22-0.18-0.53-0.27-0.91-0.27c-0.32,0-0.56,0.07-0.72,0.2c-0.16,0.14-0.24,0.3-0.24,0.49c0,0.14,0.07,0.27,0.2,0.38
			c0.13,0.12,0.44,0.23,0.92,0.33c1.2,0.26,2.07,0.52,2.59,0.79c0.52,0.26,0.9,0.59,1.14,0.99c0.24,0.39,0.36,0.83,0.36,1.32
			c0,0.57-0.16,1.1-0.47,1.58c-0.32,0.48-0.76,0.85-1.33,1.1c-0.57,0.25-1.28,0.37-2.15,0.37c-1.52,0-2.57-0.29-3.15-0.88
			C95.42,41.88,95.09,41.14,95.01,40.24z"/>
	</g>
</g>
</svg>
