<?xml version="1.0" encoding="utf-8"?>
<!-- Generator: Adobe Illustrator 24.3.0, SVG Export Plug-In . SVG Version: 6.00 Build 0)  -->
<svg version="1.1" id="report" xmlns="http://www.w3.org/2000/svg" xmlns:xlink="http://www.w3.org/1999/xlink" x="0px" y="0px"
	 viewBox="0 0 640.62 640.62" style="enable-background:new 0 0 640.62 640.62;" xml:space="preserve">
<style type="text/css">
	.st0{display:none;fill:url(#SVGID_1_);}
	.st1{display:none;fill:url(#SVGID_2_);}
	.st2{display:none;fill:url(#SVGID_3_);}
	.st3{fill:#360061;}
	.st4{fill:url(#SVGID_4_);}
	.st5{fill:#5800B2;}
	.st6{fill:url(#SVGID_5_);}
</style>
<linearGradient id="SVGID_1_" gradientUnits="userSpaceOnUse" x1="290.9483" y1="320.3009" x2="360.9372" y2="320.3009">
	<stop  offset="0" style="stop-color:#FFFFFF;stop-opacity:0.4"/>
	<stop  offset="0.0691" style="stop-color:#FFFFFF;stop-opacity:0.3435"/>
	<stop  offset="0.4892" style="stop-color:#FFFFFF;stop-opacity:0"/>
	<stop  offset="0.7527" style="stop-color:#FAFAFA;stop-opacity:0.1032"/>
	<stop  offset="1" style="stop-color:#EFEFEF;stop-opacity:0.2"/>
</linearGradient>
<path class="st0" d="M360.94,408.89c-23.09-16.59-45.06-32.27-66.81-48.25c-1.83-1.34-2.98-4.76-3.01-7.23
	c-0.23-22.1-0.21-44.2-0.02-66.3c0.02-2.29,0.86-5.51,2.5-6.71c21.96-16.13,44.13-31.97,67.35-48.68
	C360.94,291.13,360.94,349.28,360.94,408.89z"/>
<linearGradient id="SVGID_2_" gradientUnits="userSpaceOnUse" x1="234.72" y1="320.2812" x2="275.4071" y2="320.2812">
	<stop  offset="0" style="stop-color:#FFFFFF;stop-opacity:0.4"/>
	<stop  offset="0.0691" style="stop-color:#FFFFFF;stop-opacity:0.3435"/>
	<stop  offset="0.4892" style="stop-color:#FFFFFF;stop-opacity:0"/>
	<stop  offset="0.7527" style="stop-color:#FAFAFA;stop-opacity:0.1032"/>
	<stop  offset="1" style="stop-color:#EFEFEF;stop-opacity:0.2"/>
</linearGradient>
<path class="st1" d="M275.41,285.55c0,23.61,0,46.09,0,69.35c-11.46,0-22.58,0.48-33.59-0.36c-2.51-0.19-6.61-4.84-6.7-7.55
	c-0.6-17.88-0.4-35.78-0.22-53.68c0.05-4.85,2.99-7.68,7.96-7.73C253.46,285.48,264.05,285.55,275.41,285.55z"/>
<linearGradient id="SVGID_3_" gradientUnits="userSpaceOnUse" x1="377.0954" y1="320.1778" x2="405.9691" y2="320.1778">
	<stop  offset="0" style="stop-color:#FFFFFF;stop-opacity:0.4"/>
	<stop  offset="0.0691" style="stop-color:#FFFFFF;stop-opacity:0.3435"/>
	<stop  offset="0.4892" style="stop-color:#FFFFFF;stop-opacity:0"/>
	<stop  offset="0.7527" style="stop-color:#FAFAFA;stop-opacity:0.1032"/>
	<stop  offset="1" style="stop-color:#EFEFEF;stop-opacity:0.2"/>
</linearGradient>
<path class="st2" d="M377.1,355.13c0-23.33,0-46.62,0.01-69.9c15.57,1.63,28.5,17.01,28.86,34.31
	C406.32,336.88,393.67,352.67,377.1,355.13z"/>
<g>
	<path class="st3" d="M554.87,28.87c-0.05-11.79-6.16-20.81-16.18-23.53c-3.79-1.04-7.95-1.02-11.94-1.02
		C377.86,4.26,228.97,4.28,80.06,4.28c-2.67,0-5.37-0.02-8.02,0.23c-9.16,0.89-16.97,7.27-19.17,16.21
		c-0.95,3.85-1.13,7.95-1.13,11.94c-0.05,158.27-0.04,316.54-0.04,474.81c0,18.54-0.14,37.06,0.05,55.58
		c0.14,14.44,9.63,24.12,23.94,24.14c57.37,0.14,114.75,0.11,172.12-0.05c2.33,0,5.24-1.22,6.93-2.86
		c15.3-14.98,30.33-30.28,45.62-45.28c2.68-2.63,2.97-4.76,1.74-8.18c-10.84-29.85-12.71-60.4-6.91-91.59
		c16.75-90.21,108.88-152.78,198.8-135.08c21.24,4.19,41.07,11.79,60.9,23.82V92.49C554.9,71.28,554.98,50.08,554.87,28.87z
		 M474.21,209.33H132.13v-44.78h342.08V209.33z M474.23,118.04H132.15V73.25h342.08V118.04z"/>
	<linearGradient id="SVGID_4_" gradientUnits="userSpaceOnUse" x1="51.6602" y1="295.7846" x2="554.9276" y2="295.7846">
		<stop  offset="0" style="stop-color:#FFFFFF;stop-opacity:0.4"/>
		<stop  offset="0.0691" style="stop-color:#FFFFFF;stop-opacity:0.3435"/>
		<stop  offset="0.4892" style="stop-color:#FFFFFF;stop-opacity:0"/>
		<stop  offset="0.7527" style="stop-color:#FAFAFA;stop-opacity:0.1032"/>
		<stop  offset="1" style="stop-color:#EFEFEF;stop-opacity:0.2"/>
	</linearGradient>
	<path class="st4" d="M554.87,28.87c-0.05-11.79-6.16-20.81-16.18-23.53c-3.79-1.04-7.95-1.02-11.94-1.02
		C377.86,4.26,228.97,4.28,80.06,4.28c-2.67,0-5.37-0.02-8.02,0.23c-9.16,0.89-16.97,7.27-19.17,16.21
		c-0.95,3.85-1.13,7.95-1.13,11.94c-0.05,158.27-0.04,316.54-0.04,474.81c0,18.54-0.14,37.06,0.05,55.58
		c0.14,14.44,9.63,24.12,23.94,24.14c57.37,0.14,114.75,0.11,172.12-0.05c2.33,0,5.24-1.22,6.93-2.86
		c15.3-14.98,30.33-30.28,45.62-45.28c2.68-2.63,2.97-4.76,1.74-8.18c-10.84-29.85-12.71-60.4-6.91-91.59
		c16.75-90.21,108.88-152.78,198.8-135.08c21.24,4.19,41.07,11.79,60.9,23.82V92.49C554.9,71.28,554.98,50.08,554.87,28.87z
		 M474.21,209.33H132.13v-44.78h342.08V209.33z M474.23,118.04H132.15V73.25h342.08V118.04z"/>
	<path class="st5" d="M554.21,386.02c-43.52-45.22-112.74-51.67-163.67-15.69c-52.4,37.03-71.65,112.82-30.4,175
		c-20.08,19.99-40.37,40.21-59.65,59.4c10.5,10.47,20.99,20.94,31.71,31.62c19.38-19.42,39.37-39.46,59.68-59.83
		c59.06,39.08,132.27,23.35,170.98-26.79C600.66,500.73,597.08,430.54,554.21,386.02z M463.24,552.75
		c-44.31-0.04-79.89-35.77-79.78-80.16c0.11-44.33,35.9-79.82,80.3-79.62c44.31,0.18,79.69,36.01,79.48,80.46
		C543,517.37,507.3,552.81,463.24,552.75z"/>
	<linearGradient id="SVGID_5_" gradientUnits="userSpaceOnUse" x1="300.4799" y1="491.7499" x2="588.9612" y2="491.7499">
		<stop  offset="0" style="stop-color:#FFFFFF;stop-opacity:0.4"/>
		<stop  offset="0.0691" style="stop-color:#FFFFFF;stop-opacity:0.3435"/>
		<stop  offset="0.4892" style="stop-color:#FFFFFF;stop-opacity:0"/>
		<stop  offset="0.7527" style="stop-color:#FAFAFA;stop-opacity:0.1032"/>
		<stop  offset="1" style="stop-color:#EFEFEF;stop-opacity:0.2"/>
	</linearGradient>
	<path class="st6" d="M554.21,386.02c-43.52-45.22-112.74-51.67-163.67-15.69c-52.4,37.03-71.65,112.82-30.4,175
		c-20.08,19.99-40.37,40.21-59.65,59.4c10.5,10.47,20.99,20.94,31.71,31.62c19.38-19.42,39.37-39.46,59.68-59.83
		c59.06,39.08,132.27,23.35,170.98-26.79C600.66,500.73,597.08,430.54,554.21,386.02z M463.24,552.75
		c-44.31-0.04-79.89-35.77-79.78-80.16c0.11-44.33,35.9-79.82,80.3-79.62c44.31,0.18,79.69,36.01,79.48,80.46
		C543,517.37,507.3,552.81,463.24,552.75z"/>
</g>
</svg>
