<?xml version="1.0" encoding="UTF-8"?>
<svg id="report" xmlns="http://www.w3.org/2000/svg" version="1.1" xmlns:xlink="http://www.w3.org/1999/xlink" viewBox="0 0 640.6 640.6">
  <defs>
    <style>
      .cls-1 {
        fill: url(#linear-gradient);
      }

      .cls-1, .cls-2 {
        stroke-width: 0px;
      }

      .cls-2 {
        fill: url(#linear-gradient-2);
      }
    </style>
    <linearGradient id="linear-gradient" x1="320.3" y1="4.3" x2="320.3" y2="570.9" gradientUnits="userSpaceOnUse">
      <stop offset="0" stop-color="#ff3269"/>
      <stop offset="1" stop-color="#ff4f5e"/>
    </linearGradient>
    <linearGradient id="linear-gradient-2" x1="320.3" y1="4.3" x2="320.3" y2="570.9" gradientUnits="userSpaceOnUse">
      <stop offset="0" stop-color="#fff" stop-opacity=".4"/>
      <stop offset="0" stop-color="#fff" stop-opacity=".3"/>
      <stop offset=".5" stop-color="#fff" stop-opacity="0"/>
      <stop offset=".8" stop-color="#fafafa" stop-opacity=".1"/>
      <stop offset="1" stop-color="#efefef" stop-opacity=".2"/>
    </linearGradient>
  </defs>
  <path class="cls-1" d="M388.1,142.6h-9.2c-81.6,0-163.1,0-244.7,0-27.2,0-50.2-20.5-55.6-47.2-6.4-31.9,14.5-64.2,45.5-69.2,3.3-.5,6.7-1,10.1-1,128.5,0,257.1,0,385.6,0,26.7,0,49,19,55,43.2,5.1,20.7-.1,38.9-14.2,55.2-17.5,20.1-34,41-51,61.5-14.2,17.1-28.6,34-42.9,51-14.7,17.6-29.3,35.4-44,53-14.2,17.1-28.6,34-42.8,51.1-14.9,17.8-29.7,35.8-44.6,53.6-14.1,16.9-28.2,33.6-42.3,50.5-14.1,16.8-28.2,33.6-43.9,52.5,5.1,0,8.3,0,11.4,0,84.7,0,169.5,0,254.2,0,25.7,0,49.8,13.2,58.8,39.8,11.2,33.2-8.6,70.4-43.7,77.3-6.4,1.3-13,1.6-19.5,1.6-128.3,0-256.6.2-384.8,0-25.5,0-45.5-11.2-55.8-34.9-10.1-23.3-6.4-45.4,10.2-65.2,25.1-30.1,49.9-60.5,75-90.5,20.3-24.3,41-48.2,61.2-72.5,22.4-26.9,44.5-54,66.9-80.9,19.7-23.7,39.8-47.1,59.6-70.8,15.6-18.6,31-37.2,46.5-55.9-.3-.7-.6-1.4-.9-2.1Z"/>
  <path class="cls-2" d="M388.1,142.6h-9.2c-81.6,0-163.1,0-244.7,0-27.2,0-50.2-20.5-55.6-47.2-6.4-31.9,14.5-64.2,45.5-69.2,3.3-.5,6.7-1,10.1-1,128.5,0,257.1,0,385.6,0,26.7,0,49,19,55,43.2,5.1,20.7-.1,38.9-14.2,55.2-17.5,20.1-34,41-51,61.5-14.2,17.1-28.6,34-42.9,51-14.7,17.6-29.3,35.4-44,53-14.2,17.1-28.6,34-42.8,51.1-14.9,17.8-29.7,35.8-44.6,53.6-14.1,16.9-28.2,33.6-42.3,50.5-14.1,16.8-28.2,33.6-43.9,52.5,5.1,0,8.3,0,11.4,0,84.7,0,169.5,0,254.2,0,25.7,0,49.8,13.2,58.8,39.8,11.2,33.2-8.6,70.4-43.7,77.3-6.4,1.3-13,1.6-19.5,1.6-128.3,0-256.6.2-384.8,0-25.5,0-45.5-11.2-55.8-34.9-10.1-23.3-6.4-45.4,10.2-65.2,25.1-30.1,49.9-60.5,75-90.5,20.3-24.3,41-48.2,61.2-72.5,22.4-26.9,44.5-54,66.9-80.9,19.7-23.7,39.8-47.1,59.6-70.8,15.6-18.6,31-37.2,46.5-55.9-.3-.7-.6-1.4-.9-2.1Z"/>
</svg>