<?xml version="1.0" encoding="utf-8"?>
<!-- Generator: Adobe Illustrator 26.2.1, SVG Export Plug-In . SVG Version: 6.00 Build 0)  -->
<svg version="1.1" id="report" xmlns="http://www.w3.org/2000/svg" xmlns:xlink="http://www.w3.org/1999/xlink" x="0px" y="0px"
	 viewBox="0 0 640.62 640.62" style="enable-background:new 0 0 640.62 640.62;" xml:space="preserve">
<style type="text/css">
	.st0{display:none;fill:url(#SVGID_1_);}
	.st1{display:none;fill:url(#SVGID_00000114752724851839890190000006606770401198443412_);}
	.st2{display:none;fill:url(#SVGID_00000155147928023871286760000000409405257265094312_);}
	.st3{fill-rule:evenodd;clip-rule:evenodd;fill:#006AFF;}
</style>
<linearGradient id="SVGID_1_" gradientUnits="userSpaceOnUse" x1="290.9483" y1="320.3009" x2="360.9372" y2="320.3009">
	<stop  offset="0" style="stop-color:#FFFFFF;stop-opacity:0.4"/>
	<stop  offset="0.0691" style="stop-color:#FFFFFF;stop-opacity:0.3435"/>
	<stop  offset="0.4892" style="stop-color:#FFFFFF;stop-opacity:0"/>
	<stop  offset="0.7527" style="stop-color:#FAFAFA;stop-opacity:0.1032"/>
	<stop  offset="1" style="stop-color:#EFEFEF;stop-opacity:0.2"/>
</linearGradient>
<path class="st0" d="M360.94,408.89c-23.09-16.59-45.06-32.27-66.81-48.25c-1.83-1.34-2.98-4.76-3.01-7.23
	c-0.23-22.1-0.21-44.2-0.02-66.3c0.02-2.29,0.86-5.51,2.5-6.71c21.96-16.13,44.13-31.97,67.35-48.68
	C360.94,291.13,360.94,349.28,360.94,408.89z"/>
<linearGradient id="SVGID_00000012429975244285353660000007315481476449402287_" gradientUnits="userSpaceOnUse" x1="234.72" y1="320.2812" x2="275.4071" y2="320.2812">
	<stop  offset="0" style="stop-color:#FFFFFF;stop-opacity:0.4"/>
	<stop  offset="0.0691" style="stop-color:#FFFFFF;stop-opacity:0.3435"/>
	<stop  offset="0.4892" style="stop-color:#FFFFFF;stop-opacity:0"/>
	<stop  offset="0.7527" style="stop-color:#FAFAFA;stop-opacity:0.1032"/>
	<stop  offset="1" style="stop-color:#EFEFEF;stop-opacity:0.2"/>
</linearGradient>
<path style="display:none;fill:url(#SVGID_00000012429975244285353660000007315481476449402287_);" d="M275.41,285.55
	c0,23.61,0,46.09,0,69.35c-11.46,0-22.58,0.48-33.59-0.36c-2.51-0.19-6.61-4.84-6.7-7.55c-0.6-17.88-0.4-35.78-0.22-53.68
	c0.05-4.85,2.99-7.68,7.96-7.73C253.46,285.48,264.05,285.55,275.41,285.55z"/>
<linearGradient id="SVGID_00000016782883487147452450000012607187521486413479_" gradientUnits="userSpaceOnUse" x1="377.0954" y1="320.1778" x2="405.9691" y2="320.1778">
	<stop  offset="0" style="stop-color:#FFFFFF;stop-opacity:0.4"/>
	<stop  offset="0.0691" style="stop-color:#FFFFFF;stop-opacity:0.3435"/>
	<stop  offset="0.4892" style="stop-color:#FFFFFF;stop-opacity:0"/>
	<stop  offset="0.7527" style="stop-color:#FAFAFA;stop-opacity:0.1032"/>
	<stop  offset="1" style="stop-color:#EFEFEF;stop-opacity:0.2"/>
</linearGradient>
<path style="display:none;fill:url(#SVGID_00000016782883487147452450000012607187521486413479_);" d="M377.1,355.13
	c0-23.33,0-46.62,0.01-69.9c15.57,1.63,28.5,17.01,28.86,34.31C406.32,336.88,393.67,352.67,377.1,355.13z"/>
<g>
	<path class="st3" d="M417.85,172.35c2.8-0.73,4.08,0.33,5.74,2.29c9.52,11.32,40.22,50.78,48.57,61.58
		c1.24,1.55,0.98,3.81-0.57,5.05c-0.05,0.04-0.11,0.08-0.16,0.12c-61.88,50.97-130.73,123.06-169.1,174.71
		c-0.82,1.09-0.14,1.17,0.41,0.93c66.83-30.37,223.8-78.84,294.6-92.42v-94.54L320.6-0.83L43.27,230.07V333.4
		c85.96-53.91,284.56-137.37,374.56-161.05H417.85z"/>
	<path class="st3" d="M186.71,568.52c1.5,1.85,4.08,2.23,5.99,0.93c102.81-55.9,328.97-126.84,404.65-140.42v212.42H43.3v-220.7
		c56.96-34.02,210.82-103.79,264.97-122.46c1.09-0.38,1.33,0.27,0.41,1.01c-51.98,40.74-133.45,136.88-173.37,198.68
		c-1.82,2.88-1.71,3.81-0.27,5.58L186.71,568.52z"/>
</g>
</svg>
