<?xml version="1.0" encoding="utf-8"?>
<!-- Generator: Adobe Illustrator 26.2.1, SVG Export Plug-In . SVG Version: 6.00 Build 0)  -->
<svg version="1.1" id="report" xmlns="http://www.w3.org/2000/svg" xmlns:xlink="http://www.w3.org/1999/xlink" x="0px" y="0px"
	 viewBox="0 0 640.62 640.62" style="enable-background:new 0 0 640.62 640.62;" xml:space="preserve">
<style type="text/css">
	.st0{fill:#ED3247;}
</style>
<g>
	<path class="st0" d="M19.53,630.64c0-2.9-0.06-5.85,0.01-8.79c0.18-7.71,0.45-15.42,0.61-23.14c0.33-16.22,0.6-32.44,0.93-48.66
		c0.23-11.21,0.5-22.42,0.81-33.62c0.02-0.7,0.38-1.54,0.85-2.05C56.7,477.6,90.69,440.86,124.67,404.1
		c40.29-43.58,80.57-87.18,120.86-130.77c23.81-25.77,47.63-51.52,71.45-77.29c0.88-0.96,1.73-1.95,3.03-3.41
		c-77.66-0.03-154.76,0.54-232.27,2.43c12.67-61.51,20.43-123.36,28.61-184.82c4.81,0,9.35-0.09,13.88,0.02
		c4.61,0.11,9.22,0.47,13.83,0.62c17.72,0.59,35.45,1.25,53.18,1.69c24.98,0.62,49.97,1.36,74.96,1.55
		c49.26,0.38,98.53,0.51,147.8,0.54c23.74,0.02,47.48-0.32,71.22-0.66c17.87-0.25,35.74-0.69,53.6-1.18
		c15.16-0.41,30.31-0.96,45.46-1.57c9.29-0.37,18.56-0.95,27.84-1.42c0.92-0.05,1.84-0.01,3-0.01c0,1.72,0.05,3.4-0.01,5.08
		c-0.35,10.28-0.74,20.56-1.09,30.84c-0.63,18.19-1.24,36.37-1.85,54.56c-0.25,7.31-0.43,14.63-0.78,21.94
		c-0.05,1.06-0.61,2.3-1.33,3.08c-21.27,23.18-42.59,46.31-63.9,69.45c-31.84,34.6-63.68,69.2-95.52,103.81
		c-31.79,34.55-63.58,69.11-95.38,103.66c-13.49,14.65-27,29.28-40.5,43.93c-0.38,0.41-0.69,0.88-1.36,1.73
		c83.31-0.16,166.15-0.05,249.13-3.82c-1.24,5.82-2.51,11.57-3.7,17.34c-4.58,22.22-9.31,44.41-13.66,66.67
		c-3.63,18.59-6.99,37.23-10.16,55.9c-2.55,15.05-4.63,30.17-6.89,45.26c-0.17,1.15-0.54,1.47-1.78,1.39
		c-14.14-0.91-28.28-1.84-42.42-2.57c-43.54-2.23-87.12-3.04-130.71-3.21c-47.55-0.19-95.1-0.23-142.65-0.18
		c-19.65,0.02-39.3,0.4-58.95,0.73c-17.14,0.29-34.28,0.65-51.42,1.18c-16.47,0.51-32.94,1.19-49.41,1.98
		c-12.24,0.58-24.47,1.44-36.71,2.18C19.94,630.8,19.82,630.73,19.53,630.64z"/>
</g>
</svg>
